<?xml version="1.0" encoding="UTF-8"?>
<svg width="15px" height="20px" viewBox="0 0 15 20" version="1.1" xmlns="http://www.w3.org/2000/svg" xmlns:xlink="http://www.w3.org/1999/xlink">
    <!-- Generator: Sketch 58 (84663) - https://sketch.com -->
    <title>noun_hand cursor_838902</title>
    <desc>Created with Sketch.</desc>
    <g id="Page-2-DarkTheme" stroke="none" stroke-width="1" fill="none" fill-rule="evenodd">
        <g id="4.0-OES-Diagrams-Designer-Components" transform="translate(-210.000000, -17.000000)" fill="#FFFFFF" fill-rule="nonzero">
            <g id="Group-11" transform="translate(160.000000, 13.000000)">
                <g id="noun_hand-cursor_838902" transform="translate(50.000000, 4.000000)">
                    <path d="M13.3694499,8.57677411 C12.6813123,8.57677411 12.1237321,9.13936848 12.1237321,9.83369439 L12.1237321,9.09407208 C12.1237321,8.39996499 11.5661519,7.83737062 10.8780142,7.83737062 C10.1898766,7.83737062 9.63229641,8.39996499 9.63229641,9.09407208 L9.63229641,8.35488742 C9.63229641,7.6605615 9.07471623,7.09796713 8.38657858,7.09796713 C7.69844092,7.09796713 7.14086074,7.6605615 7.14086074,8.35488742 L7.14086074,1.25692028 C7.14086074,0.563032014 6.58328056,0 5.89535978,0 C5.20722213,0 4.64964195,0.562813191 4.64964195,1.25692028 L4.64964195,13.1606819 C4.64964195,13.1718418 4.65094319,13.1825642 4.65116006,13.1932865 C4.03068674,11.5462045 3.76783681,10.6599707 2.5787228,9.11464146 C1.90945309,8.35116742 0.858487101,8.28748988 0.342329642,8.88093831 C-0.173827817,9.47416792 -0.0825243336,10.3945382 0.456621651,11.0094313 C1.97104498,12.738572 2.18639976,14.5677148 2.84525957,16.7408477 C2.8498139,16.7563842 4.01333691,20 5.62383493,20 L11.6993118,20 C13.309593,20 14.6153846,18.808289 14.6153846,17.338235 L14.6153846,16.4139259 L14.6153846,16.0443336 L14.6153846,9.83369439 C14.6151677,9.13936848 14.0573707,8.57677411 13.3694499,8.57677411 Z" id="Path"></path>
                </g>
            </g>
        </g>
    </g>
</svg>