<svg xmlns="http://www.w3.org/2000/svg" viewBox="0 0 38.5 63.57"><defs><style>.cls-1{fill:#000000;}</style></defs><title>Asset 65switch-vertical</title><g id="Layer_2" data-name="Layer 2"><g id="Layer_1-2" data-name="Layer 1"><path class="cls-1" d="M19.69,34.49c-.26,0-.35-.14-.35-.42v-8.6c0-.29.11-.41.4-.41H22.9c2.62,0,3.57,1.18,3.57,2.37v4.69c0,1.19-.95,2.37-3.57,2.37Zm1.95-7.56v5.68H22.9c.68,0,1.27-.26,1.27-.9V27.83c0-.64-.59-.9-1.27-.9Z"/><path class="cls-1" d="M34.73,32.23c0,1.19-.81,2.37-3.43,2.37s-3.43-1.18-3.43-2.37V27.32c0-1.2.81-2.37,3.43-2.37s3.43,1.17,3.43,2.37V28c0,.3-.09.42-.39.42H32.91c-.3,0-.41-.12-.41-.42v-.23c0-.64-.49-.9-1.17-.9s-1.16.26-1.16.9v4.1c0,.64.47.91,1.16.91s1.17-.27,1.17-.91v-.44c0-.29.11-.42.41-.42h1.43c.3,0,.39.13.39.42Z"/><path class="cls-1" d="M9.1,4.38,11.63,13c.08.26,0,.42-.31.42H9.77A.46.46,0,0,1,9.29,13l-.37-1.33H6.61L6.24,13c-.07.26-.19.42-.49.42H4.35c-.3,0-.4-.16-.31-.42l2.52-8.6A.49.49,0,0,1,7.08,4H8.59A.47.47,0,0,1,9.1,4.38ZM8.22,9.1C8,8.25,7.81,6.32,7.79,6.2c0,.19-.25,2.09-.47,2.9l-.21.74H8.42Z"/><path class="cls-1" d="M19.21,11.13c0,1.2-.81,2.38-3.43,2.38s-3.43-1.18-3.43-2.38V6.23c0-1.2.8-2.38,3.43-2.38S19.21,5,19.21,6.23v.63c0,.3-.1.42-.39.42H17.38c-.29,0-.4-.12-.4-.42V6.63c0-.64-.49-.9-1.17-.9s-1.16.26-1.16.9v4.1c0,.64.47.9,1.16.9s1.17-.26,1.17-.9v-.44c0-.29.11-.42.4-.42h1.44c.29,0,.39.13.39.42Z"/><rect class="cls-1" x="8.58" y="47.76" width="21.33" height="1.31"/><polygon class="cls-1" points="12.85 54.33 18.6 54.33 18.6 63.57 19.9 63.57 19.9 54.33 25.65 54.33 25.65 53.02 12.85 53.02 12.85 54.33"/><path class="cls-1" d="M0,0V38.5H18.6v9.26h1.3V38.5H38.5V0ZM36.17,1.5,1.5,36.17V1.5ZM2.79,37,37,2.79V37Z"/></g></g></svg>
