<?xml version="1.0" encoding="utf-8"?>
<!-- Generator: Adobe Illustrator 25.2.0, SVG Export Plug-In . SVG Version: 6.00 Build 0)  -->
<svg version="1.1" id="Layer_1" xmlns="http://www.w3.org/2000/svg" xmlns:xlink="http://www.w3.org/1999/xlink" x="0px" y="0px"
	 viewBox="0 0 200 400" style="enable-background:new 0 0 200 400;" xml:space="preserve">
<style type="text/css">
	.st0{fill:#7A7A7A;stroke:#F2F1EF;stroke-width:6.1559;stroke-miterlimit:10;}
	.st1{fill:#7A7A7A;}
	.st2{fill:url(#SVGID_1_);}
</style>
<g>
	<path class="st0" d="M178,68.3v279c0,12.1-9.9,22-22,22H44.7c-12.1,0-22-9.9-22-22v-279c0-12.1,9.9-22,22-22H156
		C168.1,46.3,178,56.2,178,68.3z"/>
	<g>
		<path class="st1" d="M71.7,26.7c-3.1,0-5.4,13-5.3,13.4h68c0.1-0.4-2.2-13.4-5.3-13.4C129.1,26.7,71.7,26.7,71.7,26.7z"/>
	</g>
	<g>
		
			<linearGradient id="SVGID_1_" gradientUnits="userSpaceOnUse" x1="677.2284" y1="98.7718" x2="677.2284" y2="-29.6676" gradientTransform="matrix(0 -1 -1 0 134.6784 1008.6784)">
			<stop  offset="7.347580e-02" style="stop-color:#D83825"/>
			<stop  offset="0.2491" style="stop-color:#FF6B58"/>
			<stop  offset="0.7043" style="stop-color:#FF9182"/>
			<stop  offset="0.8566" style="stop-color:#FF6B58"/>
		</linearGradient>
		<path class="st2" d="M42.2,304h116.3c4.6,0,8.3,3.7,8.3,8.3v38.3c0,4.6-3.7,8.3-8.3,8.3H42.2c-4.6,0-8.3-3.7-8.3-8.3v-38.3
			C33.9,307.7,37.6,304,42.2,304z"/>
	</g>
</g>
</svg>
