<?xml version="1.0" encoding="utf-8"?>
<!-- Generator: Adobe Illustrator 25.3.1, SVG Export Plug-In . SVG Version: 6.00 Build 0)  -->
<svg version="1.1" id="Layer_1" xmlns="http://www.w3.org/2000/svg" xmlns:xlink="http://www.w3.org/1999/xlink" x="0px" y="0px"
	 viewBox="0 0 1007 1891" style="enable-background:new 0 0 1007 1891;" xml:space="preserve">
<style type="text/css">
	.st0{clip-path:url(#SVGID_2_);}
	.st1{clip-path:url(#SVGID_4_);fill:#F4F4F4;}
	.st2{clip-path:url(#SVGID_6_);fill:#AAA9A5;}
	.st3{clip-path:url(#SVGID_8_);fill:#9B9A95;}
	.st4{clip-path:url(#SVGID_10_);fill:#BABABA;}
	.st5{clip-path:url(#SVGID_12_);fill:#BABABA;}
	.st6{clip-path:url(#SVGID_14_);fill:#BABABA;}
	.st7{clip-path:url(#SVGID_16_);fill:#BABABA;}
	.st8{clip-path:url(#SVGID_18_);fill:#BABABA;}
	.st9{clip-path:url(#SVGID_20_);fill:#BABABA;}
	.st10{clip-path:url(#SVGID_22_);fill:#AAA9A5;}
	.st11{clip-path:url(#SVGID_24_);fill:#C5C4C6;}
	.st12{clip-path:url(#SVGID_26_);fill:#BABABA;}
	.st13{clip-path:url(#SVGID_28_);fill:#9B9A95;}
	.st14{clip-path:url(#SVGID_30_);fill:#AFAFAE;}
	.st15{clip-path:url(#SVGID_32_);fill:#AFAFAE;}
	.st16{clip-path:url(#SVGID_34_);fill:#AFAFAE;}
	.st17{clip-path:url(#SVGID_36_);fill:#AFAFAE;}
	.st18{clip-path:url(#SVGID_38_);fill:#BABABA;}
	.st19{clip-path:url(#SVGID_40_);fill:#CCCCCC;}
	.st20{clip-path:url(#SVGID_42_);fill:#D8D8D8;}
	.st21{clip-path:url(#SVGID_44_);fill:#DDDDDD;}
	.st22{clip-path:url(#SVGID_46_);fill:#E5E5E5;}
	.st23{clip-path:url(#SVGID_48_);fill:#F4F4F4;}
	.st24{clip-path:url(#SVGID_50_);fill:#E5E5E5;}
	.st25{clip-path:url(#SVGID_52_);fill:#E5E5E5;}
	.st26{clip-path:url(#SVGID_54_);fill:#C5C4C6;}
	.st27{clip-path:url(#SVGID_56_);fill:#FCFCFC;}
	.st28{clip-path:url(#SVGID_58_);fill:#C5C4C6;}
	.st29{clip-path:url(#SVGID_60_);fill:#C5C4C6;}
	.st30{clip-path:url(#SVGID_62_);fill:#CECECE;}
	.st31{clip-path:url(#SVGID_64_);fill:#CECECE;}
	.st32{clip-path:url(#SVGID_66_);fill:#BABABA;}
	.st33{clip-path:url(#SVGID_68_);fill:#C5C4C6;}
	.st34{clip-path:url(#SVGID_70_);fill:#F4F4F4;}
	.st35{clip-path:url(#SVGID_72_);fill:#E5E5E5;}
	.st36{clip-path:url(#SVGID_74_);fill:#E5E5E5;}
	.st37{clip-path:url(#SVGID_76_);fill:#C5C4C6;}
	.st38{clip-path:url(#SVGID_78_);fill:#FCFCFC;}
	.st39{clip-path:url(#SVGID_80_);fill:#C5C4C6;}
	.st40{clip-path:url(#SVGID_82_);fill:#C5C4C6;}
	.st41{clip-path:url(#SVGID_84_);fill:#CECECE;}
	.st42{clip-path:url(#SVGID_86_);fill:#CECECE;}
	.st43{clip-path:url(#SVGID_88_);fill:#BABABA;}
	.st44{clip-path:url(#SVGID_90_);fill:#C5C4C6;}
	.st45{clip-path:url(#SVGID_92_);fill:#F4F4F4;}
	.st46{clip-path:url(#SVGID_94_);fill:#D9F77C;}
	.st47{clip-path:url(#SVGID_96_);fill:#D9F77C;}
	.st48{clip-path:url(#SVGID_98_);fill:#D9F77C;}
	.st49{clip-path:url(#SVGID_100_);fill:#D37828;}
	.st50{clip-path:url(#SVGID_102_);fill:#B3B3B3;}
	.st51{clip-path:url(#SVGID_104_);fill:#B3B3B3;}
	.st52{clip-path:url(#SVGID_106_);fill:#F57E20;}
	.st53{clip-path:url(#SVGID_108_);fill:#CBEF6A;}
	.st54{clip-path:url(#SVGID_110_);fill:#CBEF6A;}
	.st55{clip-path:url(#SVGID_112_);fill:#CBEF6A;}
	.st56{clip-path:url(#SVGID_114_);fill:#F6861F;}
	.st57{clip-path:url(#SVGID_116_);fill:#CCCCCC;}
	.st58{clip-path:url(#SVGID_118_);fill:#CCCCCC;}
	.st59{clip-path:url(#SVGID_120_);fill:#F37122;}
	.st60{clip-path:url(#SVGID_122_);fill:#BFBFBF;}
	.st61{clip-path:url(#SVGID_124_);fill:#BFBFBF;}
	.st62{clip-path:url(#SVGID_126_);fill:#BFBFBF;}
	.st63{clip-path:url(#SVGID_128_);fill:#BFBFBF;}
	.st64{clip-path:url(#SVGID_130_);fill:#BFBFBF;}
	.st65{clip-path:url(#SVGID_132_);fill:#BFBFBF;}
	.st66{clip-path:url(#SVGID_134_);fill:#BFBFBF;}
	.st67{clip-path:url(#SVGID_136_);fill:#BFBFBF;}
	.st68{clip-path:url(#SVGID_138_);fill:#BFBFBF;}
	.st69{clip-path:url(#SVGID_140_);fill:#BFBFBF;}
	.st70{clip-path:url(#SVGID_142_);fill:#BFBFBF;}
	.st71{clip-path:url(#SVGID_144_);fill:#BFBFBF;}
	.st72{clip-path:url(#SVGID_146_);fill:#BFBFBF;}
	.st73{clip-path:url(#SVGID_148_);fill:#BFBFBF;}
</style>
<g id="Artwork_32_1_">
	<g>
		<g>
			<defs>
				<rect id="SVGID_1_" width="1006.8" height="1890.6"/>
			</defs>
			<clipPath id="SVGID_2_">
				<use xlink:href="#SVGID_1_"  style="overflow:visible;"/>
			</clipPath>
			<g class="st0">
				<g>
					<defs>
						<rect id="SVGID_3_" width="1006.8" height="1890.6"/>
					</defs>
					<clipPath id="SVGID_4_">
						<use xlink:href="#SVGID_3_"  style="overflow:visible;"/>
					</clipPath>
					<path class="st1" d="M977.3,201.1c0.1-0.3,0.2-0.6,0.2-0.9C977.4,200.5,977.3,200.8,977.3,201.1L977.3,201.1z"/>
				</g>
				<g>
					<defs>
						<rect id="SVGID_5_" width="1006.8" height="1890.6"/>
					</defs>
					<clipPath id="SVGID_6_">
						<use xlink:href="#SVGID_5_"  style="overflow:visible;"/>
					</clipPath>
					<path class="st2" d="M282.8,1784.8V686.7c0-22.3-5-43.9-14.3-63.4c-6.2-2.5-12.2-5.4-18-8.8L62.7,506.1l-35.7-20.6
						C10.1,475.8,0,458.3,0,438.9v1256.7c0,19.2,10.3,37,26.9,46.6l170.1,98.2C236.5,1858.3,282.8,1829.6,282.8,1784.8 M174.4,1793
						c0,4-0.6,7.9-1.8,11.6l-133.2-76.9c-9.5-5.5-15.5-15.8-15.5-26.8V534l89.6,53.7c37.5,22.5,60.8,63.6,60.8,107.4L174.4,1793
						L174.4,1793z"/>
				</g>
				<g>
					<defs>
						<rect id="SVGID_7_" width="1006.8" height="1890.6"/>
					</defs>
					<clipPath id="SVGID_8_">
						<use xlink:href="#SVGID_7_"  style="overflow:visible;"/>
					</clipPath>
					<path class="st3" d="M26.9,485.5l35.7,20.6l187.9,108.5c5.8,3.4,11.9,6.3,18,8.8c-12.3-26-32.2-48.3-57.7-63.6L62.7,471
						l-35.7-20.6c-11.6-6.7-19.9-17-24-29.1C1,415.8,0,409.8,0,403.7v35.1C0,458.3,10.1,475.8,26.9,485.5"/>
				</g>
				<g>
					<defs>
						<rect id="SVGID_9_" width="1006.8" height="1890.6"/>
					</defs>
					<clipPath id="SVGID_10_">
						<use xlink:href="#SVGID_9_"  style="overflow:visible;"/>
					</clipPath>
					<polygon class="st4" points="906.8,283.8 634.4,441 636.2,442.5 					"/>
				</g>
				<g>
					<defs>
						<rect id="SVGID_11_" width="1006.8" height="1890.6"/>
					</defs>
					<clipPath id="SVGID_12_">
						<use xlink:href="#SVGID_11_"  style="overflow:visible;"/>
					</clipPath>
					<path class="st5" d="M979.8,276.8l-73,42.2L634.4,476.2L394.7,614.6c-11,6.4-22.7,11.2-34.7,14.4c-1,0.3-2,0.5-2.9,0.7
						c-7.9,17.4-12.2,36.6-12.2,56.4v5.3v1114.1v5.3c0,39.6,42.8,64.3,77.1,44.5l343-197.7l215-124.1c16.9-9.7,26.9-27.2,26.9-46.6
						V230.1C1006.8,249.6,996.7,267,979.8,276.8 M984.9,1492.2c0,2.6-0.3,5.1-0.8,7.4l-0.2,0.7c-2,7.8-7.1,14.4-14.5,18.7
						l-215,124.1l-229.8,132.4v-58.9v-38.6l-149,86.3v-226.5l3.9-2.2v-0.5l-4.8,2.8v-226.5l4.8-2.8v-0.5l-3.9,2.2v-226.5l4-2.3v-0.5
						l-5,2.9V857.2l149.9-86.9v-70.7c0-40.1,21.5-77.6,56.1-97.9l404.1-236.9L984.9,1492.2L984.9,1492.2z"/>
				</g>
				<g>
					<defs>
						<rect id="SVGID_13_" width="1006.8" height="1890.6"/>
					</defs>
					<clipPath id="SVGID_14_">
						<use xlink:href="#SVGID_13_"  style="overflow:visible;"/>
					</clipPath>
					<polygon class="st6" points="379.6,1326.5 379.6,1308.5 374.8,1311.3 374.8,1537.9 379.6,1535.1 379.6,1359.6 					"/>
				</g>
				<g>
					<defs>
						<rect id="SVGID_15_" width="1006.8" height="1890.6"/>
					</defs>
					<clipPath id="SVGID_16_">
						<use xlink:href="#SVGID_15_"  style="overflow:visible;"/>
					</clipPath>
					<polygon class="st7" points="379.8,1081.4 375.8,1083.7 375.8,1310.3 379.6,1308 379.6,1146.1 					"/>
				</g>
				<g>
					<defs>
						<rect id="SVGID_17_" width="1006.8" height="1890.6"/>
					</defs>
					<clipPath id="SVGID_18_">
						<use xlink:href="#SVGID_17_"  style="overflow:visible;"/>
					</clipPath>
					<path class="st8" d="M407.6,841.9l117.1-67.6v-4l-149.9,86.9v226.5l5-2.9l0.5-191.7C380.3,869.7,390.7,851.6,407.6,841.9"/>
				</g>
				<g>
					<defs>
						<rect id="SVGID_19_" width="1006.8" height="1890.6"/>
					</defs>
					<clipPath id="SVGID_20_">
						<use xlink:href="#SVGID_19_"  style="overflow:visible;"/>
					</clipPath>
					<path class="st9" d="M400.8,1749L400.8,1749l-6,3.5c0,0-0.1,0.1-0.1,0.1c-1.6,0.9-3.3,1.3-4.9,1.3c-5.2,0-10-4.2-10-10.1v-15.8
						v-192.3l-3.9,2.2v226.5l149-86.3v-0.7L400.8,1749z"/>
				</g>
				<g>
					<defs>
						<rect id="SVGID_21_" width="1006.8" height="1890.6"/>
					</defs>
					<clipPath id="SVGID_22_">
						<use xlink:href="#SVGID_21_"  style="overflow:visible;"/>
					</clipPath>
					<path class="st10" d="M979.8,241.6l-73,42.2L636.2,442.5l-1.7-1.4L400.7,576l0,0c-19.1,14-34.1,32.6-43.7,53.7
						c1-0.2,2-0.5,2.9-0.7c12-3.2,23.7-8,34.7-14.4l239.7-138.4l272.4-157.2l73-42.2c16.9-9.7,26.9-27.2,26.9-46.6v0V195
						c0,6.1-1,12-2.9,17.6C999.8,224.6,991.4,234.9,979.8,241.6"/>
				</g>
				<g>
					<defs>
						<rect id="SVGID_23_" width="1006.8" height="1890.6"/>
					</defs>
					<clipPath id="SVGID_24_">
						<use xlink:href="#SVGID_23_"  style="overflow:visible;"/>
					</clipPath>
					<path class="st11" d="M344.8,1810.8v-5.3V691.4V686c0-19.8,4.3-38.9,12.2-56.4c-11.3,2.8-22.9,4.2-34.4,4.2
						c-18.4,0-36.8-3.5-54.1-10.5c9.2,19.5,14.3,41.1,14.3,63.4v1098.1c0,44.8-46.3,73.5-85.8,55.7l53.5,30.9
						c22.2,12.8,47.2,19.3,72.1,19.3s49.9-6.4,72.1-19.3l370.1-213.7l-343,197.7C387.6,1875,344.8,1850.3,344.8,1810.8"/>
				</g>
				<g>
					<defs>
						<rect id="SVGID_25_" width="1006.8" height="1890.6"/>
					</defs>
					<clipPath id="SVGID_26_">
						<use xlink:href="#SVGID_25_"  style="overflow:visible;"/>
					</clipPath>
					<path class="st12" d="M268.5,623.4c17.3,7,35.7,10.5,54.1,10.5c11.6,0,23.1-1.4,34.4-4.2c9.6-21.2,24.6-39.8,43.7-53.7l-6,3.5
						c-22.2,12.8-47.2,19.3-72.1,19.3s-49.9-6.4-72.1-19.3L62.7,471l148.2,88.8C236.4,575,256.2,597.3,268.5,623.4"/>
				</g>
				<g>
					<defs>
						<rect id="SVGID_27_" width="1006.8" height="1890.6"/>
					</defs>
					<clipPath id="SVGID_28_">
						<use xlink:href="#SVGID_27_"  style="overflow:visible;"/>
					</clipPath>
					<path class="st13" d="M113.5,587.6L23.9,534v1167c0,11,5.9,21.3,15.5,26.8l133.2,76.9c1.1-3.7,1.8-7.6,1.8-11.6V695
						C174.4,651.2,151,610.1,113.5,587.6"/>
				</g>
				<g>
					<defs>
						<rect id="SVGID_29_" width="1006.8" height="1890.6"/>
					</defs>
					<clipPath id="SVGID_30_">
						<use xlink:href="#SVGID_29_"  style="overflow:visible;"/>
					</clipPath>
					<path class="st14" d="M524.7,699.6v70.7l432.2-250.5v17.5c0.6,1.3,0.9,2.7,0.9,4.2v15.8v189v226.5v227.1v0.5v108.1v33.2v52.3
						v16.1v16.9l-11.5,6.6c-0.1,0.1-0.2,0.2-0.3,0.4l-39.3,22.7l-51.1,29.5l-330.9,191.8v38.6v58.9l229.8-132.4l215-124.1
						c7.4-4.3,12.4-10.8,14.5-18.7l0.2-0.7c0.6-2.4,0.8-4.9,0.8-7.4V364.8L580.8,601.7C546.2,622,524.7,659.5,524.7,699.6"/>
				</g>
				<g>
					<defs>
						<rect id="SVGID_31_" width="1006.8" height="1890.6"/>
					</defs>
					<clipPath id="SVGID_32_">
						<use xlink:href="#SVGID_31_"  style="overflow:visible;"/>
					</clipPath>
					<path class="st15" d="M942.8,532.9c1.6-0.9,3.3-1.4,5-1.4c3.8,0,7.5,2.3,9.1,5.8v-17.5L524.7,770.3v4L942.8,532.9z"/>
				</g>
				<g>
					<defs>
						<rect id="SVGID_33_" width="1006.8" height="1890.6"/>
					</defs>
					<clipPath id="SVGID_34_">
						<use xlink:href="#SVGID_33_"  style="overflow:visible;"/>
					</clipPath>
					<polygon class="st16" points="634.4,1614 605.3,1630.9 605.3,1630.9 524.7,1677.4 524.7,1678.1 855.7,1486.3 					"/>
				</g>
				<g>
					<defs>
						<rect id="SVGID_35_" width="1006.8" height="1890.6"/>
					</defs>
					<clipPath id="SVGID_36_">
						<use xlink:href="#SVGID_35_"  style="overflow:visible;"/>
					</clipPath>
					<path class="st17" d="M957.9,1427.1v-16.9c-1.8,8.7-5.7,16.8-11.5,23.5L957.9,1427.1z"/>
				</g>
				<g>
					<defs>
						<rect id="SVGID_37_" width="1006.8" height="1890.6"/>
					</defs>
					<clipPath id="SVGID_38_">
						<use xlink:href="#SVGID_37_"  style="overflow:visible;"/>
					</clipPath>
					<path class="st18" d="M977.2,201.6c0-0.2,0.1-0.3,0.1-0.5l0,0C977.2,201.3,977.2,201.4,977.2,201.6"/>
				</g>
				<g>
					<defs>
						<rect id="SVGID_39_" width="1006.8" height="1890.6"/>
					</defs>
					<clipPath id="SVGID_40_">
						<use xlink:href="#SVGID_39_"  style="overflow:visible;"/>
					</clipPath>
					<path class="st19" d="M965.5,173.2L741.9,44.1c-17.8-10.3-37.8-15.4-57.7-15.4c-20,0-39.9,5.1-57.7,15.4L41.3,382
						c-2.8,1.6-5.2,3.7-7.1,6.1c-3.5,4.4-5.5,9.8-5.5,15.7c0,0.6,0,1.1,0.1,1.7c0,0.1,0,0.2,0,0.3c0,0.5,0.1,0.9,0.1,1.4
						c0,0,0,0.1,0,0.2c0.1,0.5,0.1,1,0.2,1.5c0,0,0,0.1,0,0.1c0.1,0.5,0.2,1,0.4,1.5v0c0.6,2.1,1.4,4.1,2.5,6l0,0
						c2.2-3.7,5.3-6.9,9.2-9.1L626.4,69.4C644.2,59.1,664.2,54,684.1,54c20,0,39.9,5.1,57.7,15.4l223.6,129.1c3.9,2.3,7,5.4,9.2,9.1
						l0,0c0.3-0.5,0.5-0.9,0.8-1.4c0,0,0,0,0,0c0.2-0.5,0.5-0.9,0.7-1.4c0,0,0,0,0-0.1c0.2-0.5,0.4-1,0.5-1.5c0,0,0-0.1,0-0.1
						c0.2-0.5,0.3-0.9,0.4-1.4c0-0.1,0-0.1,0-0.1c0-0.2,0.1-0.3,0.1-0.5c0.1-0.3,0.2-0.6,0.2-0.9c0-0.1,0-0.1,0-0.2
						c0.1-0.4,0.2-0.9,0.2-1.3c0-0.1,0-0.2,0.1-0.3c0-0.4,0.1-0.9,0.1-1.3c0-0.1,0-0.2,0-0.4c0-0.6,0.1-1.1,0.1-1.7
						c0-5.9-2-11.3-5.5-15.7C970.6,176.9,968.2,174.8,965.5,173.2"/>
				</g>
				<g>
					<defs>
						<rect id="SVGID_41_" width="1006.8" height="1890.6"/>
					</defs>
					<clipPath id="SVGID_42_">
						<use xlink:href="#SVGID_41_"  style="overflow:visible;"/>
					</clipPath>
					<path class="st20" d="M965.5,198.5L741.9,69.4C724.1,59.1,704.1,54,684.2,54c-20,0-39.9,5.1-57.7,15.4L41.3,407.2
						c-3.9,2.3-7,5.4-9.2,9.1c0,0,0,0,0,0c0.3,0.5,0.5,0.9,0.8,1.3l0,0c0.3,0.4,0.6,0.9,0.9,1.3l0,0c0.3,0.4,0.7,0.8,1,1.2
						c0,0,0,0,0,0c0.3,0.4,0.7,0.8,1.1,1.1c0,0,0.1,0.1,0.2,0.1c0.3,0.3,0.7,0.6,1,1c0.1,0.1,0.3,0.2,0.4,0.3
						c0.3,0.2,0.6,0.5,0.9,0.7c0.2,0.2,0.5,0.4,0.8,0.5c0.2,0.1,0.4,0.3,0.6,0.4c0.5,0.3,0.9,0.6,1.4,0.9l223.6,129.1
						c35.6,20.6,79.9,20.6,115.5,0l585.1-337.8c0.5-0.3,1-0.6,1.4-0.9c0.3-0.2,0.5-0.4,0.8-0.6c0.2-0.1,0.4-0.3,0.6-0.4
						c0.3-0.3,0.7-0.5,1-0.8c0.1-0.1,0.2-0.1,0.3-0.2c0.4-0.3,0.7-0.7,1.1-1c0,0,0.1-0.1,0.1-0.1c0.4-0.4,0.7-0.7,1.1-1.1
						c0,0,0,0,0-0.1c0.7-0.8,1.4-1.7,2-2.6l0,0c0.3-0.4,0.6-0.9,0.8-1.3c0,0,0,0,0-0.1C972.5,203.9,969.4,200.7,965.5,198.5
						 M560.7,177v-9.9v-1.6h0c0.4-13.9,6.8-26.8,17.3-37.5c17.7-18,47.4-29.9,81-29.9c34.5,0,64.8,12.4,82.3,31.2
						c10.1,10.8,16,23.8,16,37.7v9.9l0.2,44.6l-0.3,4.4c-1,12.3-6.5,23.8-15.5,33.5c-16.9,18.3-45.9,30.7-79,31.5
						c-1.2,0-2.4,0-3.6,0c-54.3,0-98.4-30.9-98.4-68.9L560.7,177L560.7,177z M225.8,371.9V362v-1.6h0c0.4-13.9,6.8-26.8,17.3-37.5
						c17.7-18,47.4-29.9,81.1-29.9c34.5,0,64.8,12.4,82.3,31.2c10.1,10.8,16,23.8,16,37.7v9.9l0.2,44.6l-0.3,4.4
						c-1,12.3-6.5,23.8-15.5,33.5C390,472.6,361,485,327.8,485.8c-1.2,0-2.4,0-3.6,0c-54.3,0-98.4-30.9-98.4-68.9L225.8,371.9
						L225.8,371.9z M367.8,532.9c-27.9,16.1-62.6,16.1-90.5,0L75.5,416.4L200.8,344v72.9c0,26.4,14.4,51.6,39.5,69.2
						c22.8,15.9,52.6,24.7,83.9,24.7c1.4,0,2.9,0,4.3-0.1c39.2-1,74.5-15.4,96.8-39.6c13.1-14.2,20.7-30.9,22.1-48.5l0.4-5.4
						l-0.2-45.5V362c0-19.9-7.9-38.8-22.8-54.8c-21.4-22.9-55.6-37.2-92.7-39l203.6-117.6v71.5c0,26.4,14.4,51.6,39.5,69.2
						c22.8,15.9,52.5,24.7,83.9,24.7c1.4,0,2.8,0,4.3-0.1l0,0c39.2-1,74.5-15.4,96.8-39.6c13.1-14.2,20.7-30.9,22.1-48.6l0.4-5.3
						l-0.2-45.5v-9.9c0-19.9-7.9-38.8-22.8-54.8c-3.4-3.6-7.1-7-11-10.2l182.6,105.4L367.8,532.9z"/>
				</g>
				<g>
					<defs>
						<rect id="SVGID_43_" width="1006.8" height="1890.6"/>
					</defs>
					<clipPath id="SVGID_44_">
						<use xlink:href="#SVGID_43_"  style="overflow:visible;"/>
					</clipPath>
					<path class="st21" d="M759.7,112.3c14.9,15.9,22.8,34.9,22.8,54.8v9.9l0.2,45.5l-0.4,5.3c-1.4,17.6-9,34.4-22.1,48.6
						c-22.3,24.1-57.5,38.6-96.8,39.6l0,0c-1.4,0-2.8,0.1-4.3,0.1c-31.4,0-61.2-8.8-83.9-24.7c-25.1-17.6-39.5-42.8-39.5-69.2v-71.5
						L332.1,268.2c37.1,1.8,71.3,16.1,92.7,39c14.9,15.9,22.8,34.9,22.8,54.8v9.9l0.2,45.5l-0.4,5.4c-1.4,17.5-9,34.3-22.1,48.5
						c-22.3,24.1-57.5,38.6-96.8,39.6c-1.4,0-2.8,0.1-4.3,0.1c-31.4,0-61.2-8.8-83.9-24.7c-25.1-17.6-39.5-42.8-39.5-69.2V344
						L75.5,416.3l201.9,116.6c27.9,16.1,62.6,16.1,90.5,0l563.4-325.3L748.7,102.2C752.7,105.3,756.3,108.8,759.7,112.3"/>
				</g>
				<g>
					<defs>
						<rect id="SVGID_45_" width="1006.8" height="1890.6"/>
					</defs>
					<clipPath id="SVGID_46_">
						<use xlink:href="#SVGID_45_"  style="overflow:visible;"/>
					</clipPath>
					<path class="st22" d="M972.4,161.2L748.8,32.2c-39.9-23-89.4-23-129.3,0L34.4,370c-11.6,6.7-18.7,18.4-19.4,31.6
						c0,0.7-0.1,1.4-0.1,2.1c0,14.1,7.3,26.7,19.5,33.7L258,566.5c39.9,23,89.4,23,129.3,0l585.1-337.8c12.2-7,19.5-19.6,19.5-33.7
						c0-0.7,0-1.4-0.1-2.1C991.1,179.6,984,167.9,972.4,161.2 M978,196.7c0,0.1,0,0.2,0,0.4c0,0.4-0.1,0.9-0.1,1.3
						c0,0.1,0,0.2-0.1,0.3c-0.1,0.4-0.1,0.9-0.2,1.3c0,0.1,0,0.1,0,0.2c-0.1,0.3-0.1,0.6-0.2,0.9c0,0.2-0.1,0.3-0.1,0.5
						c0,0.1,0,0.1,0,0.1c-0.1,0.5-0.3,0.9-0.4,1.4c0,0,0,0.1,0,0.1c-0.2,0.5-0.3,1-0.5,1.4c0,0,0,0,0,0.1c-0.2,0.5-0.4,1-0.7,1.4
						c0,0,0,0,0,0c-0.2,0.5-0.5,0.9-0.8,1.4l0,0c0,0,0,0,0,0.1c-0.3,0.4-0.5,0.9-0.8,1.3l0,0c-0.6,0.9-1.3,1.7-2,2.6c0,0,0,0,0,0.1
						c-0.3,0.4-0.7,0.8-1.1,1.1c0,0-0.1,0.1-0.1,0.1c-0.3,0.3-0.7,0.7-1.1,1c-0.1,0.1-0.2,0.1-0.3,0.2c-0.3,0.3-0.7,0.6-1,0.8
						c-0.2,0.1-0.4,0.3-0.6,0.4c-0.3,0.2-0.5,0.4-0.8,0.6c-0.5,0.3-0.9,0.6-1.4,0.9L380.3,554.6c-35.6,20.6-79.9,20.6-115.5,0
						L41.3,425.5c-0.5-0.3-1-0.6-1.4-0.9c-0.2-0.1-0.4-0.3-0.6-0.4c-0.3-0.2-0.5-0.4-0.8-0.5c-0.3-0.2-0.6-0.5-0.9-0.7
						c-0.1-0.1-0.3-0.2-0.4-0.3c-0.4-0.3-0.7-0.6-1-1c0,0-0.1-0.1-0.2-0.1c-0.4-0.4-0.7-0.8-1.1-1.1c0,0,0,0,0,0
						c-0.4-0.4-0.7-0.8-1-1.2l0,0c-0.3-0.4-0.6-0.9-0.9-1.3c0,0,0,0,0,0c-0.3-0.4-0.6-0.9-0.8-1.3c0,0,0,0,0,0l0,0
						c-1.1-1.9-1.9-3.9-2.5-6c0,0,0,0,0,0c-0.1-0.5-0.2-1-0.4-1.5c0,0,0-0.1,0-0.1c-0.1-0.5-0.2-1-0.2-1.5c0,0,0-0.1,0-0.2
						c-0.1-0.5-0.1-0.9-0.1-1.4c0-0.1,0-0.2,0-0.3c0-0.6-0.1-1.1-0.1-1.7c0-5.9,2-11.3,5.5-15.7c1.9-2.4,4.3-4.5,7.1-6.1L626.4,44.1
						c17.8-10.3,37.8-15.4,57.7-15.4c20,0,39.9,5.1,57.7,15.4l223.6,129.1c2.8,1.6,5.2,3.7,7.1,6.1c3.5,4.4,5.5,9.8,5.5,15.7
						C978,195.6,978,196.1,978,196.7"/>
				</g>
				<g>
					<defs>
						<rect id="SVGID_47_" width="1006.8" height="1890.6"/>
					</defs>
					<clipPath id="SVGID_48_">
						<use xlink:href="#SVGID_47_"  style="overflow:visible;"/>
					</clipPath>
					<path class="st23" d="M979.8,148.3L756.2,19.3c-44.5-25.7-99.7-25.7-144.2,0L26.9,357.1C10.1,366.8,0,384.2,0,403.7
						c0,6.1,1,12,2.9,17.6c4.1,12.1,12.5,22.4,24,29.1L62.7,471l187.9,108.5c22.2,12.8,47.2,19.3,72.1,19.3
						c24.9,0,49.9-6.4,72.1-19.3l6-3.5L634.4,441l272.4-157.2l73-42.2c11.6-6.7,19.9-17,24-29.1c1.9-5.5,2.9-11.4,2.9-17.6v0
						C1006.8,175.5,996.7,158.1,979.8,148.3 M972.4,228.7L387.2,566.5c-39.9,23-89.4,23-129.3,0L34.4,437.5
						c-12.2-7-19.5-19.6-19.5-33.7c0-0.7,0-1.4,0.1-2.1c0.7-13.2,7.8-24.9,19.4-31.6L619.5,32.2c39.9-23,89.4-23,129.3,0
						l223.6,129.1c11.6,6.7,18.7,18.4,19.4,31.6c0,0.7,0.1,1.4,0.1,2.1C991.9,209.1,984.6,221.7,972.4,228.7"/>
				</g>
				<g>
					<defs>
						<rect id="SVGID_49_" width="1006.8" height="1890.6"/>
					</defs>
					<clipPath id="SVGID_50_">
						<use xlink:href="#SVGID_49_"  style="overflow:visible;"/>
					</clipPath>
					<path class="st24" d="M327.8,430.8L327.8,430.8C327.8,430.8,327.8,430.8,327.8,430.8L327.8,430.8"/>
				</g>
				<g>
					<defs>
						<rect id="SVGID_51_" width="1006.8" height="1890.6"/>
					</defs>
					<clipPath id="SVGID_52_">
						<use xlink:href="#SVGID_51_"  style="overflow:visible;"/>
					</clipPath>
					<path class="st25" d="M406.9,399.3C406.9,399.3,406.9,399.3,406.9,399.3C406.9,399.3,406.9,399.3,406.9,399.3
						C406.9,399.3,406.9,399.3,406.9,399.3"/>
				</g>
				<g>
					<defs>
						<rect id="SVGID_53_" width="1006.8" height="1890.6"/>
					</defs>
					<clipPath id="SVGID_54_">
						<use xlink:href="#SVGID_53_"  style="overflow:visible;"/>
					</clipPath>
					<path class="st26" d="M225.8,360.4v1.6C225.8,361.4,225.8,360.9,225.8,360.4L225.8,360.4z"/>
				</g>
				<g>
					<defs>
						<rect id="SVGID_55_" width="1006.8" height="1890.6"/>
					</defs>
					<clipPath id="SVGID_56_">
						<use xlink:href="#SVGID_55_"  style="overflow:visible;"/>
					</clipPath>
					<path class="st27" d="M324.2,430.9c1.2,0,2.4,0,3.6,0c0,0,0,0,0,0c9.3-0.2,18.3-1.4,26.8-3.3c0,0,0,0,0.1,0
						c3.7-0.9,7.4-1.9,10.9-3c0,0,0.1,0,0.1,0c0.9-0.3,1.7-0.6,2.5-0.9c0,0,0,0,0,0c2.6-0.9,5.1-1.9,7.6-3c0.1,0,0.1,0,0.2-0.1
						c0.8-0.3,1.5-0.7,2.2-1c0.1,0,0.1-0.1,0.2-0.1c2.4-1.1,4.7-2.3,6.9-3.5c0.1,0,0.1-0.1,0.2-0.1c0.7-0.4,1.3-0.8,2-1.1
						c0.1-0.1,0.2-0.1,0.3-0.2c0.7-0.4,1.3-0.8,2-1.2c0,0,0.1,0,0.1-0.1c1.4-0.9,2.8-1.8,4.1-2.8c0,0,0.1-0.1,0.1-0.1
						c0.6-0.4,1.2-0.9,1.8-1.3c0.1-0.1,0.2-0.1,0.3-0.2c0.6-0.4,1.1-0.9,1.6-1.3c0.1-0.1,0.1-0.1,0.2-0.2c1.2-1,2.5-2,3.6-3.1l0,0
						c0.6-0.5,1.1-1,1.6-1.5c0.1-0.1,0.2-0.2,0.3-0.2c0.5-0.5,0.9-0.9,1.4-1.4c0.1-0.1,0.2-0.2,0.3-0.3c0.5-0.5,1-1,1.5-1.6
						c0,0,0,0,0,0c0.6-0.6,1.2-1.3,1.8-2c0-0.1,0.1-0.1,0.1-0.2c0.5-0.6,1-1.2,1.5-1.9c0,0,0.1-0.1,0.1-0.2c0.5-0.7,1-1.4,1.5-2
						c0,0,0-0.1,0.1-0.1c0.5-0.6,0.9-1.3,1.3-1.9c0.1-0.1,0.1-0.2,0.2-0.3c0.9-1.4,1.7-2.8,2.5-4.2c0.1-0.1,0.1-0.2,0.2-0.4
						c0.8-1.4,1.4-2.8,2.1-4.3c0.1-0.1,0.1-0.3,0.2-0.4c0.3-0.7,0.5-1.3,0.8-2c0-0.1,0-0.1,0.1-0.2c0.3-0.7,0.5-1.5,0.8-2.2
						c0-0.1,0.1-0.3,0.1-0.5c0.2-0.6,0.4-1.2,0.5-1.9c0-0.1,0.1-0.3,0.1-0.4c0.2-0.7,0.4-1.5,0.5-2.2c0-0.1,0.1-0.3,0.1-0.4
						c0.1-0.6,0.2-1.2,0.3-1.9c0-0.2,0.1-0.4,0.1-0.5c0.1-0.7,0.2-1.5,0.3-2.2c0-0.1,0-0.2,0-0.3c0.1-0.7,0.1-1.3,0.2-2
						c0-0.2,0-0.4,0-0.6c0-0.8,0.1-1.5,0.1-2.3c0-13.9-5.9-26.9-16-37.7C389,305.5,358.7,293,324.2,293c-33.6,0-63.3,11.8-81.1,29.9
						c-10.5,10.7-16.9,23.6-17.3,37.5c0,0.5,0,1,0,1.6C225.8,400,269.8,430.9,324.2,430.9 M325.3,310.1c39,0,70.5,22.1,70.5,49.4
						S364.3,409,325.3,409s-70.5-22.1-70.5-49.4C254.8,332.2,286.4,310.1,325.3,310.1"/>
				</g>
				<g>
					<defs>
						<rect id="SVGID_57_" width="1006.8" height="1890.6"/>
					</defs>
					<clipPath id="SVGID_58_">
						<use xlink:href="#SVGID_57_"  style="overflow:visible;"/>
					</clipPath>
					<path class="st28" d="M324.2,440.8c1.2,0,2.4,0,3.6,0v-9.9h0c-1.2,0-2.4,0-3.6,0c-54.3,0-98.4-30.9-98.4-68.9v9.9
						C225.8,409.9,269.8,440.8,324.2,440.8"/>
				</g>
				<g>
					<defs>
						<rect id="SVGID_59_" width="1006.8" height="1890.6"/>
					</defs>
					<clipPath id="SVGID_60_">
						<use xlink:href="#SVGID_59_"  style="overflow:visible;"/>
					</clipPath>
					<path class="st29" d="M422.5,364.9c0,0.7-0.1,1.3-0.2,2c0,0.1,0,0.2,0,0.3c-0.1,0.8-0.2,1.5-0.3,2.2c0,0.2-0.1,0.4-0.1,0.5
						c-0.1,0.6-0.2,1.2-0.3,1.9c0,0.1-0.1,0.3-0.1,0.4c-0.2,0.7-0.3,1.5-0.5,2.2c0,0.1-0.1,0.3-0.1,0.4c-0.2,0.6-0.4,1.2-0.5,1.9
						c0,0.1-0.1,0.3-0.1,0.5c-0.2,0.7-0.5,1.5-0.8,2.2c0,0.1,0,0.1-0.1,0.2c-0.2,0.7-0.5,1.3-0.8,2c-0.1,0.1-0.1,0.3-0.2,0.4
						c-0.6,1.4-1.3,2.9-2.1,4.3c-0.1,0.1-0.1,0.2-0.2,0.4c-0.8,1.4-1.6,2.8-2.5,4.2c-0.1,0.1-0.1,0.2-0.2,0.3
						c-0.4,0.6-0.9,1.3-1.3,1.9c0,0,0,0.1-0.1,0.1c-0.5,0.7-1,1.4-1.5,2c0,0.1-0.1,0.1-0.1,0.2c-0.5,0.6-1,1.2-1.5,1.9
						c0,0.1-0.1,0.1-0.1,0.2c-0.6,0.7-1.1,1.3-1.8,2l0,0v9.9c9.9-10.8,15.7-23.6,15.7-37.4V362c0,0.8,0,1.5-0.1,2.3
						C422.5,364.5,422.5,364.6,422.5,364.9"/>
				</g>
				<g>
					<defs>
						<rect id="SVGID_61_" width="1006.8" height="1890.6"/>
					</defs>
					<clipPath id="SVGID_62_">
						<use xlink:href="#SVGID_61_"  style="overflow:visible;"/>
					</clipPath>
					<path class="st30" d="M406.9,454.3c9-9.8,14.6-21.2,15.5-33.5l0.3-4.4l-0.2-44.6c0,13.8-5.8,26.6-15.7,37.4L406.9,454.3
						L406.9,454.3z"/>
				</g>
				<g>
					<defs>
						<rect id="SVGID_63_" width="1006.8" height="1890.6"/>
					</defs>
					<clipPath id="SVGID_64_">
						<use xlink:href="#SVGID_63_"  style="overflow:visible;"/>
					</clipPath>
					<path class="st31" d="M324.2,485.9c1.2,0,2.4,0,3.6,0v-45.1c-1.2,0-2.4,0-3.6,0c-54.3,0-98.4-30.9-98.4-68.9v45.1
						C225.8,455,269.8,485.9,324.2,485.9"/>
				</g>
				<g>
					<defs>
						<rect id="SVGID_65_" width="1006.8" height="1890.6"/>
					</defs>
					<clipPath id="SVGID_66_">
						<use xlink:href="#SVGID_65_"  style="overflow:visible;"/>
					</clipPath>
					<path class="st32" d="M406.9,409.2v-9.9l0,0c-0.5,0.5-1,1.1-1.5,1.6c-0.1,0.1-0.2,0.2-0.3,0.3c-0.5,0.5-0.9,0.9-1.4,1.4
						c-0.1,0.1-0.2,0.2-0.3,0.2c-0.5,0.5-1.1,1-1.6,1.5c0,0,0,0,0,0c-1.2,1-2.4,2.1-3.6,3.1c-0.1,0.1-0.1,0.1-0.2,0.2
						c-0.5,0.4-1.1,0.9-1.6,1.3c-0.1,0.1-0.2,0.1-0.3,0.2c-0.6,0.4-1.2,0.9-1.8,1.3c0,0-0.1,0.1-0.1,0.1c-1.3,1-2.7,1.9-4.1,2.8
						c0,0-0.1,0-0.1,0.1c-0.6,0.4-1.3,0.8-2,1.2c-0.1,0-0.2,0.1-0.3,0.2c-0.7,0.4-1.3,0.8-2,1.1c-0.1,0-0.1,0.1-0.2,0.1
						c-2.2,1.2-4.5,2.4-6.9,3.5c-0.1,0-0.1,0.1-0.2,0.1c-0.7,0.3-1.5,0.7-2.2,1c-0.1,0-0.1,0-0.2,0.1c-2.5,1.1-5,2.1-7.6,3
						c0,0,0,0,0,0c-0.8,0.3-1.7,0.6-2.5,0.9c0,0-0.1,0-0.1,0c-3.5,1.1-7.2,2.2-10.9,3c0,0,0,0-0.1,0c-8.5,1.9-17.5,3.1-26.8,3.3
						c0,0,0,0,0,0v9.9C361,439.9,390,427.5,406.9,409.2"/>
				</g>
				<g>
					<defs>
						<rect id="SVGID_67_" width="1006.8" height="1890.6"/>
					</defs>
					<clipPath id="SVGID_68_">
						<use xlink:href="#SVGID_67_"  style="overflow:visible;"/>
					</clipPath>
					<path class="st33" d="M327.8,440.7v45.1c33.2-0.8,62.1-13.2,79-31.5v-45.1C390,427.5,361,439.9,327.8,440.7"/>
				</g>
				<g>
					<defs>
						<rect id="SVGID_69_" width="1006.8" height="1890.6"/>
					</defs>
					<clipPath id="SVGID_70_">
						<use xlink:href="#SVGID_69_"  style="overflow:visible;"/>
					</clipPath>
					<path class="st34" d="M325.3,409c39,0,70.5-22.1,70.5-49.4s-31.6-49.4-70.5-49.4s-70.5,22.1-70.5,49.4
						C254.8,386.8,286.4,409,325.3,409"/>
				</g>
				<g>
					<defs>
						<rect id="SVGID_71_" width="1006.8" height="1890.6"/>
					</defs>
					<clipPath id="SVGID_72_">
						<use xlink:href="#SVGID_71_"  style="overflow:visible;"/>
					</clipPath>
					<path class="st35" d="M662.7,236L662.7,236C662.7,236,662.7,236,662.7,236L662.7,236"/>
				</g>
				<g>
					<defs>
						<rect id="SVGID_73_" width="1006.8" height="1890.6"/>
					</defs>
					<clipPath id="SVGID_74_">
						<use xlink:href="#SVGID_73_"  style="overflow:visible;"/>
					</clipPath>
					<path class="st36" d="M741.8,204.5C741.8,204.5,741.8,204.5,741.8,204.5C741.8,204.5,741.8,204.5,741.8,204.5
						C741.8,204.5,741.8,204.5,741.8,204.5"/>
				</g>
				<g>
					<defs>
						<rect id="SVGID_75_" width="1006.8" height="1890.6"/>
					</defs>
					<clipPath id="SVGID_76_">
						<use xlink:href="#SVGID_75_"  style="overflow:visible;"/>
					</clipPath>
					<path class="st37" d="M560.7,165.6v1.6C560.7,166.6,560.7,166.1,560.7,165.6L560.7,165.6z"/>
				</g>
				<g>
					<defs>
						<rect id="SVGID_77_" width="1006.8" height="1890.6"/>
					</defs>
					<clipPath id="SVGID_78_">
						<use xlink:href="#SVGID_77_"  style="overflow:visible;"/>
					</clipPath>
					<path class="st38" d="M659.1,236.1c1.2,0,2.4,0,3.6-0.1h0c9.3-0.2,18.3-1.4,26.8-3.3c0,0,0,0,0.1,0c3.7-0.9,7.4-1.9,10.9-3
						c0,0,0.1,0,0.1,0c0.8-0.3,1.7-0.6,2.5-0.9c0,0,0,0,0,0c2.6-0.9,5.1-1.9,7.6-3c0.1,0,0.1-0.1,0.2-0.1c0.8-0.3,1.5-0.7,2.2-1
						c0.1,0,0.1-0.1,0.2-0.1c2.4-1.1,4.7-2.3,6.9-3.5c0.1,0,0.1-0.1,0.2-0.1c0.7-0.4,1.3-0.8,2-1.1c0.1-0.1,0.2-0.1,0.3-0.2
						c0.7-0.4,1.3-0.8,2-1.2c0,0,0.1,0,0.1-0.1c1.4-0.9,2.8-1.8,4.1-2.8c0,0,0.1-0.1,0.1-0.1c0.6-0.4,1.2-0.9,1.8-1.3
						c0.1-0.1,0.2-0.1,0.3-0.2c0.6-0.4,1.1-0.9,1.7-1.3c0.1-0.1,0.2-0.1,0.2-0.2c1.2-1,2.5-2,3.6-3.1l0,0c0.6-0.5,1.1-1,1.6-1.5
						c0.1-0.1,0.2-0.2,0.3-0.2c0.5-0.4,0.9-0.9,1.4-1.4c0.1-0.1,0.2-0.2,0.2-0.3c0.5-0.5,1-1.1,1.5-1.6c0,0,0,0,0,0
						c0.6-0.6,1.2-1.3,1.8-2c0-0.1,0.1-0.1,0.2-0.2c0.5-0.6,1-1.2,1.5-1.9c0-0.1,0.1-0.1,0.1-0.2c0.5-0.7,1-1.4,1.5-2.1
						c0,0,0-0.1,0.1-0.1c0.5-0.6,0.9-1.3,1.3-1.9c0.1-0.1,0.1-0.2,0.2-0.3c0.9-1.4,1.7-2.8,2.5-4.2c0.1-0.1,0.1-0.2,0.2-0.4
						c0.8-1.4,1.4-2.8,2.1-4.3c0.1-0.1,0.1-0.3,0.2-0.4c0.3-0.7,0.5-1.3,0.8-2c0-0.1,0-0.1,0.1-0.2c0.3-0.7,0.5-1.5,0.8-2.2
						c0-0.1,0.1-0.3,0.1-0.4c0.2-0.6,0.4-1.2,0.5-1.9c0-0.1,0.1-0.3,0.1-0.4c0.2-0.7,0.4-1.5,0.5-2.2c0-0.1,0-0.3,0.1-0.4
						c0.1-0.6,0.2-1.2,0.3-1.9c0-0.2,0.1-0.4,0.1-0.5c0.1-0.7,0.2-1.5,0.3-2.2c0-0.1,0-0.2,0-0.3c0.1-0.7,0.1-1.3,0.2-2
						c0-0.2,0-0.4,0-0.6c0-0.8,0.1-1.5,0.1-2.3c0-13.9-5.9-26.9-16-37.7c-17.6-18.8-47.9-31.2-82.3-31.2c-33.6,0-63.3,11.8-81,29.9
						c-10.5,10.7-16.9,23.6-17.3,37.5c0,0.5,0,1.1,0,1.6C560.7,205.2,604.8,236.1,659.1,236.1 M660.2,115.3
						c39,0,70.5,22.1,70.5,49.4s-31.6,49.4-70.5,49.4c-39,0-70.5-22.1-70.5-49.4S621.3,115.3,660.2,115.3"/>
				</g>
				<g>
					<defs>
						<rect id="SVGID_79_" width="1006.8" height="1890.6"/>
					</defs>
					<clipPath id="SVGID_80_">
						<use xlink:href="#SVGID_79_"  style="overflow:visible;"/>
					</clipPath>
					<path class="st39" d="M659.1,246c1.2,0,2.4,0,3.6-0.1V236h0c-1.2,0-2.4,0.1-3.6,0.1c-54.3,0-98.4-30.9-98.4-68.9v9.9
						C560.7,215.1,604.8,246,659.1,246"/>
				</g>
				<g>
					<defs>
						<rect id="SVGID_81_" width="1006.8" height="1890.6"/>
					</defs>
					<clipPath id="SVGID_82_">
						<use xlink:href="#SVGID_81_"  style="overflow:visible;"/>
					</clipPath>
					<path class="st40" d="M757.4,170c0,0.7-0.1,1.3-0.2,2c0,0.1,0,0.2,0,0.3c-0.1,0.8-0.2,1.5-0.3,2.2c0,0.2-0.1,0.4-0.1,0.5
						c-0.1,0.6-0.2,1.2-0.3,1.9c0,0.1-0.1,0.3-0.1,0.4c-0.2,0.7-0.3,1.5-0.5,2.2c0,0.1-0.1,0.3-0.1,0.4c-0.2,0.6-0.3,1.2-0.5,1.9
						c0,0.1-0.1,0.3-0.1,0.4c-0.2,0.7-0.5,1.5-0.8,2.2c0,0.1,0,0.1-0.1,0.2c-0.2,0.7-0.5,1.3-0.8,2c-0.1,0.1-0.1,0.3-0.2,0.4
						c-0.6,1.4-1.3,2.9-2.1,4.3c-0.1,0.1-0.1,0.2-0.2,0.4c-0.8,1.4-1.6,2.8-2.5,4.2c-0.1,0.1-0.1,0.2-0.2,0.3
						c-0.4,0.6-0.9,1.3-1.3,1.9c0,0,0,0.1-0.1,0.1c-0.5,0.7-1,1.4-1.5,2.1c0,0.1-0.1,0.1-0.1,0.2c-0.5,0.6-1,1.2-1.5,1.9
						c0,0.1-0.1,0.1-0.2,0.2c-0.6,0.7-1.2,1.3-1.8,2l0,0v9.9c9.9-10.8,15.7-23.6,15.7-37.4v-9.9c0,0.8,0,1.5-0.1,2.3
						C757.4,169.6,757.4,169.8,757.4,170"/>
				</g>
				<g>
					<defs>
						<rect id="SVGID_83_" width="1006.8" height="1890.6"/>
					</defs>
					<clipPath id="SVGID_84_">
						<use xlink:href="#SVGID_83_"  style="overflow:visible;"/>
					</clipPath>
					<path class="st41" d="M741.8,259.5c9-9.8,14.6-21.2,15.5-33.5l0.3-4.4l-0.2-44.6c0,13.8-5.8,26.6-15.7,37.4L741.8,259.5
						L741.8,259.5z"/>
				</g>
				<g>
					<defs>
						<rect id="SVGID_85_" width="1006.8" height="1890.6"/>
					</defs>
					<clipPath id="SVGID_86_">
						<use xlink:href="#SVGID_85_"  style="overflow:visible;"/>
					</clipPath>
					<path class="st42" d="M659.1,291c1.2,0,2.4,0,3.6,0v-45.1c-1.2,0-2.4,0.1-3.6,0.1c-54.3,0-98.4-30.9-98.4-68.9v45.1
						C560.7,260.2,604.8,291,659.1,291"/>
				</g>
				<g>
					<defs>
						<rect id="SVGID_87_" width="1006.8" height="1890.6"/>
					</defs>
					<clipPath id="SVGID_88_">
						<use xlink:href="#SVGID_87_"  style="overflow:visible;"/>
					</clipPath>
					<path class="st43" d="M741.8,214.4v-9.9l0,0c-0.5,0.5-1,1.1-1.5,1.6c-0.1,0.1-0.2,0.2-0.3,0.3c-0.5,0.5-0.9,0.9-1.4,1.4
						c-0.1,0.1-0.2,0.2-0.3,0.2c-0.5,0.5-1.1,1-1.6,1.5l0,0c-1.2,1.1-2.4,2.1-3.6,3.1c-0.1,0.1-0.2,0.1-0.2,0.2
						c-0.5,0.4-1.1,0.9-1.7,1.3c-0.1,0.1-0.2,0.1-0.3,0.2c-0.6,0.4-1.2,0.9-1.8,1.3c0,0-0.1,0.1-0.1,0.1c-1.3,0.9-2.7,1.9-4.2,2.8
						c0,0-0.1,0-0.1,0.1c-0.7,0.4-1.3,0.8-2,1.2c-0.1,0.1-0.2,0.1-0.3,0.2c-0.7,0.4-1.3,0.8-2,1.1c0,0-0.1,0.1-0.2,0.1
						c-2.2,1.2-4.5,2.4-6.9,3.5c-0.1,0-0.1,0.1-0.2,0.1c-0.7,0.3-1.5,0.7-2.2,1c-0.1,0-0.1,0.1-0.2,0.1c-2.5,1.1-5,2.1-7.6,3
						c0,0,0,0,0,0c-0.8,0.3-1.7,0.6-2.5,0.9c0,0-0.1,0-0.1,0c-3.5,1.1-7.2,2.2-10.9,3c0,0,0,0-0.1,0c-8.5,1.9-17.5,3.1-26.8,3.3h0
						v9.9C695.9,245.1,724.9,232.7,741.8,214.4"/>
				</g>
				<g>
					<defs>
						<rect id="SVGID_89_" width="1006.8" height="1890.6"/>
					</defs>
					<clipPath id="SVGID_90_">
						<use xlink:href="#SVGID_89_"  style="overflow:visible;"/>
					</clipPath>
					<path class="st44" d="M662.7,245.9V291c33.2-0.9,62.2-13.2,79-31.5v-45.1C724.9,232.7,695.9,245.1,662.7,245.9"/>
				</g>
				<g>
					<defs>
						<rect id="SVGID_91_" width="1006.8" height="1890.6"/>
					</defs>
					<clipPath id="SVGID_92_">
						<use xlink:href="#SVGID_91_"  style="overflow:visible;"/>
					</clipPath>
					<path class="st45" d="M660.2,214.1c39,0,70.5-22.1,70.5-49.4s-31.6-49.4-70.5-49.4c-39,0-70.5,22.1-70.5,49.4
						S621.3,214.1,660.2,214.1"/>
				</g>
				<g>
					<defs>
						<rect id="SVGID_93_" width="1006.8" height="1890.6"/>
					</defs>
					<clipPath id="SVGID_94_">
						<use xlink:href="#SVGID_93_"  style="overflow:visible;"/>
					</clipPath>
					<polygon class="st46" points="524.7,996.8 389.7,1075.1 389.7,1075.6 524.7,997.4 					"/>
				</g>
				<g>
					<defs>
						<rect id="SVGID_95_" width="1006.8" height="1890.6"/>
					</defs>
					<clipPath id="SVGID_96_">
						<use xlink:href="#SVGID_95_"  style="overflow:visible;"/>
					</clipPath>
					<polygon class="st47" points="524.7,1223.9 389.6,1302.3 389.6,1302.8 524.7,1224.5 					"/>
				</g>
				<g>
					<defs>
						<rect id="SVGID_97_" width="1006.8" height="1890.6"/>
					</defs>
					<clipPath id="SVGID_98_">
						<use xlink:href="#SVGID_97_"  style="overflow:visible;"/>
					</clipPath>
					<polygon class="st48" points="524.7,1451 389.6,1529.3 389.6,1529.9 524.7,1451.6 					"/>
				</g>
				<g>
					<defs>
						<rect id="SVGID_99_" width="1006.8" height="1890.6"/>
					</defs>
					<clipPath id="SVGID_100_">
						<use xlink:href="#SVGID_99_"  style="overflow:visible;"/>
					</clipPath>
					<polygon class="st49" points="524.7,1424.6 524.7,1386.8 524.7,1218.5 389.6,1296.8 389.6,1320.5 389.6,1353.6 389.6,1523.3 
						524.7,1445 					"/>
				</g>
				<g>
					<defs>
						<rect id="SVGID_101_" width="1006.8" height="1890.6"/>
					</defs>
					<clipPath id="SVGID_102_">
						<use xlink:href="#SVGID_101_"  style="overflow:visible;"/>
					</clipPath>
					<polygon class="st50" points="524.7,1106.8 524.7,1069 524.7,997.4 389.7,1075.6 389.6,1146.1 389.6,1302.3 524.7,1223.9 					
						"/>
				</g>
				<g>
					<defs>
						<rect id="SVGID_103_" width="1006.8" height="1890.6"/>
					</defs>
					<clipPath id="SVGID_104_">
						<use xlink:href="#SVGID_103_"  style="overflow:visible;"/>
					</clipPath>
					<path class="st51" d="M524.7,781.7l-112.1,64.7c-13.8,8-22.4,22.8-22.4,38.7l-0.5,185.9l135-78.2V781.7z"/>
				</g>
				<g>
					<defs>
						<rect id="SVGID_105_" width="1006.8" height="1890.6"/>
					</defs>
					<clipPath id="SVGID_106_">
						<use xlink:href="#SVGID_105_"  style="overflow:visible;"/>
					</clipPath>
					<path class="st52" d="M389.6,1529.9V1728v15.8c0,0.1,0,0.1,0,0.1c0,0,0,0,0.1,0l0.1-0.1l6-3.5l128.9-74.4v-214.4L389.6,1529.9z
						"/>
				</g>
				<g>
					<defs>
						<rect id="SVGID_107_" width="1006.8" height="1890.6"/>
					</defs>
					<clipPath id="SVGID_108_">
						<use xlink:href="#SVGID_107_"  style="overflow:visible;"/>
					</clipPath>
					<polygon class="st53" points="524.7,997.4 947.9,752.2 947.9,751.6 524.7,996.8 					"/>
				</g>
				<g>
					<defs>
						<rect id="SVGID_109_" width="1006.8" height="1890.6"/>
					</defs>
					<clipPath id="SVGID_110_">
						<use xlink:href="#SVGID_109_"  style="overflow:visible;"/>
					</clipPath>
					<polygon class="st54" points="524.7,1451.6 947.9,1206.3 947.9,1205.8 524.7,1451 					"/>
				</g>
				<g>
					<defs>
						<rect id="SVGID_111_" width="1006.8" height="1890.6"/>
					</defs>
					<clipPath id="SVGID_112_">
						<use xlink:href="#SVGID_111_"  style="overflow:visible;"/>
					</clipPath>
					<polygon class="st55" points="524.7,1224.5 947.9,979.2 947.9,978.7 524.7,1223.9 					"/>
				</g>
				<g>
					<defs>
						<rect id="SVGID_113_" width="1006.8" height="1890.6"/>
					</defs>
					<clipPath id="SVGID_114_">
						<use xlink:href="#SVGID_113_"  style="overflow:visible;"/>
					</clipPath>
					<polygon class="st56" points="524.7,1386.8 524.7,1424.6 524.7,1445 947.9,1199.8 947.9,1194.1 947.9,973.2 524.7,1218.5 					
						"/>
				</g>
				<g>
					<defs>
						<rect id="SVGID_115_" width="1006.8" height="1890.6"/>
					</defs>
					<clipPath id="SVGID_116_">
						<use xlink:href="#SVGID_115_"  style="overflow:visible;"/>
					</clipPath>
					<polygon class="st57" points="524.7,1069 524.7,1106.8 524.7,1223.9 947.9,978.7 947.9,752.2 524.7,997.4 					"/>
				</g>
				<g>
					<defs>
						<rect id="SVGID_117_" width="1006.8" height="1890.6"/>
					</defs>
					<clipPath id="SVGID_118_">
						<use xlink:href="#SVGID_117_"  style="overflow:visible;"/>
					</clipPath>
					<path class="st58" d="M947.9,747.6V553.4v-15.8c0,0,0-0.1,0-0.1c0,0,0,0,0,0s0,0-0.1,0c0,0,0,0,0,0L524.7,781.7v211.1
						L947.9,747.6z"/>
				</g>
				<g>
					<defs>
						<rect id="SVGID_119_" width="1006.8" height="1890.6"/>
					</defs>
					<clipPath id="SVGID_120_">
						<use xlink:href="#SVGID_119_"  style="overflow:visible;"/>
					</clipPath>
					<path class="st59" d="M599.2,1622.9l1.1-0.7l29.2-16.8l272.4-157.2l37.8-21.8c4-5,6.9-10.9,8.3-17.2v-15v-52.3v-33.2v-102.4
						l-423.2,245.2v214.4L599.2,1622.9L599.2,1622.9z"/>
				</g>
				<g>
					<defs>
						<rect id="SVGID_121_" width="1006.8" height="1890.6"/>
					</defs>
					<clipPath id="SVGID_122_">
						<use xlink:href="#SVGID_121_"  style="overflow:visible;"/>
					</clipPath>
					<polygon class="st60" points="389.7,1075.1 379.8,1080.8 379.8,1081.4 389.7,1075.6 					"/>
				</g>
				<g>
					<defs>
						<rect id="SVGID_123_" width="1006.8" height="1890.6"/>
					</defs>
					<clipPath id="SVGID_124_">
						<use xlink:href="#SVGID_123_"  style="overflow:visible;"/>
					</clipPath>
					<polygon class="st61" points="389.6,1529.3 379.6,1535.1 379.6,1535.6 389.6,1529.9 					"/>
				</g>
				<g>
					<defs>
						<rect id="SVGID_125_" width="1006.8" height="1890.6"/>
					</defs>
					<clipPath id="SVGID_126_">
						<use xlink:href="#SVGID_125_"  style="overflow:visible;"/>
					</clipPath>
					<polygon class="st62" points="389.6,1302.3 379.6,1308 379.6,1308.5 389.6,1302.8 					"/>
				</g>
				<g>
					<defs>
						<rect id="SVGID_127_" width="1006.8" height="1890.6"/>
					</defs>
					<clipPath id="SVGID_128_">
						<use xlink:href="#SVGID_127_"  style="overflow:visible;"/>
					</clipPath>
					<polygon class="st63" points="389.6,1359.6 389.6,1326.5 389.6,1302.8 379.6,1308.5 379.6,1326.5 379.6,1359.6 379.6,1535.1 
						389.6,1529.3 					"/>
				</g>
				<g>
					<defs>
						<rect id="SVGID_129_" width="1006.8" height="1890.6"/>
					</defs>
					<clipPath id="SVGID_130_">
						<use xlink:href="#SVGID_129_"  style="overflow:visible;"/>
					</clipPath>
					<polygon class="st64" points="389.6,1146.1 389.7,1075.6 379.8,1081.4 379.6,1146.1 379.6,1308 389.6,1302.3 					"/>
				</g>
				<g>
					<defs>
						<rect id="SVGID_131_" width="1006.8" height="1890.6"/>
					</defs>
					<clipPath id="SVGID_132_">
						<use xlink:href="#SVGID_131_"  style="overflow:visible;"/>
					</clipPath>
					<path class="st65" d="M390.2,889.2c0-15.9,8.6-30.8,22.4-38.7l112.1-64.7V783v-8.7l-117.1,67.6c-16.9,9.8-27.4,27.8-27.4,47.3
						l-0.5,191.7l9.9-5.8L390.2,889.2z"/>
				</g>
				<g>
					<defs>
						<rect id="SVGID_133_" width="1006.8" height="1890.6"/>
					</defs>
					<clipPath id="SVGID_134_">
						<use xlink:href="#SVGID_133_"  style="overflow:visible;"/>
					</clipPath>
					<path class="st66" d="M379.6,1743.8c0,5.8,4.8,10.1,10,10.1c1.6,0,3.3-0.4,4.9-1.3c0,0,0.1-0.1,0.1-0.1l6-3.5l0,0l124-71.6
						v-11.5l-129,74.4l-6,3.5l-0.1,0.1c0,0-0.1,0-0.1,0s0,0,0-0.1V1728v-198.1l-9.9,5.8V1728L379.6,1743.8L379.6,1743.8z"/>
				</g>
				<g>
					<defs>
						<rect id="SVGID_135_" width="1006.8" height="1890.6"/>
					</defs>
					<clipPath id="SVGID_136_">
						<use xlink:href="#SVGID_135_"  style="overflow:visible;"/>
					</clipPath>
					<path class="st67" d="M947.9,751.6v0.5l9.9-5.8v-189v-15.8c0-1.5-0.3-3-0.9-4.2v209.1L947.9,751.6z"/>
				</g>
				<g>
					<defs>
						<rect id="SVGID_137_" width="1006.8" height="1890.6"/>
					</defs>
					<clipPath id="SVGID_138_">
						<use xlink:href="#SVGID_137_"  style="overflow:visible;"/>
					</clipPath>
					<path class="st68" d="M906.8,1456.8l39.3-22.7c0.1-0.1,0.2-0.2,0.3-0.4l-90.7,52.6L906.8,1456.8z"/>
				</g>
				<g>
					<defs>
						<rect id="SVGID_139_" width="1006.8" height="1890.6"/>
					</defs>
					<clipPath id="SVGID_140_">
						<use xlink:href="#SVGID_139_"  style="overflow:visible;"/>
					</clipPath>
					<polygon class="st69" points="947.9,979.2 956.9,974 956.9,1200.6 947.9,1205.8 947.9,1206.3 957.9,1200.6 957.9,1200.1 
						957.9,972.9 947.9,978.7 					"/>
				</g>
				<g>
					<defs>
						<rect id="SVGID_141_" width="1006.8" height="1890.6"/>
					</defs>
					<clipPath id="SVGID_142_">
						<use xlink:href="#SVGID_141_"  style="overflow:visible;"/>
					</clipPath>
					<polygon class="st70" points="947.9,1205.8 956.9,1200.6 956.9,974 947.9,979.2 947.9,1200.1 					"/>
				</g>
				<g>
					<defs>
						<rect id="SVGID_143_" width="1006.8" height="1890.6"/>
					</defs>
					<clipPath id="SVGID_144_">
						<use xlink:href="#SVGID_143_"  style="overflow:visible;"/>
					</clipPath>
					<polygon class="st71" points="947.9,978.7 957.9,972.9 957.9,746.4 947.9,752.2 					"/>
				</g>
				<g>
					<defs>
						<rect id="SVGID_145_" width="1006.8" height="1890.6"/>
					</defs>
					<clipPath id="SVGID_146_">
						<use xlink:href="#SVGID_145_"  style="overflow:visible;"/>
					</clipPath>
					<path class="st72" d="M947.8,531.5c-1.7,0-3.4,0.4-5,1.4L524.7,774.3v8.7v2.8l423.1-244.3c0,0,0,0,0,0c0,0,0.1,0,0.1,0h0
						c0,0,0,0,0,0.1v15.8v194.2l9-5.2V537.3C955.3,533.8,951.7,531.5,947.8,531.5"/>
				</g>
				<g>
					<defs>
						<rect id="SVGID_147_" width="1006.8" height="1890.6"/>
					</defs>
					<clipPath id="SVGID_148_">
						<use xlink:href="#SVGID_147_"  style="overflow:visible;"/>
					</clipPath>
					<path class="st73" d="M947.9,1308.7v33.2v52.3v15c-1.4,6.3-4.3,12.2-8.3,17.2l-37.8,21.8l-272.4,157.2l-29.2,16.8l-1.1,0.7l0,0
						l-74.4,43v11.5l80.5-46.5l0,0l29.2-16.8l221.2-127.7l90.7-52.6c5.7-6.7,9.7-14.8,11.5-23.5v-16.1v-52.3v-33.2v-108.1l-9.9,5.8
						V1308.7z"/>
				</g>
			</g>
		</g>
	</g>
</g>
</svg>
