<?xml version="1.0" encoding="utf-8"?>
<!-- Generator: Adobe Illustrator 25.3.1, SVG Export Plug-In . SVG Version: 6.00 Build 0)  -->
<svg version="1.1" id="Layer_1" xmlns="http://www.w3.org/2000/svg" xmlns:xlink="http://www.w3.org/1999/xlink" x="0px" y="0px"
	 viewBox="0 0 1007 1891" style="enable-background:new 0 0 1007 1891;" xml:space="preserve">
<style type="text/css">
	.st0{clip-path:url(#SVGID_2_);}
	.st1{clip-path:url(#SVGID_4_);fill:#F4F4F4;}
	.st2{clip-path:url(#SVGID_4_);fill:#AAA9A5;}
	.st3{clip-path:url(#SVGID_4_);fill:#9B9A95;}
	.st4{clip-path:url(#SVGID_4_);fill:#BABABA;}
	.st5{clip-path:url(#SVGID_4_);fill:#C5C4C6;}
	.st6{clip-path:url(#SVGID_4_);fill:#AFAFAE;}
	.st7{clip-path:url(#SVGID_4_);fill:#CCCCCC;}
	.st8{clip-path:url(#SVGID_4_);fill:#D8D8D8;}
	.st9{clip-path:url(#SVGID_4_);fill:#DDDDDD;}
	.st10{clip-path:url(#SVGID_4_);fill:#E5E5E5;}
	.st11{clip-path:url(#SVGID_4_);fill:#FCFCFC;}
	.st12{clip-path:url(#SVGID_4_);fill:#CECECE;}
	.st13{clip-path:url(#SVGID_4_);fill:#D9F77C;}
	.st14{clip-path:url(#SVGID_4_);fill:#B3B3B3;}
	.st15{clip-path:url(#SVGID_4_);fill:#CBEF6A;}
	.st16{clip-path:url(#SVGID_4_);fill:#BFBFBF;}
</style>
<g id="Artwork_31_1_">
	<g>
		<defs>
			<rect id="SVGID_1_" width="1006.75" height="1890.58"/>
		</defs>
		<clipPath id="SVGID_2_">
			<use xlink:href="#SVGID_1_"  style="overflow:visible;"/>
		</clipPath>
		<g class="st0">
			<defs>
				<rect id="SVGID_3_" y="0" width="1006.75" height="1890.58"/>
			</defs>
			<clipPath id="SVGID_4_">
				<use xlink:href="#SVGID_3_"  style="overflow:visible;"/>
			</clipPath>
			<path class="st1" d="M977.28,201.09c0.07-0.3,0.15-0.6,0.21-0.9C977.43,200.49,977.35,200.79,977.28,201.09L977.28,201.09z"/>
			<path class="st2" d="M282.81,1784.8V686.74c0-22.29-5.03-43.88-14.27-63.38c-6.16-2.49-12.19-5.4-18.03-8.77L62.66,506.13
				L26.92,485.5C10.06,475.77,0,458.34,0,438.87V1695.6c0,19.24,10.26,37.02,26.92,46.63l170.1,98.21
				C236.54,1858.3,282.81,1829.58,282.81,1784.8 M174.36,1793.04c0,4.04-0.6,7.94-1.75,11.6l-133.18-76.89
				c-9.55-5.52-15.49-15.79-15.49-26.82V533.96l89.58,53.66c37.53,22.48,60.84,63.62,60.84,107.36V1793.04z"/>
			<path class="st3" d="M26.92,485.5l35.73,20.63L250.5,614.59c5.84,3.37,11.87,6.29,18.03,8.77
				c-12.33-26.02-32.17-48.32-57.68-63.6L62.66,470.98l-35.73-20.63C15.36,443.68,7,433.38,2.88,421.29C1,415.75,0,409.84,0,403.72
				v35.15C0,458.33,10.06,475.77,26.92,485.5"/>
			<polygon class="st4" points="906.79,283.78 634.44,441.02 636.16,442.45 			"/>
			<path class="st4" d="M979.83,276.76l-73.03,42.17L634.44,476.17L394.69,614.59c-11.02,6.36-22.71,11.15-34.73,14.36
				c-0.98,0.26-1.96,0.5-2.94,0.74c-7.92,17.43-12.21,36.59-12.21,56.36v5.32v1114.06v5.32c0,39.56,42.81,64.29,77.08,44.54
				l342.96-197.67l214.98-124.12c16.86-9.73,26.92-27.17,26.92-46.64V230.13C1006.75,249.6,996.69,267.03,979.83,276.76
				 M984.94,1492.18c0,2.57-0.29,5.05-0.85,7.43l-0.18,0.71c-2.04,7.83-7.07,14.41-14.46,18.68l-214.97,124.11l-229.75,132.42v-58.9
				v-38.55l-148.98,86.33v-226.54l3.89-2.25v-0.54l-4.81,2.79v-226.54l4.81-2.79v-0.54l-3.89,2.25v-226.54l4.04-2.34l0-0.54
				l-4.97,2.88V857.17l149.9-86.87v-70.7c0-40.09,21.48-77.59,56.07-97.87l404.14-236.94V1492.18z"/>
			<polygon class="st4" points="379.64,1326.47 379.64,1308.54 374.83,1311.33 374.83,1537.87 379.64,1535.08 379.64,1359.64 			"/>
			<polygon class="st4" points="379.8,1081.38 375.76,1083.72 375.76,1310.26 379.64,1308.01 379.64,1146.06 			"/>
			<path class="st4" d="M407.65,841.86l117.08-67.6v-3.95l-149.9,86.86v226.54l4.97-2.88l0.46-191.66
				C380.3,869.65,390.74,851.62,407.65,841.86"/>
			<path class="st4" d="M400.75,1748.97L400.75,1748.97l-6.05,3.49c-0.05,0.03-0.1,0.06-0.15,0.08c-1.58,0.91-3.26,1.32-4.89,1.32
				c-5.22,0-10.02-4.23-10.02-10.06v-15.85v-192.34l-3.89,2.25v226.54l148.98-86.33v-0.7L400.75,1748.97z"/>
			<path class="st2" d="M979.83,241.61l-73.04,42.17L636.16,442.45l-1.72-1.42L400.74,575.95v0
				c-19.15,13.98-34.11,32.57-43.72,53.73c0.98-0.24,1.96-0.48,2.94-0.74c12.02-3.21,23.71-7.99,34.73-14.36l239.74-138.41
				l272.36-157.24l73.04-42.17c16.86-9.73,26.92-27.16,26.92-46.63v-0.01v-35.14c0,6.11-1,12.03-2.88,17.57
				C999.76,224.64,991.39,234.94,979.83,241.61"/>
			<path class="st5" d="M344.81,1810.75v-5.32V691.37v-5.32c0-19.77,4.3-38.94,12.21-56.36c-11.3,2.76-22.86,4.16-34.43,4.16
				c-18.38,0-36.76-3.5-54.07-10.48c9.24,19.5,14.27,41.09,14.27,63.38V1784.8c0,44.78-46.26,73.51-85.78,55.65l53.48,30.88
				c22.24,12.84,47.16,19.26,72.09,19.26s49.86-6.42,72.09-19.26l370.15-213.71l-342.96,197.67
				C387.62,1875.04,344.81,1850.3,344.81,1810.75"/>
			<path class="st4" d="M268.53,623.36c17.3,6.98,35.68,10.48,54.07,10.48c11.57,0,23.13-1.4,34.43-4.16
				c9.61-21.16,24.57-39.75,43.72-53.73l-6.05,3.49c-22.23,12.84-47.16,19.26-72.09,19.26s-49.86-6.42-72.09-19.26L62.66,470.98
				l148.19,88.77C236.36,575.04,256.2,597.34,268.53,623.36"/>
			<path class="st3" d="M113.52,587.62l-89.58-53.66v1166.96c0,11.03,5.93,21.31,15.49,26.82l133.18,76.89
				c1.14-3.67,1.75-7.56,1.75-11.6V694.98C174.36,651.24,151.04,610.1,113.52,587.62"/>
			<path class="st6" d="M524.73,699.61v70.7l432.21-250.45v17.45c0.59,1.26,0.93,2.68,0.93,4.22v15.83V746.4v226.54v227.14v0.48
				v108.13v33.17v52.28v16.07v16.89l-11.46,6.64c-0.1,0.12-0.19,0.24-0.29,0.36l-39.32,22.7l-51.13,29.52l-330.93,191.77v38.56v58.9
				l229.75-132.42l214.97-124.11c7.39-4.27,12.42-10.85,14.46-18.68l0.18-0.71c0.56-2.38,0.85-4.86,0.85-7.43V364.79L580.8,601.74
				C546.22,622.02,524.73,659.52,524.73,699.61"/>
			<path class="st6" d="M942.85,532.86c1.61-0.93,3.32-1.36,4.99-1.36c3.85,0,7.46,2.27,9.1,5.8v-17.45L524.73,770.31v3.95
				L942.85,532.86z"/>
			<polygon class="st6" points="634.44,1614.04 605.27,1630.89 605.27,1630.89 524.73,1677.38 524.73,1678.09 855.67,1486.32 			"/>
			<path class="st6" d="M957.87,1427.1v-16.89c-1.76,8.72-5.74,16.81-11.46,23.53L957.87,1427.1z"/>
			<path class="st4" d="M977.16,201.59c0.04-0.17,0.08-0.34,0.12-0.5l0,0C977.24,201.26,977.21,201.43,977.16,201.59"/>
			<path class="st7" d="M965.46,173.22L741.88,44.14c-17.8-10.28-37.77-15.42-57.73-15.42c-19.97,0-39.92,5.14-57.73,15.42
				L41.29,381.97c-2.79,1.61-5.16,3.67-7.09,6.07c-3.51,4.36-5.47,9.82-5.47,15.69c0,0.57,0.02,1.14,0.06,1.7
				c0.01,0.1,0.02,0.2,0.03,0.3c0.03,0.46,0.07,0.92,0.13,1.37c0.01,0.05,0.02,0.11,0.03,0.16c0.07,0.5,0.15,0.99,0.24,1.48
				c0.01,0.03,0.02,0.07,0.02,0.1c0.1,0.51,0.22,1.01,0.35,1.51c0,0,0,0.01,0,0.01c0.57,2.11,1.41,4.12,2.49,5.99c0,0,0,0,0,0
				c2.16-3.72,5.29-6.87,9.2-9.13L626.42,69.39c17.81-10.28,37.76-15.42,57.73-15.42c19.96,0,39.93,5.14,57.73,15.42l223.58,129.08
				c3.92,2.26,7.04,5.41,9.2,9.13c0,0,0,0,0,0c0.27-0.46,0.52-0.94,0.76-1.42c0,0,0-0.01,0.01-0.01c0.23-0.47,0.45-0.95,0.65-1.43
				c0.01-0.02,0.01-0.03,0.02-0.05c0.2-0.48,0.38-0.96,0.55-1.46c0.01-0.02,0.02-0.05,0.03-0.07c0.16-0.47,0.3-0.94,0.43-1.42
				c0.01-0.05,0.03-0.1,0.04-0.15c0.04-0.17,0.08-0.34,0.12-0.51c0.07-0.3,0.15-0.6,0.21-0.9c0.01-0.07,0.03-0.13,0.05-0.2
				c0.09-0.43,0.15-0.87,0.22-1.31c0.02-0.11,0.04-0.22,0.06-0.34c0.05-0.43,0.09-0.86,0.13-1.29c0.01-0.13,0.03-0.25,0.04-0.38
				c0.04-0.56,0.06-1.13,0.06-1.7c0-5.86-1.97-11.33-5.47-15.69C970.63,176.9,968.25,174.83,965.46,173.22"/>
			<path class="st8" d="M965.47,198.48L741.88,69.39c-17.8-10.28-37.77-15.42-57.73-15.42c-19.97,0-39.92,5.14-57.73,15.42
				L41.29,407.22c-3.92,2.26-7.04,5.41-9.2,9.13c0.01,0.02,0.02,0.03,0.03,0.04c0.26,0.45,0.54,0.89,0.83,1.32
				c0,0,0.01,0.01,0.01,0.01c0.3,0.44,0.61,0.88,0.94,1.3c0,0,0,0,0,0c0.33,0.42,0.67,0.84,1.03,1.25c0.01,0.01,0.02,0.02,0.03,0.03
				c0.35,0.39,0.71,0.78,1.08,1.15c0.05,0.05,0.11,0.1,0.16,0.15c0.34,0.33,0.68,0.65,1.04,0.96c0.13,0.11,0.26,0.21,0.39,0.32
				c0.29,0.24,0.58,0.49,0.88,0.72c0.25,0.19,0.51,0.37,0.77,0.55c0.2,0.14,0.39,0.29,0.59,0.42c0.46,0.31,0.94,0.61,1.43,0.89
				l223.58,129.08c35.61,20.56,79.85,20.56,115.46,0l585.14-337.83c0.49-0.28,0.97-0.58,1.43-0.89c0.26-0.18,0.52-0.37,0.77-0.55
				c0.19-0.14,0.4-0.27,0.59-0.42c0.34-0.26,0.67-0.54,0.99-0.81c0.09-0.08,0.19-0.15,0.28-0.23c0.37-0.32,0.73-0.66,1.08-1.01
				c0.04-0.04,0.08-0.07,0.12-0.11c0.37-0.37,0.72-0.74,1.06-1.13c0.02-0.02,0.04-0.04,0.05-0.05c0.71-0.81,1.37-1.66,1.97-2.55
				c0,0,0,0,0,0c0.29-0.43,0.56-0.87,0.83-1.32c0.01-0.02,0.02-0.03,0.03-0.05C972.51,203.89,969.38,200.74,965.47,198.48
				 M560.72,177.03v-9.9v-1.57h0.03c0.44-13.91,6.77-26.8,17.3-37.51c17.74-18.04,47.42-29.86,81.05-29.86
				c34.47,0,64.77,12.43,82.34,31.23c10.13,10.84,16.04,23.79,16.04,37.71v9.9l0.17,44.58l-0.33,4.35
				c-0.97,12.31-6.55,23.75-15.54,33.51c-16.9,18.33-45.88,30.68-79.05,31.53c-1.21,0.03-2.42,0.05-3.64,0.05
				c-54.33,0-98.38-30.86-98.38-68.94V177.03z M225.8,371.86v-9.9v-1.57h0.03c0.44-13.91,6.78-26.8,17.31-37.51
				c17.74-18.04,47.42-29.86,81.05-29.86c34.47,0,64.77,12.43,82.34,31.23c10.13,10.84,16.04,23.79,16.04,37.71v9.9l0.17,44.58
				l-0.33,4.35c-0.97,12.31-6.55,23.75-15.54,33.51c-16.9,18.33-45.88,30.68-79.05,31.53c-1.21,0.03-2.42,0.05-3.64,0.05
				c-54.33,0-98.38-30.86-98.38-68.94V371.86z M367.83,532.91c-27.9,16.11-62.56,16.11-90.46,0L75.49,416.35L200.79,344v72.93
				c0,26.42,14.39,51.65,39.47,69.22c22.75,15.94,52.55,24.72,83.91,24.72c1.43,0,2.85-0.02,4.27-0.06
				c39.25-1,74.53-15.42,96.8-39.57c13.07-14.17,20.7-30.94,22.08-48.49l0.41-5.42l-0.17-45.47v-9.9c0-19.9-7.88-38.84-22.78-54.78
				c-21.41-22.9-55.63-37.18-92.72-38.97l203.64-117.57v71.47c0,26.42,14.39,51.65,39.47,69.22c22.75,15.94,52.55,24.72,83.91,24.72
				c1.43,0,2.85-0.02,4.27-0.06h0c39.25-1,74.53-15.42,96.8-39.57c13.07-14.17,20.7-30.94,22.09-48.57l0.4-5.34l-0.17-45.47v-9.9
				c0-19.9-7.88-38.84-22.78-54.78c-3.37-3.61-7.06-7-11.02-10.16l182.58,105.41L367.83,532.91z"/>
			<path class="st9" d="M759.71,112.35c14.9,15.94,22.78,34.88,22.78,54.78v9.9l0.18,45.47l-0.4,5.33
				c-1.39,17.63-9.02,34.4-22.09,48.58c-22.27,24.15-57.55,38.57-96.8,39.57h0c-1.42,0.04-2.84,0.06-4.27,0.06
				c-31.36,0-61.17-8.78-83.91-24.72c-25.09-17.58-39.47-42.81-39.47-69.22v-71.47L332.07,268.21
				c37.09,1.78,71.31,16.07,92.72,38.97c14.9,15.94,22.78,34.89,22.78,54.78v9.9l0.17,45.47l-0.41,5.41
				c-1.38,17.55-9.02,34.32-22.08,48.5c-22.27,24.15-57.55,38.57-96.8,39.57c-1.42,0.04-2.84,0.06-4.27,0.06
				c-31.36,0-61.17-8.78-83.91-24.72c-25.08-17.58-39.47-42.81-39.47-69.22V344l-125.3,72.34l201.88,116.56
				c27.9,16.11,62.56,16.11,90.46,0l563.44-325.3L748.68,102.19C752.65,105.35,756.34,108.75,759.71,112.35"/>
			<path class="st10" d="M972.38,161.24L748.8,32.16c-39.88-23.02-89.42-23.02-129.29,0L34.37,369.99
				c-11.57,6.68-18.71,18.38-19.41,31.58c-0.04,0.71-0.07,1.43-0.07,2.15c0,14.08,7.28,26.69,19.48,33.73l223.58,129.09
				c39.88,23.02,89.42,23.02,129.29,0l585.13-337.83c12.2-7.04,19.48-19.65,19.48-33.73c0-0.72-0.03-1.44-0.07-2.15
				C991.09,179.62,983.95,167.92,972.38,161.24 M977.97,196.67c-0.01,0.13-0.03,0.25-0.04,0.38c-0.03,0.43-0.07,0.86-0.13,1.29
				c-0.02,0.11-0.04,0.22-0.06,0.34c-0.06,0.44-0.13,0.88-0.22,1.31c-0.01,0.07-0.03,0.13-0.04,0.2c-0.06,0.3-0.14,0.6-0.21,0.9
				c-0.04,0.17-0.07,0.34-0.12,0.51c-0.01,0.05-0.03,0.1-0.04,0.15c-0.13,0.48-0.27,0.95-0.43,1.42c-0.01,0.02-0.02,0.05-0.03,0.07
				c-0.17,0.49-0.35,0.98-0.55,1.45c-0.01,0.02-0.01,0.03-0.02,0.05c-0.2,0.48-0.42,0.96-0.65,1.43c0,0.01-0.01,0.01-0.01,0.01
				c-0.24,0.48-0.49,0.95-0.76,1.42c0,0,0,0,0,0c-0.01,0.02-0.02,0.03-0.03,0.05c-0.26,0.45-0.54,0.89-0.83,1.32c0,0,0,0,0,0
				c-0.6,0.89-1.26,1.74-1.97,2.55c-0.02,0.02-0.03,0.04-0.05,0.05c-0.34,0.39-0.7,0.76-1.06,1.13c-0.04,0.04-0.08,0.07-0.12,0.11
				c-0.35,0.34-0.71,0.68-1.08,1.01c-0.09,0.08-0.19,0.15-0.28,0.23c-0.33,0.28-0.65,0.55-0.99,0.81c-0.19,0.15-0.39,0.28-0.59,0.42
				c-0.26,0.18-0.51,0.37-0.77,0.55c-0.47,0.31-0.94,0.61-1.43,0.89L380.33,554.56c-35.61,20.56-79.85,20.56-115.46,0L41.29,425.48
				c-0.49-0.28-0.97-0.58-1.43-0.89c-0.2-0.14-0.39-0.28-0.59-0.42c-0.26-0.18-0.52-0.36-0.77-0.55c-0.3-0.23-0.59-0.48-0.88-0.72
				c-0.13-0.11-0.27-0.21-0.39-0.32c-0.36-0.31-0.7-0.64-1.03-0.96c-0.05-0.05-0.11-0.1-0.16-0.15c-0.37-0.37-0.73-0.76-1.08-1.15
				c-0.01-0.01-0.02-0.02-0.03-0.03c-0.36-0.4-0.7-0.82-1.03-1.25c0,0,0,0,0,0c-0.33-0.42-0.64-0.86-0.94-1.3c0,0,0-0.01-0.01-0.01
				c-0.29-0.43-0.56-0.87-0.83-1.32c-0.01-0.01-0.02-0.03-0.03-0.04c0,0,0,0,0,0c-1.09-1.87-1.92-3.88-2.49-5.99
				c0-0.01,0-0.01-0.01-0.01c-0.13-0.5-0.25-1-0.35-1.51c-0.01-0.03-0.02-0.06-0.02-0.1c-0.1-0.49-0.18-0.98-0.24-1.48
				c-0.01-0.05-0.02-0.11-0.03-0.16c-0.06-0.45-0.1-0.91-0.13-1.37c-0.01-0.1-0.02-0.2-0.03-0.3c-0.04-0.56-0.06-1.13-0.06-1.7
				c0-5.86,1.97-11.33,5.48-15.69c1.92-2.39,4.3-4.46,7.08-6.06L626.42,44.14c17.81-10.28,37.77-15.42,57.73-15.42
				c19.96,0,39.93,5.14,57.73,15.42l223.58,129.08c2.79,1.61,5.16,3.67,7.09,6.07c3.51,4.36,5.47,9.82,5.47,15.69
				C978.03,195.55,978.01,196.11,977.97,196.67"/>
			<path class="st1" d="M979.83,148.34L756.25,19.26c-44.47-25.67-99.72-25.67-144.19,0L26.92,357.09
				C10.07,366.82,0,384.25,0,403.72c0,6.12,1,12.03,2.88,17.57c4.12,12.09,12.48,22.39,24.04,29.06l35.73,20.63l187.85,108.46
				c22.23,12.84,47.17,19.26,72.1,19.26c24.93,0,49.86-6.42,72.09-19.26l6.05-3.49l233.69-134.92l272.36-157.24l73.04-42.17
				c11.56-6.67,19.92-16.97,24.04-29.06c1.89-5.54,2.88-11.45,2.88-17.57v-0.01C1006.75,175.51,996.69,158.08,979.83,148.34
				 M972.38,228.71L387.25,566.54c-39.88,23.02-89.42,23.02-129.29,0L34.37,437.45c-12.2-7.04-19.48-19.65-19.48-33.73
				c0-0.72,0.03-1.44,0.07-2.15c0.7-13.21,7.84-24.9,19.41-31.58L619.51,32.16c39.88-23.02,89.42-23.02,129.29,0l223.58,129.09
				c11.57,6.68,18.71,18.38,19.41,31.58c0.04,0.71,0.07,1.43,0.07,2.15C991.86,209.06,984.58,221.67,972.38,228.71"/>
			<path class="st10" d="M327.81,430.84L327.81,430.84c0.01,0,0.01,0,0.01,0C327.82,430.84,327.81,430.84,327.81,430.84"/>
			<path class="st10" d="M406.87,399.32c-0.01,0.01-0.01,0.01-0.02,0.02C406.85,399.33,406.86,399.33,406.87,399.32
				C406.86,399.32,406.86,399.32,406.87,399.32"/>
			<path class="st5" d="M225.8,360.39v1.57c0-0.53,0.01-1.05,0.03-1.57H225.8z"/>
			<path class="st11" d="M324.18,430.9c1.22,0,2.43-0.02,3.63-0.05c0.01,0,0.01,0,0.01,0c9.31-0.24,18.3-1.38,26.78-3.31
				c0.02-0.01,0.04-0.01,0.06-0.01c3.74-0.86,7.39-1.86,10.92-3.01c0.04-0.01,0.08-0.03,0.13-0.04c0.86-0.28,1.7-0.57,2.55-0.86
				c0.02-0.01,0.04-0.01,0.05-0.02c2.59-0.91,5.12-1.91,7.58-2.97c0.06-0.02,0.11-0.05,0.17-0.07c0.75-0.33,1.5-0.66,2.24-1.01
				c0.07-0.03,0.13-0.06,0.2-0.09c2.38-1.11,4.7-2.29,6.93-3.53c0.06-0.03,0.11-0.06,0.17-0.09c0.67-0.38,1.34-0.76,1.99-1.15
				c0.09-0.06,0.18-0.11,0.27-0.16c0.67-0.4,1.33-0.8,1.99-1.22c0.04-0.02,0.07-0.04,0.1-0.06c1.42-0.9,2.8-1.82,4.15-2.77
				c0.04-0.03,0.08-0.06,0.12-0.08c0.61-0.43,1.2-0.87,1.79-1.31c0.1-0.07,0.2-0.15,0.29-0.22c0.56-0.42,1.11-0.85,1.65-1.28
				c0.07-0.06,0.15-0.12,0.22-0.17c1.25-1,2.46-2.03,3.64-3.08c0,0,0.01-0.01,0.01-0.01c0.56-0.5,1.1-1.01,1.64-1.52
				c0.09-0.08,0.17-0.17,0.26-0.25c0.47-0.45,0.93-0.9,1.38-1.36c0.08-0.09,0.17-0.17,0.26-0.26c0.51-0.52,1.01-1.05,1.51-1.58
				c0.01-0.01,0.01-0.01,0.01-0.02c0.6-0.65,1.18-1.31,1.75-1.97c0.05-0.06,0.1-0.12,0.15-0.18c0.52-0.61,1.03-1.23,1.53-1.86
				c0.04-0.05,0.09-0.11,0.13-0.16c0.53-0.68,1.05-1.36,1.55-2.05c0.03-0.04,0.05-0.07,0.07-0.11c0.46-0.64,0.91-1.29,1.34-1.94
				c0.06-0.09,0.12-0.18,0.18-0.28c0.9-1.37,1.74-2.76,2.51-4.18c0.07-0.12,0.13-0.24,0.2-0.36c0.75-1.4,1.44-2.83,2.07-4.27
				c0.06-0.14,0.12-0.28,0.18-0.42c0.28-0.66,0.54-1.32,0.79-1.98c0.03-0.07,0.05-0.13,0.08-0.2c0.27-0.72,0.52-1.45,0.75-2.19
				c0.05-0.15,0.09-0.3,0.14-0.45c0.19-0.62,0.37-1.24,0.54-1.87c0.04-0.14,0.08-0.28,0.11-0.42c0.19-0.73,0.36-1.47,0.52-2.21
				c0.03-0.14,0.06-0.28,0.09-0.43c0.13-0.62,0.24-1.24,0.34-1.87c0.03-0.18,0.06-0.36,0.09-0.54c0.12-0.74,0.21-1.49,0.3-2.24
				c0.01-0.1,0.02-0.21,0.03-0.31c0.07-0.66,0.12-1.32,0.16-1.98c0.01-0.2,0.02-0.4,0.03-0.6c0.04-0.76,0.06-1.52,0.06-2.29
				c0-13.92-5.91-26.87-16.04-37.71c-17.57-18.8-47.88-31.23-82.34-31.23c-33.63,0-63.3,11.82-81.05,29.86
				c-10.53,10.7-16.86,23.59-17.3,37.5c-0.02,0.52-0.03,1.05-0.03,1.57C225.8,400.03,269.84,430.9,324.18,430.9 M325.31,310.12
				c38.96,0,70.54,22.13,70.54,49.43c0,27.3-31.58,49.43-70.54,49.43c-38.96,0-70.54-22.13-70.54-49.43
				C254.77,332.25,286.35,310.12,325.31,310.12"/>
			<path class="st5" d="M324.18,440.79c1.22,0,2.43-0.02,3.64-0.05v-9.9h-0.01c-1.21,0.03-2.41,0.05-3.63,0.05
				c-54.33,0-98.38-30.86-98.38-68.94v9.9C225.8,409.93,269.84,440.79,324.18,440.79"/>
			<path class="st5" d="M422.46,364.86c-0.04,0.66-0.09,1.32-0.16,1.98c-0.01,0.1-0.02,0.21-0.03,0.31
				c-0.08,0.75-0.18,1.5-0.29,2.24c-0.03,0.18-0.06,0.36-0.09,0.54c-0.1,0.63-0.22,1.25-0.34,1.87c-0.03,0.14-0.06,0.29-0.09,0.43
				c-0.16,0.74-0.33,1.47-0.52,2.2c-0.04,0.14-0.08,0.28-0.11,0.42c-0.17,0.63-0.35,1.25-0.54,1.87c-0.05,0.15-0.09,0.3-0.14,0.45
				c-0.23,0.73-0.48,1.46-0.75,2.19c-0.02,0.07-0.05,0.13-0.08,0.2c-0.25,0.67-0.52,1.33-0.79,1.98c-0.06,0.14-0.12,0.28-0.18,0.42
				c-0.62,1.44-1.31,2.87-2.07,4.27c-0.07,0.12-0.13,0.24-0.2,0.36c-0.77,1.41-1.61,2.81-2.51,4.18c-0.06,0.09-0.12,0.18-0.18,0.28
				c-0.43,0.65-0.88,1.3-1.34,1.94c-0.02,0.04-0.05,0.07-0.08,0.11c-0.5,0.69-1.01,1.37-1.54,2.05c-0.04,0.06-0.09,0.11-0.13,0.16
				c-0.5,0.63-1.01,1.25-1.53,1.86c-0.05,0.06-0.1,0.12-0.15,0.18c-0.57,0.67-1.15,1.32-1.75,1.97c0,0,0,0,0,0v9.9
				c9.93-10.77,15.7-23.59,15.7-37.36v-9.9c0,0.77-0.02,1.53-0.06,2.29C422.49,364.45,422.48,364.65,422.46,364.86"/>
			<path class="st12" d="M406.86,454.29c8.99-9.75,14.57-21.2,15.54-33.51l0.33-4.35l-0.17-44.58c0,13.77-5.77,26.6-15.69,37.36
				V454.29z"/>
			<path class="st12" d="M324.18,485.87c1.22,0,2.43-0.02,3.64-0.05v-45.08c-1.21,0.03-2.42,0.05-3.64,0.05
				c-54.33,0-98.38-30.86-98.38-68.94v45.08C225.8,455,269.84,485.87,324.18,485.87"/>
			<path class="st4" d="M406.86,409.22v-9.89c0,0-0.01,0.01-0.01,0.01c-0.49,0.53-1,1.06-1.51,1.58c-0.08,0.09-0.17,0.17-0.26,0.26
				c-0.45,0.46-0.91,0.91-1.38,1.36c-0.09,0.08-0.17,0.17-0.26,0.25c-0.54,0.51-1.08,1.02-1.64,1.52c0,0,0,0.01-0.01,0.01
				c-1.17,1.05-2.38,2.08-3.63,3.08c-0.07,0.06-0.15,0.12-0.22,0.18c-0.54,0.43-1.09,0.86-1.65,1.28c-0.1,0.07-0.2,0.15-0.29,0.22
				c-0.59,0.44-1.19,0.88-1.79,1.31c-0.04,0.03-0.08,0.06-0.12,0.08c-1.34,0.95-2.73,1.87-4.15,2.77c-0.04,0.02-0.07,0.04-0.1,0.07
				c-0.65,0.41-1.32,0.82-1.99,1.22c-0.09,0.05-0.18,0.11-0.27,0.16c-0.66,0.39-1.32,0.77-1.99,1.15c-0.06,0.03-0.11,0.06-0.17,0.09
				c-2.23,1.25-4.54,2.42-6.93,3.53c-0.07,0.03-0.13,0.06-0.2,0.09c-0.74,0.34-1.49,0.68-2.24,1.01c-0.06,0.02-0.11,0.05-0.17,0.08
				c-2.46,1.06-4.98,2.06-7.58,2.97c-0.02,0.01-0.03,0.01-0.05,0.02c-0.84,0.3-1.69,0.58-2.54,0.86c-0.04,0.01-0.08,0.03-0.13,0.04
				c-3.53,1.15-7.17,2.16-10.92,3.01c-0.02,0.01-0.04,0.01-0.06,0.01c-8.48,1.93-17.46,3.08-26.78,3.31c0,0,0,0-0.01,0v9.9
				C360.98,439.9,389.96,427.55,406.86,409.22"/>
			<path class="st5" d="M327.81,440.74v45.08c33.17-0.84,62.15-13.19,79.05-31.53v-45.07C389.96,427.55,360.98,439.9,327.81,440.74"
				/>
			<path class="st1" d="M325.31,408.97c38.96,0,70.54-22.13,70.54-49.43c0-27.3-31.58-49.43-70.54-49.43
				c-38.96,0-70.54,22.13-70.54,49.43C254.77,386.84,286.35,408.97,325.31,408.97"/>
			<path class="st10" d="M662.73,236.02L662.73,236.02c0.01,0,0.01,0,0.01,0C662.74,236.02,662.73,236.02,662.73,236.02"/>
			<path class="st10" d="M741.79,204.49c-0.01,0.01-0.01,0.01-0.02,0.02C741.78,204.51,741.78,204.5,741.79,204.49
				C741.79,204.5,741.79,204.49,741.79,204.49"/>
			<path class="st5" d="M560.72,165.56v1.57c0-0.52,0.01-1.05,0.03-1.57H560.72z"/>
			<path class="st11" d="M659.1,236.07c1.22,0,2.42-0.02,3.63-0.05c0,0,0.01,0,0.01,0c9.31-0.24,18.3-1.38,26.78-3.31
				c0.02-0.01,0.04-0.01,0.06-0.02c3.74-0.85,7.39-1.86,10.91-3.01c0.04-0.01,0.09-0.03,0.13-0.04c0.85-0.28,1.7-0.57,2.54-0.86
				c0.02-0.01,0.04-0.01,0.05-0.02c2.59-0.91,5.12-1.91,7.58-2.97c0.06-0.03,0.11-0.05,0.17-0.08c0.75-0.33,1.5-0.66,2.24-1.01
				c0.07-0.03,0.13-0.06,0.2-0.09c2.38-1.11,4.7-2.29,6.93-3.53c0.06-0.03,0.11-0.06,0.17-0.09c0.67-0.38,1.34-0.76,1.99-1.15
				c0.09-0.05,0.18-0.11,0.27-0.16c0.67-0.4,1.33-0.8,1.99-1.22c0.04-0.02,0.07-0.04,0.11-0.06c1.42-0.9,2.8-1.82,4.14-2.77
				c0.04-0.03,0.08-0.06,0.12-0.08c0.61-0.43,1.2-0.87,1.79-1.31c0.1-0.07,0.19-0.15,0.29-0.22c0.56-0.42,1.11-0.85,1.65-1.28
				c0.07-0.06,0.15-0.11,0.22-0.17c1.25-1,2.47-2.03,3.63-3.08c0,0,0.01-0.01,0.01-0.01c0.56-0.5,1.1-1.01,1.64-1.52
				c0.09-0.08,0.18-0.17,0.26-0.25c0.47-0.45,0.93-0.9,1.38-1.36c0.09-0.09,0.17-0.17,0.25-0.26c0.51-0.52,1.02-1.05,1.51-1.58
				c0.01-0.01,0.01-0.01,0.02-0.02c0.6-0.65,1.18-1.31,1.75-1.97c0.05-0.06,0.1-0.12,0.15-0.18c0.52-0.61,1.03-1.24,1.53-1.86
				c0.04-0.05,0.09-0.11,0.13-0.16c0.53-0.68,1.05-1.36,1.55-2.05c0.03-0.03,0.05-0.07,0.08-0.11c0.46-0.64,0.91-1.29,1.34-1.94
				c0.06-0.09,0.12-0.18,0.18-0.28c0.9-1.37,1.74-2.76,2.51-4.18c0.07-0.12,0.13-0.24,0.2-0.36c0.75-1.4,1.44-2.83,2.07-4.27
				c0.06-0.14,0.12-0.28,0.18-0.42c0.28-0.66,0.54-1.32,0.79-1.99c0.02-0.07,0.05-0.13,0.08-0.2c0.27-0.73,0.52-1.46,0.76-2.19
				c0.05-0.15,0.09-0.3,0.14-0.45c0.19-0.62,0.37-1.24,0.54-1.87c0.04-0.14,0.08-0.28,0.11-0.42c0.19-0.73,0.36-1.47,0.52-2.21
				c0.03-0.14,0.05-0.28,0.08-0.43c0.13-0.62,0.24-1.24,0.34-1.87c0.03-0.18,0.06-0.36,0.09-0.54c0.11-0.74,0.21-1.49,0.29-2.24
				c0.01-0.1,0.02-0.21,0.03-0.31c0.07-0.66,0.11-1.32,0.15-1.98c0.01-0.2,0.02-0.4,0.03-0.61c0.03-0.76,0.06-1.52,0.06-2.29
				c0-13.92-5.91-26.87-16.04-37.71c-17.57-18.8-47.88-31.23-82.34-31.23c-33.63,0-63.3,11.83-81.05,29.86
				c-10.53,10.71-16.86,23.59-17.31,37.51c-0.02,0.52-0.03,1.05-0.03,1.57C560.72,205.21,604.76,236.07,659.1,236.07 M660.23,115.29
				c38.96,0,70.54,22.13,70.54,49.43c0,27.3-31.58,49.43-70.54,49.43c-38.96,0-70.54-22.13-70.54-49.43
				C589.69,137.42,621.27,115.29,660.23,115.29"/>
			<path class="st5" d="M659.1,245.96c1.22,0,2.43-0.02,3.64-0.05v-9.9h-0.01c-1.2,0.03-2.41,0.05-3.63,0.05
				c-54.33,0-98.38-30.86-98.38-68.94v9.9C560.72,215.1,604.76,245.96,659.1,245.96"/>
			<path class="st5" d="M757.39,170.03c-0.04,0.66-0.09,1.32-0.16,1.98c-0.01,0.1-0.02,0.21-0.03,0.31
				c-0.08,0.75-0.18,1.5-0.29,2.24c-0.03,0.18-0.06,0.36-0.09,0.54c-0.1,0.63-0.22,1.25-0.34,1.87c-0.03,0.14-0.06,0.28-0.09,0.43
				c-0.16,0.74-0.33,1.47-0.52,2.2c-0.04,0.14-0.08,0.28-0.11,0.42c-0.17,0.63-0.35,1.25-0.54,1.87c-0.05,0.15-0.09,0.3-0.14,0.45
				c-0.23,0.73-0.48,1.46-0.75,2.19c-0.02,0.07-0.05,0.13-0.07,0.2c-0.25,0.67-0.52,1.33-0.8,1.98c-0.06,0.14-0.12,0.28-0.18,0.42
				c-0.62,1.44-1.31,2.87-2.07,4.27c-0.07,0.12-0.13,0.24-0.2,0.36c-0.77,1.41-1.61,2.81-2.51,4.18c-0.06,0.09-0.12,0.18-0.18,0.28
				c-0.43,0.65-0.88,1.3-1.34,1.94c-0.03,0.04-0.05,0.07-0.08,0.11c-0.5,0.69-1.01,1.37-1.54,2.05c-0.04,0.05-0.09,0.11-0.13,0.16
				c-0.49,0.63-1,1.25-1.53,1.86c-0.05,0.06-0.1,0.12-0.15,0.18c-0.57,0.67-1.15,1.32-1.75,1.97c0,0,0,0,0,0v9.9
				c9.93-10.77,15.69-23.59,15.69-37.36v-9.9c0,0.77-0.02,1.53-0.06,2.29C757.41,169.62,757.4,169.83,757.39,170.03"/>
			<path class="st12" d="M741.78,259.46c8.99-9.75,14.57-21.2,15.54-33.51l0.33-4.35l-0.17-44.58c0,13.77-5.77,26.6-15.69,37.36
				V259.46z"/>
			<path class="st12" d="M659.1,291.04c1.22,0,2.43-0.02,3.64-0.05v-45.08c-1.21,0.03-2.42,0.05-3.64,0.05
				c-54.33,0-98.38-30.86-98.38-68.94v45.08C560.72,260.18,604.76,291.04,659.1,291.04"/>
			<path class="st4" d="M741.78,214.39v-9.89c0,0-0.01,0.01-0.01,0.01c-0.49,0.53-1,1.06-1.51,1.58c-0.08,0.09-0.17,0.17-0.26,0.26
				c-0.45,0.46-0.91,0.91-1.38,1.36c-0.09,0.08-0.18,0.17-0.26,0.25c-0.54,0.51-1.08,1.02-1.64,1.52c0,0-0.01,0.01-0.01,0.01
				c-1.17,1.05-2.38,2.08-3.63,3.08c-0.07,0.06-0.15,0.12-0.22,0.18c-0.54,0.43-1.1,0.86-1.65,1.28c-0.1,0.07-0.19,0.15-0.29,0.22
				c-0.59,0.44-1.19,0.88-1.79,1.31c-0.04,0.03-0.08,0.06-0.12,0.08c-1.34,0.95-2.73,1.87-4.15,2.77c-0.03,0.02-0.07,0.04-0.1,0.06
				c-0.66,0.41-1.32,0.82-1.99,1.22c-0.09,0.05-0.18,0.11-0.27,0.16c-0.66,0.39-1.32,0.77-1.99,1.15c-0.05,0.03-0.11,0.06-0.17,0.09
				c-2.23,1.25-4.54,2.43-6.93,3.53c-0.07,0.03-0.13,0.06-0.2,0.09c-0.74,0.34-1.49,0.68-2.24,1.01c-0.06,0.03-0.11,0.05-0.17,0.08
				c-2.46,1.06-4.98,2.06-7.58,2.97c-0.02,0.01-0.03,0.01-0.05,0.02c-0.84,0.3-1.69,0.58-2.54,0.86c-0.04,0.01-0.08,0.03-0.13,0.04
				c-3.53,1.15-7.17,2.16-10.92,3.01c-0.02,0.01-0.04,0.01-0.06,0.01c-8.48,1.93-17.46,3.08-26.78,3.31c0,0-0.01,0-0.01,0v9.9
				C695.9,245.07,724.88,232.72,741.78,214.39"/>
			<path class="st5" d="M662.73,245.91v45.08c33.17-0.85,62.15-13.19,79.05-31.53v-45.07C724.88,232.72,695.9,245.07,662.73,245.91"
				/>
			<path class="st1" d="M660.23,214.15c38.96,0,70.54-22.13,70.54-49.43c0-27.3-31.58-49.43-70.54-49.43
				c-38.96,0-70.54,22.13-70.54,49.43C589.69,192.02,621.27,214.15,660.23,214.15"/>
			<polygon class="st13" points="524.73,996.85 389.73,1075.08 389.73,1075.62 524.73,997.39 			"/>
			<polygon class="st13" points="524.73,1223.93 389.56,1302.26 389.56,1302.79 524.73,1224.47 			"/>
			<polygon class="st13" points="524.73,1451.01 389.56,1529.33 389.56,1529.87 524.73,1451.55 			"/>
			<polygon class="st14" points="524.73,1427.59 524.73,1389.83 524.73,1221.47 389.56,1299.79 389.56,1323.47 389.56,1356.64 
				389.56,1526.33 524.73,1448.01 			"/>
			<polygon class="st14" points="524.73,1100.78 524.73,1063.02 524.73,991.39 389.73,1069.62 389.56,1140.09 389.56,1296.26 
				524.73,1217.93 			"/>
			<path class="st14" d="M524.73,775.72l-112.12,64.73c-13.8,7.97-22.39,22.81-22.43,38.74l-0.45,185.88l135-78.23V775.72z"/>
			<path class="st14" d="M389.56,1530.87v198.09v15.85c0,0.05,0,0.06,0,0.06c0.01,0.01,0.03,0.03,0.06,0.04l0.12-0.07l6.03-3.48
				l128.95-74.45v-214.38L389.56,1530.87z"/>
			<polygon class="st15" points="524.73,997.39 947.94,752.15 947.94,751.61 524.73,996.85 			"/>
			<polygon class="st15" points="524.73,1451.55 947.94,1206.31 947.94,1205.77 524.73,1451.01 			"/>
			<polygon class="st15" points="524.73,1224.47 947.94,979.23 947.94,978.69 524.73,1223.93 			"/>
			<polygon class="st7" points="524.73,1389.83 524.73,1427.59 524.73,1448.01 947.94,1202.77 947.94,1197.08 947.94,976.23 
				524.73,1221.47 			"/>
			<polygon class="st7" points="524.73,1063.02 524.73,1100.78 524.73,1217.93 947.94,972.69 947.94,746.15 524.73,991.39 			"/>
			<path class="st7" d="M947.94,741.61V547.36v-15.84c0-0.05,0-0.07-0.01-0.07c0,0,0,0-0.01,0c-0.01,0-0.05-0.02-0.08-0.03
				c-0.01,0.01-0.02,0.01-0.04,0.02L524.73,775.72v211.13L947.94,741.61z"/>
			<path class="st7" d="M599.18,1623.94l1.13-0.65l29.17-16.84l272.36-157.24l37.8-21.82c4.04-5.03,6.9-10.93,8.31-17.22v-15.02
				v-52.29v-33.17v-102.38l-423.21,245.24v214.38L599.18,1623.94L599.18,1623.94z"/>
			<polygon class="st16" points="389.73,1075.08 379.8,1080.84 379.8,1081.38 389.73,1075.62 			"/>
			<polygon class="st16" points="389.56,1529.33 379.64,1535.09 379.64,1535.62 389.56,1529.87 			"/>
			<polygon class="st16" points="389.56,1302.26 379.64,1308.01 379.64,1308.54 389.56,1302.79 			"/>
			<polygon class="st16" points="389.56,1359.64 389.56,1326.47 389.56,1302.79 379.64,1308.54 379.64,1326.47 379.64,1359.64 
				379.64,1535.09 389.56,1529.33 			"/>
			<polygon class="st16" points="389.56,1146.09 389.73,1075.62 379.8,1081.38 379.64,1146.06 379.64,1308.01 389.56,1302.26 			"/>
			<path class="st16" d="M390.18,889.2c0.04-15.93,8.63-30.78,22.43-38.74l112.12-64.73v-2.75v-8.71l-117.08,67.6
				c-16.91,9.76-27.35,27.79-27.39,47.31l-0.46,191.67l9.94-5.76L390.18,889.2z"/>
			<path class="st16" d="M379.64,1743.81c0,5.83,4.8,10.06,10.02,10.06c1.63,0,3.31-0.42,4.89-1.33c0.05-0.03,0.1-0.06,0.15-0.08
				l6.05-3.49v0l123.99-71.58v-11.46l-128.95,74.45l-6.03,3.48l-0.12,0.07c-0.03-0.02-0.06-0.04-0.06-0.04c0,0,0-0.02,0-0.06v-15.85
				v-198.09l-9.92,5.75v192.34V1743.81z"/>
			<path class="st16" d="M947.94,751.61v0.54l9.92-5.75V557.36v-15.84c0-1.54-0.34-2.96-0.93-4.22V746.4L947.94,751.61z"/>
			<path class="st16" d="M906.79,1456.8l39.32-22.7c0.1-0.12,0.19-0.24,0.29-0.36l-90.74,52.58L906.79,1456.8z"/>
			<polygon class="st16" points="947.94,979.23 956.94,974.01 956.94,1200.55 947.94,1205.77 947.94,1206.31 957.87,1200.56 
				957.87,1200.08 957.87,972.94 947.94,978.69 			"/>
			<polygon class="st16" points="947.94,1205.77 956.94,1200.55 956.94,974.01 947.94,979.23 947.94,1200.08 			"/>
			<polygon class="st16" points="947.94,978.69 957.87,972.94 957.87,746.4 947.94,752.15 			"/>
			<path class="st16" d="M947.84,531.5c-1.67,0-3.38,0.43-4.99,1.36l-418.12,241.4v8.71v2.75l423.08-244.27
				c0.02-0.01,0.03-0.02,0.04-0.02c0.03,0.01,0.07,0.03,0.08,0.03c0,0,0.01,0,0.01,0c0,0,0.01,0.02,0.01,0.07v15.84v194.25l9-5.21
				V537.31C955.3,533.77,951.69,531.5,947.84,531.5"/>
			<path class="st16" d="M947.94,1308.68v33.17v52.29v15.02c-1.42,6.29-4.27,12.19-8.31,17.22l-37.8,21.82l-272.36,157.24
				l-29.17,16.84l-1.13,0.65h0l-74.44,42.98v11.46l80.53-46.49l0,0l29.17-16.84l221.23-127.73l90.74-52.58
				c5.72-6.72,9.7-14.8,11.46-23.53v-16.07v-52.29v-33.17v-108.13l-9.92,5.75V1308.68z"/>
		</g>
	</g>
</g>
</svg>
