<svg xmlns="http://www.w3.org/2000/svg" viewBox="0 0 62.89 38.5"><defs><style>.cls-1{fill:#000000;}</style></defs><title>Asset 63switch-vertical</title><g id="Layer_2" data-name="Layer 2"><g id="Layer_1-2" data-name="Layer 1"><path class="cls-1" d="M18.69,14.06c-.26,0-.35-.14-.35-.41V5.05c0-.29.11-.42.4-.42h3.15c2.63,0,3.58,1.18,3.58,2.37v4.69c0,1.19-.95,2.37-3.58,2.37Zm1.95-7.55v5.68h1.25c.69,0,1.27-.26,1.27-.9V7.41c0-.64-.58-.9-1.27-.9Z"/><path class="cls-1" d="M33.73,11.8c0,1.2-.81,2.37-3.43,2.37S26.87,13,26.87,11.8V6.89c0-1.19.81-2.37,3.43-2.37s3.43,1.18,3.43,2.37v.64c0,.29-.09.42-.39.42H31.9c-.29,0-.4-.13-.4-.42V7.3c0-.64-.49-.91-1.17-.91s-1.16.27-1.16.91v4.1c0,.64.47.9,1.16.9s1.17-.26,1.17-.9V11c0-.29.11-.42.4-.42h1.44c.3,0,.39.13.39.42Z"/><path class="cls-1" d="M9.47,25.17,12,33.77c.08.26,0,.41-.31.41H10.14a.46.46,0,0,1-.49-.41l-.36-1.33H7l-.36,1.33a.46.46,0,0,1-.49.41H4.71c-.29,0-.39-.15-.31-.41l2.53-8.6a.49.49,0,0,1,.52-.42H9A.49.49,0,0,1,9.47,25.17Zm-.88,4.71A27,27,0,0,1,8.16,27a28.63,28.63,0,0,1-.48,2.89l-.21.75H8.79Z"/><path class="cls-1" d="M19.58,31.92c0,1.2-.81,2.37-3.44,2.37s-3.43-1.17-3.43-2.37V27c0-1.19.81-2.37,3.43-2.37s3.44,1.18,3.44,2.37v.64c0,.29-.1.42-.39.42H17.75c-.29,0-.41-.13-.41-.42v-.23c0-.64-.48-.91-1.17-.91s-1.16.27-1.16.91v4.1c0,.64.48.9,1.16.9s1.17-.26,1.17-.9v-.44c0-.29.12-.42.41-.42h1.44c.29,0,.39.13.39.42Z"/><path class="cls-1" d="M46.73,18.6H38.5V0H0V38.5H38.5V19.9h8.23v10H48V8.58H46.73ZM37,36,2.51,1.5H37ZM1.5,2.62,35.89,37H1.5Z"/><polygon class="cls-1" points="62.89 18.6 53.39 18.6 53.39 12.85 52.08 12.85 52.08 25.65 53.39 25.65 53.39 19.9 62.89 19.9 62.89 18.6"/></g></g></svg>
