<svg id="e0cEqsNQg2u1" xmlns="http://www.w3.org/2000/svg" xmlns:xlink="http://www.w3.org/1999/xlink" viewBox="-100 100 400 200" shape-rendering="geometricPrecision" text-rendering="geometricPrecision"><defs><linearGradient id="e0cEqsNQg2u5-fill" x1="35.906100" y1="83.851600" x2="164.345500" y2="83.851600" spreadMethod="pad" gradientUnits="userSpaceOnUse"><stop id="e0cEqsNQg2u5-fill-0" offset="0%" stop-color="rgb(136,206,47)"/><stop id="e0cEqsNQg2u5-fill-1" offset="24.910000%" stop-color="rgb(180,255,88)"/><stop id="e0cEqsNQg2u5-fill-2" offset="70.430000%" stop-color="rgb(199,255,130)"/><stop id="e0cEqsNQg2u5-fill-3" offset="85.660000%" stop-color="rgb(180,255,88)"/></linearGradient><linearGradient id="e0cEqsNQg2u9-fill" x1="35.906100" y1="331.451600" x2="164.345500" y2="331.451600" spreadMethod="pad" gradientUnits="userSpaceOnUse"><stop id="e0cEqsNQg2u9-fill-0" offset="0%" stop-color="rgb(136,206,47)"/><stop id="e0cEqsNQg2u9-fill-1" offset="24.910000%" stop-color="rgb(180,255,88)"/><stop id="e0cEqsNQg2u9-fill-2" offset="70.430000%" stop-color="rgb(199,255,130)"/><stop id="e0cEqsNQg2u9-fill-3" offset="85.660000%" stop-color="rgb(180,255,88)"/></linearGradient><linearGradient id="e0cEqsNQg2u11-fill" x1="35.906100" y1="145.751600" x2="164.345500" y2="145.751600" spreadMethod="pad" gradientUnits="userSpaceOnUse"><stop id="e0cEqsNQg2u11-fill-0" offset="0%" stop-color="rgb(136,206,47)"/><stop id="e0cEqsNQg2u11-fill-1" offset="24.910000%" stop-color="rgb(180,255,88)"/><stop id="e0cEqsNQg2u11-fill-2" offset="70.430000%" stop-color="rgb(199,255,130)"/><stop id="e0cEqsNQg2u11-fill-3" offset="85.660000%" stop-color="rgb(180,255,88)"/></linearGradient><linearGradient id="e0cEqsNQg2u13-fill" x1="35.906100" y1="207.651600" x2="164.345500" y2="207.651600" spreadMethod="pad" gradientUnits="userSpaceOnUse"><stop id="e0cEqsNQg2u13-fill-0" offset="0%" stop-color="rgb(136,206,47)"/><stop id="e0cEqsNQg2u13-fill-1" offset="24.910000%" stop-color="rgb(180,255,88)"/><stop id="e0cEqsNQg2u13-fill-2" offset="70.430000%" stop-color="rgb(199,255,130)"/><stop id="e0cEqsNQg2u13-fill-3" offset="85.660000%" stop-color="rgb(180,255,88)"/></linearGradient><linearGradient id="e0cEqsNQg2u15-fill" x1="35.906100" y1="269.551600" x2="164.345500" y2="269.551600" spreadMethod="pad" gradientUnits="userSpaceOnUse"><stop id="e0cEqsNQg2u15-fill-0" offset="0%" stop-color="rgb(136,206,47)"/><stop id="e0cEqsNQg2u15-fill-1" offset="24.910000%" stop-color="rgb(180,255,88)"/><stop id="e0cEqsNQg2u15-fill-2" offset="70.430000%" stop-color="rgb(199,255,130)"/><stop id="e0cEqsNQg2u15-fill-3" offset="85.660000%" stop-color="rgb(180,255,88)"/></linearGradient></defs><g id="e0cEqsNQg2u2" transform="matrix(0 1 -1 0 298.34998893737793 97.64998435974120)"><path id="e0cEqsNQg2u3" d="M178,68.300000L178,347.300000C178,359.400000,168.100000,369.300000,156,369.300000L44.700000,369.300000C32.600000,369.300000,22.700000,359.400000,22.700000,347.300000L22.700000,68.300000C22.700000,56.200000,32.600000,46.300000,44.700000,46.300000L156,46.300000C168.100000,46.300000,178,56.200000,178,68.300000Z" fill="rgb(122,122,122)" stroke="rgb(242,241,239)" stroke-width="6.155900" stroke-miterlimit="10"/><g id="e0cEqsNQg2u4"><path id="e0cEqsNQg2u5" d="M42.200000,56.400000L158.500000,56.400000C163.100000,56.400000,166.800000,60.100000,166.800000,64.700000L166.800000,103C166.800000,107.600000,163.100000,111.300000,158.500000,111.300000L42.200000,111.300000C37.600000,111.300000,33.900000,107.600000,33.900000,103L33.900000,64.700000C33.900000,60.100000,37.600000,56.400000,42.200000,56.400000Z" fill="url(#e0cEqsNQg2u5-fill)" stroke="none" stroke-width="1"/></g><g id="e0cEqsNQg2u6"><path id="e0cEqsNQg2u7" d="M71.700000,26.700000C68.600000,26.700000,66.300000,39.700000,66.400000,40.100000L134.400000,40.100000C134.500000,39.700000,132.200000,26.700000,129.100000,26.700000C129.100000,26.700000,71.700000,26.700000,71.700000,26.700000Z" fill="rgb(122,122,122)" stroke="none" stroke-width="1"/></g><g id="e0cEqsNQg2u8"><path id="e0cEqsNQg2u9" d="M42.200000,304L158.500000,304C163.100000,304,166.800000,307.700000,166.800000,312.300000L166.800000,350.600000C166.800000,355.200000,163.100000,358.900000,158.500000,358.900000L42.200000,358.900000C37.600000,358.900000,33.900000,355.200000,33.900000,350.600000L33.900000,312.300000C33.900000,307.700000,37.600000,304,42.200000,304Z" fill="url(#e0cEqsNQg2u9-fill)" stroke="none" stroke-width="1"/></g><g id="e0cEqsNQg2u10"><path id="e0cEqsNQg2u11" d="M42.200000,118.300000L158.500000,118.300000C163.100000,118.300000,166.800000,122,166.800000,126.600000L166.800000,164.900000C166.800000,169.500000,163.100000,173.200000,158.500000,173.200000L42.200000,173.200000C37.600000,173.200000,33.900000,169.500000,33.900000,164.900000L33.900000,126.600000C33.900000,122,37.600000,118.300000,42.200000,118.300000Z" fill="url(#e0cEqsNQg2u11-fill)" stroke="none" stroke-width="1"/></g><g id="e0cEqsNQg2u12"><path id="e0cEqsNQg2u13" d="M42.200000,180.200000L158.500000,180.200000C163.100000,180.200000,166.800000,183.900000,166.800000,188.500000L166.800000,226.800000C166.800000,231.400000,163.100000,235.100000,158.500000,235.100000L42.200000,235.100000C37.600000,235.100000,33.900000,231.400000,33.900000,226.800000L33.900000,188.500000C33.900000,183.900000,37.600000,180.200000,42.200000,180.200000Z" fill="url(#e0cEqsNQg2u13-fill)" stroke="none" stroke-width="1"/></g><g id="e0cEqsNQg2u14"><path id="e0cEqsNQg2u15" d="M42.200000,242.100000L158.500000,242.100000C163.100000,242.100000,166.800000,245.800000,166.800000,250.400000L166.800000,288.700000C166.800000,293.300000,163.100000,297,158.500000,297L42.200000,297C37.600000,297,33.900000,293.300000,33.900000,288.700000L33.900000,250.400000C33.900000,245.800000,37.600000,242.100000,42.200000,242.100000Z" fill="url(#e0cEqsNQg2u15-fill)" stroke="none" stroke-width="1"/></g></g></svg>