<svg id="ebmxZA1FUYv1" xmlns="http://www.w3.org/2000/svg" xmlns:xlink="http://www.w3.org/1999/xlink" viewBox="-100 100 400 200" shape-rendering="geometricPrecision" text-rendering="geometricPrecision"><defs><linearGradient id="ebmxZA1FUYv7-fill" x1="35.906200" y1="331.451600" x2="164.345500" y2="331.451600" spreadMethod="pad" gradientUnits="userSpaceOnUse"><stop id="ebmxZA1FUYv7-fill-0" offset="0%" stop-color="rgb(203,206,47)"/><stop id="ebmxZA1FUYv7-fill-1" offset="24.910000%" stop-color="rgb(249,255,88)"/><stop id="ebmxZA1FUYv7-fill-2" offset="70.430000%" stop-color="rgb(251,255,130)"/><stop id="ebmxZA1FUYv7-fill-3" offset="85.660000%" stop-color="rgb(249,255,88)"/></linearGradient><linearGradient id="ebmxZA1FUYv9-fill" x1="35.906200" y1="207.651600" x2="164.345500" y2="207.651600" spreadMethod="pad" gradientUnits="userSpaceOnUse"><stop id="ebmxZA1FUYv9-fill-0" offset="0%" stop-color="rgb(203,206,47)"/><stop id="ebmxZA1FUYv9-fill-1" offset="24.910000%" stop-color="rgb(249,255,88)"/><stop id="ebmxZA1FUYv9-fill-2" offset="70.430000%" stop-color="rgb(251,255,130)"/><stop id="ebmxZA1FUYv9-fill-3" offset="85.660000%" stop-color="rgb(249,255,88)"/></linearGradient><linearGradient id="ebmxZA1FUYv11-fill" x1="35.906200" y1="269.551600" x2="164.345500" y2="269.551600" spreadMethod="pad" gradientUnits="userSpaceOnUse"><stop id="ebmxZA1FUYv11-fill-0" offset="0%" stop-color="rgb(203,206,47)"/><stop id="ebmxZA1FUYv11-fill-1" offset="24.910000%" stop-color="rgb(249,255,88)"/><stop id="ebmxZA1FUYv11-fill-2" offset="70.430000%" stop-color="rgb(251,255,130)"/><stop id="ebmxZA1FUYv11-fill-3" offset="85.660000%" stop-color="rgb(249,255,88)"/></linearGradient></defs><g id="ebmxZA1FUYv2" transform="matrix(0 1 -1 0 298.34998893737793 97.64998435974120)"><path id="ebmxZA1FUYv3" d="M178,68.300000L178,347.300000C178,359.400000,168.100000,369.300000,156,369.300000L44.700000,369.300000C32.600000,369.300000,22.700000,359.400000,22.700000,347.300000L22.700000,68.300000C22.700000,56.200000,32.600000,46.300000,44.700000,46.300000L156,46.300000C168.100000,46.300000,178,56.200000,178,68.300000Z" fill="rgb(122,122,122)" stroke="rgb(242,241,239)" stroke-width="6.155900" stroke-miterlimit="10"/><g id="ebmxZA1FUYv4"><path id="ebmxZA1FUYv5" d="M71.700000,26.700000C68.600000,26.700000,66.300000,39.700000,66.400000,40.100000L134.400000,40.100000C134.500000,39.700000,132.200000,26.700000,129.100000,26.700000C129.100000,26.700000,71.700000,26.700000,71.700000,26.700000Z" fill="rgb(122,122,122)" stroke="none" stroke-width="1"/></g><g id="ebmxZA1FUYv6"><path id="ebmxZA1FUYv7" d="M42.200000,304L158.500000,304C163.100000,304,166.800000,307.700000,166.800000,312.300000L166.800000,350.600000C166.800000,355.200000,163.100000,358.900000,158.500000,358.900000L42.200000,358.900000C37.600000,358.900000,33.900000,355.200000,33.900000,350.600000L33.900000,312.300000C33.900000,307.700000,37.600000,304,42.200000,304Z" fill="url(#ebmxZA1FUYv7-fill)" stroke="none" stroke-width="1"/></g><g id="ebmxZA1FUYv8"><path id="ebmxZA1FUYv9" d="M42.200000,180.200000L158.500000,180.200000C163.100000,180.200000,166.800000,183.900000,166.800000,188.500000L166.800000,226.800000C166.800000,231.400000,163.100000,235.100000,158.500000,235.100000L42.200000,235.100000C37.600000,235.100000,33.900000,231.400000,33.900000,226.800000L33.900000,188.500000C33.900000,183.900000,37.600000,180.200000,42.200000,180.200000Z" fill="url(#ebmxZA1FUYv9-fill)" stroke="none" stroke-width="1"/></g><g id="ebmxZA1FUYv10"><path id="ebmxZA1FUYv11" d="M42.200000,242.100000L158.500000,242.100000C163.100000,242.100000,166.800000,245.800000,166.800000,250.400000L166.800000,288.700000C166.800000,293.300000,163.100000,297,158.500000,297L42.200000,297C37.600000,297,33.900000,293.300000,33.900000,288.700000L33.900000,250.400000C33.900000,245.800000,37.600000,242.100000,42.200000,242.100000Z" fill="url(#ebmxZA1FUYv11-fill)" stroke="none" stroke-width="1"/></g></g></svg>