<svg id="emAU2vcB7FY1" xmlns="http://www.w3.org/2000/svg" xmlns:xlink="http://www.w3.org/1999/xlink" viewBox="-100 100 400 200" shape-rendering="geometricPrecision" text-rendering="geometricPrecision"><g id="emAU2vcB7FY2" transform="matrix(0 1 -1 0 298.34998893737793 97.64998435974120)"><path id="emAU2vcB7FY3" d="M178,68.300000L178,347.300000C178,359.400000,168.100000,369.300000,156,369.300000L44.700000,369.300000C32.600000,369.300000,22.700000,359.400000,22.700000,347.300000L22.700000,68.300000C22.700000,56.200000,32.600000,46.300000,44.700000,46.300000L156,46.300000C168.100000,46.300000,178,56.200000,178,68.300000Z" fill="rgb(122,122,122)" stroke="rgb(242,241,239)" stroke-width="6.155900" stroke-miterlimit="10"/><g id="emAU2vcB7FY4"><path id="emAU2vcB7FY5" d="M71.700000,26.700000C68.600000,26.700000,66.300000,39.700000,66.400000,40.100000L134.400000,40.100000C134.500000,39.700000,132.200000,26.700000,129.100000,26.700000C129.100000,26.700000,71.700000,26.700000,71.700000,26.700000Z" fill="rgb(122,122,122)" stroke="none" stroke-width="1"/></g></g></svg>