<?xml version="1.0" encoding="utf-8"?>
<!-- Generator: Adobe Illustrator 25.3.1, SVG Export Plug-In . SVG Version: 6.00 Build 0)  -->
<svg version="1.1" id="Layer_1" xmlns="http://www.w3.org/2000/svg" xmlns:xlink="http://www.w3.org/1999/xlink" x="0px" y="0px"
	 viewBox="0 0 1522 1265" style="enable-background:new 0 0 1522 1265;" xml:space="preserve">
<style type="text/css">
	.st0{opacity:0.5;fill:#7C7C7C;enable-background:new    ;}
	.st1{fill:#DDED48;}
	.st2{fill:#504A2F;}
	.st3{fill:#B7B76C;}
	.st4{fill:#FFA72B;}
	.st5{fill:#CFCFCF;}
	.st6{fill:#A8A8A8;}
	.st7{fill:#892913;}
	.st8{opacity:0.4;fill:#7B6E7F;enable-background:new    ;}
	.st9{fill:#BCBBBB;}
	.st10{fill:#E5E5E5;}
</style>
<polygon class="st0" points="1218.92,914.22 1218.92,914.21 612.06,1264.59 5.22,914.23 308.63,739.05 308.64,739.04 612.08,563.85 
	612.08,563.86 915.51,388.67 1522.35,739.03 1522.35,739.03 1522.35,739.03 "/>
<g>
	<polygon class="st1" points="1170.11,699.51 1170.11,699.51 645.59,1002.34 121.08,699.52 383.33,548.11 383.34,548.1 
		645.6,396.68 645.61,396.69 907.87,245.27 1432.38,548.1 1432.38,548.1 1432.38,548.1 	"/>
	<polygon class="st2" points="383.33,548.1 383.34,548.1 383.33,548.11 	"/>
	<path class="st2" d="M907.85,995.13L907.85,995.13L907.85,995.13z"/>
	<polygon class="st2" points="1170.11,699.51 1170.11,699.51 1432.38,548.1 1432.38,548.1 1432.38,692.3 907.85,995.13 
		907.85,995.13 907.85,995.13 907.85,995.13 645.59,1146.55 645.59,1146.55 645.59,1002.34 	"/>
	<polygon class="st3" points="645.59,1002.34 645.59,1146.55 121.06,843.71 121.06,699.51 	"/>
</g>
<polygon class="st0" points="547.6,696.66 660.57,882.83 757.37,938.72 1011.22,792.16 922.7,658.71 "/>
<g>
	<path class="st2" d="M551.2,92.65v616.36l0,0c0,50.33,91.31,91.13,203.94,91.13s203.94-40.8,203.94-91.13V92.65H551.2z"/>
	<path class="st4" d="M551.2,93.31v225.16c133.06,70.89,293.66,70.26,407.88-1.96V93.31H551.2z"/>
	<ellipse class="st5" cx="755.13" cy="92.65" rx="203.94" ry="72.1"/>
	<ellipse class="st6" cx="755.13" cy="92.65" rx="168.31" ry="51.27"/>
	<path class="st0" d="M755.06,53.36c86.28,0,157.38,19.78,167.15,45.26c0.76-1.97,1.16-3.98,1.16-6.01
		c0-28.32-75.35-51.27-168.31-51.27c-92.95,0-168.31,22.95-168.31,51.27c0,2.03,0.4,4.04,1.16,6.01
		C597.68,73.13,668.78,53.36,755.06,53.36z"/>
	<g>
		<g>
			<path class="st7" d="M755.14,164.39c-53.45,0-103.79-6.92-141.74-19.5c-40.11-13.29-62.2-31.84-62.2-52.25
				c0-20.4,22.09-38.96,62.2-52.25c37.95-12.57,88.29-19.5,141.74-19.5s103.79,6.92,141.74,19.5
				c40.11,13.29,62.19,31.84,62.19,52.25c0,20.4-22.09,38.96-62.19,52.25C858.93,157.47,808.59,164.39,755.14,164.39z M755.14,33.44
				c-52.14,0-101.07,6.7-137.77,18.86c-33.55,11.11-53.58,26.2-53.58,40.35s20.03,29.23,53.58,40.35
				c36.71,12.16,85.64,18.86,137.77,18.86c52.14,0,101.07-6.7,137.77-18.86c33.55-11.11,53.58-26.2,53.58-40.35
				s-20.03-29.23-53.58-40.35C856.2,40.14,807.28,33.44,755.14,33.44z"/>
		</g>
	</g>
	<ellipse class="st8" cx="773.27" cy="93.31" rx="99.57" ry="29.66"/>
	<g>
		<path class="st9" d="M673.7,37.16v44.46l0,0c0,16.38,37.56,29.66,83.89,29.66S841.48,98,841.48,81.62l0,0V37.16H673.7z"/>
		<ellipse class="st10" cx="757.59" cy="37.16" rx="83.89" ry="29.66"/>
	</g>
</g>
</svg>
