<svg xmlns="http://www.w3.org/2000/svg" viewBox="0 0 22.57 45"><defs><style>.cls-1{fill:#dfe0e2;}</style></defs><title>Asset 92switch-vertical</title><g id="Layer_2" data-name="Layer 2"><g id="Layer_1-2" data-name="Layer 1"><path class="cls-1" d="M4.16,24c0,.72-.49,1.44-2.08,1.44S0,24.72,0,24V21c0-.72.49-1.44,2.08-1.44s2.08.72,2.08,1.44v.39c0,.18-.06.26-.24.26H3.05c-.18,0-.24-.08-.24-.26v-.14c0-.39-.3-.55-.71-.55s-.71.16-.71.55v2.5c0,.39.29.55.71.55s.71-.16.71-.55v-.27c0-.18.06-.25.24-.25h.87c.18,0,.24.07.24.25Z"/><path class="cls-1" d="M5.21,25.37C5,25.37,5,25.3,5,25.12V19.88c0-.18.07-.25.25-.25H6.8c1.59,0,2.14.59,2.14,1.31v.47a1,1,0,0,1-.57.94,1.15,1.15,0,0,1,.85,1V24c0,.72-.55,1.38-2.14,1.38Zm1.15-4.64v1.21H6.8c.41,0,.77-.16.77-.56v-.22c0-.38-.36-.43-.77-.43Zm0,2.24v1.3h.72c.41,0,.77-.15.77-.54v-.27c0-.32-.36-.49-.77-.49Z"/><path class="cls-1" d="M22.57,33.2V44.27a.73.73,0,1,1-1.46,0V33.2a.73.73,0,0,1,1.46,0Z"/><path class="cls-1" d="M22.47.73V11.8a.73.73,0,0,1-1.46,0V.73a.73.73,0,0,1,1.46,0Z"/><path class="cls-1" d="M18.79,8.44a.7.7,0,0,1-.19.48c-12.41,13.91-.53,26.6,0,27.14a.73.73,0,0,1,0,1,.74.74,0,0,1-1,0c-.13-.14-13.33-14.18,0-29.1a.73.73,0,0,1,1.28.48Z"/></g></g></svg>