<?xml version="1.0" encoding="utf-8"?>
<!-- Generator: Adobe Illustrator 25.2.0, SVG Export Plug-In . SVG Version: 6.00 Build 0)  -->
<svg version="1.1" id="Layer_1" xmlns="http://www.w3.org/2000/svg" xmlns:xlink="http://www.w3.org/1999/xlink" x="0px" y="0px"
	 viewBox="0 0 555 491" style="enable-background:new 0 0 555 491;" xml:space="preserve">
<style type="text/css">
	.st0{opacity:7.000000e-02;}
	.st1{fill:#0A0F15;}
	.st2{fill:#556C93;}
	.st3{fill:#FF0002;}
	.st4{opacity:0.5;fill:#FFFFFF;}
	.st5{opacity:0.1;fill:#0A0F15;}
	.st6{fill:#ECF1FF;}
	.st7{opacity:0.2;fill:#0A0F15;}
	.st8{fill:#15273F;}
	.st9{opacity:0.5;}
	.st10{opacity:0.2;fill:#FFFFFF;}
</style>
<g class="st0">
	<path class="st1" d="M20,406.1c16.9,8.8,188.5,68.7,242.3,81.8c79.9,19.5,197.1-54.3,242.8-83.9c45.8-29.5,13-36.9-15.8-48.7
		c-28.7-11.8-245-16-245-16S6.7,355.3,1.4,372.1C-4,389,3.1,397.3,20,406.1z"/>
</g>
<g class="st0">
	<path class="st1" d="M25.6,392.3c22.4,6.7,169.5,38.3,225.8,45.7c56.3,7.4,207.5-29,254.8-46.2c47.3-17.2,15.4-23-17-28.9
		c-31.4-5.7-233.7-6-233.7-6s-268.8,3.5-274.2,13.4C-24.1,380.2,3.2,385.6,25.6,392.3z"/>
</g>
<rect x="27.1" y="361.7" class="st2" width="500.7" height="9.3"/>
<g>
	<g>
		<g>
			<polygon class="st3" points="493,175 509.7,166 525.4,176.7 525.4,335.2 493,335.2 			"/>
			<polygon class="st4" points="509.1,166.4 509.7,166 510.4,166.3 510.4,335.2 509.1,335.2 			"/>
			<polygon class="st5" points="525.4,176.7 509.7,166 509.7,335.2 525.4,335.2 			"/>
			<polygon class="st6" points="491.2,179.4 509.8,169.9 527.2,181.4 527.2,357.7 491.2,357.7 			"/>
			<polygon class="st4" points="509.1,170.3 509.8,169.9 510.5,170.2 510.5,357.7 509.1,357.7 			"/>
			<polygon class="st7" points="527.2,181.4 509.8,169.9 509.8,357.7 527.2,357.7 			"/>
			<polygon class="st5" points="527.2,181.4 509.8,357.7 527.2,357.7 			"/>
			<rect x="493" y="357.7" class="st8" width="32.4" height="4"/>
			<polygon class="st2" points="507.2,200.9 493.7,207.1 493.7,338 507.2,336.7 			"/>
			<polygon class="st1" points="507.2,200.9 493.7,207.1 493.7,209.3 507.2,203.1 			"/>
			<polygon class="st4" points="507.2,336.7 493.7,338 493.7,339.9 507.2,338.6 			"/>
			<g class="st9">
				<g>
					<polygon class="st1" points="503.3,214.9 505.4,213.9 505.4,208 503.3,209 					"/>
					<polygon class="st1" points="499.3,216.7 501.5,215.7 501.5,209.9 499.3,210.8 					"/>
					<polygon class="st1" points="495.5,218.4 497.6,217.4 497.6,211.6 495.5,212.6 					"/>
				</g>
				<g>
					<polygon class="st1" points="503.3,226.6 505.4,225.7 505.4,219.8 503.3,220.7 					"/>
					<polygon class="st1" points="499.3,228.2 501.5,227.3 501.5,221.5 499.3,222.4 					"/>
					<polygon class="st1" points="495.5,229.8 497.6,229 497.6,223.2 495.5,224.1 					"/>
				</g>
				<g>
					<polygon class="st1" points="503.3,238.3 505.4,237.5 505.4,231.6 503.3,232.5 					"/>
					<polygon class="st1" points="499.3,239.8 501.5,239 501.5,233.2 499.3,234 					"/>
					<polygon class="st1" points="495.5,241.3 497.6,240.5 497.6,234.7 495.5,235.5 					"/>
				</g>
				<g>
					<polygon class="st1" points="503.3,250 505.4,249.2 505.4,243.3 503.3,244.1 					"/>
					<polygon class="st1" points="499.3,251.4 501.5,250.6 501.5,244.8 499.3,245.6 					"/>
					<polygon class="st1" points="495.5,252.7 497.6,252 497.6,246.2 495.5,247 					"/>
				</g>
				<g>
					<polygon class="st1" points="503.3,261.7 505.4,261 505.4,255.1 503.3,255.8 					"/>
					<polygon class="st1" points="499.4,263 501.5,262.3 501.5,256.4 499.4,257.2 					"/>
					<polygon class="st1" points="495.5,264.2 497.6,263.5 497.6,257.7 495.5,258.5 					"/>
				</g>
				<g>
					<polygon class="st1" points="503.3,273.4 505.4,272.7 505.4,266.9 503.3,267.5 					"/>
					<polygon class="st1" points="499.4,274.5 501.5,273.9 501.5,268.1 499.4,268.7 					"/>
					<polygon class="st1" points="495.5,275.6 497.6,275 497.6,269.3 495.5,269.9 					"/>
				</g>
				<g>
					<polygon class="st1" points="503.3,285.1 505.4,284.5 505.4,278.6 503.3,279.2 					"/>
					<polygon class="st1" points="499.4,286.1 501.5,285.5 501.5,279.7 499.4,280.3 					"/>
					<polygon class="st1" points="495.5,287.1 497.6,286.5 497.6,280.8 495.5,281.3 					"/>
				</g>
				<g>
					<polygon class="st1" points="503.3,296.7 505.4,296.2 505.4,290.3 503.3,290.9 					"/>
					<polygon class="st1" points="499.4,297.6 501.5,297.1 501.5,291.3 499.4,291.8 					"/>
					<polygon class="st1" points="495.5,298.5 497.6,298 497.6,292.3 495.5,292.8 					"/>
				</g>
				<g>
					<polygon class="st1" points="503.3,308.4 505.4,308 505.4,302.1 503.3,302.5 					"/>
					<polygon class="st1" points="499.4,309.2 501.5,308.8 501.5,302.9 499.4,303.4 					"/>
					<polygon class="st1" points="495.5,309.9 497.6,309.5 497.6,303.8 495.5,304.2 					"/>
				</g>
				<g>
					<polygon class="st1" points="503.3,320.1 505.4,319.7 505.4,313.8 503.3,314.2 					"/>
					<polygon class="st1" points="499.4,320.7 501.5,320.4 501.5,314.5 499.4,314.9 					"/>
					<polygon class="st1" points="495.5,321.4 497.6,321 497.6,315.2 495.5,315.6 					"/>
				</g>
				<g>
					<polygon class="st1" points="503.3,331.7 505.4,331.4 505.4,325.5 503.3,325.9 					"/>
					<polygon class="st1" points="499.4,332.2 501.5,332 501.5,326.1 499.4,326.5 					"/>
					<polygon class="st1" points="495.5,332.8 497.6,332.5 497.6,326.7 495.5,327.1 					"/>
				</g>
			</g>
			<polygon class="st10" points="491.2,179.4 509.8,169.9 491.2,357.7 			"/>
		</g>
		<g>
			<g>
				<polygon class="st3" points="398.5,205.3 418.9,195.7 435.8,207.2 435.8,334.1 398.5,334.1 				"/>
				<polygon class="st4" points="418.2,196.1 418.9,195.7 419.6,196 419.6,334.1 418.2,334.1 				"/>
				<polygon class="st5" points="435.8,207.2 418.9,195.7 418.9,334.1 435.8,334.1 				"/>
				<polygon class="st6" points="396.6,210.1 419,199.9 437.7,212.3 437.7,358.3 396.6,358.3 				"/>
				<polygon class="st4" points="418.2,200.3 419,199.9 419.8,200.2 419.8,358.3 418.2,358.3 				"/>
				<polygon class="st7" points="437.7,212.3 419,199.9 419,358.3 437.7,358.3 				"/>
				<polygon class="st5" points="437.7,212.3 419,358.3 437.7,358.3 				"/>
				<rect x="398.1" y="358.3" class="st8" width="37.7" height="3.4"/>
				<polygon class="st5" points="416.2,211.7 399.2,218.9 399.2,347.6 416.2,346.8 				"/>
				<polygon class="st2" points="402.5,270.4 399.2,271.8 399.2,296.7 402.5,296 				"/>
				<polygon class="st3" points="407.2,242.7 409.7,241.7 406.8,265.6 407.2,246.9 404.7,247.8 407.9,225.6 				"/>
			</g>
			<g>
				<polygon class="st3" points="426.1,184.4 442,175.9 456.9,186.1 456.9,336.5 426.1,336.5 				"/>
				<polygon class="st4" points="441.4,176.2 442,175.9 442.7,176.2 442.7,336.5 441.4,336.5 				"/>
				<polygon class="st5" points="456.9,186.1 442,175.9 442,336.5 456.9,336.5 				"/>
				<polygon class="st6" points="424.4,188.7 442.1,179.6 458.6,190.5 458.6,357.9 424.4,357.9 				"/>
				<polygon class="st4" points="441.4,179.9 442.1,179.6 442.8,179.9 442.8,357.9 441.4,357.9 				"/>
				<polygon class="st7" points="458.6,190.5 442.1,179.6 442.1,357.9 458.6,357.9 				"/>
				<polygon class="st5" points="458.6,190.5 442.1,357.9 458.6,357.9 				"/>
				<rect x="426.1" y="357.9" class="st8" width="30.8" height="3.8"/>
				<polygon class="st2" points="439.6,209.1 426.8,214.9 426.8,339.2 439.6,338 				"/>
				<polygon class="st1" points="439.6,209.1 426.8,214.9 426.8,217 439.6,211.1 				"/>
				<polygon class="st4" points="439.6,338 426.8,339.2 426.8,341 439.6,339.8 				"/>
				<g class="st9">
					<g>
						<polygon class="st1" points="435.9,222.3 437.9,221.4 437.9,215.8 435.9,216.8 						"/>
						<polygon class="st1" points="432.2,224 434.2,223.1 434.2,217.5 432.2,218.5 						"/>
						<polygon class="st1" points="428.5,225.6 430.5,224.7 430.5,219.2 428.5,220.1 						"/>
					</g>
					<g>
						<polygon class="st1" points="435.9,233.4 437.9,232.6 437.9,227 435.9,227.9 						"/>
						<polygon class="st1" points="432.2,235 434.2,234.1 434.2,228.6 432.2,229.5 						"/>
						<polygon class="st1" points="428.5,236.5 430.5,235.7 430.5,230.2 428.5,231 						"/>
					</g>
					<g>
						<polygon class="st1" points="435.9,244.6 437.9,243.8 437.9,238.2 435.9,239 						"/>
						<polygon class="st1" points="432.2,246 434.2,245.2 434.2,239.7 432.2,240.5 						"/>
						<polygon class="st1" points="428.5,247.4 430.5,246.6 430.5,241.1 428.5,241.9 						"/>
					</g>
					<g>
						<polygon class="st1" points="435.9,255.7 437.9,254.9 437.9,249.3 435.9,250.1 						"/>
						<polygon class="st1" points="432.2,257 434.2,256.2 434.2,250.7 432.2,251.5 						"/>
						<polygon class="st1" points="428.5,258.3 430.5,257.5 430.5,252.1 428.5,252.8 						"/>
					</g>
					<g>
						<polygon class="st1" points="435.9,266.8 437.9,266.1 437.9,260.5 435.9,261.2 						"/>
						<polygon class="st1" points="432.2,268 434.2,267.3 434.2,261.8 432.2,262.4 						"/>
						<polygon class="st1" points="428.5,269.1 430.5,268.5 430.5,263 428.5,263.7 						"/>
					</g>
					<g>
						<polygon class="st1" points="435.9,277.8 437.9,277.2 437.9,271.7 435.9,272.3 						"/>
						<polygon class="st1" points="432.2,278.9 434.2,278.3 434.2,272.8 432.2,273.4 						"/>
						<polygon class="st1" points="428.5,280 430.5,279.4 430.5,273.9 428.5,274.5 						"/>
					</g>
					<g>
						<polygon class="st1" points="435.9,288.9 437.9,288.4 437.9,282.8 435.9,283.4 						"/>
						<polygon class="st1" points="432.2,289.9 434.2,289.4 434.2,283.8 432.2,284.4 						"/>
						<polygon class="st1" points="428.5,290.8 430.5,290.3 430.5,284.9 428.5,285.4 						"/>
					</g>
					<g>
						<polygon class="st1" points="435.9,300 437.9,299.5 437.9,294 435.9,294.5 						"/>
						<polygon class="st1" points="432.2,300.9 434.2,300.4 434.2,294.9 432.2,295.4 						"/>
						<polygon class="st1" points="428.5,301.7 430.5,301.2 430.5,295.8 428.5,296.3 						"/>
					</g>
					<g>
						<polygon class="st1" points="435.9,311.1 437.9,310.7 437.9,305.1 435.9,305.5 						"/>
						<polygon class="st1" points="432.2,311.8 434.2,311.4 434.2,305.9 432.2,306.3 						"/>
						<polygon class="st1" points="428.5,312.6 430.5,312.2 430.5,306.7 428.5,307.1 						"/>
					</g>
					<g>
						<polygon class="st1" points="435.9,322.2 437.9,321.8 437.9,316.2 435.9,316.6 						"/>
						<polygon class="st1" points="432.2,322.8 434.2,322.4 434.2,316.9 432.2,317.3 						"/>
						<polygon class="st1" points="428.5,323.4 430.5,323.1 430.5,317.6 428.5,318 						"/>
					</g>
					<g>
						<polygon class="st1" points="435.9,333.2 437.9,332.9 437.9,327.4 435.9,327.7 						"/>
						<polygon class="st1" points="432.2,333.7 434.2,333.5 434.2,327.9 432.2,328.3 						"/>
						<polygon class="st1" points="428.5,334.2 430.5,334 430.5,328.5 428.5,328.8 						"/>
					</g>
				</g>
				<polygon class="st10" points="424.4,188.7 442.1,179.6 424.4,357.9 				"/>
			</g>
			<g>
				<polygon class="st3" points="447.4,173.1 464.4,164 480.2,174.9 480.2,334.9 447.4,334.9 				"/>
				<polygon class="st4" points="463.7,164.4 464.4,164 465,164.3 465,334.9 463.7,334.9 				"/>
				<polygon class="st5" points="480.2,174.9 464.4,164 464.4,334.9 480.2,334.9 				"/>
				<polygon class="st6" points="445.6,177.6 464.4,167.9 482,179.6 482,357.7 445.6,357.7 				"/>
				<polygon class="st4" points="463.7,168.3 464.4,167.9 465.2,168.3 465.2,357.7 463.7,357.7 				"/>
				<polygon class="st7" points="482,179.6 464.4,167.9 464.4,357.7 482,357.7 				"/>
				<polygon class="st5" points="482,179.6 464.4,357.7 482,357.7 				"/>
				<rect x="447.4" y="357.7" class="st8" width="32.8" height="4.1"/>
				<polygon class="st2" points="461.8,199.3 448.1,205.6 448.1,337.7 461.8,336.5 				"/>
				<polygon class="st1" points="461.8,199.3 448.1,205.6 448.1,207.7 461.8,201.5 				"/>
				<polygon class="st4" points="461.8,336.5 448.1,337.7 448.1,339.6 461.8,338.4 				"/>
				<g class="st9">
					<g>
						<polygon class="st1" points="457.8,213.4 460,212.4 460,206.5 457.8,207.5 						"/>
						<polygon class="st1" points="453.9,215.2 456,214.2 456,208.3 453.9,209.3 						"/>
						<polygon class="st1" points="450,216.9 452.1,216 452.1,210.1 450,211.1 						"/>
					</g>
					<g>
						<polygon class="st1" points="457.8,225.2 460,224.3 460,218.4 457.8,219.3 						"/>
						<polygon class="st1" points="453.9,226.9 456,226 456,220.1 453.9,221 						"/>
						<polygon class="st1" points="450,228.5 452.1,227.6 452.1,221.8 450,222.7 						"/>
					</g>
					<g>
						<polygon class="st1" points="457.8,237.1 460,236.2 460,230.3 457.8,231.1 						"/>
						<polygon class="st1" points="453.9,238.6 456,237.8 456,231.9 453.9,232.7 						"/>
						<polygon class="st1" points="450,240.1 452.1,239.3 452.1,233.4 450,234.3 						"/>
					</g>
					<g>
						<polygon class="st1" points="457.8,248.9 460,248.1 460,242.1 457.8,243 						"/>
						<polygon class="st1" points="453.9,250.3 456,249.5 456,243.6 453.9,244.4 						"/>
						<polygon class="st1" points="450,251.6 452.1,250.9 452.1,245.1 450,245.8 						"/>
					</g>
					<g>
						<polygon class="st1" points="457.8,260.7 460,260 460,254 457.8,254.8 						"/>
						<polygon class="st1" points="453.9,262 456,261.3 456,255.4 453.9,256.1 						"/>
						<polygon class="st1" points="450,263.2 452.1,262.5 452.1,256.7 450,257.4 						"/>
					</g>
					<g>
						<polygon class="st1" points="457.8,272.5 460,271.8 460,265.9 457.8,266.6 						"/>
						<polygon class="st1" points="453.9,273.6 456,273 456,267.1 453.9,267.8 						"/>
						<polygon class="st1" points="450,274.8 452.1,274.1 452.1,268.3 450,269 						"/>
					</g>
					<g>
						<polygon class="st1" points="457.8,284.3 460,283.7 460,277.8 457.8,278.4 						"/>
						<polygon class="st1" points="453.9,285.3 456,284.7 456,278.9 453.9,279.5 						"/>
						<polygon class="st1" points="450,286.3 452.1,285.8 452.1,279.9 450,280.5 						"/>
					</g>
					<g>
						<polygon class="st1" points="457.8,296.1 460,295.6 460,289.6 457.8,290.2 						"/>
						<polygon class="st1" points="453.9,297 456,296.5 456,290.6 453.9,291.1 						"/>
						<polygon class="st1" points="450,297.9 452.1,297.4 452.1,291.6 450,292.1 						"/>
					</g>
					<g>
						<polygon class="st1" points="457.8,307.9 460,307.4 460,301.5 457.8,302 						"/>
						<polygon class="st1" points="453.9,308.6 456,308.2 456,302.3 453.9,302.8 						"/>
						<polygon class="st1" points="450,309.4 452.1,309 452.1,303.2 450,303.6 						"/>
					</g>
					<g>
						<polygon class="st1" points="457.8,319.6 460,319.3 460,313.3 457.8,313.7 						"/>
						<polygon class="st1" points="453.9,320.3 456,319.9 456,314.1 453.9,314.5 						"/>
						<polygon class="st1" points="450,321 452.1,320.6 452.1,314.8 450,315.2 						"/>
					</g>
					<g>
						<polygon class="st1" points="457.8,331.4 460,331.1 460,325.2 457.8,325.5 						"/>
						<polygon class="st1" points="453.9,332 456,331.7 456,325.8 453.9,326.1 						"/>
						<polygon class="st1" points="450,332.5 452.1,332.2 452.1,326.4 450,326.7 						"/>
					</g>
				</g>
				<polygon class="st10" points="445.6,177.6 464.4,167.9 445.6,357.7 				"/>
			</g>
			<g>
				<polygon class="st3" points="470.5,160.8 488.5,151.2 505.4,162.8 505.4,333.2 470.5,333.2 				"/>
				<polygon class="st4" points="487.8,151.6 488.5,151.2 489.2,151.5 489.2,333.2 487.8,333.2 				"/>
				<polygon class="st5" points="505.4,162.8 488.5,151.2 488.5,333.2 505.4,333.2 				"/>
				<polygon class="st6" points="468.6,165.7 488.6,155.4 507.3,167.8 507.3,357.4 468.6,357.4 				"/>
				<polygon class="st4" points="487.8,155.8 488.6,155.4 489.4,155.7 489.4,357.4 487.8,357.4 				"/>
				<polygon class="st7" points="507.3,167.8 488.6,155.4 488.6,357.4 507.3,357.4 				"/>
				<polygon class="st5" points="507.3,167.8 488.6,357.4 507.3,357.4 				"/>
				<rect x="470.5" y="357.4" class="st8" width="34.9" height="4.3"/>
				<polygon class="st2" points="485.8,188.8 471.3,195.4 471.3,336.2 485.8,334.9 				"/>
				<polygon class="st1" points="485.8,188.8 471.3,195.4 471.3,197.8 485.8,191.1 				"/>
				<polygon class="st4" points="485.8,334.9 471.3,336.2 471.3,338.2 485.8,336.9 				"/>
				<g class="st9">
					<g>
						<polygon class="st1" points="481.6,203.8 483.9,202.8 483.9,196.4 481.6,197.5 						"/>
						<polygon class="st1" points="477.4,205.7 479.6,204.7 479.6,198.4 477.3,199.5 						"/>
						<polygon class="st1" points="473.2,207.5 475.5,206.5 475.5,200.3 473.2,201.3 						"/>
					</g>
					<g>
						<polygon class="st1" points="481.6,216.4 483.9,215.4 483.9,209.1 481.6,210.1 						"/>
						<polygon class="st1" points="477.4,218.2 479.7,217.2 479.6,210.9 477.4,211.9 						"/>
						<polygon class="st1" points="473.2,219.9 475.5,218.9 475.5,212.7 473.2,213.7 						"/>
					</g>
					<g>
						<polygon class="st1" points="481.6,229 483.9,228.1 483.9,221.7 481.6,222.7 						"/>
						<polygon class="st1" points="477.4,230.6 479.7,229.7 479.7,223.4 477.4,224.4 						"/>
						<polygon class="st1" points="473.2,232.2 475.5,231.3 475.5,225.1 473.2,226 						"/>
					</g>
					<g>
						<polygon class="st1" points="481.6,241.6 483.9,240.7 483.9,234.4 481.6,235.3 						"/>
						<polygon class="st1" points="477.4,243.1 479.7,242.2 479.7,236 477.4,236.8 						"/>
						<polygon class="st1" points="473.2,244.5 475.5,243.7 475.5,237.5 473.2,238.3 						"/>
					</g>
					<g>
						<polygon class="st1" points="481.6,254.1 483.9,253.4 483.9,247 481.6,247.8 						"/>
						<polygon class="st1" points="477.4,255.5 479.7,254.8 479.7,248.5 477.4,249.3 						"/>
						<polygon class="st1" points="473.2,256.8 475.5,256.1 475.5,249.9 473.2,250.7 						"/>
					</g>
					<g>
						<polygon class="st1" points="481.6,266.7 483.9,266 483.9,259.7 481.6,260.4 						"/>
						<polygon class="st1" points="477.4,267.9 479.7,267.3 479.7,261 477.4,261.7 						"/>
						<polygon class="st1" points="473.2,269.1 475.5,268.5 475.5,262.3 473.2,263 						"/>
					</g>
					<g>
						<polygon class="st1" points="481.6,279.3 483.9,278.7 483.9,272.3 481.6,273 						"/>
						<polygon class="st1" points="477.4,280.4 479.7,279.8 479.7,273.5 477.4,274.1 						"/>
						<polygon class="st1" points="473.2,281.4 475.5,280.9 475.5,274.7 473.2,275.3 						"/>
					</g>
					<g>
						<polygon class="st1" points="481.6,291.8 483.9,291.3 483.9,285 481.6,285.5 						"/>
						<polygon class="st1" points="477.4,292.8 479.7,292.3 479.7,286 477.4,286.6 						"/>
						<polygon class="st1" points="473.2,293.7 475.5,293.2 475.5,287 473.2,287.6 						"/>
					</g>
					<g>
						<polygon class="st1" points="481.6,304.4 483.9,303.9 483.9,297.6 481.6,298.1 						"/>
						<polygon class="st1" points="477.4,305.2 479.7,304.7 479.7,298.5 477.4,299 						"/>
						<polygon class="st1" points="473.2,306 475.5,305.6 475.5,299.4 473.2,299.9 						"/>
					</g>
					<g>
						<polygon class="st1" points="481.6,316.9 483.9,316.5 483.9,310.2 481.6,310.6 						"/>
						<polygon class="st1" points="477.4,317.6 479.7,317.2 479.7,311 477.4,311.4 						"/>
						<polygon class="st1" points="473.2,318.3 475.5,317.9 475.5,311.7 473.2,312.2 						"/>
					</g>
					<g>
						<polygon class="st1" points="481.6,329.4 483.9,329.1 483.9,322.8 481.6,323.2 						"/>
						<polygon class="st1" points="477.4,330 479.7,329.7 479.7,323.5 477.4,323.8 						"/>
						<polygon class="st1" points="473.2,330.6 475.5,330.3 475.5,324.1 473.2,324.4 						"/>
					</g>
				</g>
				<polygon class="st10" points="468.6,165.7 488.6,155.4 468.6,357.4 				"/>
			</g>
		</g>
	</g>
	<g>
		<g>
			<polygon class="st3" points="414.9,126.7 436,115.4 455.7,128.9 455.7,328.3 414.9,328.3 			"/>
			<polygon class="st4" points="435.1,115.9 436,115.4 436.8,115.8 436.8,328.3 435.1,328.3 			"/>
			<polygon class="st5" points="455.7,128.9 436,115.4 436,328.3 455.7,328.3 			"/>
			<polygon class="st6" points="412.6,132.3 436.1,120.3 457.9,134.8 457.9,356.7 412.6,356.7 			"/>
			<polygon class="st4" points="435.1,120.8 436.1,120.3 437,120.7 437,356.7 435.1,356.7 			"/>
			<polygon class="st7" points="457.9,134.8 436.1,120.3 436.1,356.7 457.9,356.7 			"/>
			<polygon class="st5" points="457.9,134.8 436.1,356.7 457.9,356.7 			"/>
			<rect x="414.9" y="356.7" class="st8" width="40.8" height="5"/>
			<polygon class="st2" points="432.8,159.4 415.8,167.2 415.8,331.8 432.8,330.3 			"/>
			<polygon class="st1" points="432.8,159.4 415.8,167.2 415.8,169.9 432.8,162.1 			"/>
			<polygon class="st4" points="432.8,330.3 415.8,331.8 415.8,334.2 432.8,332.7 			"/>
			<g class="st9">
				<g>
					<polygon class="st1" points="427.8,177 430.6,175.7 430.6,168.3 427.8,169.6 					"/>
					<polygon class="st1" points="422.9,179.2 425.6,178 425.6,170.6 422.9,171.9 					"/>
					<polygon class="st1" points="418.1,181.3 420.7,180.1 420.7,172.9 418.1,174.1 					"/>
				</g>
				<g>
					<polygon class="st1" points="427.8,191.7 430.6,190.6 430.6,183.1 427.8,184.3 					"/>
					<polygon class="st1" points="422.9,193.7 425.6,192.6 425.6,185.3 422.9,186.4 					"/>
					<polygon class="st1" points="418.1,195.7 420.7,194.7 420.7,187.4 418.1,188.5 					"/>
				</g>
				<g>
					<polygon class="st1" points="427.8,206.4 430.6,205.4 430.6,197.9 427.8,199 					"/>
					<polygon class="st1" points="422.9,208.3 425.6,207.3 425.6,199.9 422.9,201 					"/>
					<polygon class="st1" points="418.1,210.2 420.7,209.2 420.7,201.9 418.1,202.9 					"/>
				</g>
				<g>
					<polygon class="st1" points="427.8,221.1 430.6,220.2 430.6,212.8 427.8,213.8 					"/>
					<polygon class="st1" points="422.9,222.9 425.6,221.9 425.6,214.6 422.9,215.6 					"/>
					<polygon class="st1" points="418.1,224.6 420.7,223.6 420.7,216.4 418.1,217.4 					"/>
				</g>
				<g>
					<polygon class="st1" points="427.8,235.8 430.6,235 430.6,227.6 427.8,228.5 					"/>
					<polygon class="st1" points="422.9,237.4 425.6,236.6 425.6,229.2 422.9,230.1 					"/>
					<polygon class="st1" points="418.1,239 420.7,238.1 420.7,230.9 418.1,231.8 					"/>
				</g>
				<g>
					<polygon class="st1" points="427.8,250.6 430.6,249.8 430.6,242.3 427.8,243.2 					"/>
					<polygon class="st1" points="422.9,252 425.6,251.2 425.6,243.9 422.9,244.7 					"/>
					<polygon class="st1" points="418.1,253.4 420.7,252.6 420.7,245.4 418.1,246.2 					"/>
				</g>
				<g>
					<polygon class="st1" points="427.8,265.2 430.6,264.5 430.6,257.1 427.8,257.9 					"/>
					<polygon class="st1" points="422.9,266.5 425.6,265.8 425.6,258.5 422.9,259.2 					"/>
					<polygon class="st1" points="418.1,267.8 420.7,267.1 420.7,259.8 418.1,260.6 					"/>
				</g>
				<g>
					<polygon class="st1" points="427.8,279.9 430.6,279.3 430.6,271.9 427.8,272.6 					"/>
					<polygon class="st1" points="422.9,281.1 425.6,280.5 425.6,273.1 422.9,273.8 					"/>
					<polygon class="st1" points="418.1,282.2 420.7,281.6 420.7,274.3 418.1,275 					"/>
				</g>
				<g>
					<polygon class="st1" points="427.8,294.6 430.6,294.1 430.6,286.7 427.8,287.3 					"/>
					<polygon class="st1" points="422.9,295.6 425.6,295.1 425.6,287.7 422.9,288.3 					"/>
					<polygon class="st1" points="418.1,296.6 420.7,296 420.7,288.8 418.1,289.3 					"/>
				</g>
				<g>
					<polygon class="st1" points="427.8,309.3 430.6,308.8 430.6,301.4 427.8,301.9 					"/>
					<polygon class="st1" points="422.9,310.1 425.6,309.7 425.6,302.4 422.9,302.8 					"/>
					<polygon class="st1" points="418.1,310.9 420.7,310.5 420.7,303.2 418.1,303.7 					"/>
				</g>
				<g>
					<polygon class="st1" points="427.8,324 430.6,323.6 430.6,316.2 427.8,316.6 					"/>
					<polygon class="st1" points="422.9,324.6 425.6,324.3 425.6,317 422.9,317.4 					"/>
					<polygon class="st1" points="418.1,325.3 420.7,324.9 420.7,317.7 418.1,318.1 					"/>
				</g>
			</g>
			<polygon class="st10" points="412.6,132.3 436.1,120.3 412.6,356.7 			"/>
		</g>
		<g>
			<g>
				<polygon class="st3" points="296,164.9 321.7,152.8 342.9,167.3 342.9,327 296,327 				"/>
				<polygon class="st4" points="320.8,153.3 321.7,152.8 322.6,153.2 322.6,327 320.8,327 				"/>
				<polygon class="st5" points="342.9,167.3 321.7,152.8 321.7,327 342.9,327 				"/>
				<polygon class="st6" points="293.5,171 321.8,158 345.3,173.7 345.3,357.4 293.5,357.4 				"/>
				<polygon class="st4" points="320.8,158.6 321.8,158 322.8,158.5 322.8,357.4 320.8,357.4 				"/>
				<polygon class="st7" points="345.3,173.7 321.8,158 321.8,357.4 345.3,357.4 				"/>
				<polygon class="st5" points="345.3,173.7 321.8,357.4 345.3,357.4 				"/>
				<rect x="295.4" y="357.4" class="st8" width="47.4" height="4.3"/>
				<polygon class="st5" points="318.2,172.9 296.9,182 296.9,344 318.2,342.9 				"/>
				<polygon class="st2" points="301,246.8 296.9,248.5 296.9,279.8 301,279 				"/>
				<polygon class="st3" points="306.9,211.9 310,210.7 306.4,240.7 306.9,217.3 303.8,218.4 307.9,190.5 				"/>
			</g>
			<g>
				<polygon class="st3" points="330.7,138.6 350.8,127.9 369.5,140.7 369.5,330 330.7,330 				"/>
				<polygon class="st4" points="350,128.3 350.8,127.9 351.6,128.2 351.6,330 350,330 				"/>
				<polygon class="st5" points="369.5,140.7 350.8,127.9 350.8,330 369.5,330 				"/>
				<polygon class="st6" points="328.6,143.9 350.8,132.5 371.6,146.3 371.6,356.9 328.6,356.9 				"/>
				<polygon class="st4" points="350,133 350.8,132.5 351.7,132.9 351.7,356.9 350,356.9 				"/>
				<polygon class="st7" points="371.6,146.3 350.8,132.5 350.8,356.9 371.6,356.9 				"/>
				<polygon class="st5" points="371.6,146.3 350.8,356.9 371.6,356.9 				"/>
				<rect x="330.7" y="356.9" class="st8" width="38.7" height="4.8"/>
				<polygon class="st2" points="347.7,169.6 331.6,177 331.6,333.4 347.7,331.9 				"/>
				<polygon class="st1" points="347.7,169.6 331.6,177 331.6,179.6 347.7,172.2 				"/>
				<polygon class="st4" points="347.7,331.9 331.6,333.4 331.6,335.6 347.7,334.1 				"/>
				<g class="st9">
					<g>
						<polygon class="st1" points="343,186.3 345.6,185.2 345.6,178.1 343,179.3 						"/>
						<polygon class="st1" points="338.3,188.4 340.9,187.3 340.9,180.3 338.3,181.5 						"/>
						<polygon class="st1" points="333.8,190.4 336.3,189.3 336.3,182.4 333.8,183.6 						"/>
					</g>
					<g>
						<polygon class="st1" points="343,200.3 345.6,199.2 345.6,192.2 343,193.3 						"/>
						<polygon class="st1" points="338.3,202.2 340.9,201.2 340.9,194.2 338.3,195.3 						"/>
						<polygon class="st1" points="333.8,204.1 336.3,203.1 336.3,196.2 333.8,197.3 						"/>
					</g>
					<g>
						<polygon class="st1" points="343,214.3 345.6,213.3 345.6,206.2 343,207.3 						"/>
						<polygon class="st1" points="338.3,216.1 340.9,215.1 340.9,208.1 338.3,209.1 						"/>
						<polygon class="st1" points="333.8,217.8 336.3,216.9 336.3,210 333.8,211 						"/>
					</g>
					<g>
						<polygon class="st1" points="343,228.2 345.6,227.3 345.6,220.3 343,221.2 						"/>
						<polygon class="st1" points="338.3,229.9 340.9,229 340.9,222 338.3,223 						"/>
						<polygon class="st1" points="333.8,231.5 336.3,230.6 336.3,223.7 333.8,224.7 						"/>
					</g>
					<g>
						<polygon class="st1" points="343,242.2 345.6,241.4 345.6,234.3 343,235.2 						"/>
						<polygon class="st1" points="338.4,243.7 340.9,242.9 340.9,235.9 338.3,236.8 						"/>
						<polygon class="st1" points="333.8,245.2 336.3,244.4 336.3,237.5 333.8,238.3 						"/>
					</g>
					<g>
						<polygon class="st1" points="343,256.2 345.6,255.4 345.6,248.4 343,249.2 						"/>
						<polygon class="st1" points="338.4,257.5 340.9,256.8 340.9,249.8 338.4,250.6 						"/>
						<polygon class="st1" points="333.8,258.9 336.3,258.1 336.3,251.2 333.8,252 						"/>
					</g>
					<g>
						<polygon class="st1" points="343,270.1 345.6,269.5 345.6,262.4 343,263.1 						"/>
						<polygon class="st1" points="338.4,271.3 340.9,270.7 340.9,263.7 338.4,264.4 						"/>
						<polygon class="st1" points="333.8,272.5 336.3,271.9 336.3,265 333.8,265.7 						"/>
					</g>
					<g>
						<polygon class="st1" points="343,284.1 345.6,283.5 345.6,276.4 343,277.1 						"/>
						<polygon class="st1" points="338.4,285.1 340.9,284.6 340.9,277.6 338.4,278.2 						"/>
						<polygon class="st1" points="333.8,286.2 336.3,285.6 336.3,278.7 333.8,279.3 						"/>
					</g>
					<g>
						<polygon class="st1" points="343,298 345.6,297.5 345.6,290.5 343,291 						"/>
						<polygon class="st1" points="338.4,298.9 340.9,298.4 340.9,291.5 338.4,292 						"/>
						<polygon class="st1" points="333.8,299.9 336.3,299.4 336.3,292.5 333.8,293 						"/>
					</g>
					<g>
						<polygon class="st1" points="343,311.9 345.6,311.5 345.6,304.5 343,305 						"/>
						<polygon class="st1" points="338.4,312.7 340.9,312.3 340.9,305.4 338.4,305.8 						"/>
						<polygon class="st1" points="333.8,313.5 336.3,313.1 336.3,306.2 333.8,306.7 						"/>
					</g>
					<g>
						<polygon class="st1" points="343,325.9 345.6,325.5 345.6,318.5 343,318.9 						"/>
						<polygon class="st1" points="338.4,326.5 340.9,326.2 340.9,319.2 338.4,319.6 						"/>
						<polygon class="st1" points="333.8,327.1 336.3,326.8 336.3,319.9 333.8,320.3 						"/>
					</g>
				</g>
				<polygon class="st10" points="328.6,143.9 350.8,132.5 328.6,356.9 				"/>
			</g>
			<g>
				<polygon class="st3" points="357.6,124.3 378.9,112.9 398.8,126.6 398.8,328 357.6,328 				"/>
				<polygon class="st4" points="378,113.4 378.9,112.9 379.7,113.3 379.7,328 378,328 				"/>
				<polygon class="st5" points="398.8,126.6 378.9,112.9 378.9,328 398.8,328 				"/>
				<polygon class="st6" points="355.3,130 378.9,117.9 401,132.5 401,356.6 355.3,356.6 				"/>
				<polygon class="st4" points="378,118.4 378.9,117.9 379.9,118.3 379.9,356.6 378,356.6 				"/>
				<polygon class="st7" points="401,132.5 378.9,117.9 378.9,356.6 401,356.6 				"/>
				<polygon class="st5" points="401,132.5 378.9,356.6 401,356.6 				"/>
				<rect x="357.6" y="356.6" class="st8" width="41.2" height="5.1"/>
				<polygon class="st2" points="375.6,157.3 358.5,165.2 358.5,331.5 375.6,330 				"/>
				<polygon class="st1" points="375.6,157.3 358.5,165.2 358.5,168 375.6,160.1 				"/>
				<polygon class="st4" points="375.6,330 358.5,331.5 358.5,333.9 375.6,332.4 				"/>
				<g class="st9">
					<g>
						<polygon class="st1" points="370.6,175.1 373.4,173.9 373.4,166.4 370.6,167.6 						"/>
						<polygon class="st1" points="365.6,177.3 368.4,176.1 368.4,168.7 365.6,169.9 						"/>
						<polygon class="st1" points="360.8,179.5 363.4,178.3 363.4,171 360.8,172.2 						"/>
					</g>
					<g>
						<polygon class="st1" points="370.6,190 373.4,188.8 373.4,181.3 370.6,182.5 						"/>
						<polygon class="st1" points="365.6,192 368.4,190.9 368.4,183.5 365.6,184.7 						"/>
						<polygon class="st1" points="360.8,194.1 363.4,193 363.4,185.6 360.8,186.8 						"/>
					</g>
					<g>
						<polygon class="st1" points="370.6,204.9 373.4,203.8 373.4,196.3 370.6,197.4 						"/>
						<polygon class="st1" points="365.6,206.8 368.4,205.7 368.4,198.3 365.6,199.4 						"/>
						<polygon class="st1" points="360.8,208.6 363.4,207.6 363.4,200.3 360.8,201.3 						"/>
					</g>
					<g>
						<polygon class="st1" points="370.6,219.7 373.4,218.7 373.4,211.2 370.6,212.3 						"/>
						<polygon class="st1" points="365.6,221.5 368.4,220.5 368.4,213.1 365.6,214.1 						"/>
						<polygon class="st1" points="360.8,223.2 363.4,222.3 363.4,214.9 360.8,215.9 						"/>
					</g>
					<g>
						<polygon class="st1" points="370.6,234.6 373.4,233.7 373.4,226.2 370.6,227.1 						"/>
						<polygon class="st1" points="365.6,236.2 368.4,235.3 368.4,227.9 365.6,228.8 						"/>
						<polygon class="st1" points="360.8,237.7 363.4,236.9 363.4,229.6 360.8,230.5 						"/>
					</g>
					<g>
						<polygon class="st1" points="370.6,249.4 373.4,248.6 373.4,241.1 370.6,242 						"/>
						<polygon class="st1" points="365.7,250.9 368.4,250.1 368.4,242.7 365.7,243.5 						"/>
						<polygon class="st1" points="360.8,252.3 363.4,251.5 363.4,244.2 360.8,245 						"/>
					</g>
					<g>
						<polygon class="st1" points="370.6,264.3 373.4,263.6 373.4,256.1 370.6,256.8 						"/>
						<polygon class="st1" points="365.7,265.6 368.4,264.9 368.4,257.5 365.7,258.2 						"/>
						<polygon class="st1" points="360.8,266.8 363.4,266.1 363.4,258.8 360.8,259.5 						"/>
					</g>
					<g>
						<polygon class="st1" points="370.6,279.1 373.4,278.5 373.4,271 370.6,271.7 						"/>
						<polygon class="st1" points="365.7,280.3 368.4,279.6 368.4,272.2 365.7,272.9 						"/>
						<polygon class="st1" points="360.8,281.4 363.4,280.8 363.4,273.4 360.8,274.1 						"/>
					</g>
					<g>
						<polygon class="st1" points="370.6,293.9 373.4,293.4 373.4,285.9 370.6,286.5 						"/>
						<polygon class="st1" points="365.7,294.9 368.4,294.4 368.4,287 365.7,287.6 						"/>
						<polygon class="st1" points="360.8,295.9 363.4,295.4 363.4,288 360.8,288.6 						"/>
					</g>
					<g>
						<polygon class="st1" points="370.6,308.8 373.4,308.3 373.4,300.8 370.6,301.3 						"/>
						<polygon class="st1" points="365.7,309.6 368.4,309.1 368.4,301.7 365.7,302.2 						"/>
						<polygon class="st1" points="360.8,310.4 363.4,310 363.4,302.7 360.8,303.1 						"/>
					</g>
					<g>
						<polygon class="st1" points="370.6,323.6 373.4,323.2 373.4,315.7 370.6,316.2 						"/>
						<polygon class="st1" points="365.7,324.3 368.4,323.9 368.4,316.5 365.7,316.9 						"/>
						<polygon class="st1" points="360.8,324.9 363.4,324.6 363.4,317.3 360.8,317.7 						"/>
					</g>
				</g>
				<polygon class="st10" points="355.3,130 378.9,117.9 355.3,356.6 				"/>
			</g>
			<g>
				<polygon class="st3" points="386.6,108.9 409.3,96.8 430.5,111.4 430.5,325.8 386.6,325.8 				"/>
				<polygon class="st4" points="408.4,97.3 409.3,96.8 410.2,97.2 410.2,325.8 408.4,325.8 				"/>
				<polygon class="st5" points="430.5,111.4 409.3,96.8 409.3,325.8 430.5,325.8 				"/>
				<polygon class="st6" points="384.2,115 409.4,102.1 432.9,117.7 432.9,356.3 384.2,356.3 				"/>
				<polygon class="st4" points="408.4,102.6 409.4,102.1 410.4,102.5 410.4,356.3 408.4,356.3 				"/>
				<polygon class="st7" points="432.9,117.7 409.4,102.1 409.4,356.3 432.9,356.3 				"/>
				<polygon class="st5" points="432.9,117.7 409.4,356.3 432.9,356.3 				"/>
				<rect x="386.6" y="356.3" class="st8" width="43.9" height="5.4"/>
				<polygon class="st2" points="405.8,144.1 387.6,152.5 387.6,329.6 405.8,327.9 				"/>
				<polygon class="st1" points="405.8,144.1 387.6,152.5 387.6,155.4 405.8,147 				"/>
				<polygon class="st4" points="405.8,327.9 387.6,329.6 387.6,332.1 405.8,330.5 				"/>
				<g class="st9">
					<g>
						<polygon class="st1" points="400.5,163 403.5,161.7 403.5,153.7 400.5,155.1 						"/>
						<polygon class="st1" points="395.2,165.4 398.1,164.1 398.1,156.2 395.2,157.5 						"/>
						<polygon class="st1" points="390,167.7 392.9,166.4 392.9,158.6 390,159.9 						"/>
					</g>
					<g>
						<polygon class="st1" points="400.5,178.9 403.5,177.6 403.5,169.7 400.5,170.9 						"/>
						<polygon class="st1" points="395.2,181.1 398.1,179.9 398.1,172 395.2,173.2 						"/>
						<polygon class="st1" points="390,183.2 392.9,182 392.9,174.2 390,175.4 						"/>
					</g>
					<g>
						<polygon class="st1" points="400.5,194.7 403.5,193.6 403.5,185.6 400.5,186.8 						"/>
						<polygon class="st1" points="395.2,196.7 398.1,195.6 398.1,187.7 395.2,188.9 						"/>
						<polygon class="st1" points="390,198.7 392.9,197.6 392.9,189.8 390,190.9 						"/>
					</g>
					<g>
						<polygon class="st1" points="400.5,210.5 403.5,209.5 403.5,201.5 400.5,202.6 						"/>
						<polygon class="st1" points="395.2,212.4 398.1,211.4 398.1,203.5 395.2,204.5 						"/>
						<polygon class="st1" points="390,214.2 392.9,213.2 392.9,205.4 390,206.5 						"/>
					</g>
					<g>
						<polygon class="st1" points="400.5,226.3 403.5,225.4 403.5,217.4 400.5,218.4 						"/>
						<polygon class="st1" points="395.2,228 398.1,227.1 398.1,219.2 395.2,220.2 						"/>
						<polygon class="st1" points="390,229.7 392.9,228.8 392.9,221 390,222 						"/>
					</g>
					<g>
						<polygon class="st1" points="400.5,242.2 403.5,241.3 403.5,233.3 400.5,234.2 						"/>
						<polygon class="st1" points="395.2,243.7 398.1,242.9 398.1,235 395.2,235.9 						"/>
						<polygon class="st1" points="390,245.2 392.9,244.4 392.9,236.6 390,237.4 						"/>
					</g>
					<g>
						<polygon class="st1" points="400.5,258 403.5,257.2 403.5,249.2 400.5,250 						"/>
						<polygon class="st1" points="395.2,259.3 398.1,258.6 398.1,250.7 395.2,251.5 						"/>
						<polygon class="st1" points="390,260.7 392.9,260 392.9,252.2 390,252.9 						"/>
					</g>
					<g>
						<polygon class="st1" points="400.5,273.8 403.5,273.1 403.5,265.1 400.5,265.8 						"/>
						<polygon class="st1" points="395.2,275 398.1,274.3 398.1,266.4 395.2,267.1 						"/>
						<polygon class="st1" points="390,276.2 392.9,275.5 392.9,267.7 390,268.4 						"/>
					</g>
					<g>
						<polygon class="st1" points="400.5,289.6 403.5,289 403.5,281 400.5,281.6 						"/>
						<polygon class="st1" points="395.2,290.6 398.1,290 398.1,282.2 395.2,282.8 						"/>
						<polygon class="st1" points="390,291.6 392.9,291.1 392.9,283.3 390,283.9 						"/>
					</g>
					<g>
						<polygon class="st1" points="400.5,305.3 403.5,304.8 403.5,296.9 400.5,297.4 						"/>
						<polygon class="st1" points="395.2,306.2 398.1,305.7 398.1,297.9 395.2,298.4 						"/>
						<polygon class="st1" points="390.1,307.1 392.9,306.6 392.9,298.8 390,299.3 						"/>
					</g>
					<g>
						<polygon class="st1" points="400.5,321.1 403.5,320.7 403.5,312.8 400.5,313.2 						"/>
						<polygon class="st1" points="395.2,321.8 398.1,321.4 398.1,313.6 395.2,314 						"/>
						<polygon class="st1" points="390.1,322.5 392.9,322.2 392.9,314.4 390.1,314.8 						"/>
					</g>
				</g>
				<polygon class="st10" points="384.2,115 409.4,102.1 384.2,356.3 				"/>
			</g>
		</g>
	</g>
	<g>
		<g>
			<polygon class="st3" points="37.2,176.1 61.4,164.7 81.4,178.4 81.4,328.9 37.2,328.9 			"/>
			<polygon class="st4" points="60.6,165.2 61.4,164.7 62.3,165.1 62.3,328.9 60.6,328.9 			"/>
			<polygon class="st5" points="81.4,178.4 61.4,164.7 61.4,328.9 81.4,328.9 			"/>
			<polygon class="st6" points="34.9,181.9 61.5,169.7 83.7,184.4 83.7,357.7 34.9,357.7 			"/>
			<polygon class="st4" points="60.6,170.2 61.5,169.7 62.4,170.1 62.4,357.7 60.6,357.7 			"/>
			<polygon class="st7" points="83.7,184.4 61.5,169.7 61.5,357.7 83.7,357.7 			"/>
			<polygon class="st5" points="83.7,184.4 61.5,357.7 83.7,357.7 			"/>
			<rect x="36.7" y="357.7" class="st8" width="44.7" height="4"/>
			<polygon class="st5" points="58.2,183.7 38.1,192.3 38.1,345 58.2,344 			"/>
			<polygon class="st2" points="41.9,253.3 38.1,255 38.1,284.5 41.9,283.7 			"/>
			<polygon class="st3" points="47.5,220.5 50.4,219.3 47,247.6 47.5,225.5 44.6,226.6 48.4,200.2 			"/>
		</g>
		<g>
			<polygon class="st3" points="70,151.3 88.8,141.2 106.5,153.3 106.5,331.8 70,331.8 			"/>
			<polygon class="st4" points="88.1,141.6 88.8,141.2 89.6,141.6 89.6,331.8 88.1,331.8 			"/>
			<polygon class="st5" points="106.5,153.3 88.8,141.2 88.8,331.8 106.5,331.8 			"/>
			<polygon class="st6" points="67.9,156.4 88.9,145.6 108.5,158.6 108.5,357.2 67.9,357.2 			"/>
			<polygon class="st4" points="88.1,146 88.9,145.6 89.7,146 89.7,357.2 88.1,357.2 			"/>
			<polygon class="st7" points="108.5,158.6 88.9,145.6 88.9,357.2 108.5,357.2 			"/>
			<polygon class="st5" points="108.5,158.6 88.9,357.2 108.5,357.2 			"/>
			<rect x="70" y="357.2" class="st8" width="36.5" height="4.5"/>
			<polygon class="st2" points="86,180.6 70.8,187.6 70.8,335 86,333.6 			"/>
			<polygon class="st1" points="86,180.6 70.8,187.6 70.8,190 86,183 			"/>
			<polygon class="st4" points="86,333.6 70.8,335 70.8,337.1 86,335.7 			"/>
			<g class="st9">
				<g>
					<polygon class="st1" points="81.5,196.3 84,195.2 84,188.6 81.5,189.7 					"/>
					<polygon class="st1" points="77.1,198.3 79.5,197.2 79.5,190.6 77.1,191.7 					"/>
					<polygon class="st1" points="72.8,200.2 75.2,199.2 75.2,192.7 72.8,193.7 					"/>
				</g>
				<g>
					<polygon class="st1" points="81.5,209.5 84,208.5 84,201.9 81.5,202.9 					"/>
					<polygon class="st1" points="77.1,211.3 79.5,210.3 79.5,203.8 77.1,204.8 					"/>
					<polygon class="st1" points="72.8,213.1 75.2,212.2 75.2,205.6 72.8,206.7 					"/>
				</g>
				<g>
					<polygon class="st1" points="81.5,222.7 84,221.8 84,215.1 81.5,216.1 					"/>
					<polygon class="st1" points="77.1,224.4 79.5,223.5 79.5,216.9 77.1,217.8 					"/>
					<polygon class="st1" points="72.8,226 75.2,225.1 75.2,218.6 72.8,219.6 					"/>
				</g>
				<g>
					<polygon class="st1" points="81.5,235.9 84,235 84,228.4 81.5,229.3 					"/>
					<polygon class="st1" points="77.1,237.4 79.5,236.6 79.5,230 77.1,230.9 					"/>
					<polygon class="st1" points="72.8,239 75.2,238.1 75.2,231.6 72.8,232.5 					"/>
				</g>
				<g>
					<polygon class="st1" points="81.5,249 84,248.2 84,241.6 81.5,242.4 					"/>
					<polygon class="st1" points="77.1,250.5 79.5,249.7 79.5,243.1 77.1,243.9 					"/>
					<polygon class="st1" points="72.8,251.8 75.2,251.1 75.2,244.6 72.8,245.4 					"/>
				</g>
				<g>
					<polygon class="st1" points="81.5,262.2 84,261.5 84,254.9 81.5,255.6 					"/>
					<polygon class="st1" points="77.1,263.5 79.5,262.8 79.5,256.2 77.1,257 					"/>
					<polygon class="st1" points="72.8,264.7 75.2,264.1 75.2,257.6 72.8,258.3 					"/>
				</g>
				<g>
					<polygon class="st1" points="81.5,275.4 84,274.7 84,268.1 81.5,268.8 					"/>
					<polygon class="st1" points="77.1,276.5 79.5,275.9 79.5,269.3 77.1,270 					"/>
					<polygon class="st1" points="72.8,277.6 75.2,277 75.2,270.5 72.8,271.2 					"/>
				</g>
				<g>
					<polygon class="st1" points="81.5,288.5 84,287.9 84,281.3 81.5,281.9 					"/>
					<polygon class="st1" points="77.1,289.5 79.5,289 79.5,282.4 77.1,283 					"/>
					<polygon class="st1" points="72.8,290.5 75.2,290 75.2,283.5 72.8,284.1 					"/>
				</g>
				<g>
					<polygon class="st1" points="81.5,301.6 84,301.2 84,294.5 81.5,295.1 					"/>
					<polygon class="st1" points="77.1,302.5 79.5,302 79.5,295.5 77.1,296 					"/>
					<polygon class="st1" points="72.8,303.4 75.2,302.9 75.2,296.4 72.8,296.9 					"/>
				</g>
				<g>
					<polygon class="st1" points="81.5,314.8 84,314.4 84,307.8 81.5,308.2 					"/>
					<polygon class="st1" points="77.1,315.5 79.5,315.1 79.5,308.6 77.1,309 					"/>
					<polygon class="st1" points="72.8,316.3 75.2,315.9 75.2,309.4 72.8,309.8 					"/>
				</g>
				<g>
					<polygon class="st1" points="81.5,327.9 84,327.6 84,321 81.5,321.3 					"/>
					<polygon class="st1" points="77.1,328.5 79.5,328.2 79.5,321.6 77.1,322 					"/>
					<polygon class="st1" points="72.8,329.1 75.2,328.8 75.2,322.3 72.8,322.7 					"/>
				</g>
			</g>
			<polygon class="st10" points="67.9,156.4 88.9,145.6 67.9,357.2 			"/>
		</g>
		<g>
			<polygon class="st3" points="95.2,137.9 115.3,127.2 134.1,140 134.1,329.9 95.2,329.9 			"/>
			<polygon class="st4" points="114.5,127.6 115.3,127.2 116.1,127.5 116.1,329.9 114.5,329.9 			"/>
			<polygon class="st5" points="134.1,140 115.3,127.2 115.3,329.9 134.1,329.9 			"/>
			<polygon class="st6" points="93.1,143.2 115.4,131.8 136.2,145.6 136.2,356.9 93.1,356.9 			"/>
			<polygon class="st4" points="114.5,132.2 115.4,131.8 116.3,132.2 116.3,356.9 114.5,356.9 			"/>
			<polygon class="st7" points="136.2,145.6 115.4,131.8 115.4,356.9 136.2,356.9 			"/>
			<polygon class="st5" points="136.2,145.6 115.4,356.9 136.2,356.9 			"/>
			<rect x="95.2" y="356.9" class="st8" width="38.9" height="4.8"/>
			<polygon class="st2" points="112.3,169 96.1,176.4 96.1,333.3 112.3,331.8 			"/>
			<polygon class="st1" points="112.3,169 96.1,176.4 96.1,179 112.3,171.6 			"/>
			<polygon class="st4" points="112.3,331.8 96.1,333.3 96.1,335.5 112.3,334 			"/>
			<g class="st9">
				<g>
					<polygon class="st1" points="107.6,185.8 110.2,184.6 110.2,177.5 107.6,178.7 					"/>
					<polygon class="st1" points="102.9,187.8 105.4,186.7 105.4,179.7 102.9,180.9 					"/>
					<polygon class="st1" points="98.3,189.9 100.8,188.8 100.8,181.8 98.3,183 					"/>
				</g>
				<g>
					<polygon class="st1" points="107.6,199.8 110.2,198.7 110.2,191.6 107.6,192.8 					"/>
					<polygon class="st1" points="102.9,201.7 105.4,200.7 105.4,193.7 102.9,194.8 					"/>
					<polygon class="st1" points="98.3,203.6 100.8,202.6 100.8,195.7 98.3,196.7 					"/>
				</g>
				<g>
					<polygon class="st1" points="107.6,213.8 110.2,212.8 110.2,205.7 107.6,206.8 					"/>
					<polygon class="st1" points="102.9,215.6 105.4,214.6 105.4,207.6 102.9,208.7 					"/>
					<polygon class="st1" points="98.3,217.4 100.8,216.4 100.8,209.5 98.3,210.5 					"/>
				</g>
				<g>
					<polygon class="st1" points="107.6,227.8 110.2,226.9 110.2,219.8 107.6,220.8 					"/>
					<polygon class="st1" points="102.9,229.5 105.4,228.6 105.4,221.6 102.9,222.5 					"/>
					<polygon class="st1" points="98.3,231.1 100.8,230.2 100.8,223.3 98.3,224.2 					"/>
				</g>
				<g>
					<polygon class="st1" points="107.6,241.8 110.2,241 110.2,233.9 107.6,234.8 					"/>
					<polygon class="st1" points="102.9,243.3 105.4,242.5 105.4,235.5 102.9,236.4 					"/>
					<polygon class="st1" points="98.3,244.8 100.8,244 100.8,237.1 98.3,237.9 					"/>
				</g>
				<g>
					<polygon class="st1" points="107.6,255.8 110.2,255.1 110.2,248 107.6,248.8 					"/>
					<polygon class="st1" points="102.9,257.2 105.4,256.5 105.4,249.5 102.9,250.3 					"/>
					<polygon class="st1" points="98.3,258.5 100.8,257.8 100.8,250.9 98.3,251.7 					"/>
				</g>
				<g>
					<polygon class="st1" points="107.6,269.8 110.2,269.2 110.2,262.1 107.6,262.8 					"/>
					<polygon class="st1" points="102.9,271.1 105.4,270.4 105.4,263.4 102.9,264.1 					"/>
					<polygon class="st1" points="98.3,272.3 100.8,271.6 100.8,264.7 98.3,265.4 					"/>
				</g>
				<g>
					<polygon class="st1" points="107.6,283.8 110.2,283.2 110.2,276.2 107.6,276.8 					"/>
					<polygon class="st1" points="102.9,284.9 105.4,284.3 105.4,277.3 102.9,278 					"/>
					<polygon class="st1" points="98.3,286 100.8,285.4 100.8,278.5 98.3,279.1 					"/>
				</g>
				<g>
					<polygon class="st1" points="107.6,297.8 110.2,297.3 110.2,290.2 107.6,290.8 					"/>
					<polygon class="st1" points="102.9,298.7 105.4,298.2 105.4,291.3 102.9,291.8 					"/>
					<polygon class="st1" points="98.3,299.7 100.8,299.2 100.8,292.3 98.3,292.8 					"/>
				</g>
				<g>
					<polygon class="st1" points="107.6,311.8 110.2,311.3 110.2,304.3 107.6,304.8 					"/>
					<polygon class="st1" points="102.9,312.6 105.4,312.1 105.4,305.2 102.9,305.6 					"/>
					<polygon class="st1" points="98.3,313.3 100.8,312.9 100.8,306 98.3,306.5 					"/>
				</g>
				<g>
					<polygon class="st1" points="107.6,325.8 110.2,325.4 110.2,318.4 107.6,318.8 					"/>
					<polygon class="st1" points="102.9,326.4 105.4,326 105.4,319.1 102.9,319.5 					"/>
					<polygon class="st1" points="98.3,327 100.8,326.7 100.8,319.8 98.3,320.2 					"/>
				</g>
			</g>
			<polygon class="st10" points="93.1,143.2 115.4,131.8 93.1,356.9 			"/>
		</g>
		<g>
			<polygon class="st3" points="122.6,123.4 144,112 164,125.7 164,327.9 122.6,327.9 			"/>
			<polygon class="st4" points="143.2,112.4 144,112 144.9,112.3 144.9,327.9 143.2,327.9 			"/>
			<polygon class="st5" points="164,125.7 144,112 144,327.9 164,327.9 			"/>
			<polygon class="st6" points="120.3,129.1 144.1,116.9 166.3,131.6 166.3,356.6 120.3,356.6 			"/>
			<polygon class="st4" points="143.2,117.4 144.1,116.9 145,117.3 145,356.6 143.2,356.6 			"/>
			<polygon class="st7" points="166.3,131.6 144.1,116.9 144.1,356.6 166.3,356.6 			"/>
			<polygon class="st5" points="166.3,131.6 144.1,356.6 166.3,356.6 			"/>
			<rect x="122.6" y="356.6" class="st8" width="41.4" height="5.1"/>
			<polygon class="st2" points="140.8,156.5 123.5,164.4 123.5,331.4 140.8,329.8 			"/>
			<polygon class="st1" points="140.8,156.5 123.5,164.4 123.5,167.2 140.8,159.3 			"/>
			<polygon class="st4" points="140.8,329.8 123.5,331.4 123.5,333.8 140.8,332.2 			"/>
			<g class="st9">
				<g>
					<polygon class="st1" points="135.7,174.4 138.5,173.1 138.5,165.6 135.7,166.9 					"/>
					<polygon class="st1" points="130.7,176.6 133.5,175.4 133.5,167.9 130.7,169.2 					"/>
					<polygon class="st1" points="125.8,178.8 128.5,177.6 128.5,170.2 125.8,171.4 					"/>
				</g>
				<g>
					<polygon class="st1" points="135.7,189.3 138.5,188.2 138.5,180.6 135.7,181.8 					"/>
					<polygon class="st1" points="130.7,191.4 133.5,190.2 133.5,182.8 130.7,184 					"/>
					<polygon class="st1" points="125.8,193.4 128.5,192.3 128.5,184.9 125.8,186.1 					"/>
				</g>
				<g>
					<polygon class="st1" points="135.7,204.2 138.5,203.2 138.5,195.6 135.7,196.7 					"/>
					<polygon class="st1" points="130.7,206.1 133.5,205.1 133.5,197.7 130.7,198.7 					"/>
					<polygon class="st1" points="125.9,208 128.5,207 128.5,199.6 125.9,200.7 					"/>
				</g>
				<g>
					<polygon class="st1" points="135.7,219.2 138.5,218.2 138.5,210.7 135.7,211.7 					"/>
					<polygon class="st1" points="130.7,220.9 133.5,220 133.5,212.5 130.7,213.5 					"/>
					<polygon class="st1" points="125.9,222.6 128.5,221.7 128.5,214.3 125.9,215.3 					"/>
				</g>
				<g>
					<polygon class="st1" points="135.7,234.1 138.5,233.2 138.5,225.7 135.7,226.6 					"/>
					<polygon class="st1" points="130.8,235.7 133.5,234.8 133.5,227.4 130.7,228.3 					"/>
					<polygon class="st1" points="125.9,237.3 128.5,236.4 128.5,229 125.9,229.9 					"/>
				</g>
				<g>
					<polygon class="st1" points="135.7,249 138.5,248.2 138.5,240.7 135.7,241.5 					"/>
					<polygon class="st1" points="130.8,250.4 133.5,249.6 133.5,242.2 130.8,243 					"/>
					<polygon class="st1" points="125.9,251.9 128.5,251.1 128.5,243.7 125.9,244.5 					"/>
				</g>
				<g>
					<polygon class="st1" points="135.7,263.9 138.5,263.2 138.5,255.7 135.7,256.4 					"/>
					<polygon class="st1" points="130.8,265.2 133.5,264.5 133.5,257 130.8,257.8 					"/>
					<polygon class="st1" points="125.9,266.5 128.5,265.8 128.5,258.4 125.9,259.1 					"/>
				</g>
				<g>
					<polygon class="st1" points="135.7,278.8 138.5,278.1 138.5,270.6 135.7,271.3 					"/>
					<polygon class="st1" points="130.8,279.9 133.5,279.3 133.5,271.9 130.8,272.5 					"/>
					<polygon class="st1" points="125.9,281.1 128.5,280.4 128.5,273.1 125.9,273.7 					"/>
				</g>
				<g>
					<polygon class="st1" points="135.7,293.7 138.5,293.1 138.5,285.6 135.7,286.2 					"/>
					<polygon class="st1" points="130.8,294.7 133.5,294.1 133.5,286.7 130.8,287.3 					"/>
					<polygon class="st1" points="125.9,295.6 128.5,295.1 128.5,287.8 125.9,288.3 					"/>
				</g>
				<g>
					<polygon class="st1" points="135.7,308.6 138.5,308.1 138.5,300.6 135.7,301.1 					"/>
					<polygon class="st1" points="130.8,309.4 133.5,308.9 133.5,301.5 130.8,302 					"/>
					<polygon class="st1" points="125.9,310.2 128.5,309.8 128.5,302.4 125.9,302.9 					"/>
				</g>
				<g>
					<polygon class="st1" points="135.7,323.4 138.5,323 138.5,315.5 135.7,316 					"/>
					<polygon class="st1" points="130.8,324.1 133.5,323.7 133.5,316.3 130.8,316.7 					"/>
					<polygon class="st1" points="125.9,324.8 128.5,324.4 128.5,317.1 125.9,317.5 					"/>
				</g>
			</g>
			<polygon class="st10" points="120.3,129.1 144.1,116.9 120.3,356.6 			"/>
		</g>
	</g>
	<g>
		<polygon class="st3" points="313.7,64 340.5,49.8 365.4,66.9 365.4,319.4 313.7,319.4 		"/>
		<polygon class="st4" points="339.4,50.3 340.5,49.8 341.5,50.2 341.5,319.4 339.4,319.4 		"/>
		<polygon class="st5" points="365.4,66.9 340.5,49.8 340.5,319.4 365.4,319.4 		"/>
		<polygon class="st6" points="310.9,71.2 340.6,55.9 368.3,74.3 368.3,355.3 310.9,355.3 		"/>
		<polygon class="st4" points="339.4,56.5 340.6,55.9 341.7,56.4 341.7,355.3 339.4,355.3 		"/>
		<polygon class="st7" points="368.3,74.3 340.6,55.9 340.6,355.3 368.3,355.3 		"/>
		<polygon class="st5" points="368.3,74.3 340.6,355.3 368.3,355.3 		"/>
		<rect x="313.7" y="355.3" class="st8" width="51.7" height="6.4"/>
		<polygon class="st2" points="336.4,105.4 314.9,115.3 314.9,323.9 336.4,321.9 		"/>
		<polygon class="st1" points="336.4,105.4 314.9,115.3 314.9,118.7 336.4,108.9 		"/>
		<polygon class="st4" points="336.4,321.9 314.9,323.9 314.9,326.9 336.4,324.9 		"/>
		<g class="st9">
			<g>
				<polygon class="st1" points="330.1,127.7 333.6,126.2 333.6,116.7 330.1,118.3 				"/>
				<polygon class="st1" points="323.9,130.5 327.3,129 327.3,119.7 323.9,121.2 				"/>
				<polygon class="st1" points="317.8,133.2 321.1,131.7 321.1,122.5 317.8,124 				"/>
			</g>
			<g>
				<polygon class="st1" points="330.1,146.4 333.6,144.9 333.6,135.5 330.1,137 				"/>
				<polygon class="st1" points="323.9,148.9 327.3,147.5 327.3,138.2 323.9,139.7 				"/>
				<polygon class="st1" points="317.8,151.5 321.1,150.1 321.1,140.9 317.8,142.3 				"/>
			</g>
			<g>
				<polygon class="st1" points="330.1,165 333.6,163.7 333.6,154.3 330.1,155.7 				"/>
				<polygon class="st1" points="323.9,167.4 327.3,166.1 327.3,156.8 323.9,158.2 				"/>
				<polygon class="st1" points="317.8,169.7 321.1,168.5 321.1,159.3 317.8,160.6 				"/>
			</g>
			<g>
				<polygon class="st1" points="330.1,183.7 333.6,182.4 333.6,173 330.1,174.3 				"/>
				<polygon class="st1" points="323.9,185.9 327.3,184.7 327.3,175.4 323.9,176.6 				"/>
				<polygon class="st1" points="317.8,188 321.1,186.8 321.1,177.6 317.8,178.9 				"/>
			</g>
			<g>
				<polygon class="st1" points="330.1,202.3 333.6,201.2 333.6,191.8 330.1,192.9 				"/>
				<polygon class="st1" points="323.9,204.3 327.3,203.2 327.3,193.9 323.9,195.1 				"/>
				<polygon class="st1" points="317.8,206.3 321.1,205.2 321.1,196 317.8,197.1 				"/>
			</g>
			<g>
				<polygon class="st1" points="330.1,220.9 333.6,219.9 333.6,210.5 330.1,211.6 				"/>
				<polygon class="st1" points="323.9,222.7 327.3,221.7 327.3,212.4 323.9,213.5 				"/>
				<polygon class="st1" points="317.8,224.5 321.1,223.5 321.1,214.3 317.8,215.4 				"/>
			</g>
			<g>
				<polygon class="st1" points="330.1,239.5 333.6,238.6 333.6,229.2 330.1,230.2 				"/>
				<polygon class="st1" points="323.9,241.1 327.3,240.3 327.3,231 323.9,231.9 				"/>
				<polygon class="st1" points="317.8,242.7 321.1,241.9 321.1,232.7 317.8,233.6 				"/>
			</g>
			<g>
				<polygon class="st1" points="330.1,258.1 333.6,257.3 333.6,248 330.1,248.8 				"/>
				<polygon class="st1" points="323.9,259.6 327.3,258.8 327.3,249.5 323.9,250.3 				"/>
				<polygon class="st1" points="317.8,261 321.1,260.2 321.1,251 317.8,251.8 				"/>
			</g>
			<g>
				<polygon class="st1" points="330.1,276.7 333.6,276 333.6,266.7 330.1,267.4 				"/>
				<polygon class="st1" points="323.9,278 327.3,277.3 327.3,268 323.9,268.7 				"/>
				<polygon class="st1" points="317.8,279.2 321.1,278.5 321.1,269.3 317.8,270 				"/>
			</g>
			<g>
				<polygon class="st1" points="330.1,295.3 333.6,294.7 333.6,285.4 330.1,286 				"/>
				<polygon class="st1" points="323.9,296.4 327.3,295.8 327.3,286.5 323.9,287.1 				"/>
				<polygon class="st1" points="317.8,297.4 321.1,296.8 321.1,287.7 317.8,288.3 				"/>
			</g>
			<g>
				<polygon class="st1" points="330.1,313.9 333.6,313.4 333.6,304.1 330.1,304.6 				"/>
				<polygon class="st1" points="323.9,314.7 327.3,314.3 327.3,305 323.9,305.5 				"/>
				<polygon class="st1" points="317.8,315.6 321.1,315.1 321.1,306 317.8,306.5 				"/>
			</g>
		</g>
		<polygon class="st10" points="310.9,71.2 340.6,55.9 310.9,355.3 		"/>
	</g>
	<g>
		<g>
			<polygon class="st3" points="163.1,112.4 195.7,97.1 222.5,115.5 222.5,317.7 163.1,317.7 			"/>
			<polygon class="st4" points="194.6,97.7 195.7,97.1 196.8,97.6 196.8,317.7 194.6,317.7 			"/>
			<polygon class="st5" points="222.5,115.5 195.7,97.1 195.7,317.7 222.5,317.7 			"/>
			<polygon class="st6" points="160,120.1 195.8,103.7 225.6,123.5 225.6,356.3 160,356.3 			"/>
			<polygon class="st4" points="194.5,104.4 195.8,103.7 197.1,104.3 197.1,356.3 194.5,356.3 			"/>
			<polygon class="st7" points="225.6,123.5 195.8,103.7 195.8,356.3 225.6,356.3 			"/>
			<polygon class="st5" points="225.6,123.5 195.8,356.3 225.6,356.3 			"/>
			<rect x="162.4" y="356.3" class="st8" width="60.1" height="5.4"/>
			<polygon class="st5" points="191.3,122.6 164.3,134.1 164.3,339.2 191.3,337.9 			"/>
			<polygon class="st2" points="169.5,216.1 164.3,218.4 164.3,258 169.5,256.9 			"/>
			<polygon class="st3" points="177,172 180.9,170.4 176.3,208.5 177,178.7 173,180.1 178.2,144.8 			"/>
		</g>
		<g>
			<polygon class="st3" points="207.2,79.1 232.5,65.5 256.2,81.8 256.2,321.6 207.2,321.6 			"/>
			<polygon class="st4" points="231.5,66 232.5,65.5 233.5,66 233.5,321.6 231.5,321.6 			"/>
			<polygon class="st5" points="256.2,81.8 232.5,65.5 232.5,321.6 256.2,321.6 			"/>
			<polygon class="st6" points="204.5,85.9 232.6,71.4 258.9,88.9 258.9,355.6 204.5,355.6 			"/>
			<polygon class="st4" points="231.5,72 232.6,71.4 233.7,71.9 233.7,355.6 231.5,355.6 			"/>
			<polygon class="st7" points="258.9,88.9 232.6,71.4 232.6,355.6 258.9,355.6 			"/>
			<polygon class="st5" points="258.9,88.9 232.6,355.6 258.9,355.6 			"/>
			<rect x="207.2" y="355.6" class="st8" width="49.1" height="6.1"/>
			<polygon class="st2" points="228.7,118.4 208.2,127.8 208.2,325.8 228.7,323.9 			"/>
			<polygon class="st1" points="228.7,118.4 208.2,127.8 208.2,131 228.7,121.7 			"/>
			<polygon class="st4" points="228.7,323.9 208.2,325.8 208.2,328.6 228.7,326.8 			"/>
			<g class="st9">
				<g>
					<polygon class="st1" points="222.7,139.5 226,138.1 226,129.1 222.7,130.7 					"/>
					<polygon class="st1" points="216.8,142.2 220,140.7 220,131.9 216.8,133.4 					"/>
					<polygon class="st1" points="211,144.8 214.1,143.3 214.1,134.6 211,136.1 					"/>
				</g>
				<g>
					<polygon class="st1" points="222.7,157.3 226,155.9 226,147 222.7,148.4 					"/>
					<polygon class="st1" points="216.8,159.7 220,158.4 220,149.5 216.8,150.9 					"/>
					<polygon class="st1" points="211,162.1 214.2,160.8 214.1,152.1 211,153.4 					"/>
				</g>
				<g>
					<polygon class="st1" points="222.7,175 226,173.7 226,164.8 222.7,166.1 					"/>
					<polygon class="st1" points="216.8,177.2 220,176 220,167.2 216.8,168.4 					"/>
					<polygon class="st1" points="211,179.5 214.2,178.2 214.2,169.5 211,170.8 					"/>
				</g>
				<g>
					<polygon class="st1" points="222.7,192.7 226,191.5 226,182.6 222.7,183.8 					"/>
					<polygon class="st1" points="216.8,194.7 220,193.6 220,184.8 216.8,186 					"/>
					<polygon class="st1" points="211,196.8 214.2,195.7 214.2,186.9 211,188.1 					"/>
				</g>
				<g>
					<polygon class="st1" points="222.7,210.3 226,209.3 226,200.4 222.7,201.5 					"/>
					<polygon class="st1" points="216.8,212.3 220,211.2 220,202.4 216.8,203.5 					"/>
					<polygon class="st1" points="211,214.1 214.2,213.1 214.2,204.4 211,205.4 					"/>
				</g>
				<g>
					<polygon class="st1" points="222.7,228 226,227.1 226,218.2 222.7,219.2 					"/>
					<polygon class="st1" points="216.8,229.7 220,228.8 220,220 216.8,221 					"/>
					<polygon class="st1" points="211,231.4 214.2,230.5 214.2,221.8 211,222.8 					"/>
				</g>
				<g>
					<polygon class="st1" points="222.7,245.7 226,244.8 226,235.9 222.7,236.8 					"/>
					<polygon class="st1" points="216.8,247.2 220,246.4 220,237.6 216.8,238.5 					"/>
					<polygon class="st1" points="211,248.8 214.2,247.9 214.2,239.2 211,240.1 					"/>
				</g>
				<g>
					<polygon class="st1" points="222.7,263.4 226,262.6 226,253.7 222.7,254.5 					"/>
					<polygon class="st1" points="216.8,264.7 220,264 220,255.2 216.8,256 					"/>
					<polygon class="st1" points="211,266.1 214.2,265.3 214.2,256.6 211,257.4 					"/>
				</g>
				<g>
					<polygon class="st1" points="222.7,281 226,280.4 226,271.5 222.7,272.2 					"/>
					<polygon class="st1" points="216.8,282.2 220,281.6 220,272.8 216.8,273.4 					"/>
					<polygon class="st1" points="211,283.4 214.2,282.7 214.2,274 211,274.7 					"/>
				</g>
				<g>
					<polygon class="st1" points="222.7,298.7 226,298.1 226,289.2 222.7,289.8 					"/>
					<polygon class="st1" points="216.8,299.7 220,299.1 220,290.3 216.8,290.9 					"/>
					<polygon class="st1" points="211,300.6 214.2,300.1 214.2,291.4 211,292 					"/>
				</g>
				<g>
					<polygon class="st1" points="222.7,316.3 226,315.9 226,307 222.7,307.5 					"/>
					<polygon class="st1" points="216.8,317.1 220,316.7 220,307.9 216.8,308.4 					"/>
					<polygon class="st1" points="211,317.9 214.2,317.5 214.2,308.8 211,309.3 					"/>
				</g>
			</g>
			<polygon class="st10" points="204.5,85.9 232.6,71.4 204.5,355.6 			"/>
		</g>
		<g>
			<polygon class="st3" points="241.1,61 268.1,46.6 293.3,63.9 293.3,319 241.1,319 			"/>
			<polygon class="st4" points="267,47.1 268.1,46.6 269.2,47.1 269.2,319 267,319 			"/>
			<polygon class="st5" points="293.3,63.9 268.1,46.6 268.1,319 293.3,319 			"/>
			<polygon class="st6" points="238.2,68.2 268.2,52.8 296.2,71.4 296.2,355.3 238.2,355.3 			"/>
			<polygon class="st4" points="267,53.4 268.2,52.8 269.4,53.3 269.4,355.3 267,355.3 			"/>
			<polygon class="st7" points="296.2,71.4 268.2,52.8 268.2,355.3 296.2,355.3 			"/>
			<polygon class="st5" points="296.2,71.4 268.2,355.3 296.2,355.3 			"/>
			<rect x="241.1" y="355.3" class="st8" width="52.2" height="6.5"/>
			<polygon class="st2" points="264,102.8 242.3,112.8 242.3,323.5 264,321.5 			"/>
			<polygon class="st1" points="264,102.8 242.3,112.8 242.3,116.3 264,106.3 			"/>
			<polygon class="st4" points="264,321.5 242.3,323.5 242.3,326.5 264,324.5 			"/>
			<g class="st9">
				<g>
					<polygon class="st1" points="257.7,125.3 261.2,123.8 261.2,114.3 257.7,115.9 					"/>
					<polygon class="st1" points="251.4,128.1 254.8,126.6 254.8,117.2 251.4,118.8 					"/>
					<polygon class="st1" points="245.2,130.9 248.6,129.4 248.6,120.1 245.2,121.6 					"/>
				</g>
				<g>
					<polygon class="st1" points="257.7,144.2 261.2,142.7 261.2,133.2 257.7,134.7 					"/>
					<polygon class="st1" points="251.4,146.8 254.8,145.4 254.8,136 251.4,137.4 					"/>
					<polygon class="st1" points="245.2,149.4 248.6,148 248.6,138.7 245.2,140.1 					"/>
				</g>
				<g>
					<polygon class="st1" points="257.7,163 261.2,161.7 261.2,152.2 257.7,153.6 					"/>
					<polygon class="st1" points="251.4,165.4 254.8,164.1 254.8,154.7 251.4,156.1 					"/>
					<polygon class="st1" points="245.2,167.8 248.6,166.5 248.6,157.2 245.2,158.6 					"/>
				</g>
				<g>
					<polygon class="st1" points="257.7,181.8 261.2,180.6 261.2,171.1 257.7,172.4 					"/>
					<polygon class="st1" points="251.4,184.1 254.8,182.9 254.8,173.5 251.4,174.7 					"/>
					<polygon class="st1" points="245.2,186.2 248.6,185.1 248.6,175.8 245.2,177 					"/>
				</g>
				<g>
					<polygon class="st1" points="257.7,200.7 261.2,199.5 261.2,190.1 257.7,191.2 					"/>
					<polygon class="st1" points="251.4,202.7 254.8,201.6 254.8,192.2 251.4,193.4 					"/>
					<polygon class="st1" points="245.2,204.7 248.6,203.6 248.6,194.3 245.2,195.4 					"/>
				</g>
				<g>
					<polygon class="st1" points="257.7,219.5 261.2,218.5 261.2,209 257.7,210.1 					"/>
					<polygon class="st1" points="251.4,221.3 254.8,220.3 254.8,210.9 251.4,212 					"/>
					<polygon class="st1" points="245.2,223.1 248.6,222.1 248.6,212.8 245.2,213.9 					"/>
				</g>
				<g>
					<polygon class="st1" points="257.7,238.3 261.2,237.4 261.2,227.9 257.7,228.9 					"/>
					<polygon class="st1" points="251.4,239.9 254.8,239 254.8,229.7 251.4,230.6 					"/>
					<polygon class="st1" points="245.2,241.5 248.6,240.7 248.6,231.4 245.2,232.3 					"/>
				</g>
				<g>
					<polygon class="st1" points="257.7,257.1 261.2,256.3 261.2,246.8 257.7,247.7 					"/>
					<polygon class="st1" points="251.4,258.5 254.8,257.7 254.8,248.4 251.4,249.2 					"/>
					<polygon class="st1" points="245.2,259.9 248.6,259.2 248.6,249.9 245.2,250.7 					"/>
				</g>
				<g>
					<polygon class="st1" points="257.7,275.9 261.2,275.2 261.2,265.7 257.7,266.5 					"/>
					<polygon class="st1" points="251.4,277.1 254.8,276.4 254.8,267.1 251.4,267.8 					"/>
					<polygon class="st1" points="245.2,278.3 248.6,277.7 248.6,268.4 245.2,269.1 					"/>
				</g>
				<g>
					<polygon class="st1" points="257.7,294.6 261.2,294.1 261.2,284.6 257.7,285.2 					"/>
					<polygon class="st1" points="251.4,295.7 254.8,295.1 254.8,285.8 251.4,286.4 					"/>
					<polygon class="st1" points="245.2,296.7 248.6,296.2 248.6,286.9 245.2,287.5 					"/>
				</g>
				<g>
					<polygon class="st1" points="257.7,313.4 261.2,312.9 261.2,303.5 257.7,304 					"/>
					<polygon class="st1" points="251.4,314.3 254.8,313.8 254.8,304.4 251.4,305 					"/>
					<polygon class="st1" points="245.2,315.1 248.6,314.7 248.6,305.4 245.2,305.9 					"/>
				</g>
			</g>
			<polygon class="st10" points="238.2,68.2 268.2,52.8 238.2,355.3 			"/>
		</g>
		<g>
			<polygon class="st3" points="277.9,41.5 306.7,26.2 333.5,44.6 333.5,316.2 277.9,316.2 			"/>
			<polygon class="st4" points="305.5,26.8 306.7,26.2 307.8,26.7 307.8,316.2 305.5,316.2 			"/>
			<polygon class="st5" points="333.5,44.6 306.7,26.2 306.7,316.2 333.5,316.2 			"/>
			<polygon class="st6" points="274.9,49.2 306.8,32.8 336.6,52.6 336.6,354.8 274.9,354.8 			"/>
			<polygon class="st4" points="305.5,33.5 306.8,32.8 308,33.4 308,354.8 305.5,354.8 			"/>
			<polygon class="st7" points="336.6,52.6 306.8,32.8 306.8,354.8 336.6,354.8 			"/>
			<polygon class="st5" points="336.6,52.6 306.8,354.8 336.6,354.8 			"/>
			<rect x="277.9" y="354.8" class="st8" width="55.6" height="6.9"/>
			<polygon class="st2" points="302.3,86.1 279.1,96.7 279.1,321 302.3,318.9 			"/>
			<polygon class="st1" points="302.3,86.1 279.1,96.7 279.1,100.4 302.3,89.8 			"/>
			<polygon class="st4" points="302.3,318.9 279.1,321 279.1,324.3 302.3,322.1 			"/>
			<g class="st9">
				<g>
					<polygon class="st1" points="295.5,110 299.3,108.4 299.3,98.2 295.5,100 					"/>
					<polygon class="st1" points="288.8,113 292.5,111.4 292.5,101.4 288.8,103.1 					"/>
					<polygon class="st1" points="282.2,115.9 285.8,114.3 285.8,104.4 282.2,106.1 					"/>
				</g>
				<g>
					<polygon class="st1" points="295.5,130.1 299.3,128.5 299.3,118.4 295.5,120 					"/>
					<polygon class="st1" points="288.8,132.9 292.5,131.4 292.5,121.4 288.8,122.9 					"/>
					<polygon class="st1" points="282.3,135.6 285.8,134.1 285.8,124.2 282.2,125.8 					"/>
				</g>
				<g>
					<polygon class="st1" points="295.5,150.2 299.3,148.7 299.3,138.6 295.5,140.1 					"/>
					<polygon class="st1" points="288.8,152.7 292.5,151.3 292.5,141.3 288.8,142.8 					"/>
					<polygon class="st1" points="282.3,155.2 285.8,153.9 285.8,144 282.3,145.4 					"/>
				</g>
				<g>
					<polygon class="st1" points="295.5,170.2 299.3,168.9 299.3,158.8 295.5,160.2 					"/>
					<polygon class="st1" points="288.8,172.6 292.5,171.3 292.5,161.3 288.8,162.6 					"/>
					<polygon class="st1" points="282.3,174.9 285.8,173.6 285.8,163.7 282.3,165 					"/>
				</g>
				<g>
					<polygon class="st1" points="295.5,190.2 299.3,189 299.3,178.9 295.5,180.2 					"/>
					<polygon class="st1" points="288.8,192.4 292.5,191.2 292.5,181.2 288.8,182.5 					"/>
					<polygon class="st1" points="282.3,194.5 285.8,193.4 285.8,183.5 282.3,184.7 					"/>
				</g>
				<g>
					<polygon class="st1" points="295.5,210.3 299.3,209.2 299.3,199.1 295.5,200.2 					"/>
					<polygon class="st1" points="288.8,212.2 292.5,211.2 292.5,201.2 288.8,202.3 					"/>
					<polygon class="st1" points="282.3,214.1 285.9,213.1 285.8,203.2 282.3,204.3 					"/>
				</g>
				<g>
					<polygon class="st1" points="295.5,230.3 299.3,229.3 299.3,219.2 295.5,220.3 					"/>
					<polygon class="st1" points="288.8,232 292.5,231.1 292.5,221.1 288.8,222.1 					"/>
					<polygon class="st1" points="282.3,233.8 285.9,232.8 285.9,222.9 282.3,223.9 					"/>
				</g>
				<g>
					<polygon class="st1" points="295.5,250.3 299.3,249.5 299.3,239.4 295.5,240.3 					"/>
					<polygon class="st1" points="288.8,251.8 292.5,251 292.5,241 288.8,241.9 					"/>
					<polygon class="st1" points="282.3,253.4 285.9,252.5 285.9,242.7 282.3,243.5 					"/>
				</g>
				<g>
					<polygon class="st1" points="295.5,270.3 299.3,269.6 299.3,259.5 295.5,260.3 					"/>
					<polygon class="st1" points="288.8,271.6 292.5,270.9 292.5,260.9 288.8,261.7 					"/>
					<polygon class="st1" points="282.3,272.9 285.9,272.2 285.9,262.4 282.3,263.1 					"/>
				</g>
				<g>
					<polygon class="st1" points="295.5,290.3 299.3,289.7 299.3,279.6 295.5,280.3 					"/>
					<polygon class="st1" points="288.8,291.4 292.5,290.8 292.5,280.8 288.8,281.5 					"/>
					<polygon class="st1" points="282.3,292.5 285.9,291.9 285.9,282.1 282.3,282.7 					"/>
				</g>
				<g>
					<polygon class="st1" points="295.5,310.3 299.3,309.8 299.3,299.7 295.5,300.3 					"/>
					<polygon class="st1" points="288.8,311.2 292.5,310.7 292.5,300.7 288.8,301.3 					"/>
					<polygon class="st1" points="282.3,312.1 285.9,311.6 285.9,301.7 282.3,302.3 					"/>
				</g>
			</g>
			<polygon class="st10" points="274.9,49.2 306.8,32.8 274.9,354.8 			"/>
		</g>
	</g>
</g>
</svg>
