<?xml version="1.0" encoding="utf-8"?>
<!-- Generator: Adobe Illustrator 25.3.1, SVG Export Plug-In . SVG Version: 6.00 Build 0)  -->
<svg version="1.1" id="Layer_1" xmlns="http://www.w3.org/2000/svg" xmlns:xlink="http://www.w3.org/1999/xlink" x="0px" y="0px"
	 viewBox="0 0 1228 940" style="enable-background:new 0 0 1228 940;" xml:space="preserve">
<style type="text/css">
	.st0{clip-path:url(#SVGID_2_);}
	.st1{clip-path:url(#SVGID_4_);}
	.st2{opacity:0.5;clip-path:url(#SVGID_6_);}
	.st3{clip-path:url(#SVGID_8_);fill:#7C7C7C;}
	.st4{clip-path:url(#SVGID_4_);fill:#6F5F6A;}
	.st5{clip-path:url(#SVGID_4_);fill:#B7B76C;}
	.st6{clip-path:url(#SVGID_4_);fill:#504A2F;}
	.st7{clip-path:url(#SVGID_4_);fill:#FFFFFF;}
	.st8{opacity:0.4;clip-path:url(#SVGID_10_);}
	.st9{clip-path:url(#SVGID_12_);fill:#9F95A3;}
	.st10{clip-path:url(#SVGID_4_);fill:#D8D8D8;}
	.st11{clip-path:url(#SVGID_4_);fill:#F6F1F1;}
	.st12{clip-path:url(#SVGID_4_);fill:#AEC043;}
	.st13{clip-path:url(#SVGID_4_);fill:#8D9636;}
	.st14{clip-path:url(#SVGID_4_);fill:#DAE573;}
	.st15{clip-path:url(#SVGID_4_);fill:#725459;}
	.st16{opacity:0.4;clip-path:url(#SVGID_14_);}
	.st17{clip-path:url(#SVGID_16_);fill:#9F95A3;}
	.st18{clip-path:url(#SVGID_14_);fill:#504A2F;}
	.st19{clip-path:url(#SVGID_14_);fill:#565037;}
	.st20{clip-path:url(#SVGID_14_);fill:#AEC043;}
	.st21{clip-path:url(#SVGID_14_);fill:#FFFFFF;}
	.st22{clip-path:url(#SVGID_18_);fill:#9F95A3;}
	.st23{clip-path:url(#SVGID_14_);fill:#D8D8D8;}
	.st24{clip-path:url(#SVGID_14_);fill:#F6F1F1;}
	.st25{clip-path:url(#SVGID_14_);fill:#8D9636;}
	.st26{clip-path:url(#SVGID_14_);fill:#DAE573;}
	.st27{clip-path:url(#SVGID_14_);fill:#725459;}
	.st28{clip-path:url(#SVGID_20_);fill:#9F95A3;}
	.st29{clip-path:url(#SVGID_22_);fill:#9F95A3;}
	.st30{clip-path:url(#SVGID_24_);fill:#9F95A3;}
	.st31{clip-path:url(#SVGID_14_);fill:#A7A9AA;}
	.st32{clip-path:url(#SVGID_14_);fill:#BCBEC0;}
	.st33{clip-path:url(#SVGID_14_);fill:#E6E7E8;}
	.st34{clip-path:url(#SVGID_14_);fill:#A7A9AC;}
	.st35{clip-path:url(#SVGID_14_);fill:#B3B3B3;}
	.st36{clip-path:url(#SVGID_14_);fill:#50618E;}
	.st37{clip-path:url(#SVGID_14_);fill:#888A8C;}
	.st38{clip-path:url(#SVGID_14_);fill:#4D5051;}
	.st39{clip-path:url(#SVGID_14_);fill:#6D7277;}
	.st40{clip-path:url(#SVGID_14_);fill:#4E5E84;}
	.st41{clip-path:url(#SVGID_14_);fill:#383E47;}
	.st42{clip-path:url(#SVGID_14_);fill:#99ACB5;}
	.st43{opacity:0.82;clip-path:url(#SVGID_14_);}
	.st44{clip-path:url(#SVGID_26_);fill:#67416D;}
	.st45{clip-path:url(#SVGID_14_);fill:#3C4A68;}
	.st46{clip-path:url(#SVGID_14_);fill:#414042;}
	.st47{clip-path:url(#SVGID_14_);fill:#58595B;}
	.st48{clip-path:url(#SVGID_14_);fill:#D1D3D4;}
	.st49{clip-path:url(#SVGID_14_);fill:#6D6E71;}
	.st50{clip-path:url(#SVGID_14_);fill:#93A3AA;}
	.st51{clip-path:url(#SVGID_14_);fill:#BDCCD4;}
	.st52{clip-path:url(#SVGID_14_);fill:#96AAB2;}
	.st53{clip-path:url(#SVGID_14_);fill:#83969B;}
	.st54{clip-path:url(#SVGID_14_);fill:#EDA35F;}
	.st55{clip-path:url(#SVGID_14_);fill:#7D99A0;}
	.st56{clip-path:url(#SVGID_14_);fill:#5A6466;}
	.st57{clip-path:url(#SVGID_14_);fill:#DCF0FF;}
	.st58{clip-path:url(#SVGID_14_);fill:#5D7584;}
	.st59{clip-path:url(#SVGID_14_);fill:#4A4D54;}
	.st60{clip-path:url(#SVGID_14_);fill:#5C6068;}
	.st61{clip-path:url(#SVGID_14_);fill:#DD4E47;}
	.st62{clip-path:url(#SVGID_14_);fill:#BCBCBC;}
	.st63{clip-path:url(#SVGID_14_);fill:#934E3E;}
	.st64{clip-path:url(#SVGID_14_);fill:#F1F2F2;}
	.st65{clip-path:url(#SVGID_14_);fill:#3C4C6B;}
	.st66{clip-path:url(#SVGID_28_);fill:#67416D;}
	.st67{clip-path:url(#SVGID_14_);fill:#324366;}
	.st68{clip-path:url(#SVGID_30_);fill:#67416D;}
	.st69{clip-path:url(#SVGID_32_);fill:#9F95A3;}
</style>
<g id="Artwork_12_1_">
	<g>
		<defs>
			<rect id="SVGID_1_" width="1228.08" height="940.13"/>
		</defs>
		<clipPath id="SVGID_2_">
			<use xlink:href="#SVGID_1_"  style="overflow:visible;"/>
		</clipPath>
		<g class="st0">
			<defs>
				<rect id="SVGID_3_" width="1228.08" height="940.13"/>
			</defs>
			<clipPath id="SVGID_4_">
				<use xlink:href="#SVGID_3_"  style="overflow:visible;"/>
			</clipPath>
			<g class="st1">
				<defs>
					<rect id="SVGID_5_" width="1228.08" height="940.13"/>
				</defs>
				<clipPath id="SVGID_6_">
					<use xlink:href="#SVGID_5_"  style="overflow:visible;"/>
				</clipPath>
				<g class="st2">
					<g>
						<defs>
							<rect id="SVGID_7_" y="237.99" width="1228.08" height="702.14"/>
						</defs>
						<clipPath id="SVGID_8_">
							<use xlink:href="#SVGID_7_"  style="overflow:visible;"/>
						</clipPath>
						<polygon class="st3" points="603.7,237.99 0,586.43 626.53,940.13 1228.08,592.82 						"/>
					</g>
				</g>
			</g>
			<polygon class="st4" points="611.25,94.17 86.74,397 611.26,699.83 1135.77,397.01 			"/>
			<polygon class="st5" points="86.74,397 86.74,541.2 611.26,844.03 611.26,699.83 			"/>
			<polygon class="st6" points="611.26,699.83 611.26,844.04 1135.79,541.2 1135.77,397.01 			"/>
			<polygon class="st7" points="284.64,305.76 537.53,159.76 686.21,245.6 432.8,391.3 445.8,398.81 699.2,253.1 846.67,338.24 
				593.26,483.95 606.26,491.45 859.67,345.74 1017.18,436.68 764.29,582.69 777.28,590.19 1043.15,436.68 537.53,144.77 
				271.66,298.27 			"/>
			<g class="st1">
				<defs>
					<rect id="SVGID_9_" width="1228.08" height="940.13"/>
				</defs>
				<clipPath id="SVGID_10_">
					<use xlink:href="#SVGID_9_"  style="overflow:visible;"/>
				</clipPath>
				<g class="st8">
					<g>
						<defs>
							<rect id="SVGID_11_" x="579.65" y="126.1" width="151.94" height="96.06"/>
						</defs>
						<clipPath id="SVGID_12_">
							<use xlink:href="#SVGID_11_"  style="overflow:visible;"/>
						</clipPath>
						<polygon class="st9" points="623.44,126.1 579.65,151.39 583.55,169.97 673.36,222.17 731.59,188.55 						"/>
					</g>
				</g>
			</g>
			<polygon class="st6" points="572.91,28.27 584.62,37.15 584.62,21.83 			"/>
			<polygon class="st10" points="698.82,41.93 698.82,168.31 659.13,191.22 659.13,64.85 			"/>
			<polygon class="st11" points="659.13,64.85 659.13,191.22 584.62,148.2 584.62,21.83 			"/>
			<polygon class="st12" points="653.24,66.67 653.24,178.41 590.51,142.2 590.51,30.46 			"/>
			<polygon class="st13" points="693.42,52.37 693.42,164.11 664.54,180.78 664.54,69.04 			"/>
			<polygon class="st14" points="624.31,0 572.91,28.27 649.13,70.62 698.82,41.93 			"/>
			<polygon class="st12" points="649.13,70.62 659.13,78.21 659.13,64.85 			"/>
			<polygon class="st15" points="594.84,44.53 594.84,66.98 648.92,96.71 648.92,74.56 			"/>
			<polygon class="st6" points="637.45,112.13 637.45,115.96 646.67,121.02 646.67,117.25 			"/>
			<polygon class="st6" points="637.45,123.61 646.67,128.68 646.67,124.9 637.45,119.78 			"/>
			<g class="st1">
				<defs>
					<rect id="SVGID_13_" width="1228.08" height="940.13"/>
				</defs>
				<clipPath id="SVGID_14_">
					<use xlink:href="#SVGID_13_"  style="overflow:visible;"/>
				</clipPath>
				<g class="st16">
					<g>
						<defs>
							<rect id="SVGID_15_" x="672.17" y="97.49" width="9.46" height="80.14"/>
						</defs>
						<clipPath id="SVGID_16_">
							<use xlink:href="#SVGID_15_"  style="overflow:visible;"/>
						</clipPath>
						<path class="st17" d="M676.33,177.62c-9.17-38.6-0.39-78.45-0.01-80.13l5.31,1.2c-0.09,0.4-8.87,40.34-0.01,77.68
							L676.33,177.62z"/>
					</g>
				</g>
				<path class="st18" d="M678.98,88.59c2.54-1.47,4.61,1,4.61,5.52c0,4.52-2.06,9.37-4.61,10.84c-2.54,1.47-4.61-1-4.61-5.52
					C674.37,94.91,676.44,90.05,678.98,88.59"/>
				<path class="st19" d="M650.12,141.21c-0.58-1.42-1.42-2.78-2.43-3.89l-1.6-1.45c-0.24-0.17-0.48-0.33-0.72-0.48
					c-1.46-0.84-2.78-0.95-3.78-0.47l-0.01-0.01l-2.03,0.93l0.5,0.98c-0.17,0.52-0.26,1.11-0.26,1.79c0,3.56,2.5,7.88,5.58,9.66
					c0.22,0.12,0.43,0.23,0.64,0.32l0.65,1.28l2.26-1.02c0.01,0,0.03-0.01,0.04-0.02l0.29-0.13l0,0c1.05-0.57,1.7-1.83,1.7-3.65
					c0-0.58-0.07-1.17-0.2-1.78L650.12,141.21z"/>
				<path class="st20" d="M643.03,136.44c-3.08-1.78-5.58-0.34-5.58,3.22c0,3.56,2.5,7.88,5.58,9.66c3.08,1.78,5.58,0.34,5.58-3.22
					C648.61,142.54,646.11,138.22,643.03,136.44"/>
				<path class="st18" d="M661.2,209.84c-3.98,0-7.88-0.82-11.14-2.31c-17.32-7.94-21.77-37.04-14.04-56.78
					c1.12-2.85,2.54-5.62,4.22-8.22c0.85-1.03,2.25-1.35,3.34-0.84c1.3,0.62,1.92,2.32,1.23,3.79c-1.07,1.66-2.49,4.11-3.72,7.26
					c-6.72,17.16-3.2,43.22,11.24,49.85c6.59,3,17.06,2.38,22.13-3.39c3.84-4.37,3.57-10.69,3.44-13.74
					c-0.24-5.63-2.02-8.9-4.47-13.44c-1.36-2.51-2.9-5.35-4.35-8.98c-5.23-13.08-4.68-24.85-4.44-29.88
					c0.58-12.47,4.74-25.11,12.05-36.54l4.59,2.93c-6.79,10.62-10.66,22.34-11.2,33.86c-0.22,4.67-0.73,15.62,4.06,27.6
					c1.33,3.34,2.73,5.92,4.08,8.41c2.59,4.79,4.83,8.92,5.13,15.78c0.15,3.48,0.49,11.57-4.79,17.58
					C674.24,207.7,667.63,209.84,661.2,209.84"/>
				<polygon class="st21" points="621.41,117.47 612.2,83.14 612.2,126.87 618.86,120.9 625.28,156.42 625.28,115.14 				"/>
				<g class="st16">
					<g>
						<defs>
							<rect id="SVGID_17_" x="771.34" y="237.19" width="151.94" height="96.06"/>
						</defs>
						<clipPath id="SVGID_18_">
							<use xlink:href="#SVGID_17_"  style="overflow:visible;"/>
						</clipPath>
						<polygon class="st22" points="815.13,237.19 771.34,262.47 775.23,281.05 865.04,333.25 923.28,299.63 						"/>
					</g>
				</g>
				<polygon class="st18" points="764.59,139.36 776.31,148.23 776.31,132.91 				"/>
				<polygon class="st23" points="890.51,153.02 890.51,279.39 850.82,302.31 850.82,175.93 				"/>
				<polygon class="st24" points="850.82,175.93 850.82,302.31 776.31,259.29 776.31,132.91 				"/>
				<polygon class="st20" points="844.93,177.76 844.93,289.5 782.2,253.28 782.2,141.54 				"/>
				<polygon class="st25" points="885.1,163.46 885.1,275.2 856.23,291.87 856.23,180.13 				"/>
				<polygon class="st26" points="816,111.08 764.59,139.35 840.82,181.71 890.51,153.02 				"/>
				<polygon class="st20" points="840.82,181.71 850.82,189.29 850.82,175.93 				"/>
				<polygon class="st27" points="786.53,155.62 786.53,178.06 840.6,207.8 840.6,185.65 				"/>
				<polygon class="st18" points="829.14,223.22 829.14,227.04 838.36,232.11 838.36,228.33 				"/>
				<polygon class="st18" points="829.14,234.69 838.36,239.76 838.36,235.99 829.14,230.87 				"/>
				<g class="st16">
					<g>
						<defs>
							<rect id="SVGID_19_" x="863.86" y="208.57" width="9.46" height="80.14"/>
						</defs>
						<clipPath id="SVGID_20_">
							<use xlink:href="#SVGID_19_"  style="overflow:visible;"/>
						</clipPath>
						<path class="st28" d="M868.02,288.71c-9.17-38.6-0.39-78.45-0.01-80.13l5.31,1.2c-0.09,0.4-8.87,40.34-0.01,77.68
							L868.02,288.71z"/>
					</g>
				</g>
				<path class="st18" d="M870.67,199.67c2.54-1.47,4.61,1,4.61,5.52c0,4.52-2.06,9.37-4.61,10.84c-2.54,1.47-4.61-1-4.61-5.52
					C866.06,205.99,868.12,201.14,870.67,199.67"/>
				<path class="st19" d="M841.81,252.29c-0.58-1.42-1.42-2.78-2.43-3.89l-1.6-1.45c-0.24-0.17-0.48-0.33-0.72-0.48
					c-1.46-0.84-2.78-0.95-3.78-0.47l0-0.01l-2.03,0.93l0.5,0.98c-0.17,0.52-0.26,1.11-0.26,1.79c0,3.56,2.5,7.88,5.58,9.66
					c0.22,0.12,0.43,0.23,0.64,0.32l0.65,1.28l2.26-1.02c0.01,0,0.03-0.01,0.04-0.02l0.29-0.13l0-0.01c1.05-0.57,1.7-1.83,1.7-3.64
					c0-0.58-0.07-1.17-0.2-1.78L841.81,252.29z"/>
				<path class="st20" d="M834.72,247.52c-3.08-1.78-5.58-0.34-5.58,3.22c0,3.56,2.5,7.88,5.58,9.66c3.08,1.78,5.58,0.34,5.58-3.22
					C840.3,253.63,837.8,249.3,834.72,247.52"/>
				<path class="st18" d="M852.89,320.92c-3.98,0-7.88-0.82-11.14-2.31c-17.32-7.94-21.77-37.04-14.04-56.78
					c1.12-2.85,2.54-5.62,4.22-8.22c0.85-1.03,2.25-1.35,3.34-0.84c1.3,0.62,1.92,2.32,1.23,3.79c-1.07,1.66-2.49,4.11-3.72,7.25
					c-6.72,17.16-3.2,43.22,11.24,49.85c6.59,3,17.06,2.38,22.13-3.39c3.84-4.37,3.57-10.69,3.44-13.74
					c-0.24-5.63-2.02-8.9-4.47-13.44c-1.36-2.51-2.9-5.35-4.35-8.98c-5.23-13.08-4.68-24.85-4.44-29.88
					c0.58-12.47,4.74-25.11,12.05-36.54l4.59,2.93c-6.79,10.62-10.66,22.34-11.2,33.86c-0.22,4.67-0.73,15.62,4.06,27.6
					c1.33,3.34,2.73,5.91,4.08,8.41c2.59,4.79,4.83,8.92,5.13,15.78c0.15,3.48,0.49,11.57-4.79,17.58
					C865.93,318.78,859.32,320.92,852.89,320.92"/>
				<polygon class="st21" points="813.09,228.55 803.89,194.23 803.89,237.95 810.55,231.98 816.97,267.51 816.97,226.22 				"/>
				<path class="st21" d="M562.76,244.5c-2.36-1.36-6.18-1.36-8.54,0l-31.03,17.91l-32.02-18.49l31.03-17.92
					c2.36-1.36,2.36-3.57,0-4.93c-2.36-1.36-6.18-1.36-8.54,0l-33.59,19.39l-5.98-3.45l-9.39,5.42l6.4,3.7
					c-5.76,3.33-11.53,6.66-17.29,9.98c-4.96,4.67-6.45,10.1-4.69,15.12c-15.88-2.67-32.86-1.73-46.59,3.06
					c-0.01-8.5-8.76-14.12-10.37-15.12c-1.67,0.68-12.56,5.24-14.02,13.6c-0.94,5.38,2.48,9.69,6.08,12.65
					c-10.22,11.03-8.54,25.54,1.27,36.3c3.18,3.49,7.21,6.6,11.87,9.29c18.82,10.86,47.95,14.83,73.44,8.92
					c33.96-7.87,51.03-30.78,38.06-51.06c-1.16-1.81-4.63-2.73-7.76-2.06c-3.13,0.67-4.73,2.67-3.57,4.48
					c10.73,16.77-3.28,35.69-31.23,42.17c-25.7,5.96-57.15-0.76-70.12-14.99c-5.14-5.64-8.31-13.89-6.13-21.63
					c5.97,1.28,16.84,2.68,27.76-0.7c12.82-3.97,15.98-11.52,16.43-12.67c-2.33-0.51-15.88-3.29-30.32,0.78
					c-2.87,0.81-5.32,1.77-7.43,2.78c2.45-2.15,5.61-4.1,9.6-5.75c14.62-6.06,35.11-5.99,51.79-0.33c11.1,6.67,29.6,8.14,44.19,3.04
					c7.76-4.48,13.31-7.69,17.29-9.98l6.4,3.7l9.39-5.42l-5.98-3.45l33.59-19.39C565.12,248.07,565.12,245.86,562.76,244.5"/>
				<g class="st16">
					<g>
						<defs>
							<rect id="SVGID_21_" x="953.24" y="339.78" width="150.78" height="95.33"/>
						</defs>
						<clipPath id="SVGID_22_">
							<use xlink:href="#SVGID_21_"  style="overflow:visible;"/>
						</clipPath>
						<polygon class="st29" points="996.7,339.78 953.24,364.87 957.11,383.3 1046.23,435.11 1104.02,401.74 						"/>
					</g>
				</g>
				<g class="st16">
					<g>
						<defs>
							<rect id="SVGID_23_" x="422.34" y="334.34" width="545.45" height="314.91"/>
						</defs>
						<clipPath id="SVGID_24_">
							<use xlink:href="#SVGID_23_"  style="overflow:visible;"/>
						</clipPath>
						<polygon class="st30" points="967.78,442.97 779.62,334.34 422.34,540.61 610.5,649.25 716.62,587.98 770.63,588.63 
							955.83,483.08 950.25,453.09 						"/>
					</g>
				</g>
				<polygon class="st31" points="849.84,400.24 849.84,400.4 849.97,400.32 				"/>
				<polygon class="st32" points="770.63,323.48 770.63,341.83 919.22,427.63 919.22,409.27 				"/>
				<polygon class="st33" points="776.66,319.99 770.63,323.48 919.22,409.27 925.26,405.78 				"/>
				<polygon class="st34" points="919.22,409.27 919.22,427.63 925.25,424.15 925.25,405.79 				"/>
				<path class="st35" d="M823.94,465.21c0-17.79,12.07-38.69,27.47-47.59c4.48-2.59,8.86-3.93,13.02-3.99
					c0.09-0.01,0.19-0.01,0.28-0.01c0.21,0,1.18,0.04,1.61,0.08c0.23,0.02,0.4,0.03,0.57,0.05c0.32,0.04,0.64,0.09,0.95,0.14
					c5.88,0.94,12.14,4.58,18.58,10.82c3.25,2.83,5.43,7.02,6.38,12.11l21.17-12.22l-146.14-84.38l-314.36,181.5l146.11,84.39
					l49.59-28.63c-2.27-3.69-3.46-8.43-3.46-13.95c0-17.79,12.07-38.69,27.47-47.59c4.48-2.59,8.86-3.93,13.02-3.99
					c0.09-0.01,0.19-0.01,0.28-0.01c0.21,0,1.18,0.04,1.61,0.08c0.23,0.02,0.4,0.03,0.57,0.05c0.32,0.04,0.64,0.09,0.95,0.14
					c5.88,0.94,12.14,4.58,18.58,10.82c4.12,3.58,6.53,9.36,6.88,16.4l110.58-63.85C824.54,472.57,823.94,469.09,823.94,465.21"/>
				<path class="st36" d="M752.63,289.22l-26.41-50.17l-137.01,79.1l-40.53,89.26l-95.24,60.34l0,53.98l314.4-181.52v-53.98
					L752.63,289.22z M671.91,336.45l-115.72,66.81l35.46-80.98l80.26-46.34V336.45z M678.67,332.55v-60.51l38.73-22.36l24.45,46.39
					L678.67,332.55z"/>
				<polygon class="st37" points="868.38,373.32 868.38,421.61 734.18,344.13 734.18,295.84 				"/>
				<polygon class="st32" points="734.18,344.13 692.87,367.98 827.07,445.46 868.38,421.61 				"/>
				<polygon class="st37" points="827.07,445.46 827.07,472.26 692.87,394.78 692.87,367.98 				"/>
				<polygon class="st32" points="751.04,286.11 885.24,363.59 868.38,373.32 734.18,295.85 				"/>
				<polygon class="st38" points="827.07,472.27 886.14,437.66 902.14,395.7 885.24,363.59 868.38,373.32 868.38,421.61 
					827.07,445.46 				"/>
				<polygon class="st37" points="745.31,438.24 745.31,486.53 611.11,409.05 611.11,360.76 				"/>
				<polygon class="st32" points="611.11,409.05 569.8,432.9 704.01,510.38 745.31,486.53 				"/>
				<polygon class="st37" points="704.01,510.38 704.01,537.19 569.8,459.7 569.8,432.9 				"/>
				<polygon class="st32" points="627.98,351.03 762.17,428.51 745.31,438.24 611.12,360.77 				"/>
				<polygon class="st39" points="704.01,537.19 763.09,504.09 762.17,428.51 745.31,438.24 745.31,486.53 704.01,510.38 				"/>
				<polygon class="st40" points="882.67,442.68 857.46,429.16 857.49,421.4 866.16,417.93 885.07,427.86 886.62,434.2 				"/>
				<polygon class="st40" points="702.33,487.64 887.99,380.45 886.11,376.89 705.47,480.47 				"/>
				<polygon class="st41" points="548.69,407.42 694.83,491.79 706.28,466.69 649.71,433.48 639.73,439.32 560.11,394.27 				"/>
				<polygon class="st42" points="453.45,521.74 599.59,606.12 599.59,552.14 453.45,467.76 				"/>
				<g class="st43">
					<g>
						<defs>
							<rect id="SVGID_25_" x="548.69" y="318.15" width="186.67" height="173.64"/>
						</defs>
						<clipPath id="SVGID_26_">
							<use xlink:href="#SVGID_25_"  style="overflow:visible;"/>
						</clipPath>
						<polygon class="st44" points="548.69,407.42 694.83,491.79 735.36,402.53 589.22,318.15 						"/>
					</g>
				</g>
				<polygon class="st45" points="703.99,545.81 678.77,532.3 678.8,524.53 687.47,521.06 706.38,530.99 707.94,537.33 				"/>
				<path class="st46" d="M820.46,468.56c0-16.31,11.45-36.15,25.58-44.31c4.11-2.37,7.99-3.49,11.43-3.49
					c-0.01,0-0.02-0.01-0.02-0.01c0.08,0,0.94,0.03,1.28,0.06c0.15,0.01,0.31,0.02,0.46,0.04c0.25,0.03,0.5,0.07,0.74,0.11
					c7.48,1.2,14.38,7.57,17.47,10.67c-2.34-2.42-6.2-3.58-8.15-3.67c26.12,21.85-8.05,72.1-35.76,58.81c0,0,1.81,3.74,5.6,5.78
					c0,0-7.7-3.51-13.42-9.13c0.01,0.01,0,0,0,0c-0.02-0.02-0.44-0.44-0.37-0.37C822.26,479.96,820.46,475.02,820.46,468.56"/>
				<path class="st32" d="M856.73,436.25c11.82-6.82,21.4-1.29,21.4,12.36c0,13.65-9.58,30.25-21.4,37.07
					c-11.82,6.83-21.4,1.29-21.4-12.36C835.33,459.68,844.91,443.08,856.73,436.25"/>
				<path class="st47" d="M856.73,431.43c14.07-8.32,25.56-1.62,25.58,14.77c0,16.32-11.45,36.15-25.58,44.31
					c-14.13,8.16-25.58,1.54-25.58-14.77C831.15,459.42,842.6,439.58,856.73,431.43"/>
				<path class="st48" d="M847.69,469.12c4.99-2.88,9.04-9.89,9.04-15.65c0-4.05-1.92-6.47-4.84-6.52c1.52-1.46,3.14-2.73,4.84-3.7
					c8.48-4.89,15.35-0.93,15.35,8.86c0,9.79-6.87,21.69-15.35,26.58c-8.48,4.89-15.35,0.93-15.35-8.86c0-0.01,0-0.02,0-0.03
					C843.02,470.73,845.21,470.56,847.69,469.12"/>
				<path class="st34" d="M853.93,445.17c0.91-0.72,1.84-1.37,2.8-1.92c8.48-4.89,15.35-0.93,15.35,8.86
					c0,9.79-6.87,21.69-15.35,26.58c-0.13,0.08-0.26,0.13-0.39,0.2C872.49,464.09,863.02,443.45,853.93,445.17"/>
				<path class="st46" d="M839.72,470.51c0,3.72,0.91,6.83,2.65,9c1.71,2.14,4.13,3.28,6.99,3.28h0c2.39,0,4.95-0.78,7.61-2.32
					c9.24-5.34,16.77-18.37,16.77-29.04c0-7.46-3.79-12.27-9.64-12.27c-2.39,0-4.95,0.78-7.61,2.32
					C847.24,446.81,839.72,459.83,839.72,470.51 M841.9,469.29c0-9.31,6.56-20.67,14.62-25.33c2.32-1.34,4.55-2.02,6.64-2.02
					c5.11,0,8.41,4.2,8.41,10.7c0,9.31-6.56,20.67-14.62,25.33c-2.32,1.34-4.55,2.02-6.63,2.02h0c-2.49,0-4.6-0.99-6.1-2.86
					C842.7,475.25,841.9,472.53,841.9,469.29"/>
				<path class="st47" d="M841.44,468l10.77-6.22l-9.76,0.76c0.22-0.66,0.36-1.32,0.69-2.14l9.42-0.74l-7.49-4.32l1.13-2.02
					l7.79,4.5l-3.9-9.05l1.51-1.58l3.78,8.83v-12c0.52-0.28,1.06-0.63,1.64-0.99v12.02l3.89-13.58c0.51-0.13,1.02-0.24,1.53-0.28
					l-4.04,14.11l8.07-13.98l1.16,0.67l-7.8,13.52l9.73-10.46l0.76,1.28l-10.12,10.88l11.32-6.51l0.1,1.82l-11.44,6.58l10.59-0.88
					l-0.77,2.23l-10.18,0.77l7.8,4.5l-1.16,2.01l-8.06-4.66l4.3,9.98l-1.48,1.59l-4.21-9.77v12.83l-1.64,0.95v-12.81l-4.18,14.58
					l-1.48,0.12l4.28-14.94l-8.08,13.98l-1.16-0.67l7.8-13.52l-9.95,10.7l-0.61-1.43l10.19-10.96l-10.81,6.24
					C841.38,468.51,841.46,468.28,841.44,468"/>
				<path class="st32" d="M840.56,470.26c0,10.29,7.25,14.48,16.17,9.33c8.91-5.15,16.17-17.71,16.17-28
					c0-10.29-7.25-14.48-16.17-9.33C847.82,447.4,840.56,459.96,840.56,470.26 M842.25,468.14c0.1-1.73,0.41-3.52,0.9-5.31
					l9.59-0.75L842.25,468.14z M852.74,463.98l-9.69,10.43c-0.47-1.25-0.74-2.71-0.81-4.36L852.74,463.98z M853.1,459.96l-9.27,0.73
					c0.58-1.64,1.32-3.26,2.16-4.83L853.1,459.96z M847.16,453.86c1.05-1.68,2.23-3.25,3.52-4.68l3.85,8.93L847.16,453.86z
					 M855.91,444.67v11.64l-3.74-8.67C853.36,446.5,854.62,445.5,855.91,444.67 M857.55,443.72c1.29-0.66,2.54-1.11,3.71-1.34
					l-3.71,12.96V443.72z M855.91,478.13c-1.33,0.68-2.62,1.14-3.83,1.36l3.83-13.37V478.13z M866.3,442.81l-7.37,12.77l3.83-13.38
					C864.06,442.14,865.25,442.35,866.3,442.81 M871.23,453.3c-0.07,1.73-0.35,3.51-0.81,5.31l-9.7,0.76L871.23,453.3z
					 M860.73,457.47l9.58-10.31c0.49,1.22,0.8,2.64,0.9,4.26L860.73,457.47z M869.77,460.75c-0.57,1.67-1.29,3.33-2.14,4.93
					l-7.27-4.2L869.77,460.75z M866.49,467.69c-1.07,1.73-2.27,3.36-3.58,4.84l-3.96-9.19L866.49,467.69z M869.64,445.8l-9.28,9.98
					l7.11-12.32C868.32,444.05,869.05,444.83,869.64,445.8 M857.55,477.18v-12.04l3.86,8.95
					C860.18,475.28,858.89,476.32,857.55,477.18 M846.98,478.95l7.55-13.08l-3.95,13.78C849.26,479.7,848.05,479.46,846.98,478.95
					 M843.69,475.8l9.42-10.13l-7.28,12.6C844.98,477.65,844.26,476.82,843.69,475.8"/>
				<path class="st49" d="M856.84,456.7c1.88-1.08,3.4-0.2,3.4,1.96c0,2.17-1.52,4.81-3.4,5.89c-1.88,1.08-3.4,0.21-3.4-1.96
					C853.44,460.42,854.97,457.78,856.84,456.7"/>
				<path class="st46" d="M856.42,456.97c1.02-0.22,1.75,0.39,1.75,1.68c0,1.6-1.12,3.54-2.5,4.34c-0.79,0.45-1.66,0.44-2.19,0.05
					C853.13,461.41,854.51,458.24,856.42,456.97"/>
				<path class="st46" d="M641.08,571.85c0-16.32,11.45-36.15,25.58-44.31c4.11-2.37,7.99-3.49,11.43-3.48
					c-0.01,0-0.02-0.01-0.02-0.01c0.08,0,0.94,0.03,1.28,0.06c0.15,0.01,0.31,0.02,0.46,0.04c0.25,0.03,0.5,0.07,0.74,0.11
					c7.48,1.2,14.38,7.57,17.47,10.67c-2.34-2.42-6.2-3.58-8.15-3.66c26.12,21.85-8.05,72.1-35.76,58.81c0,0,1.81,3.73,5.6,5.78
					c0,0-7.7-3.51-13.42-9.13c0.01,0.01,0,0,0,0c-0.02-0.02-0.45-0.44-0.38-0.37C642.88,583.26,641.08,578.32,641.08,571.85"/>
				<path class="st32" d="M677.35,539.55c11.82-6.82,21.4-1.29,21.4,12.36c0,13.65-9.58,30.25-21.4,37.07
					c-11.82,6.83-21.4,1.29-21.4-12.36C655.95,562.97,665.53,546.38,677.35,539.55"/>
				<path class="st47" d="M677.35,534.73c14.07-8.32,25.56-1.62,25.58,14.77c0,16.31-11.45,36.15-25.58,44.31
					c-14.13,8.16-25.58,1.54-25.58-14.77C651.77,562.72,663.22,542.88,677.35,534.73"/>
				<path class="st48" d="M668.31,572.42c4.99-2.88,9.04-9.89,9.04-15.65c0-4.04-1.92-6.47-4.84-6.52c1.52-1.46,3.14-2.73,4.84-3.7
					c8.48-4.89,15.35-0.93,15.35,8.86c0,9.79-6.87,21.69-15.35,26.58c-8.48,4.89-15.35,0.93-15.35-8.86c0-0.01,0-0.02,0-0.03
					C663.64,574.03,665.83,573.85,668.31,572.42"/>
				<path class="st34" d="M674.55,548.47c0.91-0.72,1.84-1.37,2.8-1.92c8.48-4.89,15.35-0.93,15.35,8.86
					c0,9.79-6.87,21.69-15.35,26.58c-0.13,0.08-0.26,0.13-0.39,0.2C693.11,567.39,683.63,546.74,674.55,548.47"/>
				<path class="st46" d="M660.34,573.81c0,3.72,0.91,6.83,2.65,9c1.71,2.14,4.13,3.28,6.99,3.28c2.39,0,4.95-0.78,7.61-2.31
					c9.24-5.34,16.77-18.37,16.77-29.04c0-7.46-3.78-12.27-9.64-12.27c-2.39,0-4.95,0.78-7.61,2.31
					C667.86,550.11,660.34,563.13,660.34,573.81 M662.52,572.59c0-9.31,6.56-20.67,14.62-25.33c2.32-1.34,4.55-2.02,6.64-2.02
					c5.11,0,8.41,4.2,8.41,10.7c0,9.31-6.56,20.67-14.62,25.33c-2.32,1.34-4.55,2.02-6.63,2.02h0c-2.49,0-4.6-0.99-6.1-2.86
					C663.32,578.54,662.52,575.83,662.52,572.59"/>
				<path class="st47" d="M662.06,571.3l10.77-6.22l-9.76,0.76c0.22-0.66,0.36-1.32,0.69-2.14l9.42-0.74l-7.49-4.33l1.13-2.02
					l7.79,4.5l-3.9-9.05l1.51-1.58l3.78,8.83v-12c0.52-0.28,1.06-0.63,1.64-0.99v12.02l3.89-13.58c0.51-0.13,1.02-0.24,1.53-0.28
					l-4.04,14.11l8.07-13.98l1.16,0.67l-7.81,13.52l9.73-10.46l0.76,1.28l-10.12,10.88l11.32-6.51l0.1,1.82l-11.44,6.58l10.59-0.88
					l-0.77,2.23l-10.18,0.77l7.8,4.5l-1.16,2.01l-8.06-4.66l4.3,9.98l-1.48,1.59l-4.21-9.77v12.83l-1.64,0.95v-12.81l-4.18,14.58
					l-1.48,0.12l4.28-14.94l-8.08,13.98l-1.16-0.67l7.8-13.52l-9.95,10.7l-0.61-1.43l10.19-10.96l-10.81,6.24
					C662,571.81,662.08,571.58,662.06,571.3"/>
				<path class="st32" d="M661.18,573.56c0,10.29,7.25,14.48,16.17,9.33c8.91-5.15,16.17-17.71,16.17-28
					c0-10.29-7.25-14.48-16.17-9.33C668.43,550.7,661.18,563.26,661.18,573.56 M662.87,571.44c0.1-1.73,0.41-3.52,0.9-5.31
					l9.59-0.75L662.87,571.44z M673.35,567.28l-9.69,10.43c-0.47-1.25-0.75-2.71-0.81-4.36L673.35,567.28z M673.72,563.26
					l-9.27,0.72c0.58-1.64,1.32-3.26,2.16-4.83L673.72,563.26z M667.78,557.16c1.05-1.67,2.23-3.25,3.52-4.67l3.85,8.93
					L667.78,557.16z M676.53,547.97v11.64l-3.74-8.67C673.98,549.8,675.23,548.8,676.53,547.97 M678.17,547.02
					c1.29-0.66,2.53-1.11,3.71-1.34l-3.71,12.96V547.02z M676.53,581.42c-1.33,0.68-2.62,1.14-3.83,1.36l3.83-13.37V581.42z
					 M686.92,546.11l-7.37,12.77l3.83-13.38C684.67,545.44,685.86,545.65,686.92,546.11 M691.85,556.6
					c-0.07,1.73-0.35,3.51-0.82,5.31l-9.7,0.76L691.85,556.6z M681.35,560.77l9.58-10.31c0.49,1.22,0.8,2.64,0.9,4.26L681.35,560.77
					z M690.39,564.05c-0.57,1.67-1.29,3.33-2.14,4.93l-7.27-4.2L690.39,564.05z M687.1,570.99c-1.07,1.73-2.27,3.36-3.58,4.84
					l-3.96-9.19L687.1,570.99z M690.26,549.1l-9.28,9.98l7.11-12.32C688.94,547.35,689.67,548.13,690.26,549.1 M678.17,580.48
					v-12.04l3.86,8.95C680.8,578.58,679.51,579.62,678.17,580.48 M667.6,582.25l7.55-13.08l-3.95,13.78
					C669.88,583,668.67,582.76,667.6,582.25 M664.31,579.1l9.42-10.13l-7.28,12.6C665.6,580.94,664.88,580.12,664.31,579.1"/>
				<path class="st49" d="M677.46,560c1.88-1.09,3.4-0.2,3.4,1.96c0,2.17-1.52,4.81-3.4,5.89c-1.88,1.09-3.4,0.21-3.4-1.96
					C674.06,563.72,675.58,561.08,677.46,560"/>
				<path class="st46" d="M677.04,560.27c1.02-0.22,1.75,0.39,1.75,1.68c0,1.6-1.12,3.54-2.5,4.34c-0.79,0.45-1.66,0.44-2.19,0.05
					C673.75,564.71,675.13,561.53,677.04,560.27"/>
				<path class="st50" d="M872.37,323.43l-137.01,79.1l-40.53,89.26l-95.24,60.35v53.98l51.78-29.9
					c0.94-16.26,12.28-35.23,26.13-43.22c13.85-8,25.54-2.36,26.49,12.81l126.42-72.96c0.94-16.26,12.28-35.23,26.13-43.22
					c13.85-8,25.19-2.12,26.13,13.05l31.31-18.08l0-53.97L872.37,323.43z M818.06,420.82l-115.72,66.81l35.46-80.98l80.26-46.34
					V420.82z M824.81,416.92v-60.51l38.73-22.36l24.45,46.39L824.81,416.92z"/>
				<polygon class="st51" points="564.53,534.57 564.53,564.05 599.47,584.22 599.47,554.74 				"/>
				<polygon class="st52" points="608.15,549.73 599.45,554.75 599.45,584.22 608.15,579.21 				"/>
				<polygon class="st53" points="564.53,534.57 569.01,537.15 569,566.63 564.53,564.05 				"/>
				<polygon class="st52" points="564.53,564.05 599.45,584.22 599.45,578.98 569,561.63 				"/>
				<polygon class="st54" points="602.76,552.83 602.76,577.6 608.15,579.21 608.15,549.73 				"/>
				<polygon class="st55" points="599.45,578.98 599.45,584.22 608.15,579.2 602.77,577.15 				"/>
				<polygon class="st51" points="453.45,469.24 453.45,498.72 488.39,518.89 488.39,489.41 				"/>
				<polygon class="st54" points="453.45,469.24 457.92,471.82 457.92,501.3 453.45,498.72 				"/>
				<polygon class="st52" points="453.45,498.72 488.37,518.9 488.37,513.65 457.92,496.3 				"/>
				<polygon class="st56" points="801.44,440.04 801.44,443.59 812.09,437.44 812.09,433.9 				"/>
				<path class="st56" d="M875.35,395.03v16.07l13.92-8.04V387L875.35,395.03z M887.64,402.12l-10.64,6.15v-12.29l10.64-6.15V402.12
					z"/>
				<path class="st57" d="M872.37,323.43l-146.14-84.38l-137.01,79.1l-0.02,0.04l-40.51,89.23l-95.24,60.34l146.14,84.38
					l95.24-60.34l0.03,0.01l40.5-89.27l-0.01-0.01l0.01,0.01L872.37,323.43z M688.58,488.18L555.1,411.12l39.37-89.94L729,398.86
					L688.58,488.18z"/>
				<polygon class="st58" points="490.22,491.52 490.22,544.34 562.82,586.26 562.82,534.47 				"/>
				<polygon class="st59" points="500.35,497.52 500.35,539.83 490.22,544.34 490.22,491.52 				"/>
				<polygon class="st60" points="490.22,544.34 562.82,586.26 562.82,575.83 500.35,539.83 				"/>
				<polygon class="st61" points="913.98,376.45 913.98,396.77 908.06,400.21 908.06,379.95 				"/>
				<polygon class="st62" points="542.98,577.76 542.98,578.02 543.21,577.89 				"/>
				<polygon class="st63" points="590.91,550.35 590.91,550.35 590.91,550.35 				"/>
				<path class="st56" d="M912.99,422.87l-28.81,16.63c-0.41-1.76-1.02-3.46-1.84-5.08c-0.68-1.35-2.57-4.72-5.38-6.87
					c-7.64-5.86-19.12-0.85-19.6-0.63c-9.48,4.21-16.88,15.02-17.59,16.09c-9.47,12.16-11.04,24.8-11.3,28.66l-122.84,70.89
					c-1.01-5.75-3.55-8.83-4-9.34c-8.65-10.66-22.59-4.39-28.85,0.49c-19.04,11.53-22.7,35.82-23.29,41.3l-49.89,28.8v4.31l0,0
					c0.34,0,0.68-0.09,1-0.27l51.78-29.9c0.58-0.33,0.95-0.93,0.99-1.59c0.02-0.28,2.16-27.62,21.57-39.29
					c0.07-0.04,0.14-0.09,0.2-0.14c0.61-0.48,15.02-11.55,23.4-1.16c0.03,0.03,0.06,0.07,0.09,0.1c0.03,0.03,2.61,2.95,3.26,8.82
					l4.17,2.24l125.36-72.34c0.61-0.35,0.99-1.01,1-1.71c0-0.14,0.27-14.29,10.55-27.46c0.03-0.04,0.06-0.09,0.09-0.13
					c0.07-0.11,7.21-10.84,15.92-14.71c0.1-0.04,9.76-4.28,15.54,0.15c2.16,1.66,3.69,4.4,4.24,5.5c1.05,2.07,1.69,4.31,1.91,6.64
					c0.06,0.68,0.47,1.27,1.08,1.59c0.6,0.31,1.33,0.29,1.92-0.05l30.31-17.5v-4.3C913.65,422.61,913.3,422.68,912.99,422.87"/>
				<polygon class="st32" points="445.73,513.1 445.73,531.46 594.33,617.25 594.33,598.9 				"/>
				<polygon class="st33" points="451.77,509.62 445.73,513.1 594.33,598.9 600.37,595.41 				"/>
				<polygon class="st34" points="594.33,598.9 594.33,617.25 600.36,613.77 600.36,595.42 				"/>
				<polygon class="st34" points="542.86,567.52 551.6,562.48 551.57,593.86 542.83,598.9 				"/>
				<polygon class="st48" points="534.14,562.47 542.86,567.52 542.83,598.9 534.11,593.85 				"/>
				<polygon class="st33" points="542.87,557.44 551.6,562.48 542.86,567.52 534.14,562.47 				"/>
				<polygon class="st34" points="484.68,534.89 493.41,529.86 493.38,561.24 484.65,566.27 				"/>
				<polygon class="st48" points="475.95,529.84 484.68,534.89 484.65,566.27 475.92,561.22 				"/>
				<polygon class="st33" points="484.69,524.81 493.41,529.86 484.68,534.89 475.95,529.84 				"/>
				<polygon class="st64" points="525.11,567.24 525.11,582.93 498.91,567.8 498.91,552.11 				"/>
				<path class="st34" d="M524.69,583.67l-26.2-15.13c-0.27-0.15-0.43-0.44-0.43-0.74l0-15.69c0-0.31,0.16-0.59,0.43-0.74
					c0.27-0.15,0.59-0.15,0.86,0l26.21,15.13c0.27,0.15,0.43,0.44,0.43,0.74v15.69c0,0.31-0.16,0.59-0.43,0.74
					c-0.13,0.08-0.28,0.11-0.43,0.11C524.97,583.78,524.82,583.75,524.69,583.67 M499.77,553.59l0,13.71l24.49,14.14v-13.71
					L499.77,553.59z"/>
				<polygon class="st65" points="863.54,334.06 887.99,380.45 881.8,379.38 858.7,336.85 				"/>
				<g class="st43">
					<g>
						<defs>
							<rect id="SVGID_27_" x="824.81" y="334.06" width="63.18" height="82.87"/>
						</defs>
						<clipPath id="SVGID_28_">
							<use xlink:href="#SVGID_27_"  style="overflow:visible;"/>
						</clipPath>
						<polygon class="st66" points="863.54,334.06 824.81,356.42 824.81,416.92 887.98,380.45 						"/>
					</g>
				</g>
				<polygon class="st67" points="818.06,360.32 818.06,420.82 814.36,418.04 814.36,362.45 				"/>
				<g class="st43">
					<g>
						<defs>
							<rect id="SVGID_29_" x="702.33" y="360.32" width="115.72" height="127.32"/>
						</defs>
						<clipPath id="SVGID_30_">
							<use xlink:href="#SVGID_29_"  style="overflow:visible;"/>
						</clipPath>
						<polygon class="st68" points="702.33,487.64 818.06,420.82 818.06,360.32 737.79,406.66 						"/>
					</g>
				</g>
				<path class="st19" d="M876.44,397.94c0.57-1.4,1.41-2.75,2.41-3.86l1.59-1.44c0.23-0.17,0.47-0.33,0.71-0.47
					c1.45-0.84,2.76-0.95,3.74-0.46l0-0.01l2.01,0.92l-0.49,0.97c0.16,0.51,0.26,1.1,0.26,1.77c0,3.53-2.47,7.81-5.53,9.57
					c-0.21,0.12-0.42,0.23-0.63,0.32l-0.64,1.27l-2.24-1.01c-0.01-0.01-0.02-0.01-0.04-0.02l-0.29-0.13l0,0
					c-1.04-0.56-1.69-1.81-1.69-3.61c0-0.57,0.07-1.16,0.19-1.76L876.44,397.94z"/>
				<path class="st20" d="M883.46,393.22c3.05-1.76,5.53-0.33,5.53,3.19c0,3.52-2.48,7.81-5.53,9.57c-3.05,1.76-5.53,0.33-5.53-3.19
					C877.93,399.27,880.41,394.98,883.46,393.22"/>
				<polygon class="st18" points="945.63,243.56 957.26,252.37 957.26,236.99 				"/>
				<polygon class="st23" points="1070.58,256.94 1070.58,382.35 1031.2,405.09 1031.2,279.68 				"/>
				<polygon class="st24" points="1031.2,279.68 1031.2,405.09 957.26,362.4 957.26,236.99 				"/>
				<polygon class="st20" points="1025.35,281.49 1025.35,392.37 963.1,356.43 963.1,245.55 				"/>
				<polygon class="st25" points="1065.22,267.3 1065.22,378.18 1036.56,394.73 1036.56,283.84 				"/>
				<polygon class="st26" points="996.64,215.33 945.63,243.38 1021.27,285.41 1070.58,256.94 				"/>
				<polygon class="st20" points="1021.27,285.41 1031.2,292.93 1031.2,279.68 				"/>
				<polygon class="st27" points="967.4,259.52 967.4,281.79 1021.06,311.3 1021.06,289.32 				"/>
				<polygon class="st18" points="1009.68,326.6 1009.68,330.4 1018.83,335.42 1018.83,331.68 				"/>
				<polygon class="st18" points="1009.68,337.99 1018.83,343.02 1018.83,339.27 1009.68,334.19 				"/>
				<g class="st16">
					<g>
						<defs>
							<rect id="SVGID_31_" x="1052.91" y="317.57" width="8.45" height="74.98"/>
						</defs>
						<clipPath id="SVGID_32_">
							<use xlink:href="#SVGID_31_"  style="overflow:visible;"/>
						</clipPath>
						<path class="st69" d="M1058.31,389.43l-5.4,3.12c2.5-10.84,4.68-25.2,4.22-42.07c-0.35-12.78-2.14-23.9-4.22-32.91h5.4
							c1.64,9.62,2.91,20.99,3.04,33.75C1061.5,365.93,1060.13,378.8,1058.31,389.43"/>
					</g>
				</g>
				<path class="st18" d="M1014.26,346.94c-2.52-1.46-4.57,1-4.57,5.48c0,4.48,2.05,9.3,4.57,10.76c2.52,1.46,4.57-0.99,4.57-5.48
					C1018.83,353.22,1016.78,348.4,1014.26,346.94"/>
				<path class="st18" d="M1059.88,320.35c0.34-1.28,0.55-2.62,0.55-3.94c0-4.48-2.2-6.93-4.9-5.47c-2.71,1.45-4.9,6.26-4.9,10.74
					c0,3.63,1.46,5.89,3.45,5.85c3.48,37.31-13.95,73.51-45.33,92.17c-39.36,23.4-90.73,14.44-122.17-21.31
					c-0.98-1.12-2.69-1.23-3.8-0.24c-1.12,0.98-1.23,2.68-0.24,3.8c20.75,23.59,49.75,36.11,78.75,36.11
					c17.33,0,34.67-4.47,50.22-13.72c34.27-20.38,52.86-60.49,47.54-101.22C1059.49,322.32,1059.77,321.37,1059.88,320.35"/>
				<polygon class="st21" points="990.38,328.72 981.25,294.65 981.25,338.04 987.86,332.12 994.23,367.37 994.23,326.4 				"/>
			</g>
		</g>
	</g>
</g>
</svg>
