<?xml version="1.0" encoding="utf-8"?>
<!-- Generator: Adobe Illustrator 25.3.1, SVG Export Plug-In . SVG Version: 6.00 Build 0)  -->
<svg version="1.1" id="Layer_1" xmlns="http://www.w3.org/2000/svg" xmlns:xlink="http://www.w3.org/1999/xlink" x="0px" y="0px"
	 viewBox="0 0 800 609" style="enable-background:new 0 0 800 609;" xml:space="preserve">
<style type="text/css">
	.st0{clip-path:url(#SVGID_2_);}
	.st1{clip-path:url(#SVGID_4_);}
	.st2{opacity:0.5;clip-path:url(#SVGID_6_);}
	.st3{clip-path:url(#SVGID_8_);fill:#7C7C7C;}
	.st4{clip-path:url(#SVGID_4_);fill:#DDED48;}
	.st5{clip-path:url(#SVGID_4_);fill:#B7B76C;}
	.st6{clip-path:url(#SVGID_4_);fill:#504A2F;}
	.st7{clip-path:url(#SVGID_4_);fill:#DBDBDB;}
	.st8{clip-path:url(#SVGID_4_);fill:#C5C4C6;}
	.st9{clip-path:url(#SVGID_4_);fill:#BABABA;}
	.st10{clip-path:url(#SVGID_4_);fill:#F9F9F9;}
	.st11{clip-path:url(#SVGID_4_);fill:#F4F4F4;}
	.st12{clip-path:url(#SVGID_4_);fill:#E8E8E8;}
	.st13{clip-path:url(#SVGID_4_);fill:#C1C1C1;}
	.st14{clip-path:url(#SVGID_4_);fill:#E2E2E2;}
	.st15{clip-path:url(#SVGID_4_);fill:#D3D3D3;}
	.st16{clip-path:url(#SVGID_4_);fill:#B7B7B7;}
	.st17{clip-path:url(#SVGID_4_);fill:#C6C6C6;}
	.st18{clip-path:url(#SVGID_4_);fill:#EAEAEA;}
	.st19{clip-path:url(#SVGID_4_);fill:#939393;}
	.st20{clip-path:url(#SVGID_10_);fill:#7C7C7C;}
	.st21{clip-path:url(#SVGID_10_);fill:#FFBDBD;}
	.st22{clip-path:url(#SVGID_10_);fill:#606060;}
	.st23{clip-path:url(#SVGID_10_);fill:#A5A5A5;}
	.st24{clip-path:url(#SVGID_10_);fill:#C5C4C6;}
	.st25{clip-path:url(#SVGID_10_);fill:#A0A0A0;}
	.st26{clip-path:url(#SVGID_10_);fill:#7F7F7F;}
	.st27{clip-path:url(#SVGID_10_);fill:#E0E0E0;}
</style>
<g id="Artwork_22_1_">
	<g>
		<defs>
			<rect id="SVGID_1_" y="83" width="800" height="526"/>
		</defs>
		<clipPath id="SVGID_2_">
			<use xlink:href="#SVGID_1_"  style="overflow:visible;"/>
		</clipPath>
		<g class="st0">
			<defs>
				<rect id="SVGID_3_" y="83" width="800" height="526"/>
			</defs>
			<clipPath id="SVGID_4_">
				<use xlink:href="#SVGID_3_"  style="overflow:visible;"/>
			</clipPath>
			<g class="st1">
				<defs>
					<rect id="SVGID_5_" y="83" width="800" height="526"/>
				</defs>
				<clipPath id="SVGID_6_">
					<use xlink:href="#SVGID_5_"  style="overflow:visible;"/>
				</clipPath>
				<g class="st2">
					<g>
						<defs>
							<rect id="SVGID_7_" x="0" y="173.46" width="800" height="435.54"/>
						</defs>
						<clipPath id="SVGID_8_">
							<use xlink:href="#SVGID_7_"  style="overflow:visible;"/>
						</clipPath>
						<polygon class="st3" points="0,389.6 393.26,173.46 393.26,173.46 800,393.57 408.13,609 						"/>
					</g>
				</g>
			</g>
			<polygon class="st4" points="58.31,270.84 399.99,83 741.68,270.85 400,458.69 			"/>
			<polygon class="st5" points="58.31,360.29 58.31,270.84 400,458.69 400,548.14 			"/>
			<polygon class="st6" points="400,458.69 741.69,270.84 741.69,360.29 400,548.14 			"/>
			<path class="st7" d="M414.55,347.95l-12.72-6.71v-0.01l-0.72-0.38l-12.91-6.83l-13.45-7.11l-0.09-0.05V313.3l12.83,6.78v0.01
				l0.72,0.38l12.91,6.83l13.55,7.16v13.55L414.55,347.95z M347.65,312.54L347.65,312.54l-0.72-0.39l-12.92-6.83l-13.55-7.16V288
				v-3.39l0.05,0.02l12.78,6.75v0.01l0.72,0.38l12.92,6.83l13.55,7.16v13.55L347.65,312.54z M401.83,310.69L401.83,310.69
				l-0.72-0.38l-12.91-6.83l-13.55-7.16v-13.55v0l0.12,0.07l12.71,6.71v0.01l0.72,0.38l12.91,6.83l13.43,7.1l0.11,0.06v13.55
				L401.83,310.69z M306.05,290.53l-12.76-6.74v0l-0.72-0.38l-12.92-6.83l-13.41-7.09l-0.14-0.07v-13.56l12.83,6.78v0.01l0.72,0.38
				l12.92,6.83l13.55,7.16v13.56L306.05,290.53z M360.34,288.7l-12.69-6.7v0l-0.72-0.38l-12.92-6.83l-13.45-7.11l-0.09-0.05v-5.42
				v-8.13l12.83,6.78v0.01l0.72,0.38l12.92,6.83l13.55,7.16v0v13.55L360.34,288.7z M414.6,286.89l-12.76-6.74v-0.01l-0.72-0.38
				l-12.91-6.83l-13.41-7.09l-0.14-0.07v0v-13.55l12.83,6.78v0l0.72,0.38l12.91,6.83l13.55,7.16v13.56L414.6,286.89z M293.29,253.25
				L293.29,253.25l-0.72-0.38l-12.92-6.83l-13.55-7.16v-13.55l0.11,0.06l12.71,6.72v0.01l0.72,0.38l12.92,6.83l13.48,7.13l0.07,0.03
				v13.55L293.29,253.25z M347.65,251.45L347.65,251.45l-0.72-0.38l-12.92-6.83l-13.55-7.16v-6.78v-6.78l0.09,0.05l12.74,6.73v0.01
				l0.72,0.38l12.92,6.83l13.41,7.09l0.14,0.07v13.56v0L347.65,251.45z M306.1,229.47l-12.81-6.77v-0.01l-0.72-0.38l-12.92-6.83
				l-13.55-7.16v-13.55l12.83,6.78v0l0.72,0.38l12.92,6.83l13.55,7.16v13.55L306.1,229.47z M253.21,274.73v1.77l170.66,89.27V265.14
				l-170.01-88.95l-0.65-0.34V274.73z"/>
			<path class="st8" d="M488.29,234.99l-57.61,30.43v100.66l86.74-45.82v-1.41v-99.24L488.29,234.99z M493.04,320.31l-41.1,21.73
				v-14.71l41.1-21.73V320.31z M493.04,289.76l-41.1,21.73v-14.71l41.1-21.73V289.76z M493.04,259.22l-41.1,21.73v-14.17l41.1-22.28
				l0,0.88V259.22z"/>
			<polygon class="st9" points="428.61,266.52 427.56,267.07 427.56,367.72 430.67,366.08 430.67,265.42 			"/>
			<polygon class="st10" points="253.21,175.84 253.87,176.19 423.87,265.14 427.56,267.07 428.61,266.52 430.67,265.42 
				488.29,234.99 517.41,219.61 513.13,217.35 427.56,262.55 257.49,173.58 			"/>
			<path class="st11" d="M513.13,217.35l-170.07-88.96l-85.57,45.2l170.07,88.96L513.13,217.35z M270.5,174.68l72.56-38.33
				l157.07,82.09l-2.96,1.56l-69.6,36.77l-154.11-80.53L270.5,174.68z"/>
			<polygon class="st8" points="497.17,220.01 500.13,218.45 343.06,136.35 343.06,139.48 			"/>
			<path class="st12" d="M497.17,220.01l-154.11-80.53l-69.6,36.77l154.11,80.53L497.17,220.01z M287.19,177.57v-3.77l55.87-29.51
				l139.7,72.91v3.77l-55.87,29.51L287.19,177.57z"/>
			<polygon class="st12" points="423.87,365.77 427.56,367.72 427.56,267.07 423.87,265.14 			"/>
			<polygon class="st8" points="333.3,230.3 320.57,223.58 333.3,230.31 			"/>
			
				<rect x="354.07" y="247.59" transform="matrix(0.4671 -0.8842 0.8842 0.4671 -36.6516 448.8677)" class="st8" width="0" height="14.51"/>
			<polygon class="st8" points="293.29,222.7 306.1,229.47 293.29,222.7 			"/>
			<polygon class="st8" points="278.94,201.55 266.11,194.78 278.94,201.56 			"/>
			<path class="st8" d="M374.79,265.85l-0.14-0.07L374.79,265.85z"/>
			<polygon class="st8" points="387.48,259 374.65,252.22 387.48,259 			"/>
			<polygon class="st8" points="401.83,280.15 414.6,286.89 401.83,280.14 			"/>
			<polygon class="st8" points="333.3,260.84 320.47,254.07 333.3,260.85 			"/>
			<path class="st8" d="M320.57,267.67l-0.09-0.05L320.57,267.67z"/>
			<polygon class="st8" points="347.65,282 360.34,288.7 347.65,281.99 			"/>
			<polygon class="st8" points="293.29,253.25 306.12,260.02 293.29,253.24 			"/>
			<polygon class="st8" points="278.94,232.09 266.22,225.38 278.94,232.1 			"/>
			<polygon class="st8" points="387.48,289.54 374.77,282.83 387.48,289.54 			"/>
			<polygon class="st8" points="401.83,310.69 414.66,317.47 401.83,310.69 			"/>
			<polygon class="st8" points="333.3,291.39 320.52,284.63 333.3,291.39 			"/>
			<polygon class="st8" points="347.65,312.54 360.48,319.31 347.65,312.53 			"/>
			<polygon class="st8" points="293.29,283.79 306.05,290.53 293.29,283.78 			"/>
			<path class="st8" d="M266.25,269.49l-0.14-0.08L266.25,269.49z"/>
			<polygon class="st8" points="278.94,262.64 266.11,255.86 278.94,262.64 			"/>
			<path class="st8" d="M374.75,326.91l-0.09-0.05L374.75,326.91z"/>
			<polygon class="st8" points="387.48,320.08 374.65,313.3 387.48,320.09 			"/>
			<polygon class="st8" points="401.83,341.23 414.55,347.95 401.83,341.23 			"/>
			<polygon class="st13" points="476.98,218.17 478.82,217.2 343.06,146.37 291.13,173.8 292.97,174.77 343.06,148.31 			"/>
			<path class="st14" d="M476.98,218.17l-133.92-69.85l-50.09,26.46l133.92,69.85L476.98,218.17z M343.06,154.97l122.17,63.65
				l-38.34,20.25l-122.17-63.65L343.06,154.97z"/>
			<polygon class="st12" points="465.23,218.62 343.06,154.97 304.73,175.22 426.89,238.87 			"/>
			<path class="st11" d="M482.76,217.19l-139.7-72.91l-55.87,29.51l139.7,72.91L482.76,217.19z M291.13,173.8l51.93-27.43
				l135.76,70.83l-1.84,0.97l-50.08,26.46l-133.92-69.85L291.13,173.8z"/>
			<polygon class="st15" points="287.19,173.8 287.19,177.57 426.89,250.48 426.89,246.71 			"/>
			<polygon class="st13" points="482.76,217.19 426.89,246.71 426.89,250.48 482.76,220.97 			"/>
			<polygon class="st16" points="343.06,136.35 270.5,174.68 273.46,176.25 343.06,139.48 			"/>
			<polygon class="st17" points="279.11,202.8 278.39,202.42 267.2,196.51 267.2,207.75 280.21,214.62 293.12,221.45 293.84,221.83 
				305.03,227.75 305.03,216.5 292.03,209.63 			"/>
			<path class="st18" d="M279.66,201.94l-0.72-0.38l-12.83-6.78v13.55l13.55,7.16l12.92,6.83l0.72,0.38l12.81,6.77l0.02,0.01v-13.55
				l-13.55-7.16L279.66,201.94z M305.03,227.75l-11.19-5.91l-0.72-0.38l-12.92-6.83l-13-6.87v-11.24l11.19,5.92l0.72,0.38
				l12.92,6.83l13,6.87V227.75z"/>
			<polygon class="st17" points="279.11,233.35 278.39,232.97 267.2,227.05 267.2,238.29 280.21,245.17 293.12,251.99 
				293.84,252.37 305.03,258.29 305.03,247.05 292.03,240.17 			"/>
			<path class="st18" d="M292.57,239.31l-12.92-6.83l-0.72-0.38l-12.72-6.72l-0.11-0.06v13.55l13.55,7.16l12.92,6.83l0.72,0.38
				l12.83,6.78v-13.55l-0.07-0.03L292.57,239.31z M305.03,258.29l-11.19-5.91l-0.72-0.38l-12.92-6.83l-13-6.87v-11.24l11.19,5.92
				l0.72,0.38l12.92,6.83l13,6.87V258.29z"/>
			<polygon class="st17" points="279.11,263.89 278.39,263.51 267.2,257.59 267.2,268.83 280.21,275.71 293.12,282.54 
				293.84,282.91 305.03,288.83 305.03,277.59 292.03,270.71 			"/>
			<path class="st18" d="M279.66,263.02l-0.72-0.38l-12.83-6.78v13.55l0.14,0.07l13.41,7.09l12.92,6.83l0.72,0.38l12.76,6.75
				l0.07,0.03v-13.55l-13.55-7.16L279.66,263.02z M305.03,288.83l-11.19-5.91l-0.72-0.38l-12.92-6.83l-13-6.87v-11.24l11.19,5.92
				l0.72,0.38l12.92,6.83l13,6.87V288.83z"/>
			<polygon class="st17" points="333.47,292.64 332.75,292.26 321.57,286.34 321.57,288 321.57,297.58 334.57,304.46 347.48,311.29 
				348.2,311.66 359.39,317.58 359.39,306.34 346.39,299.46 			"/>
			<path class="st18" d="M334.02,291.77l-0.72-0.38l-12.78-6.76l-0.05-0.03V288v10.17l13.55,7.16l12.92,6.83l0.72,0.38l12.83,6.78
				v-13.55l-13.55-7.16L334.02,291.77z M359.39,317.58l-11.19-5.91l-0.72-0.38l-12.92-6.83l-13-6.87V288v-1.65l11.19,5.91l0.72,0.38
				l12.92,6.83l13,6.87V317.58z"/>
			<polygon class="st17" points="333.47,262.1 332.75,261.72 321.57,255.8 321.57,262.2 321.57,267.04 334.57,273.92 347.48,280.74 
				348.2,281.12 359.39,287.04 359.39,275.8 346.39,268.92 			"/>
			<path class="st18" d="M334.02,261.23l-0.72-0.38l-12.83-6.78v8.13v5.42l0.09,0.05l13.45,7.11l12.92,6.83l0.72,0.38l12.69,6.71
				l0.14,0.07v-13.55l-13.55-7.16L334.02,261.23z M359.39,287.04l-11.19-5.91l-0.72-0.38l-12.92-6.83l-13-6.87v-4.84v-6.4
				l11.19,5.92l0.72,0.38l12.92,6.83l13,6.87V287.04z"/>
			<polygon class="st17" points="333.47,231.55 332.75,231.17 321.57,225.26 321.57,230.3 321.57,236.5 334.57,243.37 347.48,250.2 
				348.2,250.58 359.39,256.5 359.39,245.26 346.39,238.38 			"/>
			<path class="st18" d="M346.94,237.52l-12.92-6.83l-0.72-0.38l-12.74-6.73l-0.09-0.05v6.78v6.78l13.55,7.16l12.92,6.83l0.72,0.38
				l12.83,6.78v-13.55l-0.14-0.07L346.94,237.52z M359.39,256.5l-11.19-5.91l-0.72-0.38l-12.92-6.83l-13-6.87v-6.2v-5.04l11.19,5.92
				l0.72,0.38l12.92,6.83l13,6.87V256.5z"/>
			<polygon class="st17" points="387.65,260.25 386.94,259.87 375.75,253.95 375.75,265.2 388.75,272.07 401.66,278.9 
				402.38,279.28 413.57,285.19 413.57,273.95 400.57,267.08 			"/>
			<path class="st18" d="M388.2,259.38l-0.72-0.38l-12.83-6.78v13.55l0.14,0.07l13.41,7.09l12.92,6.83l0.72,0.38l12.76,6.75
				l0.07,0.03v-13.55l-13.55-7.16L388.2,259.38z M413.57,285.19l-11.19-5.91l-0.72-0.38l-12.92-6.83l-13-6.87v-11.24l11.19,5.92
				l0.72,0.38l12.92,6.83l13,6.87V285.19z"/>
			<polygon class="st17" points="387.65,290.79 386.94,290.41 375.75,284.5 375.75,295.74 388.75,302.61 401.66,309.44 
				402.38,309.82 413.57,315.73 413.57,304.49 400.57,297.62 			"/>
			<path class="st18" d="M414.55,303.85l-13.43-7.1l-12.92-6.83l-0.72-0.38l-12.71-6.72l-0.12-0.06v13.55l13.55,7.16l12.92,6.83
				l0.72,0.38l12.83,6.78v-13.55L414.55,303.85z M413.57,315.73l-11.19-5.91l-0.72-0.38l-12.92-6.83l-13-6.87V284.5l11.19,5.91
				l0.72,0.38l12.92,6.83l13,6.87V315.73z"/>
			<polygon class="st17" points="387.65,321.33 386.94,320.95 375.75,315.04 375.75,326.28 388.75,333.15 401.66,339.98 
				402.38,340.36 413.57,346.27 413.57,335.03 400.57,328.16 			"/>
			<path class="st18" d="M388.2,320.47l-0.72-0.38l-12.83-6.78v13.55l0.09,0.05l13.45,7.11l12.92,6.83l0.72,0.38l12.72,6.72
				l0.11,0.06v-13.55l-13.55-7.16L388.2,320.47z M413.57,346.28l-11.19-5.91l-0.72-0.38l-12.92-6.83l-13-6.87v-11.24l11.19,5.92
				l0.72,0.38l12.92,6.83l13,6.87V346.28z"/>
			<polygon class="st19" points="491.95,307.33 453.03,327.9 453.03,340.3 491.95,319.73 			"/>
			<path class="st18" d="M451.93,342.03l41.1-21.73v-14.71l-41.1,21.73V342.03z M453.03,327.9l38.92-20.57v12.4l-38.92,20.57V327.9z
				"/>
			<polygon class="st19" points="453.03,309.76 491.94,289.19 491.94,276.79 453.03,297.36 			"/>
			<path class="st18" d="M451.93,311.49l41.1-21.73v-14.71l-41.1,21.73V311.49z M491.95,289.19l-38.92,20.57v-12.4l38.92-20.57
				V289.19z"/>
			<polygon class="st19" points="491.95,246.26 453.03,267.35 453.03,279.22 491.95,258.64 			"/>
			<path class="st18" d="M451.93,266.78v14.17l41.1-21.73v-13.84l0-0.88L451.93,266.78z M453.03,267.35l38.92-21.09v12.39
				l-38.92,20.57V267.35z"/>
			<g class="st1">
				<defs>
					<rect id="SVGID_9_" x="253.21" y="83" width="348.98" height="284.72"/>
				</defs>
				<clipPath id="SVGID_10_">
					<use xlink:href="#SVGID_9_"  style="overflow:visible;"/>
				</clipPath>
				<path class="st20" d="M601.12,323.01c0.01-0.01,0.02-0.02,0.04-0.04c-0.05,0.05-0.11,0.1-0.17,0.14
					C601.04,323.08,601.08,323.04,601.12,323.01"/>
				<path class="st21" d="M422.47,189.72c0-0.08-0.01-0.15-0.01-0.23l0,0.45C422.46,189.86,422.47,189.79,422.47,189.72"/>
				<path class="st21" d="M407.82,189.01c-0.08,0.23-0.12,0.47-0.12,0.71c0,0.25,0.05,0.49,0.13,0.72l0-0.57L407.82,189.01z"/>
				<path class="st22" d="M419.09,186.42l0.02,6.58c1.91-0.66,3.21-1.78,3.34-3.06l0-0.45l-0.26-57.53l-3.35-1.76L419.09,186.42z"/>
				<path class="st22" d="M419.72,96.35c-0.47,0.25-1.02,0.74-1.01,1.64l0.07,16.78l3.35,1.76l-0.09-20.07l-0.25-0.13
					C420.92,95.89,420.18,96.1,419.72,96.35"/>
				<path class="st21" d="M602.18,320.74l0,0.3v0.15c0.01-0.07,0.01-0.15,0.01-0.22C602.2,320.89,602.19,320.82,602.18,320.74"/>
				<path class="st22" d="M602.18,320.74l-0.43-119.98h0l-0.01-4.2c-0.05-6.52-2.02-12.79-5.52-18.25
					c-0.73-1.13-1.52-2.22-2.37-3.28c-0.72-0.89-1.48-1.74-2.28-2.57c-0.26-0.26-0.52-0.52-0.78-0.78
					c-0.63-0.61-1.29-1.21-1.97-1.78c3.46,3.08,6.08,6.85,7.68,11c0.79,2.05,1.32,4.19,1.58,6.38c0.09,0.72,0.15,1.44,0.18,2.16
					c0,0.07,0,0.15,0.01,0.22c0.1,2.93,0.18,6.16,0.21,9.62l-0.03-0.01l0.01,2.28l0.37,116.13l0.02,6.58c0,0,0.01,0,0.01,0
					c0.11-0.04,0.21-0.07,0.31-0.11c0.02-0.01,0.04-0.02,0.06-0.02c0.1-0.04,0.2-0.08,0.3-0.12c0.01,0,0.02-0.01,0.02-0.01
					c0.31-0.14,0.61-0.29,0.87-0.46c0.01,0,0.01-0.01,0.02-0.01c0.08-0.05,0.15-0.1,0.22-0.15c0.02-0.02,0.05-0.03,0.07-0.05
					c0.07-0.05,0.13-0.1,0.2-0.15c0.02-0.02,0.05-0.04,0.07-0.05c0.06-0.05,0.11-0.09,0.17-0.14c0.59-0.53,0.95-1.13,1.02-1.78
					v-0.15L602.18,320.74z"/>
				<path class="st20" d="M418.84,130.19l-4.01-2.11l0.16,51.37l0.12,6.34l0.02,7.84c1.47-0.01,2.83-0.24,3.97-0.63l-0.02-6.58
					L418.84,130.19z"/>
				<path class="st20" d="M588.01,319.44l0-4.39l-0.25-115.83v-0.19l-0.01-5.04c-0.08-9.56-5.77-18.42-14.87-23.12L426.62,94.84
					c0.01,0.01,0.02,0.02,0.03,0.04l-3.03-1.6c-1.52-0.79-3.27-0.92-4.87-0.41c-0.37,0.12-0.73,0.27-1.08,0.46
					c-0.58,0.31-1.08,0.7-1.5,1.14c-0.17,0.18-0.32,0.36-0.46,0.56c-0.63,0.88-0.97,1.92-0.96,3.03l0.04,14.61l3.99,2.1l-0.07-16.78
					c-0.01-0.9,0.55-1.39,1.01-1.64c0.47-0.25,1.21-0.46,2.06-0.02l0.25,0.13l152.24,80.13c7.89,4.08,12.83,11.77,12.89,20.06
					l0.26,124.32v0v0c0,0.02,0,0.03,0,0.05c0,0.11,0.01,0.22,0.03,0.33c0.01,0.07,0.03,0.13,0.05,0.2c0.01,0.05,0.02,0.1,0.04,0.14
					c0,0.01,0.01,0.02,0.01,0.04c0.01,0.03,0.03,0.07,0.04,0.1c0.04,0.1,0.09,0.2,0.15,0.3c0.01,0.03,0.03,0.05,0.05,0.08
					c0.06,0.1,0.13,0.2,0.21,0.3c0,0.01,0.01,0.01,0.01,0.02v0c0,0,0,0-0.01-0.01L588.01,319.44z"/>
				<path class="st20" d="M598.82,317.68l-0.37-116.13l-0.01-2.28l0.03,0.01c-0.03-3.45-0.11-6.69-0.21-9.62
					c0-0.07,0-0.15-0.01-0.22c-0.03-0.73-0.09-1.45-0.18-2.16c-0.26-2.2-0.8-4.33-1.59-6.38c-1.6-4.15-4.22-7.92-7.68-11
					c-2.22-1.87-4.69-3.53-7.37-4.92L428.96,84.72c-0.05-0.02-0.09-0.05-0.14-0.07c-9.54-4.83-21.37,1.55-21.37,11.52v0.16
					l0.05,12.5l0.47,0.25l-0.04-10.96c-0.04-4.22,2.31-8.02,6.28-10.17c3.98-2.14,8.75-2.18,12.76-0.1l149.27,77.6
					c5.51,2.85,10.48,6.68,13.71,11.7c3.21,5.01,4.57,11.04,4.62,16.81l0.01,5.31l0.27,117.78l0.01,4.39l0.01,3.45
					c1.16-0.01,2.25-0.15,3.22-0.41v0c0.1-0.03,0.2-0.06,0.29-0.09c0.01,0,0.02-0.01,0.03-0.01c0.14-0.04,0.28-0.09,0.41-0.13
					c0.01,0,0.01,0,0.02-0.01L598.82,317.68z"/>
				<path class="st20" d="M408.03,124.5l-0.47-0.25l0.26,64.75l0,0.86l0,0.57c0.1,0.29,0.26,0.56,0.47,0.82l-0.01-3.07L408.03,124.5
					z"/>
				<path class="st23" d="M594.84,317.05l-0.27-117.78l-0.01-5.31c-0.05-5.77-1.4-11.8-4.62-16.81c-3.22-5.02-8.2-8.85-13.71-11.7
					l-149.27-77.6c-4.02-2.08-8.79-2.04-12.76,0.1c-3.98,2.14-6.32,5.94-6.28,10.17l0.04,10.96l1.62,0.85l-0.05-11.58
					c-0.04-3.53,1.93-6.71,5.25-8.5c3.32-1.79,7.31-1.83,10.67-0.09l149.27,77.59c5.19,2.68,9.83,6.35,12.87,11.08
					c2.76,4.3,4.1,9.34,4.35,14.32c0,0.03,0,0.07,0.01,0.1c0.01,0.14,0.01,0.27,0.02,0.41c0.01,0.3,0.02,0.62,0.02,0.94l0.01,4.95
					v0.09l0.26,118.02l0.02,7.37c0.79,0.15,1.64,0.24,2.52,0.24c0.02,0,0.04,0,0.06,0h0l-0.01-3.45L594.84,317.05z"/>
				<path class="st23" d="M409.65,125.35l-1.62-0.85l0.25,63.68l0.01,3.08c0.38,0.47,0.94,0.9,1.62,1.26l-0.02-5.59L409.65,125.35z"
					/>
				<path class="st24" d="M592.01,199.27v-0.09l-0.01-4.95c0-0.33-0.01-0.64-0.02-0.94c0-0.14-0.01-0.27-0.02-0.41
					c0-0.03,0-0.07,0-0.1c-0.25-4.97-1.59-10.02-4.35-14.32c-3.04-4.73-7.68-8.4-12.87-11.08l-149.27-77.6
					c-3.36-1.74-7.35-1.71-10.67,0.09c-3.32,1.79-5.29,4.97-5.25,8.5l0.05,11.57l2.64,1.39l-0.05-12.99
					c-0.03-2.66,1.45-5.05,3.95-6.4c2.5-1.35,5.51-1.37,8.04-0.07l149.27,77.6c10.73,5.55,15.83,13.14,15.93,24.78l0.01,5.02
					l0.25,118.91l0.02,5.59c0,0,0,0,0,0c0.75,0.39,1.64,0.69,2.64,0.88l-0.02-7.37L592.01,199.27z"/>
				<path class="st24" d="M412.29,126.75l-2.64-1.39l0.24,61.57l0.02,5.59c0.75,0.39,1.65,0.69,2.65,0.89l-0.02-7.37L412.29,126.75z
					"/>
				<path class="st23" d="M589.38,199.27l-0.01-5.02c-0.09-11.64-5.2-19.22-15.93-24.78L424.17,91.87
					c-2.53-1.31-5.53-1.28-8.04,0.07c-2.5,1.35-3.98,3.74-3.95,6.4l0.05,12.99l2.56,1.35l-0.04-14.61
					c-0.01-1.11,0.33-2.15,0.96-3.03c0.14-0.2,0.29-0.38,0.46-0.56c0.42-0.45,0.92-0.83,1.5-1.14c0.35-0.19,0.71-0.34,1.08-0.46
					c1.6-0.51,3.35-0.38,4.87,0.41l3.01,1.56l146.27,76.03c9.09,4.71,14.79,13.57,14.86,23.12l0.01,5.04v0.19l0.25,115.83l0,4.39
					l0.01,3.08c0,0,0,0,0.01,0.01c0.38,0.47,0.94,0.9,1.62,1.25l-0.02-5.59L589.38,199.27z"/>
				<path class="st23" d="M414.99,179.46l-0.16-51.38l-2.54-1.34l0.24,59.29l0.02,7.37c0.79,0.15,1.64,0.24,2.52,0.24
					c0.02,0,0.04,0,0.06,0l-0.02-7.84L414.99,179.46z"/>
				<path class="st25" d="M568.53,341.26c0.01-0.01,0.02-0.02,0.04-0.04c-0.05,0.05-0.11,0.1-0.17,0.14
					C568.44,341.33,568.49,341.3,568.53,341.26"/>
				<path class="st21" d="M389.87,207.97c0-0.08-0.01-0.15-0.01-0.23l0,0.45C389.87,208.12,389.87,208.04,389.87,207.97"/>
				<path class="st21" d="M375.22,207.26c-0.08,0.23-0.12,0.47-0.12,0.71c0,0.25,0.05,0.49,0.13,0.72l0-0.57L375.22,207.26z"/>
				<path class="st26" d="M387.12,114.6c-0.47,0.25-1.02,0.74-1.01,1.64l0.39,88.43l0.02,6.58c1.91-0.66,3.21-1.78,3.34-3.06l0-0.45
					l-0.42-93.02l-0.25-0.13C388.33,114.14,387.59,114.35,387.12,114.6"/>
				<path class="st21" d="M569.59,339.45c0.01-0.07,0.01-0.15,0.01-0.22c0-0.08,0-0.16-0.01-0.23l0,0.3V339.45z"/>
				<path class="st26" d="M565.49,205.54c0.09,0.72,0.15,1.44,0.18,2.16c0,0.07,0,0.15,0.01,0.22c0.1,2.93,0.18,6.16,0.21,9.61
					l-0.03-0.01l0.01,2.28l0.37,116.13l0.02,6.58c0,0,0.01,0,0.01,0c0.11-0.04,0.21-0.07,0.31-0.11c0.02-0.01,0.04-0.02,0.06-0.02
					c0.1-0.04,0.2-0.08,0.3-0.12c0.01,0,0.01-0.01,0.02-0.01c0.31-0.14,0.61-0.29,0.87-0.46c0.01,0,0.01-0.01,0.02-0.01
					c0.08-0.05,0.15-0.1,0.22-0.15c0.02-0.02,0.05-0.03,0.07-0.05c0.07-0.05,0.13-0.1,0.2-0.15c0.02-0.02,0.05-0.04,0.07-0.05
					c0.06-0.05,0.11-0.09,0.17-0.14c0.59-0.53,0.95-1.13,1.02-1.78l0-0.15v-0.3l-0.43-119.98h0l-0.01-4.2
					c-0.05-6.52-2.02-12.79-5.52-18.25c-0.73-1.13-1.52-2.22-2.37-3.28c-0.72-0.88-1.48-1.74-2.28-2.57
					c-0.26-0.26-0.52-0.52-0.78-0.78c-0.63-0.61-1.29-1.21-1.97-1.78c3.46,3.08,6.08,6.85,7.68,11
					C564.69,201.2,565.23,203.34,565.49,205.54"/>
				<path class="st25" d="M555.42,337.69l0-4.39l-0.25-115.83v-0.19l-0.01-5.04c-0.08-9.56-5.77-18.42-14.86-23.12L394.03,113.1
					c0.01,0.01,0.02,0.02,0.03,0.04l-3.03-1.6c-1.52-0.79-3.27-0.92-4.87-0.41c-0.37,0.12-0.73,0.27-1.08,0.46
					c-0.58,0.31-1.08,0.7-1.5,1.14c-0.17,0.18-0.32,0.36-0.46,0.56c-0.63,0.88-0.97,1.92-0.96,3.03l0.25,59.71l0.12,28.02l0.02,7.84
					c1.47-0.01,2.83-0.24,3.97-0.64l-0.02-6.58l-0.39-88.44c-0.01-0.9,0.55-1.39,1.01-1.64c0.47-0.25,1.21-0.46,2.06-0.02l0.25,0.13
					l18.12,9.54l0.47,0.25l1.62,0.85l2.64,1.39l2.54,1.34l4.01,2.11l3.35,1.76l119.48,62.89c7.89,4.08,12.83,11.77,12.89,20.06
					l0.26,124.32v0v0c0,0.02,0,0.03,0,0.05c0,0.11,0.01,0.22,0.03,0.33c0.01,0.07,0.03,0.13,0.05,0.2c0.01,0.05,0.02,0.1,0.04,0.14
					c0,0.01,0.01,0.02,0.01,0.04c0.01,0.03,0.03,0.07,0.04,0.1c0.04,0.1,0.09,0.2,0.15,0.3c0.01,0.03,0.03,0.05,0.05,0.08
					c0.06,0.1,0.13,0.2,0.21,0.3c0,0.01,0.01,0.01,0.01,0.02v0c0,0,0,0,0-0.01L555.42,337.69z"/>
				<path class="st25" d="M414.79,112.67l-2.56-1.35l-2.64-1.39l-1.62-0.85l-0.47-0.25l-11.13-5.86c-0.05-0.02-0.09-0.05-0.14-0.07
					c-9.54-4.83-21.37,1.55-21.37,11.52v0.15l0.37,92.68l0,0.86l0,0.57c0.1,0.29,0.26,0.56,0.47,0.82l-0.01-3.08l-0.35-90.06
					c-0.04-4.22,2.31-8.02,6.28-10.17c3.97-2.14,8.74-2.18,12.76-0.1l149.27,77.59c5.51,2.85,10.48,6.68,13.71,11.7
					c3.21,5.01,4.57,11.04,4.62,16.81l0.01,5.31l0.27,117.78l0.01,4.39l0.01,3.44c1.16,0,2.25-0.15,3.22-0.41v0
					c0.1-0.03,0.2-0.06,0.29-0.09c0.01,0,0.02-0.01,0.03-0.01c0.14-0.04,0.28-0.09,0.41-0.13c0.01,0,0.01,0,0.02-0.01l-0.02-6.58
					l-0.37-116.13l-0.01-2.28l0.03,0.01c-0.03-3.45-0.11-6.69-0.21-9.62c0-0.07,0-0.15-0.01-0.22c-0.03-0.73-0.09-1.45-0.18-2.16
					c-0.26-2.2-0.8-4.33-1.58-6.38c-1.6-4.15-4.22-7.92-7.68-11c-2.22-1.87-4.69-3.53-7.37-4.92l-126.73-66.71l-3.35-1.76
					L414.79,112.67z"/>
				<path class="st24" d="M562.25,335.3l-0.27-117.78l-0.01-5.31c-0.05-5.77-1.4-11.8-4.62-16.81c-3.22-5.02-8.2-8.85-13.71-11.7
					l-149.27-77.6c-4.02-2.08-8.79-2.04-12.76,0.1c-3.98,2.14-6.32,5.94-6.28,10.17l0.35,90.06l0.01,3.08
					c0.38,0.47,0.94,0.9,1.62,1.26l-0.02-5.59l-0.35-88.57c-0.04-3.53,1.93-6.71,5.25-8.5c3.32-1.79,7.31-1.83,10.67-0.09
					l149.27,77.59c5.19,2.68,9.83,6.35,12.87,11.08c2.76,4.3,4.1,9.34,4.35,14.32c0,0.03,0,0.07,0.01,0.1
					c0.01,0.14,0.01,0.27,0.02,0.41c0.01,0.31,0.02,0.63,0.02,0.94l0.01,4.95v0.09l0.26,118.02l0.02,7.37
					c0.79,0.15,1.64,0.24,2.52,0.24c0.02,0,0.04,0,0.06,0h0l-0.01-3.45L562.25,335.3z"/>
				<path class="st27" d="M559.42,217.52v-0.09l-0.01-4.95c0-0.31-0.01-0.63-0.02-0.94c0-0.14-0.01-0.27-0.02-0.41
					c0-0.03,0-0.07-0.01-0.1c-0.25-4.97-1.59-10.02-4.35-14.32c-3.04-4.73-7.68-8.4-12.87-11.08l-149.27-77.6
					c-3.36-1.74-7.35-1.71-10.67,0.09c-3.32,1.79-5.29,4.97-5.25,8.5l0.35,88.57l0.02,5.59c0.75,0.39,1.65,0.69,2.65,0.89
					l-0.02-7.37l-0.36-87.7c-0.03-2.66,1.45-5.05,3.95-6.4c2.5-1.35,5.51-1.37,8.04-0.07l149.27,77.59
					c10.73,5.55,15.83,13.14,15.93,24.78l0.01,5.02l0.25,118.91l0.02,5.59c0,0,0,0,0,0c0.75,0.39,1.64,0.69,2.64,0.88l-0.02-7.37
					L559.42,217.52z"/>
				<path class="st24" d="M556.78,217.52l-0.01-5.02c-0.09-11.64-5.2-19.22-15.93-24.78l-149.27-77.59
					c-2.53-1.31-5.53-1.28-8.04,0.07c-2.5,1.35-3.98,3.74-3.95,6.4l0.36,87.7l0.02,7.37c0.79,0.15,1.64,0.23,2.52,0.23h0.06
					l-0.02-7.84l-0.12-28.02l-0.25-59.71c-0.01-1.11,0.33-2.15,0.96-3.03c0.14-0.2,0.29-0.38,0.46-0.56
					c0.42-0.45,0.92-0.83,1.5-1.14c0.35-0.19,0.71-0.34,1.08-0.46c1.6-0.51,3.35-0.38,4.87,0.41l3.01,1.56l146.27,76.03
					c9.09,4.71,14.79,13.57,14.86,23.12l0.01,5.04v0.19l0.25,115.83l0,4.39l0.01,3.08c0,0,0,0,0.01,0.01
					c0.38,0.47,0.94,0.9,1.62,1.25l-0.02-5.59L556.78,217.52z"/>
			</g>
		</g>
	</g>
</g>
</svg>
