<?xml version="1.0" encoding="utf-8"?>
<!-- Generator: Adobe Illustrator 25.1.0, SVG Export Plug-In . SVG Version: 6.00 Build 0)  -->
<svg version="1.1" id="Layer_1" xmlns="http://www.w3.org/2000/svg" xmlns:xlink="http://www.w3.org/1999/xlink" x="0px" y="0px"
	 viewBox="0 0 115 96" style="enable-background:new 0 0 115 96;" xml:space="preserve">
<style type="text/css">
	.st0{fill:url(#SVGID_1_);}
	.st1{fill:#FFFFFF;}
	.st2{fill:#FEFEFE;}
	.st3{fill:#FDFDFD;}
	.st4{fill:#FCFCFC;}
	.st5{fill:#FBFBFB;}
	.st6{fill:#FAFAFA;}
	.st7{fill:#F9F9F9;}
	.st8{fill:#F8F8F8;}
	.st9{fill:#F7F7F7;}
	.st10{fill:#F6F6F6;}
	.st11{fill:#F5F5F5;}
	.st12{fill:#F4F4F4;}
	.st13{fill:#F3F3F3;}
	.st14{fill:#F2F2F2;}
	.st15{fill:#F1F1F1;}
	.st16{fill:#F0F0F0;}
	.st17{fill:#EFEFEF;}
	.st18{fill:#EEEEEE;}
	.st19{fill:#EDEDED;}
	.st20{fill:#ECECEC;}
	.st21{fill:#EBEBEB;}
	.st22{fill:#EAEAEA;}
	.st23{fill:#E9E9E9;}
	.st24{fill:#E8E8E8;}
	.st25{fill:#E7E7E7;}
	.st26{fill:#E6E6E6;}
	.st27{fill:#E5E5E5;}
	.st28{fill:#E4E4E4;}
	.st29{fill:#E3E3E3;}
	.st30{fill:#E2E2E2;}
	.st31{fill:#E1E1E1;}
	.st32{fill:#E0E0E0;}
	.st33{fill:#DFDFDF;}
	.st34{fill:#DEDEDE;}
	.st35{fill:#DDDDDD;}
	.st36{fill:#DCDCDC;}
	.st37{fill:#DBDBDB;}
	.st38{fill:#DADADA;}
	.st39{fill:#D9D9D9;}
	.st40{fill:#D8D8D8;}
	.st41{fill:#D7D7D7;}
	.st42{fill:#D6D6D6;}
	.st43{fill:#D5D5D5;}
	.st44{fill:#D4D4D4;}
	.st45{fill:#D3D3D3;}
	.st46{fill:#D2D2D2;}
	.st47{fill:#D1D1D1;}
	.st48{fill:#D0D0D0;}
	.st49{fill:#CFCFCF;}
	.st50{fill:#CECECE;}
	.st51{fill:#CDCDCD;}
	.st52{fill:#CCCCCC;}
	.st53{fill:#CBCBCB;}
	.st54{fill:#CACACA;}
	.st55{fill:#C9C9C9;}
	.st56{fill:#C8C8C8;}
	.st57{fill:#C7C7C7;}
	.st58{fill:#C6C6C6;}
	.st59{fill:#C5C5C5;}
	.st60{fill:#C4C4C4;}
	.st61{fill:#C3C3C3;}
	.st62{fill:#C2C2C2;}
	.st63{fill:#C1C1C1;}
	.st64{fill:#C0C0C0;}
	.st65{fill:#BFBFBF;}
	.st66{fill:#BEBEBE;}
	.st67{fill:#BDBDBD;}
	.st68{fill:#BCBCBC;}
	.st69{fill:#BBBBBB;}
	.st70{fill:#BABABA;}
	.st71{fill:#B9B9B9;}
	.st72{fill:#B8B8B8;}
	.st73{fill:#B7B7B7;}
	.st74{fill:#B6B6B6;}
	.st75{fill:#B5B5B5;}
	.st76{fill:#B4B4B4;}
	.st77{fill:#B3B3B3;}
	.st78{fill:#B2B2B2;}
	.st79{fill:#B1B1B1;}
	.st80{fill:#B0B0B0;}
	.st81{fill:#AFAFAF;}
	.st82{fill:#AEAEAE;}
	.st83{fill:#ADADAD;}
	.st84{fill:#ACACAC;}
	.st85{fill:#ABABAB;}
	.st86{fill:#AAAAAA;}
	.st87{fill:#A9A9A9;}
	.st88{fill:#A8A8A8;}
	.st89{fill:#A7A7A7;}
	.st90{fill:#A6A6A6;}
	.st91{fill:#A5A5A5;}
	.st92{fill:#A4A4A4;}
	.st93{fill:#A3A3A3;}
	.st94{fill:#A2A2A2;}
	.st95{fill:#A1A1A1;}
	.st96{fill:#A0A0A0;}
	.st97{fill:#9F9F9F;}
	.st98{fill:#9E9E9E;}
	.st99{fill:#9D9D9D;}
	.st100{fill:#9C9C9C;}
	.st101{fill:#9B9B9B;}
	.st102{fill:#9A9A9A;}
	.st103{fill:#999999;}
	.st104{fill:#989898;}
	.st105{fill:#979797;}
	.st106{fill:#969696;}
	.st107{fill:#959595;}
	.st108{fill:#949494;}
	.st109{fill:#939393;}
	.st110{fill:#929292;}
	.st111{fill:#919191;}
	.st112{fill:#909090;}
	.st113{fill:#8F8F8F;}
	.st114{fill:#8E8E8E;}
	.st115{fill:#8D8D8D;}
	.st116{fill:#8C8C8C;}
	.st117{fill:#8B8B8B;}
	.st118{fill:#8A8A8A;}
	.st119{fill:#898989;}
	.st120{fill:#888888;}
	.st121{fill:#878787;}
	.st122{fill:#868686;}
	.st123{fill:#858585;}
	.st124{fill:#848484;}
	.st125{fill:#838383;}
	.st126{fill:#828282;}
	.st127{fill:#818181;}
	.st128{fill:#808080;}
	.st129{fill:#7F7F7F;}
	.st130{fill:#7E7E7E;}
	.st131{fill:#7D7D7D;}
	.st132{fill:#7C7C7C;}
	.st133{fill:#7B7B7B;}
	.st134{fill:#7A7A7A;}
	.st135{fill:#797979;}
	.st136{fill:#787878;}
	.st137{fill:#777777;}
	.st138{fill:#767676;}
	.st139{fill:#757575;}
	.st140{fill:#747474;}
	.st141{fill:#737373;}
	.st142{fill:#727272;}
	.st143{fill:#717171;}
	.st144{fill:#707070;}
	.st145{fill:#6F6F6F;}
	.st146{fill:#6E6E6E;}
	.st147{fill:#6D6D6D;}
	.st148{fill:#6C6C6C;}
	.st149{fill:#6B6B6B;}
	.st150{fill:#6A6A6A;}
	.st151{fill:#696969;}
	.st152{fill:#686868;}
	.st153{fill:#676767;}
	.st154{fill:#666666;}
	.st155{fill:#656565;}
	.st156{fill:#646464;}
	.st157{fill:#636363;}
	.st158{fill:#626262;}
	.st159{fill:#616161;}
	.st160{fill:#606060;}
	.st161{fill:#5F5F5F;}
	.st162{fill:#5E5E5E;}
	.st163{fill:#5D5D5D;}
	.st164{fill:#5C5C5C;}
	.st165{fill:#5B5B5B;}
	.st166{fill:#5A5A5A;}
	.st167{fill:#595959;}
	.st168{fill:#585858;}
	.st169{fill:#575757;}
	.st170{fill:#565656;}
	.st171{fill:#555555;}
	.st172{fill:#545454;}
	.st173{fill:#535353;}
	.st174{fill:#525252;}
	.st175{fill:#515151;}
	.st176{fill:#505050;}
	.st177{fill:#4F4F4F;}
	.st178{fill:#4E4E4E;}
	.st179{fill:#4D4D4D;}
	.st180{fill:#4C4C4C;}
	.st181{fill:#4B4B4B;}
	.st182{fill:#4A4A4A;}
	.st183{fill:#494949;}
	.st184{fill:#484848;}
	.st185{fill:#474747;}
	.st186{fill:#464646;}
	.st187{fill:#454545;}
	.st188{fill:#444444;}
	.st189{fill:#434343;}
	.st190{fill:#424242;}
	.st191{fill:#414141;}
	.st192{fill:#404040;}
	.st193{fill:#3F3F3F;}
	.st194{fill:#3E3E3E;}
	.st195{fill:#3D3D3D;}
	.st196{fill:#3C3C3C;}
	.st197{fill:#3B3B3B;}
	.st198{fill:#3A3A3A;}
	.st199{fill:#393939;}
	.st200{fill:#383838;}
	.st201{fill:#373737;}
	.st202{fill:#363636;}
	.st203{fill:#353535;}
	.st204{fill:#343434;}
	.st205{fill:#333333;}
	.st206{fill:#323232;}
	.st207{fill:#313131;}
	.st208{fill:#303030;}
	.st209{fill:#2F2F2F;}
	.st210{fill:#2E2E2E;}
	.st211{fill:#2D2D2D;}
	.st212{fill:#2C2C2C;}
	.st213{fill:#2B2B2B;}
	.st214{fill:#2A2A2A;}
	.st215{fill:#292929;}
	.st216{fill:#282828;}
	.st217{fill:#272727;}
	.st218{fill:#262626;}
	.st219{fill:#252525;}
	.st220{fill:#242424;}
	.st221{fill:#232323;}
	.st222{fill:#222222;}
	.st223{fill:#212121;}
	.st224{fill:#202020;}
	.st225{fill:#1F1F1F;}
	.st226{fill:#1E1E1E;}
	.st227{fill:#1D1D1D;}
	.st228{fill:#1C1C1C;}
	.st229{fill:#AAB7B7;}
	.st230{fill:#DBE56B;}
	.st231{fill:#D35400;}
	.st232{fill:#7BA525;}
	.st233{fill:#9BBE23;}
	.st234{fill:#C3DE59;}
	.st235{fill:#698C15;}
	.st236{fill:#D8EF73;}
	.st237{fill:#566472;}
	.st238{fill:#C1382A;}
	.st239{fill:#87201B;}
	.st240{fill:#991A17;}
	.st241{fill:#EFF3F3;}
	.st242{fill:#BDC3C7;}
	.st243{fill:#61913D;}
	.st244{fill:#9BC04E;}
	.st245{fill:#BAD950;}
	.st246{fill:#E4F991;}
	.st247{fill:#15D195;}
</style>
<g>
	<g>
		
			<radialGradient id="SVGID_1_" cx="-1110.2051" cy="-1950.1296" r="21.6071" gradientTransform="matrix(0.2253 0 0 0.1256 357.5025 300.5514)" gradientUnits="userSpaceOnUse">
			<stop  offset="0" style="stop-color:#1C1C1C"/>
			<stop  offset="0.1002" style="stop-color:#4B4B4B"/>
			<stop  offset="0.2173" style="stop-color:#7A7A7A"/>
			<stop  offset="0.3382" style="stop-color:#A3A3A3"/>
			<stop  offset="0.461" style="stop-color:#C4C4C4"/>
			<stop  offset="0.5864" style="stop-color:#DEDEDE"/>
			<stop  offset="0.7153" style="stop-color:#F1F1F1"/>
			<stop  offset="0.85" style="stop-color:#FBFBFB"/>
			<stop  offset="1" style="stop-color:#FFFFFF"/>
		</radialGradient>
		<path class="st0" d="M112.2,55.6c0,1.5-2.2,2.7-4.9,2.7c-2.7,0-4.9-1.2-4.9-2.7c0-1.5,2.2-2.7,4.9-2.7
			C110.1,52.9,112.2,54.1,112.2,55.6z"/>
		<g>
			<polygon class="st1" points="56.1,93.2 110.2,62.1 56.1,31 2,62.1 			"/>
			<polygon class="st2" points="56.1,93.1 110.1,62.1 56.1,31.1 2.1,62.1 			"/>
			<polygon class="st3" points="56.1,93.1 110,62.1 56.1,31.1 2.2,62.1 			"/>
			<polygon class="st4" points="56.1,93 110,62.1 56.1,31.2 2.3,62.1 			"/>
			<polygon class="st5" points="56.1,93 109.9,62.1 56.1,31.2 2.4,62.1 			"/>
			<polygon class="st6" points="56.1,92.9 109.8,62.1 56.1,31.3 2.5,62.1 			"/>
			<polygon class="st7" points="56.1,92.8 109.7,62.1 56.1,31.3 2.6,62.1 			"/>
			<polygon class="st8" points="56.1,92.8 109.6,62.1 56.1,31.4 2.7,62.1 			"/>
			<polygon class="st9" points="56.1,92.7 109.5,62.1 56.1,31.5 2.8,62.1 			"/>
			<polygon class="st10" points="56.1,92.7 109.4,62.1 56.1,31.5 2.8,62.1 			"/>
			<polygon class="st11" points="56.1,92.6 109.3,62.1 56.1,31.6 2.9,62.1 			"/>
			<polygon class="st12" points="56.1,92.6 109.2,62.1 56.1,31.6 3,62.1 			"/>
			<polygon class="st13" points="56.1,92.5 109.1,62.1 56.1,31.7 3.1,62.1 			"/>
			<polygon class="st14" points="56.1,92.5 109,62.1 56.1,31.7 3.2,62.1 			"/>
			<polygon class="st15" points="56.1,92.4 108.9,62.1 56.1,31.8 3.3,62.1 			"/>
			<polygon class="st16" points="56.1,92.3 108.8,62.1 56.1,31.8 3.4,62.1 			"/>
			<polygon class="st17" points="56.1,92.3 108.7,62.1 56.1,31.9 3.5,62.1 			"/>
			<polygon class="st18" points="56.1,92.2 108.6,62.1 56.1,32 3.6,62.1 			"/>
			<polygon class="st19" points="56.1,92.2 108.5,62.1 56.1,32 3.7,62.1 			"/>
			<polygon class="st20" points="56.1,92.1 108.4,62.1 56.1,32.1 3.8,62.1 			"/>
			<polygon class="st21" points="56.1,92.1 108.3,62.1 56.1,32.1 3.9,62.1 			"/>
			<polygon class="st22" points="56.1,92 108.2,62.1 56.1,32.2 4,62.1 			"/>
			<polygon class="st23" points="56.1,92 108.1,62.1 56.1,32.2 4.1,62.1 			"/>
			<polygon class="st24" points="56.1,91.9 108,62.1 56.1,32.3 4.2,62.1 			"/>
			<polygon class="st25" points="56.1,91.8 107.9,62.1 56.1,32.3 4.3,62.1 			"/>
			<polygon class="st26" points="56.1,91.8 107.8,62.1 56.1,32.4 4.4,62.1 			"/>
			<polygon class="st27" points="56.1,91.7 107.7,62.1 56.1,32.5 4.5,62.1 			"/>
			<polygon class="st28" points="56.1,91.7 107.6,62.1 56.1,32.5 4.6,62.1 			"/>
			<polygon class="st29" points="56.1,91.6 107.5,62.1 56.1,32.6 4.7,62.1 			"/>
			<polygon class="st30" points="56.1,91.6 107.4,62.1 56.1,32.6 4.8,62.1 			"/>
			<polygon class="st31" points="56.1,91.5 107.3,62.1 56.1,32.7 4.9,62.1 			"/>
			<polygon class="st32" points="56.1,91.5 107.2,62.1 56.1,32.7 5,62.1 			"/>
			<polygon class="st33" points="56.1,91.4 107.1,62.1 56.1,32.8 5.1,62.1 			"/>
			<polygon class="st34" points="56.1,91.3 107,62.1 56.1,32.8 5.2,62.1 			"/>
			<polygon class="st35" points="56.1,91.3 106.9,62.1 56.1,32.9 5.3,62.1 			"/>
			<polygon class="st36" points="56.1,91.2 106.8,62.1 56.1,33 5.4,62.1 			"/>
			<polygon class="st37" points="56.1,91.2 106.7,62.1 56.1,33 5.5,62.1 			"/>
			<polygon class="st38" points="56.1,91.1 106.7,62.1 56.1,33.1 5.6,62.1 			"/>
			<polygon class="st39" points="56.1,91.1 106.6,62.1 56.1,33.1 5.7,62.1 			"/>
			<polygon class="st40" points="56.1,91 106.5,62.1 56.1,33.2 5.8,62.1 			"/>
			<polygon class="st41" points="56.1,91 106.4,62.1 56.1,33.2 5.9,62.1 			"/>
			<polygon class="st42" points="56.1,90.9 106.3,62.1 56.1,33.3 6,62.1 			"/>
			<polygon class="st43" points="56.1,90.8 106.2,62.1 56.1,33.4 6.1,62.1 			"/>
			<polygon class="st44" points="56.1,90.8 106.1,62.1 56.1,33.4 6.1,62.1 			"/>
			<polygon class="st45" points="56.1,90.7 106,62.1 56.1,33.5 6.2,62.1 			"/>
			<polygon class="st46" points="56.1,90.7 105.9,62.1 56.1,33.5 6.3,62.1 			"/>
			<polygon class="st47" points="56.1,90.6 105.8,62.1 56.1,33.6 6.4,62.1 			"/>
			<polygon class="st48" points="56.1,90.6 105.7,62.1 56.1,33.6 6.5,62.1 			"/>
			<polygon class="st49" points="56.1,90.5 105.6,62.1 56.1,33.7 6.6,62.1 			"/>
			<polygon class="st50" points="56.1,90.5 105.5,62.1 56.1,33.7 6.7,62.1 			"/>
			<polygon class="st51" points="56.1,90.4 105.4,62.1 56.1,33.8 6.8,62.1 			"/>
			<polygon class="st52" points="56.1,90.3 105.3,62.1 56.1,33.9 6.9,62.1 			"/>
			<polygon class="st53" points="56.1,90.3 105.2,62.1 56.1,33.9 7,62.1 			"/>
			<polygon class="st54" points="56.1,90.2 105.1,62.1 56.1,34 7.1,62.1 			"/>
			<polygon class="st55" points="56.1,90.2 105,62.1 56.1,34 7.2,62.1 			"/>
			<polygon class="st56" points="56.1,90.1 104.9,62.1 56.1,34.1 7.3,62.1 			"/>
			<polygon class="st57" points="56.1,90.1 104.8,62.1 56.1,34.1 7.4,62.1 			"/>
			<polygon class="st58" points="56.1,90 104.7,62.1 56.1,34.2 7.5,62.1 			"/>
			<polygon class="st59" points="56.1,90 104.6,62.1 56.1,34.2 7.6,62.1 			"/>
			<polygon class="st60" points="56.1,89.9 104.5,62.1 56.1,34.3 7.7,62.1 			"/>
			<polygon class="st61" points="56.1,89.8 104.4,62.1 56.1,34.4 7.8,62.1 			"/>
			<polygon class="st62" points="56.1,89.8 104.3,62.1 56.1,34.4 7.9,62.1 			"/>
			<polygon class="st63" points="56.1,89.7 104.2,62.1 56.1,34.5 8,62.1 			"/>
			<polygon class="st64" points="56.1,89.7 104.1,62.1 56.1,34.5 8.1,62.1 			"/>
			<polygon class="st65" points="56.1,89.6 104,62.1 56.1,34.6 8.2,62.1 			"/>
			<polygon class="st66" points="56.1,89.6 103.9,62.1 56.1,34.6 8.3,62.1 			"/>
			<polygon class="st67" points="56.1,89.5 103.8,62.1 56.1,34.7 8.4,62.1 			"/>
			<polygon class="st68" points="56.1,89.5 103.7,62.1 56.1,34.7 8.5,62.1 			"/>
			<polygon class="st69" points="56.1,89.4 103.6,62.1 56.1,34.8 8.6,62.1 			"/>
			<polygon class="st70" points="56.1,89.3 103.5,62.1 56.1,34.9 8.7,62.1 			"/>
			<polygon class="st71" points="56.1,89.3 103.5,62.1 56.1,34.9 8.8,62.1 			"/>
			<polygon class="st72" points="56.1,89.2 103.4,62.1 56.1,35 8.9,62.1 			"/>
			<polygon class="st73" points="56.1,89.2 103.3,62.1 56.1,35 9,62.1 			"/>
			<polygon class="st74" points="56.1,89.1 103.2,62.1 56.1,35.1 9.1,62.1 			"/>
			<polygon class="st75" points="56.1,89.1 103.1,62.1 56.1,35.1 9.2,62.1 			"/>
			<polygon class="st76" points="56.1,89 103,62.1 56.1,35.2 9.3,62.1 			"/>
			<polygon class="st77" points="56.1,88.9 102.9,62.1 56.1,35.2 9.3,62.1 			"/>
			<polygon class="st78" points="56.1,88.9 102.8,62.1 56.1,35.3 9.4,62.1 			"/>
			<polygon class="st79" points="56.1,88.8 102.7,62.1 56.1,35.4 9.5,62.1 			"/>
			<polygon class="st80" points="56.1,88.8 102.6,62.1 56.1,35.4 9.6,62.1 			"/>
			<polygon class="st81" points="56.1,88.7 102.5,62.1 56.1,35.5 9.7,62.1 			"/>
			<polygon class="st82" points="56.1,88.7 102.4,62.1 56.1,35.5 9.8,62.1 			"/>
			<polygon class="st83" points="56.1,88.6 102.3,62.1 56.1,35.6 9.9,62.1 			"/>
			<polygon class="st84" points="56.1,88.6 102.2,62.1 56.1,35.6 10,62.1 			"/>
			<polygon class="st85" points="56.1,88.5 102.1,62.1 56.1,35.7 10.1,62.1 			"/>
			<polygon class="st86" points="56.1,88.4 102,62.1 56.1,35.7 10.2,62.1 			"/>
			<polygon class="st87" points="56.1,88.4 101.9,62.1 56.1,35.8 10.3,62.1 			"/>
			<polygon class="st88" points="56.1,88.3 101.8,62.1 56.1,35.9 10.4,62.1 			"/>
			<polygon class="st89" points="56.1,88.3 101.7,62.1 56.1,35.9 10.5,62.1 			"/>
			<polygon class="st90" points="56.1,88.2 101.6,62.1 56.1,36 10.6,62.1 			"/>
			<polygon class="st91" points="56.1,88.2 101.5,62.1 56.1,36 10.7,62.1 			"/>
			<polygon class="st92" points="56.1,88.1 101.4,62.1 56.1,36.1 10.8,62.1 			"/>
			<polygon class="st93" points="56.1,88.1 101.3,62.1 56.1,36.1 10.9,62.1 			"/>
			<polygon class="st94" points="56.1,88 101.2,62.1 56.1,36.2 11,62.1 			"/>
			<polygon class="st95" points="56.1,87.9 101.1,62.1 56.1,36.2 11.1,62.1 			"/>
			<polygon class="st96" points="56.1,87.9 101,62.1 56.1,36.3 11.2,62.1 			"/>
			<polygon class="st97" points="56.1,87.8 100.9,62.1 56.1,36.4 11.3,62.1 			"/>
			<polygon class="st98" points="56.1,87.8 100.8,62.1 56.1,36.4 11.4,62.1 			"/>
			<polygon class="st99" points="56.1,87.7 100.7,62.1 56.1,36.5 11.5,62.1 			"/>
			<polygon class="st100" points="56.1,87.7 100.6,62.1 56.1,36.5 11.6,62.1 			"/>
			<polygon class="st101" points="56.1,87.6 100.5,62.1 56.1,36.6 11.7,62.1 			"/>
			<polygon class="st102" points="56.1,87.6 100.4,62.1 56.1,36.6 11.8,62.1 			"/>
			<polygon class="st103" points="56.1,87.5 100.3,62.1 56.1,36.7 11.9,62.1 			"/>
			<polygon class="st104" points="56.1,87.4 100.2,62.1 56.1,36.7 12,62.1 			"/>
			<polygon class="st105" points="56.1,87.4 100.2,62.1 56.1,36.8 12.1,62.1 			"/>
			<polygon class="st106" points="56.1,87.3 100.1,62.1 56.1,36.9 12.2,62.1 			"/>
			<polygon class="st107" points="56.1,87.3 100,62.1 56.1,36.9 12.3,62.1 			"/>
			<polygon class="st108" points="56.1,87.2 99.9,62.1 56.1,37 12.4,62.1 			"/>
			<polygon class="st109" points="56.1,87.2 99.8,62.1 56.1,37 12.5,62.1 			"/>
			<polygon class="st110" points="56.1,87.1 99.7,62.1 56.1,37.1 12.6,62.1 			"/>
			<polygon class="st111" points="56.1,87.1 99.6,62.1 56.1,37.1 12.6,62.1 			"/>
			<polygon class="st112" points="56.1,87 99.5,62.1 56.1,37.2 12.7,62.1 			"/>
			<polygon class="st113" points="56.1,86.9 99.4,62.1 56.1,37.3 12.8,62.1 			"/>
			<polygon class="st114" points="56.1,86.9 99.3,62.1 56.1,37.3 12.9,62.1 			"/>
			<polygon class="st115" points="56.1,86.8 99.2,62.1 56.1,37.4 13,62.1 			"/>
			<polygon class="st116" points="56.1,86.8 99.1,62.1 56.1,37.4 13.1,62.1 			"/>
			<polygon class="st117" points="56.1,86.7 99,62.1 56.1,37.5 13.2,62.1 			"/>
			<polygon class="st118" points="56.1,86.7 98.9,62.1 56.1,37.5 13.3,62.1 			"/>
			<polygon class="st119" points="56.1,86.6 98.8,62.1 56.1,37.6 13.4,62.1 			"/>
			<polygon class="st120" points="56.1,86.6 98.7,62.1 56.1,37.6 13.5,62.1 			"/>
			<polygon class="st121" points="56.1,86.5 98.6,62.1 56.1,37.7 13.6,62.1 			"/>
			<polygon class="st122" points="56.1,86.4 98.5,62.1 56.1,37.8 13.7,62.1 			"/>
			<polygon class="st123" points="56.1,86.4 98.4,62.1 56.1,37.8 13.8,62.1 			"/>
			<polygon class="st124" points="56.1,86.3 98.3,62.1 56.1,37.9 13.9,62.1 			"/>
			<polygon class="st125" points="56.1,86.3 98.2,62.1 56.1,37.9 14,62.1 			"/>
			<polygon class="st126" points="56.1,86.2 98.1,62.1 56.1,38 14.1,62.1 			"/>
			<polygon class="st127" points="56.1,86.2 98,62.1 56.1,38 14.2,62.1 			"/>
			<polygon class="st128" points="56.1,86.1 97.9,62.1 56.1,38.1 14.3,62.1 			"/>
			<polygon class="st129" points="56.1,86.1 97.8,62.1 56.1,38.1 14.4,62.1 			"/>
			<polygon class="st130" points="56.1,86 97.7,62.1 56.1,38.2 14.5,62.1 			"/>
			<polygon class="st131" points="56.1,85.9 97.6,62.1 56.1,38.3 14.6,62.1 			"/>
			<polygon class="st132" points="56.1,85.9 97.5,62.1 56.1,38.3 14.7,62.1 			"/>
			<polygon class="st133" points="56.1,85.8 97.4,62.1 56.1,38.4 14.8,62.1 			"/>
			<polygon class="st134" points="56.1,85.8 97.3,62.1 56.1,38.4 14.9,62.1 			"/>
			<polygon class="st135" points="56.1,85.7 97.2,62.1 56.1,38.5 15,62.1 			"/>
			<polygon class="st136" points="56.1,85.7 97.1,62.1 56.1,38.5 15.1,62.1 			"/>
			<polygon class="st137" points="56.1,85.6 97,62.1 56.1,38.6 15.2,62.1 			"/>
			<polygon class="st138" points="56.1,85.6 97,62.1 56.1,38.6 15.3,62.1 			"/>
			<polygon class="st139" points="56.1,85.5 96.9,62.1 56.1,38.7 15.4,62.1 			"/>
			<polygon class="st140" points="56.1,85.4 96.8,62.1 56.1,38.8 15.5,62.1 			"/>
			<polygon class="st141" points="56.1,85.4 96.7,62.1 56.1,38.8 15.6,62.1 			"/>
			<polygon class="st142" points="56.1,85.3 96.6,62.1 56.1,38.9 15.7,62.1 			"/>
			<polygon class="st143" points="56.1,85.3 96.5,62.1 56.1,38.9 15.8,62.1 			"/>
			<polygon class="st144" points="56.1,85.2 96.4,62.1 56.1,39 15.8,62.1 			"/>
			<polygon class="st145" points="56.1,85.2 96.3,62.1 56.1,39 15.9,62.1 			"/>
			<polygon class="st146" points="56.1,85.1 96.2,62.1 56.1,39.1 16,62.1 			"/>
			<polygon class="st147" points="56.1,85 96.1,62.1 56.1,39.1 16.1,62.1 			"/>
			<polygon class="st148" points="56.1,85 96,62.1 56.1,39.2 16.2,62.1 			"/>
			<polygon class="st149" points="56.1,84.9 95.9,62.1 56.1,39.3 16.3,62.1 			"/>
			<polygon class="st150" points="56.1,84.9 95.8,62.1 56.1,39.3 16.4,62.1 			"/>
			<polygon class="st151" points="56.1,84.8 95.7,62.1 56.1,39.4 16.5,62.1 			"/>
			<polygon class="st152" points="56.1,84.8 95.6,62.1 56.1,39.4 16.6,62.1 			"/>
			<polygon class="st153" points="56.1,84.7 95.5,62.1 56.1,39.5 16.7,62.1 			"/>
			<polygon class="st154" points="56.1,84.7 95.4,62.1 56.1,39.5 16.8,62.1 			"/>
			<polygon class="st155" points="56.1,84.6 95.3,62.1 56.1,39.6 16.9,62.1 			"/>
			<polygon class="st156" points="56.1,84.5 95.2,62.1 56.1,39.6 17,62.1 			"/>
			<polygon class="st157" points="56.1,84.5 95.1,62.1 56.1,39.7 17.1,62.1 			"/>
			<polygon class="st158" points="56.1,84.4 95,62.1 56.1,39.8 17.2,62.1 			"/>
			<polygon class="st159" points="56.1,84.4 94.9,62.1 56.1,39.8 17.3,62.1 			"/>
			<polygon class="st160" points="56.1,84.3 94.8,62.1 56.1,39.9 17.4,62.1 			"/>
			<polygon class="st161" points="56.1,84.3 94.7,62.1 56.1,39.9 17.5,62.1 			"/>
			<polygon class="st162" points="56.1,84.2 94.6,62.1 56.1,40 17.6,62.1 			"/>
			<polygon class="st163" points="56.1,84.2 94.5,62.1 56.1,40 17.7,62.1 			"/>
			<polygon class="st164" points="56.1,84.1 94.4,62.1 56.1,40.1 17.8,62.1 			"/>
			<polygon class="st165" points="56.1,84 94.3,62.1 56.1,40.1 17.9,62.1 			"/>
			<polygon class="st166" points="56.1,84 94.2,62.1 56.1,40.2 18,62.1 			"/>
			<polygon class="st167" points="56.1,83.9 94.1,62.1 56.1,40.3 18.1,62.1 			"/>
			<polygon class="st168" points="56.1,83.9 94,62.1 56.1,40.3 18.2,62.1 			"/>
			<polygon class="st169" points="56.1,83.8 93.9,62.1 56.1,40.4 18.3,62.1 			"/>
			<polygon class="st170" points="56.1,83.8 93.8,62.1 56.1,40.4 18.4,62.1 			"/>
			<polygon class="st171" points="56.1,83.7 93.7,62.1 56.1,40.5 18.5,62.1 			"/>
			<polygon class="st172" points="56.1,83.7 93.7,62.1 56.1,40.5 18.6,62.1 			"/>
			<polygon class="st173" points="56.1,83.6 93.6,62.1 56.1,40.6 18.7,62.1 			"/>
			<polygon class="st174" points="56.1,83.5 93.5,62.1 56.1,40.6 18.8,62.1 			"/>
			<polygon class="st175" points="56.1,83.5 93.4,62.1 56.1,40.7 18.9,62.1 			"/>
			<polygon class="st176" points="56.1,83.4 93.3,62.1 56.1,40.8 19,62.1 			"/>
			<polygon class="st177" points="56.1,83.4 93.2,62.1 56.1,40.8 19.1,62.1 			"/>
			<polygon class="st178" points="56.1,83.3 93.1,62.1 56.1,40.9 19.1,62.1 			"/>
			<polygon class="st179" points="56.1,83.3 93,62.1 56.1,40.9 19.2,62.1 			"/>
			<polygon class="st180" points="56.1,83.2 92.9,62.1 56.1,41 19.3,62.1 			"/>
			<polygon class="st181" points="56.1,83.2 92.8,62.1 56.1,41 19.4,62.1 			"/>
			<polygon class="st182" points="56.1,83.1 92.7,62.1 56.1,41.1 19.5,62.1 			"/>
			<polygon class="st183" points="56.1,83 92.6,62.1 56.1,41.2 19.6,62.1 			"/>
			<polygon class="st184" points="56.1,83 92.5,62.1 56.1,41.2 19.7,62.1 			"/>
			<polygon class="st185" points="56.1,82.9 92.4,62.1 56.1,41.3 19.8,62.1 			"/>
			<polygon class="st186" points="56.1,82.9 92.3,62.1 56.1,41.3 19.9,62.1 			"/>
			<polygon class="st187" points="56.1,82.8 92.2,62.1 56.1,41.4 20,62.1 			"/>
			<polygon class="st188" points="56.1,82.8 92.1,62.1 56.1,41.4 20.1,62.1 			"/>
			<polygon class="st189" points="56.1,82.7 92,62.1 56.1,41.5 20.2,62.1 			"/>
			<polygon class="st190" points="56.1,82.7 91.9,62.1 56.1,41.5 20.3,62.1 			"/>
			<polygon class="st191" points="56.1,82.6 91.8,62.1 56.1,41.6 20.4,62.1 			"/>
			<polygon class="st192" points="56.1,82.5 91.7,62.1 56.1,41.7 20.5,62.1 			"/>
			<polygon class="st193" points="56.1,82.5 91.6,62.1 56.1,41.7 20.6,62.1 			"/>
			<polygon class="st194" points="56.1,82.4 91.5,62.1 56.1,41.8 20.7,62.1 			"/>
			<polygon class="st195" points="56.1,82.4 91.4,62.1 56.1,41.8 20.8,62.1 			"/>
			<polygon class="st196" points="56.1,82.3 91.3,62.1 56.1,41.9 20.9,62.1 			"/>
			<polygon class="st197" points="56.1,82.3 91.2,62.1 56.1,41.9 21,62.1 			"/>
			<polygon class="st198" points="56.1,82.2 91.1,62.1 56.1,42 21.1,62.1 			"/>
			<polygon class="st199" points="56.1,82.2 91,62.1 56.1,42 21.2,62.1 			"/>
			<polygon class="st200" points="56.1,82.1 90.9,62.1 56.1,42.1 21.3,62.1 			"/>
			<polygon class="st201" points="56.1,82 90.8,62.1 56.1,42.2 21.4,62.1 			"/>
			<polygon class="st202" points="56.1,82 90.7,62.1 56.1,42.2 21.5,62.1 			"/>
			<polygon class="st203" points="56.1,81.9 90.6,62.1 56.1,42.3 21.6,62.1 			"/>
			<polygon class="st204" points="56.1,81.9 90.5,62.1 56.1,42.3 21.7,62.1 			"/>
			<polygon class="st205" points="56.1,81.8 90.5,62.1 56.1,42.4 21.8,62.1 			"/>
			<polygon class="st206" points="56.1,81.8 90.4,62.1 56.1,42.4 21.9,62.1 			"/>
			<polygon class="st207" points="56.1,81.7 90.3,62.1 56.1,42.5 22,62.1 			"/>
			<polygon class="st208" points="56.1,81.7 90.2,62.1 56.1,42.5 22.1,62.1 			"/>
			<polygon class="st209" points="56.1,81.6 90.1,62.1 56.1,42.6 22.2,62.1 			"/>
			<polygon class="st210" points="56.1,81.5 90,62.1 56.1,42.7 22.3,62.1 			"/>
			<polygon class="st211" points="56.1,81.5 89.9,62.1 56.1,42.7 22.3,62.1 			"/>
			<polygon class="st212" points="56.1,81.4 89.8,62.1 56.1,42.8 22.4,62.1 			"/>
			<polygon class="st213" points="56.1,81.4 89.7,62.1 56.1,42.8 22.5,62.1 			"/>
			<polygon class="st214" points="56.1,81.3 89.6,62.1 56.1,42.9 22.6,62.1 			"/>
			<polygon class="st215" points="56.1,81.3 89.5,62.1 56.1,42.9 22.7,62.1 			"/>
			<polygon class="st216" points="56.1,81.2 89.4,62.1 56.1,43 22.8,62.1 			"/>
			<polygon class="st217" points="56.1,81.1 89.3,62.1 56.1,43 22.9,62.1 			"/>
			<polygon class="st218" points="56.1,81.1 89.2,62.1 56.1,43.1 23,62.1 			"/>
			<polygon class="st219" points="56.1,81 89.1,62.1 56.1,43.2 23.1,62.1 			"/>
			<polygon class="st220" points="56.1,81 89,62.1 56.1,43.2 23.2,62.1 			"/>
			<polygon class="st221" points="56.1,80.9 88.9,62.1 56.1,43.3 23.3,62.1 			"/>
			<polygon class="st222" points="56.1,80.9 88.8,62.1 56.1,43.3 23.4,62.1 			"/>
			<polygon class="st223" points="56.1,80.8 88.7,62.1 56.1,43.4 23.5,62.1 			"/>
			<polygon class="st224" points="56.1,80.8 88.6,62.1 56.1,43.4 23.6,62.1 			"/>
			<polygon class="st225" points="56.1,80.7 88.5,62.1 56.1,43.5 23.7,62.1 			"/>
			<polygon class="st226" points="56.1,80.6 88.4,62.1 56.1,43.5 23.8,62.1 			"/>
			<polygon class="st227" points="56.1,80.6 88.3,62.1 56.1,43.6 23.9,62.1 			"/>
			<polygon class="st228" points="56.1,80.5 88.2,62.1 56.1,43.7 24,62.1 			"/>
		</g>
		<g>
			<g>
				<polygon class="st37" points="56.5,88.2 101.8,62.1 101.8,56.9 11.1,56.9 11.1,62.1 				"/>
				<polygon class="st229" points="56.5,88.2 56.5,83 11.1,56.9 11.1,62.1 				"/>
				<polygon class="st230" points="56.5,83 101.8,56.9 56.5,30.9 11.1,56.9 				"/>
			</g>
			<g>
				<g>
					<path class="st231" d="M83.6,36.2c0.5,0,0.9,0.2,0.9,0.5c0,0.2,0,13.7,0,13.9c0,0.1,0,0.1-0.1,0.2v0c-0.1,0.1-0.2,0.2-0.3,0.2
						v0c-0.1,0-0.3,0.1-0.5,0.1c-0.5,0-0.9-0.2-0.9-0.5c0-0.2,0-13.7,0-13.9C82.7,36.4,83.1,36.2,83.6,36.2z"/>
				</g>
				<g>
					<path class="st232" d="M83.7,28.5c2.2,0,5.9,10.9,5.9,13.2c0,1.6-1.4,4.9-5.9,4.9c-4.2,0-5.9-3.3-5.9-4.9
						C77.8,39.4,82.1,28.5,83.7,28.5z"/>
					<path class="st233" d="M83.5,42c-0.5-4.6,0.2-13.4,0.2-13.4c2.2,0,5.9,10.9,5.9,13.2C89.5,44.3,83.8,44.9,83.5,42z"/>
					<path class="st234" d="M86.8,41.4c1.1,0,2.1-0.6,2.1-1.1c0-1.9-2.4-8.1-4.1-10.7c-1-1.1-0.1,7.9,0.3,11
						C85.2,41.4,86.4,41.4,86.8,41.4L86.8,41.4z"/>
					<g>
						<path class="st235" d="M83.3,44.7c3.8,0.5,5.6-0.6,5.6-0.6c-0.8,1.3-2.4,2.6-5.2,2.6c-4,0-5.7-2.9-5.9-4.6
							C78.3,43,80.6,44.4,83.3,44.7z"/>
					</g>
					<path class="st236" d="M85.2,33.3c0.5,1.6,1.2,2.7,1.5,2.6c0.3-0.1,0.1-1.4-0.4-3c-0.5-1.6-1.2-2.7-1.5-2.6
						C84.5,30.4,84.7,31.8,85.2,33.3z"/>
				</g>
			</g>
			<g>
				<g>
					<g>
						<polygon class="st1" points="30.5,41.5 31.1,41 38.3,45.2 38.3,55.7 37.7,56 						"/>
						<polygon class="st37" points="30.5,51.9 30.5,41.3 37.7,45.5 37.7,56 						"/>
						<polygon class="st237" points="36.9,45.7 31.4,42.6 31.4,51.6 36.9,54.8 						"/>
					</g>
					<polygon class="st37" points="34.2,43.9 34.2,53.5 33.8,53.2 33.8,43.6 					"/>
				</g>
				<g>
					<g>
						<polygon class="st238" points="55.1,35.9 24.9,53.2 55.1,70.5 85.3,53.2 						"/>
						<g>
							<polygon class="st37" points="85.3,56.2 55.1,73.4 55.1,70.5 85.3,53.2 							"/>
							<polygon class="st229" points="55.1,73.4 24.9,56.2 24.9,53.2 55.1,70.5 							"/>
						</g>
					</g>
					<path class="st37" d="M77.2,44.8v6.3l-0.5,0.3v-6.8C76.8,44.6,77,44.7,77.2,44.8z"/>
					<path class="st37" d="M80,46.3v6.3l-0.5,0.3l0-6.8C79.7,46.1,79.9,46.2,80,46.3z"/>
					<path class="st37" d="M78.6,45.6v6.3l-0.5,0.3v-6.8C78.3,45.4,78.5,45.5,78.6,45.6z"/>
					<g>
						<polygon class="st37" points="81.8,52.2 81.2,52.6 64.6,43 65.3,42.6 						"/>
						<polygon class="st229" points="81.2,54 64.6,44.4 64.6,43 81.2,52.6 						"/>
					</g>
					<g>
						<polygon class="st37" points="81.9,46.8 81.3,47.2 64.7,37.6 65.4,37.2 						"/>
						<polygon class="st229" points="81.3,48.6 64.7,38.9 64.7,37.6 81.3,47.2 						"/>
					</g>
					<g>
						<polygon class="st229" points="80.7,34.6 81.4,35 81.4,54.1 80.7,53.7 						"/>
						<polygon class="st37" points="82.6,34.3 82.6,53.4 81.4,54.1 81.4,35 						"/>
					</g>
					<g>
						<path class="st229" d="M79.6,46.6l0,6.3l-0.3-0.2v-6.2C79.4,46.5,79.5,46.6,79.6,46.6z"/>
					</g>
					<g>
						<path class="st229" d="M78.2,45.9v6.3L77.9,52v-6.2C78,45.8,78.1,45.8,78.2,45.9z"/>
					</g>
					<g>
						<path class="st229" d="M76.7,45.1v6.3l-0.3-0.2V45C76.5,45,76.6,45.1,76.7,45.1z"/>
					</g>
					<polygon class="st229" points="55.1,69 55.1,49.9 27.6,34.1 27.6,53.2 					"/>
					<polygon class="st37" points="68.8,22.1 82.6,34.1 82.6,39 75.8,42.9 75.8,57.1 55.1,69 55.1,49.9 					"/>
					<polygon class="st238" points="68.4,20.1 53.8,49.6 26.4,33.8 41,4.3 					"/>
					<polygon class="st239" points="83.8,33.5 83.8,34.3 82.6,35 82.6,34.1 68.8,22.1 55.1,49.9 55.1,50.8 53.8,51.5 53.8,49.6 
						68.4,20.1 					"/>
					<polygon class="st240" points="53.8,51.5 53.8,49.6 26.4,33.8 26.4,35.7 					"/>
				</g>
				<g>
					<g>
						<polygon class="st1" points="42.7,48.5 43.2,48.1 50.4,52.2 50.4,62.8 49.8,63.1 						"/>
						<polygon class="st37" points="42.7,59 42.7,48.4 49.8,52.5 49.8,63.1 						"/>
						<polygon class="st237" points="49,52.8 43.5,49.7 43.5,58.7 49,61.9 						"/>
					</g>
					<polygon class="st37" points="46.3,51 46.3,60.6 45.9,60.3 45.9,50.7 					"/>
				</g>
				<g>
					<g>
						<polygon class="st1" points="30.1,41.3 30.6,40.9 37.8,45 37.8,55.6 37.3,55.9 						"/>
						<polygon class="st37" points="30.1,51.8 30.1,41.2 37.3,45.3 37.3,55.9 						"/>
						<polygon class="st237" points="36.4,45.6 30.9,42.4 30.9,51.5 36.4,54.7 						"/>
					</g>
					<polygon class="st37" points="33.7,43.8 33.7,53.4 33.3,53.1 33.3,43.5 					"/>
				</g>
				<g>
					<g>
						<polygon class="st1" points="68.1,48.5 67.6,48.1 60.4,52.2 60.4,62.8 60.9,63.1 						"/>
						<polygon class="st17" points="68.1,59 68.1,48.4 60.9,52.5 60.9,63.1 						"/>
						<polygon class="st237" points="61.8,52.8 67.3,49.7 67.3,58.7 61.8,61.9 						"/>
					</g>
					<polygon class="st17" points="64.5,51 64.5,60.6 64.9,60.3 64.9,50.7 					"/>
				</g>
				<g>
					<g>
						<polygon class="st1" points="73.3,29.2 72.8,28.8 68.6,31.1 68.6,41.5 69.2,41.8 						"/>
						<polygon class="st17" points="73.3,39.6 73.3,29.2 69.2,31.6 69.2,41.9 						"/>
						<polygon class="st237" points="70,31.7 72.5,30.3 72.5,39.2 70,40.6 						"/>
					</g>
				</g>
				<g>
					<polygon class="st241" points="86.7,57.1 84.1,55.7 75.9,60.3 78.5,61.8 					"/>
					<polygon class="st229" points="78.5,63 75.9,61.5 75.9,60.3 78.5,61.8 					"/>
					<polygon class="st242" points="78.5,63 86.7,58.3 86.7,57.1 78.5,61.8 					"/>
				</g>
			</g>
			<g>
				<g>
					<g>
						<path class="st243" d="M43,70.4c-1.7,0-3-0.8-3-1.4c0-0.8,0-1.9,0-1.9c0-0.8,0.7-2.5,3-2.5c2.1,0,3,1.7,3,2.5c0,0,0,1.3,0,1.9
							C46,69.5,44.8,70.4,43,70.4z"/>
					</g>
					<g>
						<path class="st244" d="M40.5,66.1c0.1,0.8,1.2,1.4,2.5,1.3c1.3-0.1,2.3-0.8,2.2-1.6c-0.1-0.8-1.2-1.4-2.5-1.3
							C41.5,64.6,40.5,65.3,40.5,66.1z"/>
						<path class="st245" d="M41.1,65.5c0.1,0.3,0.7,0.5,1.5,0.3c0.7-0.1,1.3-0.5,1.2-0.9c-0.1-0.3-0.7-0.5-1.5-0.3
							C41.6,64.7,41.1,65.1,41.1,65.5z"/>
						<path class="st246" d="M41.8,65c0,0.1,0.3,0.2,0.6,0.1c0.3-0.1,0.5-0.2,0.5-0.3c0-0.1-0.3-0.2-0.6-0.1
							C41.9,64.7,41.7,64.9,41.8,65z"/>
					</g>
				</g>
				<g>
					<g>
						<path class="st235" d="M48.2,73.8c-2.2,0-4-1.1-4-1.9c0-1.1,0-2.5,0-2.5c0-1.1,1-3.3,4-3.3c2.8,0,4,2.2,4,3.3c0,0,0,1.8,0,2.6
							C52.2,72.7,50.5,73.8,48.2,73.8z"/>
					</g>
					<g>
						<path class="st232" d="M44.9,68.1c0.1,1.1,1.6,1.8,3.3,1.7c1.7-0.1,3-1.1,2.9-2.1s-1.6-1.8-3.3-1.7
							C46.1,66.1,44.8,67.1,44.9,68.1z"/>
						<path class="st234" d="M45.7,67.3c0.1,0.4,1,0.7,1.9,0.5c1-0.2,1.7-0.7,1.6-1.2c-0.1-0.4-1-0.7-1.9-0.5
							C46.3,66.3,45.6,66.8,45.7,67.3z"/>
						<path class="st236" d="M46.5,66.7c0,0.2,0.4,0.2,0.7,0.2c0.4-0.1,0.6-0.3,0.6-0.4c0-0.2-0.4-0.2-0.7-0.2
							C46.8,66.3,46.5,66.5,46.5,66.7z"/>
					</g>
				</g>
				<g>
					<g>
						<path class="st243" d="M52.8,75.3c-1.5,0-2.7-0.8-2.7-1.3c0-0.7,0-1.7,0-1.7c0-0.7,0.7-2.2,2.7-2.2c1.9,0,2.7,1.5,2.7,2.2
							c0,0,0,1.2,0,1.7C55.4,74.5,54.3,75.3,52.8,75.3z"/>
					</g>
					<g>
						<path class="st244" d="M50.5,71.5c0.1,0.7,1,1.2,2.2,1.1c1.2-0.1,2.1-0.7,2-1.4c-0.1-0.7-1-1.2-2.2-1.1
							C51.4,70.1,50.5,70.8,50.5,71.5z"/>
						<path class="st245" d="M51,70.9c0.1,0.3,0.6,0.4,1.3,0.3c0.7-0.1,1.2-0.5,1.1-0.8c-0.1-0.3-0.6-0.4-1.3-0.3
							C51.5,70.2,51,70.6,51,70.9z"/>
						<path class="st246" d="M51.6,70.5c0,0.1,0.2,0.2,0.5,0.1c0.3,0,0.4-0.2,0.4-0.3c0-0.1-0.2-0.2-0.5-0.1
							C51.8,70.3,51.6,70.4,51.6,70.5z"/>
					</g>
				</g>
			</g>
			<g>
				<g>
					<g>
						<path class="st243" d="M25.2,60.2c-1.7,0-3-0.8-3-1.4c0-0.8,0-1.9,0-1.9c0-0.8,0.7-2.5,3-2.5c2.1,0,3,1.7,3,2.5
							c0,0,0,1.3,0,1.9C28.2,59.3,27,60.2,25.2,60.2z"/>
					</g>
					<g>
						<path class="st244" d="M22.7,55.9c0.1,0.8,1.2,1.4,2.5,1.3c1.3-0.1,2.3-0.8,2.2-1.6c-0.1-0.8-1.2-1.4-2.5-1.3
							C23.7,54.4,22.7,55.1,22.7,55.9z"/>
						<path class="st245" d="M23.3,55.3c0.1,0.3,0.7,0.5,1.5,0.3c0.7-0.1,1.3-0.5,1.2-0.9c-0.1-0.3-0.7-0.5-1.5-0.3
							C23.8,54.6,23.2,55,23.3,55.3z"/>
						<path class="st246" d="M23.9,54.8c0,0.1,0.3,0.2,0.6,0.1c0.3-0.1,0.5-0.2,0.5-0.3c0-0.1-0.3-0.2-0.6-0.1
							C24.1,54.6,23.9,54.7,23.9,54.8z"/>
					</g>
				</g>
				<g>
					<g>
						<path class="st232" d="M30.4,63.6c-2.2,0-4-1.1-4-1.9c0-1.1,0-2.5,0-2.5c0-1.1,1-3.3,4-3.3c2.8,0,4,2.2,4,3.3c0,0,0,1.8,0,2.6
							C34.4,62.5,32.7,63.6,30.4,63.6z"/>
					</g>
					<g>
						<path class="st233" d="M27.1,58c0.1,1.1,1.6,1.8,3.3,1.7c1.7-0.1,3-1.1,2.9-2.1c-0.1-1.1-1.6-1.8-3.3-1.7
							C28.3,56,27,56.9,27.1,58z"/>
						<path class="st234" d="M27.8,57.1c0.1,0.4,1,0.7,1.9,0.5c1-0.2,1.7-0.7,1.6-1.2c-0.1-0.4-1-0.7-1.9-0.5
							C28.5,56.1,27.8,56.7,27.8,57.1z"/>
						<path class="st236" d="M28.7,56.5c0,0.2,0.4,0.2,0.7,0.2c0.4-0.1,0.6-0.3,0.6-0.4c0-0.2-0.4-0.2-0.7-0.2
							C28.9,56.2,28.7,56.4,28.7,56.5z"/>
					</g>
				</g>
				<g>
					<g>
						<path class="st243" d="M35,65.1c-1.5,0-2.7-0.8-2.7-1.3c0-0.7,0-1.7,0-1.7c0-0.7,0.7-2.2,2.7-2.2c1.9,0,2.7,1.5,2.7,2.2
							c0,0,0,1.2,0,1.7C37.6,64.4,36.5,65.1,35,65.1z"/>
					</g>
					<g>
						<path class="st244" d="M32.7,61.3c0.1,0.7,1,1.2,2.2,1.1c1.2-0.1,2.1-0.7,2-1.4s-1-1.2-2.2-1.1C33.5,60,32.7,60.6,32.7,61.3z"
							/>
						<path class="st245" d="M33.2,60.7c0.1,0.3,0.6,0.4,1.3,0.3c0.7-0.1,1.2-0.5,1.1-0.8C35.6,60,35,59.8,34.3,60
							C33.7,60.1,33.2,60.4,33.2,60.7z"/>
						<path class="st246" d="M33.8,60.3c0,0.1,0.2,0.2,0.5,0.1c0.3,0,0.4-0.2,0.4-0.3c0-0.1-0.2-0.2-0.5-0.1
							C34,60.1,33.8,60.2,33.8,60.3z"/>
					</g>
				</g>
			</g>
			<g>
				<g>
					<path class="st231" d="M20.2,45.8c0.5,0,0.9,0.2,0.9,0.5c0,0.2,0,13.7,0,13.9c0,0.1,0,0.1-0.1,0.2v0c-0.1,0.1-0.2,0.2-0.3,0.2
						v0c-0.1,0-0.3,0.1-0.5,0.1c-0.5,0-0.9-0.2-0.9-0.5c0-0.2,0-13.7,0-13.9C19.3,46,19.7,45.8,20.2,45.8z"/>
				</g>
				<g>
					<path class="st232" d="M20.3,38.1c2.2,0,5.9,10.9,5.9,13.2c0,1.6-1.4,4.9-5.9,4.9c-4.2,0-5.9-3.3-5.9-4.9
						C14.4,49,18.7,38.1,20.3,38.1z"/>
					<path class="st233" d="M20.1,51.5c-0.5-4.6,0.2-13.4,0.2-13.4c2.2,0,5.9,10.9,5.9,13.2C26.2,53.9,20.4,54.5,20.1,51.5z"/>
					<path class="st234" d="M23.4,51c1.1,0,2.1-0.6,2.1-1.1c0-1.9-2.4-8.1-4.1-10.7c-1-1.1-0.1,7.9,0.3,11C21.8,50.9,23,51,23.4,51
						L23.4,51z"/>
					<g>
						<path class="st235" d="M19.9,54.3c3.8,0.5,5.6-0.6,5.6-0.6c-0.8,1.3-2.4,2.6-5.2,2.6c-4,0-5.7-2.9-5.9-4.6
							C14.9,52.6,17.2,54,19.9,54.3z"/>
					</g>
					<path class="st236" d="M21.9,42.9c0.5,1.6,1.2,2.7,1.5,2.6c0.3-0.1,0.1-1.4-0.4-3c-0.5-1.6-1.2-2.7-1.5-2.6
						C21.1,40,21.3,41.4,21.9,42.9z"/>
				</g>
			</g>
			<g>
				<g>
					<path class="st231" d="M56.8,65.8c0.5,0,0.9,0.2,0.9,0.5c0,0.2,0,13.7,0,13.9c0,0.1,0,0.1-0.1,0.2v0c-0.1,0.1-0.2,0.2-0.3,0.2
						v0c-0.1,0-0.3,0.1-0.5,0.1c-0.5,0-0.9-0.2-0.9-0.5c0-0.2,0-13.7,0-13.9C55.9,66,56.3,65.8,56.8,65.8z"/>
				</g>
				<g>
					<path class="st232" d="M56.9,51.9c2.2,0,5.9,17.1,5.9,19.4c0,1.6-1.4,4.9-5.9,4.9c-4.2,0-5.9-3.3-5.9-4.9
						C51,69,55.3,51.9,56.9,51.9z"/>
					<path class="st233" d="M56.7,71.6C56.2,67,56.9,52,56.9,52c2.2,0,5.9,17,5.9,19.4C62.7,73.9,57,74.5,56.7,71.6z"/>
					<path class="st234" d="M60,71c1.1,0,2.1-0.6,2.1-1.1c0-1.9-2.6-14.4-4.3-17.1c-1-1.1,0,14.3,0.4,17.3C58.4,71,59.6,71,60,71
						L60,71z"/>
					<g>
						<path class="st235" d="M56.5,74.3c3.8,0.5,5.6-0.6,5.6-0.6c-0.8,1.3-2.4,2.6-5.2,2.6c-4,0-5.7-2.9-5.9-4.6
							C51.5,72.6,53.8,74,56.5,74.3z"/>
					</g>
					<path class="st236" d="M58,58.2c0.5,2.4,1.3,4.3,1.7,4.2s0.4-2.1-0.1-4.6c-0.5-2.4-1.3-4.3-1.7-4.2
						C57.4,53.7,57.5,55.7,58,58.2z"/>
				</g>
			</g>
		</g>
		<g>
			<g>
				<g>
					<g>
						<polygon class="st37" points="107.3,56.8 105.9,56 105.9,10.2 107.3,11 						"/>
						<polygon class="st229" points="107.3,56.8 108.5,56.1 108.5,10.3 107.3,11 						"/>
					</g>
				</g>
			</g>
			<polygon class="st9" points="108.5,10.3 107.1,9.4 105.9,10.2 107.3,11 			"/>
		</g>
		<g>
			<path class="st247" d="M75.8,30.2l-0.1-1.1c0.2,0,16.1-1.6,31.2-18.5l0.8,0.8C92.3,28.6,76,30.2,75.8,30.2z"/>
		</g>
	</g>
	<g>
		<circle class="st229" cx="75.8" cy="29.8" r="0.9"/>
		<path class="st37" d="M75.8,28.8c-0.1,0-0.2,0-0.2,0c-0.1,0.1-0.2,0.3-0.2,0.5c0,0.5,0.4,0.9,0.9,0.9c0.1,0,0.2,0,0.2,0
			c0.1-0.1,0.2-0.3,0.2-0.5C76.7,29.3,76.3,28.8,75.8,28.8z"/>
	</g>
</g>
</svg>
