<?xml version="1.0" encoding="UTF-8"?>
<svg id="Layer_1" xmlns="http://www.w3.org/2000/svg" version="1.1" viewBox="0 0 535.04 850.31">
  <!-- Generator: Adobe Illustrator 29.1.0, SVG Export Plug-In . SVG Version: 2.1.0 Build 142)  -->
  <defs>
    <style>
      .st0, .st1 {
        fill: #fff;
      }

      .st1, .st2, .st3, .st4, .st5, .st6, .st7, .st8, .st9, .st10, .st11 {
        fill-rule: evenodd;
      }

      .st2 {
        fill: #a0a0a0;
      }

      .st3 {
        fill: #6596c1;
      }

      .st4 {
        fill: #5f5f5f;
      }

      .st5 {
        fill: #f67373;
      }

      .st6 {
        fill: #aaa;
      }

      .st7 {
        fill: #d3d3d3;
      }

      .st8 {
        fill: #8b8b8b;
      }

      .st9 {
        fill: #f5f5f5;
      }

      .st10 {
        fill: #eaeaea;
      }

      .st11 {
        fill: #ededed;
      }
    </style>
  </defs>
  <path class="st4" d="M563.34-13.14c0-14.69-11.91-26.6-26.6-26.6H-1.69c-14.69,0-26.6,11.91-26.6,26.6v859.74c0,14.69,11.91,26.6,26.6,26.6h538.43c14.69,0,26.6-11.91,26.6-26.6V-13.14h0Z"/>
  <polygon class="st7" points="535.04 0 0 0 0 850.31 535.04 850.31 535.04 0 535.04 0"/>
  <polygon class="st11" points="535.04 0 0 0 0 19.84 535.04 19.84 535.04 0 535.04 0"/>
  <polygon class="st10" points="535.04 182.54 0 182.54 0 667.76 535.04 667.76 535.04 182.54 535.04 182.54"/>
  <path class="st3" d="M454.32,291.89c0-4.71-1.87-9.22-5.2-12.54-3.33-3.33-7.84-5.2-12.54-5.2H107c-4.71,0-9.22,1.87-12.54,5.2-3.33,3.33-5.2,7.84-5.2,12.54v188.78c0,4.7,1.87,9.22,5.2,12.55,3.33,3.33,7.84,5.2,12.54,5.2h329.58c4.71,0,9.22-1.87,12.54-5.2,3.33-3.33,5.2-7.84,5.2-12.55v-188.78h0Z"/>
  <path class="st4" d="M394.76,303.61c0-8.35-6.77-15.13-15.13-15.13h-215.68c-8.35,0-15.13,6.77-15.13,15.13v165.35c0,8.35,6.77,15.13,15.13,15.13h215.68c8.35,0,15.13-6.77,15.13-15.13v-165.35h0Z"/>
  <path class="st0" d="M243.13,307.61h9.61c2.17,0,3.82.16,4.95.48,1.53.44,2.84,1.21,3.93,2.32,1.09,1.11,1.92,2.48,2.49,4.09.57,1.61.85,3.6.85,5.97,0,2.08-.27,3.87-.8,5.37-.65,1.84-1.58,3.32-2.79,4.46-.91.86-2.14,1.53-3.69,2.01-1.16.36-2.71.53-4.65.53h-9.89v-25.24h0ZM248.39,311.88v16.72h3.92c1.47,0,2.53-.08,3.18-.24.85-.21,1.56-.56,2.12-1.05.56-.49,1.02-1.31,1.38-2.44.35-1.13.53-2.67.53-4.62s-.18-3.45-.53-4.49c-.36-1.05-.85-1.86-1.49-2.45-.64-.58-1.45-.98-2.43-1.19-.73-.16-2.17-.24-4.32-.24h-2.36Z"/>
  <path class="st0" d="M286.07,323.57l5.1,1.57c-.78,2.75-2.08,4.8-3.9,6.14s-4.12,2.01-6.92,2.01c-3.46,0-6.3-1.15-8.52-3.44-2.23-2.29-3.34-5.42-3.34-9.39,0-4.2,1.12-7.46,3.36-9.79,2.24-2.32,5.18-3.49,8.83-3.49,3.18,0,5.77.91,7.76,2.74,1.18,1.08,2.07,2.63,2.66,4.65l-5.2,1.2c-.31-1.31-.95-2.34-1.93-3.1-.98-.76-2.16-1.14-3.56-1.14-1.93,0-3.49.67-4.7,2.01-1.2,1.34-1.8,3.52-1.8,6.53,0,3.19.59,5.46,1.78,6.82,1.18,1.35,2.72,2.03,4.62,2.03,1.4,0,2.6-.43,3.61-1.29,1.01-.86,1.73-2.22,2.17-4.06h0Z"/>
  <polygon class="st0" points="295.08 326.11 295.08 321.28 304.88 321.28 304.88 326.11 295.08 326.11 295.08 326.11"/>
  <path class="st0" d="M331.27,332.85h-5.72l-2.27-5.73h-10.41l-2.15,5.73h-5.58l10.14-25.24h5.56l10.42,25.24h0ZM321.59,322.86l-3.59-9.37-3.52,9.37h7.1Z"/>
  <path class="st0" d="M350.71,323.57l5.1,1.57c-.78,2.75-2.08,4.8-3.9,6.14-1.82,1.34-4.12,2.01-6.92,2.01-3.46,0-6.3-1.15-8.52-3.44-2.23-2.29-3.34-5.42-3.34-9.39,0-4.2,1.12-7.46,3.36-9.79,2.24-2.32,5.18-3.49,8.83-3.49,3.18,0,5.77.91,7.76,2.74,1.18,1.08,2.07,2.63,2.66,4.65l-5.2,1.2c-.31-1.31-.95-2.34-1.93-3.1-.98-.76-2.16-1.14-3.56-1.14-1.93,0-3.5.67-4.7,2.01-1.2,1.34-1.8,3.52-1.8,6.53,0,3.19.59,5.46,1.78,6.82,1.18,1.35,2.72,2.03,4.62,2.03,1.4,0,2.6-.43,3.6-1.29,1.01-.86,1.73-2.22,2.17-4.06h0Z"/>
  <polygon class="st5" points="359.51 340.42 184.52 340.42 184.52 398.55 359.51 398.55 359.51 340.42 359.51 340.42"/>
  <path class="st9" d="M210.94,420c7.09,0,12.84,5.75,12.84,12.84s-5.75,12.84-12.84,12.84-12.84-5.75-12.84-12.84,5.75-12.84,12.84-12.84h0ZM251.66,420c7.09,0,12.84,5.75,12.84,12.84s-5.75,12.84-12.84,12.84-12.84-5.75-12.84-12.84,5.75-12.84,12.84-12.84h0ZM292.37,420c7.09,0,12.84,5.75,12.84,12.84s-5.75,12.84-12.84,12.84-12.84-5.75-12.84-12.84,5.75-12.84,12.84-12.84h0ZM333.09,420c7.08,0,12.84,5.75,12.84,12.84s-5.75,12.84-12.84,12.84-12.84-5.75-12.84-12.84,5.75-12.84,12.84-12.84h0Z"/>
  <path class="st9" d="M207.15,324.3h-22.62v7.73h22.62v-7.73h0ZM218.27,312.99h-33.75v7.94h33.75v-7.94h0Z"/>
  <path class="st1" d="M278.64,357.88v-7.55h-77.21v39.32h77.21v-7.55h10.11v-24.22h-10.11ZM274.42,359.99v2.11h10.1v15.78h-10.1v7.55h-68.77v-30.88h68.77v5.44h0ZM217.39,358.42h-8.7v24.33h8.7v-24.33h0ZM229.86,358.42h-8.7v24.33h8.7v-24.33h0ZM242.32,358.42h-8.7v24.33h8.7v-24.33h0ZM254.78,358.42h-8.7v24.33h8.7v-24.33h0Z"/>
  <path class="st0" d="M301.23,361.46c0-2.96.62-5.16,1.87-6.59,1.25-1.43,2.93-2.14,5.07-2.14s3.93.71,5.18,2.13c1.25,1.42,1.87,3.62,1.87,6.6s-.62,5.16-1.87,6.59c-1.25,1.43-2.94,2.14-5.07,2.14s-3.93-.71-5.18-2.13c-1.25-1.42-1.87-3.62-1.87-6.6h0ZM305.96,361.42c0,2.15.24,3.59.71,4.33.36.54.86.81,1.49.81s1.15-.27,1.51-.81c.46-.74.69-2.18.69-4.33s-.23-3.59-.69-4.31c-.36-.56-.86-.83-1.51-.83s-1.13.27-1.49.81c-.48.74-.71,2.18-.71,4.33h0ZM312.79,387.63h-4.49l16.88-34.89h4.36l-16.75,34.89h0ZM322.6,378.94c0-2.96.62-5.16,1.87-6.59,1.25-1.43,2.95-2.14,5.11-2.14s3.89.71,5.13,2.14c1.25,1.43,1.87,3.62,1.87,6.59s-.62,5.18-1.87,6.61c-1.25,1.43-2.94,2.14-5.07,2.14s-3.93-.71-5.18-2.14c-1.25-1.43-1.87-3.63-1.87-6.61h0ZM327.33,378.92c0,2.15.24,3.59.71,4.31.36.56.86.83,1.49.83s1.15-.27,1.49-.81c.48-.74.71-2.18.71-4.33s-.23-3.59-.69-4.33c-.36-.54-.86-.81-1.51-.81s-1.15.27-1.49.81c-.48.74-.71,2.18-.71,4.33h0Z"/>
  <polygon class="st8" points="320.23 142.38 229.22 142.38 229.22 164.62 320.23 164.62 320.23 142.38 320.23 142.38"/>
  <path class="st8" d="M56.86,885.15v10.57h22.84v-10.57h2.16c7.09,0,12.84-5.76,12.84-12.84v-25.69c0-7.09-5.76-12.84-12.84-12.84h-29.19c-7.09,0-12.84,5.76-12.84,12.84v25.69c0,7.09,5.76,12.84,12.84,12.84h4.19Z"/>
  <path class="st8" d="M229.9,885.15v10.57h22.85v-10.57h2.16c7.09,0,12.84-5.76,12.84-12.84v-25.69c0-7.09-5.75-12.84-12.84-12.84h-29.19c-7.09,0-12.84,5.76-12.84,12.84v25.69c0,7.09,5.75,12.84,12.84,12.84h4.19Z"/>
  <path class="st8" d="M402.95,885.15v10.57h22.84v-10.57h2.16c7.09,0,12.84-5.76,12.84-12.84v-25.69c0-7.09-5.76-12.84-12.84-12.84h-29.19c-7.09,0-12.84,5.76-12.84,12.84v25.69c0,7.09,5.75,12.84,12.84,12.84h4.19Z"/>
  <path class="st8" d="M127.07,885.15v10.57h22.84v-10.57h2.16c7.09,0,12.84-5.76,12.84-12.84v-25.69c0-7.09-5.76-12.84-12.84-12.84h-29.19c-7.09,0-12.84,5.76-12.84,12.84v25.69c0,7.09,5.75,12.84,12.84,12.84h4.19Z"/>
  <path class="st8" d="M300.11,885.15v10.57h22.85v-10.57h2.16c7.09,0,12.84-5.76,12.84-12.84v-25.69c0-7.09-5.75-12.84-12.84-12.84h-29.19c-7.09,0-12.84,5.76-12.84,12.84v25.69c0,7.09,5.76,12.84,12.84,12.84h4.19Z"/>
  <path class="st8" d="M473.15,885.15v10.57h22.84v-10.57h2.16c7.09,0,12.84-5.76,12.84-12.84v-25.69c0-7.09-5.76-12.84-12.84-12.84h-29.19c-7.09,0-12.84,5.76-12.84,12.84v25.69c0,7.09,5.75,12.84,12.84,12.84h4.19Z"/>
  <polygon class="st6" points="535.04 832.41 0 832.41 0 852.26 535.04 852.26 535.04 832.41 535.04 832.41"/>
  <path class="st2" d="M315.02,559.05c7.02,8.88,11.21,20.1,11.21,32.29,0,28.77-23.36,52.12-52.12,52.12-18.59,0-34.91-9.75-44.14-24.41l26.16-26.86,19.06,36.44,39.83-69.58h0ZM228,615.65c-3.84-7.26-6.02-15.54-6.02-24.32,0-28.77,23.36-52.12,52.12-52.12,15.96,0,30.25,7.19,39.82,18.5l-36.11,40.24-19.25-31.36-30.56,49.06h0Z"/>
</svg>