<?xml version="1.0" encoding="utf-8"?>
<!-- Generator: Adobe Illustrator 25.3.1, SVG Export Plug-In . SVG Version: 6.00 Build 0)  -->
<svg version="1.1" id="Layer_1" xmlns="http://www.w3.org/2000/svg" xmlns:xlink="http://www.w3.org/1999/xlink" x="0px" y="0px"
	 viewBox="0 0 1243 1102" style="enable-background:new 0 0 1243 1102;" xml:space="preserve">
<style type="text/css">
	.st0{clip-path:url(#SVGID_2_);}
	.st1{clip-path:url(#SVGID_4_);}
	.st2{opacity:0.5;clip-path:url(#SVGID_6_);}
	.st3{clip-path:url(#SVGID_8_);fill:#7C7C7C;}
	.st4{clip-path:url(#SVGID_4_);fill:#DDED48;}
	.st5{clip-path:url(#SVGID_4_);fill:#B7B76C;}
	.st6{clip-path:url(#SVGID_4_);fill:#504A2F;}
	.st7{clip-path:url(#SVGID_10_);}
	.st8{clip-path:url(#SVGID_12_);fill:#DBDBDB;}
	.st9{clip-path:url(#SVGID_12_);fill:#D3D3D3;}
	.st10{clip-path:url(#SVGID_12_);fill:#B1B1B2;}
	.st11{clip-path:url(#SVGID_12_);fill:#C1C1C1;}
	.st12{clip-path:url(#SVGID_12_);fill:#FFFEF8;}
	.st13{clip-path:url(#SVGID_12_);fill:#F4F4F4;}
	.st14{clip-path:url(#SVGID_12_);fill:#E8E8E8;}
	.st15{clip-path:url(#SVGID_12_);fill:#9E9E9E;}
	.st16{clip-path:url(#SVGID_12_);fill:#C5C4C6;}
	.st17{clip-path:url(#SVGID_12_);fill:#F7F7F7;}
	.st18{clip-path:url(#SVGID_12_);fill:#EFEFEF;}
	.st19{clip-path:url(#SVGID_12_);fill:#BCBCBC;}
	.st20{fill:#231F20;}
	.st21{fill:#FFF100;}
</style>
<g id="Artwork_14_1_">
	<g>
		<defs>
			<rect id="SVGID_1_" x="6" y="248" width="1228.08" height="847.97"/>
		</defs>
		<clipPath id="SVGID_2_">
			<use xlink:href="#SVGID_1_"  style="overflow:visible;"/>
		</clipPath>
		<g class="st0">
			<defs>
				<rect id="SVGID_3_" x="6" y="248" width="1228.08" height="847.97"/>
			</defs>
			<clipPath id="SVGID_4_">
				<use xlink:href="#SVGID_3_"  style="overflow:visible;"/>
			</clipPath>
			<g class="st1">
				<defs>
					<rect id="SVGID_5_" x="6" y="248" width="1228.08" height="847.97"/>
				</defs>
				<clipPath id="SVGID_6_">
					<use xlink:href="#SVGID_5_"  style="overflow:visible;"/>
				</clipPath>
				<g class="st2">
					<g>
						<defs>
							<rect id="SVGID_7_" x="6" y="393.83" width="1228.08" height="702.14"/>
						</defs>
						<clipPath id="SVGID_8_">
							<use xlink:href="#SVGID_7_"  style="overflow:visible;"/>
						</clipPath>
						<polygon class="st3" points="609.7,393.83 6,742.27 632.53,1095.97 1234.08,748.67 						"/>
					</g>
				</g>
			</g>
			<polygon class="st4" points="620.02,248 95.51,550.83 620.04,853.66 1144.55,550.83 			"/>
			<polygon class="st5" points="95.51,550.83 95.51,695.03 620.04,997.86 620.04,853.66 			"/>
			<polygon class="st6" points="620.04,853.66 620.04,997.86 1144.56,695.03 1144.56,550.82 			"/>
		</g>
	</g>
</g>
<g id="Artwork_49_1_">
	<g>
		<defs>
			<rect id="SVGID_9_" x="389" y="240" width="548" height="467"/>
		</defs>
		<clipPath id="SVGID_10_">
			<use xlink:href="#SVGID_9_"  style="overflow:visible;"/>
		</clipPath>
		<g class="st7">
			<defs>
				<rect id="SVGID_11_" x="389" y="240" width="548" height="467"/>
			</defs>
			<clipPath id="SVGID_12_">
				<use xlink:href="#SVGID_11_"  style="overflow:visible;"/>
			</clipPath>
			<path class="st8" d="M895.55,352.3L895.55,352.3l0.01-0.01l-138.41,75.27l-2.45,1.33l-1.27,0.69v-9.16v-11.66v-70.44l-1.26,0.69
				l-12.63,6.94l-15.86,8.71l-57.25,31.44l-79.8,44.52l-5.11,2.82v103.32v130.67l5.11-2.8l1.66-0.91l73.32-40.2l6.82-3.74
				l47.85-26.23l37.15-20.37l51.3-28.24l18.39-10.13l6.82-3.75l73.32-40.37l3.38-1.86l18.33-10.09v-3.6l0-92.89V336.3l-1.26,0.69
				L895.55,352.3z M743.01,535.36v22.75v0.7l-156.37,86.7v-0.7v-1.34v-21.4l1.66-0.92l73.32-40.65L743.01,535.36z M743.01,528.8
				v1.32l-81.39,45.13L588.3,615.9l-1.66,0.92v-1.32v-22.12l1.31-0.73l0.35-0.2l10.33-5.72l62.99-34.92l81.39-45.13V528.8z
				 M743.01,476.69v1.88v21.56v0.13l-81.39,45.12l-73.32,40.65l-1.66,0.92v-0.13v-23.31l1.66-0.92l9.13-5.06l64.19-35.59
				l61.31-33.99c-0.39,0.18-0.78,0.35-1.16,0.52L743.01,476.69z M743.01,471.63l-60.36,33.46c-1.48,0.59-2.95,1.2-4.43,1.78
				l-16.6,9.21l-58.91,32.66l-14.41,7.99l-1.66,0.92v-21.66v-1.1l1.66-0.92l41.38-22.94l31.94-17.71l13.79-7.65l67.6-37.48V471.63z
				 M743.01,419.52v23.44l-46.03,25.52l-16.85,9.34l-9.26,5.13l-9.26,5.13l-27.22,15.09l-46.1,25.56l-1.66,0.92v-23.44l1.66-0.92
				l3.56-1.97l6.16-3.41l28.76-15.95l28.76-15.94l4.28-2.37l1.81-1L670,460l31.27-17.34L743.01,419.52z M743.01,413.09l-35.94,19.92
				l-45.45,25.2l-0.28,0.16l-57.52,31.89l-9.83,5.45l-5.68,3.15l-1.66,0.92v-23.44l0.96-0.53l0.7-0.39l36.65-20.32l23.25-12.89
				l13.42-7.44l20.85-11.56l45.73-25.36l14.8-8.21V413.09z M743.01,384.42l-3.69,2.04l-6.39,3.54l-45.73,25.36l-25.58,14.18
				l-8.56,4.74l-23.38,12.97l-30.29,16.79l-11.09,6.15l-0.96,0.53l-0.7,0.39v-2.04v-21.4l4.77-2.65l8.27-4.58l10.57-5.86
				l40.57-22.49l57.52-31.89l34.67-19.23V384.42z M906.65,444.74v22.74v0.7l-141.5,78.46l-11.7,6.49v-0.7v-1.35v-0.7v-18.66v-0.7
				v-1.35l32.84-18.21l36.85-20.43l3.41-1.89l3.41-1.89l28.45-15.77l44.87-24.88L906.65,444.74z M906.65,438.18v1.32l-3.38,1.87
				l-73.32,40.65l-6.82,3.78L791,503.62l-37.56,20.82v-1.32v-0.72v-1.32v-5.7v-5.94v-6.4v-1.32V501l6.48-3.59l6.48-3.59l45.74-25.36
				l10.99-6.09l6.82-3.78l73.32-40.65l3.38-1.87V438.18z M906.65,395.33v14.17v0.13l-3.38,1.87l-73.32,40.65l-6.82,3.78l-5.19,2.88
				l-45.73,25.36l-18.76,10.4v-0.13v-1.91v-19.09v-0.39v-2.04l21.21-11.76l13.45-7.46l17.51-9.71l17.51-9.71l3.41-1.89l3.41-1.89
				l9.94-5.51l5.74-3.18l26.41-14.64l19.33-10.72l2.52-1.4l9.39-5.21l3.38-1.87V395.33z M906.65,381.01l-3.38,1.87l-4.5,2.49
				l-2.85,1.58l-45.74,25.36l-7.41,4.11l-12.83,7.11l-6.82,3.78l-30.46,16.89l-39.22,21.75v-2.04v-19.36v-2.04l60.36-33.47
				l3.41-1.89l5.91-3.28l6.82-3.78l41.38-22.94l20.25-11.23l11.69-6.48l3.38-1.87V381.01z"/>
			<polygon class="st9" points="814.98,297.82 871.12,328.95 885.77,337.08 891.56,333.94 751.29,256.17 751.29,262.51 			"/>
			<polygon class="st10" points="751.29,256.17 733.15,266.12 677.03,295.95 682.76,299.14 751.29,262.51 			"/>
			<path class="st9" d="M891.58,365.93l-20.25,11.23l-41.38,22.94l-6.82,3.78l-5.91,3.28l-3.41,1.89l-60.36,33.47v2.04l29.26-16.22
				l29.26-16.22l11.16-6.19v19.36l-28.62,15.87l-41.06,22.77v2.04l39.22-21.75l30.46-16.89l6.82-3.78l12.83-7.11l7.41-4.11
				l45.74-25.36l2.85-1.58l4.5-2.49l3.38-1.87v-23.44l-3.38,1.87L891.58,365.93z M903.27,374.74v6.1l-5.51,3.05l-45.74,25.36
				l-11.04,6.12l-11.04,6.12v-19.36l30.29-16.79l9.25-5.13l33.78-18.73V374.74z"/>
			<path class="st9" d="M893.88,393.15l-2.52,1.39l-19.33,10.72l-26.41,14.64l-5.74,3.18l-9.94,5.51l-3.41,1.89l-3.41,1.89
				l-17.51,9.71l-17.51,9.71l-13.45,7.46l-21.21,11.76v2.04l32.82-18.2l4.94-2.74l15.96-8.85l15.96-8.85v3.28v16.08v0.13l-1.67,0.93
				l-1.67,0.93l-45.74,25.36l-20.6,11.42v1.91v0.13l18.76-10.4l45.73-25.36l5.19-2.88l6.82-3.78l73.32-40.65l3.38-1.87v-0.13v-14.17
				v-9.27l-3.38,1.87L893.88,393.15z M903.27,397.53v11.94l-73.32,40.65v-0.13v-4.02v-11.44v-3.9l13.84-7.67l45.73-25.36l13.75-7.62
				V397.53z"/>
			<polygon class="st11" points="860.23,385.34 829.95,402.13 829.95,421.49 840.99,415.37 852.03,409.25 897.76,383.89 
				903.27,380.84 903.27,374.74 903.27,361.48 869.48,380.21 			"/>
			<polygon class="st11" points="823.13,425.27 823.13,405.91 811.96,412.1 782.7,428.33 753.44,444.55 753.44,463.91 794.5,441.14 
							"/>
			<polygon class="st11" points="843.78,422.96 829.95,430.63 829.95,434.53 829.95,445.97 829.95,449.99 829.95,450.12 
				903.27,409.47 903.27,397.53 903.27,389.98 889.52,397.6 			"/>
			<path class="st12" d="M599.68,440.44l-8.27,4.58L599.68,440.44z"/>
			<polygon class="st12" points="636.57,470.06 636.57,470.06 644.84,465.48 			"/>
			<polygon class="st13" points="733.15,266.12 751.29,256.17 891.56,333.94 885.77,337.08 882.85,338.66 868.58,346.04 
				814.98,375.01 753.44,408.76 753.44,420.42 753.44,429.58 754.71,428.89 895.56,352.29 895.55,352.3 923.71,336.99 924.98,336.3 
				906.65,326.13 751.29,240 662.43,287.86 677.03,295.95 			"/>
			<path class="st13" d="M895.55,352.3L895.55,352.3z"/>
			<polygon class="st14" points="753.44,408.76 814.98,375.01 868.58,346.05 882.85,338.66 885.77,337.08 871.12,328.95 
				814.98,297.82 751.29,262.51 682.76,299.14 745.17,333.74 753.44,338.32 752.18,339.01 753.44,338.32 			"/>
			<polygon class="st14" points="423.53,624.28 423.53,624.28 416.4,620.33 			"/>
			<path class="st9" d="M650.81,412.09l-40.57,22.49l-10.57,5.86l-8.27,4.58l-4.78,2.65v21.4v2.04l0.7-0.39l0.96-0.53l11.09-6.14
				l30.29-16.79l23.39-12.97l8.56-4.74l25.58-14.18L732.93,390l6.39-3.54l3.69-2.05v-23.44l-34.67,19.23L650.81,412.09z
				 M661.62,427.5l-30.11,16.69l-43.21,23.96v-19.36l60.67-33.64l0,0l12.65-7.01V427.5z M741.17,376.3v7.09l-6.4,3.55l-45.74,25.36
				l-2.76,1.53l-17.83,9.89v-19.36l38.05-21.1l34.67-19.23V376.3z"/>
			<path class="st9" d="M670,460l-8.38,4.65l-1.81,1l-4.28,2.37l-28.76,15.95l-28.76,15.94l-6.16,3.41l-3.56,1.97l-1.66,0.92v23.44
				l1.66-0.92l46.1-25.56l27.22-15.09l9.26-5.13l9.26-5.13l16.85-9.34l46.03-25.52v-23.44l-41.74,23.14L670,460z M661.62,486.04
				l-25.38,14.07l-47.94,26.58v-10.63v-8.73l7.88-4.36l22.41-12.43l35.11-19.47l7.92-4.39V486.04z M741.17,441.94l-59.2,32.82
				l-4.95,2.75l-8.58,4.76V462.9l30.99-17.18l41.74-23.14V441.94z"/>
			<path class="st9" d="M661.62,493.31l-31.94,17.71l-41.38,22.94l-1.66,0.92v1.1v21.66l1.66-0.92l14.41-7.99l58.91-32.66l16.6-9.21
				c1.48-0.59,2.95-1.19,4.43-1.78l60.36-33.47v-23.44l-67.6,37.48L661.62,493.31z M661.62,508.61v6.1l-5.51,3.05l-45.73,25.36
				l-22.08,12.24v-19.36l30.29-16.79l9.25-5.13l33.78-18.73V508.61z M741.17,470.61l-72.73,40.32v-13.67v-5.69l5.13-2.84l67.6-37.48
				V470.61z"/>
			<path class="st9" d="M722.93,487.95l-61.31,33.99l-64.19,35.59l-9.13,5.06l-1.66,0.92v23.31v0.13l1.66-0.92l73.32-40.65
				l81.39-45.12v-0.13v-21.56v-1.88l-21.25,11.78C722.15,488.29,722.54,488.12,722.93,487.95 M661.62,543.21v0.13l-73.32,40.65
				v-0.13v-4.02v-7.13v-8.08l7.29-4.04l66.03-36.61V543.21z M741.17,499.11v0.13l-72.73,40.32v-0.13V520.2l0.04-0.02l72.69-40.3
				V499.11z"/>
			<path class="st9" d="M588.3,621.14l-1.66,0.92v21.4v1.34v0.7l156.37-86.7v-0.7v-22.75l-81.39,45.13L588.3,621.14z M661.62,601.19
				v0.7l-55.55,30.8l-17.77,9.85v-0.7v-11.28v-7.38l73.32-40.65V601.19z M668.44,597.4v-18.66l0.04-0.02l72.69-40.3v18.66v0.7
				l-72.73,40.32V597.4z"/>
			<path class="st9" d="M661.62,623.51l6.82-3.74L661.62,623.51z"/>
			<path class="st9" d="M586.64,664.62l1.66-0.91L586.64,664.62z"/>
			<path class="st9" d="M682.47,423.21l-20.85,11.56l-13.42,7.44l-23.25,12.89l-36.65,20.32l-0.7,0.39l-0.96,0.53v23.44l1.66-0.92
				l5.68-3.15l9.83-5.45l57.52-31.89l0.28-0.16l45.45-25.2l35.94-19.93v-23.44l-14.8,8.21L682.47,423.21z M661.62,456.17l-6.22,3.45
				l-10.56,5.86l-8.27,4.58l-11.96,6.63l-1.84,1.02l-17.11,9.49l-17.35,9.62v-19.36l30.29-16.79l4.53-2.51l38.51-21.35V456.17z
				 M741.17,412.07l-32.26,17.89l-40.47,22.44v-5.84v-13.52l12.19-6.76l45.73-25.36l14.8-8.21V412.07z"/>
			<path class="st9" d="M598.63,586.74l-10.33,5.72l-0.35,0.2l-1.31,0.73v22.12v1.32l1.66-0.92l73.32-40.65l81.39-45.13v-1.32
				v-22.12l-81.39,45.12L598.63,586.74z M661.62,571.89v1.32l-73.32,40.65v-1.32V594.5l73.32-40.65V571.89z M668.44,568.1v-18.04
				l0.04-0.02l72.69-40.3v18.04v1.32l-72.73,40.32V568.1z"/>
			<polygon class="st11" points="648.97,415.15 588.3,448.79 588.3,468.15 631.51,444.19 661.62,427.5 661.62,408.14 			"/>
			<polygon class="st11" points="668.44,404.36 668.44,423.72 686.28,413.83 689.03,412.3 734.77,386.94 741.17,383.4 741.17,376.3 
				741.17,364.04 706.49,383.26 			"/>
			<path class="st11" d="M531.28,480.41l2.71,1.5L531.28,480.41z"/>
			<polygon class="st11" points="618.59,460.67 588.3,477.46 588.3,496.82 605.65,487.2 622.76,477.72 624.61,476.7 636.57,470.06 
				644.84,465.48 655.4,459.62 661.62,456.17 661.62,436.81 623.11,458.17 			"/>
			<polygon class="st11" points="680.63,426.27 668.44,433.03 668.44,446.55 668.44,452.39 708.91,429.95 741.17,412.07 
				741.17,392.71 726.37,400.92 			"/>
			<polygon class="st11" points="668.44,462.9 668.44,482.26 677.02,477.5 681.97,474.75 741.17,441.94 741.17,422.58 
				699.43,445.72 			"/>
			<polygon class="st11" points="618.59,490.54 596.17,502.97 588.3,507.33 588.3,516.06 588.3,526.69 636.24,500.11 661.62,486.04 
				661.62,466.68 653.7,471.07 			"/>
			<polygon class="st11" points="668.44,491.57 668.44,497.26 668.44,510.93 741.17,470.61 741.17,451.25 673.57,488.73 			"/>
			<polygon class="st11" points="618.59,519.22 588.3,536.01 588.3,555.37 610.38,543.12 656.11,517.77 661.62,514.71 
				661.62,508.61 661.62,495.35 627.84,514.09 			"/>
			<polygon class="st11" points="428.67,627.13 442.18,634.61 443.78,635.49 442.18,634.6 			"/>
			<path class="st11" d="M588.3,663.71l73.32-40.2L588.3,663.71z"/>
			<path class="st11" d="M668.44,619.77l47.85-26.23L668.44,619.77z"/>
			<polygon class="st15" points="484.36,425.74 484.76,425.97 484.76,406.61 413.34,367.05 413.34,386.4 478.65,422.58 			"/>
			<path class="st16" d="M411.5,580.28L411.5,580.28l1.84,1.02l71.43,39.6l6.82,3.78l20.98,11.63l56.14,31.12l0.35,0.2v-129.5
				V433.14l-110.89-61.48l-18.77-10.41l-37.53-20.81l0.17-0.09l0.15-0.08l-0.79-0.44v153.41v81.26v0.16L411.5,580.28z M411.5,363.99
				l153.46,85v23.44l-133.02-73.68l-20.44-11.32V363.99z M411.5,392.66l153.46,85v23.44l-153.46-85V392.66z M411.5,422.53l153.46,85
				v23.44l-153.46-85V422.53z M411.5,451.2l153.46,85v2.23v20.54l-4.42-2.45l-33.36-18.48c-0.48-0.04-0.96-0.08-1.44-0.12
				L411.5,474.64V451.2z M411.5,503.14v-3.23V479.7l102.72,56.9c-0.1-0.01-0.2-0.02-0.3-0.04l43.97,24.35l7.06,3.92v23.31v0.13
				l-1.38-0.77l-16.26-9.01L411.5,503.26V503.14z M411.5,531.81V509.7l132.93,73.63l20.53,11.37v12.32v9.8v1.32l-1.38-0.77
				l-29.72-16.46L411.5,533.13V531.81z M411.5,561.11v-22.74l119.99,66.46l33.47,18.54v22.74v0.7v0l-1.38-0.77l-42.66-23.63
				L411.5,561.81V561.11z"/>
			<path class="st10" d="M564.96,472.43v-23.44l-153.46-85v23.44l20.44,11.32L564.96,472.43z M491.58,410.39l71.54,39.62v19.36
				l-5.97-3.3l-1.84-1.02l-63.73-35.3V410.39z M413.34,367.05l71.42,39.56v19.36l-0.4-0.22l-5.71-3.16l-65.31-36.18V367.05z"/>
			<path class="st10" d="M564.96,477.66l-153.46-85v23.44l153.46,85V477.66z M563.12,498.04l-5.97-3.31l-1.84-1.02l-4.72-2.61
				l-1.84-1.02l-14.76-8.18l-2.71-1.5l-1.84-1.02l-45.08-24.97l-5.71-3.16l-65.31-36.18v-19.36l71.43,39.56v19.36l6.82,3.78v-19.36
				l71.53,39.62V498.04z"/>
			<path class="st10" d="M564.96,507.53l-153.46-85v23.44l153.46,85V507.53z M563.12,527.91l-5.97-3.31l-1.84-1.02l-5.8-3.21
				l-1.84-1.02l-17.47-9.67l-1.84-1.02l-4.72-2.62l-1.84-1.02l-1.28-0.71l-12.35-6.84l-3.83-2.12l-1.84-1.02l-18.13-10.04
				l-71.03-39.34v-19.36l71.43,39.56v19.36l6.82,3.78v-19.36l71.53,39.62V527.91z"/>
			<path class="st10" d="M527.17,538.04l33.36,18.48l4.42,2.45v-20.54v-2.23l-153.46-85v23.44l114.24,63.28
				C526.21,537.96,526.69,538,527.17,538.04 M521.8,533.7l-13.64-7.55l-5.67-3.14l-4.72-2.61l-1.84-1.02l-17.47-9.67l-1.84-1.02
				l-63.28-35.05v-19.36l71.42,39.56v19.36l6.82,3.78V497.6l71.53,39.62v19.36l-5.96-3.31l-1.84-1.02l-4.72-2.61l-1.84-1.02
				l-17.47-9.67l-1.84-1.02l-5.8-3.21L521.8,533.7z"/>
			<path class="st10" d="M563.57,587.5l1.38,0.76v-0.13v-23.31l-7.06-3.91l-43.97-24.35c0.1,0.01,0.2,0.02,0.3,0.04l-102.73-56.9
				v20.21v3.23v0.13l135.83,75.23L563.57,587.5z M484.76,530.89v10.79v0.13l-71.42-39.56v-1.2v-18.29l71.42,39.56V530.89z
				 M491.58,532.52v-6.41l17.64,9.77c-0.11-0.02-0.21-0.03-0.31-0.05l48.07,26.63l6.14,3.4v19.23v0.13l-14.87-8.24l-56.66-31.38
				V532.52z"/>
			<path class="st10" d="M563.57,617.37l1.38,0.77v-1.32v-9.8V594.7l-20.53-11.38l-132.93-73.63v22.12v1.32l122.36,67.77
				L563.57,617.37z M484.76,570.35v1.32l-71.42-39.56v-1.32v-18.04l71.42,39.56V570.35z M491.58,574.13v-18.04l51.92,28.76
				l19.61,10.87v14.36v3.68v1.32l-28.35-15.7l-43.19-23.92V574.13z"/>
			<path class="st10" d="M563.57,646.04l1.38,0.77v-0.7v-22.74l-33.46-18.54l-120-66.47v22.75v0.7l109.42,60.61L563.57,646.04z
				 M484.76,599.65v0.7l-6.86-3.8l-6.56-3.63l-1.84-1.02l-17.47-9.67l-1.84-1.02l-4.56-2.53l-1.84-1.02l-1.6-0.89l-13.5-7.48
				l-1.84-1.02l-3.3-1.83l-7.13-3.95l-3.06-1.7v-0.69v-18.66l71.42,39.56V599.65z M491.58,604.13v-0.7v-18.66l38.99,21.59
				l32.55,18.03v18.66v0.69l-41.28-22.86l-0.04-0.02l-13.64-7.55L491.58,604.13z"/>
			<path class="st10" d="M411.5,580.28l1.84,1.02L411.5,580.28z"/>
			<polygon class="st15" points="557.15,466.06 557.15,466.06 563.12,469.37 563.12,450.01 491.58,410.39 491.58,429.74 
				555.31,465.04 			"/>
			<polygon class="st15" points="491.58,458.42 529.44,479.39 531.28,480.41 533.98,481.9 548.75,490.08 550.59,491.1 
				555.31,493.72 557.15,494.74 563.12,498.04 563.12,478.68 491.58,439.06 			"/>
			<polygon class="st15" points="484.76,435.28 413.34,395.72 413.34,415.08 478.65,451.26 484.36,454.42 484.76,454.64 			"/>
			<polygon class="st15" points="491.58,488.29 502.49,494.33 504.33,495.35 508.16,497.47 520.51,504.31 521.8,505.02 
				523.64,506.04 528.36,508.66 530.2,509.68 547.67,519.35 549.51,520.37 555.31,523.59 557.15,524.6 563.12,527.91 563.12,508.55 
				491.58,468.93 			"/>
			<polygon class="st15" points="484.76,465.15 413.34,425.59 413.34,444.95 484.36,484.29 484.76,484.51 			"/>
			<polygon class="st15" points="531.28,538.95 548.74,548.62 550.59,549.64 555.31,552.26 557.15,553.28 563.12,556.58 
				563.12,537.22 491.58,497.6 491.58,516.96 495.92,519.37 497.77,520.39 502.49,523 508.16,526.14 521.8,533.7 523.64,534.72 
				529.44,537.93 			"/>
			<polygon class="st15" points="484.76,493.82 413.34,454.26 413.34,473.62 476.62,508.67 478.46,509.69 484.76,513.18 			"/>
			<path class="st17" d="M576.01,427.32l10.58-5.85l103.46-57.23l55.13-30.5l-62.41-34.6l-5.74-3.18l-14.59-8.09l-82.68-45.84
				l-169.63,93.83l165.42,91.71L576.01,427.32z M435.27,338.09l144.48-79.89l140.27,77.77l-5.72,3.17l-138.76,76.72l-134.55-74.6
				L435.27,338.09z"/>
			<polygon class="st12" points="401.86,340.44 439.39,361.25 458.16,371.66 569.05,433.14 569.53,433.41 573.52,435.62 
				575.54,436.74 581.53,433.43 586.64,430.61 666.44,386.1 723.69,354.66 739.55,345.95 752.18,339.01 753.44,338.32 
				745.17,333.73 690.87,363.79 586.63,421.49 576.01,427.32 576.01,427.32 575.54,427.57 410.13,335.86 402.17,340.27 
				402.03,340.35 			"/>
			<polygon class="st9" points="643.44,299.85 699.58,330.97 714.3,339.13 720.02,335.96 579.75,258.2 579.75,264.54 			"/>
			<polygon class="st18" points="714.3,339.14 699.58,330.97 643.44,299.85 579.75,264.54 440.99,341.26 575.54,415.86 			"/>
			<polygon class="st10" points="579.75,258.19 435.27,338.09 440.99,341.26 579.75,264.54 			"/>
			<polygon class="st8" points="903.27,468.01 832.93,507.01 905.07,467.01 			"/>
			<path class="st9" d="M829.95,458.59l-6.82,3.78l-10.99,6.09l-45.74,25.36l-6.48,3.59l-6.48,3.59v0.72v1.32l11.12-6.17
				l45.74-25.36l12.83-7.11v18.04v1.32l-30.29,16.79l-39.4,21.85v0.72v1.32L791,503.62l32.12-17.81l6.82-3.78l73.32-40.65l3.38-1.87
				v-1.32v-22.12l-3.38,1.87L829.95,458.59z M903.27,438.01v1.32l-73.32,40.65v-1.32v-18.04l73.32-40.65V438.01z"/>
			<path class="st9" d="M858.4,471.49l-28.45,15.77l-3.41,1.89l-3.41,1.89l-36.85,20.43l-32.84,18.21v1.35v0.7l31-17.19l38.68-21.45
				v14.95v3.71v0.7l-56.14,31.13l-13.54,7.51v1.35v0.69l11.7-6.48l141.5-78.46v-0.7v-22.74l-3.38,1.87L858.4,471.49z M829.95,508.66
				v-0.7v-11.28v-7.38l73.32-40.65v18.66v0.7l1.8-1l-72.14,39.99L829.95,508.66z"/>
			<polygon class="st11" points="819.78,455.76 821.45,454.83 823.13,453.9 823.13,453.77 823.13,437.7 823.13,434.41 
				807.16,443.26 791.2,452.11 786.26,454.85 753.44,473.05 753.44,473.45 753.44,492.54 774.04,481.11 			"/>
			<polygon class="st11" points="823.13,483.77 823.13,482.45 823.13,464.41 810.3,471.52 764.57,496.88 753.44,503.05 
				753.44,509.44 753.44,515.38 753.44,521.08 753.44,522.4 792.84,500.56 			"/>
			<polygon class="st11" points="829.95,478.66 829.95,479.99 903.27,439.33 903.27,438.01 903.27,419.98 829.95,460.63 			"/>
			<polygon class="st11" points="903.27,467.31 903.27,448.65 829.95,489.3 829.95,496.69 829.95,507.96 829.95,508.66 
				832.93,507.01 903.27,468.01 			"/>
			<polygon class="st11" points="823.13,512.44 823.13,511.75 823.13,508.03 823.13,493.08 784.44,514.53 753.44,531.72 
				753.44,550.38 753.44,551.08 766.98,543.57 			"/>
			<path class="st11" d="M469.49,591.89L469.49,591.89z"/>
			<polygon class="st14" points="423.53,566.44 423.53,566.44 416.4,562.48 			"/>
			<polygon class="st9" points="575.07,684.51 575.07,707 765.47,602.31 937,507.85 937,485.65 765.47,580.1 			"/>
			<polygon class="st11" points="428.67,569.28 442.18,576.76 443.78,577.65 442.18,576.76 			"/>
			<polygon class="st11" points="668.44,520.2 668.44,539.43 668.44,539.56 741.17,499.24 741.17,499.11 741.17,479.88 
				668.48,520.18 			"/>
			<polygon class="st11" points="588.3,564.63 588.3,572.71 588.3,579.85 588.3,583.86 588.3,583.99 661.62,543.34 661.62,543.21 
				661.62,523.98 595.59,560.59 			"/>
			<polygon class="st11" points="588.3,612.54 588.3,613.86 661.62,573.21 661.62,571.89 661.62,553.85 588.3,594.5 			"/>
			<polygon class="st11" points="741.17,527.78 741.17,509.75 668.48,550.05 668.44,550.07 668.44,568.1 668.44,569.43 
				741.17,529.1 			"/>
			<polygon class="st11" points="588.3,630.56 588.3,641.84 588.3,642.53 606.07,632.68 661.62,601.88 661.62,601.18 661.62,582.52 
				588.3,623.17 			"/>
			<polygon class="st11" points="741.17,557.08 741.17,538.42 668.48,578.72 668.44,578.74 668.44,597.4 668.44,598.1 
				741.17,557.78 			"/>
			<polygon class="st18" points="924.98,478.71 924.98,478.71 906.64,488.8 903.27,490.66 829.95,531.03 823.13,534.79 
				804.74,544.91 753.44,573.16 716.29,593.53 668.44,619.77 661.62,623.51 588.3,663.71 586.64,664.62 581.53,667.42 576.46,670.2 
				575.07,670.97 575.07,684.51 765.47,580.1 937,485.65 937,485.61 			"/>
			<polygon class="st19" points="572.9,683.31 568.62,680.94 568.62,703.43 575.07,707 575.07,684.51 			"/>
			<polygon class="st16" points="562.6,677.6 506.45,646.47 449.32,614.79 389,581.35 389,600.77 389,603.84 416.4,619.03 
				416.67,619.18 496.32,663.34 552.45,694.46 568.62,703.43 568.62,680.94 			"/>
			<path class="st15" d="M563.12,585.21v-0.13v-19.23l-6.15-3.4l-48.07-26.63c0.11,0.02,0.21,0.03,0.31,0.05l-17.64-9.77v6.41v13.07
				l56.66,31.38L563.12,585.21z"/>
			<polygon class="st15" points="413.34,501.05 413.34,502.25 484.76,541.81 484.76,541.68 484.76,530.89 484.76,522.32 
				413.34,482.76 			"/>
			<polygon class="st15" points="563.12,615.08 563.12,613.75 563.12,610.07 563.12,595.72 543.5,584.85 491.58,556.09 
				491.58,574.13 491.58,575.45 534.77,599.37 			"/>
			<polygon class="st15" points="413.34,530.79 413.34,532.11 484.76,571.67 484.76,570.35 484.76,552.32 413.34,512.75 			"/>
			<polygon class="st15" points="521.84,620.89 563.12,643.75 563.12,643.05 563.12,624.39 530.57,606.36 491.58,584.77 
				491.58,603.43 491.58,604.13 508.16,613.31 521.8,620.86 			"/>
			<polygon class="st15" points="413.34,560.09 413.34,560.79 416.4,562.48 423.54,566.44 426.83,568.26 428.67,569.28 
				442.17,576.76 443.78,577.65 445.62,578.67 450.18,581.2 452.02,582.22 469.49,591.89 471.33,592.91 477.9,596.55 484.76,600.35 
				484.76,599.65 484.76,580.99 413.34,541.43 			"/>
			<polygon class="st8" points="506.46,646.47 562.6,677.6 568.63,680.94 572.91,683.31 575.07,684.51 575.07,670.97 569.05,667.63 
				568.71,667.44 512.56,636.31 491.58,624.68 484.76,620.89 413.34,581.3 411.49,580.28 401.38,574.67 401.38,574.5 397.86,576.44 
				389,581.35 449.32,614.79 			"/>
			<path class="st19" d="M575.08,651.9l0.02-0.01l0-2.04l0.03-19.38l0-2.04l-0.02,0.01l0.01-5.24l0.02-0.01l0-2.04l0.03-19.38
				l0.01-2.04l-0.02,0.01l0.01-6.43l0.02-0.01l0-2.04l0.03-19.38l0-2.04l-0.02,0.01l0.01-5.87l0.01-0.01l0.01-2.04l0.03-18.27
				l0-1.11l0-2.04l-0.01,0.01l0.01-3c0.03,0,0.07-0.01,0.1-0.01l0-1.61l0-2.04l0.01-0.01l0.03-19.38l-0.01,0.01l0-2.04l0.01-6.44
				l0-2.04l0.01,0l0.03-19.38l-0.01,0l0-2.04l0.01-5.24l0-2.04h0l0.03-19.38h0l0-2.04l0.03-17.1l-2.02-1.12l-4-2.22l-0.48-0.26
				v104.99v129.5l6.02,3.33v-14.11L575.08,651.9z"/>
			<path class="st14" d="M581.53,536.75V433.43l-5.99,3.31l-0.03,17.1l0,2.04l-0.03,19.38l0,2.04l-0.01,0l-0.01,5.24l0.01,0
				l-0.01,2.04l-0.03,19.38l0,2.04l-0.01,0l-0.01,6.44l0.01,0l0,2.04l-0.03,19.38l-0.01,2.04l-0.01,0.01l0,1.61
				c-0.03,0-0.07,0.01-0.1,0.01l-0.01,3l0.01-0.01l0,2.04l0,1.11l-0.03,18.27l0,2.04l-0.01,0.01l-0.01,5.87l0.02-0.01l0,2.04
				l-0.03,19.38l0,2.04l-0.02,0.01l-0.01,6.43l0.02-0.01l0,2.04l-0.03,19.38l0,2.04l-0.02,0.01l-0.01,5.24l0.02-0.01l-0.01,2.04
				l-0.03,19.38l0,2.04l-0.02,0.01l-0.01,4.95v14.11l1.4-0.77l5.06-2.78V536.75z"/>
		</g>
	</g>
</g>
<g>
	<g>
		<g>
			<path class="st20" d="M664.5,423c26.88,33.18,53.64,66.21,80.5,99.36c-53.76,26.92-107.2,53.69-161,80.64
				C610.86,542.94,637.63,483.08,664.5,423z"/>
		</g>
	</g>
	<g>
		<g>
			<path class="st21" d="M666.09,435.76c23.07,28.48,46.04,56.82,69.09,85.28c-46.14,23.11-92.01,46.08-138.18,69.21
				C620.05,538.69,643.03,487.32,666.09,435.76z"/>
		</g>
	</g>
	<g>
		<g>
			<path d="M669.11,465.32c4.81,0.47,9.44,0.92,14.19,1.38c-5.84,12.23-11.61,24.3-17.37,36.37c0.04,0.04,0.09,0.08,0.14,0.12
				c7.89-7.38,15.77-14.76,23.98-22.44c-5.32,16.6-10.52,32.82-15.74,49.12c3.48-1.74,6.86-3.44,10.24-5.13
				c0.03,0.06,0.06,0.11,0.09,0.17c-6.28,6.88-12.55,13.77-18.94,20.78c-3.15-5.28-6.23-10.45-9.32-15.62
				c0.08-0.12,0.17-0.24,0.25-0.36c2.63,0.42,5.26,0.83,8.01,1.26c3.53-9.01,7.02-17.91,10.68-27.24
				c-7.66,6.66-15.03,13.07-22.71,19.75C658.14,503.97,663.59,484.76,669.11,465.32z"/>
		</g>
	</g>
</g>
</svg>
