<svg width="1117" height="308" viewBox="0 0 1117 308" fill="none" xmlns="http://www.w3.org/2000/svg">
<path d="M162.263 285.721C82.463 290.822 16.4057 224.763 21.5047 144.963C25.7227 79.003 79.0007 25.7229 144.96 21.5049C224.763 16.4017 290.826 82.4653 285.723 162.268C281.505 228.229 228.223 281.505 162.263 285.721ZM163.656 0.321473C71.0572 -5.59901 -5.59708 71.0531 0.321283 163.652C5.21646 240.187 67.0366 302.012 143.572 306.905C236.171 312.827 312.827 236.171 306.906 143.574C302.013 67.0368 240.191 5.21452 163.656 0.321473" fill="#80D4F7"/>
<path d="M103.835 46.8373C78.1743 57.6275 57.6235 78.1783 46.8354 103.841C11.096 188.838 72.9671 270.754 153.614 270.754C205.631 270.754 249.822 236.664 265.061 189.659C265.414 188.572 264.584 187.452 263.442 187.452H246.325C244.525 187.452 242.935 188.56 242.248 190.222C222.915 236.858 167.835 265.067 111.354 240.396C91.9831 231.935 76.2192 216.612 67.4924 197.359C35.4742 126.71 86.6358 57.7018 153.614 57.7018C201.851 57.7018 241.87 93.4964 248.537 139.916C248.883 142.323 247.03 144.492 244.595 144.492H229.375H207.943H181.476H108.095H103.329C101.198 144.492 99.6188 142.489 100.128 140.419C106.057 116.391 127.782 98.519 153.614 98.519C172.817 98.519 189.751 108.396 199.615 123.335C200.447 124.593 201.825 125.387 203.337 125.387H221.96C223.168 125.387 224.006 124.143 223.522 123.039C211.711 96.1351 184.83 77.291 153.614 77.291C111.53 77.291 77.2912 111.53 77.2912 153.614C77.2912 154.971 77.3315 156.321 77.4058 157.66C77.565 160.515 79.9659 162.732 82.8253 162.732H92.5117H99.2855H108.095H121.339H204.634C206.393 162.732 207.669 164.381 207.272 166.092C201.602 190.481 179.701 208.709 153.614 208.709C134.547 208.709 117.718 198.972 107.823 184.208C106.809 182.696 105.062 181.837 103.24 181.837H85.2687C84.0608 181.837 83.2223 183.081 83.7084 184.187C95.5176 211.091 122.399 229.937 153.614 229.937C192.612 229.937 224.851 200.53 229.375 162.732L249.081 162.763H266.401C268.657 162.763 270.513 160.989 270.623 158.734C270.706 157.038 270.755 155.331 270.755 153.614C270.755 72.9668 188.834 11.0936 103.835 46.8373Z" fill="#379ED8"/>
<path d="M103.835 46.8371C78.1743 57.6273 57.6235 78.1781 46.8354 103.841C11.096 188.837 72.9671 270.754 153.614 270.754C205.631 270.754 249.822 236.664 265.061 189.659C265.414 188.572 264.584 187.451 263.442 187.451H246.325C244.525 187.451 242.935 188.559 242.248 190.222C222.915 236.857 167.835 265.067 111.354 240.396C91.9831 231.935 76.2192 216.612 67.4924 197.358C35.4742 126.71 86.6358 57.7016 153.614 57.7016C201.851 57.7016 241.87 93.4962 248.537 139.915C248.883 142.323 247.03 144.492 244.595 144.492H229.375H207.943H181.476H108.095H103.329C101.198 144.492 99.6188 142.488 100.128 140.419C106.057 116.391 127.782 98.5187 153.614 98.5187C172.817 98.5187 189.751 108.396 199.615 123.334C200.447 124.593 201.825 125.387 203.337 125.387H221.96C223.168 125.387 224.006 124.143 223.522 123.039C211.711 96.1348 184.83 77.2907 153.614 77.2907C111.53 77.2907 77.2912 111.529 77.2912 153.614C77.2912 154.97 77.3315 156.32 77.4058 157.66C77.565 160.515 79.9659 162.731 82.8253 162.731H92.5117H99.2855H108.095H121.339H204.634C206.393 162.731 207.669 164.381 207.272 166.092C201.602 190.481 179.701 208.709 153.614 208.709C134.547 208.709 117.718 198.972 107.823 184.208C106.809 182.696 105.062 181.836 103.24 181.836H85.2687C84.0608 181.836 83.2223 183.08 83.7084 184.186C95.5176 211.091 122.399 229.937 153.614 229.937C192.612 229.937 224.851 200.53 229.375 162.731L249.081 162.763H266.401C268.657 162.763 270.513 160.988 270.623 158.734C270.706 157.038 270.755 155.331 270.755 153.614C270.755 72.9666 188.834 11.0934 103.835 46.8371Z" fill="#2183C5"/>
<path d="M469.901 98.6403C469.901 101.294 472.053 103.446 474.707 103.446H476.165C479.12 103.446 482.903 103.446 486.213 100.965C489.051 98.7188 490.467 95.1716 490.467 91.7454C490.467 87.3703 488.34 84.4175 486.094 82.7617C482.903 80.5158 478.885 80.2802 475.221 80.2802H474.707C472.053 80.2802 469.901 82.4306 469.901 85.0862V98.6403ZM477.464 67.0403C486.331 67.0403 492.477 67.987 498.268 73.069C504.651 78.7433 506.305 86.4257 506.305 92.0999C506.305 95.1716 505.834 103.682 499.805 109.711C495.432 114.084 488.93 116.684 479.829 116.684H474.707C472.053 116.684 469.901 118.837 469.901 121.49V141.073C469.901 143.726 467.748 145.879 465.095 145.879H459.342C456.687 145.879 454.536 143.726 454.536 141.073V71.8463C454.536 69.1928 456.687 67.0403 459.342 67.0403H477.464Z" fill="#379ED8"/>
<path d="M556.449 80.2799H537.966C535.236 80.2799 533.024 82.4919 533.024 85.2218V92.9488C533.024 95.6787 535.236 97.8907 537.966 97.8907H555.266C557.996 97.8907 560.208 100.103 560.208 102.833V106.189C560.208 108.916 557.996 111.128 555.266 111.128H537.966C535.236 111.128 533.024 113.343 533.024 116.07V127.699C533.024 130.429 535.236 132.641 537.966 132.641H556.449C559.179 132.641 561.391 134.853 561.391 137.583V140.939C561.391 143.667 559.179 145.879 556.449 145.879H522.601C519.871 145.879 517.659 143.667 517.659 140.939V71.984C517.659 69.2541 519.871 67.0422 522.601 67.0422H556.449C559.179 67.0422 561.391 69.2541 561.391 71.984V75.3381C561.391 78.068 559.179 80.2799 556.449 80.2799Z" fill="#379ED8"/>
<path d="M576.29 143.733V69.1869C576.29 68.0024 577.249 67.0408 578.436 67.0408H585.98C586.585 67.0408 587.161 67.2955 587.566 67.7413L631.183 115.549C632.504 116.997 634.915 116.063 634.915 114.103V69.1869C634.915 68.0024 635.875 67.0408 637.061 67.0408H648.136C649.318 67.0408 650.28 68.0024 650.28 69.1869V143.733C650.28 144.918 649.318 145.879 648.136 145.879H640.591C639.989 145.879 639.411 145.625 639.006 145.179L595.389 97.2631C594.068 95.8153 591.655 96.7493 591.655 98.7087V143.733C591.655 144.918 590.693 145.879 589.511 145.879H578.436C577.249 145.879 576.29 144.918 576.29 143.733Z" fill="#379ED8"/>
<path d="M735.222 80.2799H715.467C713.09 80.2799 711.162 82.2096 711.162 84.5871V93.5835C711.162 95.9632 713.09 97.8907 715.467 97.8907H734.04C736.419 97.8907 738.349 99.8203 738.349 102.198V106.821C738.349 109.201 736.419 111.128 734.04 111.128H715.467C713.09 111.128 711.162 113.058 711.162 115.436V128.334C711.162 130.713 713.09 132.641 715.467 132.641H735.222C737.602 132.641 739.529 134.571 739.529 136.948V141.574C739.529 143.951 737.602 145.879 735.222 145.879H700.103C697.725 145.879 695.797 143.951 695.797 141.574V71.3472C695.797 68.9697 697.725 67.0422 700.103 67.0422H735.222C737.602 67.0422 739.529 68.9697 739.529 71.3472V75.9728C739.529 78.3524 737.602 80.2799 735.222 80.2799Z" fill="#379ED8"/>
<path d="M754.427 143.364V69.5568C754.427 68.1685 755.552 67.0413 756.942 67.0413H763.956C764.663 67.0413 765.338 67.3406 765.813 67.8606L808.681 114.845C810.227 116.543 813.052 115.447 813.052 113.151V69.5568C813.052 68.1685 814.177 67.0413 815.568 67.0413H825.904C827.292 67.0413 828.417 68.1685 828.417 69.5568V143.364C828.417 144.753 827.292 145.88 825.904 145.88H818.892C818.185 145.88 817.51 145.581 817.032 145.056L774.167 97.9704C772.619 96.2701 769.792 97.3654 769.792 99.6623V143.364C769.792 144.753 768.666 145.88 767.278 145.88H756.942C755.552 145.88 754.427 144.753 754.427 143.364Z" fill="#379ED8"/>
<path d="M885.275 80.2799H866.61C863.929 80.2799 861.759 82.4516 861.759 85.1305V93.0401C861.759 95.719 863.929 97.8907 866.61 97.8907H884.093C886.772 97.8907 888.946 100.062 888.946 102.741V106.28C888.946 108.957 886.772 111.128 884.093 111.128H866.61C863.929 111.128 861.759 113.3 861.759 115.979V127.79C861.759 130.469 863.929 132.641 866.61 132.641H885.275C887.954 132.641 890.126 134.813 890.126 137.491V141.03C890.126 143.707 887.954 145.879 885.275 145.879H851.245C848.564 145.879 846.394 143.707 846.394 141.03V71.8928C846.394 69.2138 848.564 67.0422 851.245 67.0422H885.275C887.954 67.0422 890.126 69.2138 890.126 71.8928V75.4293C890.126 78.1083 887.954 80.2799 885.275 80.2799Z" fill="#379ED8"/>
<path d="M920.389 99.504C920.389 101.616 922.102 103.327 924.214 103.327H924.764C927.717 103.327 939.893 102.973 939.893 91.3907C939.893 79.6898 927.835 79.5709 924.999 79.5709H924.214C922.102 79.5709 920.389 81.284 920.389 83.3962V99.504ZM927.835 67.0422C938.711 67.0422 944.264 69.8782 947.93 72.952C953.957 78.034 955.729 84.7718 955.729 90.6795C955.729 98.3619 952.655 105.1 946.512 109.237C945.482 109.963 944.24 110.655 942.767 111.256C940.46 112.194 939.655 115.06 941.137 117.062L957.952 139.78C959.82 142.304 958.02 145.879 954.88 145.879H945.37C944.088 145.879 942.892 145.238 942.186 144.172L922.28 114.202H920.389V142.056C920.389 144.168 918.676 145.879 916.563 145.879H908.847C906.735 145.879 905.024 144.168 905.024 142.056V70.8653C905.024 68.7531 906.735 67.0422 908.847 67.0422H927.835Z" fill="#379ED8"/>
<path d="M1012.82 107.395C1012.82 105.344 1014.49 103.682 1016.54 103.682H1048.99V104.627C1048.99 109.947 1048.28 126.494 1037.41 137.25C1029.25 145.406 1019.21 147.652 1009.4 147.652C999.588 147.652 989.422 145.644 980.793 137.015C978.076 134.295 969.092 124.367 969.092 106.639C969.092 91.3913 975.949 82.0531 980.674 77.3256C986.586 71.2969 996.512 65.2682 1011.76 65.2682C1017.67 65.2682 1023.93 66.2149 1029.96 69.4055C1034.16 71.5516 1038.68 75.1477 1042.45 80.3273C1043.76 82.1253 1043.14 84.6918 1041.18 85.7489L1034.47 89.3683C1032.84 90.2492 1030.79 89.795 1029.71 88.2835C1027.2 84.7385 1024.17 82.7515 1022.16 81.6986C1018.85 80.0428 1014.72 79.2171 1011.05 79.2171C1004.79 79.2171 997.695 81.4609 992.85 86.1905C988.359 90.5613 984.93 98.127 984.93 106.994C984.93 117.512 989.422 123.777 992.732 126.967C996.277 130.396 1001.83 133.705 1010.22 133.705C1015.43 133.705 1021.34 132.287 1025.71 128.978C1027.69 127.453 1029.67 125.241 1031.18 122.344C1032.46 119.877 1030.64 116.92 1027.87 116.92H1016.54C1014.49 116.92 1012.82 115.26 1012.82 113.209V107.395Z" fill="#379ED8"/>
<path d="M1075.49 108.911L1052.64 72.7898C1051.06 70.2955 1052.85 67.0413 1055.81 67.0413H1065.11C1066.41 67.0413 1067.62 67.7163 1068.3 68.8223L1080.92 89.2903C1082.38 91.6636 1085.83 91.6636 1087.3 89.2903L1099.91 68.8223C1100.59 67.7163 1101.8 67.0413 1103.1 67.0413H1112.31C1115.28 67.0413 1117.07 70.3358 1115.45 72.8259L1092.04 108.899C1091.64 109.506 1091.44 110.215 1091.44 110.939V142.133C1091.44 144.203 1089.76 145.88 1087.69 145.88H1079.82C1077.75 145.88 1076.07 144.203 1076.07 142.133V110.915C1076.07 110.206 1075.87 109.512 1075.49 108.911Z" fill="#379ED8"/>
<path d="M401.658 187.329C400.246 189.176 397.569 189.492 395.792 187.994C391.984 184.782 388.104 184.41 385.856 184.41C377.583 184.41 374.983 189.611 374.983 193.63C374.983 195.519 375.573 197.294 377.464 198.949C379.356 200.722 381.956 201.667 386.919 203.439C393.067 205.568 398.858 207.695 402.876 211.357C406.423 214.55 409.614 219.87 409.614 227.907C409.614 243.274 398.503 253.792 382.192 253.792C369.981 253.792 362.023 247.538 357.336 241.964C355.945 240.308 356.1 237.856 357.665 236.366L361.541 232.672C363.275 231.021 365.986 231.301 367.51 233.148C371.482 237.971 377.088 239.843 381.601 239.843C388.575 239.843 393.776 235.589 393.776 228.97C393.776 226.132 392.829 223.888 390.702 221.878C387.747 219.159 383.02 217.624 378.528 216.087C374.39 214.669 369.427 212.777 365.409 209.23C362.808 206.986 359.144 202.611 359.144 194.574C359.144 182.992 366.944 171.408 384.438 171.408C388.785 171.408 396.484 172.134 403.73 177.868C405.502 179.273 405.861 181.825 404.49 183.623L401.658 187.329Z" fill="#379ED8"/>
<path d="M487.629 212.66C487.629 196.701 476.756 185.356 461.389 185.356C446.024 185.356 435.151 196.701 435.151 212.66C435.151 228.617 446.024 239.844 461.389 239.844C476.756 239.844 487.629 228.617 487.629 212.66ZM503.467 212.66C503.467 236.654 486.211 253.791 461.389 253.791C436.569 253.791 419.311 236.654 419.311 212.66C419.311 188.664 436.569 171.408 461.389 171.408C486.211 171.408 503.467 188.664 503.467 212.66Z" fill="#379ED8"/>
<path d="M533.024 175.646V236.318C533.024 237.678 534.128 238.78 535.489 238.78H554.911C556.271 238.78 557.373 239.884 557.373 241.245V249.555C557.373 250.916 556.271 252.02 554.911 252.02H520.122C518.761 252.02 517.66 250.916 517.66 249.555V175.646C517.66 174.285 518.761 173.181 520.122 173.181H530.56C531.921 173.181 533.024 174.285 533.024 175.646Z" fill="#379ED8"/>
<path d="M578.419 173.181C579.79 173.181 580.899 174.291 580.899 175.66V222.706C580.899 228.734 582.907 232.398 584.681 234.407C586.927 237.126 591.065 239.843 597.21 239.843C603.356 239.843 607.493 237.126 609.739 234.407C611.511 232.398 613.522 228.734 613.522 222.706V175.66C613.522 174.291 614.632 173.181 616.001 173.181H626.407C627.778 173.181 628.887 174.291 628.887 175.66V221.407C628.887 228.853 627.704 236.417 622.977 242.444C617.302 249.89 607.376 253.792 597.21 253.792C587.044 253.792 577.118 249.89 571.444 242.444C566.714 236.417 565.534 228.853 565.534 221.407V175.66C565.534 174.291 566.644 173.181 568.013 173.181H578.419Z" fill="#379ED8"/>
<path d="M671.681 188.993V249.446C671.681 250.866 670.529 252.019 669.109 252.019H658.889C657.469 252.019 656.317 250.866 656.317 249.446V188.993C656.317 187.573 655.164 186.42 653.744 186.42H641.16C639.74 186.42 638.587 185.267 638.587 183.847V175.755C638.587 174.333 639.74 173.18 641.16 173.18H686.84C688.26 173.18 689.413 174.333 689.413 175.755V183.847C689.413 185.267 688.26 186.42 686.84 186.42H674.254C672.834 186.42 671.681 187.573 671.681 188.993Z" fill="#379ED8"/>
<path d="M714.471 175.421V249.781C714.471 251.016 713.467 252.018 712.232 252.018H701.344C700.108 252.018 699.106 251.016 699.106 249.781V175.421C699.106 174.184 700.108 173.182 701.344 173.182H712.232C713.467 173.182 714.471 174.184 714.471 175.421Z" fill="#379ED8"/>
<path d="M796.976 212.66C796.976 196.701 786.101 185.356 770.736 185.356C755.369 185.356 744.496 196.701 744.496 212.66C744.496 228.617 755.369 239.844 770.736 239.844C786.101 239.844 796.976 228.617 796.976 212.66ZM812.814 212.66C812.814 236.654 795.558 253.791 770.736 253.791C745.914 253.791 728.658 236.654 728.658 212.66C728.658 188.664 745.914 171.408 770.736 171.408C795.558 171.408 812.814 188.664 812.814 212.66Z" fill="#379ED8"/>
<path d="M827.006 250.213V174.987C827.006 173.99 827.815 173.181 828.813 173.181H836.848C837.355 173.181 837.841 173.395 838.183 173.771L882.492 222.336C883.602 223.555 885.632 222.767 885.632 221.118V174.987C885.632 173.99 886.44 173.181 887.438 173.181H899.192C900.19 173.181 900.996 173.99 900.996 174.987V250.213C900.996 251.211 900.19 252.02 899.192 252.02H891.159C890.65 252.02 890.166 251.805 889.824 251.429L845.515 202.756C844.403 201.535 842.371 202.321 842.371 203.972V250.213C842.371 251.211 841.562 252.02 840.567 252.02H828.813C827.815 252.02 827.006 251.211 827.006 250.213Z" fill="#379ED8"/>
<path d="M959.43 188.937C958.579 190.052 956.964 190.092 955.981 189.094C951.814 184.863 947.341 184.411 944.859 184.411C936.585 184.411 933.984 189.612 933.984 193.629C933.984 195.52 934.574 197.295 936.466 198.948C938.357 200.721 940.958 201.668 945.923 203.44C952.068 205.567 957.859 207.694 961.878 211.358C965.423 214.551 968.616 219.871 968.616 227.907C968.616 243.272 957.505 253.791 941.193 253.791C927.926 253.791 919.679 246.41 915.195 240.538C914.497 239.621 914.605 238.333 915.439 237.536L921.993 231.291C923.018 230.315 924.644 230.54 925.436 231.709C929.418 237.604 935.666 239.844 940.603 239.844C947.577 239.844 952.777 235.59 952.777 228.971C952.777 226.133 951.833 223.887 949.704 221.879C946.749 219.159 942.021 217.623 937.531 216.088C933.392 214.67 928.429 212.778 924.41 209.231C921.81 206.985 918.146 202.612 918.146 194.575C918.146 182.993 925.947 171.409 943.439 171.409C948.09 171.409 956.577 172.239 964.241 179.147C965.126 179.945 965.281 181.28 964.557 182.225L959.43 188.937Z" fill="#379ED8"/>
<path d="M401.328 95.8635H395.206C392.86 95.8635 390.96 93.9615 390.96 91.6179V56.2542C390.96 53.9085 392.86 52.0086 395.206 52.0086H401.328C403.672 52.0086 405.574 53.9085 405.574 56.2542V91.6179C405.574 93.9615 403.672 95.8635 401.328 95.8635Z" fill="#379ED8"/>
<path d="M411.942 67.2121V82.8105C419.682 87.3639 424.505 95.9103 424.505 106.52C424.505 122.477 413.632 133.705 398.267 133.705C382.9 133.705 372.027 122.477 372.027 106.52C372.027 95.9103 376.852 87.3639 384.592 82.8105V67.2121C367.34 72.3387 356.189 87.2429 356.189 106.52C356.189 130.514 373.445 147.651 398.267 147.651C423.087 147.651 440.345 130.514 440.345 106.52C440.345 87.2429 429.192 72.3366 411.942 67.2121Z" fill="#379ED8"/>
<path d="M147.971 229.606C129.368 227.899 113.198 220.508 100.366 207.847C96.0015 203.541 93.2461 200.186 89.8335 195.02C87.5026 191.492 83.7407 184.391 83.7407 183.52C83.7407 183.266 83.9823 182.818 84.2776 182.522C84.7407 182.059 86.1603 181.986 94.6126 181.986C106.308 181.987 105.756 181.828 109.012 186.128C114.951 193.971 121.449 199.383 129.682 203.342C149.701 212.969 173.391 209.726 190.082 195.074C193.611 191.977 196.728 188.381 199.591 184.108C202.46 179.825 204.282 176.073 206.06 170.789C207.866 165.424 207.859 163.958 206.028 163.011C205.19 162.578 196.841 162.511 143.337 162.511H81.6131L80.3707 161.805C77.9626 160.436 77.775 159.895 77.6507 153.97C77.094 127.439 91.5074 102.059 115.118 87.994C124.432 82.4459 135.752 78.7954 146.776 77.785C174.363 75.2564 201.445 88.2499 216.912 111.434C219.393 115.153 223.454 122.704 223.468 123.624C223.473 123.939 223.235 124.439 222.94 124.734C222.151 125.523 203.12 125.539 201.599 124.753C201.048 124.468 199.482 122.738 198.121 120.909C194.955 116.657 189.971 111.726 185.869 108.785C182.202 106.157 175.059 102.481 171.063 101.166C164.112 98.8788 156.126 97.9289 149.201 98.566C141.353 99.2881 135.944 100.815 129.01 104.267C115.292 111.095 105.619 122.483 100.825 137.449C99.6144 141.228 99.6539 142.461 101.027 143.751L101.903 144.575L165.679 144.746L229.455 144.916L229.765 149.187C230.43 158.364 228.652 170.076 225.17 179.462C215.334 205.977 192.439 224.716 164.712 228.944C161.191 229.481 150.999 229.884 147.971 229.606Z" fill="#1C71A1"/>
</svg>
