<svg width="308" height="308" viewBox="0 0 308 308" fill="none" xmlns="http://www.w3.org/2000/svg">
<path d="M162.263 285.721C82.463 290.822 16.4057 224.763 21.5047 144.963C25.7227 79.003 79.0007 25.7229 144.96 21.5049C224.763 16.4017 290.826 82.4653 285.723 162.268C281.505 228.229 228.223 281.505 162.263 285.721ZM163.656 0.321472C71.0572 -5.599 -5.59708 71.0531 0.321283 163.652C5.21646 240.187 67.0366 302.012 143.572 306.905C236.171 312.827 312.827 236.171 306.906 143.574C302.013 67.0368 240.191 5.21454 163.656 0.321472Z" fill="#80D4F7"/>
<path d="M103.835 46.8373C78.1743 57.6275 57.6235 78.1783 46.8354 103.841C11.096 188.838 72.9671 270.754 153.614 270.754C205.631 270.754 249.822 236.664 265.061 189.659C265.414 188.572 264.584 187.452 263.442 187.452H246.325C244.525 187.452 242.935 188.56 242.248 190.222C222.915 236.858 167.835 265.067 111.354 240.396C91.9831 231.935 76.2192 216.612 67.4924 197.359C35.4742 126.71 86.6358 57.7018 153.614 57.7018C201.851 57.7018 241.87 93.4964 248.537 139.916C248.883 142.323 247.03 144.492 244.595 144.492H229.375H207.943H181.476H108.095H103.329C101.198 144.492 99.6188 142.489 100.128 140.419C106.057 116.391 127.782 98.519 153.614 98.519C172.817 98.519 189.751 108.396 199.615 123.335C200.447 124.593 201.825 125.387 203.337 125.387H221.96C223.168 125.387 224.006 124.143 223.522 123.039C211.711 96.1351 184.83 77.291 153.614 77.291C111.53 77.291 77.2912 111.53 77.2912 153.614C77.2912 154.971 77.3315 156.321 77.4058 157.66C77.565 160.515 79.9659 162.732 82.8253 162.732H92.5117H99.2855H108.095H121.339H204.634C206.393 162.732 207.669 164.381 207.272 166.092C201.602 190.481 179.701 208.709 153.614 208.709C134.547 208.709 117.718 198.972 107.823 184.208C106.809 182.696 105.062 181.837 103.24 181.837H85.2687C84.0608 181.837 83.2223 183.081 83.7084 184.187C95.5176 211.091 122.399 229.937 153.614 229.937C192.612 229.937 224.851 200.53 229.375 162.732L249.081 162.763H266.401C268.657 162.763 270.513 160.989 270.623 158.734C270.706 157.038 270.755 155.331 270.755 153.614C270.755 72.9668 188.834 11.0936 103.835 46.8373Z" fill="#379ED8"/>
<path d="M103.835 46.8371C78.1743 57.6273 57.6235 78.1781 46.8354 103.841C11.096 188.837 72.9671 270.754 153.614 270.754C205.631 270.754 249.822 236.664 265.061 189.659C265.414 188.572 264.584 187.451 263.442 187.451H246.325C244.525 187.451 242.935 188.559 242.248 190.222C222.915 236.857 167.835 265.067 111.354 240.396C91.9831 231.935 76.2192 216.612 67.4924 197.358C35.4742 126.71 86.6358 57.7016 153.614 57.7016C201.851 57.7016 241.87 93.4962 248.537 139.915C248.883 142.323 247.03 144.492 244.595 144.492H229.375H207.943H181.476H108.095H103.329C101.198 144.492 99.6188 142.488 100.128 140.419C106.057 116.391 127.782 98.5187 153.614 98.5187C172.817 98.5187 189.751 108.396 199.615 123.334C200.447 124.593 201.825 125.387 203.337 125.387H221.96C223.168 125.387 224.006 124.143 223.522 123.039C211.711 96.1348 184.83 77.2907 153.614 77.2907C111.53 77.2907 77.2912 111.529 77.2912 153.614C77.2912 154.97 77.3315 156.32 77.4058 157.66C77.565 160.515 79.9659 162.731 82.8253 162.731H92.5117H99.2855H108.095H121.339H204.634C206.393 162.731 207.669 164.381 207.272 166.092C201.602 190.481 179.701 208.709 153.614 208.709C134.547 208.709 117.718 198.972 107.823 184.208C106.809 182.696 105.062 181.836 103.24 181.836H85.2687C84.0608 181.836 83.2223 183.08 83.7084 184.186C95.5176 211.091 122.399 229.937 153.614 229.937C192.612 229.937 224.851 200.53 229.375 162.731L249.081 162.763H266.401C268.657 162.763 270.513 160.988 270.623 158.734C270.706 157.038 270.755 155.331 270.755 153.614C270.755 72.9666 188.834 11.0934 103.835 46.8371Z" fill="#2183C5"/>
<path d="M147.971 229.606C129.368 227.899 113.198 220.508 100.366 207.847C96.0015 203.541 93.2461 200.186 89.8335 195.02C87.5026 191.492 83.7407 184.391 83.7407 183.52C83.7407 183.266 83.9823 182.818 84.2776 182.522C84.7407 182.059 86.1603 181.986 94.6126 181.986C106.308 181.987 105.756 181.828 109.012 186.128C114.951 193.971 121.449 199.383 129.682 203.342C149.701 212.969 173.391 209.726 190.082 195.074C193.611 191.977 196.728 188.381 199.591 184.108C202.46 179.825 204.282 176.073 206.06 170.789C207.866 165.424 207.859 163.958 206.028 163.011C205.19 162.578 196.841 162.511 143.337 162.511H81.6131L80.3707 161.805C77.9626 160.436 77.775 159.895 77.6507 153.97C77.094 127.439 91.5074 102.059 115.118 87.994C124.432 82.4459 135.752 78.7954 146.776 77.785C174.363 75.2564 201.445 88.2499 216.912 111.434C219.393 115.153 223.454 122.704 223.468 123.624C223.473 123.939 223.235 124.439 222.94 124.734C222.151 125.523 203.12 125.539 201.599 124.753C201.048 124.468 199.482 122.738 198.121 120.909C194.955 116.657 189.971 111.726 185.869 108.785C182.202 106.157 175.059 102.481 171.063 101.166C164.112 98.8788 156.126 97.9289 149.201 98.566C141.353 99.2881 135.944 100.815 129.01 104.267C115.292 111.095 105.619 122.483 100.825 137.449C99.6144 141.228 99.6539 142.461 101.027 143.751L101.903 144.575L165.679 144.746L229.455 144.916L229.765 149.187C230.43 158.364 228.652 170.076 225.17 179.462C215.334 205.977 192.439 224.716 164.712 228.944C161.191 229.481 150.999 229.884 147.971 229.606Z" fill="#1C71A1"/>
</svg>
