<?xml version="1.0" encoding="utf-8"?>
<!-- Generator: Adobe Illustrator 25.3.1, SVG Export Plug-In . SVG Version: 6.00 Build 0)  -->
<svg version="1.1" id="Layer_1" xmlns="http://www.w3.org/2000/svg" xmlns:xlink="http://www.w3.org/1999/xlink" x="0px" y="0px"
	 viewBox="0 0 1228 988" style="enable-background:new 0 0 1228 988;" xml:space="preserve">
<style type="text/css">
	.st0{clip-path:url(#SVGID_2_);}
	.st1{clip-path:url(#SVGID_4_);}
	.st2{opacity:0.5;clip-path:url(#SVGID_6_);}
	.st3{clip-path:url(#SVGID_8_);fill:#7C7C7C;}
	.st4{clip-path:url(#SVGID_4_);fill:#DDED48;}
	.st5{clip-path:url(#SVGID_4_);fill:#B7B76C;}
	.st6{clip-path:url(#SVGID_4_);fill:#504A2F;}
	.st7{clip-path:url(#SVGID_10_);}
	.st8{clip-path:url(#SVGID_12_);fill:#728D73;}
	.st9{clip-path:url(#SVGID_12_);fill:#566E59;}
	.st10{clip-path:url(#SVGID_12_);fill:#10140F;}
	.st11{clip-path:url(#SVGID_12_);fill:#2A332B;}
	.st12{clip-path:url(#SVGID_12_);fill:#3D4D3F;}
	.st13{clip-path:url(#SVGID_12_);fill:#6C866D;}
	.st14{clip-path:url(#SVGID_12_);fill:#324235;}
	.st15{clip-path:url(#SVGID_12_);fill:#231F20;}
	.st16{clip-path:url(#SVGID_12_);fill:#FFF100;}
	.st17{clip-path:url(#SVGID_12_);}
</style>
<g id="Artwork_14_1_">
	<g>
		<defs>
			<rect id="SVGID_1_" y="140" width="1228.08" height="847.97"/>
		</defs>
		<clipPath id="SVGID_2_">
			<use xlink:href="#SVGID_1_"  style="overflow:visible;"/>
		</clipPath>
		<g class="st0">
			<defs>
				<rect id="SVGID_3_" y="140" width="1228.08" height="847.97"/>
			</defs>
			<clipPath id="SVGID_4_">
				<use xlink:href="#SVGID_3_"  style="overflow:visible;"/>
			</clipPath>
			<g class="st1">
				<defs>
					<rect id="SVGID_5_" y="140" width="1228.08" height="847.97"/>
				</defs>
				<clipPath id="SVGID_6_">
					<use xlink:href="#SVGID_5_"  style="overflow:visible;"/>
				</clipPath>
				<g class="st2">
					<g>
						<defs>
							<rect id="SVGID_7_" y="285.83" width="1228.08" height="702.14"/>
						</defs>
						<clipPath id="SVGID_8_">
							<use xlink:href="#SVGID_7_"  style="overflow:visible;"/>
						</clipPath>
						<polygon class="st3" points="603.7,285.83 0,634.27 626.53,987.97 1228.08,640.67 						"/>
					</g>
				</g>
			</g>
			<polygon class="st4" points="614.02,140 89.51,442.83 614.04,745.66 1138.55,442.83 			"/>
			<polygon class="st5" points="89.51,442.83 89.51,587.03 614.04,889.86 614.04,745.66 			"/>
			<polygon class="st6" points="614.04,745.66 614.04,889.86 1138.56,587.03 1138.56,442.82 			"/>
		</g>
	</g>
</g>
<g id="Artwork_34_1_">
	<g>
		<defs>
			<rect id="SVGID_9_" x="371" y="93" width="530" height="550"/>
		</defs>
		<clipPath id="SVGID_10_">
			<use xlink:href="#SVGID_9_"  style="overflow:visible;"/>
		</clipPath>
		<g class="st7">
			<defs>
				<rect id="SVGID_11_" x="371" y="93" width="530" height="550"/>
			</defs>
			<clipPath id="SVGID_12_">
				<use xlink:href="#SVGID_11_"  style="overflow:visible;"/>
			</clipPath>
			<path class="st8" d="M839.41,194.44v-0.17L658.79,95.92c-4.32-3.66-10.57-4.04-17.52-0.25l-246.46,134.2
				c-11.77,6.41-21.53,22.56-23.31,37.71l-0.29-0.16v4.99v236.7l183.25,100.23l293.68-159.91v-236.7
				C848.13,203.43,844.73,196.99,839.41,194.44"/>
			<path class="st9" d="M848.13,449.43L554.45,609.34v-236.7c0-16.4,10.57-35.44,23.61-42.54l246.46-134.2
				c13.04-7.1,23.61,0.44,23.61,16.83V449.43z"/>
			<polygon class="st10" points="746.98,504.64 711.93,523.73 711.93,485.56 746.98,466.48 			"/>
			<polygon class="st11" points="711.93,485.57 746.97,504.65 746.98,504.64 746.98,466.48 711.93,485.56 			"/>
			<polygon class="st12" points="554.65,571.79 554.25,571.14 847.93,411.23 848.33,411.88 			"/>
			<polygon class="st12" points="554.25,571.79 371,472.01 371.4,471.36 554.65,571.14 			"/>
			<path class="st12" d="M442.82,510.47h-0.8V311.7c0-16.49,10.68-35.72,23.81-42.87l246.46-134.2c4.83-2.63,9.51-3.37,13.52-2.15
				l-0.25,0.72c-3.79-1.16-8.25-0.44-12.88,2.09l-246.46,134.2c-12.91,7.03-23.41,25.97-23.41,42.22V510.47z"/>
			<path class="st9" d="M504.65,252.15c0-2.51-1.87-5.56-4.17-6.82c-1.22-0.67-2.32-0.69-3.09-0.19l-13.65,7.42v0
				c-0.77,0.4-1.25,1.29-1.25,2.56c0,2.51,1.87,5.56,4.17,6.82c1.17,0.64,2.22,0.69,2.98,0.26v0l13.57-7.4l0,0
				C504.09,254.45,504.65,253.53,504.65,252.15"/>
			<path class="st13" d="M490.84,259.67c0,2.51-1.87,3.53-4.17,2.27c-2.3-1.26-4.17-4.31-4.17-6.82s1.87-3.53,4.17-2.27
				C488.97,254.11,490.84,257.16,490.84,259.67"/>
			<path class="st9" d="M489.77,260.24c0-2.51-1.87-5.56-4.17-6.82c-1.22-0.67-2.32-0.69-3.09-0.19l-13.65,7.42v0
				c-0.77,0.4-1.25,1.29-1.25,2.56c0,2.51,1.87,5.56,4.17,6.82c1.17,0.64,2.22,0.69,2.98,0.26v0l13.57-7.4l0,0
				C489.22,262.54,489.77,261.61,489.77,260.24"/>
			<path class="st13" d="M475.96,267.76c0,2.51-1.87,3.53-4.17,2.27c-2.3-1.25-4.17-4.31-4.17-6.82c0-2.51,1.87-3.53,4.17-2.27
				C474.1,262.2,475.96,265.25,475.96,267.76"/>
			<path class="st9" d="M709.27,140.74c0-2.51-1.87-5.56-4.17-6.82c-1.22-0.67-2.32-0.69-3.09-0.19l-13.65,7.42v0
				c-0.77,0.4-1.25,1.29-1.25,2.56c0,2.51,1.87,5.56,4.17,6.82c1.17,0.64,2.22,0.69,2.98,0.26v0l13.57-7.4l0,0
				C708.71,143.04,709.27,142.11,709.27,140.74"/>
			<path class="st13" d="M695.46,148.26c0,2.51-1.87,3.53-4.17,2.27c-2.3-1.25-4.17-4.31-4.17-6.82c0-2.51,1.87-3.53,4.17-2.27
				C693.59,142.7,695.46,145.75,695.46,148.26"/>
			<path class="st9" d="M694.39,148.83c0-2.51-1.87-5.56-4.17-6.82c-1.22-0.67-2.32-0.69-3.09-0.19l-13.65,7.42v0
				c-0.77,0.4-1.25,1.29-1.25,2.56c0,2.51,1.87,5.56,4.17,6.82c1.17,0.64,2.22,0.69,2.98,0.26v0l13.57-7.4l0,0
				C693.83,151.13,694.39,150.2,694.39,148.83"/>
			<path class="st13" d="M680.58,156.35c0,2.51-1.87,3.53-4.17,2.27c-2.31-1.25-4.17-4.31-4.17-6.82c0-2.51,1.87-3.53,4.17-2.27
				C678.71,150.79,680.58,153.84,680.58,156.35"/>
			<path class="st14" d="M723.7,496.51c-0.67,0-1.31-0.16-1.88-0.47c-1.48-0.81-2.33-2.56-2.33-4.8V481.2h2.39v10.04
				c0,1.39,0.42,2.46,1.13,2.84c0.67,0.37,1.5,0.07,2.08-0.25c2.39-1.3,4.41-4.99,4.41-8.05v-10.04h2.39v10.04
				c0,3.9-2.46,8.29-5.61,10.01C725.41,496.27,724.53,496.51,723.7,496.51"/>
			<path class="st9" d="M720.42,508.38v-15.78c0-4.88,3.01-10.2,7-12.37c2.21-1.21,4.57-1.31,6.46-0.28
				c2.12,1.15,3.33,3.54,3.33,6.55v12.74L720.42,508.38z M731.04,484.52c-0.11,0-0.39,0.04-0.83,0.28c-2.24,1.22-4.2,4.87-4.2,7.81
				v6.65l5.61-3.05v-9.7c0-1.41-0.45-1.94-0.54-1.99C731.07,484.52,731.06,484.52,731.04,484.52"/>
			<path class="st8" d="M741.42,494.5L741.42,494.5l-4.97-2.72c-0.2-0.15-0.41-0.26-0.64-0.35l-0.04-0.02l-0.01,0
				c-0.86-0.32-1.92-0.21-3.07,0.42l-10.11,5.5c-2.9,1.58-5.26,5.82-5.26,9.47v22.16l5.34,2.95l20.62-11.23v-22.16
				C743.28,496.51,742.56,495.1,741.42,494.5"/>
			<path class="st9" d="M743.28,520.69l-20.62,11.23v-22.16c0-3.65,2.35-7.89,5.26-9.47l10.11-5.51c2.9-1.58,5.26,0.1,5.26,3.75
				V520.69z"/>
			<path class="st15" d="M717.32,326.08c14.31,19.21,28.56,38.32,42.86,57.51c-28.62,15.58-57.08,31.08-85.73,46.68
				C688.76,395.51,703.01,360.86,717.32,326.08"/>
			<path class="st16" d="M718.17,333.47c12.29,16.48,24.51,32.89,36.79,49.36c-24.57,13.38-48.99,26.68-73.58,40.06
				C693.65,393.05,705.89,363.32,718.17,333.47"/>
			<path class="st17" d="M719.77,350.58c2.56,0.27,5.03,0.53,7.56,0.8c-3.11,7.08-6.18,14.07-9.25,21.05
				c0.02,0.02,0.05,0.05,0.07,0.07c4.2-4.27,8.4-8.55,12.77-12.99c-2.83,9.61-5.6,19-8.38,28.43c1.85-1.01,3.65-1.99,5.45-2.97
				c0.02,0.03,0.03,0.07,0.05,0.1c-3.34,3.98-6.68,7.97-10.09,12.03c-1.68-3.05-3.32-6.05-4.96-9.04c0.04-0.07,0.09-0.14,0.13-0.21
				c1.4,0.24,2.8,0.48,4.26,0.73c1.88-5.21,3.74-10.37,5.69-15.77c-4.08,3.86-8,7.56-12.09,11.43
				C713.93,372.95,716.84,361.84,719.77,350.58"/>
		</g>
	</g>
</g>
</svg>
