<?xml version="1.0" encoding="utf-8"?>
<!-- Generator: Adobe Illustrator 25.3.1, SVG Export Plug-In . SVG Version: 6.00 Build 0)  -->
<svg version="1.1" id="Layer_1" xmlns="http://www.w3.org/2000/svg" xmlns:xlink="http://www.w3.org/1999/xlink" x="0px" y="0px"
	 viewBox="0 0 1228 848" style="enable-background:new 0 0 1228 848;" xml:space="preserve">
<style type="text/css">
	.st0{clip-path:url(#SVGID_2_);}
	.st1{clip-path:url(#SVGID_4_);}
	.st2{opacity:0.5;clip-path:url(#SVGID_6_);}
	.st3{clip-path:url(#SVGID_8_);fill:#7C7C7C;}
	.st4{opacity:0.11;}
	.st5{clip-path:url(#SVGID_10_);fill:#DDED48;}
	.st6{opacity:0.5;clip-path:url(#SVGID_12_);fill:#B7B76C;}
	.st7{clip-path:url(#SVGID_14_);fill:#504A2F;}
	.st8{clip-path:url(#SVGID_16_);}
	.st9{opacity:0.5;clip-path:url(#SVGID_18_);}
	.st10{clip-path:url(#SVGID_20_);fill:#7C7C7C;}
	.st11{clip-path:url(#SVGID_22_);fill:#FFFFFF;}
	.st12{clip-path:url(#SVGID_24_);}
	.st13{clip-path:url(#SVGID_26_);fill:#6B6840;}
	.st14{clip-path:url(#SVGID_28_);fill:#898651;}
	.st15{clip-path:url(#SVGID_30_);fill:#9B9764;}
	.st16{clip-path:url(#SVGID_32_);}
	.st17{clip-path:url(#SVGID_34_);fill:#565037;}
	.st18{clip-path:url(#SVGID_36_);}
	.st19{clip-path:url(#SVGID_38_);fill:#565037;}
	.st20{clip-path:url(#SVGID_40_);fill:#6B6840;}
	.st21{clip-path:url(#SVGID_42_);fill:#6B6840;}
	.st22{clip-path:url(#SVGID_44_);fill:#898651;}
	.st23{clip-path:url(#SVGID_46_);fill:#9B9764;}
	.st24{clip-path:url(#SVGID_48_);}
	.st25{clip-path:url(#SVGID_50_);fill:#565037;}
	.st26{clip-path:url(#SVGID_52_);}
	.st27{clip-path:url(#SVGID_54_);fill:#565037;}
	.st28{clip-path:url(#SVGID_56_);fill:#6B6840;}
	.st29{clip-path:url(#SVGID_58_);fill:#504A2F;}
	.st30{clip-path:url(#SVGID_60_);fill:#AEC043;}
	.st31{opacity:0.5;clip-path:url(#SVGID_62_);}
	.st32{clip-path:url(#SVGID_64_);fill:#7C7C7C;}
	.st33{clip-path:url(#SVGID_66_);fill:#565037;}
	.st34{clip-path:url(#SVGID_68_);fill:#AEC043;}
	.st35{opacity:0.5;clip-path:url(#SVGID_70_);}
	.st36{clip-path:url(#SVGID_72_);fill:#7C7C7C;}
</style>
<g id="Artwork_9_1_">
	<g>
		<g>
			<defs>
				<rect id="SVGID_1_" width="1228.08" height="847.97"/>
			</defs>
			<clipPath id="SVGID_2_">
				<use xlink:href="#SVGID_1_"  style="overflow:visible;"/>
			</clipPath>
			<g class="st0">
				<g>
					<defs>
						<rect id="SVGID_3_" width="1228.08" height="847.97"/>
					</defs>
					<clipPath id="SVGID_4_">
						<use xlink:href="#SVGID_3_"  style="overflow:visible;"/>
					</clipPath>
					<g class="st1">
						<g>
							<defs>
								<rect id="SVGID_5_" width="1228.08" height="847.97"/>
							</defs>
							<clipPath id="SVGID_6_">
								<use xlink:href="#SVGID_5_"  style="overflow:visible;"/>
							</clipPath>
							<g class="st2">
								<g>
									<g>
										<defs>
											<rect id="SVGID_7_" y="145.83" width="1228.08" height="702.14"/>
										</defs>
										<clipPath id="SVGID_8_">
											<use xlink:href="#SVGID_7_"  style="overflow:visible;"/>
										</clipPath>
										<polygon class="st3" points="603.7,145.83 0,494.27 626.53,847.97 1228.08,500.67 										"/>
									</g>
								</g>
							</g>
						</g>
					</g>
				</g>
				<g class="st4">
					<defs>
						<rect id="SVGID_9_" class="st4" width="1228.08" height="847.97"/>
					</defs>
					<clipPath id="SVGID_10_">
						<use xlink:href="#SVGID_9_"  style="overflow:visible;"/>
					</clipPath>
					<polygon class="st5" points="614.02,0 89.51,302.83 614.04,605.66 1138.55,302.83 					"/>
				</g>
				<g>
					<defs>
						<rect id="SVGID_11_" width="1228.08" height="847.97"/>
					</defs>
					<clipPath id="SVGID_12_">
						<use xlink:href="#SVGID_11_"  style="overflow:visible;"/>
					</clipPath>
					<polygon class="st6" points="89.51,302.83 89.51,447.03 614.04,749.86 614.04,605.66 					"/>
				</g>
				<g>
					<defs>
						<rect id="SVGID_13_" width="1228.08" height="847.97"/>
					</defs>
					<clipPath id="SVGID_14_">
						<use xlink:href="#SVGID_13_"  style="overflow:visible;"/>
					</clipPath>
					<polygon class="st7" points="614.04,605.66 614.04,749.86 1138.56,447.03 1138.56,302.82 					"/>
				</g>
				<g>
					<defs>
						<rect id="SVGID_15_" width="1228.08" height="847.97"/>
					</defs>
					<clipPath id="SVGID_16_">
						<use xlink:href="#SVGID_15_"  style="overflow:visible;"/>
					</clipPath>
					<g class="st8">
						<g>
							<defs>
								<rect id="SVGID_17_" width="1228.08" height="847.97"/>
							</defs>
							<clipPath id="SVGID_18_">
								<use xlink:href="#SVGID_17_"  style="overflow:visible;"/>
							</clipPath>
							<g class="st9">
								<g>
									<g>
										<defs>
											<rect id="SVGID_19_" x="858.16" y="516.64" width="23.66" height="92.19"/>
										</defs>
										<clipPath id="SVGID_20_">
											<use xlink:href="#SVGID_19_"  style="overflow:visible;"/>
										</clipPath>
										<path class="st10" d="M858.17,530c0.05,26.27,0.1,52.55,0.15,78.82c7.83-4.52,15.67-9.04,23.5-13.57
											c-0.01-24.25-0.01-48.51-0.02-72.76c-3.12-4.71-8.92-6.89-14.25-5.39C861.92,518.68,858,524.02,858.17,530"/>
									</g>
								</g>
							</g>
						</g>
					</g>
				</g>
				<g>
					<defs>
						<rect id="SVGID_21_" width="1228.08" height="847.97"/>
					</defs>
					<clipPath id="SVGID_22_">
						<use xlink:href="#SVGID_21_"  style="overflow:visible;"/>
					</clipPath>
					<polygon class="st11" points="209.34,51.26 193.5,51.26 193.5,35.42 176.6,35.42 176.6,51.26 160.76,51.26 160.76,68.16 
						176.6,68.16 176.6,84 193.5,84 193.5,68.16 209.34,68.16 					"/>
				</g>
				<g>
					<defs>
						<rect id="SVGID_23_" width="1228.08" height="847.97"/>
					</defs>
					<clipPath id="SVGID_24_">
						<use xlink:href="#SVGID_23_"  style="overflow:visible;"/>
					</clipPath>
					<g class="st12">
						<g>
							<defs>
								<rect id="SVGID_25_" width="1228.08" height="847.97"/>
							</defs>
							<clipPath id="SVGID_26_">
								<use xlink:href="#SVGID_25_"  style="overflow:visible;"/>
							</clipPath>
							<path class="st13" d="M245.15,422.13c-23.9-13.8-43.27-2.61-43.27,24.98s19.37,61.15,43.27,74.94
								c23.9,13.8,43.27,2.61,43.27-24.98S269.05,435.92,245.15,422.13"/>
						</g>
						<g>
							<defs>
								<rect id="SVGID_27_" width="1228.08" height="847.97"/>
							</defs>
							<clipPath id="SVGID_28_">
								<use xlink:href="#SVGID_27_"  style="overflow:visible;"/>
							</clipPath>
							<path class="st14" d="M240.76,423.95c-23.9-13.8-43.27-2.61-43.27,24.98s19.37,61.15,43.27,74.94
								c23.9,13.8,43.27,2.61,43.27-24.98S264.65,437.75,240.76,423.95"/>
						</g>
						<g>
							<defs>
								<rect id="SVGID_29_" width="1228.08" height="847.97"/>
							</defs>
							<clipPath id="SVGID_30_">
								<use xlink:href="#SVGID_29_"  style="overflow:visible;"/>
							</clipPath>
							<path class="st15" d="M240.76,429.02c-21.47-12.4-38.88-2.35-38.88,22.44s17.4,54.94,38.88,67.33
								c21.47,12.4,38.88,2.35,38.88-22.44C279.63,471.57,262.23,441.42,240.76,429.02"/>
						</g>
						<g>
							<defs>
								<rect id="SVGID_31_" width="1228.08" height="847.97"/>
							</defs>
							<clipPath id="SVGID_32_">
								<use xlink:href="#SVGID_31_"  style="overflow:visible;"/>
							</clipPath>
							<g class="st16">
								<g>
									<g>
										<defs>
											<rect id="SVGID_33_" x="217.52" y="445.77" width="14.57" height="14.57"/>
										</defs>
										<clipPath id="SVGID_34_">
											<use xlink:href="#SVGID_33_"  style="overflow:visible;"/>
										</clipPath>
										<path class="st17" d="M224.8,445.77c-4.02,0-7.29,3.26-7.29,7.28s3.26,7.28,7.29,7.28c4.02,0,7.28-3.26,7.28-7.28
											C232.09,449.03,228.83,445.77,224.8,445.77"/>
									</g>
								</g>
							</g>
						</g>
						<g>
							<defs>
								<rect id="SVGID_35_" width="1228.08" height="847.97"/>
							</defs>
							<clipPath id="SVGID_36_">
								<use xlink:href="#SVGID_35_"  style="overflow:visible;"/>
							</clipPath>
							<g class="st18">
								<g>
									<g>
										<defs>
											<rect id="SVGID_37_" x="248.24" y="489.62" width="14.57" height="14.57"/>
										</defs>
										<clipPath id="SVGID_38_">
											<use xlink:href="#SVGID_37_"  style="overflow:visible;"/>
										</clipPath>
										<path class="st19" d="M255.52,489.62c-4.02,0-7.29,3.26-7.29,7.28s3.26,7.28,7.29,7.28c4.02,0,7.28-3.26,7.28-7.28
											C262.8,492.88,259.54,489.62,255.52,489.62"/>
									</g>
								</g>
							</g>
						</g>
						<g>
							<defs>
								<rect id="SVGID_39_" width="1228.08" height="847.97"/>
							</defs>
							<clipPath id="SVGID_40_">
								<use xlink:href="#SVGID_39_"  style="overflow:visible;"/>
							</clipPath>
							<path class="st20" d="M243.46,517.21c-21.47-12.39-38.88-42.54-38.88-67.33c0-11.43,3.73-19.67,9.82-24.08
								c-7.68,3.76-12.53,12.67-12.53,25.7c0,24.79,17.4,54.94,38.88,67.33c11.57,6.68,21.93,6.79,29.05,1.64
								C262.88,523.86,253.64,523.08,243.46,517.21"/>
						</g>
						<g>
							<defs>
								<rect id="SVGID_41_" width="1228.08" height="847.97"/>
							</defs>
							<clipPath id="SVGID_42_">
								<use xlink:href="#SVGID_41_"  style="overflow:visible;"/>
							</clipPath>
							<path class="st21" d="M457.7,541.48c-23.9-13.8-43.27-2.61-43.27,24.98c0,27.59,19.37,61.15,43.27,74.94
								c23.9,13.8,43.27,2.61,43.27-24.98S481.6,555.27,457.7,541.48"/>
						</g>
						<g>
							<defs>
								<rect id="SVGID_43_" width="1228.08" height="847.97"/>
							</defs>
							<clipPath id="SVGID_44_">
								<use xlink:href="#SVGID_43_"  style="overflow:visible;"/>
							</clipPath>
							<path class="st22" d="M453.31,543.3c-23.9-13.8-43.27-2.61-43.27,24.98c0,27.59,19.37,61.15,43.27,74.94
								c23.9,13.8,43.27,2.61,43.27-24.98S477.21,557.1,453.31,543.3"/>
						</g>
						<g>
							<defs>
								<rect id="SVGID_45_" width="1228.08" height="847.97"/>
							</defs>
							<clipPath id="SVGID_46_">
								<use xlink:href="#SVGID_45_"  style="overflow:visible;"/>
							</clipPath>
							<path class="st23" d="M453.31,548.38c-21.47-12.4-38.88-2.35-38.88,22.44s17.4,54.94,38.88,67.33
								c21.47,12.4,38.88,2.35,38.88-22.44C492.19,590.92,474.78,560.77,453.31,548.38"/>
						</g>
						<g>
							<defs>
								<rect id="SVGID_47_" width="1228.08" height="847.97"/>
							</defs>
							<clipPath id="SVGID_48_">
								<use xlink:href="#SVGID_47_"  style="overflow:visible;"/>
							</clipPath>
							<g class="st24">
								<g>
									<g>
										<defs>
											<rect id="SVGID_49_" x="430.07" y="565.12" width="14.57" height="14.57"/>
										</defs>
										<clipPath id="SVGID_50_">
											<use xlink:href="#SVGID_49_"  style="overflow:visible;"/>
										</clipPath>
										<path class="st25" d="M437.36,565.12c-4.02,0-7.29,3.26-7.29,7.28s3.26,7.28,7.29,7.28c4.02,0,7.28-3.26,7.28-7.28
											C444.64,568.38,441.38,565.12,437.36,565.12"/>
									</g>
								</g>
							</g>
						</g>
						<g>
							<defs>
								<rect id="SVGID_51_" width="1228.08" height="847.97"/>
							</defs>
							<clipPath id="SVGID_52_">
								<use xlink:href="#SVGID_51_"  style="overflow:visible;"/>
							</clipPath>
							<g class="st26">
								<g>
									<g>
										<defs>
											<rect id="SVGID_53_" x="460.79" y="608.97" width="14.57" height="14.57"/>
										</defs>
										<clipPath id="SVGID_54_">
											<use xlink:href="#SVGID_53_"  style="overflow:visible;"/>
										</clipPath>
										<path class="st27" d="M468.07,608.97c-4.02,0-7.29,3.26-7.29,7.28s3.26,7.28,7.29,7.28c4.02,0,7.28-3.26,7.28-7.28
											C475.36,612.23,472.1,608.97,468.07,608.97"/>
									</g>
								</g>
							</g>
						</g>
						<g>
							<defs>
								<rect id="SVGID_55_" width="1228.08" height="847.97"/>
							</defs>
							<clipPath id="SVGID_56_">
								<use xlink:href="#SVGID_55_"  style="overflow:visible;"/>
							</clipPath>
							<path class="st28" d="M456.02,636.56c-21.47-12.39-38.88-42.54-38.88-67.33c0-11.43,3.73-19.67,9.82-24.08
								c-7.68,3.76-12.53,12.67-12.53,25.71c0,24.79,17.4,54.94,38.88,67.33c11.57,6.68,21.93,6.79,29.05,1.64
								C475.44,643.22,466.2,642.44,456.02,636.56"/>
						</g>
						<g>
							<defs>
								<rect id="SVGID_57_" width="1228.08" height="847.97"/>
							</defs>
							<clipPath id="SVGID_58_">
								<use xlink:href="#SVGID_57_"  style="overflow:visible;"/>
							</clipPath>
							<path class="st29" d="M245.78,504.71c-2.31-3.84-7.3-5.07-11.14-2.77l-32.59,19.62c-4.47-11-11.03-21.53-18.85-30.2
								l30.1-19.71c3.75-2.46,4.8-7.49,2.34-11.24c-2.45-3.75-7.48-4.79-11.24-2.34l-33.61,22.01c-1.84-1.34-3.69-2.6-5.59-3.7
								c-11.32-6.54-21.6-7.41-29.31-3.64l-0.03-0.06l-15.77,7.21l3.84,7.59c-1.29,4-2,8.63-2,13.87
								c0,27.59,19.37,61.15,43.27,74.94c1.67,0.97,3.31,1.78,4.93,2.5l5.03,9.93l17.53-7.94c0.1-0.04,0.19-0.09,0.29-0.13
								l2.28-1.03l-0.02-0.03c8.14-4.39,13.22-14.17,13.22-28.27c0-4.47-0.56-9.1-1.51-13.78l36.06-21.71
								C246.85,513.53,248.09,508.55,245.78,504.71"/>
						</g>
						<g>
							<defs>
								<rect id="SVGID_59_" width="1228.08" height="847.97"/>
							</defs>
							<clipPath id="SVGID_60_">
								<use xlink:href="#SVGID_59_"  style="overflow:visible;"/>
							</clipPath>
							<path class="st30" d="M147.07,484.57c-23.9-13.8-43.27-2.61-43.27,24.98s19.37,61.15,43.27,74.94
								c23.9,13.8,43.27,2.61,43.27-24.98S170.97,498.37,147.07,484.57"/>
						</g>
						<g>
							<defs>
								<rect id="SVGID_61_" width="1228.08" height="847.97"/>
							</defs>
							<clipPath id="SVGID_62_">
								<use xlink:href="#SVGID_61_"  style="overflow:visible;"/>
							</clipPath>
							<g class="st31">
								<g>
									<g>
										<defs>
											<rect id="SVGID_63_" x="129.93" y="525.91" width="51.44" height="64.48"/>
										</defs>
										<clipPath id="SVGID_64_">
											<use xlink:href="#SVGID_63_"  style="overflow:visible;"/>
										</clipPath>
										<path class="st32" d="M131.46,539.15c6.61,14.33,26.97,46.71,29.5,50.73c1.16,0.24,2.89,0.5,4.98,0.51
											c0.6,0,5.65-0.02,10.22-2.12c1.38-0.63,2.46-1.34,2.61-1.44c1.1-0.72,1.96-1.45,2.6-2.04
											c-1.48-2.83-21.34-37.25-30.03-52.14c-0.53-0.92-3.21-5.3-8.5-6.45c-4.68-1.02-10.49,0.71-12.31,4.49
											C129.06,533.77,130.64,537.38,131.46,539.15"/>
									</g>
								</g>
							</g>
						</g>
						<g>
							<defs>
								<rect id="SVGID_65_" width="1228.08" height="847.97"/>
							</defs>
							<clipPath id="SVGID_66_">
								<use xlink:href="#SVGID_65_"  style="overflow:visible;"/>
							</clipPath>
							<path class="st33" d="M494.32,584.36c-4.47-11-11.03-21.53-18.86-30.2l-12.41-11.27c-1.83-1.33-3.69-2.6-5.59-3.7
								c-11.33-6.54-21.6-7.41-29.31-3.64l-0.03-0.06l-15.77,7.21l3.84,7.59c-1.29,4-2,8.63-2,13.87
								c0,27.59,19.37,61.15,43.27,74.94c1.67,0.97,3.31,1.78,4.93,2.5l5.03,9.93l17.53-7.94c0.1-0.04,0.19-0.09,0.3-0.13l2.28-1.04
								l-0.02-0.03c8.14-4.39,13.22-14.17,13.22-28.27c0-4.47-0.56-9.1-1.51-13.78L494.32,584.36z"/>
						</g>
						<g>
							<defs>
								<rect id="SVGID_67_" width="1228.08" height="847.97"/>
							</defs>
							<clipPath id="SVGID_68_">
								<use xlink:href="#SVGID_67_"  style="overflow:visible;"/>
							</clipPath>
							<path class="st34" d="M439.34,547.37c-23.9-13.8-43.27-2.61-43.27,24.98c0,27.59,19.37,61.15,43.27,74.94
								c23.9,13.8,43.27,2.61,43.27-24.98C482.61,594.72,463.24,561.17,439.34,547.37"/>
						</g>
						<g>
							<defs>
								<rect id="SVGID_69_" width="1228.08" height="847.97"/>
							</defs>
							<clipPath id="SVGID_70_">
								<use xlink:href="#SVGID_69_"  style="overflow:visible;"/>
							</clipPath>
							<g class="st35">
								<g>
									<g>
										<defs>
											<rect id="SVGID_71_" x="422.21" y="588.72" width="51.44" height="64.48"/>
										</defs>
										<clipPath id="SVGID_72_">
											<use xlink:href="#SVGID_71_"  style="overflow:visible;"/>
										</clipPath>
										<path class="st36" d="M423.74,601.96c6.61,14.33,26.97,46.71,29.5,50.73c1.16,0.24,2.89,0.5,4.98,0.51
											c0.6,0,5.65-0.02,10.22-2.12c1.38-0.63,2.46-1.34,2.61-1.44c1.1-0.72,1.96-1.45,2.6-2.04
											c-1.48-2.83-21.34-37.25-30.03-52.14c-0.53-0.91-3.21-5.3-8.5-6.45c-4.68-1.02-10.5,0.71-12.31,4.49
											C421.34,596.58,422.92,600.18,423.74,601.96"/>
									</g>
								</g>
							</g>
						</g>
					</g>
				</g>
			</g>
		</g>
	</g>
</g>
</svg>
