<?xml version="1.0" encoding="utf-8"?>
<!-- Generator: Adobe Illustrator 25.1.0, SVG Export Plug-In . SVG Version: 6.00 Build 0)  -->
<svg version="1.1" id="Layer_1" xmlns="http://www.w3.org/2000/svg" xmlns:xlink="http://www.w3.org/1999/xlink" x="0px" y="0px"
	 viewBox="0 0 200 200" style="enable-background:new 0 0 200 200;" xml:space="preserve">
<style type="text/css">
	.st0{fill:#FFFFFF;}
	.st1{fill:#FDFDFD;}
	.st2{fill:#FCFCFC;}
	.st3{fill:#FAFAFA;}
	.st4{fill:#F9F9F9;}
	.st5{fill:#F7F7F7;}
	.st6{fill:#F6F6F6;}
	.st7{fill:#F4F4F4;}
	.st8{fill:#F3F3F3;}
	.st9{fill:#F1F1F1;}
	.st10{fill:#F0F0F0;}
	.st11{fill:#EEEEEE;}
	.st12{fill:#EDEDED;}
	.st13{fill:#EBEBEB;}
	.st14{fill:#EAEAEA;}
	.st15{fill:#E8E8E8;}
	.st16{fill:#E7E7E7;}
	.st17{fill:#E5E5E5;}
	.st18{fill:#E4E4E4;}
	.st19{fill:#E2E2E2;}
	.st20{fill:#E1E1E1;}
	.st21{fill:#DFDFDF;}
	.st22{fill:#DEDEDE;}
	.st23{fill:#DCDCDC;}
	.st24{fill:#DBDBDB;}
	.st25{fill:#D9D9D9;}
	.st26{fill:#D8D8D8;}
	.st27{fill:#D6D6D6;}
	.st28{fill:#D5D5D5;}
	.st29{fill:#D3D3D3;}
	.st30{fill:#D2D2D2;}
	.st31{fill:#D0D0D0;}
	.st32{fill:#CFCFCF;}
	.st33{fill:#CDCDCD;}
	.st34{fill:#CCCCCC;}
	.st35{fill:#CACACA;}
	.st36{fill:#C9C9C9;}
	.st37{fill:#C7C7C7;}
	.st38{fill:#C6C6C6;}
	.st39{fill:#C4C4C4;}
	.st40{fill:#C3C3C3;}
	.st41{fill:#C1C1C1;}
	.st42{fill:#C0C0C0;}
	.st43{fill:#BEBEBE;}
	.st44{fill:#BDBDBD;}
	.st45{fill:#BBBBBB;}
	.st46{fill:#BABABA;}
	.st47{fill:#B8B8B8;}
	.st48{fill:#B7B7B7;}
	.st49{fill:#B5B5B5;}
	.st50{fill:#B4B4B4;}
	.st51{fill:#B2B2B2;}
	.st52{fill:#B1B1B1;}
	.st53{fill:#AFAFAF;}
	.st54{fill:#AEAEAE;}
	.st55{fill:#ACACAC;}
	.st56{fill:#ABABAB;}
	.st57{fill:#A9A9A9;}
	.st58{fill:#A8A8A8;}
	.st59{fill:#A6A6A6;}
	.st60{fill:#A5A5A5;}
	.st61{fill:#A3A3A3;}
	.st62{fill:#A2A2A2;}
	.st63{fill:#A0A0A0;}
	.st64{fill:#9F9F9F;}
	.st65{fill:#9D9D9D;}
	.st66{fill:#9C9C9C;}
	.st67{fill:#9A9A9A;}
	.st68{fill:#999999;}
	.st69{fill:#979797;}
	.st70{fill:#969696;}
	.st71{fill:#949494;}
	.st72{fill:#939393;}
	.st73{fill:#919191;}
	.st74{fill:#909090;}
	.st75{fill:#8E8E8E;}
	.st76{fill:#8D8D8D;}
	.st77{fill:#8B8B8B;}
	.st78{fill:#8A8A8A;}
	.st79{fill:#888888;}
	.st80{fill:#878787;}
	.st81{fill:#858585;}
	.st82{fill:#848484;}
	.st83{fill:#828282;}
	.st84{fill:#818181;}
	.st85{fill:#7F7F7F;}
	.st86{fill:#7E7E7E;}
	.st87{fill:#7C7C7C;}
	.st88{fill:#7B7B7B;}
	.st89{fill:#797979;}
	.st90{fill:#787878;}
	.st91{fill:#767676;}
	.st92{fill:#757575;}
	.st93{fill:#737373;}
	.st94{fill:#727272;}
	.st95{fill:#707070;}
	.st96{fill:#6F6F6F;}
	.st97{fill:#6D6D6D;}
	.st98{fill:#6C6C6C;}
	.st99{fill:#6A6A6A;}
	.st100{fill:#696969;}
	.st101{fill:#676767;}
	.st102{fill:#666666;}
	.st103{fill:#646464;}
	.st104{fill:#636363;}
	.st105{fill:#616161;}
	.st106{fill:#606060;}
	.st107{fill:#5E5E5E;}
	.st108{fill:#5D5D5D;}
	.st109{fill:#5B5B5B;}
	.st110{fill:#5A5A5A;}
	.st111{fill:#585858;}
	.st112{fill:#575757;}
	.st113{fill:#555555;}
	.st114{fill:#545454;}
	.st115{fill:#525252;}
	.st116{fill:#515151;}
	.st117{fill:#4F4F4F;}
	.st118{fill:#4E4E4E;}
	.st119{fill:#4C4C4C;}
	.st120{fill:#4B4B4B;}
	.st121{fill:#494949;}
	.st122{fill:#484848;}
	.st123{fill:#464646;}
	.st124{fill:#454545;}
	.st125{fill:#434343;}
	.st126{fill:#424242;}
	.st127{fill:#404040;}
	.st128{fill:#3F3F3F;}
	.st129{fill:#3D3D3D;}
	.st130{fill:#3C3C3C;}
	.st131{fill:#3A3A3A;}
	.st132{fill:#393939;}
	.st133{fill:#373737;}
	.st134{fill:#363636;}
	.st135{fill:#343434;}
	.st136{fill:#333333;}
	.st137{fill:#313131;}
	.st138{fill:#303030;}
	.st139{fill:#2E2E2E;}
	.st140{fill:#2D2D2D;}
	.st141{fill:#2B2B2B;}
	.st142{fill:#2A2A2A;}
	.st143{fill:#282828;}
	.st144{fill:#272727;}
	.st145{fill:#252525;}
	.st146{fill:#242424;}
	.st147{fill:#222222;}
	.st148{fill:#212121;}
	.st149{fill:#1F1F1F;}
	.st150{fill:#1E1E1E;}
	.st151{fill:#1C1C1C;}
	.st152{fill:#F2D323;}
	.st153{fill:#777F7F;}
	.st154{fill:#AAB7B7;}
	.st155{opacity:0.2;fill:#232323;}
	.st156{fill:#566472;}
	.st157{fill:#EFF3F3;}
	.st158{fill:#D35400;}
	.st159{fill:#C1382A;}
	.st160{fill:#BDC3C7;}
	.st161{fill:#C2CECE;}
</style>
<g>
	<g>
		<polygon class="st0" points="200,130.9 127.2,93 0,160.9 72.8,200 		"/>
		<polygon class="st1" points="199.8,130.9 127.2,93.1 0.2,160.8 72.8,199.9 		"/>
		<polygon class="st2" points="199.6,130.9 127.2,93.1 0.4,160.8 72.8,199.7 		"/>
		<polygon class="st3" points="199.4,130.9 127.2,93.2 0.6,160.8 72.8,199.6 		"/>
		<polygon class="st4" points="199.1,130.8 127.1,93.3 0.8,160.7 72.8,199.5 		"/>
		<polygon class="st5" points="198.9,130.8 127.1,93.4 1,160.7 72.8,199.3 		"/>
		<polygon class="st6" points="198.7,130.8 127.1,93.5 1.2,160.7 72.9,199.2 		"/>
		<polygon class="st7" points="198.5,130.8 127,93.6 1.4,160.6 72.9,199.1 		"/>
		<polygon class="st8" points="198.3,130.8 127,93.7 1.6,160.6 72.9,198.9 		"/>
		<polygon class="st9" points="198.1,130.8 127,93.8 1.8,160.6 72.9,198.8 		"/>
		<polygon class="st10" points="197.8,130.8 127,93.9 2,160.5 72.9,198.7 		"/>
		<polygon class="st11" points="197.6,130.8 126.9,94 2.2,160.5 72.9,198.5 		"/>
		<polygon class="st12" points="197.4,130.8 126.9,94 2.4,160.5 72.9,198.4 		"/>
		<polygon class="st13" points="197.2,130.8 126.9,94.1 2.6,160.4 73,198.3 		"/>
		<polygon class="st14" points="197,130.8 126.9,94.2 2.8,160.4 73,198.1 		"/>
		<polygon class="st15" points="196.8,130.7 126.8,94.3 3.1,160.4 73,198 		"/>
		<polygon class="st16" points="196.6,130.7 126.8,94.4 3.3,160.3 73,197.8 		"/>
		<polygon class="st17" points="196.3,130.7 126.8,94.5 3.5,160.3 73,197.7 		"/>
		<polygon class="st18" points="196.1,130.7 126.7,94.6 3.7,160.3 73,197.6 		"/>
		<polygon class="st19" points="195.9,130.7 126.7,94.7 3.9,160.2 73.1,197.4 		"/>
		<polygon class="st20" points="195.7,130.7 126.7,94.8 4.1,160.2 73.1,197.3 		"/>
		<polygon class="st21" points="195.5,130.7 126.7,94.8 4.3,160.2 73.1,197.2 		"/>
		<polygon class="st22" points="195.3,130.7 126.6,94.9 4.5,160.1 73.1,197 		"/>
		<polygon class="st23" points="195.1,130.7 126.6,95 4.7,160.1 73.1,196.9 		"/>
		<polygon class="st24" points="194.8,130.7 126.6,95.1 4.9,160 73.1,196.8 		"/>
		<polygon class="st25" points="194.6,130.7 126.6,95.2 5.1,160 73.2,196.6 		"/>
		<polygon class="st26" points="194.4,130.6 126.5,95.3 5.3,160 73.2,196.5 		"/>
		<polygon class="st27" points="194.2,130.6 126.5,95.4 5.5,159.9 73.2,196.4 		"/>
		<polygon class="st28" points="194,130.6 126.5,95.5 5.7,159.9 73.2,196.2 		"/>
		<polygon class="st29" points="193.8,130.6 126.4,95.6 5.9,159.9 73.2,196.1 		"/>
		<polygon class="st30" points="193.5,130.6 126.4,95.7 6.1,159.8 73.2,196 		"/>
		<polygon class="st31" points="193.3,130.6 126.4,95.7 6.3,159.8 73.3,195.8 		"/>
		<polygon class="st32" points="193.1,130.6 126.4,95.8 6.5,159.8 73.3,195.7 		"/>
		<polygon class="st33" points="192.9,130.6 126.3,95.9 6.7,159.7 73.3,195.6 		"/>
		<polygon class="st34" points="192.7,130.6 126.3,96 6.9,159.7 73.3,195.4 		"/>
		<polygon class="st35" points="192.5,130.6 126.3,96.1 7.1,159.7 73.3,195.3 		"/>
		<polygon class="st36" points="192.3,130.6 126.3,96.2 7.3,159.6 73.3,195.2 		"/>
		<polygon class="st37" points="192,130.5 126.2,96.3 7.5,159.6 73.3,195 		"/>
		<polygon class="st38" points="191.8,130.5 126.2,96.4 7.7,159.6 73.4,194.9 		"/>
		<polygon class="st39" points="191.6,130.5 126.2,96.5 7.9,159.5 73.4,194.8 		"/>
		<polygon class="st40" points="191.4,130.5 126.1,96.5 8.1,159.5 73.4,194.6 		"/>
		<polygon class="st41" points="191.2,130.5 126.1,96.6 8.3,159.5 73.4,194.5 		"/>
		<polygon class="st42" points="191,130.5 126.1,96.7 8.5,159.4 73.4,194.4 		"/>
		<polygon class="st43" points="190.8,130.5 126.1,96.8 8.7,159.4 73.4,194.2 		"/>
		<polygon class="st44" points="190.5,130.5 126,96.9 9,159.4 73.5,194.1 		"/>
		<polygon class="st45" points="190.3,130.5 126,97 9.2,159.3 73.5,194 		"/>
		<polygon class="st46" points="190.1,130.5 126,97.1 9.4,159.3 73.5,193.8 		"/>
		<polygon class="st47" points="189.9,130.5 125.9,97.2 9.6,159.3 73.5,193.7 		"/>
		<polygon class="st48" points="189.7,130.5 125.9,97.3 9.8,159.2 73.5,193.5 		"/>
		<polygon class="st49" points="189.5,130.4 125.9,97.4 10,159.2 73.5,193.4 		"/>
		<polygon class="st50" points="189.2,130.4 125.9,97.4 10.2,159.2 73.6,193.3 		"/>
		<polygon class="st51" points="189,130.4 125.8,97.5 10.4,159.1 73.6,193.1 		"/>
		<polygon class="st52" points="188.8,130.4 125.8,97.6 10.6,159.1 73.6,193 		"/>
		<polygon class="st53" points="188.6,130.4 125.8,97.7 10.8,159.1 73.6,192.9 		"/>
		<polygon class="st54" points="188.4,130.4 125.8,97.8 11,159 73.6,192.7 		"/>
		<polygon class="st55" points="188.2,130.4 125.7,97.9 11.2,159 73.6,192.6 		"/>
		<polygon class="st56" points="188,130.4 125.7,98 11.4,159 73.6,192.5 		"/>
		<polygon class="st57" points="187.7,130.4 125.7,98.1 11.6,158.9 73.7,192.3 		"/>
		<polygon class="st58" points="187.5,130.4 125.6,98.2 11.8,158.9 73.7,192.2 		"/>
		<polygon class="st59" points="187.3,130.4 125.6,98.2 12,158.9 73.7,192.1 		"/>
		<polygon class="st60" points="187.1,130.3 125.6,98.3 12.2,158.8 73.7,191.9 		"/>
		<polygon class="st61" points="186.9,130.3 125.6,98.4 12.4,158.8 73.7,191.8 		"/>
		<polygon class="st62" points="186.7,130.3 125.5,98.5 12.6,158.8 73.7,191.7 		"/>
		<polygon class="st63" points="186.5,130.3 125.5,98.6 12.8,158.7 73.8,191.5 		"/>
		<polygon class="st64" points="186.2,130.3 125.5,98.7 13,158.7 73.8,191.4 		"/>
		<polygon class="st65" points="186,130.3 125.5,98.8 13.2,158.7 73.8,191.3 		"/>
		<polygon class="st66" points="185.8,130.3 125.4,98.9 13.4,158.6 73.8,191.1 		"/>
		<polygon class="st67" points="185.6,130.3 125.4,99 13.6,158.6 73.8,191 		"/>
		<polygon class="st68" points="185.4,130.3 125.4,99.1 13.8,158.6 73.8,190.9 		"/>
		<polygon class="st69" points="185.2,130.3 125.3,99.1 14,158.5 73.9,190.7 		"/>
		<polygon class="st70" points="184.9,130.3 125.3,99.2 14.2,158.5 73.9,190.6 		"/>
		<polygon class="st71" points="184.7,130.2 125.3,99.3 14.4,158.5 73.9,190.5 		"/>
		<polygon class="st72" points="184.5,130.2 125.3,99.4 14.6,158.4 73.9,190.3 		"/>
		<polygon class="st73" points="184.3,130.2 125.2,99.5 14.9,158.4 73.9,190.2 		"/>
		<polygon class="st74" points="184.1,130.2 125.2,99.6 15.1,158.4 73.9,190.1 		"/>
		<polygon class="st75" points="183.9,130.2 125.2,99.7 15.3,158.3 74,189.9 		"/>
		<polygon class="st76" points="183.7,130.2 125.2,99.8 15.5,158.3 74,189.8 		"/>
		<polygon class="st77" points="183.4,130.2 125.1,99.9 15.7,158.3 74,189.7 		"/>
		<polygon class="st78" points="183.2,130.2 125.1,99.9 15.9,158.2 74,189.5 		"/>
		<polygon class="st79" points="183,130.2 125.1,100 16.1,158.2 74,189.4 		"/>
		<polygon class="st80" points="182.8,130.2 125,100.1 16.3,158.2 74,189.2 		"/>
		<polygon class="st81" points="182.6,130.2 125,100.2 16.5,158.1 74,189.1 		"/>
		<polygon class="st82" points="182.4,130.1 125,100.3 16.7,158.1 74.1,189 		"/>
		<polygon class="st83" points="182.2,130.1 125,100.4 16.9,158.1 74.1,188.8 		"/>
		<polygon class="st84" points="181.9,130.1 124.9,100.5 17.1,158 74.1,188.7 		"/>
		<polygon class="st85" points="181.7,130.1 124.9,100.6 17.3,158 74.1,188.6 		"/>
		<polygon class="st86" points="181.5,130.1 124.9,100.7 17.5,158 74.1,188.4 		"/>
		<polygon class="st87" points="181.3,130.1 124.8,100.8 17.7,157.9 74.1,188.3 		"/>
		<polygon class="st88" points="181.1,130.1 124.8,100.8 17.9,157.9 74.2,188.2 		"/>
		<polygon class="st89" points="180.9,130.1 124.8,100.9 18.1,157.9 74.2,188 		"/>
		<polygon class="st90" points="180.6,130.1 124.8,101 18.3,157.8 74.2,187.9 		"/>
		<polygon class="st91" points="180.4,130.1 124.7,101.1 18.5,157.8 74.2,187.8 		"/>
		<polygon class="st92" points="180.2,130.1 124.7,101.2 18.7,157.8 74.2,187.6 		"/>
		<polygon class="st93" points="180,130 124.7,101.3 18.9,157.7 74.2,187.5 		"/>
		<polygon class="st94" points="179.8,130 124.7,101.4 19.1,157.7 74.3,187.4 		"/>
		<polygon class="st95" points="179.6,130 124.6,101.5 19.3,157.7 74.3,187.2 		"/>
		<polygon class="st96" points="179.4,130 124.6,101.6 19.5,157.6 74.3,187.1 		"/>
		<polygon class="st97" points="179.1,130 124.6,101.6 19.7,157.6 74.3,187 		"/>
		<polygon class="st98" points="178.9,130 124.5,101.7 19.9,157.6 74.3,186.8 		"/>
		<polygon class="st99" points="178.7,130 124.5,101.8 20.1,157.5 74.3,186.7 		"/>
		<polygon class="st100" points="178.5,130 124.5,101.9 20.3,157.5 74.3,186.6 		"/>
		<polygon class="st101" points="178.3,130 124.5,102 20.5,157.5 74.4,186.4 		"/>
		<polygon class="st102" points="178.1,130 124.4,102.1 20.8,157.4 74.4,186.3 		"/>
		<polygon class="st103" points="177.9,130 124.4,102.2 21,157.4 74.4,186.2 		"/>
		<polygon class="st104" points="177.6,130 124.4,102.3 21.2,157.4 74.4,186 		"/>
		<polygon class="st105" points="177.4,129.9 124.4,102.4 21.4,157.3 74.4,185.9 		"/>
		<polygon class="st106" points="177.2,129.9 124.3,102.5 21.6,157.3 74.4,185.8 		"/>
		<polygon class="st107" points="177,129.9 124.3,102.5 21.8,157.3 74.5,185.6 		"/>
		<polygon class="st108" points="176.8,129.9 124.3,102.6 22,157.2 74.5,185.5 		"/>
		<polygon class="st109" points="176.6,129.9 124.2,102.7 22.2,157.2 74.5,185.4 		"/>
		<polygon class="st110" points="176.3,129.9 124.2,102.8 22.4,157.2 74.5,185.2 		"/>
		<polygon class="st111" points="176.1,129.9 124.2,102.9 22.6,157.1 74.5,185.1 		"/>
		<polygon class="st112" points="175.9,129.9 124.2,103 22.8,157.1 74.5,184.9 		"/>
		<polygon class="st113" points="175.7,129.9 124.1,103.1 23,157 74.6,184.8 		"/>
		<polygon class="st114" points="175.5,129.9 124.1,103.2 23.2,157 74.6,184.7 		"/>
		<polygon class="st115" points="175.3,129.9 124.1,103.3 23.4,157 74.6,184.5 		"/>
		<polygon class="st116" points="175.1,129.8 124.1,103.4 23.6,156.9 74.6,184.4 		"/>
		<polygon class="st117" points="174.8,129.8 124,103.4 23.8,156.9 74.6,184.3 		"/>
		<polygon class="st118" points="174.6,129.8 124,103.5 24,156.9 74.6,184.1 		"/>
		<polygon class="st119" points="174.4,129.8 124,103.6 24.2,156.8 74.6,184 		"/>
		<polygon class="st120" points="174.2,129.8 123.9,103.7 24.4,156.8 74.7,183.9 		"/>
		<polygon class="st121" points="174,129.8 123.9,103.8 24.6,156.8 74.7,183.7 		"/>
		<polygon class="st122" points="173.8,129.8 123.9,103.9 24.8,156.7 74.7,183.6 		"/>
		<polygon class="st123" points="173.6,129.8 123.9,104 25,156.7 74.7,183.5 		"/>
		<polygon class="st124" points="173.3,129.8 123.8,104.1 25.2,156.7 74.7,183.3 		"/>
		<polygon class="st125" points="173.1,129.8 123.8,104.2 25.4,156.6 74.7,183.2 		"/>
		<polygon class="st126" points="172.9,129.8 123.8,104.2 25.6,156.6 74.8,183.1 		"/>
		<polygon class="st127" points="172.7,129.7 123.7,104.3 25.8,156.6 74.8,182.9 		"/>
		<polygon class="st128" points="172.5,129.7 123.7,104.4 26,156.5 74.8,182.8 		"/>
		<polygon class="st129" points="172.3,129.7 123.7,104.5 26.2,156.5 74.8,182.7 		"/>
		<polygon class="st130" points="172,129.7 123.7,104.6 26.4,156.5 74.8,182.5 		"/>
		<polygon class="st131" points="171.8,129.7 123.6,104.7 26.6,156.4 74.8,182.4 		"/>
		<polygon class="st132" points="171.6,129.7 123.6,104.8 26.9,156.4 74.9,182.3 		"/>
		<polygon class="st133" points="171.4,129.7 123.6,104.9 27.1,156.4 74.9,182.1 		"/>
		<polygon class="st134" points="171.2,129.7 123.6,105 27.3,156.3 74.9,182 		"/>
		<polygon class="st135" points="171,129.7 123.5,105.1 27.5,156.3 74.9,181.9 		"/>
		<polygon class="st136" points="170.8,129.7 123.5,105.1 27.7,156.3 74.9,181.7 		"/>
		<polygon class="st137" points="170.5,129.7 123.5,105.2 27.9,156.2 74.9,181.6 		"/>
		<polygon class="st138" points="170.3,129.6 123.4,105.3 28.1,156.2 75,181.5 		"/>
		<polygon class="st139" points="170.1,129.6 123.4,105.4 28.3,156.2 75,181.3 		"/>
		<polygon class="st140" points="169.9,129.6 123.4,105.5 28.5,156.1 75,181.2 		"/>
		<polygon class="st141" points="169.7,129.6 123.4,105.6 28.7,156.1 75,181.1 		"/>
		<polygon class="st142" points="169.5,129.6 123.3,105.7 28.9,156.1 75,180.9 		"/>
		<polygon class="st143" points="169.3,129.6 123.3,105.8 29.1,156 75,180.8 		"/>
		<polygon class="st144" points="169,129.6 123.3,105.9 29.3,156 75,180.6 		"/>
		<polygon class="st145" points="168.8,129.6 123.3,105.9 29.5,156 75.1,180.5 		"/>
		<polygon class="st146" points="168.6,129.6 123.2,106 29.7,155.9 75.1,180.4 		"/>
		<polygon class="st147" points="168.4,129.6 123.2,106.1 29.9,155.9 75.1,180.2 		"/>
		<polygon class="st148" points="168.2,129.6 123.2,106.2 30.1,155.9 75.1,180.1 		"/>
		<polygon class="st149" points="168,129.5 123.1,106.3 30.3,155.8 75.1,180 		"/>
		<polygon class="st150" points="167.7,129.5 123.1,106.4 30.5,155.8 75.1,179.8 		"/>
		<polygon class="st151" points="167.5,129.5 123.1,106.5 30.7,155.8 75.2,179.7 		"/>
	</g>
	<g>
		<polygon class="st152" points="12.3,154.6 128.8,93.5 189.4,125.5 72.9,187.6 		"/>
		<polygon class="st153" points="16.9,154.6 128.8,96 184.8,125.5 72.9,185.2 		"/>
		<polygon class="st24" points="72.9,192 189.4,129.8 189.4,125.5 72.9,187.6 		"/>
		<polygon class="st154" points="72.9,192 12.3,159 12.3,154.6 72.9,187.6 		"/>
	</g>
	<polygon class="st155" points="95.8,122.9 32.5,157 67.7,176 131,141.8 	"/>
	<polygon class="st156" points="104.3,127.1 142.2,107.2 179.8,127.1 141.9,147.4 	"/>
	<g>
		<g>
			<g>
				<polygon class="st157" points="112,124.2 142.5,108.3 172.7,124.3 142.2,140.6 				"/>
				<g>
					<polygon class="st158" points="142.2,143.2 172.7,126.9 172.7,124.3 142.2,140.6 					"/>
					<polygon class="st159" points="142.2,143.2 112,126.9 112,124.2 142.2,140.6 					"/>
					<g>
						<g>
							<polygon class="st154" points="142.3,140.1 142.3,70.5 113,54.8 113,124.3 							"/>
							<polygon class="st24" points="142.3,140.1 142.3,70.5 171.6,54.8 171.6,124.3 							"/>
						</g>
						<g>
							<polygon class="st157" points="120.3,62 114.9,59 114.6,59.3 120,69.9 120.3,69.6 							"/>
							<polygon class="st160" points="120,62.2 114.6,59.3 114.6,67 120,69.9 							"/>
							<polygon class="st156" points="115.2,66.6 115.2,60.3 119.3,62.5 119.3,68.8 							"/>
							<g>
								<polygon class="st160" points="114.8,61.9 114.8,62.5 119.7,65.2 119.7,64.6 								"/>
							</g>
							<g>
								<polygon class="st160" points="114.8,64.1 114.8,64.7 119.7,67.4 119.7,66.8 								"/>
							</g>
							<polygon class="st160" points="117.5,61.3 116.9,60.9 116.9,67.8 117.5,68.1 							"/>
						</g>
						<g>
							<polygon class="st157" points="139.8,72.3 134.4,69.3 134.1,69.6 139.5,80.2 139.8,79.9 							"/>
							<polygon class="st160" points="139.5,72.5 134.1,69.6 134.1,77.3 139.5,80.2 							"/>
							<polygon class="st156" points="134.8,76.9 134.8,70.6 138.9,72.8 138.9,79.1 							"/>
							<g>
								<polygon class="st160" points="134.4,72.2 134.4,72.8 139.2,75.5 139.2,74.9 								"/>
							</g>
							<g>
								<polygon class="st160" points="134.4,74.4 134.4,75 139.2,77.7 139.2,77.1 								"/>
							</g>
							<polygon class="st160" points="137.1,71.6 136.5,71.2 136.5,78.1 137.1,78.4 							"/>
						</g>
						<g>
							<polygon class="st157" points="146.4,71.8 151.8,68.8 152.1,69.1 146.7,79.7 146.4,79.4 							"/>
							<polygon class="st160" points="146.7,72 152.1,69.1 152.1,76.8 146.7,79.7 							"/>
							<polygon class="st156" points="151.4,76.4 151.4,70.1 147.3,72.4 147.3,78.7 							"/>
							<g>
								<polygon class="st160" points="151.8,71.7 151.8,72.3 147,75 147,74.4 								"/>
							</g>
							<g>
								<polygon class="st160" points="151.8,73.9 151.8,74.6 147,77.2 147,76.6 								"/>
							</g>
							<polygon class="st160" points="149.1,71.1 149.7,70.7 149.7,77.6 149.1,77.9 							"/>
						</g>
						<g>
							<polygon class="st157" points="162.7,63 168.1,60.1 168.4,60.4 163,71 162.7,70.7 							"/>
							<polygon class="st160" points="163,63.3 168.4,60.4 168.4,68 163,71 							"/>
							<polygon class="st156" points="167.8,67.7 167.8,61.4 163.7,63.6 163.7,69.9 							"/>
							<g>
								<polygon class="st160" points="168.2,63 168.2,63.6 163.3,66.3 163.3,65.7 								"/>
							</g>
							<g>
								<polygon class="st160" points="168.2,65.2 168.2,65.8 163.3,68.5 163.3,67.9 								"/>
							</g>
							<polygon class="st160" points="165.5,62.4 166.1,62 166.1,68.9 165.5,69.2 							"/>
						</g>
						<g>
							<polygon class="st157" points="154.8,67.4 160.2,64.4 160.5,64.7 155.1,75.3 154.8,75 							"/>
							<polygon class="st160" points="155.1,67.6 160.5,64.7 160.5,72.4 155.1,75.3 							"/>
							<polygon class="st156" points="159.9,72 159.9,65.7 155.8,67.9 155.8,74.2 							"/>
							<g>
								<polygon class="st160" points="160.3,67.3 160.3,67.9 155.4,70.6 155.4,70 								"/>
							</g>
							<g>
								<polygon class="st160" points="160.3,69.5 160.3,70.1 155.4,72.8 155.4,72.2 								"/>
							</g>
							<polygon class="st160" points="157.6,66.7 158.2,66.3 158.2,73.2 157.6,73.5 							"/>
						</g>
						<g>
							<polygon class="st157" points="127.5,65.8 122.1,62.9 121.8,63.1 127.2,73.7 127.5,73.5 							"/>
							<polygon class="st160" points="127.2,66 121.8,63.1 121.8,70.8 127.2,73.7 							"/>
							<polygon class="st156" points="122.4,70.4 122.4,64.1 126.5,66.4 126.5,72.7 							"/>
							<g>
								<polygon class="st160" points="122,65.8 122,66.4 126.9,69 126.9,68.4 								"/>
							</g>
							<g>
								<polygon class="st160" points="122,68 122,68.6 126.9,71.2 126.9,70.6 								"/>
							</g>
							<polygon class="st160" points="124.8,65.1 124.1,64.8 124.1,71.6 124.8,71.9 							"/>
						</g>
						<g>
							<polygon class="st157" points="132.2,68.3 126.8,65.4 126.5,65.7 131.9,76.2 132.2,76 							"/>
							<polygon class="st160" points="131.9,68.6 126.5,65.7 126.5,73.3 131.9,76.2 							"/>
							<polygon class="st156" points="127.1,73 127.1,66.7 131.3,68.9 131.3,75.2 							"/>
							<g>
								<polygon class="st160" points="126.7,68.3 126.7,68.9 131.6,71.5 131.6,70.9 								"/>
							</g>
							<g>
								<polygon class="st160" points="126.7,70.5 126.7,71.1 131.6,73.7 131.6,73.1 								"/>
							</g>
							<polygon class="st160" points="129.5,67.6 128.9,67.3 128.9,74.1 129.5,74.5 							"/>
						</g>
						<g>
							<polygon class="st157" points="120.3,77.8 114.9,74.9 114.6,75.1 120,85.7 120.3,85.5 							"/>
							<polygon class="st160" points="120,78.1 114.6,75.1 114.6,82.8 120,85.7 							"/>
							<polygon class="st156" points="115.2,82.5 115.2,76.2 119.3,78.4 119.3,84.7 							"/>
							<g>
								<polygon class="st160" points="114.8,77.8 114.8,78.4 119.7,81 119.7,80.4 								"/>
							</g>
							<g>
								<polygon class="st160" points="114.8,80 114.8,80.6 119.7,83.2 119.7,82.6 								"/>
							</g>
							<polygon class="st160" points="117.5,77.1 116.9,76.8 116.9,83.6 117.5,84 							"/>
						</g>
						<g>
							<polygon class="st157" points="139.8,88.1 134.4,85.2 134.1,85.4 139.5,96 139.8,95.8 							"/>
							<polygon class="st160" points="139.5,88.4 134.1,85.4 134.1,93.1 139.5,96 							"/>
							<polygon class="st156" points="134.8,92.8 134.8,86.5 138.9,88.7 138.9,95 							"/>
							<g>
								<polygon class="st160" points="134.4,88.1 134.4,88.7 139.2,91.3 139.2,90.7 								"/>
							</g>
							<g>
								<polygon class="st160" points="134.4,90.3 134.4,90.9 139.2,93.5 139.2,92.9 								"/>
							</g>
							<polygon class="st160" points="137.1,87.4 136.5,87.1 136.5,93.9 137.1,94.3 							"/>
						</g>
						<g>
							<polygon class="st157" points="146.4,87.6 151.8,84.7 152.1,85 146.7,95.5 146.4,95.3 							"/>
							<polygon class="st160" points="146.7,87.9 152.1,85 152.1,92.6 146.7,95.5 							"/>
							<polygon class="st156" points="151.4,92.3 151.4,86 147.3,88.2 147.3,94.5 							"/>
							<g>
								<polygon class="st160" points="151.8,87.6 151.8,88.2 147,90.8 147,90.2 								"/>
							</g>
							<g>
								<polygon class="st160" points="151.8,89.8 151.8,90.4 147,93 147,92.4 								"/>
							</g>
							<polygon class="st160" points="149.1,86.9 149.7,86.6 149.7,93.4 149.1,93.8 							"/>
						</g>
						<g>
							<polygon class="st157" points="162.7,78.9 168.1,76 168.4,76.2 163,86.8 162.7,86.6 							"/>
							<polygon class="st160" points="163,79.2 168.4,76.2 168.4,83.9 163,86.8 							"/>
							<polygon class="st156" points="167.8,83.6 167.8,77.3 163.7,79.5 163.7,85.8 							"/>
							<g>
								<polygon class="st160" points="168.2,78.9 168.2,79.5 163.3,82.1 163.3,81.5 								"/>
							</g>
							<g>
								<polygon class="st160" points="168.2,81.1 168.2,81.7 163.3,84.3 163.3,83.7 								"/>
							</g>
							<polygon class="st160" points="165.5,78.2 166.1,77.9 166.1,84.7 165.5,85 							"/>
						</g>
						<g>
							<polygon class="st157" points="154.8,83.2 160.2,80.3 160.5,80.5 155.1,91.1 154.8,90.9 							"/>
							<polygon class="st160" points="155.1,83.5 160.5,80.5 160.5,88.2 155.1,91.1 							"/>
							<polygon class="st156" points="159.9,87.9 159.9,81.6 155.8,83.8 155.8,90.1 							"/>
							<g>
								<polygon class="st160" points="160.3,83.2 160.3,83.8 155.4,86.4 155.4,85.8 								"/>
							</g>
							<g>
								<polygon class="st160" points="160.3,85.4 160.3,86 155.4,88.6 155.4,88 								"/>
							</g>
							<polygon class="st160" points="157.6,82.5 158.2,82.2 158.2,89 157.6,89.4 							"/>
						</g>
						<g>
							<polygon class="st157" points="127.5,81.6 122.1,78.7 121.8,79 127.2,89.6 127.5,89.3 							"/>
							<polygon class="st160" points="127.2,81.9 121.8,79 121.8,86.6 127.2,89.6 							"/>
							<polygon class="st156" points="122.4,86.3 122.4,80 126.5,82.2 126.5,88.5 							"/>
							<g>
								<polygon class="st160" points="122,81.6 122,82.2 126.9,84.9 126.9,84.2 								"/>
							</g>
							<g>
								<polygon class="st160" points="122,83.8 122,84.4 126.9,87.1 126.9,86.4 								"/>
							</g>
							<polygon class="st160" points="124.8,80.9 124.1,80.6 124.1,87.5 124.8,87.8 							"/>
						</g>
						<g>
							<polygon class="st157" points="132.2,84.2 126.8,81.3 126.5,81.5 131.9,92.1 132.2,91.8 							"/>
							<polygon class="st160" points="131.9,84.4 126.5,81.5 126.5,89.2 131.9,92.1 							"/>
							<polygon class="st156" points="127.1,88.8 127.1,82.5 131.3,84.8 131.3,91.1 							"/>
							<g>
								<polygon class="st160" points="126.7,84.2 126.7,84.8 131.6,87.4 131.6,86.8 								"/>
							</g>
							<g>
								<polygon class="st160" points="126.7,86.4 126.7,87 131.6,89.6 131.6,89 								"/>
							</g>
							<polygon class="st160" points="129.5,83.5 128.9,83.2 128.9,90 129.5,90.3 							"/>
						</g>
					</g>
				</g>
			</g>
		</g>
	</g>
	<polygon class="st12" points="113,54.8 142.3,70.5 171.6,54.8 142.3,39 	"/>
	<polygon class="st158" points="117.3,54.8 142.3,68.2 167.3,54.8 142.3,41.4 	"/>
	<polygon class="st159" points="142.3,68.2 167.3,54.8 142.3,41.4 	"/>
	<polygon class="st156" points="119.8,56.1 142.3,68.2 164.8,56.1 142.3,44 	"/>
	<polygon class="st154" points="121.3,56.9 142.3,68.2 163.3,56.9 142.3,45.6 	"/>
	<g>
		<path class="st24" d="M147.3,2.7c0,1.5-10.3,1.5-10.3,0c0,0-2,48.1-2,49.8c0,2.1,3.2,3.8,7.1,3.8s7.1-1.7,7.1-3.8
			C149.3,50.8,147.3,2.7,147.3,2.7z"/>
		<ellipse class="st12" cx="142.2" cy="2.7" rx="5.1" ry="2.7"/>
		<path class="st156" d="M138.7,2.7c0-0.9,1.5-1.7,3.4-1.7s3.4,0.7,3.4,1.7c0,0.9-1.5,1.7-3.4,1.7S138.7,3.7,138.7,2.7z"/>
		<path class="st159" d="M142.2,19.8c2.5,0,4.7-0.8,5.8-1.9c-0.1-1.6-0.1-3.2-0.2-4.6c-0.9,1.2-3.1,2-5.6,2c-2.5,0-4.7-0.8-5.6-2
			c-0.1,1.4-0.1,3-0.2,4.6C137.4,19.1,139.6,19.8,142.2,19.8z"/>
		<path class="st159" d="M142.2,28.8c2.7,0,5-0.8,6.2-2c-0.1-1.7-0.1-3.4-0.2-4.9c-1,1.2-3.3,2.1-6,2.1c-2.7,0-5-0.9-6-2.1
			c-0.1,1.5-0.1,3.2-0.2,4.9C137.1,28,139.5,28.8,142.2,28.8z"/>
		<path class="st159" d="M142.2,53.8c-3.6,0-6.6-1.4-7.1-3.3c0,1.1-0.1,1.8-0.1,2c0,2.1,3.2,3.8,7.1,3.8s7.1-1.7,7.1-3.8
			c0-0.2,0-0.9-0.1-2C148.8,52.3,145.8,53.8,142.2,53.8z"/>
	</g>
	<g>
		<path class="st24" d="M157.9,23.6c0,1-6.8,1-6.8,0c0,0-1.3,31.8-1.3,32.9c0,1.4,2.1,2.5,4.7,2.5c2.6,0,4.7-1.1,4.7-2.5
			C159.2,55.4,157.9,23.6,157.9,23.6z"/>
		<ellipse class="st12" cx="154.5" cy="23.6" rx="3.4" ry="1.8"/>
		<ellipse class="st156" cx="154.5" cy="23.6" rx="2.3" ry="1.1"/>
		<path class="st159" d="M154.5,34.9c1.7,0,3.1-0.5,3.8-1.3c0-1.1-0.1-2.1-0.1-3c-0.6,0.8-2,1.3-3.7,1.3c-1.7,0-3.1-0.5-3.7-1.3
			c0,1-0.1,2-0.1,3C151.4,34.4,152.8,34.9,154.5,34.9z"/>
		<path class="st159" d="M154.5,40.9c1.8,0,3.3-0.6,4.1-1.3c0-1.1-0.1-2.2-0.1-3.3c-0.6,0.8-2.2,1.4-3.9,1.4c-1.8,0-3.3-0.6-3.9-1.4
			c0,1-0.1,2.1-0.1,3.3C151.2,40.3,152.7,40.9,154.5,40.9z"/>
		<path class="st156" d="M154.5,58.5c-2.4,0-4.4-1-4.7-2.2c0,0.7,0,1.2,0,1.3c0,1.4,2.1,2.5,4.7,2.5c2.6,0,4.7-1.1,4.7-2.5
			c0-0.1,0-0.6,0-1.3C158.9,57.5,156.9,58.5,154.5,58.5z"/>
		<path class="st159" d="M154.5,57.4c-2.4,0-4.4-1-4.7-2.2c0,0.7,0,1.2,0,1.3c0,1.4,2.1,2.5,4.7,2.5c2.6,0,4.7-1.1,4.7-2.5
			c0-0.1,0-0.6,0-1.3C158.9,56.4,156.9,57.4,154.5,57.4z"/>
	</g>
	<g>
		<g>
			<polygon class="st156" points="133.7,62.5 142.3,67.1 150.9,62.5 150.9,60.7 133.7,60.7 			"/>
			<polygon class="st161" points="142.3,65.3 142.3,56.1 133.7,51.5 133.7,60.7 			"/>
			<polygon class="st24" points="142.3,65.3 142.3,56.1 150.9,51.5 150.9,60.7 			"/>
			<polygon class="st12" points="133.7,51.5 142.3,56.1 150.9,51.5 142.3,46.9 			"/>
			<polygon class="st158" points="136.6,51.5 142.3,54.6 148,51.5 142.3,48.4 			"/>
			<polygon class="st159" points="142.3,54.6 148,51.5 142.3,48.4 			"/>
			<polygon class="st156" points="138.3,52.4 142.3,54.5 146.3,52.4 142.3,50.3 			"/>
			<polygon class="st154" points="138.6,52.6 142.3,54.5 146,52.6 142.3,50.6 			"/>
			<polygon class="st5" points="136.6,51.5 142.3,54.7 148,51.5 142.3,54.5 			"/>
		</g>
		<polygon class="st156" points="139.9,64 139.9,56.4 135.6,54.1 135.3,54.3 135.6,61.7 139.7,64.2 		"/>
		<polygon class="st158" points="139.7,64.2 139.7,56.7 135.3,54.3 135.3,61.9 		"/>
		<path class="st159" d="M138.1,55.8l-2.8-1.5v4.1C136.2,57.5,137.2,56.7,138.1,55.8z"/>
		<polygon class="st159" points="136.7,62.7 139.7,64.2 139.7,59.9 		"/>
	</g>
	<g>
		<g>
			<g>
				<g>
					<g>
						<g>
							<polygon class="st157" points="37,154.6 96.4,123 127.3,138.7 67.2,170.9 							"/>
							<g>
								<polygon class="st24" points="67.2,173.5 127.3,141.3 127.3,138.7 67.2,170.9 								"/>
								<polygon class="st154" points="67.2,173.5 37,157.2 37,154.6 67.2,170.9 								"/>
								<g>
									<g>
										<polygon class="st159" points="67.3,170.4 67.3,147.7 38,132 38,154.7 										"/>
										<polygon class="st158" points="67.3,170.4 67.3,147.7 126.2,116 126.2,138.7 										"/>
									</g>
								</g>
							</g>
						</g>
					</g>
				</g>
				<polygon class="st12" points="38,132 67.3,147.7 126.2,116 96.9,100.2 				"/>
				<polygon class="st159" points="42.4,132 67.3,145.4 121.9,116 96.9,102.6 				"/>
				<polygon class="st158" points="67.3,145.4 121.9,116 96.9,102.6 				"/>
				<polygon class="st156" points="44.8,133.3 67.3,145.4 119.4,117.3 96.9,105.2 				"/>
				<polygon class="st154" points="46.3,134.1 67.3,145.4 117.9,118.1 96.9,106.8 				"/>
			</g>
			<g>
				<g>
					<path class="st156" d="M100.5,119.9c0,0,0-3.8,0-3.9c0.1-2.2,3.5-0.1,7.6-0.1c3.9,0,7.2-1.7,7.5,0.3c0,0,0,3.6,0,3.7
						c0,2.2-3.4,4-7.6,4S100.5,122.1,100.5,119.9z"/>
					<path class="st24" d="M100.5,117.7c0,0,0-3.8,0-3.9c0.1-2.2,3.5-0.1,7.6-0.1c3.9,0,7.2-1.7,7.5,0.3c0,0,0,3.6,0,3.7
						c0,2.2-3.4,4-7.6,4S100.5,119.9,100.5,117.7z"/>
					<path class="st152" d="M100.5,113.8c0-2.2,3.4-4,7.6-4s7.6,1.8,7.6,4c0,2.2-3.4,4-7.6,4S100.5,116,100.5,113.8z"/>
					<ellipse class="st156" cx="108.1" cy="113.7" rx="6.5" ry="3.3"/>
					<path class="st154" d="M110.1,114.6c0-0.1,0.1-0.1,0.1-0.2c0-0.2-0.1-0.4-0.3-0.5c0.5-0.6,2.4-0.9,3.3-1.1v-0.7
						c-2.1-0.5-5.8,0.9-5.8,1.3c-0.4,0.1-0.8,0.2-1.1,0.4c-0.5-0.1-2.2-0.5-2.5-1.6c-1.1,0.5-1.8,0.7-1.8,1.6c0,0,0,0.6,0,0.6
						c0,0.2,0.1,0.5,0.2,0.7c0.4,0.5,1,0.9,1.8,1.2c1.1-0.2,2.1-0.6,2.7-1.1c0.4,0.2,0.9,0.3,1.5,0.3c0.1,0,0.2,0,0.3,0
						c0.2,0.5-0.1,0.8-0.3,1.4c0,0.1,0,0.1,0,0.2c0,0,0,0,0,0c2.2,0,4.2-0.6,5.4-1.5c0-0.2,0-0.5,0-0.5
						C112.4,114.2,110.7,114.7,110.1,114.6z"/>
					<ellipse class="st24" cx="108.1" cy="113.7" rx="2.2" ry="1.1"/>
					<path class="st24" d="M113.5,115.1c-1.1-0.9-2.7-1.1-3.4-1.1c0-0.1,0.1-0.1,0.1-0.2c0-0.2-0.1-0.4-0.3-0.5
						c0.5-0.6,2.4-0.9,3.3-1.1c-0.9-0.8-2.5-1.3-4.3-1.4c-1.2,0.8-1.5,1.7-1.5,2c-0.4,0.1-0.8,0.2-1.1,0.4c-0.5-0.1-2.2-0.5-2.5-1.6
						c-1.1,0.6-1.8,1.3-1.8,2.2c0,0.7,0.5,1.4,1.4,2c1.4-0.2,2.6-0.6,3.2-1.2c0.4,0.2,0.9,0.3,1.5,0.3c0.1,0,0.2,0,0.3,0
						c0.2,0.5-0.1,1.4-0.3,2C110.4,116.8,112.5,116.1,113.5,115.1z"/>
				</g>
				<g>
					<path class="st156" d="M86.6,127.2c0,0,0-3.8,0-3.9c0.1-2.2,3.5-0.1,7.6-0.1c3.9,0,7.2-1.7,7.5,0.3c0,0,0,3.6,0,3.7
						c0,2.2-3.4,4-7.6,4S86.6,129.4,86.6,127.2z"/>
					<path class="st24" d="M86.6,125.1c0,0,0-3.8,0-3.9c0.1-2.2,3.5-0.1,7.6-0.1c3.9,0,7.2-1.7,7.5,0.3c0,0,0,3.6,0,3.7
						c0,2.2-3.4,4-7.6,4S86.6,127.3,86.6,125.1z"/>
					<path class="st152" d="M86.6,121.2c0-2.2,3.4-4,7.6-4s7.6,1.8,7.6,4c0,2.2-3.4,4-7.6,4S86.6,123.4,86.6,121.2z"/>
					<ellipse class="st156" cx="94.2" cy="121.1" rx="6.5" ry="3.3"/>
					<path class="st154" d="M96.2,122c0-0.1,0.1-0.1,0.1-0.2c0-0.2-0.1-0.4-0.3-0.5c0.5-0.6,2.4-0.9,3.3-1.1v-0.7
						c-2.1-0.5-5.8,0.9-5.8,1.3c-0.4,0.1-0.8,0.2-1.1,0.4c-0.5-0.1-2.2-0.5-2.5-1.6c-1.1,0.5-1.8,0.7-1.8,1.6c0,0,0,0.6,0,0.6
						c0,0.2,0.1,0.5,0.2,0.7c0.4,0.5,1,0.9,1.8,1.2c1.1-0.2,2.1-0.6,2.7-1.1c0.4,0.2,0.9,0.3,1.5,0.3c0.1,0,0.2,0,0.3,0
						c0.2,0.5-0.1,0.8-0.3,1.4c0,0.1,0,0.1,0,0.2c0,0,0,0,0,0c2.2,0,4.2-0.6,5.4-1.5c0-0.2,0-0.5,0-0.5
						C98.5,121.6,96.8,122,96.2,122z"/>
					<ellipse class="st24" cx="94.2" cy="121.1" rx="2.2" ry="1.1"/>
					<path class="st24" d="M99.6,122.4c-1.1-0.9-2.7-1.1-3.4-1.1c0-0.1,0.1-0.1,0.1-0.2c0-0.2-0.1-0.4-0.3-0.5
						c0.5-0.6,2.4-0.9,3.3-1.1c-0.9-0.8-2.5-1.3-4.3-1.4c-1.2,0.8-1.5,1.7-1.5,2c-0.4,0.1-0.8,0.2-1.1,0.4c-0.5-0.1-2.2-0.5-2.5-1.6
						c-1.1,0.6-1.8,1.3-1.8,2.2c0,0.7,0.5,1.4,1.4,2c1.4-0.2,2.6-0.6,3.2-1.2c0.4,0.2,0.9,0.3,1.5,0.3c0.1,0,0.2,0,0.3,0
						c0.2,0.5-0.1,1.4-0.3,2C96.5,124.1,98.6,123.4,99.6,122.4z"/>
				</g>
				<g>
					<path class="st156" d="M72.8,134.8c0,0,0-3.8,0-3.9c0.1-2.2,3.5-0.1,7.6-0.1c3.9,0,7.2-1.7,7.5,0.3c0,0,0,3.6,0,3.7
						c0,2.2-3.4,4-7.6,4C76.2,138.8,72.8,137,72.8,134.8z"/>
					<path class="st24" d="M72.8,132.7c0,0,0-3.8,0-3.9c0.1-2.2,3.5-0.1,7.6-0.1c3.9,0,7.2-1.7,7.5,0.3c0,0,0,3.6,0,3.7
						c0,2.2-3.4,4-7.6,4C76.2,136.7,72.8,134.9,72.8,132.7z"/>
					<path class="st152" d="M72.8,128.8c0-2.2,3.4-4,7.6-4c4.2,0,7.6,1.8,7.6,4c0,2.2-3.4,4-7.6,4C76.2,132.8,72.8,131,72.8,128.8z"
						/>
					<path class="st156" d="M73.9,128.7c0-1.8,2.9-3.3,6.5-3.3s6.5,1.5,6.5,3.3c0,1.8-2.9,3.3-6.5,3.3S73.9,130.5,73.9,128.7z"/>
					<path class="st154" d="M82.4,129.6c0-0.1,0.1-0.1,0.1-0.2c0-0.2-0.1-0.4-0.3-0.5c0.5-0.6,2.4-0.9,3.3-1.1v-0.7
						c-2.1-0.5-5.8,0.9-5.8,1.3c-0.4,0.1-0.8,0.2-1.1,0.4c-0.5-0.1-2.2-0.5-2.5-1.6c-1.1,0.5-1.8,0.7-1.8,1.6c0,0,0,0.6,0,0.6
						c0,0.2,0.1,0.5,0.2,0.7c0.4,0.5,1,0.9,1.8,1.2c1.1-0.2,2.1-0.6,2.7-1.1c0.4,0.2,0.9,0.3,1.5,0.3c0.1,0,0.2,0,0.3,0
						c0.2,0.5-0.1,0.8-0.3,1.4c0,0.1,0,0.1,0,0.2c0,0,0,0,0,0c2.2,0,4.2-0.6,5.4-1.5c0-0.2,0-0.5,0-0.5
						C84.6,129.2,83,129.6,82.4,129.6z"/>
					<path class="st24" d="M78.2,128.7c0-0.6,1-1.1,2.2-1.1c1.2,0,2.2,0.5,2.2,1.1s-1,1.1-2.2,1.1C79.2,129.8,78.2,129.3,78.2,128.7
						z"/>
					<path class="st24" d="M85.8,130c-1.1-0.9-2.7-1.1-3.4-1.1c0-0.1,0.1-0.1,0.1-0.2c0-0.2-0.1-0.4-0.3-0.5
						c0.5-0.6,2.4-0.9,3.3-1.1c-0.9-0.8-2.5-1.3-4.3-1.4c-1.2,0.8-1.5,1.7-1.5,2c-0.4,0.1-0.8,0.2-1.1,0.4c-0.5-0.1-2.2-0.5-2.5-1.6
						c-1.1,0.6-1.8,1.3-1.8,2.2c0,0.7,0.5,1.4,1.4,2c1.4-0.2,2.6-0.6,3.2-1.2c0.4,0.2,0.9,0.3,1.5,0.3c0.1,0,0.2,0,0.3,0
						c0.2,0.5-0.1,1.4-0.3,2C82.7,131.7,84.8,131,85.8,130z"/>
				</g>
				<g>
					<path class="st156" d="M73.9,138.6c-0.4-2-3.6-0.3-7.5-0.3c-4.1,0-7.4-2-7.6,0.1c0,0,0,1.9,0,3c2.8,1.7,5.6,3.3,8.4,4.8
						c3.8-0.2,6.7-1.9,6.7-4C74,142.2,73.9,138.6,73.9,138.6z"/>
					<path class="st24" d="M73.9,136.5c-0.4-2-3.6-0.3-7.5-0.3c-4.1,0-7.4-2-7.6,0.1c0,0,0,3.8,0,3.9c0,0.6,0.3,1.2,0.8,1.7
						c0.9,0.6,1.9,1.1,2.8,1.7c1.2,0.4,2.5,0.6,4,0.6c4.2,0,7.6-1.8,7.6-4C74,140.1,73.9,136.5,73.9,136.5z"/>
					<ellipse class="st152" cx="66.4" cy="136.3" rx="7.6" ry="4"/>
					<path class="st156" d="M59.9,136.2c0-1.8,2.9-3.3,6.5-3.3c3.6,0,6.5,1.5,6.5,3.3c0,1.8-2.9,3.3-6.5,3.3
						C62.8,139.5,59.9,138,59.9,136.2z"/>
					<path class="st154" d="M68.4,137.1c0-0.1,0.1-0.2,0.1-0.2c0-0.2-0.1-0.4-0.3-0.5c0.5-0.6,2.4-0.9,3.3-1.1v-0.7
						c-2.1-0.5-5.8,0.9-5.8,1.3c-0.4,0.1-0.8,0.2-1.1,0.4c-0.5-0.1-2.2-0.5-2.5-1.6c-1.1,0.5-1.8,0.7-1.8,1.6c0,0,0,0.6,0,0.6
						c0,0.2,0.1,0.5,0.2,0.7c0.4,0.5,1,0.9,1.8,1.2c1.1-0.2,2.1-0.6,2.7-1.1c0.4,0.2,0.9,0.3,1.5,0.3c0.1,0,0.2,0,0.3,0
						c0.2,0.5-0.1,0.8-0.3,1.4c0,0.1,0,0.1,0,0.2c0,0,0,0,0,0c2.2,0,4.2-0.6,5.4-1.5c0-0.2,0-0.5,0-0.5
						C70.7,136.7,69,137.1,68.4,137.1z"/>
					<path class="st24" d="M64.2,136.2c0-0.6,1-1.1,2.2-1.1c1.2,0,2.2,0.5,2.2,1.1c0,0.6-1,1.1-2.2,1.1
						C65.2,137.3,64.2,136.8,64.2,136.2z"/>
					<path class="st24" d="M71.8,137.5c-1.1-0.9-2.7-1.1-3.4-1.1c0-0.1,0.1-0.2,0.1-0.2c0-0.2-0.1-0.4-0.3-0.5
						c0.5-0.6,2.4-0.9,3.3-1.1c-0.9-0.8-2.5-1.3-4.3-1.4c-1.2,0.8-1.5,1.7-1.5,2c-0.4,0.1-0.8,0.2-1.1,0.4c-0.5-0.1-2.2-0.5-2.5-1.6
						c-1.1,0.6-1.8,1.3-1.8,2.2c0,0.7,0.5,1.4,1.4,2c1.4-0.2,2.6-0.6,3.2-1.2c0.4,0.2,0.9,0.3,1.5,0.3c0.1,0,0.2,0,0.3,0
						c0.2,0.5-0.1,1.4-0.3,2C68.8,139.3,70.8,138.6,71.8,137.5z"/>
				</g>
			</g>
			<path class="st12" d="M96.9,100.2L38,132l29.3,15.8l58.9-31.7L96.9,100.2z M42.4,132l54.5-29.4l25,13.4l-54.5,29.4L42.4,132z"/>
		</g>
		<g>
			<polygon class="st157" points="118,129.1 123.4,126.2 123.7,126.4 118.3,137 118,136.8 			"/>
			<polygon class="st160" points="118.3,129.3 123.7,126.4 123.7,134.1 118.3,137 			"/>
			<polygon class="st156" points="123,133.7 123,127.4 118.9,129.7 118.9,136 			"/>
			<g>
				<polygon class="st160" points="123.4,129.1 123.4,129.7 118.6,132.3 118.6,131.7 				"/>
			</g>
			<g>
				<polygon class="st160" points="123.4,131.3 123.4,131.9 118.6,134.5 118.6,133.9 				"/>
			</g>
			<polygon class="st160" points="120.7,128.4 121.3,128.1 121.3,134.9 120.7,135.2 			"/>
		</g>
		<g>
			<polygon class="st157" points="72.9,153.5 78.3,150.6 78.6,150.8 73.2,161.4 72.9,161.2 			"/>
			<polygon class="st160" points="73.2,153.7 78.6,150.8 78.6,158.5 73.2,161.4 			"/>
			<polygon class="st156" points="78,158.2 78,151.9 73.8,154.1 73.8,160.4 			"/>
			<g>
				<polygon class="st160" points="78.4,153.5 78.4,154.1 73.5,156.7 73.5,156.1 				"/>
			</g>
			<g>
				<polygon class="st160" points="78.4,155.7 78.4,156.3 73.5,158.9 73.5,158.3 				"/>
			</g>
			<polygon class="st160" points="75.6,152.8 76.2,152.5 76.2,159.3 75.6,159.6 			"/>
		</g>
	</g>
	<g>
		<g>
			<g>
				<path class="st159" d="M84.4,69.6c0,1.5-10.3,1.5-10.3,0c0,0-2,48.1-2,49.8c0,2.1,3.2,3.8,7.1,3.8c3.9,0,7.1-1.7,7.1-3.8
					C86.4,117.7,84.4,69.6,84.4,69.6z"/>
				<ellipse class="st158" cx="79.2" cy="69.6" rx="5.1" ry="2.7"/>
				<path class="st156" d="M75.8,69.6c0-0.9,1.5-1.7,3.4-1.7c1.9,0,3.4,0.7,3.4,1.7s-1.5,1.7-3.4,1.7C77.3,71.3,75.8,70.6,75.8,69.6
					z"/>
				<path class="st152" d="M79.2,86.7c2.5,0,4.7-0.8,5.8-1.9c-0.1-1.6-0.1-3.2-0.2-4.6c-0.9,1.2-3.1,2-5.6,2s-4.7-0.8-5.6-2
					c-0.1,1.4-0.1,3-0.2,4.6C74.5,86,76.7,86.7,79.2,86.7z"/>
				<path class="st156" d="M79.2,122.2c-3.6,0-6.6-1.4-7.1-3.3c0,1.1-0.1,1.8-0.1,2c0,2.1,3.2,3.8,7.1,3.8c3.9,0,7.1-1.7,7.1-3.8
					c0-0.2,0-0.9-0.1-2C85.9,120.8,82.9,122.2,79.2,122.2z"/>
				<path class="st152" d="M79.2,95.8c2.7,0,5-0.8,6.2-2c-0.1-1.7-0.1-3.4-0.2-4.9c-1,1.2-3.3,2.1-6,2.1c-2.7,0-5-0.9-6-2.1
					c-0.1,1.5-0.1,3.2-0.2,4.9C74.2,94.9,76.5,95.8,79.2,95.8z"/>
				<path class="st152" d="M79.2,120.7c-3.6,0-6.6-1.4-7.1-3.3c0,1.1-0.1,1.8-0.1,2c0,2.1,3.2,3.8,7.1,3.8c3.9,0,7.1-1.7,7.1-3.8
					c0-0.2,0-0.9-0.1-2C85.9,119.3,82.9,120.7,79.2,120.7z"/>
			</g>
			<g>
				<path class="st24" d="M96.5,77.9c0,1-6.8,1-6.8,0c0,0-1.3,31.8-1.3,32.9c0,1.4,2.1,2.5,4.7,2.5c2.6,0,4.7-1.1,4.7-2.5
					C97.8,109.7,96.5,77.9,96.5,77.9z"/>
				<ellipse class="st12" cx="93.1" cy="77.9" rx="3.4" ry="1.8"/>
				<ellipse class="st156" cx="93.1" cy="77.9" rx="2.3" ry="1.1"/>
				<path class="st159" d="M93.1,89.2c1.7,0,3.1-0.5,3.8-1.3c0-1.1-0.1-2.1-0.1-3c-0.6,0.8-2,1.3-3.7,1.3c-1.7,0-3.1-0.5-3.7-1.3
					c0,1-0.1,2-0.1,3C90,88.7,91.4,89.2,93.1,89.2z"/>
				<path class="st159" d="M93.1,95.2c1.8,0,3.3-0.6,4.1-1.3c0-1.1-0.1-2.2-0.1-3.3c-0.6,0.8-2.2,1.4-3.9,1.4
					c-1.8,0-3.3-0.6-3.9-1.4c0,1-0.1,2.1-0.1,3.3C89.8,94.6,91.3,95.2,93.1,95.2z"/>
				<path class="st156" d="M93.1,112.5c-2.4,0-4.4-1-4.7-2.2c0,0.7,0,1.2,0,1.3c0,1.4,2.1,2.5,4.7,2.5c2.6,0,4.7-1.1,4.7-2.5
					c0-0.1,0-0.6,0-1.3C97.5,111.5,95.5,112.5,93.1,112.5z"/>
				<path class="st159" d="M93.1,111.7c-2.4,0-4.4-1-4.7-2.2c0,0.7,0,1.2,0,1.3c0,1.4,2.1,2.5,4.7,2.5c2.6,0,4.7-1.1,4.7-2.5
					c0-0.1,0-0.6,0-1.3C97.5,110.7,95.5,111.7,93.1,111.7z"/>
			</g>
		</g>
	</g>
</g>
</svg>
