<svg xmlns="http://www.w3.org/2000/svg" viewBox="0 0 45 18.93"><defs><style>.cls-1{fill:#dfe0e2;}</style></defs><title>Asset 93switch-vertical</title><g id="Layer_2" data-name="Layer 2"><g id="Layer_1-2" data-name="Layer 1"><path class="cls-1" d="M23.73,3.41l.83,2.08c.06.16,0,.26-.24.26h-.91c-.16,0-.2-.14-.25-.26l-.74-1.86h-.63V5.49c0,.18-.06.26-.24.26h-.91c-.18,0-.25-.08-.25-.26V.25c0-.17.07-.25.25-.25h1.82c1.59,0,2.15.72,2.15,1.45v.73A1.31,1.31,0,0,1,23.73,3.41ZM21.79,1.14V2.48h.67c.42,0,.77-.16.77-.54V1.69c0-.39-.35-.55-.77-.55Z"/><path class="cls-1" d="M11.8,18.93H.73a.73.73,0,1,1,0-1.45H11.8a.73.73,0,0,1,0,1.45Z"/><path class="cls-1" d="M44.27,18.83H33.2a.73.73,0,0,1,0-1.46H44.27a.73.73,0,1,1,0,1.46Z"/><path class="cls-1" d="M36.56,15.15a.7.7,0,0,1-.48-.19C22.17,2.55,9.48,14.43,8.94,15a.73.73,0,1,1-1-1.06c.14-.13,14.18-13.33,29.1,0a.72.72,0,0,1,.06,1A.69.69,0,0,1,36.56,15.15Z"/></g></g></svg>