<svg xmlns="http://www.w3.org/2000/svg" viewBox="0 0 38.5 91.36"><defs><style>.cls-1{fill:#dfe0e2;}</style></defs><title>Asset 62switch-vertical</title><g id="Layer_2" data-name="Layer 2"><g id="Layer_1-2" data-name="Layer 1"><path class="cls-1" d="M23.6,81.72l-.13,0-4.78-1a.63.63,0,0,1-.47-.74.58.58,0,0,1,.27-.38.59.59,0,0,1,.47-.08l2.7.59-5.45-5.41a.62.62,0,1,1,.88-.87l5.45,5.41-.6-2.68A.6.6,0,0,1,22,76a.61.61,0,0,1,.39-.27.64.64,0,0,1,.74.47h0L24.2,81a.58.58,0,0,1-.16.56A.63.63,0,0,1,23.6,81.72Zm-1.1-5.36Z"/><path class="cls-1" d="M21.85,89l-.14,0-4.77-1a.62.62,0,0,1-.31-.16.63.63,0,0,1,.11-1,.64.64,0,0,1,.47-.08l2.7.6-5.45-5.42a.62.62,0,0,1-.18-.43A.62.62,0,0,1,15.34,81l5.45,5.42-.61-2.69a.62.62,0,0,1,.09-.46.56.56,0,0,1,.38-.27.62.62,0,0,1,.74.46h0l1.06,4.75a.6.6,0,0,1-.16.57A.62.62,0,0,1,21.85,89Zm-1.1-5.35Z"/><path class="cls-1" d="M19.69,34.49c-.26,0-.35-.14-.35-.42v-8.6c0-.29.11-.41.4-.41H22.9c2.62,0,3.57,1.18,3.57,2.37v4.69c0,1.19-.95,2.37-3.57,2.37Zm1.95-7.56v5.68H22.9c.68,0,1.26-.26,1.26-.9V27.83c0-.64-.58-.9-1.26-.9Z"/><path class="cls-1" d="M34.73,32.23c0,1.19-.81,2.37-3.43,2.37s-3.43-1.18-3.43-2.37V27.32c0-1.2.81-2.37,3.43-2.37s3.43,1.17,3.43,2.37V28c0,.3-.09.42-.39.42H32.91c-.3,0-.41-.12-.41-.42v-.23c0-.64-.49-.9-1.17-.9s-1.16.26-1.16.9v4.1c0,.64.47.91,1.16.91s1.17-.27,1.17-.91v-.44c0-.29.11-.42.41-.42h1.43c.3,0,.39.13.39.42Z"/><path class="cls-1" d="M9.1,4.38,11.63,13c.08.26,0,.42-.31.42H9.77A.46.46,0,0,1,9.29,13l-.37-1.33H6.61L6.24,13c-.07.26-.19.42-.49.42H4.35c-.3,0-.4-.16-.31-.42l2.52-8.6A.49.49,0,0,1,7.08,4H8.59A.47.47,0,0,1,9.1,4.38ZM8.22,9.1C8,8.25,7.81,6.32,7.79,6.2c0,.19-.25,2.09-.47,2.9l-.21.75H8.42Z"/><path class="cls-1" d="M19.21,11.13c0,1.2-.81,2.38-3.43,2.38s-3.43-1.18-3.43-2.38V6.23c0-1.2.8-2.38,3.43-2.38S19.21,5,19.21,6.23v.63c0,.3-.1.42-.39.42H17.38c-.29,0-.4-.12-.4-.42V6.63c0-.64-.49-.9-1.17-.9s-1.16.26-1.16.9v4.1c0,.64.47.9,1.16.9s1.17-.26,1.17-.9v-.44c0-.29.11-.42.4-.42h1.44c.29,0,.39.13.39.42Z"/><path class="cls-1" d="M0,91.36H38.5V52.86H0Zm1.5-1.5v-17H37v17ZM37,54.36v17H1.5v-17Z"/><path class="cls-1" d="M0,0V38.5H18.5V52.83H20V38.5H38.5V0ZM36.17,1.5,1.5,36.17V1.5ZM2.79,37,37,2.79V37Z"/></g></g></svg>