<svg xmlns="http://www.w3.org/2000/svg" viewBox="0 0 90.56 38.5"><defs><style>.cls-1{fill:#000000;}</style></defs><title>Asset 59switch-vertical</title><g id="Layer_2" data-name="Layer 2"><g id="Layer_1-2" data-name="Layer 1"><path class="cls-1" d="M56.54,33.9c-.25,0-.35-.13-.35-.41v-8.6c0-.29.12-.41.41-.41h3.15c2.63,0,3.58,1.17,3.58,2.37v4.68c0,1.2-.95,2.37-3.58,2.37Zm2-7.55V32h1.25c.69,0,1.27-.26,1.27-.9V27.25c0-.64-.58-.9-1.27-.9Z"/><path class="cls-1" d="M71.59,31.64c0,1.2-.81,2.38-3.43,2.38s-3.43-1.18-3.43-2.38V26.73c0-1.19.8-2.37,3.43-2.37s3.43,1.18,3.43,2.37v.64c0,.3-.1.42-.39.42H69.76c-.29,0-.4-.12-.4-.42v-.23c0-.64-.49-.9-1.17-.9s-1.16.26-1.16.9v4.1c0,.64.47.9,1.16.9s1.17-.26,1.17-.9V30.8c0-.29.11-.42.4-.42H71.2c.29,0,.39.13.39.42Z"/><path class="cls-1" d="M76.33,5l2.52,8.6c.09.26,0,.42-.3.42H77c-.3,0-.42-.16-.49-.42l-.36-1.33H73.83l-.36,1.33A.47.47,0,0,1,73,14H71.57c-.29,0-.39-.16-.31-.42L73.79,5a.47.47,0,0,1,.51-.41h1.51A.49.49,0,0,1,76.33,5Zm-.88,4.72A27.43,27.43,0,0,1,75,6.83c0,.19-.26,2.09-.48,2.9l-.21.75h1.31Z"/><path class="cls-1" d="M86.43,11.76c0,1.2-.8,2.38-3.43,2.38S79.57,13,79.57,11.76V6.86c0-1.2.81-2.38,3.43-2.38s3.43,1.18,3.43,2.38v.63c0,.3-.09.42-.39.42H84.61c-.3,0-.41-.12-.41-.42V7.26c0-.64-.49-.9-1.17-.9s-1.16.26-1.16.9v4.1c0,.64.48.9,1.16.9s1.17-.26,1.17-.9v-.44c0-.29.11-.42.41-.42H86c.3,0,.39.13.39.42Z"/><path class="cls-1" d="M15.71,19.81a.5.5,0,0,1-.17,0L9.4,18.44a.78.78,0,0,1-.6-.94A.77.77,0,0,1,9.15,17a.75.75,0,0,1,.6-.11l3.47.77-7-7A.76.76,0,0,1,6,10.16a.8.8,0,0,1,.24-.56.81.81,0,0,1,1.12,0l7,7-.78-3.45a.84.84,0,0,1,.11-.6.77.77,0,0,1,.5-.34.81.81,0,0,1,1,.59h0l1.36,6.09a.81.81,0,0,1-.22.73A.79.79,0,0,1,15.71,19.81ZM14.3,12.94Z"/><path class="cls-1" d="M13.46,29.13l-.17,0L7.16,27.76a.8.8,0,0,1-.39-.22.76.76,0,0,1-.22-.73.79.79,0,0,1,.35-.49.84.84,0,0,1,.6-.11L11,27,4,20a.77.77,0,0,1,0-1.12.81.81,0,0,1,1.12,0l7,7-.78-3.45a.82.82,0,0,1,.11-.59.79.79,0,0,1,.5-.35.8.8,0,0,1,.94.6h0l1.36,6.1a.8.8,0,0,1-.22.72A.76.76,0,0,1,13.46,29.13Zm-1.41-6.88h0Z"/><path class="cls-1" d="M52.06,0V18.5H38.5V0H0V38.5H38.5V20H52.06V38.5h38.5V0ZM18.5,37H1.5V1.5h17ZM37,37H20V1.5H37Zm52.06-1L54.52,1.5H89.06ZM53.56,2.66,87.9,37H53.56Z"/></g></g></svg>
