<?xml version="1.0" encoding="utf-8"?>
<!-- Generator: Adobe Illustrator 25.3.1, SVG Export Plug-In . SVG Version: 6.00 Build 0)  -->
<svg version="1.1" id="Layer_1" xmlns="http://www.w3.org/2000/svg" xmlns:xlink="http://www.w3.org/1999/xlink" x="0px" y="0px"
	 viewBox="0 0 1541 1051" style="enable-background:new 0 0 1541 1051;" xml:space="preserve">
<style type="text/css">
	.st0{clip-path:url(#SVGID_2_);}
	.st1{clip-path:url(#SVGID_4_);}
	.st2{opacity:0.5;clip-path:url(#SVGID_6_);}
	.st3{clip-path:url(#SVGID_8_);fill:#7C7C7C;}
	.st4{clip-path:url(#SVGID_4_);fill:#DDED48;}
	.st5{clip-path:url(#SVGID_4_);fill:#504A2F;}
	.st6{clip-path:url(#SVGID_4_);fill:#B7B76C;}
	.st7{clip-path:url(#SVGID_10_);}
	.st8{clip-path:url(#SVGID_12_);fill:#D3D3D3;}
	.st9{clip-path:url(#SVGID_4_);fill:#B0B6C1;}
	.st10{clip-path:url(#SVGID_4_);fill:#626B7F;}
	.st11{clip-path:url(#SVGID_4_);fill:#727A87;}
	.st12{clip-path:url(#SVGID_4_);fill:#9097A3;}
	.st13{clip-path:url(#SVGID_4_);fill:#878E99;}
	.st14{opacity:0.16;clip-path:url(#SVGID_14_);}
	.st15{clip-path:url(#SVGID_16_);fill:#B0B6C1;}
	.st16{clip-path:url(#SVGID_14_);}
	.st17{clip-path:url(#SVGID_18_);fill:#D3D3D3;}
	.st18{opacity:0.16;clip-path:url(#SVGID_20_);}
	.st19{clip-path:url(#SVGID_22_);fill:#B0B6C1;}
	.st20{clip-path:url(#SVGID_20_);}
	.st21{clip-path:url(#SVGID_24_);fill:#D3D3D3;}
	.st22{opacity:0.16;clip-path:url(#SVGID_26_);}
	.st23{clip-path:url(#SVGID_28_);fill:#B0B6C1;}
	.st24{clip-path:url(#SVGID_26_);}
	.st25{clip-path:url(#SVGID_30_);fill:#D3D3D3;}
	.st26{opacity:0.16;clip-path:url(#SVGID_32_);}
	.st27{clip-path:url(#SVGID_34_);fill:#B0B6C1;}
</style>
<g id="Artwork_10_1_">
	<g>
		<defs>
			<rect id="SVGID_1_" width="1541.46" height="1050.81"/>
		</defs>
		<clipPath id="SVGID_2_">
			<use xlink:href="#SVGID_1_"  style="overflow:visible;"/>
		</clipPath>
		<g class="st0">
			<defs>
				<rect id="SVGID_3_" width="1541.46" height="1050.81"/>
			</defs>
			<clipPath id="SVGID_4_">
				<use xlink:href="#SVGID_3_"  style="overflow:visible;"/>
			</clipPath>
			<g class="st1">
				<defs>
					<rect id="SVGID_5_" y="0" width="1541.46" height="1050.81"/>
				</defs>
				<clipPath id="SVGID_6_">
					<use xlink:href="#SVGID_5_"  style="overflow:visible;"/>
				</clipPath>
				<g class="st2">
					<g>
						<defs>
							<rect id="SVGID_7_" y="160.85" width="1541.46" height="889.96"/>
						</defs>
						<clipPath id="SVGID_8_">
							<use xlink:href="#SVGID_7_"  style="overflow:visible;"/>
						</clipPath>
						<polygon class="st3" points="308.3,694.83 308.3,694.82 924.89,1050.81 1541.46,694.83 1233.18,516.85 1233.17,516.84 
							924.87,338.84 924.86,338.85 616.57,160.85 0,516.83 						"/>
					</g>
				</g>
			</g>
			<polygon class="st4" points="392.98,501.75 392.98,501.74 917.5,804.58 1442.01,501.75 1179.76,350.34 1179.75,350.34 
				917.49,198.92 917.48,198.92 655.22,47.5 130.71,350.33 			"/>
			<polygon class="st5" points="1179.75,350.34 1179.76,350.34 1179.76,350.33 			"/>
			<polygon class="st5" points="655.24,797.37 655.24,797.36 655.24,797.36 			"/>
			<polygon class="st6" points="392.98,501.74 392.98,501.75 130.71,350.33 130.71,494.53 655.24,797.37 655.24,797.37 
				655.24,797.36 655.24,797.36 917.5,948.78 917.5,804.58 			"/>
			<polygon class="st5" points="917.5,804.58 917.5,948.78 1442.03,645.94 1442.03,501.74 			"/>
			<g class="st1">
				<defs>
					<rect id="SVGID_9_" y="0" width="1541.46" height="1050.81"/>
				</defs>
				<clipPath id="SVGID_10_">
					<use xlink:href="#SVGID_9_"  style="overflow:visible;"/>
				</clipPath>
				<g class="st7">
					<g>
						<defs>
							<rect id="SVGID_11_" x="470.9" y="82.75" width="480.68" height="289.07"/>
						</defs>
						<clipPath id="SVGID_12_">
							<use xlink:href="#SVGID_11_"  style="overflow:visible;"/>
						</clipPath>
						<polygon class="st8" points="660.07,82.75 470.9,191.97 782.41,371.81 951.58,330.7 						"/>
					</g>
				</g>
			</g>
			<path class="st9" d="M744.93,322.51l28.04-40.28l45.8,26.67l-28.04,40.28L744.93,322.51z M695.56,293.76l25.38-36.46l7.02-1.29
				l41.45,24.13l-28.04,40.28L695.56,293.76z M775.16,279.09l28.05-40.29l45.8,26.66l-28.05,40.29L775.16,279.09z M646.66,265.11
				l28.04-40.28l41.33,24.06l1.73,6.53l-25.31,36.35L646.66,265.11z M752.37,265.82l-22.2-12.92l-1.7-6.41l23.96-34.42l3.69-0.68
				l43.52,25.34l-28.05,40.29L752.37,265.82z M597.29,236.36l25.81-37.08l5.87-1.08l42.16,24.55l-28.04,40.28L597.29,236.36z
				 M806.48,234.09l28.04-40.28l45.8,26.66l-28.04,40.28L806.48,234.09z M676.89,221.68l28.05-40.28l43.4,25.27l0.93,3.51
				l-24.01,34.48l-6.77,1.25L676.89,221.68z M549.18,208.35l28.04-40.28l39.85,23.2l2.3,8.69l-24.4,35.05L549.18,208.35z
				 M761.78,208.06l-1.22-4.6l-0.59-2.22l22.61-32.47l2.18-0.4l4.61-0.85l19.3,11.24l22.29,12.98l-28.04,40.28L761.78,208.06z
				 M631.16,195.06l-1.41-5.33l24.77-35.58l2.76-0.51l23.63,13.76l20.46,11.91l-28.05,40.29L631.16,195.06z M836.71,190.67
				l28.05-40.29l45.8,26.67l-28.05,40.29L836.71,190.67z M499.81,179.61l28.04-40.28l45.8,26.67l-28.05,40.28L499.81,179.61z
				 M708.14,176.64l28.04-40.28l19.28,11.22l22.26,12.96l1.65,6.22l-22.74,32.67l-7.1,1.31L708.14,176.64z M579.41,164.93
				l28.05-40.29l41.78,24.33l1.56,5.87l-21.94,31.52l-9.59,1.77L579.41,164.93z M791.86,164.55l-1.75-6.61l25.28-36.31l45.8,26.67
				l-28.05,40.29L791.86,164.55z M662.63,150.15l-1.5-5.65l22.67-32.57l7.91-1.46l40.9,23.81l-28.04,40.28L662.63,150.15z
				 M530.04,136.18l28.04-40.29l45.8,26.67l-28.05,40.29L530.04,136.18z M738.36,133.22l28.05-40.29l45.8,26.66l-25.44,36.54
				l-6.87,1.27L738.36,133.22z M610.66,119.89l28.04-40.28l40.52,23.59l2.04,7.71l-21.12,30.35l-9.71,1.79L610.66,119.89z
				 M712.56,118.2l-19.25-11.21l-1.67-6.31l25.4-36.49l24.55,14.29l21.26,12.38l-28.05,40.29L712.56,118.2z M561.29,91.14
				l28.04-40.28l45.8,26.67l-28.04,40.28L561.29,91.14z M640.89,76.47l28.05-40.29l45.8,26.67l-25.18,36.17l-7.55,1.39L640.89,76.47
				z M591.52,47.72l28.05-40.29l45.8,26.67l-28.05,40.29L591.52,47.72z M618.63,0L491.89,182.07l299.78,174.54l126.75-182.07
				L618.63,0z"/>
			<polygon class="st10" points="638.71,79.61 610.66,119.89 650.44,143.05 660.15,141.26 681.27,110.91 679.23,103.2 			"/>
			<polygon class="st10" points="579.41,164.93 619.26,188.13 628.85,186.36 650.8,154.84 649.24,148.97 607.46,124.64 			"/>
			<polygon class="st10" points="635.14,77.53 589.34,50.86 561.29,91.14 607.09,117.81 			"/>
			<polygon class="st10" points="830.96,191.73 808.67,178.75 789.37,167.52 782.58,168.77 759.97,201.24 761.78,208.06 
				802.91,232.01 			"/>
			<polygon class="st10" points="603.89,122.56 558.09,95.9 530.04,136.18 575.85,162.85 			"/>
			<polygon class="st10" points="665.37,34.1 619.57,7.43 591.52,47.72 637.32,74.39 			"/>
			<polygon class="st10" points="756.63,199.43 779.37,166.77 777.72,160.55 755.46,147.58 736.18,136.36 708.14,176.64 
				749.53,200.74 			"/>
			<polygon class="st10" points="752.37,265.82 771.59,277.01 799.64,236.72 756.12,211.38 752.44,212.06 728.47,246.48 
				730.17,252.89 			"/>
			<polygon class="st10" points="806.48,234.09 852.28,260.75 880.32,220.47 834.53,193.81 			"/>
			<polygon class="st10" points="791.86,164.55 833.14,188.59 861.19,148.3 815.39,121.63 790.11,157.95 			"/>
			<polygon class="st10" points="864.76,150.38 836.71,190.67 882.51,217.33 910.56,177.05 			"/>
			<polygon class="st10" points="673.32,219.6 701.36,179.32 680.9,167.4 657.27,153.65 654.51,154.15 629.75,189.73 631.16,195.06 
							"/>
			<polygon class="st10" points="682,100.4 689.56,99.01 714.73,62.85 668.94,36.18 640.89,76.47 			"/>
			<polygon class="st10" points="725.25,244.66 749.26,210.17 748.33,206.66 704.93,181.4 676.89,221.68 718.49,245.9 			"/>
			<polygon class="st10" points="693.31,106.99 712.56,118.2 734.79,131.14 762.84,90.85 741.59,78.48 717.04,64.19 691.64,100.68 
							"/>
			<polygon class="st10" points="779.9,157.41 786.77,156.14 812.21,119.6 766.41,92.93 738.36,133.22 			"/>
			<polygon class="st10" points="683.8,111.93 661.13,144.5 662.63,150.15 704.57,174.56 732.61,134.28 691.71,110.47 			"/>
			<polygon class="st10" points="628.97,198.19 623.1,199.28 597.29,236.36 643.09,263.03 671.13,222.74 			"/>
			<polygon class="st10" points="527.86,139.32 499.81,179.61 545.61,206.27 573.66,165.99 			"/>
			<polygon class="st10" points="727.96,256.01 720.94,257.31 695.56,293.76 741.36,320.43 769.4,280.15 			"/>
			<polygon class="st10" points="744.93,322.51 790.73,349.17 818.77,308.89 772.97,282.22 			"/>
			<polygon class="st10" points="617.08,191.27 577.23,168.07 549.18,208.35 594.98,235.02 619.38,199.96 			"/>
			<polygon class="st10" points="716.03,248.88 674.7,224.82 646.66,265.1 692.45,291.77 717.76,255.41 			"/>
			<polygon class="st10" points="775.16,279.09 820.96,305.75 849,265.46 803.21,238.8 			"/>
			<polygon class="st11" points="797.67,348.02 791.66,356.61 906.2,290.52 906.2,283.06 			"/>
			<polygon class="st11" points="899.34,201.94 899.72,286.8 906.2,290.5 905.76,192.72 			"/>
			<polygon class="st12" points="899.72,201.4 892.14,212.29 892.14,284.6 899.72,286.8 			"/>
			<polygon class="st13" points="892.14,284.6 806.93,334.71 797.67,348.02 899.72,286.8 			"/>
			<polygon class="st11" points="918.41,174.54 918.41,184.64 807.59,342.07 797.67,348.02 			"/>
			<g class="st1">
				<defs>
					<rect id="SVGID_13_" y="0" width="1541.46" height="1050.81"/>
				</defs>
				<clipPath id="SVGID_14_">
					<use xlink:href="#SVGID_13_"  style="overflow:visible;"/>
				</clipPath>
				<g class="st14">
					<g>
						<defs>
							<rect id="SVGID_15_" x="618.63" width="299.78" height="356.61"/>
						</defs>
						<clipPath id="SVGID_16_">
							<use xlink:href="#SVGID_15_"  style="overflow:visible;"/>
						</clipPath>
						<polygon class="st15" points="791.66,356.61 618.63,0 918.41,174.54 						"/>
					</g>
				</g>
				<g class="st16">
					<g>
						<defs>
							<rect id="SVGID_17_" x="210.45" y="237.64" width="476.3" height="289.07"/>
						</defs>
						<clipPath id="SVGID_18_">
							<use xlink:href="#SVGID_17_"  style="overflow:visible;"/>
						</clipPath>
						<polygon class="st17" points="399.62,237.64 210.45,346.86 521.95,526.7 686.74,477.2 						"/>
					</g>
				</g>
			</g>
			<path class="st9" d="M358.18,154.89L231.43,336.96L531.21,511.5l126.75-182.07L358.18,154.89z M600.74,303.19l-28.05,40.29
				l-41.28-24.04l-1.75-6.61l25.28-36.31L600.74,303.19z M412.87,374.49l-42.16-24.54l-1.41-5.33l24.77-35.58l2.76-0.51l23.63,13.76
				l20.46,11.91L412.87,374.49z M358.81,343.02l-39.85-23.2l28.05-40.29l41.78,24.33l1.56,5.87l-21.94,31.52L358.81,343.02z
				 M495.01,302.48l22.26,12.96l1.65,6.22l-22.74,32.67l-7.1,1.31l-41.39-24.1l28.04-40.28L495.01,302.48z M444.11,329.45
				l-41.93-24.42l-1.5-5.65l22.67-32.57l7.91-1.46l40.9,23.81L444.11,329.45z M399.69,296.15l-9.71,1.79l-39.78-23.16l28.04-40.28
				l40.52,23.59l2.04,7.71L399.69,296.15z M346.64,272.7l-45.8-26.67l28.04-40.28l45.8,26.67L346.64,272.7z M444.48,336.29
				l43.4,25.27l0.93,3.51l-24.01,34.48l-6.77,1.25l-41.6-24.22L444.48,336.29z M469.72,407.78l-1.7-6.41l23.96-34.42l3.68-0.68
				l43.52,25.34l-28.05,40.29l-19.22-11.19L469.72,407.78z M542.46,386.9l-41.14-23.95l-1.22-4.6l-0.59-2.22l22.61-32.47l2.18-0.4
				l4.61-0.85l19.3,11.24l22.29,12.98L542.46,386.9z M526.32,311.03l-6.87,1.27l-41.54-24.19l28.05-40.29l45.8,26.66L526.32,311.03z
				 M481.13,233.37l21.26,12.38l-28.05,40.29l-22.23-12.95l-19.25-11.21l-1.67-6.31l25.4-36.49L481.13,233.37z M454.28,217.74
				L429.1,253.9l-7.55,1.39l-41.11-23.94l28.05-40.29L454.28,217.74z M359.12,162.32l45.8,26.67l-28.05,40.29l-45.8-26.67
				L359.12,162.32z M297.63,250.79l45.8,26.67l-28.05,40.29l-45.8-26.67L297.63,250.79z M239.36,334.5l28.04-40.28l45.8,26.67
				l-28.04,40.28L239.36,334.5z M288.73,363.24l28.04-40.28l39.85,23.2l2.3,8.69l-24.4,35.05L288.73,363.24z M336.84,391.25
				l25.81-37.08l5.87-1.08l42.16,24.55l-28.04,40.28L336.84,391.25z M386.21,419.99l28.04-40.28l41.33,24.06l1.73,6.53L432,446.66
				L386.21,419.99z M435.11,448.65l25.38-36.46l7.02-1.29l41.45,24.13l-28.04,40.28L435.11,448.65z M530.28,504.06l-45.8-26.66
				l28.04-40.28l45.8,26.67L530.28,504.06z M560.51,460.64l-45.8-26.66l28.05-40.29l45.8,26.66L560.51,460.64z M591.83,415.65
				l-45.8-26.66l28.04-40.28l45.8,26.67L591.83,415.65z M576.26,345.56l28.05-40.29l45.8,26.67l-28.05,40.29L576.26,345.56z"/>
			<polygon class="st10" points="378.25,234.5 350.21,274.78 389.99,297.94 399.69,296.15 420.82,265.8 418.78,258.09 			"/>
			<polygon class="st10" points="318.96,319.82 358.81,343.02 368.4,341.25 390.34,309.73 388.79,303.86 347.01,279.53 			"/>
			<polygon class="st10" points="374.68,232.42 328.88,205.75 300.84,246.03 346.64,272.7 			"/>
			<polygon class="st10" points="570.51,346.62 548.22,333.64 528.92,322.41 522.12,323.66 499.52,356.13 501.33,362.95 
				542.46,386.9 			"/>
			<polygon class="st10" points="343.44,277.45 297.63,250.79 269.59,291.07 315.39,317.74 			"/>
			<polygon class="st10" points="404.92,188.99 359.11,162.32 331.07,202.61 376.87,229.28 			"/>
			<polygon class="st10" points="496.18,354.32 518.92,321.66 517.27,315.44 495.01,302.48 475.73,291.25 447.68,331.53 
				489.08,355.63 			"/>
			<polygon class="st10" points="491.92,420.71 511.14,431.9 539.18,391.61 495.67,366.27 491.98,366.95 468.02,401.38 
				469.72,407.78 			"/>
			<polygon class="st10" points="546.03,388.98 591.83,415.64 619.87,375.36 574.08,348.7 			"/>
			<polygon class="st10" points="531.41,319.44 572.69,343.48 600.74,303.19 554.94,276.53 529.66,312.84 			"/>
			<polygon class="st10" points="604.31,305.27 576.26,345.56 622.06,372.22 650.1,331.94 			"/>
			<polygon class="st10" points="412.86,374.49 440.91,334.21 420.45,322.29 396.82,308.54 394.06,309.04 369.3,344.62 
				370.71,349.95 			"/>
			<polygon class="st10" points="421.55,255.3 429.1,253.9 454.28,217.74 408.48,191.07 380.44,231.36 			"/>
			<polygon class="st10" points="464.8,399.55 488.81,365.06 487.88,361.55 444.48,336.29 416.43,376.57 458.03,400.79 			"/>
			<polygon class="st10" points="432.86,261.88 452.11,273.09 474.34,286.03 502.39,245.74 481.13,233.37 456.59,219.08 
				431.18,255.57 			"/>
			<polygon class="st10" points="519.45,312.3 526.32,311.03 551.76,274.49 505.96,247.82 477.91,288.11 			"/>
			<polygon class="st10" points="423.35,266.82 400.68,299.39 402.18,305.04 444.11,329.45 472.16,289.17 431.26,265.36 			"/>
			<polygon class="st10" points="368.52,353.09 362.65,354.17 336.83,391.25 382.63,417.92 410.68,377.63 			"/>
			<polygon class="st10" points="267.41,294.21 239.36,334.5 285.16,361.16 313.21,320.88 			"/>
			<polygon class="st10" points="467.5,410.9 460.49,412.2 435.11,448.65 480.91,475.32 508.95,435.04 			"/>
			<polygon class="st10" points="484.48,477.4 530.28,504.06 558.32,463.78 512.52,437.12 			"/>
			<polygon class="st10" points="356.63,346.16 316.78,322.96 288.73,363.24 334.53,389.91 358.93,354.85 			"/>
			<polygon class="st10" points="455.58,403.77 414.25,379.71 386.21,420 432,446.66 457.31,410.31 			"/>
			<polygon class="st10" points="514.71,433.98 560.51,460.64 588.55,420.35 542.75,393.69 			"/>
			<polygon class="st11" points="537.21,502.91 531.21,511.5 645.75,445.41 645.75,437.95 			"/>
			<polygon class="st11" points="638.89,356.83 639.27,441.69 645.75,445.39 645.31,347.61 			"/>
			<polygon class="st12" points="639.27,356.29 631.68,367.18 631.68,439.49 639.27,441.69 			"/>
			<polygon class="st13" points="631.68,439.49 546.48,489.6 537.21,502.91 639.27,441.69 			"/>
			<polygon class="st11" points="657.96,329.43 657.96,339.53 547.14,496.96 537.21,502.91 			"/>
			<g class="st1">
				<defs>
					<rect id="SVGID_19_" y="0" width="1541.46" height="1050.81"/>
				</defs>
				<clipPath id="SVGID_20_">
					<use xlink:href="#SVGID_19_"  style="overflow:visible;"/>
				</clipPath>
				<g class="st18">
					<g>
						<defs>
							<rect id="SVGID_21_" x="358.18" y="154.89" width="299.78" height="356.61"/>
						</defs>
						<clipPath id="SVGID_22_">
							<use xlink:href="#SVGID_21_"  style="overflow:visible;"/>
						</clipPath>
						<polygon class="st19" points="531.21,511.5 358.18,154.89 657.96,329.43 						"/>
					</g>
				</g>
				<g class="st20">
					<g>
						<defs>
							<rect id="SVGID_23_" x="861.19" y="322.31" width="475.24" height="289.07"/>
						</defs>
						<clipPath id="SVGID_24_">
							<use xlink:href="#SVGID_23_"  style="overflow:visible;"/>
						</clipPath>
						<polygon class="st21" points="1050.36,322.31 861.19,431.52 1172.7,611.37 1336.43,563 						"/>
					</g>
				</g>
			</g>
			<path class="st9" d="M1008.92,239.56L882.18,421.62l299.78,174.54L1308.7,414.1L1008.92,239.56z M1251.48,387.86l-28.05,40.29
				l-41.28-24.04l-1.75-6.61l25.28-36.31L1251.48,387.86z M1063.61,459.16l-42.16-24.55l-1.41-5.33l24.77-35.58l2.76-0.51
				l23.63,13.76l20.46,11.91L1063.61,459.16z M1009.55,427.69l-39.85-23.2l28.04-40.29l41.78,24.33l1.56,5.87l-21.94,31.52
				L1009.55,427.69z M1145.75,387.14l22.26,12.96l1.65,6.22l-22.74,32.67l-7.1,1.31l-41.39-24.1l28.04-40.28L1145.75,387.14z
				 M1094.86,414.12l-41.93-24.42l-1.5-5.65l22.67-32.57l7.91-1.46l40.9,23.81L1094.86,414.12z M1050.44,380.82l-9.71,1.79
				l-39.78-23.16l28.04-40.28l40.52,23.59l2.04,7.71L1050.44,380.82z M997.38,357.37l-45.8-26.67l28.04-40.28l45.8,26.67
				L997.38,357.37z M1095.22,420.95l43.4,25.27l0.93,3.51l-24.01,34.48l-6.77,1.25l-41.6-24.22L1095.22,420.95z M1120.46,492.45
				l-1.7-6.41l23.96-34.42l3.69-0.68l43.52,25.34l-28.05,40.29l-19.22-11.19L1120.46,492.45z M1193.2,471.57l-41.14-23.95l-1.22-4.6
				l-0.59-2.22l22.61-32.47l2.18-0.4l4.61-0.85l19.3,11.24l22.29,12.98L1193.2,471.57z M1177.06,395.7l-6.87,1.27l-41.54-24.19
				l28.05-40.29l45.8,26.66L1177.06,395.7z M1131.88,318.03l21.26,12.38l-28.05,40.29l-22.23-12.95l-19.25-11.21l-1.67-6.31
				l25.4-36.49L1131.88,318.03z M1105.02,302.4l-25.18,36.17l-7.55,1.39l-41.11-23.94l28.05-40.29L1105.02,302.4z M1009.86,246.99
				l45.8,26.67l-28.05,40.29l-45.8-26.67L1009.86,246.99z M948.38,335.45l45.8,26.67l-28.05,40.29l-45.8-26.67L948.38,335.45z
				 M890.1,419.16l28.04-40.28l45.8,26.67l-28.04,40.28L890.1,419.16z M939.47,447.91l28.04-40.28l39.85,23.2l2.3,8.69l-24.4,35.05
				L939.47,447.91z M987.58,475.92l25.81-37.08l5.87-1.08l42.16,24.55l-28.04,40.28L987.58,475.92z M1036.95,504.66l28.04-40.28
				l41.33,24.06l1.73,6.53l-25.31,36.35L1036.95,504.66z M1085.85,533.32l25.38-36.46l7.02-1.29l41.45,24.13l-28.04,40.28
				L1085.85,533.32z M1181.02,588.73l-45.8-26.66l28.04-40.28l45.8,26.67L1181.02,588.73z M1211.25,545.31l-45.8-26.66l28.05-40.29
				l45.8,26.66L1211.25,545.31z M1242.57,500.31l-45.8-26.66l28.04-40.28l45.8,26.66L1242.57,500.31z M1227,430.23l28.05-40.29
				l45.8,26.67l-28.05,40.29L1227,430.23z"/>
			<polygon class="st10" points="1029,319.16 1000.95,359.45 1040.73,382.61 1050.44,380.82 1071.56,350.47 1069.52,342.76 			"/>
			<polygon class="st10" points="969.7,404.49 1009.55,427.69 1019.14,425.92 1041.09,394.4 1039.53,388.53 997.75,364.2 			"/>
			<polygon class="st10" points="1025.43,317.09 979.63,290.42 951.58,330.7 997.38,357.37 			"/>
			<polygon class="st10" points="1221.25,431.29 1198.96,418.31 1179.66,407.07 1172.87,408.33 1150.26,440.8 1152.07,447.62 
				1193.21,471.57 			"/>
			<polygon class="st10" points="994.18,362.12 948.38,335.45 920.33,375.74 966.14,402.41 			"/>
			<polygon class="st10" points="1055.66,273.66 1009.86,246.99 981.81,287.28 1027.61,313.95 			"/>
			<polygon class="st10" points="1146.92,438.99 1169.66,406.32 1168.01,400.1 1145.75,387.14 1126.47,375.92 1098.43,416.2 
				1139.82,440.3 			"/>
			<polygon class="st10" points="1142.66,505.37 1161.88,516.56 1189.93,476.28 1146.41,450.94 1142.73,451.62 1118.76,486.04 
				1120.46,492.45 			"/>
			<polygon class="st10" points="1196.78,473.65 1242.57,500.31 1270.62,460.03 1224.82,433.36 			"/>
			<polygon class="st10" points="1182.15,404.11 1223.43,428.15 1251.48,387.86 1205.68,361.19 1180.4,397.5 			"/>
			<polygon class="st10" points="1255.05,389.94 1227,430.23 1272.8,456.89 1300.85,416.6 			"/>
			<polygon class="st10" points="1063.61,459.16 1091.65,418.87 1071.19,406.96 1047.56,393.2 1044.8,393.71 1020.04,429.29 
				1021.45,434.62 			"/>
			<polygon class="st10" points="1072.29,339.96 1079.85,338.57 1105.03,302.4 1059.23,275.74 1031.18,316.03 			"/>
			<polygon class="st10" points="1115.55,484.21 1139.55,449.73 1138.62,446.22 1095.22,420.95 1067.18,461.24 1108.78,485.46 			
				"/>
			<polygon class="st10" points="1083.6,346.54 1102.85,357.75 1125.08,370.7 1153.13,330.41 1131.88,318.04 1107.33,303.75 
				1081.93,340.24 			"/>
			<polygon class="st10" points="1170.19,396.96 1177.06,395.7 1202.5,359.15 1156.7,332.49 1128.66,372.78 			"/>
			<polygon class="st10" points="1074.1,351.49 1051.42,384.06 1052.92,389.7 1094.86,414.12 1122.9,373.84 1082,350.03 			"/>
			<polygon class="st10" points="1019.26,437.75 1013.39,438.84 987.58,475.92 1033.38,502.58 1061.42,462.3 			"/>
			<polygon class="st10" points="918.15,378.88 890.1,419.16 935.91,445.83 963.95,405.55 			"/>
			<polygon class="st10" points="1118.25,495.57 1111.23,496.86 1085.85,533.32 1131.65,559.99 1159.7,519.7 			"/>
			<polygon class="st10" points="1135.22,562.07 1181.02,588.73 1209.06,548.45 1163.27,521.78 			"/>
			<polygon class="st10" points="1007.37,430.83 967.52,407.62 939.47,447.91 985.27,474.57 1009.67,439.52 			"/>
			<polygon class="st10" points="1106.32,488.44 1064.99,464.38 1036.95,504.66 1082.75,531.33 1108.05,494.97 			"/>
			<polygon class="st10" points="1165.45,518.64 1211.25,545.31 1239.29,505.02 1193.5,478.36 			"/>
			<polygon class="st11" points="1187.96,587.58 1181.95,596.17 1296.49,530.08 1296.49,522.62 			"/>
			<polygon class="st11" points="1289.63,441.5 1290.01,526.36 1296.49,530.06 1296.05,432.27 			"/>
			<polygon class="st12" points="1290.01,440.96 1282.43,451.85 1282.43,524.15 1290.01,526.36 			"/>
			<polygon class="st13" points="1282.43,524.15 1197.22,574.27 1187.96,587.58 1290.01,526.36 			"/>
			<polygon class="st11" points="1308.7,414.1 1308.7,424.19 1197.88,581.62 1187.96,587.58 			"/>
			<g class="st1">
				<defs>
					<rect id="SVGID_25_" y="0" width="1541.46" height="1050.81"/>
				</defs>
				<clipPath id="SVGID_26_">
					<use xlink:href="#SVGID_25_"  style="overflow:visible;"/>
				</clipPath>
				<g class="st22">
					<g>
						<defs>
							<rect id="SVGID_27_" x="1008.92" y="239.56" width="299.78" height="356.61"/>
						</defs>
						<clipPath id="SVGID_28_">
							<use xlink:href="#SVGID_27_"  style="overflow:visible;"/>
						</clipPath>
						<polygon class="st23" points="1181.96,596.17 1008.93,239.56 1308.7,414.1 						"/>
					</g>
				</g>
				<g class="st24">
					<g>
						<defs>
							<rect id="SVGID_29_" x="600.74" y="477.2" width="473.16" height="289.07"/>
						</defs>
						<clipPath id="SVGID_30_">
							<use xlink:href="#SVGID_29_"  style="overflow:visible;"/>
						</clipPath>
						<polygon class="st25" points="789.91,477.2 600.74,586.41 912.24,766.26 1073.9,714.28 						"/>
					</g>
				</g>
			</g>
			<path class="st9" d="M748.47,394.45L621.72,576.51L921.5,751.06l126.75-182.07L748.47,394.45z M991.03,542.75l-28.05,40.29
				L921.7,559l-1.75-6.61l25.28-36.31L991.03,542.75z M803.16,614.05L761,589.51l-1.41-5.33l24.77-35.57l2.76-0.51l23.63,13.76
				l20.46,11.91L803.16,614.05z M749.1,582.58l-39.85-23.2l28.04-40.29l41.78,24.33l1.56,5.87l-21.94,31.52L749.1,582.58z
				 M885.3,542.03L907.56,555l1.65,6.22l-22.74,32.67l-7.1,1.31l-41.39-24.1l28.04-40.28L885.3,542.03z M834.4,569.01l-41.93-24.42
				l-1.5-5.65l22.67-32.57l7.91-1.46l40.9,23.81L834.4,569.01z M789.98,535.71l-9.71,1.79l-39.78-23.16l28.04-40.28l40.52,23.59
				l2.04,7.71L789.98,535.71z M736.93,512.26l-45.8-26.67l28.04-40.28l45.8,26.67L736.93,512.26z M834.77,575.84l43.4,25.27
				l0.93,3.51l-24.01,34.48l-6.77,1.25l-41.6-24.22L834.77,575.84z M860.01,647.34l-1.7-6.41l23.96-34.42l3.68-0.68l43.52,25.34
				l-28.05,40.29l-19.22-11.19L860.01,647.34z M932.75,626.46l-41.14-23.95l-1.22-4.6l-0.59-2.22l22.61-32.47l2.18-0.4l4.61-0.85
				l19.3,11.24l22.29,12.97L932.75,626.46z M916.61,550.59l-6.87,1.27l-41.54-24.19l28.05-40.29l45.8,26.67L916.61,550.59z
				 M871.42,472.93l21.26,12.38l-28.05,40.29l-22.23-12.95l-19.25-11.21l-1.67-6.31l25.4-36.49L871.42,472.93z M844.57,457.29
				l-25.18,36.17l-7.55,1.39l-41.11-23.94l28.05-40.29L844.57,457.29z M749.41,401.88l45.8,26.67l-28.05,40.29l-45.8-26.67
				L749.41,401.88z M687.93,490.34l45.8,26.67l-28.05,40.29l-45.8-26.67L687.93,490.34z M629.65,574.05l28.04-40.28l45.8,26.67
				l-28.04,40.28L629.65,574.05z M679.02,602.8l28.04-40.28l39.85,23.2l2.3,8.69l-24.4,35.05L679.02,602.8z M727.13,630.81
				l25.81-37.08l5.87-1.08l42.16,24.55l-28.04,40.28L727.13,630.81z M776.5,659.55l28.04-40.28l41.33,24.06l1.73,6.53l-25.31,36.35
				L776.5,659.55z M825.4,688.21l25.38-36.46l7.02-1.29l41.45,24.13l-28.04,40.28L825.4,688.21z M920.57,743.62l-45.8-26.67
				l28.04-40.28l45.8,26.66L920.57,743.62z M950.8,700.2L905,673.53l28.04-40.29l45.8,26.66L950.8,700.2z M982.12,655.2l-45.8-26.66
				l28.04-40.28l45.8,26.67L982.12,655.2z M966.55,585.12l28.05-40.29l45.8,26.67l-28.05,40.29L966.55,585.12z"/>
			<polygon class="st10" points="768.54,474.05 740.5,514.34 780.28,537.5 789.98,535.71 811.11,505.36 809.07,497.65 			"/>
			<polygon class="st10" points="709.25,559.38 749.1,582.58 758.69,580.81 780.64,549.29 779.08,543.42 737.3,519.09 			"/>
			<polygon class="st10" points="764.98,471.98 719.17,445.31 691.13,485.59 736.93,512.26 			"/>
			<polygon class="st10" points="960.8,586.18 938.51,573.2 919.21,561.96 912.42,563.22 889.81,595.69 891.62,602.51 
				932.75,626.46 			"/>
			<polygon class="st10" points="733.73,517.01 687.93,490.34 659.88,530.63 705.68,557.3 			"/>
			<polygon class="st10" points="795.21,428.55 749.41,401.88 721.36,442.17 767.16,468.84 			"/>
			<polygon class="st10" points="886.47,593.88 909.21,561.22 907.56,555 885.3,542.03 866.02,530.81 837.97,571.09 879.37,595.19 
							"/>
			<polygon class="st10" points="882.21,660.26 901.43,671.46 929.48,631.17 885.96,605.83 882.27,606.51 858.31,640.93 
				860.01,647.34 			"/>
			<polygon class="st10" points="936.32,628.54 982.12,655.2 1010.16,614.92 964.37,588.26 			"/>
			<polygon class="st10" points="921.7,559 962.98,583.04 991.03,542.75 945.23,516.08 919.95,552.4 			"/>
			<polygon class="st10" points="994.6,544.83 966.55,585.12 1012.35,611.78 1040.4,571.5 			"/>
			<polygon class="st10" points="803.16,614.05 831.2,573.76 810.74,561.85 787.11,548.09 784.35,548.6 759.59,584.18 761,589.51 
							"/>
			<polygon class="st10" points="811.84,494.85 819.39,493.46 844.57,457.29 798.78,430.63 770.73,470.92 			"/>
			<polygon class="st10" points="855.09,639.1 879.1,604.62 878.17,601.11 834.77,575.84 806.73,616.13 848.33,640.35 			"/>
			<polygon class="st10" points="823.15,501.43 842.4,512.64 864.63,525.59 892.68,485.3 871.42,472.93 846.88,458.64 
				821.47,495.13 			"/>
			<polygon class="st10" points="909.74,551.85 916.61,550.59 942.05,514.05 896.25,487.38 868.2,527.67 			"/>
			<polygon class="st10" points="813.64,506.38 790.97,538.95 792.47,544.6 834.4,569.01 862.45,528.73 821.55,504.92 			"/>
			<polygon class="st10" points="758.81,592.64 752.94,593.73 727.13,630.81 772.93,657.47 800.97,617.19 			"/>
			<polygon class="st10" points="657.7,533.77 629.65,574.05 675.45,600.72 703.5,560.44 			"/>
			<polygon class="st10" points="857.79,650.46 850.78,651.76 825.4,688.21 871.2,714.88 899.24,674.59 			"/>
			<polygon class="st10" points="874.77,716.96 920.57,743.62 948.61,703.34 902.81,676.67 			"/>
			<polygon class="st10" points="746.92,585.72 707.07,562.52 679.02,602.8 724.82,629.46 749.22,594.41 			"/>
			<polygon class="st10" points="845.87,643.33 804.54,619.27 776.5,659.55 822.29,686.22 847.6,649.86 			"/>
			<polygon class="st10" points="905,673.53 950.8,700.2 978.84,659.91 933.04,633.25 			"/>
			<polygon class="st11" points="927.51,742.47 921.5,751.06 1036.04,684.97 1036.04,677.51 			"/>
			<polygon class="st11" points="1029.18,596.39 1029.56,681.25 1036.04,684.95 1035.6,587.16 			"/>
			<polygon class="st12" points="1029.56,595.85 1021.98,606.74 1021.98,679.04 1029.56,681.25 			"/>
			<polygon class="st13" points="1021.97,679.04 936.77,729.16 927.51,742.47 1029.56,681.25 			"/>
			<polygon class="st11" points="1048.25,568.99 1048.25,579.08 937.43,736.51 927.51,742.47 			"/>
			<g class="st1">
				<defs>
					<rect id="SVGID_31_" y="0" width="1541.46" height="1050.81"/>
				</defs>
				<clipPath id="SVGID_32_">
					<use xlink:href="#SVGID_31_"  style="overflow:visible;"/>
				</clipPath>
				<g class="st26">
					<g>
						<defs>
							<rect id="SVGID_33_" x="748.47" y="394.45" width="299.78" height="356.61"/>
						</defs>
						<clipPath id="SVGID_34_">
							<use xlink:href="#SVGID_33_"  style="overflow:visible;"/>
						</clipPath>
						<polygon class="st27" points="921.5,751.06 748.47,394.45 1048.25,568.99 						"/>
					</g>
				</g>
			</g>
		</g>
	</g>
</g>
</svg>
