<?xml version="1.0" encoding="UTF-8"?>
<svg id="Layer_1" xmlns="http://www.w3.org/2000/svg" version="1.1" viewBox="0 0 648 744">
  <!-- Generator: Adobe Illustrator 29.1.0, SVG Export Plug-In . SVG Version: 2.1.0 Build 142)  -->
  <defs>
    <style>
      .st0 {
        fill: #345d81;
        fill-rule: evenodd;
      }
    </style>
  </defs>
  <path class="st0" d="M203.88,505.14H34.79v204.53h169.09v-204.53h0ZM409.04,505.14h-169.09v204.53h169.09v-204.53h0ZM614.21,505.14h-169.09v204.53h169.09v-204.53h0ZM203.88,268.23H34.79v204.54h169.09v-204.54h0ZM409.04,268.23h-169.09v204.54h169.09v-204.54h0ZM614.21,268.23h-169.09v204.54h169.09v-204.54h0ZM203.88,31.33H34.79v204.53h169.09V31.33h0ZM409.04,31.33h-169.09v204.53h169.09V31.33h0ZM614.21,31.33h-169.09v204.53h169.09V31.33h0Z"/>
</svg>