<?xml version="1.0" encoding="utf-8"?>
<!-- Generator: Adobe Illustrator 25.2.0, SVG Export Plug-In . SVG Version: 6.00 Build 0)  -->
<svg version="1.1" id="Ñëîé_1" xmlns="http://www.w3.org/2000/svg" xmlns:xlink="http://www.w3.org/1999/xlink" x="0px" y="0px"
	 viewBox="0 0 920 866.1" style="enable-background:new 0 0 920 866.1;" xml:space="preserve">
<style type="text/css">
	.st0{fill:#E1B42C;stroke:#000000;stroke-width:0.25;stroke-miterlimit:10;}
	.st1{fill:#4A4A4A;stroke:#000000;stroke-width:0.25;stroke-miterlimit:10;}
	.st2{fill:#9F9F9F;stroke:#000000;stroke-width:0.25;stroke-miterlimit:10;}
	.st3{fill:#422100;stroke:#000000;stroke-width:0.25;stroke-miterlimit:10;}
	.st4{fill:#8E4700;stroke:#000000;stroke-width:0.25;stroke-miterlimit:10;}
	.st5{fill:#5C2E00;stroke:#000000;stroke-width:0.25;stroke-miterlimit:10;}
	.st6{fill:#767600;stroke:#000000;stroke-width:0.25;stroke-miterlimit:10;}
	.st7{fill:#656500;stroke:#000000;stroke-width:0.25;stroke-miterlimit:10;}
	.st8{fill:#525200;stroke:#000000;stroke-width:0.25;stroke-miterlimit:10;}
	.st9{fill:#424200;stroke:#000000;stroke-width:0.25;stroke-miterlimit:10;}
	.st10{fill:#838300;stroke:#000000;stroke-width:0.25;stroke-miterlimit:10;}
	.st11{fill:#8E8E00;stroke:#000000;stroke-width:0.25;stroke-miterlimit:10;}
	.st12{fill:#909000;stroke:#000000;stroke-width:0.25;stroke-miterlimit:10;}
	.st13{fill:#8C8C00;stroke:#000000;stroke-width:0.25;stroke-miterlimit:10;}
	.st14{fill:#FFFFFF;stroke:#000000;stroke-width:0.25;stroke-miterlimit:10;}
	.st15{fill:#929292;stroke:#000000;stroke-width:0.25;stroke-miterlimit:10;}
	.st16{fill:#646464;stroke:#000000;stroke-width:0.25;stroke-miterlimit:10;}
	.st17{fill:#004242;stroke:#000000;stroke-width:0.25;stroke-miterlimit:10;}
	.st18{fill:#008E8E;stroke:#000000;stroke-width:0.25;stroke-miterlimit:10;}
	.st19{fill:#005A5A;stroke:#000000;stroke-width:0.25;stroke-miterlimit:10;}
	.st20{fill:#C7C7C7;stroke:#000000;stroke-width:0.25;stroke-miterlimit:10;}
	.st21{fill:#E10000;stroke:#000000;stroke-width:0.25;stroke-miterlimit:10;}
	.st22{fill:#A50000;stroke:#000000;stroke-width:0.25;stroke-miterlimit:10;}
	.st23{fill:#FF0000;stroke:#000000;stroke-width:0.25;stroke-miterlimit:10;}
	.st24{fill:#B10000;stroke:#000000;stroke-width:0.25;stroke-miterlimit:10;}
	.st25{fill:#585858;stroke:#000000;stroke-width:0.25;stroke-miterlimit:10;}
	.st26{fill:#6E6E6E;stroke:#000000;stroke-width:0.25;stroke-miterlimit:10;}
	.st27{fill:#818181;stroke:#000000;stroke-width:0.25;stroke-miterlimit:10;}
	.st28{fill:#919191;stroke:#000000;stroke-width:0.25;stroke-miterlimit:10;}
	.st29{fill:#9B9B9B;stroke:#000000;stroke-width:0.25;stroke-miterlimit:10;}
	.st30{fill:#A0A0A0;stroke:#000000;stroke-width:0.25;stroke-miterlimit:10;}
	.st31{fill:#5A5A00;stroke:#000000;stroke-width:0.25;stroke-miterlimit:10;}
	.st32{fill:#6B6B00;stroke:#000000;stroke-width:0.25;stroke-miterlimit:10;}
	.st33{fill:#BEBEBE;stroke:#000000;stroke-width:0.25;stroke-miterlimit:10;}
	.st34{fill:#E8E8E8;stroke:#000000;stroke-width:0.25;stroke-miterlimit:10;}
	.st35{fill:#5C5C00;stroke:#000000;stroke-width:0.25;stroke-miterlimit:10;}
	.st36{fill:#7D3E00;stroke:#000000;stroke-width:0.25;stroke-miterlimit:10;}
	.st37{fill:#5A2D00;stroke:#000000;stroke-width:0.25;stroke-miterlimit:10;}
	.st38{fill:#8B8B00;stroke:#000000;stroke-width:0.25;stroke-miterlimit:10;}
	.st39{fill:#919100;stroke:#000000;stroke-width:0.25;stroke-miterlimit:10;}
	.st40{fill:#8B4500;stroke:#000000;stroke-width:0.25;stroke-miterlimit:10;}
	.st41{fill:#A5A5A5;stroke:#000000;stroke-width:0.25;stroke-miterlimit:10;}
	.st42{fill:#E1E1E1;stroke:#000000;stroke-width:0.25;stroke-miterlimit:10;}
	.st43{fill:#4B4B00;stroke:#000000;stroke-width:0.25;stroke-miterlimit:10;}
	.st44{fill:#8D0000;stroke:#000000;stroke-width:0.25;stroke-miterlimit:10;}
	.st45{fill:#A55200;stroke:#000000;stroke-width:0.25;stroke-miterlimit:10;}
</style>
<g>
	<polygon class="st0" points="466.2,712.1 662.3,655.2 662.3,639.3 562,597.3 562,591.5 591,583.1 592.4,578 592.4,508.5 856,628.2 
		431.1,742 68.4,577.3 244.1,530.2 244.1,554.6 271.7,567.1 278.8,565.2 278.8,599.4 278.8,599.9 279.2,600.4 280,600.8 281,601.2 
		282.3,601.5 283.7,601.6 285.2,601.6 286.6,601.5 287.9,601.2 289,600.8 289.7,600.4 289.8,600.3 296.2,603.2 324.2,601.9 
		324.3,601.9 335.2,592.7 335.2,505.8 351.1,501.6 351.1,564.1 387.3,579.3 438,564.6 438,596.7 435.5,597.4 435.5,600 438,601.1 
		438,614.3 339.2,643 339.2,658.9 	"/>
	<polygon class="st1" points="662.3,655.2 466.2,712.1 466.2,696.2 662.3,639.3 	"/>
	<polygon class="st2" points="466.2,712.1 339.2,658.9 339.2,643 466.2,696.2 	"/>
	<polygon class="st3" points="335.2,592.7 324.3,601.9 324.3,254.7 329.3,253.8 333.9,252.4 335.2,251.7 335.2,269.2 335.2,473.9 
		335.2,479.3 335.2,505.8 	"/>
	<polygon class="st4" points="296.2,603.2 289.8,600.3 289.8,562.3 296.2,560.6 	"/>
	<polygon class="st5" points="324.3,601.9 324.2,601.9 296.2,603.2 296.2,560.6 303.2,558.7 303.2,421.4 296.2,418.3 296.2,251.8 
		300.3,253.4 305.5,254.5 311.5,255.2 317.7,255.3 323.7,254.8 324.3,254.7 	"/>
	<polygon class="st6" points="283.7,601.6 282.3,601.5 282.3,564.3 283.7,563.9 	"/>
	<polygon class="st7" points="285.2,601.6 283.7,601.6 283.7,563.9 285.2,563.5 	"/>
	<polygon class="st8" points="286.6,601.5 285.2,601.6 285.2,563.5 286.6,563.1 	"/>
	<polygon class="st9" points="289,600.8 287.9,601.2 287.9,562.8 289,562.5 	"/>
	<polygon class="st10" points="282.3,601.5 281,601.2 281,564.6 282.3,564.3 	"/>
	<polygon class="st9" points="289.7,600.4 289,600.8 289,562.5 289.7,562.3 	"/>
	<polygon class="st9" points="287.9,601.2 286.6,601.5 286.6,563.1 287.9,562.8 	"/>
	<polygon class="st11" points="278.8,599.9 278.8,599.4 278.8,565.2 279.2,565.1 279.2,600.4 	"/>
	<polygon class="st12" points="280,600.8 279.2,600.4 279.2,565.1 280,564.9 	"/>
	<polygon class="st13" points="281,601.2 280,600.8 280,564.9 281,564.6 	"/>
	<polygon class="st14" points="438,596.7 438,564.6 438,490.2 451.7,496 456.1,494.7 456.1,591.4 	"/>
	<polygon class="st15" points="456.1,494.7 451.7,496 451.7,453.5 465.4,459.3 460,460.8 460,493.6 	"/>
	<polygon class="st1" points="456.1,591.4 456.1,494.7 460,493.6 460,590.3 	"/>
	<polygon class="st16" points="456.1,591.4 460,590.3 460,593.7 473.4,599.3 453.7,605 435.5,597.4 438,596.7 	"/>
	<polygon class="st17" points="438,490.2 438,564.6 387.3,579.3 387.3,446.5 409.1,440.2 409.1,495.5 433.6,488.4 	"/>
	<polygon class="st16" points="339.2,643 438,614.3 438,646.5 456.1,654.1 476.2,648.3 476.2,603.2 480.2,602.1 492.1,607.1 
		506.1,607.6 506.1,626 525.3,634 548.1,627.4 548.1,610.5 562,606.4 562,597.3 662.3,639.3 466.2,696.2 	"/>
	<polygon class="st14" points="456.1,654.1 438,646.5 438,614.3 438,601.1 453.7,607.6 456.1,606.9 	"/>
	<polygon class="st15" points="456.1,654.1 456.1,606.9 476.2,601.1 476.2,603.2 476.2,648.3 	"/>
	<polygon class="st0" points="480.2,602.1 476.2,603.2 476.2,601.1 477.1,600.8 	"/>
	<polygon class="st17" points="433.6,488.4 409.1,495.5 409.1,440.2 433.6,433 	"/>
	<polygon class="st18" points="387.3,579.3 351.1,564.1 351.1,501.6 351.1,475 351.1,469.6 351.1,431.3 382.9,444.6 387.3,446.5 	
		"/>
	<polygon class="st19" points="382.9,444.6 351.1,431.3 401.5,416.7 433.3,430 	"/>
	<polygon class="st3" points="524.3,181 524.3,260.5 523.1,260.8 520.6,261.7 518.8,262.9 518,264.1 518,330.3 514.2,331.4 
		514.2,335.4 513.4,335.6 513.4,43.9 524.3,34.8 524.3,62.3 522.9,62.1 516.4,67.6 516.4,88.8 524.3,90 524.3,163.5 522.9,163.3 
		515.9,169.2 515.9,179.8 	"/>
	<polygon class="st17" points="584.5,386.1 584.5,395.6 580.1,387.4 	"/>
	<polygon class="st17" points="584.5,440.7 584.5,441.9 582.8,441.2 	"/>
	<polygon class="st19" points="409.1,440.2 387.3,446.5 382.9,444.6 433.3,430 433.6,429.9 433.6,433 	"/>
	<polygon class="st19" points="584.5,386.1 580.1,387.4 578.8,385 560.7,377.4 560.7,376.2 	"/>
	<polygon class="st20" points="447.3,351.6 451.8,353.5 459.8,351.2 465.4,349.5 459.8,347.2 468.1,344.8 473.3,343.2 474.5,343.7 
		474.4,353.3 460.8,357.3 465.4,359.2 451.7,363.1 433.6,355.6 	"/>
	<polygon class="st14" points="433.6,488.4 433.6,433 433.6,429.9 433.6,407.3 433.6,355.6 451.7,363.1 451.7,409 451.7,453.5 
		451.7,496 438,490.2 	"/>
	<polygon class="st15" points="451.7,363.1 465.4,359.2 465.4,401.8 465.4,405 451.7,409 	"/>
	<polygon class="st21" points="451.7,409 465.4,405 474.5,402.4 474.5,405.2 474.6,406.2 475.5,407.2 477.1,408.1 479.2,408.8 
		481.9,409.2 484.8,409.5 487.7,409.4 490.5,409.1 493,408.6 495,407.8 496.4,406.9 497.1,405.9 497.1,395.8 506.2,393.2 518,389.8 
		518,391.6 518.2,392.9 519.3,394.2 521.2,395.3 524,396.1 527.2,396.7 530.8,397 534.5,397 538.1,396.6 541.2,395.9 469.9,416.6 	
		"/>
	<polygon class="st22" points="597,419.1 597,437.1 584.5,440.7 582.8,441.2 488,468.7 488,450.7 	"/>
	<polygon class="st23" points="488,450.7 488,468.7 465.4,459.3 451.7,453.5 451.7,409 469.9,416.6 	"/>
	<path class="st24" d="M597,419.1l-109,31.6l-18.1-34.2l71.4-20.7l37.6-10.9l1.3,2.4l4.3,8.2L597,419.1z M578.6,416.6l-10.3-19.3
		l-8.7,2.5l10.3,19.3L578.6,416.6z M561.9,421.1l-10.3-19.3l-8.7,2.5l10.3,19.3L561.9,421.1z M545.2,426.1l-10.3-19.3l-8.7,2.5
		l10.3,19.3L545.2,426.1z M527.8,430.5l-10.3-19.3l-8.7,2.5l10.3,19.3L527.8,430.5z M512,435.5l-10.3-19.3l-8.7,2.5l10.3,19.3
		L512,435.5z M497.5,439l-10.3-19.3l-8.7,2.5l10.3,19.3L497.5,439z M591.3,412.8l-10.3-19.3l-8.7,2.5l10.3,19.3L591.3,412.8z"/>
	<polygon class="st21" points="560.7,377.4 578.8,385 541.2,395.9 543.7,394.9 545.4,393.8 546.3,392.5 546.3,381.6 	"/>
	<polygon class="st15" points="556.2,329.6 556.2,372.1 547.1,374.8 547.1,335.5 546.3,335.1 546.3,332.5 	"/>
	<polygon class="st1" points="453.7,605 473.4,599.3 477.1,600.8 476.2,601.1 456.1,606.9 453.7,607.6 	"/>
	<polygon class="st1" points="541.2,395.9 538.1,396.6 538.1,269.1 541.2,268.4 	"/>
	<polygon class="st25" points="538.1,396.6 534.5,397 534.5,269.4 538.1,269.1 	"/>
	<polygon class="st26" points="534.5,397 530.8,397 530.8,269.5 534.5,269.4 	"/>
	<polygon class="st27" points="530.8,397 527.2,396.7 527.2,269.2 530.8,269.5 	"/>
	<polygon class="st28" points="527.2,396.7 524,396.1 524,268.6 527.2,269.2 	"/>
	<polygon class="st29" points="524,396.1 521.2,395.3 521.2,267.7 524,268.6 	"/>
	<polygon class="st30" points="521.2,395.3 519.3,394.2 519.3,266.6 521.2,267.7 	"/>
	<polygon class="st30" points="519.3,394.2 518.2,392.9 518.2,265.4 519.3,266.6 	"/>
	<polygon class="st1" points="518,389.8 506.2,393.2 506.2,347.3 518,343.9 	"/>
	<polygon class="st20" points="506.2,393.2 497.1,395.8 497.1,392.6 501.7,391.3 	"/>
	<polygon class="st16" points="474.5,402.4 465.4,405 465.4,401.8 474.4,399.2 	"/>
	<polygon class="st29" points="479.2,408.8 477.1,408.1 477.1,280.5 479.2,281.2 	"/>
	<polygon class="st30" points="477.1,408.1 475.5,407.2 475.5,279.7 477.1,280.5 	"/>
	<polygon class="st30" points="475.5,407.2 474.6,406.2 474.6,278.7 475.5,279.7 	"/>
	<polygon class="st1" points="497.1,405.9 496.4,406.9 496.4,279.4 497.1,278.4 497.1,336.3 497.1,346.8 497.1,392.6 497.1,395.8 	
		"/>
	<polygon class="st1" points="496.4,406.9 495,407.8 495,280.3 496.4,279.4 	"/>
	<polygon class="st1" points="495,407.8 493,408.6 493,281.1 495,280.3 	"/>
	<polygon class="st1" points="493,408.6 490.5,409.1 490.5,281.6 493,281.1 	"/>
	<polygon class="st25" points="490.5,409.1 487.7,409.4 487.7,281.9 490.5,281.6 	"/>
	<polygon class="st26" points="487.7,409.4 484.8,409.5 484.8,281.9 487.7,281.9 	"/>
	<polygon class="st27" points="484.8,409.5 481.9,409.2 481.9,281.7 484.8,281.9 	"/>
	<polygon class="st28" points="481.9,409.2 479.2,408.8 479.2,281.2 481.9,281.7 	"/>
	<polygon class="st20" points="556.2,372.1 560.7,374 547.1,378 547.1,374.8 	"/>
	<polygon class="st20" points="547.1,325.8 556.2,329.6 546.3,332.5 546.3,326.1 	"/>
	<path class="st11" d="M473.4,599.3l-13.4-5.6v-3.4v-96.7v-32.7l32.1,13.5v132.8l-12-5l-3.1-1.3L473.4,599.3z M486.6,580.9v-81
		l-4.4-6.4l-10.6-4.4l-4.4,1.3l-3.1,3.3v81l3.2,6.1l11.7,4.9l4.4-1.3L486.6,580.9z"/>
	<polygon class="st2" points="435.5,597.4 453.7,605 453.7,607.6 438,601.1 435.5,600 	"/>
	<polygon class="st15" points="560.7,377.4 546.3,381.6 546.3,335.7 547.1,335.5 547.1,374.8 547.1,378 560.7,374 560.7,376.2 	"/>
	<polygon class="st9" points="592.4,578 591,583.1 591,450.3 592.4,445.2 592.4,474.9 592.4,481.9 592.4,508.5 	"/>
	<polygon class="st31" points="592.4,445.2 591,450.3 506.7,474.7 492.1,474.3 460,460.8 465.4,459.3 488,468.7 582.8,441.2 
		584.5,441.9 	"/>
	<path class="st9" d="M591,450.3v132.8l-29,8.4l-13.9,4l-22.9,6.6l-18.5,5.4V474.7L591,450.3z M554.7,522.7v15.9l3.6,1.5l30.5-8.9
		v-15.9l-3.6-1.5L554.7,522.7z M529.9,519.7l34.9-10.1l-17.4-37.4L529.9,519.7z"/>
	<polygon class="st32" points="506.7,474.7 506.7,607.6 506.1,607.6 492.1,607.1 492.1,474.3 	"/>
	<polygon class="st19" points="401.5,416.7 433.6,407.3 433.6,429.9 433.3,430 	"/>
	<polygon class="st20" points="546.3,335.1 547.1,335.5 546.3,335.7 	"/>
	<polygon class="st20" points="518,343.9 506.2,347.3 501.7,345.4 515.3,341.5 518,342.6 	"/>
	<polygon class="st15" points="518,342.6 515.3,341.5 518,340.7 	"/>
	<polygon class="st20" points="515.3,341.5 501.7,345.4 497.1,346.8 497.1,336.3 500.6,335.3 506.3,337.7 513.4,335.6 514.2,335.4 
		518,334.3 518,340.7 	"/>
	<polygon class="st2" points="501.7,345.4 506.2,347.3 506.2,393.2 501.7,391.3 	"/>
	<polygon class="st5" points="506.3,337.7 500.6,335.3 497.1,336.3 497.1,278.4 497,277.3 496.1,276.4 494.5,275.5 492.3,274.8 
		489.7,274.3 486.8,274.1 485.3,274.1 485.3,45.2 513.4,43.9 513.4,335.6 	"/>
	<polygon class="st15" points="497.1,346.8 501.7,345.4 501.7,391.3 497.1,392.6 	"/>
	<polygon class="st4" points="474.5,343.7 473.3,343.2 468.1,344.8 468.1,269.4 468.4,269 468.7,266.9 468.7,258.9 470.5,259.7 
		479.5,257.3 479.5,246.7 472.5,243.6 468.7,244.6 468.7,173.4 473.4,175.5 482.3,173.1 482.3,162.4 471.2,157.4 468.7,158 
		468.7,153.2 468.1,152.2 468.1,122.6 468.1,112.6 468.1,37.4 485.3,45.2 485.3,274.1 483.9,274.1 481,274.4 478.5,275 476.5,275.7 
		475.1,276.6 474.5,277.7 	"/>
	<polygon class="st14" points="459.8,347.2 465.4,349.5 459.8,351.2 	"/>
	<polygon class="st15" points="465.4,359.2 460.8,357.3 474.4,353.3 474.4,399.2 465.4,401.8 	"/>
	<polygon class="st16" points="497.1,278.4 496.4,279.4 495,280.3 493,281.1 490.5,281.6 487.7,281.9 484.8,281.9 481.9,281.7 
		479.2,281.2 477.1,280.5 475.5,279.7 474.6,278.7 474.5,277.7 475.1,276.6 476.5,275.7 478.5,275 481,274.4 483.9,274.1 
		485.3,274.1 486.8,274.1 489.7,274.3 492.3,274.8 494.5,275.5 496.1,276.4 497,277.3 	"/>
	<polygon class="st1" points="545.4,393.8 543.7,394.9 543.7,267.4 545.4,266.3 	"/>
	<polygon class="st16" points="521.2,267.7 519.3,266.6 518.2,265.4 518,264.1 518.8,262.9 520.6,261.7 523.1,260.8 524.3,260.5 
		526.2,260.1 529.7,259.7 533.4,259.6 537,259.9 540.3,260.5 543,261.4 545,262.5 546.1,263.7 546.3,265 545.4,266.3 543.7,267.4 
		541.2,268.4 538.1,269.1 534.5,269.4 530.8,269.5 527.2,269.2 524,268.6 	"/>
	<polygon class="st1" points="541.2,268.4 543.7,267.4 543.7,394.9 541.2,395.9 	"/>
	<polygon class="st1" points="545.4,266.3 546.3,265 546.3,326.1 546.3,332.5 546.3,335.1 546.3,335.7 546.3,381.6 546.3,392.5 
		545.4,393.8 	"/>
	<polygon class="st14" points="514.2,335.4 514.2,331.4 518,333 518,334.3 	"/>
	<polygon class="st20" points="518,333 514.2,331.4 518,330.3 	"/>
	<polygon class="st14" points="525.3,634 506.1,626 506.1,607.6 506.7,607.6 525.3,602.2 	"/>
	<polygon class="st15" points="525.3,634 525.3,602.2 548.1,595.6 548.1,610.5 548.1,627.4 	"/>
	<polygon class="st9" points="562,606.4 548.1,610.5 548.1,595.6 562,591.5 562,597.3 	"/>
	<polygon class="st15" points="576,183 575.8,185.2 575.8,71.5 576,69.4 	"/>
	<polygon class="st15" points="575.8,185.2 573.9,187.2 573.9,73.6 575.8,71.5 	"/>
	<polygon class="st15" points="573.9,187.2 570.5,189.1 570.5,75.4 573.9,73.6 	"/>
	<polygon class="st15" points="570.5,189.1 565.9,190.5 565.9,76.9 570.5,75.4 	"/>
	<polygon class="st15" points="565.9,190.5 560.4,191.5 560.4,77.9 565.9,76.9 	"/>
	<polygon class="st33" points="560.4,191.5 554.3,192 554.3,78.3 560.4,77.9 	"/>
	<polygon class="st34" points="554.3,192 552.7,191.9 552.7,78.3 554.3,78.3 	"/>
	<polygon class="st14" points="548.1,191.9 542.2,191.2 542.2,77.6 548.1,78.2 	"/>
	<polygon class="st14" points="542.2,191.2 537,190 537,76.4 542.2,77.6 	"/>
	<polygon class="st14" points="537,190 532.8,188.4 532.8,74.8 537,76.4 	"/>
	<polygon class="st14" points="532.8,188.4 529.9,186.5 529.9,72.9 532.8,74.8 	"/>
	<polygon class="st14" points="529.9,186.5 528.6,184.4 528.6,179.5 528.6,168.8 528.6,164.1 528.6,88.9 528.6,70.7 529.9,72.9 	"/>
	<polygon class="st34" points="552.7,191.9 548.1,191.9 548.1,78.2 552.7,78.3 	"/>
	<polygon class="st20" points="552.7,78.3 548.1,78.2 542.2,77.6 537,76.4 532.8,74.8 529.9,72.9 528.6,70.7 528.9,68.6 530.8,66.5 
		533.3,65.1 534.1,64.7 538.7,63.2 544.3,62.2 550.3,61.8 556.5,61.9 562.5,62.5 567.7,63.7 571.9,65.3 574.7,67.2 576,69.4 
		575.8,71.5 573.9,73.6 570.5,75.4 565.9,76.9 560.4,77.9 554.3,78.3 	"/>
	<polygon class="st3" points="530.8,66.5 528.9,68.6 528.6,70.7 528.6,88.9 526.8,90.4 526.8,69.1 533.3,63.6 533.3,65.1 	"/>
	<polygon class="st15" points="466.5,271.1 463.2,272.9 463.2,159.3 466.5,157.4 	"/>
	<polygon class="st15" points="463.2,272.9 458.6,274.4 458.6,160.7 463.2,159.3 	"/>
	<polygon class="st15" points="458.6,274.4 453,275.4 453,161.7 458.6,160.7 	"/>
	<polygon class="st33" points="453,275.4 447,275.8 447,162.2 453,161.7 	"/>
	<polygon class="st34" points="447,275.8 440.8,275.7 440.8,162.1 447,162.2 	"/>
	<polygon class="st14" points="440.8,275.7 434.8,275.1 434.8,161.4 440.8,162.1 	"/>
	<polygon class="st14" points="434.8,275.1 429.6,273.9 429.6,160.3 434.8,161.4 	"/>
	<polygon class="st14" points="429.6,273.9 425.4,272.3 425.4,158.6 429.6,160.3 	"/>
	<polygon class="st14" points="425.4,272.3 422.6,270.4 422.6,156.7 425.4,158.6 	"/>
	<polygon class="st14" points="422.6,270.4 421.3,268.3 421.3,154.6 422.6,156.7 	"/>
	<polygon class="st15" points="468.7,266.9 468.4,269 468.4,155.4 468.7,153.2 468.7,158 468.7,162.7 468.7,173.4 468.7,244.6 
		468.7,248.3 468.7,258.9 	"/>
	<polygon class="st20" points="421.6,152.4 423.4,150.4 426.8,148.6 431.4,147.1 436.9,146.1 443,145.6 449.2,145.7 455.1,146.4 
		458.3,147.1 460.3,147.6 462.1,148.2 464.5,149.2 467.4,151.1 468.1,152.2 468.7,153.2 468.4,155.4 466.5,157.4 463.2,159.3 
		458.6,160.7 453,161.7 447,162.2 440.8,162.1 434.8,161.4 429.6,160.3 425.4,158.6 422.6,156.7 421.3,154.6 	"/>
	<polygon class="st15" points="466.5,157.4 468.4,155.4 468.4,269 468.1,269.4 466.5,271.1 	"/>
	<polygon class="st35" points="467.4,151.1 464.5,149.2 462.1,148.2 462.1,122.8 468.1,122.6 468.1,152.2 	"/>
	<polygon class="st3" points="528.6,179.5 526.4,181.3 526.4,170.7 528.6,168.8 	"/>
	<polygon class="st36" points="515.9,179.8 515.9,169.2 526.4,170.7 526.4,181.3 524.3,181 	"/>
	<polygon class="st37" points="526.4,170.7 515.9,169.2 522.9,163.3 524.3,163.5 528.6,164.1 528.6,168.8 	"/>
	<polygon class="st37" points="507,26.9 524.3,34.8 513.4,43.9 485.3,45.2 468.1,37.4 478.9,28.2 	"/>
	<polygon class="st37" points="471.2,157.4 482.3,162.4 473.4,164.9 468.7,162.7 468.7,158 	"/>
	<polygon class="st3" points="482.3,162.4 482.3,173.1 473.4,175.5 473.4,164.9 	"/>
	<polygon class="st3" points="479.5,246.7 479.5,257.3 470.5,259.7 470.5,249.1 	"/>
	<polygon class="st37" points="472.5,243.6 479.5,246.7 470.5,249.1 468.7,248.3 468.7,244.6 	"/>
	<polygon class="st36" points="516.4,88.8 516.4,67.6 526.8,69.1 526.8,90.4 524.3,90 	"/>
	<polygon class="st37" points="516.4,67.6 522.9,62.1 524.3,62.3 533.3,63.6 526.8,69.1 	"/>
	<polygon class="st4" points="468.7,248.3 470.5,249.1 470.5,259.7 468.7,258.9 	"/>
	<polygon class="st4" points="473.4,164.9 473.4,175.5 468.7,173.4 468.7,162.7 	"/>
	<polygon class="st31" points="458.3,113 468.1,112.6 468.1,122.6 462.1,122.8 	"/>
	<polygon class="st38" points="462.1,122.8 462.1,148.2 460.3,147.6 458.3,147.1 458.3,113 	"/>
	<polygon class="st15" points="333.9,252.4 329.3,253.8 329.3,140.2 333.9,138.7 	"/>
	<polygon class="st33" points="323.7,254.8 317.7,255.3 317.7,141.6 323.7,141.2 	"/>
	<polygon class="st34" points="317.7,255.3 311.5,255.2 311.5,141.5 317.7,141.6 	"/>
	<polygon class="st14" points="311.5,255.2 305.5,254.5 305.5,140.9 311.5,141.5 	"/>
	<polygon class="st14" points="305.5,254.5 300.3,253.4 300.3,139.7 305.5,140.9 	"/>
	<polygon class="st20" points="305.5,140.9 300.3,139.7 296.1,138.1 295.4,137.6 293.3,136.2 292,134.1 292.2,131.9 294.1,129.8 
		296.2,128.7 297.5,128 302.1,126.6 303.8,126.3 305.3,126 307.6,125.6 313.7,125.1 319.9,125.2 322.1,125.5 324.3,125.7 
		325.8,125.9 331,127 335.2,128.6 338.1,130.6 339.4,132.7 339.1,134.8 337.2,136.9 333.9,138.7 329.3,140.2 323.7,141.2 
		317.7,141.6 311.5,141.5 	"/>
	<polygon class="st14" points="293.3,136.2 295.4,137.6 295.4,251.3 293.3,249.8 	"/>
	<polygon class="st4" points="293.3,249.8 295.4,251.3 296.1,251.8 296.2,251.8 296.2,418.3 279,410.4 279,298.8 279,288.2 
		279,283.9 279,215 279,204.4 279,197.5 279,87.7 296.2,95.5 296.2,128.7 294.1,129.8 292.2,131.9 292,134.1 292,247.7 	"/>
	<polygon class="st14" points="296.1,251.8 295.4,251.3 295.4,137.6 296.1,138.1 	"/>
	<polygon class="st14" points="293.3,249.8 292,247.7 292,134.1 293.3,136.2 	"/>
	<polygon class="st14" points="296.1,138.1 300.3,139.7 300.3,253.4 296.2,251.8 296.1,251.8 	"/>
	<polygon class="st15" points="323.7,141.2 329.3,140.2 329.3,253.8 324.3,254.7 323.7,254.8 	"/>
	<polygon class="st15" points="333.9,138.7 337.2,136.9 337.2,250.6 335.2,251.7 333.9,252.4 	"/>
	<polygon class="st15" points="337.2,136.9 339.1,134.8 339.1,248.5 337.2,250.6 	"/>
	<polygon class="st11" points="337.2,250.6 339.1,248.5 339.4,246.3 339.4,180.8 345.5,183.6 345.5,273.9 335.2,269.2 335.2,251.7 	
		"/>
	<polygon class="st15" points="339.4,246.3 339.1,248.5 339.1,134.8 339.4,132.7 339.4,164.6 339.4,180.8 	"/>
	<polygon class="st3" points="335.2,128.6 331,127 325.8,125.9 324.3,125.7 324.3,94.2 335.2,85.1 	"/>
	<polygon class="st5" points="319.9,125.2 313.7,125.1 307.6,125.6 305.3,126 305.3,125.2 322.1,124.4 322.1,125.5 	"/>
	<polygon class="st5" points="302.1,126.6 297.5,128 296.2,128.7 296.2,95.5 324.3,94.2 324.3,125.7 322.1,125.5 322.1,124.4 
		320.6,120.5 303.8,121.3 303.8,126.3 	"/>
	<polygon class="st34" points="255.2,305 249,304.9 249,191.2 255.2,191.3 	"/>
	<polygon class="st14" points="249,304.9 243.1,304.2 243.1,190.6 249,191.2 	"/>
	<polygon class="st14" points="243.1,304.2 237.9,303 237.9,189.4 243.1,190.6 	"/>
	<polygon class="st14" points="237.9,303 233.7,301.4 233.7,187.8 237.9,189.4 	"/>
	<polygon class="st14" points="233.7,301.4 230.8,299.5 230.8,185.9 233.7,187.8 	"/>
	<polygon class="st14" points="230.8,299.5 229.5,297.4 229.5,183.7 230.8,185.9 	"/>
	<polygon class="st15" points="276.4,298.4 274.8,300.2 274.8,298.2 	"/>
	<polygon class="st15" points="274.8,300.2 271.4,302.1 271.4,213.9 274.8,214.4 274.8,285 272.2,287.2 272.2,297.8 274.8,298.2 	
		"/>
	<polygon class="st15" points="271.4,302.1 266.8,303.5 266.8,189.9 271.4,188.4 271.4,202.3 270.4,203.2 270.4,213.8 271.4,213.9 	
		"/>
	<polygon class="st15" points="266.8,303.5 261.3,304.5 261.3,190.9 266.8,189.9 	"/>
	<polygon class="st33" points="261.3,304.5 255.2,305 255.2,191.3 261.3,190.9 	"/>
	<polygon class="st20" points="245.2,175.2 251.2,174.8 257.4,174.9 263.4,175.5 268.6,176.7 272.8,178.3 275.6,180.2 276.9,182.4 
		276.7,184.5 274.8,186.6 271.4,188.4 266.8,189.9 261.3,190.9 255.2,191.3 249,191.2 243.1,190.6 237.9,189.4 233.7,187.8 
		230.8,185.9 229.5,183.7 229.8,181.6 231.7,179.5 235,177.7 239.6,176.2 	"/>
	<polygon class="st15" points="271.4,188.4 274.8,186.6 274.8,199.5 271.4,202.3 	"/>
	<polygon class="st15" points="274.8,186.6 276.7,184.5 276.7,197.9 274.8,199.5 	"/>
	<polygon class="st15" points="276.7,184.5 276.9,182.4 276.9,197.6 276.7,197.9 	"/>
	<polygon class="st15" points="274.8,285 274.8,214.4 276.7,214.7 276.7,283.6 276.5,283.5 	"/>
	<polygon class="st15" points="276.7,283.6 276.7,214.7 276.9,214.7 276.9,283.6 	"/>
	<path class="st11" d="M271.7,567.1l-27.6-12.5v-24.4v-26.6v-5.4v-47.7l27.6,12.5V567.1z M263.6,529l3.3,1.5v-2.4v-44l-3.3-2.9V529z
		"/>
	<polygon class="st37" points="335.2,85.1 324.3,94.2 296.2,95.5 279,87.7 289.8,78.5 317.9,77.2 	"/>
	<polygon class="st31" points="279,410.4 296.2,418.3 303.2,421.4 289.7,425 262,412.5 275.5,408.9 	"/>
	<polygon class="st39" points="262,412.5 289.7,425 276.2,461.9 248.5,449.4 	"/>
	<polygon class="st31" points="248.5,449.4 276.2,461.9 271.7,463.1 244.1,450.6 	"/>
	<polygon class="st9" points="289.7,425 303.2,421.4 303.2,558.7 296.2,560.6 289.8,562.3 289.7,562.3 289,562.5 287.9,562.8 
		286.6,563.1 285.2,563.5 283.7,563.9 282.3,564.3 281,564.6 280,564.9 279.2,565.1 278.8,565.2 271.7,567.1 271.7,463.1 
		276.2,461.9 	"/>
	<polygon class="st40" points="303.8,126.3 303.8,121.3 305.3,125.2 305.3,126 	"/>
	<polygon class="st37" points="303.8,121.3 320.6,120.5 322.1,124.4 305.3,125.2 	"/>
	<polygon class="st37" points="277.4,197.2 279,197.5 279,204.4 270.4,203.2 271.4,202.3 274.8,199.5 276.7,197.9 276.9,197.6 	"/>
	<polygon class="st36" points="270.4,213.8 270.4,203.2 279,204.4 279,215 276.9,214.7 276.7,214.7 274.8,214.4 271.4,213.9 	"/>
	<polygon class="st36" points="272.2,297.8 272.2,287.2 279,288.2 279,298.8 276.4,298.4 274.8,298.2 	"/>
	<polygon class="st37" points="279,288.2 272.2,287.2 274.8,285 276.5,283.5 276.7,283.6 276.9,283.6 279,283.9 	"/>
	<polygon class="st31" points="339.4,164.6 368,177.6 345.5,183.6 339.4,180.8 	"/>
	<polygon class="st9" points="345.5,273.9 345.5,183.6 368,177.6 368,267.9 	"/>
	<polygon class="st41" points="909.9,736 424.4,866.1 424.4,749.2 909.9,619.1 	"/>
	<polygon class="st14" points="424.4,866.1 9.9,677.9 9.9,561 416.9,745.8 424.4,749.2 	"/>
	<polygon class="st42" points="592.4,474.9 909.9,619.1 424.4,749.2 416.9,745.8 431.1,742 856,628.2 892.8,618.3 592.4,481.9 	"/>
	<polygon class="st42" points="9.9,561 244.1,498.3 244.1,503.7 31.5,560.6 68.4,577.3 431.1,742 416.9,745.8 	"/>
	<polygon class="st42" points="335.2,473.9 351.1,469.6 351.1,475 335.2,479.3 	"/>
	<polygon class="st14" points="592.4,481.9 892.8,618.3 856,628.2 592.4,508.5 	"/>
	<polygon class="st41" points="335.2,479.3 351.1,475 351.1,501.6 335.2,505.8 	"/>
	<polygon class="st41" points="31.5,560.6 244.1,503.7 244.1,530.2 68.4,577.3 	"/>
	<polygon class="st9" points="486.6,499.9 486.6,580.9 482.2,582.2 482.2,501.1 	"/>
	<polygon class="st31" points="471.5,489 482.2,493.5 477.8,494.7 467.2,490.3 	"/>
	<polygon class="st43" points="482.2,493.5 486.6,499.9 482.2,501.1 477.8,494.7 	"/>
	<polygon class="st9" points="486.6,580.9 483.3,584.3 479,585.6 482.2,582.2 	"/>
	<polygon class="st11" points="464.1,493.5 467.2,490.3 477.8,494.7 482.2,501.1 482.2,582.2 479,585.6 467.3,580.7 464.1,574.6 	
		"/>
	<polygon class="st11" points="554.7,538.7 554.7,522.7 558.3,524.3 558.3,540.2 	"/>
	<polygon class="st31" points="554.7,522.7 585.2,513.9 588.8,515.4 558.3,524.3 	"/>
	<polygon class="st9" points="588.8,515.4 588.8,531.4 558.3,540.2 558.3,524.3 	"/>
	<polygon class="st44" points="568.4,397.2 578.6,416.6 569.9,419.1 559.6,399.8 	"/>
	<polygon class="st44" points="551.7,401.8 561.9,421.1 553.2,423.6 542.9,404.3 	"/>
	<polygon class="st44" points="534.9,406.8 545.2,426.1 536.4,428.6 526.2,409.3 	"/>
	<polygon class="st44" points="517.6,411.2 527.8,430.5 519.1,433.1 508.8,413.7 	"/>
	<polygon class="st44" points="501.7,416.1 512,435.5 503.2,438 493,418.7 	"/>
	<polygon class="st44" points="487.2,419.6 497.5,439 488.8,441.5 478.5,422.2 	"/>
	<polygon class="st44" points="581.1,393.5 591.3,412.8 582.6,415.3 572.4,396 	"/>
	<polygon class="st45" points="564.7,509.5 529.9,519.7 547.3,472.1 	"/>
	<polygon class="st31" points="267,530.5 263.6,529 267,528.1 	"/>
	<polygon class="st9" points="263.6,529 263.6,481.2 267,484 267,528.1 	"/>
</g>
</svg>
