<svg xmlns="http://www.w3.org/2000/svg" viewBox="0 0 5.61 45"><defs><style>.cls-1{fill:#dfe0e2;}</style></defs><title>Asset 68switch-vertical</title><g id="Layer_2" data-name="Layer 2"><g id="Layer_1-2" data-name="Layer 1"><path class="cls-1" d="M3.46,29.85V16.09a2.8,2.8,0,0,0,0-5.44V0H2.15V10.65a2.8,2.8,0,0,0,0,5.44V29.85a2.8,2.8,0,0,0,0,5.44V45H3.46V35.29a2.8,2.8,0,0,0,0-5.44ZM1.31,13.37A1.5,1.5,0,1,1,2.8,14.86,1.5,1.5,0,0,1,1.31,13.37ZM2.8,34.07a1.5,1.5,0,1,1,1.5-1.5A1.5,1.5,0,0,1,2.8,34.07Z"/></g></g></svg>