<?xml version="1.0" encoding="utf-8"?>
<!-- Generator: Adobe Illustrator 24.3.0, SVG Export Plug-In . SVG Version: 6.00 Build 0)  -->
<svg version="1.1" id="Layer_1" xmlns="http://www.w3.org/2000/svg" xmlns:xlink="http://www.w3.org/1999/xlink" x="0px" y="0px"
	 viewBox="0 0 80 80" style="enable-background:new 0 0 80 80;" xml:space="preserve">
<style type="text/css">
	.st0{fill:#F40819;}
</style>
<g id="Layer_2_1_">
	<g id="Layer_1-2">
		<path class="st0" d="M80,39.3H62.8c-0.7-2.7-3.4-4.3-6-3.7c-1.8,0.4-3.2,1.8-3.7,3.7H28.6c-0.7-2.7-3.4-4.3-6-3.7
			c-1.8,0.4-3.2,1.8-3.7,3.7H0v2.3h18.8c0.7,2.7,3.4,4.3,6,3.7c1.8-0.4,3.2-1.8,3.7-3.7H53c0.7,2.7,3.4,4.3,6,3.7
			c1.8-0.4,3.2-1.8,3.7-3.7H80V39.3z M23.8,43.3c-1.4,0-2.7-1.2-2.7-2.7s1.2-2.7,2.7-2.7s2.7,1.2,2.7,2.7l0,0
			C26.5,42.1,25.2,43.1,23.8,43.3z M58,43.3c-1.4,0-2.7-1.2-2.7-2.7s1.2-2.7,2.7-2.7c1.4,0,2.7,1.2,2.7,2.7S59.4,43.3,58,43.3z"/>
	</g>
</g>
</svg>
