<?xml version="1.0" encoding="utf-8"?>
<!-- Generator: Adobe Illustrator 24.3.0, SVG Export Plug-In . SVG Version: 6.00 Build 0)  -->
<svg version="1.1" id="Layer_1" xmlns="http://www.w3.org/2000/svg" xmlns:xlink="http://www.w3.org/1999/xlink" x="0px" y="0px"
	 viewBox="0 0 80 80" style="enable-background:new 0 0 80 80;" xml:space="preserve">
<style type="text/css">
	.st0{fill:#F40819;}
</style>
<g id="Layer_2_1_">
	<g id="Layer_1-2">
		<path class="st0" d="M41.7,53.2V28.6c2.7-0.7,4.3-3.4,3.7-6c-0.4-1.8-1.8-3.2-3.7-3.7V0h-2.3v18.8c-2.8,0.7-4.4,3.4-3.7,6
			c0.4,1.8,1.8,3.2,3.7,3.7V53c-2.7,0.7-4.3,3.4-3.7,6c0.4,1.8,1.8,3.2,3.7,3.7V80h2.3V62.8c2.7-0.7,4.3-3.4,3.7-6
			C44.9,54.9,43.5,53.5,41.7,53.2z M37.8,23.8c0-1.4,1.2-2.7,2.7-2.7s2.7,1.2,2.7,2.7s-1.2,2.7-2.7,2.7l0,0
			C39.1,26.5,37.8,25.2,37.8,23.8z M40.5,60.6c-1.4,0-2.7-1.2-2.7-2.7c0-1.4,1.2-2.7,2.7-2.7s2.7,1.2,2.7,2.7
			C43.1,59.4,41.9,60.6,40.5,60.6L40.5,60.6z"/>
	</g>
</g>
</svg>
