<?xml version="1.0" encoding="utf-8"?>
<!-- Generator: Adobe Illustrator 24.3.0, SVG Export Plug-In . SVG Version: 6.00 Build 0)  -->
<svg version="1.1" id="Layer_1" xmlns="http://www.w3.org/2000/svg" xmlns:xlink="http://www.w3.org/1999/xlink" x="0px" y="0px"
	 viewBox="0 0 80 80" style="enable-background:new 0 0 80 80;" xml:space="preserve">
<style type="text/css">
	.st0{fill:#F70DF7;}
</style>
<g id="Layer_2_1_">
	<g id="Layer_1-2">
		<path class="st0" d="M41.5,53.2L53.8,32l-2-1.1l-13,22.2c-2.7,0.7-4.3,3.4-3.7,6c0.4,1.8,1.8,3.2,3.7,3.7V80h2.3V62.8
			c2.7-0.7,4.3-3.4,3.7-6C44.6,55.1,43.3,53.7,41.5,53.2z M40.1,60.6c-1.4,0-2.7-1.2-2.7-2.7c0-1.4,1.2-2.7,2.7-2.7s2.7,1.2,2.7,2.7
			C42.8,59.4,41.5,60.6,40.1,60.6L40.1,60.6z"/>
		<path class="st0" d="M39.9,28.8c2.7,0,5-2.3,5-5c0-2.3-1.6-4.3-3.7-4.8V0h-2.3v18.8c-2.8,0.7-4.4,3.4-3.7,6
			C35.6,27.2,37.6,28.8,39.9,28.8z M39.9,21.2c1.4,0,2.7,1.2,2.7,2.7s-1.2,2.7-2.7,2.7s-2.7-1.2-2.7-2.7l0,0
			C37.2,22.2,38.4,21.2,39.9,21.2z"/>
	</g>
</g>
</svg>
