<svg xmlns="http://www.w3.org/2000/svg" viewBox="0 0 45 5.61"><defs><style>.cls-1{fill:#dfe0e2;}</style></defs><title>Asset 67switch-vertical</title><g id="Layer_2" data-name="Layer 2"><g id="Layer_1-2" data-name="Layer 1"><path class="cls-1" d="M45,2.15H35.29a2.8,2.8,0,0,0-5.44,0H16.09a2.8,2.8,0,0,0-5.44,0H0V3.46H10.65a2.8,2.8,0,0,0,5.44,0H29.85a2.8,2.8,0,0,0,5.44,0H45ZM13.37,4.3a1.5,1.5,0,1,1,1.49-1.5A1.5,1.5,0,0,1,13.37,4.3Zm19.2,0a1.5,1.5,0,1,1,1.5-1.5A1.5,1.5,0,0,1,32.57,4.3Z"/></g></g></svg>