<?xml version="1.0" encoding="utf-8"?>
<!-- Generator: Adobe Illustrator 25.1.0, SVG Export Plug-In . SVG Version: 6.00 Build 0)  -->
<svg version="1.1" id="Layer_1" xmlns="http://www.w3.org/2000/svg" xmlns:xlink="http://www.w3.org/1999/xlink" x="0px" y="0px"
	 viewBox="0 0 200 200" style="enable-background:new 0 0 200 200;" xml:space="preserve">
<style type="text/css">
	.st0{fill:url(#SVGID_1_);}
	.st1{fill:#DBDBDB;}
	.st2{fill:#F2D323;}
	.st3{fill:#777F7F;}
	.st4{fill:#EAEAEA;}
	.st5{fill:#AAB7B7;}
	.st6{fill:#F7F7F7;}
</style>
<g>
	
		<radialGradient id="SVGID_1_" cx="36.1915" cy="-127.7171" r="21.603" gradientTransform="matrix(4.629 0 0 1.8893 -67.5314 400.4771)" gradientUnits="userSpaceOnUse">
		<stop  offset="0" style="stop-color:#1C1C1C"/>
		<stop  offset="9.455523e-02" style="stop-color:#232323"/>
		<stop  offset="0.2346" style="stop-color:#373737"/>
		<stop  offset="0.4029" style="stop-color:#585858"/>
		<stop  offset="0.5931" style="stop-color:#868686"/>
		<stop  offset="0.7989" style="stop-color:#BFBFBF"/>
		<stop  offset="1" style="stop-color:#FFFFFF"/>
	</radialGradient>
	<ellipse class="st0" cx="100" cy="159.2" rx="100" ry="40.8"/>
	<g>
		<g>
			<path class="st1" d="M177.9,155.9c0-0.3,0-9.6,0-9.9c-1.2-17.4-35.8-1-78.2-1c-40.5,0-74.1-14-78.1,2.3c0,0-0.1,7.4-0.1,8.6
				c0,17.9,35,32.4,78.2,32.4S177.9,173.8,177.9,155.9z"/>
			<ellipse class="st2" cx="99.7" cy="146.1" rx="78.2" ry="32.4"/>
			<ellipse class="st3" cx="99.7" cy="146.1" rx="73.9" ry="29.2"/>
			<g>
				<g>
					<g>
						<g>
							<path class="st3" d="M172.3,31c0-2.1-5-3.8-11.2-3.8c-6.2,0-11.2,1.7-11.2,3.8c0,2.1,5,6.1,11.2,6.1
								C167.2,37.1,172.3,33.1,172.3,31z"/>
							<path class="st4" d="M172.3,31.4c0-2.1-5-5.6-11.2-5.6c-6.2,0-11.2,3.5-11.2,5.6c0,2.1,5,3.8,11.2,3.8
								C167.2,35.2,172.3,33.5,172.3,31.4z"/>
						</g>
						<g>
							<path class="st3" d="M172.3,21.1c0-2.1-5-3.8-11.2-3.8c-6.2,0-11.2,1.7-11.2,3.8c0,1.1,5,6.1,11.2,6.1
								C167.2,27.3,172.3,23.2,172.3,21.1z"/>
							<path class="st4" d="M172.3,21.1c0-2.1-5-5.6-11.2-5.6c-6.2,0-11.2,3.5-11.2,5.6c0,2.1,5,3.8,11.2,3.8
								C167.2,25,172.3,23.2,172.3,21.1z"/>
						</g>
						<g>
							<path class="st3" d="M172.3,10.5c0-2.1-5-3.8-11.2-3.8c-6.2,0-11.2,1.7-11.2,3.8s5,6.1,11.2,6.1
								C167.2,16.6,172.3,12.6,172.3,10.5z"/>
							<path class="st4" d="M172.3,10.9c0-2.1-5-5.6-11.2-5.6c-6.2,0-11.2,3.5-11.2,5.6s5,3.8,11.2,3.8
								C167.2,14.7,172.3,13,172.3,10.9z"/>
						</g>
					</g>
					<g>
						<g>
							<path class="st3" d="M152,38c0-2.1-5-3.8-11.2-3.8c-6.2,0-11.2,1.7-11.2,3.8s5,6.1,11.2,6.1C146.9,44.1,152,40.1,152,38z"/>
							<path class="st4" d="M152,38c0-2.1-5-5.6-11.2-5.6c-6.2,0-11.2,3.5-11.2,5.6s5,3.8,11.2,3.8C146.9,41.8,152,40.1,152,38z"/>
						</g>
						<g>
							<path class="st3" d="M152,27.4c0-2.1-5-3.8-11.2-3.8c-6.2,0-11.2,1.7-11.2,3.8c0,2.1,5,6.1,11.2,6.1
								C146.9,33.5,152,29.5,152,27.4z"/>
							<path class="st4" d="M152,27.7c0-2.1-5-5.6-11.2-5.6c-6.2,0-11.2,3.5-11.2,5.6c0,2.1,5,3.8,11.2,3.8
								C146.9,31.6,152,29.9,152,27.7z"/>
						</g>
						<g>
							<path class="st3" d="M152,17.5c0-2.1-5-3.8-11.2-3.8c-6.2,0-11.2,1.7-11.2,3.8c0,2.1,5,6.1,11.2,6.1
								C146.9,23.6,152,19.6,152,17.5z"/>
							<path class="st4" d="M152,17.5c0-2.1-5-5.6-11.2-5.6c-6.2,0-11.2,3.5-11.2,5.6c0,2.1,5,3.8,11.2,3.8
								C146.9,21.3,152,19.6,152,17.5z"/>
						</g>
					</g>
					<g>
						<g>
							<path class="st3" d="M131.6,44.6c0-2.1-5-3.8-11.2-3.8s-11.2,1.7-11.2,3.8c0,2.1,5,6.1,11.2,6.1S131.6,46.7,131.6,44.6z"/>
							<path class="st4" d="M131.6,44.6c0-2.1-5-5.6-11.2-5.6s-11.2,3.5-11.2,5.6c0,2.1,5,3.8,11.2,3.8S131.6,46.7,131.6,44.6z"/>
						</g>
						<g>
							<path class="st3" d="M131.6,34.4c0-2.1-5-3.8-11.2-3.8s-11.2,1.7-11.2,3.8s5,6.1,11.2,6.1S131.6,36.5,131.6,34.4z"/>
							<path class="st4" d="M131.6,34.4c0-2.1-5-5.6-11.2-5.6s-11.2,3.5-11.2,5.6s5,3.8,11.2,3.8S131.6,36.5,131.6,34.4z"/>
						</g>
						<g>
							<path class="st3" d="M131.6,24.1c0-2.1-5-3.8-11.2-3.8s-11.2,1.7-11.2,3.8s5,6.1,11.2,6.1S131.6,26.2,131.6,24.1z"/>
							<path class="st4" d="M131.6,24.1c0-2.1-5-5.6-11.2-5.6s-11.2,3.5-11.2,5.6s5,3.8,11.2,3.8S131.6,26.2,131.6,24.1z"/>
						</g>
					</g>
				</g>
				<polygon class="st5" points="166.2,17.5 163.2,20.2 105.6,22.5 109.6,20.2 				"/>
				<path class="st5" d="M135.6,34.7L97.8,21.5l62.5-18.4l23.7,4.9v3.2L135.6,34.7z M108.7,21.6l28.4,9.2l37.2-20l-13.6-4.7
					L108.7,21.6z"/>
				<path class="st6" d="M135.6,31.6L97.8,18.4L160.2,0l23.7,8.1L135.6,31.6z M106.5,19.1l28.8,11l40.6-21.9l-15.2-5.3L106.5,19.1z"
					/>
				<polygon class="st6" points="133,30.9 137.7,30.6 142.2,7.3 137.5,7.6 				"/>
				<polygon class="st6" points="166.2,15.1 163.2,17.9 105.6,20.1 109.6,17.8 				"/>
				<path class="st6" d="M140,8.2l36.4-1.8c1.2,0.7,2.3,1.4,3.4,2.1l-0.4,0.4l-40,1.6C139.7,9.7,139.8,9,140,8.2z"/>
				<g>
					<path class="st3" d="M72.5,92.7l25,7.3l0,21.7l3.7-1.4l0-119.3L71.1,12.1L31.3,145.5l3.5-0.8l7.3-24.5L72.5,92.7z M43.4,116.3
						l8.8-29.5l18,5.2L43.4,116.3z M81.5,35.7l16,4.6L78,58l-15.9-4.6l0-0.2L81.5,35.7z M63.3,49.3l5.2-17.4L79.1,35L63.3,49.3z
						 M75,60.6L54.3,79.4l6.8-22.8L75,60.6z M84.4,33l13.1-11.9l0,15.7L84.4,33z M97.5,43.1l0,20.5l-17.1-5L97.5,43.1z M97.5,67.2
						L73,89.4l-19.9-5.8l0.1-0.2l24.3-22L97.5,67.2L97.5,67.2z M97.5,4.6v13.7L82,32.3l-12.5-3.6l4.6-15.4L97.5,4.6z M75.4,90.1
						l22.1-20l0,26.4L75.4,90.1z"/>
					<path class="st5" d="M73.9,94.2l25,7.3l0,21.7l3.7-1.4l0-119.3L72.5,13.5L33.1,145.7l3.2,0.5l7.3-24.5L73.9,94.2z M44.8,117.8
						l8.8-29.5l18,5.2L44.8,117.8z M82.9,37.2l16,4.6L79.4,59.5l-15.9-4.6l0-0.2L82.9,37.2z M64.7,50.8l5.2-17.4l10.6,3.1L64.7,50.8
						z M76.4,62.1L55.7,80.9l6.8-22.8L76.4,62.1z M85.8,34.5l13.1-11.9l0,15.7L85.8,34.5z M98.9,44.6l0,20.5l-17.1-5L98.9,44.6z
						 M98.9,68.7L74.4,90.9l-19.9-5.8l0.1-0.2l24.3-22L98.9,68.7L98.9,68.7z M98.9,6.1l0,13.7l-15.5,14l-12.5-3.6l4.6-15.4L98.9,6.1
						z M76.8,91.6l22.1-20l0,26.4L76.8,91.6z"/>
					<path class="st3" d="M160.2,120.2l7.3,24.5l3.5,0.5L131.3,12.1L101.2,1l0,119.3l3.7,1.4l0-21.7l25-7.3L160.2,120.2z M132.3,92
						l18-5.2l8.8,29.5L132.3,92z M140.2,53.2l0,0.2L124.4,58l-19.5-17.7l16-4.6L140.2,53.2z M123.3,35l10.6-3.1l5.2,17.4L123.3,35z
						 M141.2,56.6l6.8,22.8l-20.7-18.8L141.2,56.6z M104.9,36.8l0-15.7L118,33L104.9,36.8z M122,58.7l-17.1,5l0-20.5L122,58.7z
						 M104.9,67.2l20.1-5.8l24.3,22l0.1,0.2l-19.9,5.8L104.9,67.2L104.9,67.2z M128.3,13.2l4.6,15.4l-12.5,3.6l-15.5-14l0-13.7
						L128.3,13.2z M104.9,96.5l0-26.4l22.1,20L104.9,96.5z"/>
					<path class="st5" d="M158.9,121.7l7.3,24.5l2.6-0.4L130,13.5L99.9,2.5l0,119.3l3.7,1.4l0-21.7l25-7.3L158.9,121.7z M131,93.5
						l18-5.2l8.8,29.5L131,93.5z M139,54.7l0,0.2l-15.9,4.6l-19.5-17.7l16-4.6L139,54.7z M122,36.5l10.6-3.1l5.2,17.4L122,36.5z
						 M140,58.1l6.8,22.8l-20.7-18.8L140,58.1z M103.6,38.3l0-15.7l13.1,11.9L103.6,38.3z M120.8,60.2l-17.1,5l0-20.5L120.8,60.2z
						 M103.6,68.6l20.1-5.8l24.3,22l0.1,0.2l-19.9,5.8L103.6,68.6L103.6,68.6z M127.1,14.7l4.6,15.4l-12.5,3.6l-15.5-14l0-13.7
						L127.1,14.7z M103.6,98l0-26.4l22.1,20L103.6,98z"/>
					<path class="st1" d="M127.7,113.7l30.6,7.9l7.3,24.3l2.2,1.5l-40-136L99.1,23.2l0,150.8l3.7-1.6l0-27.6L127.7,113.7z
						 M102.8,140.4l0-33.2l22,5.7L102.8,140.4z M118.7,49.6l19.5,5l-16,20l-19.4-5v-0.2L118.7,49.6z M102.8,65.1l0-19.5l13,3.3
						L102.8,65.1z M119.8,77.7l-17,21.3l0-25.7L119.8,77.7z M121.1,46.6l10.8-13.4l5.3,17.6L121.1,46.6z M139.2,57.8l6.9,23l-21-5.4
						L139.2,57.8z M147.3,84.8L127.2,110l-24.4-6.3v-0.3l20-24.9L147.3,84.8L147.3,84.8z M126.3,14.6l4.6,15.3l-12.7,15.9l-15.4-4
						l0-17.4L126.3,14.6z M130.1,110.7L148.3,88l8.9,29.7L130.1,110.7z"/>
					<path class="st5" d="M129.9,115.2l30.6,7.9l7.3,24.3l3.7-1.6L131.5,12l-30.2,12.7l0,150.8l3.7-1.6l0-27.6L129.9,115.2z
						 M105,141.9l0-33.2l22,5.7L105,141.9z M120.9,51.1l19.5,5l-16,20l-19.4-5V71L120.9,51.1z M105,66.6l0-19.5l13,3.3L105,66.6z
						 M122,79.2l-17,21.3l0-25.7L122,79.2z M123.3,48.1l10.8-13.4l5.3,17.6L123.3,48.1z M141.5,59.4l6.9,23l-21-5.4L141.5,59.4z
						 M149.5,86.3l-20.1,25.2l-24.4-6.3v-0.3L125,80L149.5,86.3L149.5,86.3z M128.5,16.1l4.6,15.3l-12.7,15.9l-15.4-4l0-17.4
						L128.5,16.1z M132.3,112.2l18.2-22.7l8.9,29.7L132.3,112.2z"/>
					<path class="st5" d="M99.4,145l0,27.6l3.7,1.6l0-150.8L73.2,12L34.7,147.5l1.9-1.3l7.3-24.3l30.6-7.9L99.4,145z M77.4,113.1
						l22-5.7l0,33.2L77.4,113.1z M99.4,69.7v0.2l-19.4,5l-16-20l19.5-5L99.4,69.7z M86.4,49l13-3.3l0,19.5L86.4,49z M99.4,73.5
						l0,25.7l-17-21.3L99.4,73.5z M65.1,50.9l5.3-17.6l10.8,13.4L65.1,50.9z M77.1,75.6l-21,5.4L63,58L77.1,75.6z M54.9,85l24.6-6.3
						l20,24.9v0.3L75,110.1L54.9,85L54.9,85z M99.4,24.7l0,17.4L84,46L71.3,30.1l4.6-15.3L99.4,24.7z M45.1,117.9l8.9-29.7
						l18.2,22.7L45.1,117.9z"/>
					<path class="st1" d="M97.6,146.4l0,27.6l3.7,1.6l0-150.8L71.1,12L31,145.9l3.7,1.6l7.3-24.3l30.6-7.9L97.6,146.4z M75.6,114.5
						l22-5.7l0,33.2L75.6,114.5z M97.5,71v0.2l-19.4,5l-16-20l19.5-5L97.5,71z M84.6,50.4l13-3.3l0,19.5L84.6,50.4z M97.5,74.8
						l0,25.7l-17-21.3L97.5,74.8z M63.2,52.3l5.3-17.6l10.8,13.4L63.2,52.3z M75.2,77l-21,5.4l6.9-23L75.2,77z M53,86.3L77.6,80
						l20,24.9v0.3l-24.4,6.3L53,86.3L53,86.3z M97.5,26l0,17.4l-15.4,4L69.4,31.5L74,16.1L97.5,26z M43.2,119.2l8.9-29.7l18.2,22.7
						L43.2,119.2z"/>
					<polygon class="st6" points="71.1,12 101.2,24.7 131.5,12 101.2,1 					"/>
				</g>
				<g>
					<g>
						<g>
							<path class="st3" d="M77.2,66.1c0-2.1-5-3.8-11.2-3.8S54.7,64,54.7,66.1c0,2.1,5,6.1,11.2,6.1S77.2,68.2,77.2,66.1z"/>
							<path class="st4" d="M77.2,66.4c0-2.1-5-5.6-11.2-5.6s-11.2,3.5-11.2,5.6s5,3.8,11.2,3.8S77.2,68.6,77.2,66.4z"/>
						</g>
						<g>
							<path class="st3" d="M77.2,56.2c0-2.1-5-3.8-11.2-3.8s-11.2,1.7-11.2,3.8c0,1.1,5,6.1,11.2,6.1S77.2,58.3,77.2,56.2z"/>
							<path class="st4" d="M77.2,56.2c0-2.1-5-5.6-11.2-5.6s-11.2,3.5-11.2,5.6c0,2.1,5,3.8,11.2,3.8S77.2,58.3,77.2,56.2z"/>
						</g>
						<g>
							<path class="st3" d="M77.2,45.6c0-2.1-5-3.8-11.2-3.8s-11.2,1.7-11.2,3.8s5,6.1,11.2,6.1S77.2,47.7,77.2,45.6z"/>
							<path class="st4" d="M77.2,46c0-2.1-5-5.6-11.2-5.6S54.7,43.8,54.7,46c0,2.1,5,3.8,11.2,3.8S77.2,48.1,77.2,46z"/>
						</g>
					</g>
					<g>
						<g>
							<path class="st3" d="M56.9,73.1c0-2.1-5-3.8-11.2-3.8c-6.2,0-11.2,1.7-11.2,3.8c0,2.1,5,6.1,11.2,6.1
								C51.9,79.2,56.9,75.2,56.9,73.1z"/>
							<path class="st4" d="M56.9,73.1c0-2.1-5-5.6-11.2-5.6c-6.2,0-11.2,3.5-11.2,5.6c0,2.1,5,3.8,11.2,3.8
								C51.9,76.9,56.9,75.2,56.9,73.1z"/>
						</g>
						<g>
							<path class="st3" d="M56.9,62.4c0-2.1-5-3.8-11.2-3.8c-6.2,0-11.2,1.7-11.2,3.8c0,2.1,5,6.1,11.2,6.1
								C51.9,68.6,56.9,64.6,56.9,62.4z"/>
							<path class="st4" d="M56.9,62.8c0-2.1-5-5.6-11.2-5.6c-6.2,0-11.2,3.5-11.2,5.6s5,3.8,11.2,3.8
								C51.9,66.7,56.9,64.9,56.9,62.8z"/>
						</g>
						<g>
							<path class="st3" d="M56.9,52.6c0-2.1-5-3.8-11.2-3.8c-6.2,0-11.2,1.7-11.2,3.8s5,6.1,11.2,6.1
								C51.9,58.7,56.9,54.7,56.9,52.6z"/>
							<path class="st4" d="M56.9,52.6c0-2.1-5-5.6-11.2-5.6c-6.2,0-11.2,3.5-11.2,5.6s5,3.8,11.2,3.8
								C51.9,56.4,56.9,54.7,56.9,52.6z"/>
						</g>
					</g>
					<g>
						<g>
							<path class="st3" d="M36.6,79.7c0-2.1-5-3.8-11.2-3.8s-11.2,1.7-11.2,3.8c0,2.1,5,6.1,11.2,6.1S36.6,81.8,36.6,79.7z"/>
							<path class="st4" d="M36.6,79.7c0-2.1-5-5.6-11.2-5.6s-11.2,3.5-11.2,5.6c0,2.1,5,3.8,11.2,3.8S36.6,81.8,36.6,79.7z"/>
						</g>
						<g>
							<path class="st3" d="M36.6,69.4c0-2.1-5-3.8-11.2-3.8s-11.2,1.7-11.2,3.8c0,2.1,5,6.1,11.2,6.1S36.6,71.6,36.6,69.4z"/>
							<path class="st4" d="M36.6,69.4c0-2.1-5-5.6-11.2-5.6s-11.2,3.5-11.2,5.6c0,2.1,5,3.8,11.2,3.8S36.6,71.6,36.6,69.4z"/>
						</g>
						<g>
							<path class="st3" d="M36.6,59.2c0-2.1-5-3.8-11.2-3.8s-11.2,1.7-11.2,3.8c0,2.1,5,6.1,11.2,6.1S36.6,61.3,36.6,59.2z"/>
							<path class="st4" d="M36.6,59.2c0-2.1-5-5.6-11.2-5.6s-11.2,3.5-11.2,5.6c0,2.1,5,3.8,11.2,3.8S36.6,61.3,36.6,59.2z"/>
						</g>
					</g>
				</g>
				<path class="st5" d="M26.6,64.3L12,59.1v-2.8l53.5-24.8l36,10.8v4.2L26.6,64.3z M18.3,58.1l8.2,3l63-17.7l-22.7-7.7L18.3,58.1z"
					/>
				<path class="st5" d="M47.5,57.9c-1.1,0.4-2.3,0.8-3.4,1.2l-28.6,1.1c0-1.1,0-2.2,0.1-3.3l36.8-2.1c0,0.2,0.1,0.4,0.1,0.6
					C50.9,56.3,49.3,57.2,47.5,57.9z"/>
				<polygon class="st5" points="50.4,57.8 55.2,57.5 67.1,35.4 62.3,35.6 				"/>
				<polygon class="st5" points="97,42.7 92.9,47.1 35.3,49.3 37.9,46 				"/>
				<path class="st6" d="M26.6,61.5L12,56.4l53.5-26.1l35.7,12.1L26.6,61.5z M15.9,56.4l10.4,3.5l68-18.4l-27.4-9.3L15.9,56.4z"/>
				<polygon class="st6" points="50.4,54.4 55.2,54.1 67.1,32 62.3,32.2 				"/>
				<polygon class="st6" points="95.9,41 92.9,43.8 35.3,46.1 39.3,43.8 				"/>
				<path class="st6" d="M47.6,55.7l-32,1.2c0-0.3,0-0.7,0.1-1c0-0.3,0-0.6,0-0.9l0.4-0.2L52,53C52.2,53.8,47.6,55.7,47.6,55.7z"/>
			</g>
		</g>
		<g>
			<polygon class="st5" points="141.7,9.8 175.7,8.1 175.9,8.2 170.8,10.9 141.3,12.1 			"/>
		</g>
	</g>
</g>
</svg>
