<?xml version="1.0" encoding="utf-8"?>
<!-- Generator: Adobe Illustrator 24.3.0, SVG Export Plug-In . SVG Version: 6.00 Build 0)  -->
<svg version="1.1" id="Layer_1" xmlns="http://www.w3.org/2000/svg" xmlns:xlink="http://www.w3.org/1999/xlink" x="0px" y="0px"
	 viewBox="0 0 80 80" style="enable-background:new 0 0 80 80;" xml:space="preserve">
<g id="Layer_2_1_">
	<g id="Layer_1-2">
		<path d="M78.3,38.9h-27l-2.3-2c-2.6-2-2.8-5.9-0.5-8.4c0.3,0,0.3-0.3,0.5-0.5l2.3-1.8H53c1,0,1.5-1,1.5-1.8s-0.8-1.3-1.5-1.5h-2
			l-2-1.8c-2.6-2-2.8-5.9-0.5-8.4c0.3-0.3,0.3-0.5,0.5-0.5l2.3-2h12c1,0,1.8-0.8,1.5-1.8c0-0.8-0.8-1.5-1.5-1.5l0,0h-13l-3.1,2.6
			c-3.8,3.3-4.3,9.2-1,13c0.3,0.3,0.5,0.5,1,1l0.8,1l-1.3,1c-3.8,3.3-4.3,9.2-1,13c0.3,0.3,0.5,0.5,1,1l1.3,1l-1.3,1
			c-3.8,3.3-4.3,9.2-1,13c0.3,0.3,0.5,0.5,1,1l1.3,1l-1.3,1c-3.8,3.3-4.3,9.2-1,13c0.3,0.3,0.5,0.5,1,1l3.1,2.8h13
			c1,0,1.5-0.8,1.5-1.8S63.5,71,62.8,71H51.2l-2.3-2c-2.6-2-2.8-5.9-0.5-8.4c0.3-0.3,0.5-0.5,0.5-0.5l2-1.8h2c1,0,1.5-0.8,1.5-1.8
			S53.6,55,52.9,55h-1.8l-2.3-2c-2.6-2-2.8-5.9-0.5-8.4c0.3-0.3,0.5-0.5,0.5-0.5l2.3-2h27c1,0,1.5-0.8,1.5-1.5
			C80.1,39.6,79.3,38.9,78.3,38.9z"/>
		<path d="M36.7,16.4c0-2.8-1.3-5.1-3.1-6.9l-3.3-2.8h-13c-1,0-1.8,0.8-1.8,1.5l0,0c0,1,0.8,1.8,1.8,1.8h12l2.3,2
			c2.6,2,2.8,5.9,0.5,8.4c-0.3,0.3-0.5,0.5-0.5,0.5l-2,1.8h-2c-1,0-1.8,0.5-1.8,1.5s0.5,1.8,1.5,1.8c0.3,0,0.3,0,0.5,0h1.8l2.3,2
			c2.6,2,2.8,5.9,0.5,8.4c-0.3,0.3-0.5,0.5-0.5,0.5l-2.3,2H1.7c-1,0-1.5,0.8-1.5,1.5c0,1,0.8,1.8,1.5,1.8H29l2.3,2
			c2.6,2,2.8,5.9,0.5,8.4c-0.3,0.3-0.5,0.5-0.5,0.5L29,55.5h-1.8c-1,0-1.8,0.8-1.8,1.5c0,1,0.8,1.8,1.5,1.8l0,0h2l2,1.8
			c2.6,2,2.8,5.9,0.5,8.4c-0.3,0.3-0.5,0.5-0.5,0.5l-2.3,2H17.3c-1,0-1.8,0.8-1.8,1.5c0,1,0.8,1.8,1.5,1.8l0,0h13l3.1-2.8
			c3.8-3.3,4.3-9.2,1-13c-0.3-0.3-0.5-0.5-1-1l-1.3-1l1.3-1c3.8-3.3,4.3-9.2,1-13c-0.3-0.3-0.5-0.5-1-1l-1.3-1l1.3-1
			c3.8-3.3,4.3-9.2,1-13c-0.3-0.3-0.5-0.5-1-1l-0.8-1.3l1.3-1C35.7,21.8,36.7,19.2,36.7,16.4z"/>
	</g>
</g>
</svg>
