<?xml version="1.0" encoding="utf-8"?>
<!-- Generator: Adobe Illustrator 24.3.0, SVG Export Plug-In . SVG Version: 6.00 Build 0)  -->
<svg version="1.1" id="Layer_1" xmlns="http://www.w3.org/2000/svg" xmlns:xlink="http://www.w3.org/1999/xlink" x="0px" y="0px"
	 viewBox="0 0 80 80" style="enable-background:new 0 0 80 80;" xml:space="preserve">
<g id="Layer_2_1_">
	<g id="Layer_1-2">
		<path d="M72.5,15.5c-1,0-1.8,0.8-1.8,1.5l0,0v12l-2,2.3c-2.3,2.5-6.1,2.5-8.7,0.3l-0.3-0.3l-1.8-2v-2c0-1-0.8-1.8-1.5-1.8
			c-1,0-1.8,0.8-1.8,1.5l0,0v1.8l-2,2.3c-1,1.3-2.8,2-4.6,2l0,0c-1.8,0-3.3-0.8-4.3-2l-2-2.3v-27c0-1-0.8-1.8-1.5-1.8
			c-1,0-1.8,0.8-1.8,1.8V29l-2,2.3c-2.3,2.5-6.1,2.5-8.7,0.3l-0.3-0.3l-2-2.3v-1.8c0.5-0.8-0.3-1.5-1-1.5c-1,0-1.8,0.8-1.8,1.5l0,0
			v2l-1.8,2c-1,1.3-2.8,2-4.3,2l0,0c-1.8,0-3.3-0.8-4.6-2L9.8,29V17.3c0.3-1-0.5-1.8-1.5-1.8l0,0c-1,0-1.8,0.8-1.8,1.5l0,0v13
			l2.8,3.1c1.8,2,4.3,3.1,6.9,3.1l0,0c2.8,0,5.1-1.3,6.9-3.1l1-1.3l1,1.3c3.3,3.8,9.2,4.3,13,1c0.3-0.3,0.5-0.5,1-1l1-1.3l1,1.3
			c1.8,2,4.3,3.1,6.9,3.1l0,0c2.8,0,5.1-1.3,6.9-3.1l1-1.3l1,1.3c3.3,3.8,9.2,4.3,13,1c0.3-0.3,0.5-0.5,1-1l2.8-3.1V17.3
			C74.3,16.3,73.5,15.5,72.5,15.5L72.5,15.5z"/>
		<path d="M63.6,43.6c-2.8,0-5.4,1.3-6.9,3.1l-1,1.3l-1.3-1.3c-1.8-2-4.3-3.3-6.9-3.1l0,0c-2.8,0-5.4,1.3-6.9,3.1l-1,1.3l-1-1.3
			c-3.3-3.8-9.2-4.3-13-1c-0.3,0.3-0.5,0.5-1,1l-0.8,1.2l-1-1.3c-2-2-4.6-3.1-7.4-3.1l0,0c-2.8,0-5.4,1.3-6.9,3.1l-2.8,3.1v13
			c0,1,0.8,1.5,1.5,1.5c1,0,1.8-0.8,1.8-1.5V51.2l2-2.3c1-1.3,2.8-2,4.6-2l0,0c1.8,0,3.3,0.8,4.6,2l1.8,2v2c0,1,0.8,1.5,1.8,1.5
			s1.8-0.8,1.8-1.5v-1.8l1.8-2.3c2.3-2.5,6.1-2.5,8.7-0.3l0.3,0.3l2,2.3v27c0,1,0.8,1.8,1.5,1.8c1,0,1.8-0.8,1.8-1.8v-27l2-2.3
			c1-1.3,2.8-2,4.6-2l0,0c1.8,0,3.3,0.8,4.6,2l2,2.3V53c0,1,0.8,1.5,1.8,1.5s1.5-0.8,1.5-1.5v-2l1.8-2c2.3-2.5,6.1-2.5,8.7-0.3
			L69,49l2,2.3v12c0,1,0.8,1.5,1.8,1.5s1.5-0.8,1.5-1.5V49.9l-2.8-3.1C68.7,44.8,66.1,43.6,63.6,43.6z"/>
	</g>
</g>
</svg>
