<svg xmlns="http://www.w3.org/2000/svg" viewBox="0 0 26.48 31.31"><defs><style>.cls-1{fill:#dfe0e2;}</style></defs><title>Asset 72switch-vertical</title><g id="Layer_2" data-name="Layer 2"><g id="Layer_1-2" data-name="Layer 1"><path class="cls-1" d="M25.83,6a.65.65,0,0,0-.65.66v4.66l-.76.87a2.38,2.38,0,0,1-3.5,0l-.71-.82v-.76a.65.65,0,1,0-1.3,0v.71l-.76.87a2.31,2.31,0,0,1-1.75.8h0a2.31,2.31,0,0,1-1.75-.8l-.76-.87V.65a.65.65,0,0,0-1.3,0V11.33l-.76.87a2.38,2.38,0,0,1-3.5,0l-.75-.87v-.71A.66.66,0,0,0,6.92,10a.65.65,0,0,0-.65.66v.76l-.71.82a2.31,2.31,0,0,1-1.75.8h0a2.31,2.31,0,0,1-1.75-.8l-.75-.87V6.67A.66.66,0,0,0,.65,6,.65.65,0,0,0,0,6.67v5.14l1.07,1.25a3.65,3.65,0,0,0,2.74,1.25h0a3.65,3.65,0,0,0,2.74-1.25L7,12.6l.39.46a3.63,3.63,0,0,0,5.48,0l.42-.49.42.49a3.65,3.65,0,0,0,2.74,1.25h0a3.65,3.65,0,0,0,2.74-1.25l.4-.46.39.46a3.63,3.63,0,0,0,5.48,0l1.07-1.25V6.67A.65.65,0,0,0,25.83,6Z"/><path class="cls-1" d="M22.67,17a3.61,3.61,0,0,0-2.74,1.25l-.39.46-.4-.46A3.61,3.61,0,0,0,16.4,17h0a3.61,3.61,0,0,0-2.74,1.25l-.42.49-.42-.49a3.63,3.63,0,0,0-5.48,0L7,18.71l-.4-.46A3.61,3.61,0,0,0,3.81,17h0a3.61,3.61,0,0,0-2.74,1.25L0,19.49v5.15a.65.65,0,0,0,.65.65.66.66,0,0,0,.66-.65V20l.75-.88a2.35,2.35,0,0,1,1.75-.8h0a2.35,2.35,0,0,1,1.75.8l.71.82v.77a.65.65,0,0,0,.65.65.66.66,0,0,0,.66-.65V20l.75-.88a2.4,2.4,0,0,1,3.5,0l.76.88V30.65a.66.66,0,0,0,.65.66.67.67,0,0,0,.66-.66V20l.75-.88a2.35,2.35,0,0,1,1.75-.8h0a2.35,2.35,0,0,1,1.75.8l.76.88v.71a.65.65,0,0,0,1.3,0v-.76l.71-.83a2.4,2.4,0,0,1,3.5,0l.76.88v4.66a.65.65,0,0,0,1.3,0V19.49l-1.07-1.24A3.6,3.6,0,0,0,22.67,17Z"/></g></g></svg>