<?xml version="1.0" encoding="utf-8"?>
<!-- Generator: Adobe Illustrator 25.1.0, SVG Export Plug-In . SVG Version: 6.00 Build 0)  -->
<svg version="1.1" id="Layer_1" xmlns="http://www.w3.org/2000/svg" xmlns:xlink="http://www.w3.org/1999/xlink" x="0px" y="0px"
	 viewBox="0 0 200 200" style="enable-background:new 0 0 200 200;" xml:space="preserve">
<style type="text/css">
	.st0{fill:#FFFFFF;}
	.st1{fill:#FEFEFE;}
	.st2{fill:#FDFDFD;}
	.st3{fill:#FCFCFC;}
	.st4{fill:#FBFBFB;}
	.st5{fill:#FAFAFA;}
	.st6{fill:#F9F9F9;}
	.st7{fill:#F8F8F8;}
	.st8{fill:#F7F7F7;}
	.st9{fill:#F6F6F6;}
	.st10{fill:#F5F5F5;}
	.st11{fill:#F4F4F4;}
	.st12{fill:#F3F3F3;}
	.st13{fill:#F2F2F2;}
	.st14{fill:#F1F1F1;}
	.st15{fill:#F0F0F0;}
	.st16{fill:#EFEFEF;}
	.st17{fill:#EEEEEE;}
	.st18{fill:#EDEDED;}
	.st19{fill:#ECECEC;}
	.st20{fill:#EBEBEB;}
	.st21{fill:#EAEAEA;}
	.st22{fill:#E9E9E9;}
	.st23{fill:#E8E8E8;}
	.st24{fill:#E7E7E7;}
	.st25{fill:#E6E6E6;}
	.st26{fill:#E5E5E5;}
	.st27{fill:#E4E4E4;}
	.st28{fill:#E3E3E3;}
	.st29{fill:#E2E2E2;}
	.st30{fill:#E1E1E1;}
	.st31{fill:#E0E0E0;}
	.st32{fill:#DFDFDF;}
	.st33{fill:#DEDEDE;}
	.st34{fill:#DDDDDD;}
	.st35{fill:#DCDCDC;}
	.st36{fill:#DBDBDB;}
	.st37{fill:#DADADA;}
	.st38{fill:#D9D9D9;}
	.st39{fill:#D8D8D8;}
	.st40{fill:#D7D7D7;}
	.st41{fill:#D6D6D6;}
	.st42{fill:#D5D5D5;}
	.st43{fill:#D4D4D4;}
	.st44{fill:#D3D3D3;}
	.st45{fill:#D2D2D2;}
	.st46{fill:#D1D1D1;}
	.st47{fill:#D0D0D0;}
	.st48{fill:#CFCFCF;}
	.st49{fill:#CECECE;}
	.st50{fill:#CDCDCD;}
	.st51{fill:#CCCCCC;}
	.st52{fill:#CBCBCB;}
	.st53{fill:#CACACA;}
	.st54{fill:#C9C9C9;}
	.st55{fill:#C8C8C8;}
	.st56{fill:#C7C7C7;}
	.st57{fill:#C6C6C6;}
	.st58{fill:#C5C5C5;}
	.st59{fill:#C4C4C4;}
	.st60{fill:#C3C3C3;}
	.st61{fill:#C2C2C2;}
	.st62{fill:#C1C1C1;}
	.st63{fill:#C0C0C0;}
	.st64{fill:#BFBFBF;}
	.st65{fill:#BEBEBE;}
	.st66{fill:#BDBDBD;}
	.st67{fill:#BCBCBC;}
	.st68{fill:#BBBBBB;}
	.st69{fill:#BABABA;}
	.st70{fill:#B9B9B9;}
	.st71{fill:#B8B8B8;}
	.st72{fill:#B7B7B7;}
	.st73{fill:#B6B6B6;}
	.st74{fill:#B5B5B5;}
	.st75{fill:#B4B4B4;}
	.st76{fill:#B3B3B3;}
	.st77{fill:#B2B2B2;}
	.st78{fill:#B1B1B1;}
	.st79{fill:#B0B0B0;}
	.st80{fill:#AFAFAF;}
	.st81{fill:#AEAEAE;}
	.st82{fill:#ADADAD;}
	.st83{fill:#ACACAC;}
	.st84{fill:#ABABAB;}
	.st85{fill:#AAAAAA;}
	.st86{fill:#A9A9A9;}
	.st87{fill:#A8A8A8;}
	.st88{fill:#A7A7A7;}
	.st89{fill:#A6A6A6;}
	.st90{fill:#A5A5A5;}
	.st91{fill:#A4A4A4;}
	.st92{fill:#A3A3A3;}
	.st93{fill:#A2A2A2;}
	.st94{fill:#A1A1A1;}
	.st95{fill:#A0A0A0;}
	.st96{fill:#9F9F9F;}
	.st97{fill:#9E9E9E;}
	.st98{fill:#9D9D9D;}
	.st99{fill:#9C9C9C;}
	.st100{fill:#9B9B9B;}
	.st101{fill:#9A9A9A;}
	.st102{fill:#999999;}
	.st103{fill:#989898;}
	.st104{fill:#979797;}
	.st105{fill:#969696;}
	.st106{fill:#959595;}
	.st107{fill:#949494;}
	.st108{fill:#939393;}
	.st109{fill:#929292;}
	.st110{fill:#919191;}
	.st111{fill:#909090;}
	.st112{fill:#8F8F8F;}
	.st113{fill:#8E8E8E;}
	.st114{fill:#8D8D8D;}
	.st115{fill:#8C8C8C;}
	.st116{fill:#8B8B8B;}
	.st117{fill:#8A8A8A;}
	.st118{fill:#898989;}
	.st119{fill:#888888;}
	.st120{fill:#878787;}
	.st121{fill:#868686;}
	.st122{fill:#858585;}
	.st123{fill:#848484;}
	.st124{fill:#838383;}
	.st125{fill:#828282;}
	.st126{fill:#818181;}
	.st127{fill:#808080;}
	.st128{fill:#7F7F7F;}
	.st129{fill:#7E7E7E;}
	.st130{fill:#7D7D7D;}
	.st131{fill:#7C7C7C;}
	.st132{fill:#7B7B7B;}
	.st133{fill:#7A7A7A;}
	.st134{fill:#797979;}
	.st135{fill:#787878;}
	.st136{fill:#777777;}
	.st137{fill:#767676;}
	.st138{fill:#757575;}
	.st139{fill:#747474;}
	.st140{fill:#737373;}
	.st141{fill:#727272;}
	.st142{fill:#717171;}
	.st143{fill:#707070;}
	.st144{fill:#6F6F6F;}
	.st145{fill:#6E6E6E;}
	.st146{fill:#6D6D6D;}
	.st147{fill:#6C6C6C;}
	.st148{fill:#6B6B6B;}
	.st149{fill:#6A6A6A;}
	.st150{fill:#696969;}
	.st151{fill:#686868;}
	.st152{fill:#676767;}
	.st153{fill:#666666;}
	.st154{fill:#656565;}
	.st155{fill:#646464;}
	.st156{fill:#636363;}
	.st157{fill:#626262;}
	.st158{fill:#616161;}
	.st159{fill:#606060;}
	.st160{fill:#5F5F5F;}
	.st161{fill:#5E5E5E;}
	.st162{fill:#5D5D5D;}
	.st163{fill:#5C5C5C;}
	.st164{fill:#5B5B5B;}
	.st165{fill:#5A5A5A;}
	.st166{fill:#595959;}
	.st167{fill:#585858;}
	.st168{fill:#575757;}
	.st169{fill:#565656;}
	.st170{fill:#555555;}
	.st171{fill:#545454;}
	.st172{fill:#535353;}
	.st173{fill:#525252;}
	.st174{fill:#515151;}
	.st175{fill:#505050;}
	.st176{fill:#4F4F4F;}
	.st177{fill:#4E4E4E;}
	.st178{fill:#4D4D4D;}
	.st179{fill:#4C4C4C;}
	.st180{fill:#4B4B4B;}
	.st181{fill:#4A4A4A;}
	.st182{fill:#494949;}
	.st183{fill:#484848;}
	.st184{fill:#474747;}
	.st185{fill:#464646;}
	.st186{fill:#454545;}
	.st187{fill:#444444;}
	.st188{fill:#434343;}
	.st189{fill:#424242;}
	.st190{fill:#414141;}
	.st191{fill:#404040;}
	.st192{fill:#3F3F3F;}
	.st193{fill:#3E3E3E;}
	.st194{fill:#3D3D3D;}
	.st195{fill:#3C3C3C;}
	.st196{fill:#3B3B3B;}
	.st197{fill:#3A3A3A;}
	.st198{fill:#393939;}
	.st199{fill:#383838;}
	.st200{fill:#373737;}
	.st201{fill:#363636;}
	.st202{fill:#353535;}
	.st203{fill:#343434;}
	.st204{fill:#333333;}
	.st205{fill:#AAB7B7;}
	.st206{fill:#566472;}
	.st207{fill:#C1382A;}
	.st208{fill:#AF251E;}
	.st209{fill:#D35400;}
	.st210{fill:#F2D323;}
</style>
<g>
	<g>
		<polygon class="st0" points="0,159 89.4,112.5 107.5,121.9 146.5,101.8 200,129.6 161,149.7 168.4,153.6 79.1,200 		"/>
		<polygon class="st1" points="0.2,159 89.3,112.6 107.5,122 146.5,101.9 199.8,129.6 160.9,149.7 168.3,153.5 79.1,199.9 		"/>
		<polygon class="st2" points="0.3,158.9 89.3,112.7 107.5,122.1 146.5,102 199.7,129.6 160.7,149.7 168.1,153.5 79.1,199.8 		"/>
		<polygon class="st3" points="0.5,158.9 89.3,112.7 107.5,122.2 146.4,102.1 199.5,129.6 160.5,149.7 167.9,153.5 79.1,199.7 		"/>
		<polygon class="st4" points="0.7,158.9 89.3,112.8 107.5,122.2 146.4,102.1 199.3,129.6 160.3,149.7 167.8,153.5 79.1,199.6 		"/>
		<polygon class="st5" points="0.9,158.9 89.3,112.9 107.5,122.3 146.4,102.2 199.1,129.5 160.2,149.6 167.6,153.5 79.1,199.5 		"/>
		<polygon class="st6" points="1,158.9 89.3,113 107.4,122.4 146.4,102.3 199,129.5 160,149.6 167.4,153.5 79.1,199.4 		"/>
		<polygon class="st7" points="1.2,158.9 89.3,113 107.4,122.4 146.4,102.3 198.8,129.5 159.8,149.6 167.2,153.4 79.1,199.3 		"/>
		<polygon class="st8" points="1.4,158.8 89.3,113.1 107.4,122.5 146.4,102.4 198.6,129.5 159.7,149.6 167.1,153.4 79.1,199.2 		"/>
		<polygon class="st9" points="1.5,158.8 89.3,113.2 107.4,122.6 146.4,102.5 198.5,129.5 159.5,149.6 166.9,153.4 79.1,199 		"/>
		<polygon class="st10" points="1.7,158.8 89.3,113.3 107.4,122.6 146.4,102.6 198.3,129.5 159.3,149.6 166.7,153.4 79.1,198.9 		
			"/>
		<polygon class="st11" points="1.9,158.8 89.3,113.3 107.4,122.7 146.4,102.6 198.1,129.5 159.2,149.6 166.6,153.4 79.1,198.8 		
			"/>
		<polygon class="st12" points="2.1,158.8 89.3,113.4 107.4,122.8 146.4,102.7 197.9,129.5 159,149.5 166.4,153.4 79.1,198.7 		"/>
		<polygon class="st13" points="2.2,158.7 89.3,113.5 107.4,122.8 146.3,102.8 197.8,129.4 158.8,149.5 166.2,153.4 79.1,198.6 		
			"/>
		<polygon class="st14" points="2.4,158.7 89.3,113.5 107.4,122.9 146.3,102.8 197.6,129.4 158.6,149.5 166,153.3 79.1,198.5 		"/>
		<polygon class="st15" points="2.6,158.7 89.3,113.6 107.4,123 146.3,102.9 197.4,129.4 158.5,149.5 165.9,153.3 79.1,198.4 		"/>
		<polygon class="st16" points="2.7,158.7 89.3,113.7 107.4,123.1 146.3,103 197.3,129.4 158.3,149.5 165.7,153.3 79.1,198.3 		"/>
		<polygon class="st17" points="2.9,158.7 89.3,113.8 107.4,123.1 146.3,103 197.1,129.4 158.1,149.5 165.5,153.3 79.1,198.2 		"/>
		<polygon class="st18" points="3.1,158.7 89.3,113.8 107.3,123.2 146.3,103.1 196.9,129.4 158,149.4 165.3,153.3 79.1,198.1 		"/>
		<polygon class="st19" points="3.3,158.6 89.3,113.9 107.3,123.3 146.3,103.2 196.7,129.4 157.8,149.4 165.2,153.3 79.1,198 		"/>
		<polygon class="st20" points="3.4,158.6 89.3,114 107.3,123.3 146.3,103.3 196.6,129.3 157.6,149.4 165,153.2 79.1,197.9 		"/>
		<polygon class="st21" points="3.6,158.6 89.3,114.1 107.3,123.4 146.3,103.3 196.4,129.3 157.5,149.4 164.8,153.2 79.1,197.8 		
			"/>
		<polygon class="st22" points="3.8,158.6 89.3,114.1 107.3,123.5 146.3,103.4 196.2,129.3 157.3,149.4 164.7,153.2 79.1,197.7 		
			"/>
		<polygon class="st23" points="4,158.6 89.3,114.2 107.3,123.5 146.2,103.5 196.1,129.3 157.1,149.4 164.5,153.2 79.1,197.6 		"/>
		<polygon class="st24" points="4.1,158.6 89.3,114.3 107.3,123.6 146.2,103.5 195.9,129.3 156.9,149.4 164.3,153.2 79.1,197.5 		
			"/>
		<polygon class="st25" points="4.3,158.5 89.3,114.3 107.3,123.7 146.2,103.6 195.7,129.3 156.8,149.3 164.1,153.2 79.1,197.3 		
			"/>
		<polygon class="st26" points="4.5,158.5 89.3,114.4 107.3,123.7 146.2,103.7 195.5,129.3 156.6,149.3 164,153.2 79.1,197.2 		"/>
		<polygon class="st27" points="4.6,158.5 89.3,114.5 107.3,123.8 146.2,103.8 195.4,129.3 156.4,149.3 163.8,153.1 79.1,197.1 		
			"/>
		<polygon class="st28" points="4.8,158.5 89.3,114.6 107.3,123.9 146.2,103.8 195.2,129.2 156.3,149.3 163.6,153.1 79.1,197 		"/>
		<polygon class="st29" points="5,158.5 89.3,114.6 107.3,124 146.2,103.9 195,129.2 156.1,149.3 163.4,153.1 79.1,196.9 		"/>
		<polygon class="st30" points="5.2,158.4 89.3,114.7 107.2,124 146.2,104 194.9,129.2 155.9,149.3 163.3,153.1 79.1,196.8 		"/>
		<polygon class="st31" points="5.3,158.4 89.3,114.8 107.2,124.1 146.2,104 194.7,129.2 155.8,149.3 163.1,153.1 79.1,196.7 		"/>
		<polygon class="st32" points="5.5,158.4 89.3,114.9 107.2,124.2 146.2,104.1 194.5,129.2 155.6,149.2 162.9,153.1 79.1,196.6 		
			"/>
		<polygon class="st33" points="5.7,158.4 89.3,114.9 107.2,124.2 146.1,104.2 194.3,129.2 155.4,149.2 162.8,153 79.1,196.5 		"/>
		<polygon class="st34" points="5.8,158.4 89.3,115 107.2,124.3 146.1,104.2 194.2,129.2 155.2,149.2 162.6,153 79.1,196.4 		"/>
		<polygon class="st35" points="6,158.4 89.3,115.1 107.2,124.4 146.1,104.3 194,129.1 155.1,149.2 162.4,153 79.1,196.3 		"/>
		<polygon class="st36" points="6.2,158.3 89.3,115.1 107.2,124.4 146.1,104.4 193.8,129.1 154.9,149.2 162.2,153 79.1,196.2 		"/>
		<polygon class="st37" points="6.4,158.3 89.3,115.2 107.2,124.5 146.1,104.5 193.7,129.1 154.7,149.2 162.1,153 79.1,196.1 		"/>
		<polygon class="st38" points="6.5,158.3 89.3,115.3 107.2,124.6 146.1,104.5 193.5,129.1 154.6,149.2 161.9,153 79.1,196 		"/>
		<polygon class="st39" points="6.7,158.3 89.3,115.4 107.2,124.7 146.1,104.6 193.3,129.1 154.4,149.1 161.7,152.9 79.1,195.9 		
			"/>
		<polygon class="st40" points="6.9,158.3 89.3,115.4 107.2,124.7 146.1,104.7 193.1,129.1 154.2,149.1 161.6,152.9 79.2,195.8 		
			"/>
		<polygon class="st41" points="7,158.3 89.3,115.5 107.2,124.8 146.1,104.7 193,129.1 154.1,149.1 161.4,152.9 79.2,195.7 		"/>
		<polygon class="st42" points="7.2,158.2 89.3,115.6 107.1,124.9 146.1,104.8 192.8,129.1 153.9,149.1 161.2,152.9 79.2,195.5 		
			"/>
		<polygon class="st43" points="7.4,158.2 89.3,115.7 107.1,124.9 146,104.9 192.6,129 153.7,149.1 161,152.9 79.2,195.4 		"/>
		<polygon class="st44" points="7.6,158.2 89.3,115.7 107.1,125 146,104.9 192.5,129 153.6,149.1 160.9,152.9 79.2,195.3 		"/>
		<polygon class="st45" points="7.7,158.2 89.3,115.8 107.1,125.1 146,105 192.3,129 153.4,149.1 160.7,152.9 79.2,195.2 		"/>
		<polygon class="st46" points="7.9,158.2 89.3,115.9 107.1,125.1 146,105.1 192.1,129 153.2,149 160.5,152.8 79.2,195.1 		"/>
		<polygon class="st47" points="8.1,158.1 89.3,115.9 107.1,125.2 146,105.2 191.9,129 153,149 160.3,152.8 79.2,195 		"/>
		<polygon class="st48" points="8.2,158.1 89.3,116 107.1,125.3 146,105.2 191.8,129 152.9,149 160.2,152.8 79.2,194.9 		"/>
		<polygon class="st49" points="8.4,158.1 89.3,116.1 107.1,125.3 146,105.3 191.6,129 152.7,149 160,152.8 79.2,194.8 		"/>
		<polygon class="st50" points="8.6,158.1 89.3,116.2 107.1,125.4 146,105.4 191.4,128.9 152.5,149 159.8,152.8 79.2,194.7 		"/>
		<polygon class="st51" points="8.8,158.1 89.2,116.2 107.1,125.5 146,105.4 191.3,128.9 152.4,149 159.7,152.8 79.2,194.6 		"/>
		<polygon class="st52" points="8.9,158.1 89.2,116.3 107.1,125.6 146,105.5 191.1,128.9 152.2,149 159.5,152.7 79.2,194.5 		"/>
		<polygon class="st53" points="9.1,158 89.2,116.4 107.1,125.6 145.9,105.6 190.9,128.9 152,148.9 159.3,152.7 79.2,194.4 		"/>
		<polygon class="st54" points="9.3,158 89.2,116.5 107,125.7 145.9,105.7 190.7,128.9 151.9,148.9 159.1,152.7 79.2,194.3 		"/>
		<polygon class="st55" points="9.5,158 89.2,116.5 107,125.8 145.9,105.7 190.6,128.9 151.7,148.9 159,152.7 79.2,194.2 		"/>
		<polygon class="st56" points="9.6,158 89.2,116.6 107,125.8 145.9,105.8 190.4,128.9 151.5,148.9 158.8,152.7 79.2,194.1 		"/>
		<polygon class="st57" points="9.8,158 89.2,116.7 107,125.9 145.9,105.9 190.2,128.9 151.3,148.9 158.6,152.7 79.2,194 		"/>
		<polygon class="st58" points="10,158 89.2,116.7 107,126 145.9,105.9 190,128.8 151.2,148.9 158.4,152.6 79.2,193.8 		"/>
		<polygon class="st59" points="10.1,157.9 89.2,116.8 107,126 145.9,106 189.9,128.8 151,148.9 158.3,152.6 79.2,193.7 		"/>
		<polygon class="st60" points="10.3,157.9 89.2,116.9 107,126.1 145.9,106.1 189.7,128.8 150.8,148.8 158.1,152.6 79.2,193.6 		"/>
		<polygon class="st61" points="10.5,157.9 89.2,117 107,126.2 145.9,106.1 189.5,128.8 150.7,148.8 157.9,152.6 79.2,193.5 		"/>
		<polygon class="st62" points="10.7,157.9 89.2,117 107,126.2 145.9,106.2 189.4,128.8 150.5,148.8 157.8,152.6 79.2,193.4 		"/>
		<polygon class="st63" points="10.8,157.9 89.2,117.1 107,126.3 145.8,106.3 189.2,128.8 150.3,148.8 157.6,152.6 79.2,193.3 		"/>
		<polygon class="st64" points="11,157.8 89.2,117.2 107,126.4 145.8,106.4 189,128.8 150.2,148.8 157.4,152.6 79.2,193.2 		"/>
		<polygon class="st65" points="11.2,157.8 89.2,117.3 107,126.5 145.8,106.4 188.8,128.8 150,148.8 157.2,152.5 79.2,193.1 		"/>
		<polygon class="st66" points="11.3,157.8 89.2,117.3 106.9,126.5 145.8,106.5 188.7,128.7 149.8,148.8 157.1,152.5 79.2,193 		"/>
		<polygon class="st67" points="11.5,157.8 89.2,117.4 106.9,126.6 145.8,106.6 188.5,128.7 149.6,148.7 156.9,152.5 79.2,192.9 		
			"/>
		<polygon class="st68" points="11.7,157.8 89.2,117.5 106.9,126.7 145.8,106.6 188.3,128.7 149.5,148.7 156.7,152.5 79.2,192.8 		
			"/>
		<polygon class="st69" points="11.9,157.8 89.2,117.5 106.9,126.7 145.8,106.7 188.2,128.7 149.3,148.7 156.6,152.5 79.2,192.7 		
			"/>
		<polygon class="st70" points="12,157.7 89.2,117.6 106.9,126.8 145.8,106.8 188,128.7 149.1,148.7 156.4,152.5 79.2,192.6 		"/>
		<polygon class="st71" points="12.2,157.7 89.2,117.7 106.9,126.9 145.8,106.9 187.8,128.7 149,148.7 156.2,152.4 79.2,192.5 		"/>
		<polygon class="st72" points="12.4,157.7 89.2,117.8 106.9,126.9 145.8,106.9 187.6,128.7 148.8,148.7 156,152.4 79.2,192.4 		"/>
		<polygon class="st73" points="12.5,157.7 89.2,117.8 106.9,127 145.7,107 187.5,128.6 148.6,148.7 155.9,152.4 79.2,192.3 		"/>
		<polygon class="st74" points="12.7,157.7 89.2,117.9 106.9,127.1 145.7,107.1 187.3,128.6 148.5,148.6 155.7,152.4 79.2,192.2 		
			"/>
		<polygon class="st75" points="12.9,157.6 89.2,118 106.9,127.2 145.7,107.1 187.1,128.6 148.3,148.6 155.5,152.4 79.2,192 		"/>
		<polygon class="st76" points="13.1,157.6 89.2,118.1 106.9,127.2 145.7,107.2 187,128.6 148.1,148.6 155.3,152.4 79.2,191.9 		"/>
		<polygon class="st77" points="13.2,157.6 89.2,118.1 106.9,127.3 145.7,107.3 186.8,128.6 147.9,148.6 155.2,152.4 79.2,191.8 		
			"/>
		<polygon class="st78" points="13.4,157.6 89.2,118.2 106.8,127.4 145.7,107.3 186.6,128.6 147.8,148.6 155,152.3 79.2,191.7 		"/>
		<polygon class="st79" points="13.6,157.6 89.2,118.3 106.8,127.4 145.7,107.4 186.4,128.6 147.6,148.6 154.8,152.3 79.2,191.6 		
			"/>
		<polygon class="st80" points="13.7,157.6 89.2,118.3 106.8,127.5 145.7,107.5 186.3,128.6 147.4,148.6 154.7,152.3 79.2,191.5 		
			"/>
		<polygon class="st81" points="13.9,157.5 89.2,118.4 106.8,127.6 145.7,107.6 186.1,128.5 147.3,148.5 154.5,152.3 79.2,191.4 		
			"/>
		<polygon class="st82" points="14.1,157.5 89.2,118.5 106.8,127.6 145.7,107.6 185.9,128.5 147.1,148.5 154.3,152.3 79.2,191.3 		
			"/>
		<polygon class="st83" points="14.3,157.5 89.2,118.6 106.8,127.7 145.6,107.7 185.8,128.5 146.9,148.5 154.1,152.3 79.2,191.2 		
			"/>
		<polygon class="st84" points="14.4,157.5 89.2,118.6 106.8,127.8 145.6,107.8 185.6,128.5 146.8,148.5 154,152.2 79.2,191.1 		"/>
		<polygon class="st85" points="14.6,157.5 89.2,118.7 106.8,127.8 145.6,107.8 185.4,128.5 146.6,148.5 153.8,152.2 79.2,191 		"/>
		<polygon class="st86" points="14.8,157.5 89.2,118.8 106.8,127.9 145.6,107.9 185.2,128.5 146.4,148.5 153.6,152.2 79.2,190.9 		
			"/>
		<polygon class="st87" points="15,157.4 89.2,118.9 106.8,128 145.6,108 185.1,128.5 146.2,148.5 153.4,152.2 79.2,190.8 		"/>
		<polygon class="st88" points="15.1,157.4 89.2,118.9 106.8,128.1 145.6,108.1 184.9,128.4 146.1,148.4 153.3,152.2 79.2,190.7 		
			"/>
		<polygon class="st89" points="15.3,157.4 89.2,119 106.8,128.1 145.6,108.1 184.7,128.4 145.9,148.4 153.1,152.2 79.2,190.6 		"/>
		<polygon class="st90" points="15.5,157.4 89.2,119.1 106.8,128.2 145.6,108.2 184.6,128.4 145.7,148.4 152.9,152.1 79.2,190.5 		
			"/>
		<polygon class="st91" points="15.6,157.4 89.2,119.1 106.7,128.3 145.6,108.3 184.4,128.4 145.6,148.4 152.8,152.1 79.2,190.3 		
			"/>
		<polygon class="st92" points="15.8,157.3 89.2,119.2 106.7,128.3 145.6,108.3 184.2,128.4 145.4,148.4 152.6,152.1 79.2,190.2 		
			"/>
		<polygon class="st93" points="16,157.3 89.2,119.3 106.7,128.4 145.5,108.4 184,128.4 145.2,148.4 152.4,152.1 79.2,190.1 		"/>
		<polygon class="st94" points="16.2,157.3 89.2,119.4 106.7,128.5 145.5,108.5 183.9,128.4 145.1,148.4 152.2,152.1 79.2,190 		"/>
		<polygon class="st95" points="16.3,157.3 89.2,119.4 106.7,128.5 145.5,108.5 183.7,128.4 144.9,148.3 152.1,152.1 79.2,189.9 		
			"/>
		<polygon class="st96" points="16.5,157.3 89.2,119.5 106.7,128.6 145.5,108.6 183.5,128.3 144.7,148.3 151.9,152.1 79.2,189.8 		
			"/>
		<polygon class="st97" points="16.7,157.3 89.2,119.6 106.7,128.7 145.5,108.7 183.4,128.3 144.5,148.3 151.7,152 79.2,189.7 		"/>
		<polygon class="st98" points="16.8,157.2 89.2,119.7 106.7,128.8 145.5,108.8 183.2,128.3 144.4,148.3 151.6,152 79.2,189.6 		"/>
		<polygon class="st99" points="17,157.2 89.2,119.7 106.7,128.8 145.5,108.8 183,128.3 144.2,148.3 151.4,152 79.2,189.5 		"/>
		<polygon class="st100" points="17.2,157.2 89.2,119.8 106.7,128.9 145.5,108.9 182.8,128.3 144,148.3 151.2,152 79.2,189.4 		"/>
		<polygon class="st101" points="17.4,157.2 89.2,119.9 106.7,129 145.5,109 182.7,128.3 143.9,148.3 151,152 79.2,189.3 		"/>
		<polygon class="st102" points="17.5,157.2 89.1,119.9 106.7,129 145.5,109 182.5,128.3 143.7,148.2 150.9,152 79.2,189.2 		"/>
		<polygon class="st103" points="17.7,157.2 89.1,120 106.6,129.1 145.4,109.1 182.3,128.2 143.5,148.2 150.7,151.9 79.2,189.1 		
			"/>
		<polygon class="st104" points="17.9,157.1 89.1,120.1 106.6,129.2 145.4,109.2 182.2,128.2 143.4,148.2 150.5,151.9 79.2,189 		
			"/>
		<polygon class="st105" points="18,157.1 89.1,120.2 106.6,129.2 145.4,109.3 182,128.2 143.2,148.2 150.3,151.9 79.2,188.9 		"/>
		<polygon class="st106" points="18.2,157.1 89.1,120.2 106.6,129.3 145.4,109.3 181.8,128.2 143,148.2 150.2,151.9 79.2,188.8 		
			"/>
		<polygon class="st107" points="18.4,157.1 89.1,120.3 106.6,129.4 145.4,109.4 181.6,128.2 142.9,148.2 150,151.9 79.3,188.7 		
			"/>
		<polygon class="st108" points="18.6,157.1 89.1,120.4 106.6,129.4 145.4,109.5 181.5,128.2 142.7,148.2 149.8,151.9 79.3,188.5 		
			"/>
		<polygon class="st109" points="18.7,157 89.1,120.5 106.6,129.5 145.4,109.5 181.3,128.2 142.5,148.1 149.7,151.9 79.3,188.4 		
			"/>
		<polygon class="st110" points="18.9,157 89.1,120.5 106.6,129.6 145.4,109.6 181.1,128.2 142.3,148.1 149.5,151.8 79.3,188.3 		
			"/>
		<polygon class="st111" points="19.1,157 89.1,120.6 106.6,129.7 145.4,109.7 181,128.1 142.2,148.1 149.3,151.8 79.3,188.2 		"/>
		<polygon class="st112" points="19.2,157 89.1,120.7 106.6,129.7 145.4,109.7 180.8,128.1 142,148.1 149.1,151.8 79.3,188.1 		"/>
		<polygon class="st113" points="19.4,157 89.1,120.7 106.6,129.8 145.3,109.8 180.6,128.1 141.8,148.1 149,151.8 79.3,188 		"/>
		<polygon class="st114" points="19.6,157 89.1,120.8 106.6,129.9 145.3,109.9 180.4,128.1 141.7,148.1 148.8,151.8 79.3,187.9 		
			"/>
		<polygon class="st115" points="19.8,156.9 89.1,120.9 106.5,129.9 145.3,110 180.3,128.1 141.5,148.1 148.6,151.8 79.3,187.8 		
			"/>
		<polygon class="st116" points="19.9,156.9 89.1,121 106.5,130 145.3,110 180.1,128.1 141.3,148 148.4,151.7 79.3,187.7 		"/>
		<polygon class="st117" points="20.1,156.9 89.1,121 106.5,130.1 145.3,110.1 179.9,128.1 141.2,148 148.3,151.7 79.3,187.6 		"/>
		<polygon class="st118" points="20.3,156.9 89.1,121.1 106.5,130.1 145.3,110.2 179.8,128 141,148 148.1,151.7 79.3,187.5 		"/>
		<polygon class="st119" points="20.5,156.9 89.1,121.2 106.5,130.2 145.3,110.2 179.6,128 140.8,148 147.9,151.7 79.3,187.4 		"/>
		<polygon class="st120" points="20.6,156.9 89.1,121.3 106.5,130.3 145.3,110.3 179.4,128 140.6,148 147.8,151.7 79.3,187.3 		"/>
		<polygon class="st121" points="20.8,156.8 89.1,121.3 106.5,130.3 145.3,110.4 179.2,128 140.5,148 147.6,151.7 79.3,187.2 		"/>
		<polygon class="st122" points="21,156.8 89.1,121.4 106.5,130.4 145.3,110.5 179.1,128 140.3,148 147.4,151.6 79.3,187.1 		"/>
		<polygon class="st123" points="21.1,156.8 89.1,121.5 106.5,130.5 145.2,110.5 178.9,128 140.1,147.9 147.2,151.6 79.3,187 		"/>
		<polygon class="st124" points="21.3,156.8 89.1,121.5 106.5,130.6 145.2,110.6 178.7,128 140,147.9 147.1,151.6 79.3,186.8 		"/>
		<polygon class="st125" points="21.5,156.8 89.1,121.6 106.5,130.6 145.2,110.7 178.6,128 139.8,147.9 146.9,151.6 79.3,186.7 		
			"/>
		<polygon class="st126" points="21.7,156.7 89.1,121.7 106.5,130.7 145.2,110.7 178.4,127.9 139.6,147.9 146.7,151.6 79.3,186.6 		
			"/>
		<polygon class="st127" points="21.8,156.7 89.1,121.8 106.4,130.8 145.2,110.8 178.2,127.9 139.5,147.9 146.6,151.6 79.3,186.5 		
			"/>
		<polygon class="st128" points="22,156.7 89.1,121.8 106.4,130.8 145.2,110.9 178,127.9 139.3,147.9 146.4,151.6 79.3,186.4 		"/>
		<polygon class="st129" points="22.2,156.7 89.1,121.9 106.4,130.9 145.2,110.9 177.9,127.9 139.1,147.9 146.2,151.5 79.3,186.3 		
			"/>
		<polygon class="st130" points="22.3,156.7 89.1,122 106.4,131 145.2,111 177.7,127.9 138.9,147.8 146,151.5 79.3,186.2 		"/>
		<polygon class="st131" points="22.5,156.7 89.1,122.1 106.4,131 145.2,111.1 177.5,127.9 138.8,147.8 145.9,151.5 79.3,186.1 		
			"/>
		<polygon class="st132" points="22.7,156.6 89.1,122.1 106.4,131.1 145.2,111.2 177.4,127.9 138.6,147.8 145.7,151.5 79.3,186 		
			"/>
		<polygon class="st133" points="22.9,156.6 89.1,122.2 106.4,131.2 145.1,111.2 177.2,127.9 138.4,147.8 145.5,151.5 79.3,185.9 		
			"/>
		<polygon class="st134" points="23,156.6 89.1,122.3 106.4,131.3 145.1,111.3 177,127.8 138.3,147.8 145.3,151.5 79.3,185.8 		"/>
		<polygon class="st135" points="23.2,156.6 89.1,122.3 106.4,131.3 145.1,111.4 176.8,127.8 138.1,147.8 145.2,151.4 79.3,185.7 		
			"/>
		<polygon class="st136" points="23.4,156.6 89.1,122.4 106.4,131.4 145.1,111.4 176.7,127.8 137.9,147.8 145,151.4 79.3,185.6 		
			"/>
		<polygon class="st137" points="23.5,156.6 89.1,122.5 106.4,131.5 145.1,111.5 176.5,127.8 137.8,147.7 144.8,151.4 79.3,185.5 		
			"/>
		<polygon class="st138" points="23.7,156.5 89.1,122.6 106.4,131.5 145.1,111.6 176.3,127.8 137.6,147.7 144.7,151.4 79.3,185.4 		
			"/>
		<polygon class="st139" points="23.9,156.5 89.1,122.6 106.3,131.6 145.1,111.7 176.2,127.8 137.4,147.7 144.5,151.4 79.3,185.3 		
			"/>
		<polygon class="st140" points="24.1,156.5 89.1,122.7 106.3,131.7 145.1,111.7 176,127.8 137.2,147.7 144.3,151.4 79.3,185.2 		
			"/>
		<polygon class="st141" points="24.2,156.5 89.1,122.8 106.3,131.7 145.1,111.8 175.8,127.7 137.1,147.7 144.1,151.3 79.3,185 		
			"/>
		<polygon class="st142" points="24.4,156.5 89.1,122.9 106.3,131.8 145.1,111.9 175.6,127.7 136.9,147.7 144,151.3 79.3,184.9 		
			"/>
		<polygon class="st143" points="24.6,156.4 89.1,122.9 106.3,131.9 145,111.9 175.5,127.7 136.7,147.7 143.8,151.3 79.3,184.8 		
			"/>
		<polygon class="st144" points="24.7,156.4 89.1,123 106.3,131.9 145,112 175.3,127.7 136.6,147.6 143.6,151.3 79.3,184.7 		"/>
		<polygon class="st145" points="24.9,156.4 89.1,123.1 106.3,132 145,112.1 175.1,127.7 136.4,147.6 143.4,151.3 79.3,184.6 		"/>
		<polygon class="st146" points="25.1,156.4 89.1,123.1 106.3,132.1 145,112.1 175,127.7 136.2,147.6 143.3,151.3 79.3,184.5 		"/>
		<polygon class="st147" points="25.3,156.4 89.1,123.2 106.3,132.2 145,112.2 174.8,127.7 136.1,147.6 143.1,151.3 79.3,184.4 		
			"/>
		<polygon class="st148" points="25.4,156.4 89.1,123.3 106.3,132.2 145,112.3 174.6,127.7 135.9,147.6 142.9,151.2 79.3,184.3 		
			"/>
		<polygon class="st149" points="25.6,156.3 89.1,123.4 106.3,132.3 145,112.4 174.4,127.6 135.7,147.6 142.8,151.2 79.3,184.2 		
			"/>
		<polygon class="st150" points="25.8,156.3 89.1,123.4 106.3,132.4 145,112.4 174.3,127.6 135.5,147.6 142.6,151.2 79.3,184.1 		
			"/>
		<polygon class="st151" points="26,156.3 89.1,123.5 106.2,132.4 145,112.5 174.1,127.6 135.4,147.5 142.4,151.2 79.3,184 		"/>
		<polygon class="st152" points="26.1,156.3 89,123.6 106.2,132.5 145,112.6 173.9,127.6 135.2,147.5 142.2,151.2 79.3,183.9 		"/>
		<polygon class="st153" points="26.3,156.3 89,123.7 106.2,132.6 144.9,112.6 173.8,127.6 135,147.5 142.1,151.2 79.3,183.8 		"/>
		<polygon class="st154" points="26.5,156.3 89,123.7 106.2,132.6 144.9,112.7 173.6,127.6 134.9,147.5 141.9,151.1 79.3,183.7 		
			"/>
		<polygon class="st155" points="26.6,156.2 89,123.8 106.2,132.7 144.9,112.8 173.4,127.6 134.7,147.5 141.7,151.1 79.3,183.6 		
			"/>
		<polygon class="st156" points="26.8,156.2 89,123.9 106.2,132.8 144.9,112.9 173.2,127.5 134.5,147.5 141.6,151.1 79.3,183.5 		
			"/>
		<polygon class="st157" points="27,156.2 89,123.9 106.2,132.8 144.9,112.9 173.1,127.5 134.4,147.5 141.4,151.1 79.3,183.4 		"/>
		<polygon class="st158" points="27.2,156.2 89,124 106.2,132.9 144.9,113 172.9,127.5 134.2,147.4 141.2,151.1 79.3,183.2 		"/>
		<polygon class="st159" points="27.3,156.2 89,124.1 106.2,133 144.9,113.1 172.7,127.5 134,147.4 141,151.1 79.3,183.1 		"/>
		<polygon class="st160" points="27.5,156.1 89,124.2 106.2,133.1 144.9,113.1 172.6,127.5 133.8,147.4 140.9,151.1 79.3,183 		"/>
		<polygon class="st161" points="27.7,156.1 89,124.2 106.2,133.1 144.9,113.2 172.4,127.5 133.7,147.4 140.7,151 79.3,182.9 		"/>
		<polygon class="st162" points="27.8,156.1 89,124.3 106.2,133.2 144.9,113.3 172.2,127.5 133.5,147.4 140.5,151 79.3,182.8 		"/>
		<polygon class="st163" points="28,156.1 89,124.4 106.1,133.3 144.8,113.3 172,127.5 133.3,147.4 140.3,151 79.3,182.7 		"/>
		<polygon class="st164" points="28.2,156.1 89,124.5 106.1,133.3 144.8,113.4 171.9,127.4 133.2,147.4 140.2,151 79.3,182.6 		"/>
		<polygon class="st165" points="28.4,156.1 89,124.5 106.1,133.4 144.8,113.5 171.7,127.4 133,147.3 140,151 79.3,182.5 		"/>
		<polygon class="st166" points="28.5,156 89,124.6 106.1,133.5 144.8,113.6 171.5,127.4 132.8,147.3 139.8,151 79.3,182.4 		"/>
		<polygon class="st167" points="28.7,156 89,124.7 106.1,133.5 144.8,113.6 171.3,127.4 132.7,147.3 139.7,150.9 79.3,182.3 		"/>
		<polygon class="st168" points="28.9,156 89,124.7 106.1,133.6 144.8,113.7 171.2,127.4 132.5,147.3 139.5,150.9 79.3,182.2 		"/>
		<polygon class="st169" points="29,156 89,124.8 106.1,133.7 144.8,113.8 171,127.4 132.3,147.3 139.3,150.9 79.3,182.1 		"/>
		<polygon class="st170" points="29.2,156 89,124.9 106.1,133.8 144.8,113.8 170.8,127.4 132.2,147.3 139.1,150.9 79.3,182 		"/>
		<polygon class="st171" points="29.4,156 89,125 106.1,133.8 144.8,113.9 170.7,127.3 132,147.3 139,150.9 79.3,181.9 		"/>
		<polygon class="st172" points="29.6,155.9 89,125 106.1,133.9 144.8,114 170.5,127.3 131.8,147.2 138.8,150.9 79.3,181.8 		"/>
		<polygon class="st173" points="29.7,155.9 89,125.1 106.1,134 144.7,114.1 170.3,127.3 131.6,147.2 138.6,150.8 79.3,181.7 		"/>
		<polygon class="st174" points="29.9,155.9 89,125.2 106.1,134 144.7,114.1 170.1,127.3 131.5,147.2 138.4,150.8 79.4,181.5 		"/>
		<polygon class="st175" points="30.1,155.9 89,125.3 106,134.1 144.7,114.2 170,127.3 131.3,147.2 138.3,150.8 79.4,181.4 		"/>
		<polygon class="st176" points="30.2,155.9 89,125.3 106,134.2 144.7,114.3 169.8,127.3 131.1,147.2 138.1,150.8 79.4,181.3 		"/>
		<polygon class="st177" points="30.4,155.8 89,125.4 106,134.2 144.7,114.3 169.6,127.3 131,147.2 137.9,150.8 79.4,181.2 		"/>
		<polygon class="st178" points="30.6,155.8 89,125.5 106,134.3 144.7,114.4 169.5,127.3 130.8,147.2 137.8,150.8 79.4,181.1 		"/>
		<polygon class="st179" points="30.8,155.8 89,125.5 106,134.4 144.7,114.5 169.3,127.2 130.6,147.1 137.6,150.8 79.4,181 		"/>
		<polygon class="st180" points="30.9,155.8 89,125.6 106,134.4 144.7,114.5 169.1,127.2 130.5,147.1 137.4,150.7 79.4,180.9 		"/>
		<polygon class="st181" points="31.1,155.8 89,125.7 106,134.5 144.7,114.6 168.9,127.2 130.3,147.1 137.2,150.7 79.4,180.8 		"/>
		<polygon class="st182" points="31.3,155.8 89,125.8 106,134.6 144.7,114.7 168.8,127.2 130.1,147.1 137.1,150.7 79.4,180.7 		"/>
		<polygon class="st183" points="31.5,155.7 89,125.8 106,134.7 144.6,114.8 168.6,127.2 129.9,147.1 136.9,150.7 79.4,180.6 		"/>
		<polygon class="st184" points="31.6,155.7 89,125.9 106,134.7 144.6,114.8 168.4,127.2 129.8,147.1 136.7,150.7 79.4,180.5 		"/>
		<polygon class="st185" points="31.8,155.7 89,126 106,134.8 144.6,114.9 168.3,127.2 129.6,147.1 136.6,150.7 79.4,180.4 		"/>
		<polygon class="st186" points="32,155.7 89,126.1 106,134.9 144.6,115 168.1,127.1 129.4,147 136.4,150.6 79.4,180.3 		"/>
		<polygon class="st187" points="32.1,155.7 89,126.1 105.9,134.9 144.6,115 167.9,127.1 129.3,147 136.2,150.6 79.4,180.2 		"/>
		<polygon class="st188" points="32.3,155.7 89,126.2 105.9,135 144.6,115.1 167.7,127.1 129.1,147 136,150.6 79.4,180.1 		"/>
		<polygon class="st189" points="32.5,155.6 89,126.3 105.9,135.1 144.6,115.2 167.6,127.1 128.9,147 135.9,150.6 79.4,180 		"/>
		<polygon class="st190" points="32.7,155.6 89,126.3 105.9,135.1 144.6,115.3 167.4,127.1 128.8,147 135.7,150.6 79.4,179.9 		"/>
		<polygon class="st191" points="32.8,155.6 89,126.4 105.9,135.2 144.6,115.3 167.2,127.1 128.6,147 135.5,150.6 79.4,179.7 		"/>
		<polygon class="st192" points="33,155.6 89,126.5 105.9,135.3 144.5,115.4 167.1,127.1 128.4,147 135.3,150.6 79.4,179.6 		"/>
		<polygon class="st193" points="33.2,155.6 89,126.6 105.9,135.3 144.5,115.5 166.9,127.1 128.2,146.9 135.2,150.5 79.4,179.5 		
			"/>
		<polygon class="st194" points="33.3,155.5 89,126.6 105.9,135.4 144.5,115.5 166.7,127 128.1,146.9 135,150.5 79.4,179.4 		"/>
		<polygon class="st195" points="33.5,155.5 89,126.7 105.9,135.5 144.5,115.6 166.5,127 127.9,146.9 134.8,150.5 79.4,179.3 		"/>
		<polygon class="st196" points="33.7,155.5 89,126.8 105.9,135.6 144.5,115.7 166.4,127 127.7,146.9 134.7,150.5 79.4,179.2 		"/>
		<polygon class="st197" points="33.9,155.5 89,126.9 105.9,135.6 144.5,115.7 166.2,127 127.6,146.9 134.5,150.5 79.4,179.1 		"/>
		<polygon class="st198" points="34,155.5 89,126.9 105.9,135.7 144.5,115.8 166,127 127.4,146.9 134.3,150.5 79.4,179 		"/>
		<polygon class="st199" points="34.2,155.5 89,127 105.8,135.8 144.5,115.9 165.9,127 127.2,146.9 134.1,150.4 79.4,178.9 		"/>
		<polygon class="st200" points="34.4,155.4 89,127.1 105.8,135.8 144.5,116 165.7,127 127.1,146.8 134,150.4 79.4,178.8 		"/>
		<polygon class="st201" points="34.5,155.4 89,127.1 105.8,135.9 144.5,116 165.5,127 126.9,146.8 133.8,150.4 79.4,178.7 		"/>
		<polygon class="st202" points="34.7,155.4 88.9,127.2 105.8,136 144.4,116.1 165.3,126.9 126.7,146.8 133.6,150.4 79.4,178.6 		
			"/>
		<polygon class="st203" points="34.9,155.4 88.9,127.3 105.8,136 144.4,116.2 165.2,126.9 126.5,146.8 133.4,150.4 79.4,178.5 		
			"/>
		<polygon class="st204" points="35.1,155.4 88.9,127.4 105.8,136.1 144.4,116.2 165,126.9 126.4,146.8 133.3,150.4 79.4,178.4 		
			"/>
	</g>
	<g>
		<polygon class="st205" points="144.3,148 144.3,107.3 181.7,87.8 181.7,128.6 		"/>
		<polygon class="st36" points="144.3,148 144.3,107.3 112.6,90.9 112.6,131.6 		"/>
		<polygon class="st18" points="181.7,87.8 144.3,107.3 112.6,90.9 150.1,71.4 		"/>
		<g>
			<polygon class="st205" points="78,191 78,176.8 151.5,138.5 151.5,152.8 			"/>
			<polygon class="st36" points="78,191 78,176.8 15.8,144.5 15.8,158.8 			"/>
			<polygon class="st18" points="151.5,138.5 78,176.8 15.8,144.5 89.4,106.3 			"/>
		</g>
		<g>
			<g>
				<g>
					<g>
						<path class="st206" d="M114.3,125.9c0-0.1,0-30,0-30.1c-0.3-5.1-8.5-0.3-18.5-0.3c-9.6,0-17.6-4.1-18.5,0.7c0,0,0,29.4,0,29.7
							c0,5.2,8.3,9.5,18.5,9.5C106,135.4,114.3,131.1,114.3,125.9z"/>
						<path class="st205" d="M114.3,120.8c0-0.1,0-30,0-30.1c-0.3-5.1-8.5-0.3-18.5-0.3c-9.6,0-17.6-4.1-18.5,0.7c0,0,0,29.4,0,29.7
							c0,5.2,8.3,9.5,18.5,9.5C106,130.3,114.3,126.1,114.3,120.8z"/>
						<path class="st18" d="M114.3,90.7c0-5.2-8.3-9.5-18.5-9.5c-10.2,0-18.5,4.3-18.5,9.5c0,5.2,8.3,9.5,18.5,9.5
							C106,100.2,114.3,95.9,114.3,90.7z"/>
					</g>
				</g>
			</g>
			<g>
				<g>
					<g>
						<path class="st206" d="M94.2,136.2c0-0.1,0-30,0-30.1c-0.3-5.1-8.5-0.3-18.5-0.3c-9.6,0-17.6-4.1-18.5,0.7c0,0,0,29.4,0,29.7
							c0,5.2,8.3,9.5,18.5,9.5S94.2,141.4,94.2,136.2z"/>
						<path class="st205" d="M94.2,131.1c0-0.1,0-30,0-30.1c-0.3-5.1-8.5-0.3-18.5-0.3c-9.6,0-17.6-4.1-18.5,0.7c0,0,0,29.4,0,29.7
							c0,5.2,8.3,9.5,18.5,9.5S94.2,136.3,94.2,131.1z"/>
						<path class="st18" d="M94.2,101c0-5.2-8.3-9.5-18.5-9.5s-18.5,4.3-18.5,9.5c0,5.2,8.3,9.5,18.5,9.5S94.2,106.2,94.2,101z"/>
					</g>
				</g>
			</g>
			<g>
				<g>
					<g>
						<path class="st206" d="M74,146.4c0-0.1,0-30,0-30.1c-0.3-5.1-8.5-0.3-18.5-0.3c-9.6,0-17.6-4.1-18.5,0.7c0,0,0,29.4,0,29.7
							c0,5.2,8.3,9.5,18.5,9.5S74,151.7,74,146.4z"/>
						<path class="st205" d="M74,141.4c0-0.1,0-30,0-30.1c-0.3-5.1-8.5-0.3-18.5-0.3c-9.6,0-17.6-4.1-18.5,0.7c0,0,0,29.4,0,29.7
							c0,5.2,8.3,9.5,18.5,9.5S74,146.6,74,141.4z"/>
						<ellipse class="st18" cx="55.5" cy="111.3" rx="18.5" ry="9.5"/>
					</g>
				</g>
			</g>
		</g>
		<g>
			<g>
				<g>
					<g>
						<path class="st206" d="M135.4,139.9c0-0.1,0-30,0-30.1c-0.3-5.1-8.5-0.3-18.5-0.3c-9.6,0-17.6-4.1-18.5,0.7c0,0,0,29.4,0,29.7
							c0,5.2,8.3,9.5,18.5,9.5S135.4,145.1,135.4,139.9z"/>
						<path class="st205" d="M135.4,134.8c0-0.1,0-30,0-30.1c-0.3-5.1-8.5-0.3-18.5-0.3c-9.6,0-17.6-4.1-18.5,0.7c0,0,0,29.4,0,29.7
							c0,5.2,8.3,9.5,18.5,9.5S135.4,140.1,135.4,134.8z"/>
						<path class="st18" d="M135.4,104.7c0-5.2-8.3-9.5-18.5-9.5s-18.5,4.3-18.5,9.5c0,5.2,8.3,9.5,18.5,9.5
							S135.4,109.9,135.4,104.7z"/>
					</g>
				</g>
			</g>
			<g>
				<g>
					<g>
						<path class="st206" d="M115.3,150.2c0-0.1,0-30,0-30.1c-0.3-5.1-8.5-0.3-18.5-0.3c-9.6,0-17.6-4.1-18.5,0.7c0,0,0,29.4,0,29.7
							c0,5.2,8.3,9.5,18.5,9.5S115.3,155.4,115.3,150.2z"/>
						<path class="st205" d="M115.3,145.1c0-0.1,0-30,0-30.1c-0.3-5.1-8.5-0.3-18.5-0.3c-9.6,0-17.6-4.1-18.5,0.7c0,0,0,29.4,0,29.7
							c0,5.2,8.3,9.5,18.5,9.5S115.3,150.3,115.3,145.1z"/>
						<path class="st18" d="M115.3,115c0-5.2-8.3-9.5-18.5-9.5s-18.5,4.3-18.5,9.5c0,5.2,8.3,9.5,18.5,9.5S115.3,120.2,115.3,115z"
							/>
					</g>
				</g>
			</g>
			<g>
				<g>
					<g>
						<path class="st206" d="M95.1,160.4c0-0.1,0-30,0-30.1c-0.3-5.1-8.5-0.3-18.5-0.3c-9.6,0-17.6-4.1-18.5,0.7c0,0,0,29.4,0,29.7
							c0,5.2,8.3,9.5,18.5,9.5C86.8,169.9,95.1,165.7,95.1,160.4z"/>
						<path class="st205" d="M95.1,155.4c0-0.1,0-30,0-30.1c-0.3-5.1-8.5-0.3-18.5-0.3c-9.6,0-17.6-4.1-18.5,0.7c0,0,0,29.4,0,29.7
							c0,5.2,8.3,9.5,18.5,9.5C86.8,164.9,95.1,160.6,95.1,155.4z"/>
						<path class="st18" d="M95.1,125.3c0-5.2-8.3-9.5-18.5-9.5c-10.2,0-18.5,4.3-18.5,9.5c0,5.2,8.3,9.5,18.5,9.5
							C86.8,134.8,95.1,130.5,95.1,125.3z"/>
					</g>
				</g>
			</g>
		</g>
		<g>
			<g>
				<path class="st205" d="M60.3,111.6c0,0-1.1-8.3-1.1-8.3c-0.2-1-1.6,0.1-3.6,0.3c-1.8,0.2-3.5-0.5-3.5,0.4c0,0,1.1,8.2,1.1,8.3
					c0.1,1,1.8,1.7,3.7,1.5C58.9,113.6,60.4,112.6,60.3,111.6z"/>
				<g>
					<path class="st207" d="M64.5,102.6c0,0-4.8-15.7-4.8-15.7c-0.3-0.8-2.4,0.2-5.3,0.4c-2.7,0.2-4.9-0.2-5.3,0.6
						c0,0-1.8,16.1-1.8,16.2c-0.2,2.4,3.8,4.1,9.1,3.7C61.6,107.3,65.2,104.8,64.5,102.6z"/>
					<g>
						<path class="st208" d="M65.2,82.7c-0.3-2.7-5.7-4.4-12-3.9c-6.3,0.6-11.3,3.2-11,5.9c0.3,2.7,6,7.3,12.3,6.8
							C60.8,90.9,65.5,85.4,65.2,82.7z"/>
						<path class="st209" d="M65.2,82.7c-0.3-2.7-5.9-6.6-12.2-6.1c-6.3,0.6-11,5.4-10.7,8.1c0.3,2.7,5.7,4.4,12,3.9
							C60.5,88,65.5,85.4,65.2,82.7z"/>
					</g>
				</g>
				<path class="st207" d="M57,78.4c0,0-1.1-8.3-1.1-8.3c-0.2-1-1.6,0.1-3.6,0.3c-1.8,0.2-3.5-0.5-3.5,0.4c0,0,1.1,8.2,1.1,8.2
					c0.1,1,1.8,1.7,3.7,1.5C55.6,80.4,57.1,79.5,57,78.4z"/>
				<g>
					<path class="st208" d="M61.6,65.7c-0.2-2.2-4.7-3.7-10.1-3.2c-5.3,0.5-9.4,2.7-9.2,4.9c0.2,2.2,5,6.1,10.3,5.7
						C58,72.6,61.8,68,61.6,65.7z"/>
					<path class="st209" d="M61.5,65.5c-0.2-2.2-4.9-5.5-10.3-5.1c-5.3,0.5-9.2,4.5-9,6.8c0.2,2.2,4.7,3.7,10.1,3.2
						S61.7,67.8,61.5,65.5z"/>
				</g>
				<path class="st207" d="M54.2,61.8c0,0-0.6-5.3-0.6-5.3c-0.2-0.7-1.2,0.1-2.6,0.2c-1.3,0.1-2.5-0.4-2.6,0.3c0,0,0.6,5.2,0.6,5.2
					c0.1,0.7,1.4,1.2,2.8,1.1C53.2,63.2,54.3,62.5,54.2,61.8z"/>
				<g>
					<path class="st208" d="M58.6,51.6c-0.2-1.8-3.9-3-8.2-2.6c-4.4,0.4-7.7,2.2-7.5,4s4.1,5,8.4,4.6C55.7,57.3,58.8,53.5,58.6,51.6
						z"/>
					<path class="st209" d="M58.5,51.4c-0.2-1.8-4-4.5-8.4-4.2c-4.4,0.4-7.6,3.7-7.4,5.5c0.2,1.8,3.9,3,8.2,2.6
						C55.3,55.1,58.7,53.3,58.5,51.4z"/>
				</g>
				<path class="st207" d="M52.3,48.5c0,0-0.4-2.3-0.4-2.3c-0.1-0.5-0.9,0-2,0.1c-1,0.1-1.9-0.3-2,0.2c0,0,0.4,2.3,0.4,2.3
					c0.1,0.6,1,0.9,2.1,0.8C51.5,49.6,52.4,49.1,52.3,48.5z"/>
				<path class="st208" d="M54.7,42.8c-0.1-1.2-2.5-2-5.4-1.7c-2.8,0.2-5,1.4-4.9,2.6c0.2,1.8,2.9,3.2,5.5,3
					C52.8,46.5,54.8,44,54.7,42.8z"/>
				<path class="st209" d="M54.7,42.8c-0.1-1.2-2.6-2.9-5.5-2.7c-2.8,0.2-4.9,2.4-4.8,3.6c0.1,1.2,2.5,2,5.4,1.7
					C52.6,45.2,54.8,44,54.7,42.8z"/>
			</g>
			<g>
				<path class="st205" d="M78.9,101.1c0,0-1.1-8.3-1.1-8.3c-0.2-1-1.6,0.1-3.6,0.3c-1.8,0.2-3.5-0.5-3.5,0.4c0,0,1.1,8.2,1.1,8.3
					c0.1,1,1.8,1.7,3.7,1.5C77.5,103.1,79,102.1,78.9,101.1z"/>
				<g>
					<path class="st207" d="M83,92c0,0-4.8-15.7-4.8-15.7c-0.3-0.8-2.4,0.2-5.3,0.4c-2.7,0.2-4.9-0.2-5.3,0.6c0,0-1.8,16.1-1.8,16.2
						c-0.2,2.4,3.8,4.1,9.1,3.7C80.1,96.7,83.8,94.3,83,92z"/>
					<g>
						<path class="st208" d="M83.7,72.2c-0.3-2.7-5.7-4.4-12-3.9c-6.3,0.6-11.3,3.2-11,5.9c0.3,2.7,6,7.3,12.3,6.8
							C79.4,80.4,84,74.8,83.7,72.2z"/>
						<path class="st209" d="M83.7,72.2c-0.3-2.7-5.9-6.6-12.2-6.1c-6.3,0.6-11,5.4-10.7,8.1c0.3,2.7,5.7,4.4,12,3.9
							C79.1,77.5,84,74.8,83.7,72.2z"/>
					</g>
				</g>
				<path class="st207" d="M75.6,67.9c0,0-1.1-8.3-1.1-8.3c-0.2-1-1.6,0.1-3.6,0.3c-1.8,0.2-3.5-0.5-3.5,0.4c0,0,1.1,8.2,1.1,8.3
					c0.1,1,1.8,1.7,3.7,1.5C74.2,69.9,75.7,68.9,75.6,67.9z"/>
				<g>
					<path class="st208" d="M80.2,55.2c-0.2-2.2-4.7-3.7-10.1-3.2c-5.3,0.5-9.4,2.7-9.2,4.9c0.2,2.2,5,6.1,10.3,5.7
						C76.5,62.1,80.4,57.5,80.2,55.2z"/>
					<path class="st209" d="M80,55c-0.2-2.2-4.9-5.5-10.3-5.1c-5.3,0.5-9.2,4.5-9,6.8c0.2,2.2,4.7,3.7,10.1,3.2
						C76.2,59.5,80.3,57.3,80,55z"/>
				</g>
				<path class="st207" d="M72.7,51.3c0,0-0.6-5.3-0.6-5.3c-0.2-0.7-1.2,0.1-2.6,0.2c-1.3,0.1-2.5-0.4-2.6,0.3c0,0,0.6,5.2,0.6,5.2
					c0.1,0.7,1.4,1.2,2.8,1.1C71.8,52.7,72.8,52,72.7,51.3z"/>
				<g>
					<path class="st208" d="M77.2,41.1c-0.2-1.8-3.9-3-8.2-2.6c-4.4,0.4-7.7,2.2-7.5,4c0.2,1.8,4.1,5,8.4,4.6
						C74.2,46.8,77.4,43,77.2,41.1z"/>
					<path class="st209" d="M77.1,40.9c-0.2-1.8-4-4.5-8.4-4.2c-4.4,0.4-7.6,3.7-7.4,5.5c0.2,1.8,3.9,3,8.2,2.6
						C73.9,44.6,77.3,42.8,77.1,40.9z"/>
				</g>
				<path class="st207" d="M70.8,38c0,0-0.4-2.3-0.4-2.3c-0.1-0.5-0.9,0-2,0.1c-1,0.1-1.9-0.3-2,0.2c0,0,0.4,2.3,0.4,2.3
					c0.1,0.6,1,0.9,2.1,0.8C70.1,39.1,70.9,38.6,70.8,38z"/>
				<path class="st208" d="M73.2,32.3c-0.1-1.2-2.5-2-5.4-1.7c-2.8,0.2-5,1.4-4.9,2.6c0.2,1.8,2.9,3.2,5.5,3
					C71.3,36,73.4,33.5,73.2,32.3z"/>
				<path class="st209" d="M73.2,32.3c-0.1-1.2-2.6-2.9-5.5-2.7C65,29.8,62.9,32,63,33.2c0.1,1.2,2.5,2,5.4,1.7
					C71.2,34.7,73.4,33.5,73.2,32.3z"/>
			</g>
			<g>
				<path class="st205" d="M97.4,90.6c0,0-1.1-8.3-1.1-8.3c-0.2-1-1.6,0.1-3.6,0.3c-1.8,0.2-3.5-0.5-3.5,0.4c0,0,1.1,8.2,1.1,8.2
					c0.1,1,1.8,1.7,3.7,1.5C96,92.6,97.5,91.6,97.4,90.6z"/>
				<g>
					<path class="st207" d="M101.6,81.5c0,0-4.8-15.7-4.8-15.7c-0.3-0.8-2.4,0.2-5.3,0.4c-2.7,0.2-4.9-0.2-5.3,0.6
						c0,0-1.8,16.1-1.8,16.2c-0.2,2.4,3.8,4.1,9.1,3.7C98.7,86.2,102.3,83.8,101.6,81.5z"/>
					<g>
						<path class="st208" d="M102.3,61.6c-0.3-2.7-5.7-4.4-12-3.9c-6.3,0.6-11.3,3.2-11,5.9c0.3,2.7,6,7.3,12.3,6.8
							C97.9,69.8,102.5,64.3,102.3,61.6z"/>
						<path class="st209" d="M102.3,61.6C102,59,96.4,55,90,55.6c-6.3,0.6-11,5.4-10.7,8.1c0.3,2.7,5.7,4.4,12,3.9
							C97.6,66.9,102.5,64.3,102.3,61.6z"/>
					</g>
				</g>
				<path class="st207" d="M94.1,57.4c0,0-1.1-8.3-1.1-8.3c-0.2-1-1.6,0.1-3.6,0.3c-1.8,0.2-3.5-0.5-3.5,0.4c0,0,1.1,8.2,1.1,8.3
					c0.1,1,1.8,1.7,3.7,1.5C92.7,59.4,94.2,58.4,94.1,57.4z"/>
				<g>
					<path class="st208" d="M98.7,44.7c-0.2-2.2-4.7-3.7-10.1-3.2c-5.3,0.5-9.4,2.7-9.2,4.9c0.2,2.2,5,6.1,10.3,5.7
						C95.1,51.6,98.9,46.9,98.7,44.7z"/>
					<path class="st209" d="M98.6,44.5c-0.2-2.2-4.9-5.5-10.3-5.1c-5.3,0.5-9.2,4.5-9,6.8c0.2,2.2,4.7,3.7,10.1,3.2
						C94.7,48.9,98.8,46.7,98.6,44.5z"/>
				</g>
				<path class="st207" d="M91.3,40.8c0,0-0.6-5.3-0.6-5.3c-0.2-0.7-1.2,0.1-2.6,0.2c-1.3,0.1-2.5-0.4-2.6,0.3c0,0,0.6,5.2,0.6,5.2
					c0.1,0.7,1.4,1.2,2.8,1.1C90.3,42.2,91.4,41.5,91.3,40.8z"/>
				<g>
					<path class="st208" d="M95.7,30.6c-0.2-1.8-3.9-3-8.2-2.6c-4.4,0.4-7.7,2.2-7.5,4c0.2,1.8,4.1,5,8.4,4.6
						C92.8,36.2,95.9,32.5,95.7,30.6z"/>
					<path class="st209" d="M95.6,30.4c-0.2-1.8-4-4.5-8.4-4.2c-4.4,0.4-7.6,3.7-7.4,5.5c0.2,1.8,3.9,3,8.2,2.6
						C92.4,34,95.8,32.3,95.6,30.4z"/>
				</g>
				<path class="st207" d="M89.4,27.5c0,0-0.4-2.3-0.4-2.3c-0.1-0.5-0.9,0-2,0.1c-1,0.1-1.9-0.3-2,0.2c0,0,0.4,2.3,0.4,2.3
					c0.1,0.6,1,0.9,2.1,0.8C88.6,28.6,89.4,28.1,89.4,27.5z"/>
				<path class="st208" d="M91.8,21.8c-0.1-1.2-2.5-2-5.4-1.7c-2.8,0.2-5,1.4-4.9,2.6c0.2,1.8,2.9,3.2,5.5,3
					C89.9,25.4,91.9,23,91.8,21.8z"/>
				<path class="st209" d="M91.8,21.8c-0.1-1.2-2.6-2.9-5.5-2.7c-2.8,0.2-4.9,2.4-4.8,3.6c0.1,1.2,2.5,2,5.4,1.7
					C89.7,24.2,91.9,23,91.8,21.8z"/>
			</g>
			<g>
				<path class="st205" d="M120.8,105.4c0,0,3.3-7.8,3.3-7.8c0.4-0.9-1.5-0.6-3.3-1.3c-1.7-0.6-2.8-1.9-3.3-1.1c0,0-3.3,7.7-3.3,7.8
					c-0.4,0.9,0.7,2.2,2.5,2.9S120.4,106.3,120.8,105.4z"/>
				<g>
					<path class="st207" d="M129.2,99.1c0,0,3.8-15.9,3.8-15.9c0.1-0.8-2.2-0.9-4.9-1.9c-2.5-0.9-4.2-2.3-4.9-1.7
						c0,0-9.9,13.4-10,13.6c-1.4,2,1.2,5.3,6.1,7.1C124.2,102.1,128.6,101.4,129.2,99.1z"/>
					<g>
						<path class="st208" d="M140,81.8c1.1-2.5-2.7-6.3-8.6-8.5c-5.9-2.2-11.6-2-12.7,0.5c-1.1,2.5,1.5,9,7.4,11.2
							C132,87.3,138.9,84.3,140,81.8z"/>
						<path class="st209" d="M140,81.8c1.1-2.5-1.8-8.3-7.7-10.6c-5.9-2.2-12.5,0.1-13.7,2.6c-1.1,2.5,2.7,6.3,8.6,8.5
							C133.2,84.6,138.9,84.3,140,81.8z"/>
					</g>
				</g>
				<path class="st207" d="M135,74.6c0,0,3.3-7.8,3.3-7.8c0.4-0.9-1.5-0.6-3.3-1.3c-1.7-0.6-2.8-1.9-3.3-1.1c0,0-3.3,7.7-3.3,7.8
					c-0.4,0.9,0.7,2.2,2.5,2.9C132.8,75.8,134.6,75.6,135,74.6z"/>
				<g>
					<path class="st208" d="M145.6,65.4c1-2.1-2.3-5.3-7.2-7.1c-4.9-1.9-9.7-1.7-10.7,0.4c-1,2.1,1.3,7.5,6.2,9.4
						C138.9,69.9,144.7,67.5,145.6,65.4z"/>
					<path class="st209" d="M145.6,65.1c1-2.1-1.5-7-6.4-8.8c-4.9-1.9-10.5,0.1-11.4,2.1s2.3,5.3,7.2,7.1
						C139.9,67.4,144.7,67.2,145.6,65.1z"/>
				</g>
				<path class="st207" d="M141.1,58.7c0,0,2.2-4.9,2.2-4.9c0.2-0.7-1.1-0.4-2.4-0.9c-1.2-0.5-2.1-1.4-2.4-0.8c0,0-2.2,4.8-2.2,4.8
					c-0.3,0.7,0.6,1.7,1.9,2.2C139.5,59.6,140.8,59.4,141.1,58.7z"/>
				<g>
					<path class="st208" d="M150.3,51.7c0.8-1.7-1.9-4.3-5.9-5.8c-4-1.5-7.9-1.4-8.7,0.3c-0.8,1.7,1,6.2,5.1,7.7
						C144.7,55.4,149.5,53.4,150.3,51.7z"/>
					<path class="st209" d="M150.3,51.4c0.8-1.7-1.2-5.7-5.3-7.2c-4-1.5-8.6,0-9.4,1.8c-0.8,1.7,1.9,4.3,5.9,5.8
						C145.6,53.3,149.5,53.1,150.3,51.4z"/>
				</g>
				<path class="st207" d="M146.3,46.2c0,0,0.9-2.2,0.9-2.2c0.2-0.5-0.8-0.3-1.8-0.7c-1-0.4-1.6-1.1-1.9-0.6c0,0-0.8,2.1-0.9,2.2
					c-0.2,0.5,0.4,1.3,1.4,1.6C145,46.8,146,46.7,146.3,46.2z"/>
				<path class="st208" d="M151.4,42.2c0.5-1.1-1.2-2.8-3.8-3.8c-2.6-1-5.2-0.9-5.7,0.2c-0.7,1.6,0.9,4.1,3.3,5
					C147.8,44.6,150.8,43.3,151.4,42.2z"/>
				<path class="st209" d="M151.4,42.2c0.5-1.1-0.8-3.7-3.4-4.7c-2.6-1-5.6,0-6.1,1.1c-0.5,1.1,1.2,2.8,3.8,3.8
					C148.3,43.4,150.8,43.3,151.4,42.2z"/>
			</g>
			<g>
				<path class="st205" d="M100.3,116.1c0,0,3.3-7.8,3.3-7.8c0.4-0.9-1.5-0.6-3.3-1.3c-1.7-0.6-2.8-1.9-3.3-1.1c0,0-3.3,7.7-3.3,7.8
					c-0.4,0.9,0.7,2.2,2.5,2.9C98,117.2,99.9,117,100.3,116.1z"/>
				<g>
					<path class="st207" d="M108.7,109.8c0,0,3.8-15.9,3.8-15.9c0.1-0.8-2.2-0.9-4.9-1.9c-2.5-0.9-4.2-2.3-4.9-1.7
						c0,0-9.9,13.4-10,13.6c-1.4,2,1.2,5.3,6.1,7.1C103.7,112.7,108.1,112.1,108.7,109.8z"/>
					<g>
						<path class="st208" d="M119.5,92.5c1.1-2.5-2.7-6.3-8.6-8.5c-5.9-2.2-11.6-2-12.7,0.5c-1.1,2.5,1.5,9,7.4,11.2
							C111.5,97.9,118.4,95,119.5,92.5z"/>
						<path class="st209" d="M119.5,92.5c1.1-2.5-1.8-8.3-7.7-10.6c-5.9-2.2-12.5,0.1-13.7,2.6c-1.1,2.5,2.7,6.3,8.6,8.5
							C112.7,95.2,118.4,95,119.5,92.5z"/>
					</g>
				</g>
				<path class="st207" d="M114.5,85.3c0,0,3.3-7.8,3.3-7.8c0.4-0.9-1.5-0.6-3.3-1.3c-1.7-0.6-2.8-1.9-3.3-1.1c0,0-3.3,7.7-3.3,7.8
					c-0.4,0.9,0.7,2.2,2.5,2.9C112.3,86.5,114.1,86.3,114.5,85.3z"/>
				<g>
					<path class="st208" d="M125.1,76.1c1-2.1-2.3-5.3-7.2-7.1c-4.9-1.9-9.7-1.7-10.7,0.4c-1,2.1,1.3,7.5,6.2,9.4
						C118.4,80.6,124.2,78.1,125.1,76.1z"/>
					<path class="st209" d="M125.1,75.8c1-2.1-1.5-7-6.4-8.8c-4.9-1.9-10.5,0.1-11.4,2.1c-1,2.1,2.3,5.3,7.2,7.1
						C119.4,78.1,124.2,77.9,125.1,75.8z"/>
				</g>
				<path class="st207" d="M120.6,69.4c0,0,2.2-4.9,2.2-4.9c0.2-0.7-1.1-0.4-2.4-0.9c-1.2-0.5-2.1-1.4-2.4-0.8c0,0-2.2,4.8-2.2,4.8
					c-0.3,0.7,0.6,1.7,1.9,2.2C119,70.3,120.3,70.1,120.6,69.4z"/>
				<g>
					<path class="st208" d="M129.8,62.3c0.8-1.7-1.9-4.3-5.9-5.8c-4-1.5-7.9-1.4-8.7,0.3c-0.8,1.7,1,6.2,5.1,7.7
						C124.2,66,129,64,129.8,62.3z"/>
					<path class="st209" d="M129.8,62.1c0.8-1.7-1.2-5.7-5.3-7.2c-4-1.5-8.6,0-9.4,1.8c-0.8,1.7,1.9,4.3,5.9,5.8
						S129,63.8,129.8,62.1z"/>
				</g>
				<path class="st207" d="M125.8,56.9c0,0,0.9-2.2,0.9-2.2c0.2-0.5-0.8-0.3-1.8-0.7c-1-0.4-1.6-1.1-1.9-0.6c0,0-0.8,2.1-0.9,2.2
					c-0.2,0.5,0.4,1.3,1.4,1.6C124.5,57.5,125.5,57.4,125.8,56.9z"/>
				<path class="st208" d="M130.9,52.9c0.5-1.1-1.2-2.8-3.8-3.8c-2.6-1-5.2-0.9-5.7,0.2c-0.7,1.6,0.9,4.1,3.3,5
					C127.3,55.3,130.3,54,130.9,52.9z"/>
				<path class="st209" d="M130.9,52.9c0.5-1.1-0.8-3.7-3.4-4.7c-2.6-1-5.6,0-6.1,1.1c-0.5,1.1,1.2,2.8,3.8,3.8
					C127.8,54.1,130.3,54,130.9,52.9z"/>
			</g>
			<g>
				<path class="st205" d="M79.8,126.7c0,0,3.3-7.8,3.3-7.8c0.4-0.9-1.5-0.6-3.3-1.3c-1.7-0.6-2.8-1.9-3.3-1.1c0,0-3.3,7.7-3.3,7.8
					c-0.4,0.9,0.7,2.2,2.5,2.9C77.5,127.9,79.4,127.7,79.8,126.7z"/>
				<g>
					<path class="st207" d="M88.2,120.5c0,0,3.8-15.9,3.8-15.9c0.1-0.8-2.2-0.9-4.9-1.9c-2.5-0.9-4.2-2.3-4.9-1.7
						c0,0-9.9,13.4-10,13.6c-1.4,2,1.2,5.3,6.1,7.1C83.2,123.4,87.6,122.8,88.2,120.5z"/>
					<g>
						<path class="st208" d="M99,103.2c1.1-2.5-2.7-6.3-8.6-8.5c-5.9-2.2-11.6-2-12.7,0.5c-1.1,2.5,1.5,9,7.4,11.2
							C91,108.6,97.9,105.7,99,103.2z"/>
						<path class="st209" d="M99,103.2c1.1-2.5-1.8-8.3-7.7-10.6c-5.9-2.2-12.5,0.1-13.7,2.6c-1.1,2.5,2.7,6.3,8.6,8.5
							C92.2,105.9,97.9,105.7,99,103.2z"/>
					</g>
				</g>
				<path class="st207" d="M94,96c0,0,3.3-7.8,3.3-7.8c0.4-0.9-1.5-0.6-3.3-1.3c-1.7-0.6-2.8-1.9-3.3-1.1c0,0-3.3,7.7-3.3,7.8
					c-0.4,0.9,0.7,2.2,2.5,2.9C91.8,97.1,93.6,96.9,94,96z"/>
				<g>
					<path class="st208" d="M104.6,86.7c1-2.1-2.3-5.3-7.2-7.1c-4.9-1.9-9.7-1.7-10.7,0.4c-1,2.1,1.3,7.5,6.2,9.4
						C97.9,91.3,103.7,88.8,104.6,86.7z"/>
					<path class="st209" d="M104.6,86.5c1-2.1-1.5-7-6.4-8.8c-4.9-1.9-10.5,0.1-11.4,2.1c-1,2.1,2.3,5.3,7.2,7.1
						C98.9,88.8,103.7,88.6,104.6,86.5z"/>
				</g>
				<path class="st207" d="M100.1,80.1c0,0,2.2-4.9,2.2-4.9c0.2-0.7-1.1-0.4-2.4-0.9c-1.2-0.5-2.1-1.4-2.4-0.8c0,0-2.2,4.8-2.2,4.8
					C95,79,95.9,80,97.2,80.5C98.5,81,99.8,80.8,100.1,80.1z"/>
				<g>
					<path class="st208" d="M109.3,73c0.8-1.7-1.9-4.3-5.9-5.8c-4-1.5-7.9-1.4-8.7,0.3c-0.8,1.7,1,6.2,5.1,7.7
						C103.7,76.7,108.5,74.7,109.3,73z"/>
					<path class="st209" d="M109.3,72.8c0.8-1.7-1.2-5.7-5.3-7.2c-4-1.5-8.6,0-9.4,1.8c-0.8,1.7,1.9,4.3,5.9,5.8
						C104.6,74.7,108.5,74.5,109.3,72.8z"/>
				</g>
				<path class="st207" d="M105.3,67.6c0,0,0.9-2.2,0.9-2.2c0.2-0.5-0.8-0.3-1.8-0.7c-1-0.4-1.6-1.1-1.9-0.6c0,0-0.8,2.1-0.9,2.2
					c-0.2,0.5,0.4,1.3,1.4,1.6C104,68.2,105,68.1,105.3,67.6z"/>
				<path class="st208" d="M110.4,63.6c0.5-1.1-1.2-2.8-3.8-3.8c-2.6-1-5.2-0.9-5.7,0.2c-0.7,1.6,0.9,4.1,3.3,5
					C106.8,66,109.9,64.7,110.4,63.6z"/>
				<path class="st209" d="M110.4,63.6c0.5-1.1-0.8-3.7-3.4-4.7c-2.6-1-5.6,0-6.1,1.1c-0.5,1.1,1.2,2.8,3.8,3.8
					C107.3,64.8,109.9,64.7,110.4,63.6z"/>
			</g>
		</g>
	</g>
	<g>
		<path class="st210" d="M105.6,68.1c-0.2,0-3,0-5.3-2.4c-1.7-1.8-3.4-6.2-5.7-12.3c-4.4-11.5-11-28.8-19.7-29.1
			c-4.2-0.1-11.2,3.9-20.8,24c-0.1,0.2-0.3,0.4-0.5,0.6c-0.1,0.1-3,1.7-6.3,0.5c-0.7-0.3-1.1-1.1-0.8-1.7c0.3-0.7,1.2-1,1.9-0.7
			c1.4,0.5,2.7,0.2,3.3-0.1C59.9,29.6,67.5,21.5,75,21.7c10.7,0.4,17.4,18,22.3,30.8c2,5.2,3.9,10.1,5.2,11.4c1.4,1.4,3,1.5,3.1,1.5
			l0,0c0.9,0.1,1.5,0.6,1.5,1.3C107.1,67.5,106.4,68.1,105.6,68.1C105.6,68.1,105.6,68.1,105.6,68.1z"/>
	</g>
	<g>
		<path class="st210" d="M147.2,46.4c-0.2,0-3,0-5.3-2.4c-1.6-1.6-3.3-5.7-5.8-11.2C131,20.8,123,2.8,113.1,2.7c0,0-0.1,0-0.1,0
			c-6.7,0-13.9,8.1-21.5,24c-0.1,0.2-0.3,0.4-0.5,0.6c-0.1,0.1-3,1.7-6.3,0.5c-0.7-0.3-1.1-1.1-0.8-1.7c0.3-0.7,1.2-1,1.9-0.7
			c1.4,0.5,2.7,0.2,3.3-0.1C97.1,8.2,105,0,113,0c0.1,0,0.1,0,0.2,0c11.9,0.2,19.9,18.4,25.8,31.8c2.2,4.9,4,9.1,5.3,10.4
			c1.4,1.4,3,1.5,3.1,1.5c0.8,0,1.5,0.6,1.4,1.3C148.7,45.8,148,46.3,147.2,46.4C147.2,46.4,147.2,46.4,147.2,46.4z"/>
	</g>
	<g>
		<path class="st210" d="M126.7,57.1c-0.2,0-3,0-5.3-2.4c-1.6-1.7-3.4-5.8-5.8-11.5c-5-11.8-12.5-29.6-22.1-29.8c0,0-0.1,0-0.2,0
			c-6.5,0-13.6,8.1-21.2,24c-0.1,0.2-0.3,0.4-0.5,0.6c-0.1,0.1-3,1.7-6.3,0.5c-0.7-0.3-1.1-1.1-0.8-1.7c0.3-0.7,1.2-1,1.9-0.7
			c1.4,0.5,2.7,0.2,3.3-0.1c8.2-17.1,16-25.4,23.9-25.2c11.5,0.2,19.2,18.3,24.7,31.5c2,4.8,4,9.4,5.2,10.7c1.4,1.4,3,1.5,3.1,1.5
			c0.8,0,1.5,0.6,1.4,1.3C128.1,56.5,127.5,57.1,126.7,57.1C126.7,57.1,126.7,57.1,126.7,57.1z"/>
	</g>
</g>
</svg>
