<svg xmlns="http://www.w3.org/2000/svg" viewBox="0 0 31.31 26.48"><defs><style>.cls-1{fill:#dfe0e2;}</style></defs><title>Asset 71switch-vertical</title><g id="Layer_2" data-name="Layer 2"><g id="Layer_1-2" data-name="Layer 1"><path class="cls-1" d="M30.65,12.59H20l-.88-.76a2.31,2.31,0,0,1,0-3.5L20,7.58h.71a.66.66,0,0,0,0-1.31h-.76l-.83-.71a2.31,2.31,0,0,1,0-3.5L20,1.31h4.66a.66.66,0,0,0,.65-.66A.65.65,0,0,0,24.64,0H19.49L18.25,1.07a3.63,3.63,0,0,0,0,5.48l.46.4-.46.39a3.63,3.63,0,0,0,0,5.48l.49.42-.49.42a3.63,3.63,0,0,0,0,5.48l.46.4-.46.39a3.63,3.63,0,0,0,0,5.48l1.24,1.07h5.15a.65.65,0,0,0,0-1.3H20l-.88-.76a2.31,2.31,0,0,1,0-3.5l.83-.71h.76a.65.65,0,0,0,0-1.3H20l-.88-.76a2.31,2.31,0,0,1,0-3.5l.88-.76H30.65a.65.65,0,1,0,0-1.3Z"/><path class="cls-1" d="M14.31,3.81a3.65,3.65,0,0,0-1.25-2.74L11.81,0H6.67A.66.66,0,0,0,6,.65a.67.67,0,0,0,.66.66h4.66l.87.75a2.31,2.31,0,0,1,0,3.5l-.82.71h-.76a.66.66,0,1,0,0,1.31h.71l.87.75a2.31,2.31,0,0,1,0,3.5l-.88.76H.65a.65.65,0,0,0-.65.65.66.66,0,0,0,.65.66H11.33l.87.75a2.31,2.31,0,0,1,0,3.5l-.87.76h-.71a.65.65,0,1,0,0,1.3h.76l.82.71a2.31,2.31,0,0,1,0,3.5l-.87.76H6.67a.65.65,0,1,0,0,1.3h5.14l1.25-1.07a3.63,3.63,0,0,0,0-5.48l-.46-.39.46-.4a3.63,3.63,0,0,0,0-5.48l-.49-.42.49-.42a3.63,3.63,0,0,0,0-5.48L12.6,7l.46-.4A3.65,3.65,0,0,0,14.31,3.81Z"/></g></g></svg>