<svg xmlns="http://www.w3.org/2000/svg" viewBox="0 0 33.5 33.5"><defs><style>.cls-1{fill:#dfe0e2;}</style></defs><title>Asset 83switch-vertical</title><g id="Layer_2" data-name="Layer 2"><g id="Layer_1-2" data-name="Layer 1"><path class="cls-1" d="M7.49,18.84h2c.22,0,.31.07.31.29v.79c0,.22-.09.3-.31.3H6.07c-.19,0-.26-.11-.26-.31V13.59c0-.22.08-.31.3-.31h1.1c.21,0,.28.09.28.31Z"/><path class="cls-1" d="M10.43,14.94c0-.87.68-1.74,2.6-1.74s2.61.87,2.61,1.74v3.61c0,.88-.69,1.75-2.61,1.75s-2.6-.87-2.6-1.75Zm3.53.3c0-.47-.43-.66-.93-.66s-.92.19-.92.66v3c0,.47.42.66.92.66s.93-.19.93-.66Z"/><path class="cls-1" d="M19.91,13.59l1.85,6.32c.06.19,0,.31-.23.31H20.4a.35.35,0,0,1-.36-.31l-.26-1h-1.7l-.26,1c-.05.19-.14.31-.36.31h-1c-.21,0-.28-.12-.22-.31l1.84-6.32c.07-.2.17-.31.38-.31h1.1A.36.36,0,0,1,19.91,13.59Zm-.64,3.47A18.85,18.85,0,0,1,19,14.92c0,.15-.18,1.54-.34,2.14l-.16.55h1Z"/><path class="cls-1" d="M22.73,20.22c-.18,0-.25-.11-.25-.31V13.59c0-.22.08-.31.29-.31h2.31c1.91,0,2.61.87,2.61,1.75v3.44c0,.88-.7,1.75-2.61,1.75Zm1.43-5.56v4.18h.92c.5,0,.93-.19.93-.66V15.32c0-.47-.43-.66-.93-.66Z"/><path class="cls-1" d="M33.5,33.5H0V0H33.5ZM1.5,32H32V1.5H1.5Z"/></g></g></svg>