<?xml version="1.0" encoding="utf-8"?>
<!-- Generator: Adobe Illustrator 24.1.2, SVG Export Plug-In . SVG Version: 6.00 Build 0)  -->
<svg version="1.1" id="Layer_1" xmlns="http://www.w3.org/2000/svg" xmlns:xlink="http://www.w3.org/1999/xlink" x="0px" y="0px"
	 viewBox="0 0 80 80" style="enable-background:new 0 0 80 80;" xml:space="preserve">
<g id="Layer_2_1_">
	<g id="Layer_1-2">
		<path d="M7.7,60c-0.3,0-0.5-0.2-0.5-0.5l-2.8-9.3c0-0.2,0-0.5,0.3-0.5h1.8c0.3,0,0.5,0.2,0.5,0.5l1.3,4.2c0.3,0.7,0.3,1.7,0.5,2.4
			c0-0.7,0.3-1.7,0.5-2.4l1.3-4.2c0-0.2,0.3-0.5,0.5-0.5h1.5c0.3,0,0.5,0.2,0.3,0.5L10,59.5c0,0.2-0.3,0.5-0.5,0.5
			C9.5,60,7.7,60,7.7,60z"/>
		<path d="M20.2,55.9l1.5,3.7c0,0.2,0,0.5-0.5,0.5h-1.5c-0.3,0-0.3-0.2-0.5-0.5l-1.3-3.4h-1.3v3.4c0,0.2,0,0.5-0.5,0.5h-1.8
			c-0.3,0-0.5-0.2-0.5-0.5V50c0-0.2,0-0.5,0.5-0.5h3.6c3.1,0,4.1,1.2,4.1,2.7v1.2C22,54.7,21.2,55.4,20.2,55.9z M16.6,51.7v2.4h1.3
			c0.8,0,1.5-0.2,1.5-1v-0.5c0-0.7-0.8-1-1.5-1H16.6z"/>
	</g>
</g>
<g id="Layer_2_2_">
	<g id="Layer_1-2_1_">
		<path d="M78.3,38.8H51.2l-2.3-2c-2.6-2-2.8-5.6-0.5-8.1c0.3-0.2,0.5-0.5,0.5-0.5l2.3-2H53c1,0,1.5-1,1.5-1.7
			c0-0.7-0.8-1.2-1.5-1.5h-2l-2-1.7c-2.6-2-2.8-5.6-0.5-8.1c0.3-0.2,0.5-0.5,0.5-0.5l2.3-2h12c1,0,1.8-0.7,1.5-1.7
			c0-1-0.8-1.7-1.5-1.7l0,0h-13l-3.1,2.7c-3.8,3.2-4.3,8.8-1,12.5c0.3,0.2,0.5,0.5,1,1l1.3,1l-1.3,1c-3.8,3.2-4.3,8.8-1,12.5
			c0.3,0.2,0.5,0.5,1,1l1.3,1l-1.3,1c-3.8,3.2-4.3,8.8-1,12.5c0.3,0.2,0.5,0.5,1,1l1.3,1l-1.8,1.2c-3.8,3.2-4.3,8.8-1,12.5
			c0.3,0.2,0.5,0.5,1,1l3.1,2.7h13c1,0,1.5-0.7,1.5-1.7s-0.8-1.5-1.5-1.5H50.9l-2.3-2c-2.6-2-2.8-5.6-0.5-8.1
			c0.3-0.2,0.5-0.5,0.5-0.5l2-1.7h2c1,0,1.5-0.7,1.5-1.7c0-1-0.8-1.5-1.5-1.5h-1.8l-2.3-2c-2.6-2-2.8-5.6-0.5-8.1
			c0.3-0.2,0.5-0.5,0.5-0.5l2.3-2H78c1,0,1.5-0.7,1.5-1.5C80.1,39.5,79.3,38.8,78.3,38.8z"/>
		<path d="M36.6,17.3c0-2.7-1.3-4.9-3.1-6.6L30.4,8H17.1c-1,0-1.8,0.7-1.8,1.5l0,0c0,1,0.8,1.7,1.8,1.7h12l2.3,2
			c2.6,2,2.8,5.6,0.5,8.1c-0.3,0.2-0.5,0.5-0.5,0.5l-2,1.7h-2c-1,0-1.8,0.5-1.8,1.5c0,1,0.5,1.7,1.5,1.7c0.3,0,0.3,0,0.5,0h1.8
			l2.3,2c2.6,2,2.8,5.6,0.5,8.1c-0.3,0.2-0.5,0.5-0.5,0.5l-2.3,2H1.5c-1,0-1.5,0.7-1.5,1.5c0,1,0.8,1.7,1.5,1.7h27.4l2.3,2
			c2.6,2,2.8,5.6,0.5,8.1c-0.3,0.2-0.5,0.5-0.5,0.5l-2.3,1.5h-1.8c-1,0-1.8,0.7-1.8,1.5c0,1,0.8,1.7,1.5,1.7l0,0h2l2,1.7
			c2.6,2,2.8,5.6,0.5,8.1c-0.3,0.2-0.5,0.5-0.5,0.5l-2.3,2H17.1c-1,0-1.8,0.7-1.8,1.5c0,1,0.8,1.7,1.5,1.7l0,0h13l3.1-2.7
			c3.8-3.2,4.3-8.8,1-12.5c-0.3-0.2-0.5-0.5-1-1l-1.3-1l1.3-1c3.8-3.2,4.3-8.8,1-12.5c-0.3-0.2-0.5-0.5-1-1l-1.3-1l1.3-1
			c3.8-3.2,4.3-8.8,1-12.5c-0.3-0.2-0.5-0.5-1-1l-1.3-0.7l1.3-1C35.6,22.4,36.6,19.9,36.6,17.3z"/>
	</g>
</g>
</svg>
