<svg xmlns="http://www.w3.org/2000/svg" viewBox="0 0 33.23 35.25"><defs><style>.cls-1{fill:#dfe0e2;}</style></defs><title>Asset 73switch-vertical</title><g id="Layer_2" data-name="Layer 2"><g id="Layer_1-2" data-name="Layer 1"><path class="cls-1" d="M13.64,6a.31.31,0,0,1-.33-.26L11.71.27c-.05-.17,0-.27.2-.27h1c.18,0,.26.1.31.27l.66,2.47a12.06,12.06,0,0,1,.22,1.43,12.24,12.24,0,0,1,.25-1.43L15.06.27c0-.17.12-.27.3-.27h1c.18,0,.24.1.19.27l-1.6,5.47a.3.3,0,0,1-.32.26Z"/><path class="cls-1" d="M20.62,3.56l.87,2.18c.06.15-.06.26-.25.26h-.95c-.17,0-.21-.14-.26-.26l-.77-1.95h-.67v2c0,.18-.06.26-.24.26h-1c-.18,0-.25-.08-.25-.26V.27c0-.19.07-.27.25-.27H19.3C21,0,21.54.75,21.54,1.51v.77A1.36,1.36,0,0,1,20.62,3.56Zm-2-2.37v1.4h.71c.43,0,.8-.16.8-.57V1.76c0-.4-.37-.57-.8-.57Z"/><path class="cls-1" d="M32.58,20.54H21.21l-.95-.81a2.51,2.51,0,0,1-.86-1.9,2.48,2.48,0,0,1,.86-1.89l.94-.81H22a.66.66,0,0,0,.65-.66.65.65,0,0,0-.65-.65h-.83l-.89-.77a2.48,2.48,0,0,1-.86-1.89,2.51,2.51,0,0,1,.86-1.9l.95-.81h5a.66.66,0,0,0,.66-.65.67.67,0,0,0-.66-.66H20.72L19.41,8.28a3.8,3.8,0,0,0,0,5.76l.52.46-.52.45a3.81,3.81,0,0,0,0,5.77l.55.48-.55.47a3.81,3.81,0,0,0,0,5.77l.52.45-.52.46a3.81,3.81,0,0,0,0,5.77l1.31,1.13h5.46a.67.67,0,0,0,.66-.66.66.66,0,0,0-.66-.65h-5l-.95-.81a2.51,2.51,0,0,1-.86-1.9,2.48,2.48,0,0,1,.86-1.89l.89-.77H22a.65.65,0,1,0,0-1.3H21.2l-.94-.82a2.48,2.48,0,0,1-.86-1.89,2.51,2.51,0,0,1,.86-1.9l.95-.81H32.58a.66.66,0,0,0,.65-.66A.65.65,0,0,0,32.58,20.54Z"/><path class="cls-1" d="M15.15,11.16a3.82,3.82,0,0,0-1.32-2.88L12.52,7.14H7.05a.66.66,0,0,0-.65.66.65.65,0,0,0,.65.65h5l.94.81a2.52,2.52,0,0,1,.87,1.9A2.49,2.49,0,0,1,13,13.05l-.88.77h-.83a.66.66,0,0,0-.66.65.67.67,0,0,0,.66.66H12l.94.81a2.49,2.49,0,0,1,.87,1.89,2.52,2.52,0,0,1-.87,1.9l-.94.81H.65A.66.66,0,0,0,0,21.2a.65.65,0,0,0,.65.65H12l.94.81a2.52,2.52,0,0,1,.87,1.9A2.49,2.49,0,0,1,13,26.45l-.94.82h-.77a.65.65,0,1,0,0,1.3h.83l.88.77a2.49,2.49,0,0,1,.87,1.89,2.52,2.52,0,0,1-.87,1.9l-.94.81h-5a.65.65,0,0,0-.65.65.66.66,0,0,0,.65.66h5.47l1.31-1.13a3.81,3.81,0,0,0,0-5.77l-.53-.46.53-.45a3.81,3.81,0,0,0,0-5.77l-.56-.47.56-.48a3.81,3.81,0,0,0,0-5.77l-.53-.45.53-.46A3.82,3.82,0,0,0,15.15,11.16Z"/></g></g></svg>