<?xml version="1.0" encoding="utf-8"?>
<!-- Generator: Adobe Illustrator 25.3.1, SVG Export Plug-In . SVG Version: 6.00 Build 0)  -->
<svg version="1.1" id="Layer_1" xmlns="http://www.w3.org/2000/svg" xmlns:xlink="http://www.w3.org/1999/xlink" x="0px" y="0px"
	 viewBox="0 0 1228 848" style="enable-background:new 0 0 1228 848;" xml:space="preserve">
<style type="text/css">
	.st0{clip-path:url(#SVGID_2_);}
	.st1{clip-path:url(#SVGID_4_);}
	.st2{opacity:0.5;clip-path:url(#SVGID_6_);}
	.st3{clip-path:url(#SVGID_8_);fill:#7C7C7C;}
	.st4{clip-path:url(#SVGID_4_);fill:#DDED48;}
	.st5{clip-path:url(#SVGID_4_);fill:#B7B76C;}
	.st6{clip-path:url(#SVGID_4_);fill:#504A2F;}
	.st7{clip-path:url(#SVGID_10_);}
	.st8{clip-path:url(#SVGID_12_);fill:#737373;}
	.st9{clip-path:url(#SVGID_12_);fill:#DEDEDE;}
	.st10{clip-path:url(#SVGID_12_);fill:#CFCFCF;}
	.st11{clip-path:url(#SVGID_12_);fill:#BDBDBD;}
	.st12{clip-path:url(#SVGID_12_);fill:#F7D23A;}
	.st13{clip-path:url(#SVGID_12_);}
	.st14{clip-path:url(#SVGID_14_);}
	.st15{clip-path:url(#SVGID_16_);fill:#CACACA;}
	.st16{clip-path:url(#SVGID_12_);fill:#EEEEEE;}
	.st17{clip-path:url(#SVGID_12_);fill:#E1E1E1;}
	.st18{clip-path:url(#SVGID_18_);}
	.st19{clip-path:url(#SVGID_20_);fill:#CACACA;}
	.st20{clip-path:url(#SVGID_22_);}
	.st21{clip-path:url(#SVGID_24_);fill:#CACACA;}
	.st22{clip-path:url(#SVGID_26_);}
	.st23{clip-path:url(#SVGID_28_);fill:#CACACA;}
	.st24{clip-path:url(#SVGID_12_);fill:#BABABA;}
	.st25{clip-path:url(#SVGID_12_);fill:#808080;}
	.st26{clip-path:url(#SVGID_12_);fill:#A9A9A9;}
	.st27{clip-path:url(#SVGID_12_);fill:#979797;}
	.st28{clip-path:url(#SVGID_30_);}
	.st29{clip-path:url(#SVGID_32_);fill:#D9D9D9;}
	.st30{clip-path:url(#SVGID_12_);fill:#B3B3B3;}
	.st31{clip-path:url(#SVGID_12_);fill:#A4A4A4;}
	.st32{clip-path:url(#SVGID_34_);fill:#8D8D8D;}
	.st33{clip-path:url(#SVGID_34_);fill:#3E6387;}
	.st34{clip-path:url(#SVGID_34_);fill:#759FBF;}
	.st35{clip-path:url(#SVGID_34_);fill:#F7D23A;}
	.st36{clip-path:url(#SVGID_34_);fill:#DAB71D;}
	.st37{clip-path:url(#SVGID_34_);fill:#808080;}
	.st38{clip-path:url(#SVGID_34_);fill:#B5D6FD;}
	.st39{opacity:0.3;clip-path:url(#SVGID_34_);}
	.st40{clip-path:url(#SVGID_36_);fill:#FFFFFF;}
	.st41{clip-path:url(#SVGID_38_);fill:#FFFFFF;}
	.st42{clip-path:url(#SVGID_40_);fill:#FFFFFF;}
	.st43{clip-path:url(#SVGID_42_);fill:#FFFFFF;}
	.st44{clip-path:url(#SVGID_44_);fill:#FFFFFF;}
	.st45{clip-path:url(#SVGID_46_);fill:#FFFFFF;}
	.st46{clip-path:url(#SVGID_48_);fill:#FFFFFF;}
	.st47{clip-path:url(#SVGID_50_);fill:#FFFFFF;}
	.st48{clip-path:url(#SVGID_52_);fill:#FFFFFF;}
	.st49{clip-path:url(#SVGID_54_);fill:#FFFFFF;}
	.st50{clip-path:url(#SVGID_34_);fill:#D3E8FD;}
	.st51{clip-path:url(#SVGID_56_);fill:#FFFFFF;}
	.st52{clip-path:url(#SVGID_58_);fill:#FFFFFF;}
	.st53{clip-path:url(#SVGID_60_);fill:#FFFFFF;}
	.st54{clip-path:url(#SVGID_62_);fill:#FFFFFF;}
	.st55{clip-path:url(#SVGID_64_);fill:#FFFFFF;}
	.st56{clip-path:url(#SVGID_66_);fill:#FFFFFF;}
	.st57{clip-path:url(#SVGID_68_);fill:#FFFFFF;}
	.st58{clip-path:url(#SVGID_70_);fill:#FFFFFF;}
	.st59{clip-path:url(#SVGID_72_);fill:#FFFFFF;}
	.st60{clip-path:url(#SVGID_74_);fill:#FFFFFF;}
</style>
<g id="Artwork_14_1_">
	<g>
		<defs>
			<rect id="SVGID_1_" width="1228.08" height="847.97"/>
		</defs>
		<clipPath id="SVGID_2_">
			<use xlink:href="#SVGID_1_"  style="overflow:visible;"/>
		</clipPath>
		<g class="st0">
			<defs>
				<rect id="SVGID_3_" width="1228.08" height="847.97"/>
			</defs>
			<clipPath id="SVGID_4_">
				<use xlink:href="#SVGID_3_"  style="overflow:visible;"/>
			</clipPath>
			<g class="st1">
				<defs>
					<rect id="SVGID_5_" width="1228.08" height="847.97"/>
				</defs>
				<clipPath id="SVGID_6_">
					<use xlink:href="#SVGID_5_"  style="overflow:visible;"/>
				</clipPath>
				<g class="st2">
					<g>
						<defs>
							<rect id="SVGID_7_" y="145.83" width="1228.08" height="702.14"/>
						</defs>
						<clipPath id="SVGID_8_">
							<use xlink:href="#SVGID_7_"  style="overflow:visible;"/>
						</clipPath>
						<polygon class="st3" points="603.7,145.83 0,494.27 626.53,847.97 1228.08,500.67 						"/>
					</g>
				</g>
			</g>
			<polygon class="st4" points="614.02,0 89.51,302.83 614.04,605.66 1138.55,302.83 			"/>
			<polygon class="st5" points="89.51,302.83 89.51,447.03 614.04,749.86 614.04,605.66 			"/>
			<polygon class="st6" points="614.04,605.66 614.04,749.86 1138.56,447.03 1138.56,302.82 			"/>
		</g>
	</g>
</g>
<g id="Artwork_33_1_">
	<g>
		<defs>
			<rect id="SVGID_9_" x="343" y="41" width="599" height="464"/>
		</defs>
		<clipPath id="SVGID_10_">
			<use xlink:href="#SVGID_9_"  style="overflow:visible;"/>
		</clipPath>
		<g class="st7">
			<defs>
				<rect id="SVGID_11_" x="343" y="41" width="599" height="464"/>
			</defs>
			<clipPath id="SVGID_12_">
				<use xlink:href="#SVGID_11_"  style="overflow:visible;"/>
			</clipPath>
			<polygon class="st8" points="398.32,237.66 663.94,86.65 663.78,167.97 398.15,318.98 			"/>
			<polygon class="st9" points="443.84,358.22 381.51,322.78 470.4,272.72 532.73,308.15 			"/>
			<polygon class="st10" points="343,363.17 405.33,398.6 443.84,358.22 381.51,322.78 			"/>
			<polygon class="st11" points="532.73,308.15 532.79,326.76 472.27,360.87 405.33,398.6 443.84,358.22 			"/>
			<polygon class="st12" points="475.21,272.98 384.13,324.27 345.91,364.82 348.09,366.06 386.63,325.64 476.43,275.06 			"/>
			<polygon class="st12" points="528.77,303.53 437.78,354.77 399.53,395.31 401.71,396.55 440.19,356.19 529.99,305.61 			"/>
			<g class="st13">
				<defs>
					<rect id="SVGID_13_" x="343" y="41" width="599" height="464"/>
				</defs>
				<clipPath id="SVGID_14_">
					<use xlink:href="#SVGID_13_"  style="overflow:visible;"/>
				</clipPath>
				<g class="st14">
					<g>
						<defs>
							<rect id="SVGID_15_" x="398.16" y="272.72" width="86.07" height="54.66"/>
						</defs>
						<clipPath id="SVGID_16_">
							<use xlink:href="#SVGID_15_"  style="overflow:visible;"/>
						</clipPath>
						<polygon class="st15" points="470.4,272.72 398.16,313.4 398.16,313.41 446.75,309.31 479.79,327.38 484.23,280.58 						"/>
					</g>
				</g>
			</g>
			<polygon class="st16" points="483.72,243.56 483.55,300.84 409.46,259 409.62,201.71 			"/>
			<polygon class="st17" points="483.69,251.05 483.69,253.4 409.59,211.55 409.6,209.2 			"/>
			<polygon class="st17" points="483.56,296 483.56,298.35 409.46,256.5 409.47,254.15 			"/>
			<polygon class="st17" points="483.58,291 483.57,293.36 409.48,251.51 409.48,249.15 			"/>
			<polygon class="st17" points="483.59,286.01 483.59,288.36 409.49,246.51 409.5,244.16 			"/>
			<polygon class="st17" points="483.61,281.01 483.6,283.36 409.51,241.51 409.51,239.17 			"/>
			<polygon class="st17" points="483.62,276.02 483.61,278.37 409.52,236.52 409.53,234.17 			"/>
			<polygon class="st17" points="483.64,271.03 483.63,273.38 409.54,231.53 409.54,229.18 			"/>
			<polygon class="st17" points="483.65,266.03 483.64,268.39 409.55,226.54 409.56,224.18 			"/>
			<polygon class="st17" points="483.66,261.04 483.66,263.39 409.56,221.54 409.57,219.19 			"/>
			<polygon class="st17" points="483.68,256.04 483.67,258.39 409.58,216.54 409.59,214.2 			"/>
			<polygon class="st17" points="483.71,246.06 483.7,248.4 409.61,206.56 409.61,204.21 			"/>
			<polygon class="st8" points="492.6,290.91 758.22,139.9 758.06,221.22 492.43,372.23 			"/>
			<polygon class="st9" points="538.03,411.46 475.7,376.03 564.6,325.97 626.93,361.4 			"/>
			<polygon class="st10" points="499.53,451.85 437.2,416.42 475.7,376.03 538.03,411.46 			"/>
			<polygon class="st11" points="626.93,361.4 626.98,380.01 566.47,414.12 499.53,451.85 538.03,411.46 			"/>
			<polygon class="st12" points="569.4,326.23 478.32,377.52 440.1,418.07 442.28,419.31 480.82,378.88 570.63,328.31 			"/>
			<polygon class="st12" points="622.96,356.78 531.97,408.02 493.72,448.55 495.91,449.79 534.38,409.44 624.19,358.86 			"/>
			<g class="st13">
				<defs>
					<rect id="SVGID_17_" x="343" y="41" width="599" height="464"/>
				</defs>
				<clipPath id="SVGID_18_">
					<use xlink:href="#SVGID_17_"  style="overflow:visible;"/>
				</clipPath>
				<g class="st18">
					<g>
						<defs>
							<rect id="SVGID_19_" x="492.35" y="325.97" width="86.07" height="54.66"/>
						</defs>
						<clipPath id="SVGID_20_">
							<use xlink:href="#SVGID_19_"  style="overflow:visible;"/>
						</clipPath>
						<polygon class="st19" points="564.6,325.97 492.35,366.65 492.36,366.66 540.95,362.56 573.98,380.63 578.42,333.82 						"/>
					</g>
				</g>
			</g>
			<polygon class="st16" points="577.99,295.45 577.86,352.74 503.74,310.94 503.87,253.65 			"/>
			<polygon class="st17" points="577.98,302.94 577.97,305.3 503.85,263.5 503.86,261.14 			"/>
			<polygon class="st17" points="577.87,347.89 577.87,350.24 503.75,308.44 503.75,306.09 			"/>
			<polygon class="st17" points="577.89,342.9 577.88,345.25 503.76,303.45 503.77,301.09 			"/>
			<polygon class="st17" points="577.9,337.91 577.89,340.26 503.77,298.45 503.78,296.1 			"/>
			<polygon class="st17" points="577.91,332.91 577.9,335.26 503.78,293.46 503.79,291.11 			"/>
			<polygon class="st17" points="577.92,327.91 577.91,330.27 503.79,288.47 503.8,286.11 			"/>
			<polygon class="st17" points="577.93,322.92 577.93,325.27 503.8,283.47 503.81,281.12 			"/>
			<polygon class="st17" points="577.94,317.93 577.94,320.28 503.82,278.48 503.82,276.12 			"/>
			<polygon class="st17" points="577.95,312.94 577.95,315.29 503.83,273.48 503.83,271.13 			"/>
			<polygon class="st17" points="577.96,307.94 577.96,310.29 503.84,268.48 503.84,266.14 			"/>
			<polygon class="st17" points="577.99,297.95 577.98,300.3 503.86,258.5 503.87,256.15 			"/>
			<polygon class="st8" points="586.88,344.16 852.51,193.15 852.34,274.47 586.71,425.48 			"/>
			<polygon class="st9" points="632.93,464.61 570.6,429.18 659.49,379.11 721.82,414.55 			"/>
			<polygon class="st10" points="532.09,469.57 594.42,505 632.93,464.61 570.6,429.18 			"/>
			<polygon class="st11" points="632.93,464.61 594.42,505 661.36,467.27 721.88,433.16 721.82,414.55 			"/>
			<polygon class="st12" points="664.3,379.37 573.22,430.67 535,471.22 537.18,472.46 575.72,432.03 665.52,381.46 			"/>
			<polygon class="st12" points="717.86,409.93 626.87,461.17 588.62,501.7 590.8,502.94 629.28,462.58 719.08,412.01 			"/>
			<g class="st13">
				<defs>
					<rect id="SVGID_21_" x="343" y="41" width="599" height="464"/>
				</defs>
				<clipPath id="SVGID_22_">
					<use xlink:href="#SVGID_21_"  style="overflow:visible;"/>
				</clipPath>
				<g class="st20">
					<g>
						<defs>
							<rect id="SVGID_23_" x="587.25" y="379.11" width="86.07" height="54.66"/>
						</defs>
						<clipPath id="SVGID_24_">
							<use xlink:href="#SVGID_23_"  style="overflow:visible;"/>
						</clipPath>
						<polygon class="st21" points="659.49,379.11 587.25,419.8 587.25,419.8 635.84,415.71 668.88,433.77 673.32,386.97 						"/>
					</g>
				</g>
			</g>
			<polygon class="st16" points="673.32,372.48 673.15,455.05 599.06,413.2 599.22,330.63 			"/>
			<polygon class="st17" points="673.29,405.25 673.29,407.61 599.19,365.76 599.2,363.41 			"/>
			<polygon class="st17" points="673.16,450.21 673.16,452.55 599.06,410.71 599.07,408.36 			"/>
			<polygon class="st17" points="673.18,445.21 673.17,447.56 599.08,405.72 599.09,403.36 			"/>
			<polygon class="st17" points="673.19,440.22 673.19,442.57 599.09,400.72 599.1,398.37 			"/>
			<polygon class="st17" points="673.21,435.22 673.2,437.57 599.11,395.72 599.11,393.37 			"/>
			<polygon class="st17" points="673.22,430.22 673.22,432.58 599.12,390.73 599.13,388.38 			"/>
			<polygon class="st17" points="673.24,425.23 673.23,427.58 599.14,385.73 599.14,383.39 			"/>
			<polygon class="st17" points="673.25,420.24 673.24,422.59 599.15,380.74 599.16,378.39 			"/>
			<polygon class="st17" points="673.27,415.25 673.26,417.6 599.16,375.75 599.17,373.4 			"/>
			<polygon class="st17" points="673.28,410.25 673.27,412.6 599.18,370.75 599.19,368.4 			"/>
			<polygon class="st17" points="673.31,400.26 673.3,402.61 599.21,360.76 599.22,358.42 			"/>
			<polygon class="st17" points="673.24,395 673.24,397.35 599.14,355.5 599.15,353.15 			"/>
			<polygon class="st17" points="673.26,390 673.25,392.36 599.16,350.51 599.16,348.15 			"/>
			<polygon class="st17" points="673.27,385.01 673.27,387.36 599.17,345.51 599.18,343.16 			"/>
			<polygon class="st17" points="673.29,380.01 673.28,382.37 599.19,340.52 599.19,338.17 			"/>
			<polygon class="st17" points="673.3,375.02 673.29,377.37 599.2,335.52 599.21,333.18 			"/>
			<g class="st13">
				<defs>
					<rect id="SVGID_25_" x="343" y="41" width="599" height="464"/>
				</defs>
				<clipPath id="SVGID_26_">
					<use xlink:href="#SVGID_25_"  style="overflow:visible;"/>
				</clipPath>
				<g class="st22">
					<g>
						<defs>
							<rect id="SVGID_27_" x="599.06" y="341.36" width="69.61" height="76.72"/>
						</defs>
						<clipPath id="SVGID_28_">
							<use xlink:href="#SVGID_27_"  style="overflow:visible;"/>
						</clipPath>
						<polygon class="st23" points="599.2,343.17 599.18,343.16 599.17,345.51 599.19,345.52 599.19,348.16 599.16,348.15 
							599.16,350.51 599.18,350.52 599.18,353.16 599.15,353.15 599.14,355.5 599.17,355.51 599.06,413.2 607.69,418.08 
							607.69,366.83 668.67,401.78 668.67,371.74 599.2,341.36 						"/>
					</g>
				</g>
			</g>
			<polygon class="st24" points="650.33,41 384.71,192.01 530.67,227.66 796.3,76.65 			"/>
			<polygon class="st25" points="676.38,356.74 676.1,475.96 941.73,324.95 942,205.73 			"/>
			<polygon class="st26" points="530.67,227.66 676.38,356.74 942,205.73 796.3,76.65 			"/>
			<polygon class="st27" points="530.67,227.66 384.71,192.01 384.43,311.23 393.22,316.19 398.16,313.41 398.32,237.66 
				472.41,279.51 472.24,360.82 487.53,369.46 492.44,366.66 492.6,290.91 566.69,332.76 566.53,414.07 581.95,422.79 
				586.73,420.09 586.88,344.16 660.97,386.01 660.81,467.33 676.1,475.96 676.38,356.74 			"/>
			<g class="st13">
				<defs>
					<rect id="SVGID_29_" x="343" y="41" width="599" height="464"/>
				</defs>
				<clipPath id="SVGID_30_">
					<use xlink:href="#SVGID_29_"  style="overflow:visible;"/>
				</clipPath>
				<g class="st28">
					<g>
						<defs>
							<rect id="SVGID_31_" x="747.45" y="412.6" width="55.9" height="31.63"/>
						</defs>
						<clipPath id="SVGID_32_">
							<use xlink:href="#SVGID_31_"  style="overflow:visible;"/>
						</clipPath>
						<polygon class="st29" points="762.98,444.24 747.45,435.39 787.82,412.6 803.35,421.44 						"/>
					</g>
				</g>
			</g>
			<polygon class="st30" points="797.55,419.1 784.03,411.42 786.76,409.88 800.28,417.56 			"/>
			<polygon class="st30" points="794.86,417.54 781.35,409.85 784.02,408.34 797.54,416.03 			"/>
			<polygon class="st30" points="792.27,415.92 778.76,408.24 781.34,406.78 794.85,414.46 			"/>
			<polygon class="st31" points="762.73,442.13 749.21,434.45 749.18,421.96 762.69,429.64 			"/>
			<polygon class="st11" points="762.69,429.64 749.18,421.96 778.75,405.26 792.26,412.94 			"/>
			<g class="st13">
				<defs>
					<rect id="SVGID_33_" x="343" y="41" width="599" height="464"/>
				</defs>
				<clipPath id="SVGID_34_">
					<use xlink:href="#SVGID_33_"  style="overflow:visible;"/>
				</clipPath>
				<path class="st32" d="M792.26,412.94l0.01,2.98l2.58-1.46c0,1.17,0.01,1.92,0.01,3.08l2.68-1.51l0.01,3.08l2.73-1.54l0.01,3.36
					c-1.27,0.72-35.71,20.17-37.56,21.21l-0.04-12.49L792.26,412.94z"/>
				<polygon class="st33" points="755.34,420.82 753.31,419.67 753.21,386.12 755.24,387.27 				"/>
				<polygon class="st34" points="755.24,387.27 753.21,386.12 768.6,377.43 770.62,378.58 				"/>
				<polygon class="st33" points="770.62,378.58 770.72,412.13 755.34,420.82 755.24,387.27 				"/>
				<polygon class="st35" points="384.63,213.26 676.3,378 676.35,365.59 384.69,200.85 				"/>
				<polygon class="st36" points="676.3,377.99 941.93,227.27 941.99,214.86 676.36,365.58 				"/>
				<polygon class="st37" points="595.07,212.54 714.53,318.37 717.84,316.5 595.07,207.73 563.87,225.46 567.18,228.39 				"/>
				<polygon class="st37" points="642.98,185.3 762.44,291.14 765.75,289.26 642.98,180.49 611.79,198.23 615.09,201.15 				"/>
				<polygon class="st37" points="738.8,130.82 858.27,236.66 861.57,234.78 738.8,126.02 707.61,143.75 710.91,146.68 				"/>
				<polygon class="st37" points="786.71,103.59 906.18,209.42 909.48,207.54 786.71,98.78 755.52,116.51 758.82,119.44 				"/>
				<polygon class="st37" points="683.5,162.27 690.89,158.06 810.35,263.9 813.66,262.02 690.89,153.26 683.5,157.46 659.7,170.99 
					663,173.92 				"/>
				<polygon class="st38" points="714.53,318.37 595.07,212.54 567.18,228.39 686.64,334.23 717.84,316.5 				"/>
				<polygon class="st38" points="762.44,291.14 642.98,185.3 615.09,201.15 734.56,306.99 765.75,289.26 				"/>
				<polygon class="st38" points="858.27,236.66 738.8,130.82 710.91,146.68 830.38,252.52 861.57,234.78 				"/>
				<polygon class="st38" points="906.18,209.42 786.71,103.59 758.82,119.44 878.29,225.28 909.48,207.54 				"/>
				<polygon class="st38" points="810.35,263.9 690.89,158.06 683.5,162.27 663,173.92 782.47,279.75 813.66,262.02 				"/>
				<g class="st39">
					<g>
						<defs>
							<rect id="SVGID_35_" x="713.08" y="316.5" width="4.75" height="2.63"/>
						</defs>
						<clipPath id="SVGID_36_">
							<use xlink:href="#SVGID_35_"  style="overflow:visible;"/>
						</clipPath>
						<polygon class="st40" points="713.08,317.09 713.21,319.13 717.84,316.5 714.53,318.37 						"/>
					</g>
				</g>
				<g class="st39">
					<g>
						<defs>
							<rect id="SVGID_37_" x="632.72" y="248.68" width="66.34" height="85.55"/>
						</defs>
						<clipPath id="SVGID_38_">
							<use xlink:href="#SVGID_37_"  style="overflow:visible;"/>
						</clipPath>
						<polygon class="st41" points="686.64,334.23 699.06,327.17 698.03,303.75 635.86,248.68 632.72,286.46 						"/>
					</g>
				</g>
				<g class="st39">
					<g>
						<defs>
							<rect id="SVGID_39_" x="638.12" y="185.3" width="58.57" height="88.15"/>
						</defs>
						<clipPath id="SVGID_40_">
							<use xlink:href="#SVGID_39_"  style="overflow:visible;"/>
						</clipPath>
						<polygon class="st42" points="696.69,273.45 694.83,231.24 642.98,185.3 641.05,186.4 638.12,221.56 						"/>
					</g>
				</g>
				<g class="st39">
					<g>
						<defs>
							<rect id="SVGID_41_" x="708.54" y="243.38" width="23.69" height="61.54"/>
						</defs>
						<clipPath id="SVGID_42_">
							<use xlink:href="#SVGID_41_"  style="overflow:visible;"/>
						</clipPath>
						<polygon class="st43" points="727.62,260.28 708.54,243.38 711.19,286.29 732.23,304.93 						"/>
					</g>
				</g>
				<g class="st39">
					<g>
						<defs>
							<rect id="SVGID_43_" x="710.91" y="144.01" width="5.48" height="7.52"/>
						</defs>
						<clipPath id="SVGID_44_">
							<use xlink:href="#SVGID_43_"  style="overflow:visible;"/>
						</clipPath>
						<polygon class="st44" points="710.91,146.68 716.39,151.53 715.61,144.01 						"/>
					</g>
				</g>
				<g class="st39">
					<g>
						<defs>
							<rect id="SVGID_45_" x="769.23" y="157.78" width="67.34" height="94.73"/>
						</defs>
						<clipPath id="SVGID_46_">
							<use xlink:href="#SVGID_45_"  style="overflow:visible;"/>
						</clipPath>
						<path class="st45" d="M832.58,213.91l-63.35-56.13c2.01,14.17,4.25,30,6.56,46.37l54.59,48.36l6.19-3.52L832.58,213.91z"/>
					</g>
				</g>
				<g class="st39">
					<g>
						<defs>
							<rect id="SVGID_47_" x="763.39" y="103.59" width="65.51" height="77.94"/>
						</defs>
						<clipPath id="SVGID_48_">
							<use xlink:href="#SVGID_47_"  style="overflow:visible;"/>
						</clipPath>
						<path class="st46" d="M786.71,103.59l-23.32,13.26c0.34,2.34,0.7,4.88,1.09,7.62l64.42,57.07l-5.12-45.1L786.71,103.59z"/>
					</g>
				</g>
				<g class="st39">
					<g>
						<defs>
							<rect id="SVGID_49_" x="704" y="169.67" width="20.31" height="58.56"/>
						</defs>
						<clipPath id="SVGID_50_">
							<use xlink:href="#SVGID_49_"  style="overflow:visible;"/>
						</clipPath>
						<polygon class="st47" points="706.64,212.58 724.31,228.23 719.7,183.58 704,169.67 						"/>
					</g>
				</g>
				<g class="st39">
					<g>
						<defs>
							<rect id="SVGID_51_" x="780.48" y="237.43" width="33.18" height="40.24"/>
						</defs>
						<clipPath id="SVGID_52_">
							<use xlink:href="#SVGID_51_"  style="overflow:visible;"/>
						</clipPath>
						<path class="st48" d="M810.35,263.9l-29.88-26.47c1.94,13.77,3.86,27.4,5.66,40.24l27.52-15.65L810.35,263.9z"/>
					</g>
				</g>
				<g class="st39">
					<g>
						<defs>
							<rect id="SVGID_53_" x="663" y="158.06" width="30.49" height="42.87"/>
						</defs>
						<clipPath id="SVGID_54_">
							<use xlink:href="#SVGID_53_"  style="overflow:visible;"/>
						</clipPath>
						<polygon class="st49" points="691.63,158.72 690.89,158.06 683.5,162.26 663,173.92 693.49,200.93 						"/>
					</g>
				</g>
				<polygon class="st37" points="549.38,118.68 649.87,143.22 650.18,143.05 654.31,140.7 549.38,115.07 526.35,128.16 
					530.79,129.24 				"/>
				<polygon class="st37" points="503.5,144.76 603.99,169.3 608.43,166.78 503.5,141.15 480.47,154.24 484.91,155.33 				"/>
				<polygon class="st37" points="457.62,170.84 558.11,195.39 562.54,192.87 457.62,167.24 434.59,180.33 439.03,181.41 				"/>
				<polygon class="st37" points="595.26,92.59 695.75,117.14 700.19,114.62 595.26,88.99 572.24,102.08 576.67,103.16 				"/>
				<polygon class="st37" points="641.14,66.51 741.63,91.05 746.07,88.53 641.14,62.9 618.12,75.99 622.55,77.08 				"/>
				<polygon class="st50" points="549.38,118.68 530.79,129.24 526.35,128.16 631.28,153.79 649.87,143.22 				"/>
				<polygon class="st50" points="503.5,144.76 484.91,155.33 480.47,154.24 585.4,179.87 603.99,169.3 				"/>
				<polygon class="st50" points="457.62,170.84 439.03,181.41 434.59,180.33 539.52,205.95 558.11,195.39 				"/>
				<polygon class="st50" points="595.26,92.59 576.67,103.16 572.24,102.08 677.16,127.7 695.75,117.14 				"/>
				<polygon class="st50" points="741.63,91.05 641.14,66.51 622.55,77.08 618.12,75.99 723.04,101.62 746.07,88.53 				"/>
				<g class="st39">
					<g>
						<defs>
							<rect id="SVGID_55_" x="553.8" y="120.62" width="19.47" height="18.38"/>
						</defs>
						<clipPath id="SVGID_56_">
							<use xlink:href="#SVGID_55_"  style="overflow:visible;"/>
						</clipPath>
						<polygon class="st51" points="553.8,134.86 570.76,139.01 573.27,124.51 557.35,120.62 						"/>
					</g>
				</g>
				<g class="st39">
					<g>
						<defs>
							<rect id="SVGID_57_" x="631.86" y="138.82" width="13.87" height="13.98"/>
						</defs>
						<clipPath id="SVGID_58_">
							<use xlink:href="#SVGID_57_"  style="overflow:visible;"/>
						</clipPath>
						<polygon class="st52" points="645.62,142.18 631.86,138.82 633.02,152.8 645.74,145.57 						"/>
					</g>
				</g>
				<g class="st39">
					<g>
						<defs>
							<rect id="SVGID_59_" x="526.35" y="121.77" width="17.59" height="9.95"/>
						</defs>
						<clipPath id="SVGID_60_">
							<use xlink:href="#SVGID_59_"  style="overflow:visible;"/>
						</clipPath>
						<polygon class="st53" points="526.35,128.16 540.9,131.71 543.94,121.77 530.79,129.24 						"/>
					</g>
				</g>
				<g class="st39">
					<g>
						<defs>
							<rect id="SVGID_61_" x="545.04" y="155.77" width="22.04" height="19.01"/>
						</defs>
						<clipPath id="SVGID_62_">
							<use xlink:href="#SVGID_61_"  style="overflow:visible;"/>
						</clipPath>
						<polygon class="st54" points="545.04,170.01 564.56,174.78 567.08,160.29 548.59,155.77 						"/>
					</g>
				</g>
				<g class="st39">
					<g>
						<defs>
							<rect id="SVGID_63_" x="488.29" y="144.76" width="46.29" height="21.65"/>
						</defs>
						<clipPath id="SVGID_64_">
							<use xlink:href="#SVGID_63_"  style="overflow:visible;"/>
						</clipPath>
						<path class="st55" d="M488.29,156.15l41.98,10.26l4.3-14.06l-31.08-7.59l-14.44,8.21
							C488.8,154.03,488.55,155.09,488.29,156.15"/>
					</g>
				</g>
				<g class="st39">
					<g>
						<defs>
							<rect id="SVGID_65_" x="536.28" y="190.92" width="21.83" height="15.03"/>
						</defs>
						<clipPath id="SVGID_66_">
							<use xlink:href="#SVGID_65_"  style="overflow:visible;"/>
						</clipPath>
						<polygon class="st56" points="539.83,190.92 536.28,205.16 539.52,205.96 558.11,195.39 						"/>
					</g>
				</g>
				<g class="st39">
					<g>
						<defs>
							<rect id="SVGID_67_" x="479.79" y="177.1" width="44.16" height="24"/>
						</defs>
						<clipPath id="SVGID_68_">
							<use xlink:href="#SVGID_67_"  style="overflow:visible;"/>
						</clipPath>
						<path class="st57" d="M519.65,201.1l4.3-14.06l-40.72-9.95c-1.21,5.01-2.37,9.83-3.44,14.27L519.65,201.1z"/>
					</g>
				</g>
				<g class="st39">
					<g>
						<defs>
							<rect id="SVGID_69_" x="628.69" y="100.76" width="16.19" height="19.06"/>
						</defs>
						<clipPath id="SVGID_70_">
							<use xlink:href="#SVGID_69_"  style="overflow:visible;"/>
						</clipPath>
						<polygon class="st58" points="628.69,100.76 629.98,116.18 644.89,119.82 644.38,104.59 						"/>
					</g>
				</g>
				<g class="st39">
					<g>
						<defs>
							<rect id="SVGID_71_" x="572.24" y="102.08" width="4.76" height="1.15"/>
						</defs>
						<clipPath id="SVGID_72_">
							<use xlink:href="#SVGID_71_"  style="overflow:visible;"/>
						</clipPath>
						<polygon class="st59" points="577,102.97 576.67,103.16 572.24,102.08 576.96,103.23 						"/>
					</g>
				</g>
				<g class="st39">
					<g>
						<defs>
							<rect id="SVGID_73_" x="626.53" y="66.51" width="17.11" height="15.72"/>
						</defs>
						<clipPath id="SVGID_74_">
							<use xlink:href="#SVGID_73_"  style="overflow:visible;"/>
						</clipPath>
						<polygon class="st60" points="641.14,66.51 626.53,74.81 626.81,78.12 643.64,82.23 643.14,67 						"/>
					</g>
				</g>
			</g>
		</g>
	</g>
</g>
</svg>
