<?xml version="1.0" encoding="utf-8"?>
<!-- Generator: Adobe Illustrator 25.2.0, SVG Export Plug-In . SVG Version: 6.00 Build 0)  -->
<svg version="1.1" id="Layer_1" xmlns="http://www.w3.org/2000/svg" xmlns:xlink="http://www.w3.org/1999/xlink" x="0px" y="0px"
	 viewBox="0 0 200 200" style="enable-background:new 0 0 200 200;" xml:space="preserve">
<style type="text/css">
	.st0{fill:url(#SVGID_1_);}
	.st1{fill:url(#SVGID_2_);}
	.st2{fill:url(#SVGID_3_);}
	.st3{fill:url(#SVGID_4_);}
	.st4{fill:url(#SVGID_5_);}
	.st5{fill:url(#SVGID_6_);}
	.st6{fill:url(#SVGID_7_);}
	.st7{fill:url(#SVGID_8_);}
	.st8{fill:url(#SVGID_9_);}
	.st9{fill:url(#SVGID_10_);}
	.st10{fill:url(#SVGID_11_);}
	.st11{fill:url(#SVGID_12_);}
	.st12{fill:url(#SVGID_13_);}
	.st13{fill:url(#SVGID_14_);}
	.st14{fill:url(#SVGID_15_);}
	.st15{fill:url(#SVGID_16_);}
	.st16{fill:url(#SVGID_17_);}
	.st17{fill:url(#SVGID_18_);}
	.st18{fill:url(#SVGID_19_);}
	.st19{fill:url(#SVGID_20_);}
	.st20{fill:url(#SVGID_21_);}
	.st21{fill:url(#SVGID_22_);}
	.st22{fill:url(#SVGID_23_);}
	.st23{fill:url(#SVGID_24_);}
	.st24{fill:url(#SVGID_25_);}
	.st25{fill:url(#SVGID_26_);}
	.st26{fill:url(#SVGID_27_);}
	.st27{fill:url(#SVGID_28_);}
	.st28{fill:url(#SVGID_29_);}
	.st29{fill:url(#SVGID_30_);}
</style>
<g>
	<g>
		
			<radialGradient id="SVGID_1_" cx="99.9704" cy="104.6881" r="2.4413" gradientTransform="matrix(7.6427 0 0 11.6471 -661.7797 -1061.9286)" gradientUnits="userSpaceOnUse">
			<stop  offset="0.201" style="stop-color:#1D1E1C"/>
			<stop  offset="0.2276" style="stop-color:#2A2B29"/>
			<stop  offset="0.3941" style="stop-color:#757574"/>
			<stop  offset="0.5428" style="stop-color:#B0B0B0"/>
			<stop  offset="0.6685" style="stop-color:#DBDBDB"/>
			<stop  offset="0.7663" style="stop-color:#F5F5F5"/>
			<stop  offset="0.8241" style="stop-color:#FFFFFF"/>
		</radialGradient>
		<path class="st0" d="M120.9,157.4c0,15.7-8.4,28.4-18.7,28.4c-10.3,0-18.7-12.7-18.7-28.4c0-15.7,8.4-28.4,18.7-28.4
			C112.6,129,120.9,141.7,120.9,157.4z"/>
		
			<radialGradient id="SVGID_2_" cx="107.8804" cy="101.5464" r="1.9183" gradientTransform="matrix(7.6427 0 0 11.6471 -661.7797 -1061.9286)" gradientUnits="userSpaceOnUse">
			<stop  offset="0.201" style="stop-color:#1D1E1C"/>
			<stop  offset="0.2276" style="stop-color:#2A2B29"/>
			<stop  offset="0.3941" style="stop-color:#757574"/>
			<stop  offset="0.5428" style="stop-color:#B0B0B0"/>
			<stop  offset="0.6685" style="stop-color:#DBDBDB"/>
			<stop  offset="0.7663" style="stop-color:#F5F5F5"/>
			<stop  offset="0.8241" style="stop-color:#FFFFFF"/>
		</radialGradient>
		<path class="st1" d="M177.4,120.8c0,12.3-6.6,22.3-14.7,22.3c-8.1,0-14.7-10-14.7-22.3s6.6-22.3,14.7-22.3
			C170.8,98.5,177.4,108.5,177.4,120.8z"/>
		
			<radialGradient id="SVGID_3_" cx="104.5205" cy="102.7591" r="3.166" gradientTransform="matrix(7.6427 0 0 11.6471 -661.7797 -1061.9286)" gradientUnits="userSpaceOnUse">
			<stop  offset="0.201" style="stop-color:#1D1E1C"/>
			<stop  offset="0.2276" style="stop-color:#2A2B29"/>
			<stop  offset="0.3941" style="stop-color:#757574"/>
			<stop  offset="0.5428" style="stop-color:#B0B0B0"/>
			<stop  offset="0.6685" style="stop-color:#DBDBDB"/>
			<stop  offset="0.7663" style="stop-color:#F5F5F5"/>
			<stop  offset="0.8241" style="stop-color:#FFFFFF"/>
		</radialGradient>
		<path class="st2" d="M161.2,134.9c0,20.4-10.8,36.9-24.2,36.9c-13.4,0-24.2-16.5-24.2-36.9c0-20.4,10.8-36.9,24.2-36.9
			C150.4,98,161.2,114.6,161.2,134.9z"/>
		
			<radialGradient id="SVGID_4_" cx="98.4763" cy="103.65" r="4.6967" gradientTransform="matrix(7.6427 0 0 11.6471 -661.7797 -1061.9286)" gradientUnits="userSpaceOnUse">
			<stop  offset="0.2312" style="stop-color:#1D1E1C"/>
			<stop  offset="0.3614" style="stop-color:#5A5A59"/>
			<stop  offset="0.5262" style="stop-color:#A0A09F"/>
			<stop  offset="0.6638" style="stop-color:#D3D3D3"/>
			<stop  offset="0.767" style="stop-color:#F3F3F3"/>
			<stop  offset="0.8241" style="stop-color:#FFFFFF"/>
		</radialGradient>
		<path class="st3" d="M126.7,145.3c0,30.2-16.1,54.7-35.9,54.7C71,200,55,175.5,55,145.3c0-30.2,16.1-54.7,35.9-54.7
			C110.7,90.6,126.7,115.1,126.7,145.3z"/>
		
			<radialGradient id="SVGID_5_" cx="92.7224" cy="101.7489" r="6.1328" gradientTransform="matrix(7.6427 0 0 11.6471 -661.7797 -1061.9286)" gradientUnits="userSpaceOnUse">
			<stop  offset="0.201" style="stop-color:#1D1E1C"/>
			<stop  offset="0.2276" style="stop-color:#2A2B29"/>
			<stop  offset="0.3941" style="stop-color:#757574"/>
			<stop  offset="0.5428" style="stop-color:#B0B0B0"/>
			<stop  offset="0.6685" style="stop-color:#DBDBDB"/>
			<stop  offset="0.7663" style="stop-color:#F5F5F5"/>
			<stop  offset="0.8241" style="stop-color:#FFFFFF"/>
		</radialGradient>
		<path class="st4" d="M93.7,123.2c0,39.5-21,71.4-46.9,71.4C21,194.6,0,162.6,0,123.2c0-39.5,21-71.4,46.9-71.4
			C72.8,51.7,93.7,83.7,93.7,123.2z"/>
		<g>
			<g>
				<linearGradient id="SVGID_6_" gradientUnits="userSpaceOnUse" x1="36.3538" y1="157.0982" x2="157.3806" y2="36.0713">
					<stop  offset="0" style="stop-color:#EAEAEA"/>
					<stop  offset="1" style="stop-color:#FFFFFF"/>
				</linearGradient>
				<path class="st5" d="M168.9,93.7c-2.1-10.9-6.6-20.2-12.7-26.3c0.7-3.6,1.2-7.4,1.2-11.3c0-20.6-10.9-37.3-24.5-37.3
					c-3.8,0-7.4,1.3-10.6,3.7C115.4,8.9,104.6,0,92.4,0C75.1,0,60.5,17.9,56.2,42.1c-21.5,2.1-38.5,29.3-38.5,62.5
					c0,34.6,18.4,62.6,41.1,62.6c4.9,0,9.5-1.3,13.9-3.7c6.8,8.5,15.5,13.6,24.9,13.6c13.4,0,25.2-10.2,32.3-25.7
					c2.9,1.4,6.1,2.2,9.3,2.2c10.1,0,19.1-7.4,24.7-18.9c0.8,0.2,1.6,0.3,2.5,0.3c7.6,0,13.7-9.3,13.7-20.9
					C180.1,104,175.3,95.5,168.9,93.7z"/>
				<linearGradient id="SVGID_7_" gradientUnits="userSpaceOnUse" x1="86.4157" y1="175.6354" x2="116.4333" y2="5.3974">
					<stop  offset="0" style="stop-color:#ECECEC"/>
					<stop  offset="0.7638" style="stop-color:#B0B1B1"/>
				</linearGradient>
				<path class="st6" d="M167.9,95.1c-2.1-10.9-6.8-21.4-13-26.9c0.7-2.1,1.5-6.2,1.5-10.7c0.1-20.6-10-36.9-23.5-36.9
					c-3.8,0-8,2.2-11.2,4.5c-6.2-13.9-18-23.8-30.2-23.8c-17.3,0-31.2,17.4-35.2,41.7c-21.5,2.1-38.5,28.3-38.5,61.6
					c0,34.6,18.4,62.6,41.1,62.6c4.9,0,9.5-1.3,13.9-3.7c6.8,8.5,15.5,13.6,24.9,13.6c13.4,0,25.2-10.2,32.3-25.7
					c2.9,1.4,6.1,2.2,9.3,2.2c10.1,0,19.1-7.4,24.7-18.9c0.8,0.2,1.6,0.3,2.5,0.3c7.6,0,12.5-8,12.8-19.5
					C179.5,105,174.3,96.9,167.9,95.1z"/>
			</g>
		</g>
		<linearGradient id="SVGID_8_" gradientUnits="userSpaceOnUse" x1="98.4722" y1="170.5234" x2="98.4722" y2="6.0332">
			<stop  offset="0" style="stop-color:#336D8F"/>
			<stop  offset="0.2499" style="stop-color:#316587"/>
			<stop  offset="0.6338" style="stop-color:#2B5072"/>
			<stop  offset="1" style="stop-color:#233657"/>
		</linearGradient>
		<path class="st7" d="M97.2,170.5c-8.1,0-16.1-4.3-22.4-12.2l-1.7-2.1l-2,1.1c-4,2.2-8.2,3.3-12.5,3.3c-20.4,0-37-25.3-37-56.4
			c0-29.7,15.2-54.5,34.7-56.3l2.7-0.3l0.7-4C63.6,21.5,76.9,6,92,6c10.5,0,20.2,7.3,26.6,20.1l1.9,3.8l2.8-2.1
			c2.8-2,5.8-3.1,8.9-3.1c11.3,0,20.5,14,20.5,31.2c0,3.2-0.3,6.4-1,9.5l-0.9,4.2l2.4,2.4c5.4,5.4,9.3,13.5,11.1,22.9l0.7,3.5
			l2.3,0.6c4.7,1.3,8,7.4,8,14.7c0,8.2-4.4,14.9-9.8,14.9c-0.6,0-1.2-0.1-1.8-0.3l-2.3-0.7l-1.4,2.9c-5.1,10.4-13,16.4-21.5,16.4
			c-2.8,0-5.5-0.6-8.1-1.9l-2.7-1.3l-1.6,3.5C119.5,161.9,108.7,170.5,97.2,170.5z"/>
		<g>
			
				<radialGradient id="SVGID_9_" cx="106.0099" cy="100.97" r="1.4938" gradientTransform="matrix(7.6427 0 0 11.6471 -661.7797 -1061.9286)" gradientUnits="userSpaceOnUse">
				<stop  offset="0.201" style="stop-color:#1D1E1C"/>
				<stop  offset="0.2276" style="stop-color:#2A2B29"/>
				<stop  offset="0.3941" style="stop-color:#757574"/>
				<stop  offset="0.5428" style="stop-color:#B0B0B0"/>
				<stop  offset="0.6685" style="stop-color:#DBDBDB"/>
				<stop  offset="0.7663" style="stop-color:#F5F5F5"/>
				<stop  offset="0.8241" style="stop-color:#FFFFFF"/>
			</radialGradient>
			<ellipse class="st8" cx="148.4" cy="114.1" rx="11.4" ry="17.4"/>
			
				<radialGradient id="SVGID_10_" cx="103.1208" cy="102.0053" r="2.4653" gradientTransform="matrix(7.6427 0 0 11.6471 -661.7797 -1061.9286)" gradientUnits="userSpaceOnUse">
				<stop  offset="0.201" style="stop-color:#1D1E1C"/>
				<stop  offset="0.2276" style="stop-color:#2A2B29"/>
				<stop  offset="0.3941" style="stop-color:#757574"/>
				<stop  offset="0.5428" style="stop-color:#B0B0B0"/>
				<stop  offset="0.6685" style="stop-color:#DBDBDB"/>
				<stop  offset="0.7663" style="stop-color:#F5F5F5"/>
				<stop  offset="0.8241" style="stop-color:#FFFFFF"/>
			</radialGradient>
			<path class="st9" d="M145.2,126.1c0,15.9-8.4,28.7-18.8,28.7c-10.4,0-18.8-12.9-18.8-28.7c0-15.9,8.4-28.7,18.8-28.7
				C136.8,97.4,145.2,110.3,145.2,126.1z"/>
			
				<radialGradient id="SVGID_11_" cx="99.8506" cy="103.4165" r="1.901" gradientTransform="matrix(7.6427 0 0 11.6471 -661.7797 -1061.9286)" gradientUnits="userSpaceOnUse">
				<stop  offset="0.201" style="stop-color:#1D1E1C"/>
				<stop  offset="0.2276" style="stop-color:#2A2B29"/>
				<stop  offset="0.3941" style="stop-color:#757574"/>
				<stop  offset="0.5428" style="stop-color:#B0B0B0"/>
				<stop  offset="0.6685" style="stop-color:#DBDBDB"/>
				<stop  offset="0.7663" style="stop-color:#F5F5F5"/>
				<stop  offset="0.8241" style="stop-color:#FFFFFF"/>
			</radialGradient>
			<path class="st10" d="M115.9,142.6c0,12.2-6.5,22.1-14.5,22.1c-8,0-14.5-9.9-14.5-22.1c0-12.2,6.5-22.1,14.5-22.1
				C109.4,120.4,115.9,130.3,115.9,142.6z"/>
			
				<radialGradient id="SVGID_12_" cx="98.4764" cy="102.8917" r="3.6572" gradientTransform="matrix(7.6427 0 0 11.6471 -661.7797 -1061.9286)" gradientUnits="userSpaceOnUse">
				<stop  offset="0.2312" style="stop-color:#1D1E1C"/>
				<stop  offset="0.3614" style="stop-color:#5A5A59"/>
				<stop  offset="0.5262" style="stop-color:#A0A09F"/>
				<stop  offset="0.6638" style="stop-color:#D3D3D3"/>
				<stop  offset="0.767" style="stop-color:#F3F3F3"/>
				<stop  offset="0.8241" style="stop-color:#FFFFFF"/>
			</radialGradient>
			<path class="st11" d="M118.8,136.5c0,23.5-12.5,42.6-28,42.6c-15.4,0-28-19.1-28-42.6c0-23.5,12.5-42.6,28-42.6
				C106.3,93.9,118.8,112.9,118.8,136.5z"/>
			
				<radialGradient id="SVGID_13_" cx="94.0798" cy="101.5154" r="4.7755" gradientTransform="matrix(7.6427 0 0 11.6471 -661.7797 -1061.9286)" gradientUnits="userSpaceOnUse">
				<stop  offset="0.201" style="stop-color:#1D1E1C"/>
				<stop  offset="0.2276" style="stop-color:#2A2B29"/>
				<stop  offset="0.3941" style="stop-color:#757574"/>
				<stop  offset="0.5428" style="stop-color:#B0B0B0"/>
				<stop  offset="0.6685" style="stop-color:#DBDBDB"/>
				<stop  offset="0.7663" style="stop-color:#F5F5F5"/>
				<stop  offset="0.8241" style="stop-color:#FFFFFF"/>
			</radialGradient>
			<path class="st12" d="M93.7,120.4c0,30.7-16.3,55.6-36.5,55.6c-20.2,0-36.5-24.9-36.5-55.6c0-30.7,16.3-55.6,36.5-55.6
				C77.4,64.8,93.7,89.7,93.7,120.4z"/>
			<g>
				<linearGradient id="SVGID_14_" gradientUnits="userSpaceOnUse" x1="35.5265" y1="88.7623" x2="161.2667" y2="88.7623">
					<stop  offset="0" style="stop-color:#B6B7B7"/>
					<stop  offset="1" style="stop-color:#E3E3E4"/>
				</linearGradient>
				<path class="st13" d="M152.5,92.7c-1.6-8.4-5.1-15.6-9.8-20.3c0.6-2.8,0.9-5.7,0.9-8.8c0-15.9-8.5-28.8-18.9-28.8
					c-2.9,0-5.7,1-8.2,2.9c-5.3-10.6-13.7-17.5-23.1-17.5c-13.4,0-24.7,13.8-28,32.6c-16.6,1.6-29.8,22.7-29.8,48.4
					c0,26.8,14.2,48.5,31.8,48.5c3.8,0,7.4-1,10.7-2.8c5.3,6.6,12,10.5,19.3,10.5c10.3,0,19.5-7.9,25-19.9c2.3,1.1,4.7,1.7,7.2,1.7
					c7.8,0,14.8-5.7,19.1-14.6c0.6,0.2,1.3,0.3,1.9,0.3c5.9,0,10.6-7.2,10.6-16.2C161.3,100.7,157.5,94.1,152.5,92.7z"/>
				<linearGradient id="SVGID_15_" gradientUnits="userSpaceOnUse" x1="88.7011" y1="156.1425" x2="111.9407" y2="24.3444">
					<stop  offset="0.1156" style="stop-color:#FFFFFF"/>
					<stop  offset="0.2734" style="stop-color:#E4E4E4"/>
					<stop  offset="0.4589" style="stop-color:#CBCBCB"/>
					<stop  offset="0.6278" style="stop-color:#BBBCBC"/>
					<stop  offset="0.7638" style="stop-color:#B6B7B7"/>
				</linearGradient>
				<path class="st14" d="M151.8,93.8c-1.6-8.4-5.3-16.6-10.1-20.8c0.5-1.6,1.1-4.8,1.1-8.3c0.1-15.9-7.8-28.6-18.2-28.6
					c-2.9,0-6.2,1.7-8.7,3.5c-4.8-10.8-14-18.4-23.4-18.4c-13.4,0-24.2,13.4-27.3,32.3c-16.6,1.6-29.8,21.9-29.8,47.7
					c0,26.8,14.2,48.5,31.8,48.5c3.8,0,7.4-1,10.7-2.8c5.3,6.6,12,10.5,19.3,10.5c10.3,0,19.5-7.9,25-19.9c2.3,1.1,4.7,1.7,7.2,1.7
					c7.8,0,14.8-5.7,19.1-14.6c0.6,0.2,1.3,0.3,1.9,0.3c5.9,0,9.7-6.2,9.9-15.1C160.7,101.4,156.8,95.1,151.8,93.8z"/>
			</g>
		</g>
	</g>
	<g>
		
			<radialGradient id="SVGID_16_" cx="105.6539" cy="104.0334" r="1.702" gradientTransform="matrix(7.6427 0 0 11.6471 -661.7797 -1061.9286)" gradientUnits="userSpaceOnUse">
			<stop  offset="0.201" style="stop-color:#1D1E1C"/>
			<stop  offset="0.2276" style="stop-color:#2A2B29"/>
			<stop  offset="0.3941" style="stop-color:#757574"/>
			<stop  offset="0.5428" style="stop-color:#B0B0B0"/>
			<stop  offset="0.6685" style="stop-color:#DBDBDB"/>
			<stop  offset="0.7663" style="stop-color:#F5F5F5"/>
			<stop  offset="0.8241" style="stop-color:#FFFFFF"/>
		</radialGradient>
		<path class="st15" d="M158.7,149.8c0,10.9-5.8,19.8-13,19.8s-13-8.9-13-19.8s5.8-19.8,13-19.8S158.7,138.8,158.7,149.8z"/>
		
			<radialGradient id="SVGID_17_" cx="111.1686" cy="101.843" r="1.3374" gradientTransform="matrix(7.6427 0 0 11.6471 -661.7797 -1061.9286)" gradientUnits="userSpaceOnUse">
			<stop  offset="0.201" style="stop-color:#1D1E1C"/>
			<stop  offset="0.2276" style="stop-color:#2A2B29"/>
			<stop  offset="0.3941" style="stop-color:#757574"/>
			<stop  offset="0.5428" style="stop-color:#B0B0B0"/>
			<stop  offset="0.6685" style="stop-color:#DBDBDB"/>
			<stop  offset="0.7663" style="stop-color:#F5F5F5"/>
			<stop  offset="0.8241" style="stop-color:#FFFFFF"/>
		</radialGradient>
		<path class="st16" d="M198.1,124.3c0,8.6-4.6,15.6-10.2,15.6c-5.6,0-10.2-7-10.2-15.6c0-8.6,4.6-15.6,10.2-15.6
			C193.5,108.7,198.1,115.6,198.1,124.3z"/>
		
			<radialGradient id="SVGID_18_" cx="108.8262" cy="102.6885" r="2.2073" gradientTransform="matrix(7.6427 0 0 11.6471 -661.7797 -1061.9286)" gradientUnits="userSpaceOnUse">
			<stop  offset="0.201" style="stop-color:#1D1E1C"/>
			<stop  offset="0.2276" style="stop-color:#2A2B29"/>
			<stop  offset="0.3941" style="stop-color:#757574"/>
			<stop  offset="0.5428" style="stop-color:#B0B0B0"/>
			<stop  offset="0.6685" style="stop-color:#DBDBDB"/>
			<stop  offset="0.7663" style="stop-color:#F5F5F5"/>
			<stop  offset="0.8241" style="stop-color:#FFFFFF"/>
		</radialGradient>
		<path class="st17" d="M186.8,134.1c0,14.2-7.6,25.7-16.9,25.7c-9.3,0-16.9-11.5-16.9-25.7c0-14.2,7.6-25.7,16.9-25.7
			C179.3,108.4,186.8,119.9,186.8,134.1z"/>
		
			<radialGradient id="SVGID_19_" cx="104.6124" cy="103.3096" r="3.2744" gradientTransform="matrix(7.6427 0 0 11.6471 -661.7797 -1061.9286)" gradientUnits="userSpaceOnUse">
			<stop  offset="0.2312" style="stop-color:#1D1E1C"/>
			<stop  offset="0.3614" style="stop-color:#5A5A59"/>
			<stop  offset="0.5262" style="stop-color:#A0A09F"/>
			<stop  offset="0.6638" style="stop-color:#D3D3D3"/>
			<stop  offset="0.767" style="stop-color:#F3F3F3"/>
			<stop  offset="0.8241" style="stop-color:#FFFFFF"/>
		</radialGradient>
		<path class="st18" d="M162.8,141.3c0,21.1-11.2,38.1-25,38.1c-13.8,0-25-17.1-25-38.1c0-21.1,11.2-38.1,25-38.1
			C151.6,103.2,162.8,120.3,162.8,141.3z"/>
		
			<radialGradient id="SVGID_20_" cx="100.6009" cy="101.9842" r="4.2756" gradientTransform="matrix(7.6427 0 0 11.6471 -661.7797 -1061.9286)" gradientUnits="userSpaceOnUse">
			<stop  offset="0.201" style="stop-color:#1D1E1C"/>
			<stop  offset="0.2276" style="stop-color:#2A2B29"/>
			<stop  offset="0.3941" style="stop-color:#757574"/>
			<stop  offset="0.5428" style="stop-color:#B0B0B0"/>
			<stop  offset="0.6685" style="stop-color:#DBDBDB"/>
			<stop  offset="0.7663" style="stop-color:#F5F5F5"/>
			<stop  offset="0.8241" style="stop-color:#FFFFFF"/>
		</radialGradient>
		<path class="st19" d="M139.8,125.9c0,27.5-14.6,49.8-32.7,49.8s-32.7-22.3-32.7-49.8c0-27.5,14.6-49.8,32.7-49.8
			S139.8,98.4,139.8,125.9z"/>
		<g>
			<g>
				<linearGradient id="SVGID_21_" gradientUnits="userSpaceOnUse" x1="99.7515" y1="149.5597" x2="184.1282" y2="65.1831">
					<stop  offset="0" style="stop-color:#EAEAEA"/>
					<stop  offset="1" style="stop-color:#FFFFFF"/>
				</linearGradient>
				<path class="st20" d="M192.1,105.4c-1.4-7.6-4.6-14.1-8.9-18.3c0.5-2.5,0.8-5.1,0.8-7.9c0-14.3-7.6-26-17-26
					c-2.7,0-5.2,0.9-7.4,2.6c-4.8-9.6-12.3-15.7-20.8-15.7c-12.1,0-22.2,12.5-25.2,29.4c-15,1.4-26.8,20.4-26.8,43.6
					c0,24.1,12.8,43.7,28.7,43.7c3.4,0,6.6-0.9,9.7-2.5c4.7,5.9,10.8,9.5,17.4,9.5c9.3,0,17.6-7.1,22.5-17.9c2,1,4.2,1.5,6.5,1.5
					c7.1,0,13.3-5.2,17.2-13.2c0.6,0.2,1.1,0.2,1.7,0.2c5.3,0,9.6-6.5,9.6-14.6C200,112.6,196.6,106.6,192.1,105.4z"/>
				<linearGradient id="SVGID_22_" gradientUnits="userSpaceOnUse" x1="134.6537" y1="162.4832" x2="155.5809" y2="43.7988">
					<stop  offset="0" style="stop-color:#ECECEC"/>
					<stop  offset="0.7638" style="stop-color:#B0B1B1"/>
				</linearGradient>
				<path class="st21" d="M191.5,106.3c-1.4-7.6-4.7-14.9-9.1-18.8c0.5-1.5,1-4.3,1-7.5c0-14.3-7-25.7-16.4-25.7
					c-2.7,0-5.6,1.5-7.8,3.2c-4.3-9.7-12.6-16.6-21.1-16.6c-12.1,0-21.8,12.1-24.6,29.1c-15,1.4-26.8,19.8-26.8,42.9
					c0,24.1,12.8,43.7,28.7,43.7c3.4,0,6.6-0.9,9.7-2.5c4.7,5.9,10.8,9.5,17.4,9.5c9.3,0,17.6-7.1,22.5-17.9c2,1,4.2,1.5,6.5,1.5
					c7.1,0,13.3-5.2,17.2-13.2c0.6,0.2,1.1,0.2,1.7,0.2c5.3,0,8.7-5.6,8.9-13.6C199.5,113.2,196,107.6,191.5,106.3z"/>
			</g>
		</g>
		<linearGradient id="SVGID_23_" gradientUnits="userSpaceOnUse" x1="143.0591" y1="158.9205" x2="143.0591" y2="44.2417">
			<stop  offset="0" style="stop-color:#336D8F"/>
			<stop  offset="0.2499" style="stop-color:#316587"/>
			<stop  offset="0.6338" style="stop-color:#2B5072"/>
			<stop  offset="1" style="stop-color:#233657"/>
		</linearGradient>
		<path class="st22" d="M142.2,158.9c-5.7,0-11.2-3-15.6-8.5l-1.2-1.5l-1.4,0.8c-2.8,1.5-5.7,2.3-8.7,2.3
			c-14.2,0-25.8-17.6-25.8-39.3c0-20.7,10.6-38,24.2-39.3l1.9-0.2l0.5-2.8c2.7-15.4,12-26.2,22.5-26.2c7.3,0,14.1,5.1,18.6,14
			l1.3,2.6l2-1.4c1.9-1.4,4-2.2,6.2-2.2c7.9,0,14.3,9.8,14.3,21.8c0,2.3-0.2,4.5-0.7,6.6l-0.6,2.9l1.7,1.7c3.7,3.8,6.5,9.4,7.7,15.9
			l0.5,2.4l1.6,0.4c3.2,0.9,5.6,5.2,5.6,10.2c0,5.7-3.1,10.4-6.8,10.4c-0.4,0-0.8-0.1-1.2-0.2l-1.6-0.5l-1,2
			c-3.6,7.3-9,11.5-15,11.5c-1.9,0-3.8-0.4-5.6-1.3l-1.9-0.9l-1.1,2.5C157.7,152.9,150.2,158.9,142.2,158.9z"/>
		<g>
			
				<radialGradient id="SVGID_24_" cx="109.8645" cy="101.4411" r="1.0415" gradientTransform="matrix(7.6427 0 0 11.6471 -661.7797 -1061.9286)" gradientUnits="userSpaceOnUse">
				<stop  offset="0.201" style="stop-color:#1D1E1C"/>
				<stop  offset="0.2276" style="stop-color:#2A2B29"/>
				<stop  offset="0.3941" style="stop-color:#757574"/>
				<stop  offset="0.5428" style="stop-color:#B0B0B0"/>
				<stop  offset="0.6685" style="stop-color:#DBDBDB"/>
				<stop  offset="0.7663" style="stop-color:#F5F5F5"/>
				<stop  offset="0.8241" style="stop-color:#FFFFFF"/>
			</radialGradient>
			<path class="st23" d="M185.8,119.6c0,6.7-3.6,12.1-8,12.1c-4.4,0-8-5.4-8-12.1c0-6.7,3.6-12.1,8-12.1
				C182.3,107.4,185.8,112.9,185.8,119.6z"/>
			
				<radialGradient id="SVGID_25_" cx="107.8503" cy="102.163" r="1.7188" gradientTransform="matrix(7.6427 0 0 11.6471 -661.7797 -1061.9286)" gradientUnits="userSpaceOnUse">
				<stop  offset="0.201" style="stop-color:#1D1E1C"/>
				<stop  offset="0.2276" style="stop-color:#2A2B29"/>
				<stop  offset="0.3941" style="stop-color:#757574"/>
				<stop  offset="0.5428" style="stop-color:#B0B0B0"/>
				<stop  offset="0.6685" style="stop-color:#DBDBDB"/>
				<stop  offset="0.7663" style="stop-color:#F5F5F5"/>
				<stop  offset="0.8241" style="stop-color:#FFFFFF"/>
			</radialGradient>
			<path class="st24" d="M175.6,128c0,11.1-5.9,20-13.1,20c-7.3,0-13.1-9-13.1-20c0-11.1,5.9-20,13.1-20
				C169.7,108,175.6,116.9,175.6,128z"/>
			
				<radialGradient id="SVGID_26_" cx="105.5705" cy="103.1468" r="1.3253" gradientTransform="matrix(7.6427 0 0 11.6471 -661.7797 -1061.9286)" gradientUnits="userSpaceOnUse">
				<stop  offset="0.201" style="stop-color:#1D1E1C"/>
				<stop  offset="0.2276" style="stop-color:#2A2B29"/>
				<stop  offset="0.3941" style="stop-color:#757574"/>
				<stop  offset="0.5428" style="stop-color:#B0B0B0"/>
				<stop  offset="0.6685" style="stop-color:#DBDBDB"/>
				<stop  offset="0.7663" style="stop-color:#F5F5F5"/>
				<stop  offset="0.8241" style="stop-color:#FFFFFF"/>
			</radialGradient>
			<path class="st25" d="M155.2,139.4c0,8.5-4.5,15.4-10.1,15.4c-5.6,0-10.1-6.9-10.1-15.4c0-8.5,4.5-15.4,10.1-15.4
				C150.7,124,155.2,130.9,155.2,139.4z"/>
			
				<radialGradient id="SVGID_27_" cx="104.6124" cy="102.7809" r="2.5497" gradientTransform="matrix(7.6427 0 0 11.6471 -661.7797 -1061.9286)" gradientUnits="userSpaceOnUse">
				<stop  offset="0.2312" style="stop-color:#1D1E1C"/>
				<stop  offset="0.3614" style="stop-color:#5A5A59"/>
				<stop  offset="0.5262" style="stop-color:#A0A09F"/>
				<stop  offset="0.6638" style="stop-color:#D3D3D3"/>
				<stop  offset="0.767" style="stop-color:#F3F3F3"/>
				<stop  offset="0.8241" style="stop-color:#FFFFFF"/>
			</radialGradient>
			<path class="st26" d="M157.2,135.2c0,16.4-8.7,29.7-19.5,29.7c-10.8,0-19.5-13.3-19.5-29.7c0-16.4,8.7-29.7,19.5-29.7
				C148.5,105.5,157.2,118.8,157.2,135.2z"/>
			
				<radialGradient id="SVGID_28_" cx="101.5472" cy="101.8214" r="3.3293" gradientTransform="matrix(7.6427 0 0 11.6471 -661.7797 -1061.9286)" gradientUnits="userSpaceOnUse">
				<stop  offset="0.201" style="stop-color:#1D1E1C"/>
				<stop  offset="0.2276" style="stop-color:#2A2B29"/>
				<stop  offset="0.3941" style="stop-color:#757574"/>
				<stop  offset="0.5428" style="stop-color:#B0B0B0"/>
				<stop  offset="0.6685" style="stop-color:#DBDBDB"/>
				<stop  offset="0.7663" style="stop-color:#F5F5F5"/>
				<stop  offset="0.8241" style="stop-color:#FFFFFF"/>
			</radialGradient>
			<path class="st27" d="M139.8,124c0,21.4-11.4,38.8-25.4,38.8S88.9,145.4,88.9,124c0-21.4,11.4-38.8,25.4-38.8
				S139.8,102.6,139.8,124z"/>
			<g>
				<linearGradient id="SVGID_29_" gradientUnits="userSpaceOnUse" x1="99.1751" y1="101.9183" x2="186.8377" y2="101.9183">
					<stop  offset="0" style="stop-color:#B6B7B7"/>
					<stop  offset="1" style="stop-color:#E3E3E4"/>
				</linearGradient>
				<path class="st28" d="M180.8,104.7c-1.1-5.9-3.6-10.9-6.9-14.2c0.4-1.9,0.6-4,0.6-6.1c0-11.1-5.9-20.1-13.2-20.1
					c-2.1,0-4,0.7-5.7,2c-3.7-7.4-9.5-12.2-16.1-12.2c-9.3,0-17.2,9.6-19.5,22.7c-11.6,1.1-20.8,15.8-20.8,33.7
					c0,18.7,9.9,33.8,22.2,33.8c2.6,0,5.1-0.7,7.5-2c3.7,4.6,8.4,7.3,13.5,7.3c7.2,0,13.6-5.5,17.4-13.9c1.6,0.8,3.3,1.2,5,1.2
					c5.5,0,10.3-4,13.3-10.2c0.4,0.1,0.9,0.2,1.3,0.2c4.1,0,7.4-5,7.4-11.3C186.8,110.2,184.2,105.6,180.8,104.7z"/>
				<linearGradient id="SVGID_30_" gradientUnits="userSpaceOnUse" x1="136.2469" y1="148.8938" x2="152.4489" y2="57.0079">
					<stop  offset="0.1156" style="stop-color:#FFFFFF"/>
					<stop  offset="0.2734" style="stop-color:#E4E4E4"/>
					<stop  offset="0.4589" style="stop-color:#CBCBCB"/>
					<stop  offset="0.6278" style="stop-color:#BBBCBC"/>
					<stop  offset="0.7638" style="stop-color:#B6B7B7"/>
				</linearGradient>
				<path class="st29" d="M180.3,105.4c-1.1-5.9-3.7-11.6-7-14.5c0.4-1.1,0.8-3.4,0.8-5.8c0-11.1-5.4-19.9-12.7-19.9
					c-2.1,0-4.3,1.2-6,2.4c-3.3-7.5-9.7-12.8-16.3-12.8c-9.3,0-16.8,9.4-19,22.5c-11.6,1.1-20.8,15.3-20.8,33.2
					c0,18.7,9.9,33.8,22.2,33.8c2.6,0,5.1-0.7,7.5-2c3.7,4.6,8.4,7.3,13.5,7.3c7.2,0,13.6-5.5,17.4-13.9c1.6,0.8,3.3,1.2,5,1.2
					c5.5,0,10.3-4,13.3-10.2c0.4,0.1,0.9,0.2,1.3,0.2c4.1,0,6.7-4.3,6.9-10.5C186.5,110.8,183.7,106.4,180.3,105.4z"/>
			</g>
		</g>
	</g>
</g>
</svg>
