<?xml version="1.0" encoding="utf-8"?>
<!-- Generator: Adobe Illustrator 25.3.1, SVG Export Plug-In . SVG Version: 6.00 Build 0)  -->
<svg version="1.1" id="Layer_1" xmlns="http://www.w3.org/2000/svg" xmlns:xlink="http://www.w3.org/1999/xlink" x="0px" y="0px"
	 viewBox="0 0 800 800" style="enable-background:new 0 0 800 800;" xml:space="preserve">
<style type="text/css">
	.st0{clip-path:url(#SVGID_2_);}
	.st1{clip-path:url(#SVGID_4_);}
	.st2{opacity:0;clip-path:url(#SVGID_6_);}
	.st3{clip-path:url(#SVGID_8_);fill:#FFFFFF;}
	.st4{clip-path:url(#SVGID_10_);fill:url(#SVGID_11_);}
	.st5{clip-path:url(#SVGID_13_);}
	.st6{clip-path:url(#SVGID_15_);}
	.st7{clip-path:url(#SVGID_17_);fill:url(#SVGID_18_);}
	.st8{clip-path:url(#SVGID_20_);}
	.st9{clip-path:url(#SVGID_22_);fill:url(#SVGID_23_);}
	.st10{clip-path:url(#SVGID_25_);}
	.st11{clip-path:url(#SVGID_27_);fill:url(#SVGID_28_);}
	.st12{clip-path:url(#SVGID_30_);}
	.st13{clip-path:url(#SVGID_32_);fill:url(#SVGID_33_);}
	.st14{clip-path:url(#SVGID_35_);}
	.st15{clip-path:url(#SVGID_37_);fill:url(#SVGID_38_);}
	.st16{clip-path:url(#SVGID_40_);fill:url(#SVGID_41_);}
	.st17{clip-path:url(#SVGID_43_);fill:url(#SVGID_44_);}
	.st18{clip-path:url(#SVGID_46_);fill:url(#SVGID_47_);}
	.st19{clip-path:url(#SVGID_49_);}
	.st20{clip-path:url(#SVGID_51_);}
	.st21{clip-path:url(#SVGID_53_);fill:url(#SVGID_54_);}
	.st22{clip-path:url(#SVGID_56_);}
	.st23{clip-path:url(#SVGID_58_);fill:url(#SVGID_59_);}
	.st24{clip-path:url(#SVGID_61_);}
	.st25{clip-path:url(#SVGID_63_);fill:url(#SVGID_64_);}
	.st26{clip-path:url(#SVGID_66_);}
	.st27{clip-path:url(#SVGID_68_);fill:url(#SVGID_69_);}
	.st28{clip-path:url(#SVGID_71_);}
	.st29{clip-path:url(#SVGID_73_);fill:url(#SVGID_74_);}
	.st30{clip-path:url(#SVGID_49_);fill:#FFFFFF;}
	.st31{clip-path:url(#SVGID_76_);fill:url(#SVGID_77_);}
	.st32{clip-path:url(#SVGID_79_);}
	.st33{clip-path:url(#SVGID_81_);}
	.st34{clip-path:url(#SVGID_83_);fill:url(#SVGID_84_);}
	.st35{clip-path:url(#SVGID_86_);}
	.st36{clip-path:url(#SVGID_88_);fill:url(#SVGID_89_);}
	.st37{clip-path:url(#SVGID_91_);}
	.st38{clip-path:url(#SVGID_93_);fill:url(#SVGID_94_);}
	.st39{clip-path:url(#SVGID_96_);}
	.st40{clip-path:url(#SVGID_98_);fill:url(#SVGID_99_);}
	.st41{clip-path:url(#SVGID_101_);}
	.st42{clip-path:url(#SVGID_103_);fill:url(#SVGID_104_);}
	.st43{clip-path:url(#SVGID_106_);fill:url(#SVGID_107_);}
	.st44{clip-path:url(#SVGID_109_);fill:url(#SVGID_110_);}
</style>
<g id="Artwork_47_1_">
	<g>
		<defs>
			<rect id="SVGID_1_" y="0" width="800" height="800"/>
		</defs>
		<clipPath id="SVGID_2_">
			<use xlink:href="#SVGID_1_"  style="overflow:visible;"/>
		</clipPath>
		<g class="st0">
			<defs>
				<rect id="SVGID_3_" y="0" width="800" height="800"/>
			</defs>
			<clipPath id="SVGID_4_">
				<use xlink:href="#SVGID_3_"  style="overflow:visible;"/>
			</clipPath>
			<g class="st1">
				<defs>
					<rect id="SVGID_5_" y="0.01" width="799.99" height="799.99"/>
				</defs>
				<clipPath id="SVGID_6_">
					<use xlink:href="#SVGID_5_"  style="overflow:visible;"/>
				</clipPath>
				<g class="st2">
					<g>
						<defs>
							<rect id="SVGID_7_" x="124.56" y="0" width="600.74" height="744.2"/>
						</defs>
						<clipPath id="SVGID_8_">
							<use xlink:href="#SVGID_7_"  style="overflow:visible;"/>
						</clipPath>
						<path class="st3" d="M704.01,188.65c57.24,225.28-4.46,393.25-142.52,496.6c-186.18,139.3-358.55-0.7-407.61-87.57
							c-56.26-99.7-28.26-315.29,56.21-467.73c93.3-168.4,328.86-153.71,418.08-65.64C628.16,64.31,681.6,112.55,704.01,188.65"/>
					</g>
				</g>
			</g>
			<g class="st1">
				<defs>
					<path id="SVGID_9_" d="M335.4,275.51c0,97.72,67.02,177.23,149.38,177.23s149.35-79.51,149.35-177.23
						S567.14,98.27,484.78,98.27S335.4,177.78,335.4,275.51"/>
				</defs>
				<clipPath id="SVGID_10_">
					<use xlink:href="#SVGID_9_"  style="overflow:visible;"/>
				</clipPath>
				
					<radialGradient id="SVGID_11_" cx="9.094947e-13" cy="0" r="1" gradientTransform="matrix(228.4803 0 0 -271.0866 575.3599 179.9648)" gradientUnits="userSpaceOnUse">
					<stop  offset="0" style="stop-color:#F8C00D"/>
					<stop  offset="0.0927" style="stop-color:#F8C00D"/>
					<stop  offset="1" style="stop-color:#F29106"/>
				</radialGradient>
				<rect x="335.4" y="98.27" class="st4" width="298.73" height="354.47"/>
			</g>
			<g class="st1">
				<defs>
					<rect id="SVGID_12_" y="0.01" width="799.99" height="799.99"/>
				</defs>
				<clipPath id="SVGID_13_">
					<use xlink:href="#SVGID_12_"  style="overflow:visible;"/>
				</clipPath>
				<g class="st5">
					<g>
						<defs>
							<rect id="SVGID_14_" x="403.31" y="563.64" width="153.34" height="189.2"/>
						</defs>
						<clipPath id="SVGID_15_">
							<use xlink:href="#SVGID_14_"  style="overflow:visible;"/>
						</clipPath>
						<g class="st6">
							<defs>
								<path id="SVGID_16_" d="M556.65,658.26c0,52.23-34.33,94.58-76.67,94.58c-42.34,0-76.67-42.35-76.67-94.58
									c0-52.27,34.33-94.62,76.67-94.62C522.32,563.64,556.65,605.99,556.65,658.26"/>
							</defs>
							<clipPath id="SVGID_17_">
								<use xlink:href="#SVGID_16_"  style="overflow:visible;"/>
							</clipPath>
							
								<radialGradient id="SVGID_18_" cx="7.591600e-05" cy="-2.065499e-05" r="1" gradientTransform="matrix(76.6706 0 0 -94.5966 479.9772 658.2383)" gradientUnits="userSpaceOnUse">
								<stop  offset="0" style="stop-color:#1E1F1D"/>
								<stop  offset="0.201" style="stop-color:#1E1F1D"/>
								<stop  offset="0.2198" style="stop-color:#272826"/>
								<stop  offset="0.389" style="stop-color:#737372"/>
								<stop  offset="0.5399" style="stop-color:#AFAFAF"/>
								<stop  offset="0.6672" style="stop-color:#DADBDA"/>
								<stop  offset="0.766" style="stop-color:#F5F5F5"/>
								<stop  offset="0.8241" style="stop-color:#FFFFFF"/>
								<stop  offset="1" style="stop-color:#FFFFFF"/>
							</radialGradient>
							<rect x="403.32" y="563.64" class="st7" width="153.33" height="189.21"/>
						</g>
					</g>
				</g>
				<g class="st5">
					<g>
						<defs>
							<rect id="SVGID_19_" x="668.15" y="462.17" width="120.49" height="148.66"/>
						</defs>
						<clipPath id="SVGID_20_">
							<use xlink:href="#SVGID_19_"  style="overflow:visible;"/>
						</clipPath>
						<g class="st8">
							<defs>
								<path id="SVGID_21_" d="M788.65,536.51c0,41.03-27,74.32-60.27,74.32s-60.24-33.28-60.24-74.32
									c0-41.07,26.97-74.36,60.24-74.36S788.65,495.44,788.65,536.51"/>
							</defs>
							<clipPath id="SVGID_22_">
								<use xlink:href="#SVGID_21_"  style="overflow:visible;"/>
							</clipPath>
							
								<radialGradient id="SVGID_23_" cx="4.757568e-05" cy="1.300002e-04" r="1.0001" gradientTransform="matrix(60.2464 0 0 -74.3323 728.395 536.5035)" gradientUnits="userSpaceOnUse">
								<stop  offset="0" style="stop-color:#1E1F1D"/>
								<stop  offset="0.201" style="stop-color:#1E1F1D"/>
								<stop  offset="0.2198" style="stop-color:#272826"/>
								<stop  offset="0.389" style="stop-color:#737372"/>
								<stop  offset="0.5399" style="stop-color:#AFAFAF"/>
								<stop  offset="0.6672" style="stop-color:#DADBDA"/>
								<stop  offset="0.766" style="stop-color:#F5F5F5"/>
								<stop  offset="0.8241" style="stop-color:#FFFFFF"/>
								<stop  offset="1" style="stop-color:#FFFFFF"/>
							</radialGradient>
							<rect x="668.14" y="462.16" class="st9" width="120.51" height="148.68"/>
						</g>
					</g>
				</g>
				<g class="st5">
					<g>
						<defs>
							<rect id="SVGID_24_" x="523.45" y="460.82" width="198.86" height="245.36"/>
						</defs>
						<clipPath id="SVGID_25_">
							<use xlink:href="#SVGID_24_"  style="overflow:visible;"/>
						</clipPath>
						<g class="st10">
							<defs>
								<path id="SVGID_26_" d="M722.32,583.51c0,67.73-44.53,122.68-99.45,122.68s-99.42-54.94-99.42-122.68
									c0-67.77,44.5-122.68,99.42-122.68S722.32,515.74,722.32,583.51"/>
							</defs>
							<clipPath id="SVGID_27_">
								<use xlink:href="#SVGID_26_"  style="overflow:visible;"/>
							</clipPath>
							
								<radialGradient id="SVGID_28_" cx="1.145473e-04" cy="-1.421366e-04" r="1" gradientTransform="matrix(99.4317 0 0 -122.6793 622.8777 583.4971)" gradientUnits="userSpaceOnUse">
								<stop  offset="0" style="stop-color:#1E1F1D"/>
								<stop  offset="0.201" style="stop-color:#1E1F1D"/>
								<stop  offset="0.2198" style="stop-color:#272826"/>
								<stop  offset="0.389" style="stop-color:#737372"/>
								<stop  offset="0.5399" style="stop-color:#AFAFAF"/>
								<stop  offset="0.6672" style="stop-color:#DADBDA"/>
								<stop  offset="0.766" style="stop-color:#F5F5F5"/>
								<stop  offset="0.8241" style="stop-color:#FFFFFF"/>
								<stop  offset="1" style="stop-color:#FFFFFF"/>
							</radialGradient>
							<rect x="523.46" y="460.84" class="st11" width="198.86" height="245.35"/>
						</g>
					</g>
				</g>
				<g class="st5">
					<g>
						<defs>
							<rect id="SVGID_29_" x="285.56" y="436.04" width="295" height="363.96"/>
						</defs>
						<clipPath id="SVGID_30_">
							<use xlink:href="#SVGID_29_"  style="overflow:visible;"/>
						</clipPath>
						<g class="st12">
							<defs>
								<path id="SVGID_31_" d="M580.56,618c0,100.51-66.04,182-147.51,182s-147.51-81.49-147.51-182
									c0-100.47,66.04-181.96,147.51-181.96S580.56,517.53,580.56,618"/>
							</defs>
							<clipPath id="SVGID_32_">
								<use xlink:href="#SVGID_31_"  style="overflow:visible;"/>
							</clipPath>
							
								<radialGradient id="SVGID_33_" cx="-6.221818e-06" cy="-1.071122e-05" r="1" gradientTransform="matrix(147.4983 0 0 -181.9841 433.056 618.0178)" gradientUnits="userSpaceOnUse">
								<stop  offset="0" style="stop-color:#1E1F1D"/>
								<stop  offset="0.2312" style="stop-color:#1E1F1D"/>
								<stop  offset="0.3544" style="stop-color:#575856"/>
								<stop  offset="0.5221" style="stop-color:#9E9F9E"/>
								<stop  offset="0.662" style="stop-color:#D3D3D2"/>
								<stop  offset="0.7666" style="stop-color:#F3F3F3"/>
								<stop  offset="0.8241" style="stop-color:#FFFFFF"/>
								<stop  offset="1" style="stop-color:#FFFFFF"/>
							</radialGradient>
							<rect x="285.55" y="436.04" class="st13" width="295.01" height="363.96"/>
						</g>
					</g>
				</g>
				<g class="st5">
					<g>
						<defs>
							<rect id="SVGID_34_" x="59.75" y="306.73" width="385.21" height="475.26"/>
						</defs>
						<clipPath id="SVGID_35_">
							<use xlink:href="#SVGID_34_"  style="overflow:visible;"/>
						</clipPath>
						<g class="st14">
							<defs>
								<path id="SVGID_36_" d="M444.95,544.34c0,131.28-86.21,237.64-192.59,237.64S59.74,675.62,59.74,544.34
									c0-131.24,86.24-237.6,192.62-237.6S444.95,413.1,444.95,544.34"/>
							</defs>
							<clipPath id="SVGID_37_">
								<use xlink:href="#SVGID_36_"  style="overflow:visible;"/>
							</clipPath>
							
								<radialGradient id="SVGID_38_" cx="-3.478935e-05" cy="-8.319458e-06" r="1" gradientTransform="matrix(192.6027 0 0 -237.6341 252.3497 544.3577)" gradientUnits="userSpaceOnUse">
								<stop  offset="0" style="stop-color:#1E1F1D"/>
								<stop  offset="0.201" style="stop-color:#1E1F1D"/>
								<stop  offset="0.2198" style="stop-color:#272826"/>
								<stop  offset="0.389" style="stop-color:#737372"/>
								<stop  offset="0.5399" style="stop-color:#AFAFAF"/>
								<stop  offset="0.6672" style="stop-color:#DADBDA"/>
								<stop  offset="0.766" style="stop-color:#F5F5F5"/>
								<stop  offset="0.8241" style="stop-color:#FFFFFF"/>
								<stop  offset="1" style="stop-color:#FFFFFF"/>
							</radialGradient>
							<rect x="59.74" y="306.74" class="st15" width="385.2" height="475.24"/>
						</g>
					</g>
				</g>
			</g>
			<g class="st1">
				<defs>
					<path id="SVGID_39_" d="M290.77,274.81c-88.27,6.86-158.16,97.34-158.16,208c0,115.08,75.61,208.39,168.89,208.39
						c19.98,0,39.15-4.3,56.95-12.17c27.92,28.21,63.59,45.14,102.5,45.14c54.94,0,103.48-33.79,132.74-85.4
						c12.07,4.73,24.94,7.28,38.28,7.28c41.52,0,78.43-24.76,101.53-62.89c3.32,0.77,6.7,1.16,10.2,1.16
						c31.11,0,56.29-31.11,56.29-69.48c0-34.14-19.96-62.5-46.27-68.31c-8.44-36.31-27.26-67.19-52.2-87.49
						c3.06-11.86,4.72-24.49,4.72-37.66c0-68.43-45-123.96-100.5-123.96c-15.61,0-30.42,4.42-43.61,12.28
						c-28.16-45.61-72.63-75.05-122.67-75.05C368.38,134.66,308.54,194.06,290.77,274.81"/>
				</defs>
				<clipPath id="SVGID_40_">
					<use xlink:href="#SVGID_39_"  style="overflow:visible;"/>
				</clipPath>
				
					<linearGradient id="SVGID_41_" gradientUnits="userSpaceOnUse" x1="-20.4525" y1="-30.5189" x2="18.2956" y2="-30.5189" gradientTransform="matrix(14.523 -14.523 -14.523 -14.523 10.2599 -0.9983)">
					<stop  offset="0" style="stop-color:#EAEAEA"/>
					<stop  offset="1" style="stop-color:#FFFFFF"/>
				</linearGradient>
				<polygon class="st16" points="-67.94,429.41 466.3,-355.78 1000.54,429.41 466.3,1214.6 				"/>
			</g>
			<g class="st1">
				<defs>
					<path id="SVGID_42_" d="M290.77,277.87c-88.24,6.86-158.16,94.27-158.16,204.94c0,115.08,75.61,208.39,168.89,208.39
						c19.98,0,39.15-4.3,56.95-12.17c27.92,28.21,63.59,45.14,102.5,45.14c54.94,0,103.48-33.79,132.74-85.4
						c12.07,4.73,24.94,7.28,38.28,7.28c41.52,0,78.43-24.76,101.53-62.89c3.32,0.77,6.7,1.16,10.2,1.16
						c31.11,0,51.33-26.62,52.44-64.98c1-35.45-19.98-62.5-46.3-68.35c-8.44-36.27-27.89-71.26-53.49-89.51
						c2.77-6.97,5.96-20.65,6.01-35.61c0.29-68.43-41.15-122.72-96.65-122.72c-15.63,0-32.8,7.21-45.98,15.07
						c-25.26-46.3-74.11-79.12-124.15-79.12C364.48,139.11,307.33,196.89,290.77,277.87"/>
				</defs>
				<clipPath id="SVGID_43_">
					<use xlink:href="#SVGID_42_"  style="overflow:visible;"/>
				</clipPath>
				
					<linearGradient id="SVGID_44_" gradientUnits="userSpaceOnUse" x1="-44.3763" y1="-34.1563" x2="-2.9817" y2="-34.1563" gradientTransform="matrix(2.6273 -14.9002 -14.9002 -2.6273 16.5423 -1.7896)">
					<stop  offset="0" style="stop-color:#ECEDED"/>
					<stop  offset="0.7638" style="stop-color:#D4D5D5"/>
					<stop  offset="1" style="stop-color:#D4D5D5"/>
				</linearGradient>
				<polygon class="st17" points="64.54,706.53 152.65,-27.91 865.22,156.75 777.1,891.19 				"/>
			</g>
			<g class="st1">
				<defs>
					<path id="SVGID_45_" d="M305.06,279.73l-2.95,13.45l-11.28,0.85c-79.86,6.2-142.42,88.5-142.42,187.39
						c0,103.5,68.23,187.7,152.12,187.7c17.61,0,34.88-3.64,51.3-10.89l8.41-3.76l6.91,6.97c25.84,26.12,58.48,40.49,91.9,40.49
						c47.38,0,91.88-28.63,119.06-76.6l6.64-11.74l11.05,4.34c10.73,4.18,21.93,6.32,33.3,6.32c35.09,0,67.28-19.92,88.32-54.67
						l5.88-9.69l9.6,2.17c2.45,0.58,4.9,0.85,7.3,0.85c22.17,0,40.21-22.24,40.21-49.64c0-24.02-13.89-44.52-33.06-48.78l-9.62-2.17
						l-2.74-11.59c-7.22-31.15-23.36-58.16-45.4-76.06l-10.02-8.1l3.66-14.07c2.61-10.23,3.95-20.81,3.95-31.54
						c0-57.23-37.75-103.84-84.13-103.84c-12.84,0-25.12,3.45-36.54,10.31l-11.6,6.9l-7.8-12.67
						c-26.26-42.55-66.15-66.96-109.41-66.96C375.79,154.69,321.25,206.11,305.06,279.73"/>
				</defs>
				<clipPath id="SVGID_46_">
					<use xlink:href="#SVGID_45_"  style="overflow:visible;"/>
				</clipPath>
				
					<linearGradient id="SVGID_47_" gradientUnits="userSpaceOnUse" x1="-49.881" y1="-31.6359" x2="-11.1324" y2="-31.6359" gradientTransform="matrix(0 -14.1228 -14.1228 0 17.6144 -2.5307)">
					<stop  offset="0" style="stop-color:#4CA3DB"/>
					<stop  offset="0.2916" style="stop-color:#4C9BD5"/>
					<stop  offset="0.7397" style="stop-color:#4C86C5"/>
					<stop  offset="1" style="stop-color:#4C76BA"/>
				</linearGradient>
				<rect x="148.4" y="154.69" class="st18" width="632" height="547.24"/>
			</g>
			<g class="st1">
				<defs>
					<rect id="SVGID_48_" y="0.01" width="799.99" height="799.99"/>
				</defs>
				<clipPath id="SVGID_49_">
					<use xlink:href="#SVGID_48_"  style="overflow:visible;"/>
				</clipPath>
				<g class="st19">
					<g>
						<defs>
							<rect id="SVGID_50_" x="622.74" y="456.28" width="93.82" height="115.77"/>
						</defs>
						<clipPath id="SVGID_51_">
							<use xlink:href="#SVGID_50_"  style="overflow:visible;"/>
						</clipPath>
						<g class="st20">
							<defs>
								<path id="SVGID_52_" d="M716.57,514.16c0,31.97-21.01,57.89-46.93,57.89c-25.92,0-46.9-25.92-46.9-57.89
									c0-31.97,20.99-57.89,46.9-57.89C695.56,456.27,716.57,482.19,716.57,514.16"/>
							</defs>
							<clipPath id="SVGID_53_">
								<use xlink:href="#SVGID_52_"  style="overflow:visible;"/>
							</clipPath>
							
								<radialGradient id="SVGID_54_" cx="1.597072e-04" cy="2.009399e-04" r="1.0001" gradientTransform="matrix(46.9141 0 0 -57.8828 669.6513 514.1672)" gradientUnits="userSpaceOnUse">
								<stop  offset="0" style="stop-color:#1E1F1D"/>
								<stop  offset="0.201" style="stop-color:#1E1F1D"/>
								<stop  offset="0.2198" style="stop-color:#272826"/>
								<stop  offset="0.389" style="stop-color:#737372"/>
								<stop  offset="0.5399" style="stop-color:#AFAFAF"/>
								<stop  offset="0.6672" style="stop-color:#DADBDA"/>
								<stop  offset="0.766" style="stop-color:#F5F5F5"/>
								<stop  offset="0.8241" style="stop-color:#FFFFFF"/>
								<stop  offset="1" style="stop-color:#FFFFFF"/>
							</radialGradient>
							<rect x="622.74" y="456.27" class="st21" width="93.83" height="115.78"/>
						</g>
					</g>
				</g>
				<g class="st19">
					<g>
						<defs>
							<rect id="SVGID_55_" x="501.5" y="458.76" width="154.84" height="191.05"/>
						</defs>
						<clipPath id="SVGID_56_">
							<use xlink:href="#SVGID_55_"  style="overflow:visible;"/>
						</clipPath>
						<g class="st22">
							<defs>
								<path id="SVGID_57_" d="M656.33,554.3c0,52.74-34.64,95.51-77.4,95.51s-77.43-42.78-77.43-95.51
									c0-52.77,34.67-95.55,77.43-95.55S656.33,501.52,656.33,554.3"/>
							</defs>
							<clipPath id="SVGID_58_">
								<use xlink:href="#SVGID_57_"  style="overflow:visible;"/>
							</clipPath>
							
								<radialGradient id="SVGID_59_" cx="-5.455661e-05" cy="1.011584e-04" r="1" gradientTransform="matrix(77.4236 0 0 -95.5256 578.9181 554.2889)" gradientUnits="userSpaceOnUse">
								<stop  offset="0" style="stop-color:#1E1F1D"/>
								<stop  offset="0.201" style="stop-color:#1E1F1D"/>
								<stop  offset="0.2198" style="stop-color:#272826"/>
								<stop  offset="0.389" style="stop-color:#737372"/>
								<stop  offset="0.5399" style="stop-color:#AFAFAF"/>
								<stop  offset="0.6672" style="stop-color:#DADBDA"/>
								<stop  offset="0.766" style="stop-color:#F5F5F5"/>
								<stop  offset="0.8241" style="stop-color:#FFFFFF"/>
								<stop  offset="1" style="stop-color:#FFFFFF"/>
							</radialGradient>
							<rect x="501.5" y="458.75" class="st23" width="154.84" height="191.07"/>
						</g>
					</g>
				</g>
				<g class="st19">
					<g>
						<defs>
							<rect id="SVGID_60_" x="416.52" y="535.31" width="119.4" height="147.32"/>
						</defs>
						<clipPath id="SVGID_61_">
							<use xlink:href="#SVGID_60_"  style="overflow:visible;"/>
						</clipPath>
						<g class="st24">
							<defs>
								<path id="SVGID_62_" d="M535.93,608.97c0,40.69-26.73,73.66-59.71,73.66c-32.96,0-59.69-32.97-59.69-73.66
									c0-40.69,26.73-73.66,59.69-73.66C509.19,535.31,535.93,568.29,535.93,608.97"/>
							</defs>
							<clipPath id="SVGID_63_">
								<use xlink:href="#SVGID_62_"  style="overflow:visible;"/>
							</clipPath>
							
								<radialGradient id="SVGID_64_" cx="1.366615e-04" cy="-7.895133e-05" r="1" gradientTransform="matrix(59.7008 0 0 -73.6591 476.218 608.9662)" gradientUnits="userSpaceOnUse">
								<stop  offset="0" style="stop-color:#1E1F1D"/>
								<stop  offset="0.201" style="stop-color:#1E1F1D"/>
								<stop  offset="0.2198" style="stop-color:#272826"/>
								<stop  offset="0.389" style="stop-color:#737372"/>
								<stop  offset="0.5399" style="stop-color:#AFAFAF"/>
								<stop  offset="0.6672" style="stop-color:#DADBDA"/>
								<stop  offset="0.766" style="stop-color:#F5F5F5"/>
								<stop  offset="0.8241" style="stop-color:#FFFFFF"/>
								<stop  offset="1" style="stop-color:#FFFFFF"/>
							</radialGradient>
							<rect x="416.52" y="535.31" class="st25" width="119.4" height="147.32"/>
						</g>
					</g>
				</g>
				<g class="st19">
					<g>
						<defs>
							<rect id="SVGID_65_" x="318.2" y="446.92" width="229.71" height="283.42"/>
						</defs>
						<clipPath id="SVGID_66_">
							<use xlink:href="#SVGID_65_"  style="overflow:visible;"/>
						</clipPath>
						<g class="st26">
							<defs>
								<path id="SVGID_67_" d="M547.92,588.63c0,78.27-51.44,141.7-114.87,141.7s-114.87-63.43-114.87-141.7
									s51.44-141.7,114.87-141.7S547.92,510.36,547.92,588.63"/>
							</defs>
							<clipPath id="SVGID_68_">
								<use xlink:href="#SVGID_67_"  style="overflow:visible;"/>
							</clipPath>
							
								<radialGradient id="SVGID_69_" cx="1.893531e-05" cy="6.519076e-08" r="1" gradientTransform="matrix(114.8564 0 0 -141.7104 433.0529 588.6293)" gradientUnits="userSpaceOnUse">
								<stop  offset="0" style="stop-color:#1E1F1D"/>
								<stop  offset="0.2312" style="stop-color:#1E1F1D"/>
								<stop  offset="0.3544" style="stop-color:#575856"/>
								<stop  offset="0.5221" style="stop-color:#9E9F9E"/>
								<stop  offset="0.662" style="stop-color:#D3D3D2"/>
								<stop  offset="0.7666" style="stop-color:#F3F3F3"/>
								<stop  offset="0.8241" style="stop-color:#FFFFFF"/>
								<stop  offset="1" style="stop-color:#FFFFFF"/>
							</radialGradient>
							<rect x="318.19" y="446.93" class="st27" width="229.74" height="283.4"/>
						</g>
					</g>
				</g>
				<g class="st19">
					<g>
						<defs>
							<rect id="SVGID_70_" x="145" y="350.26" width="299.95" height="370.09"/>
						</defs>
						<clipPath id="SVGID_71_">
							<use xlink:href="#SVGID_70_"  style="overflow:visible;"/>
						</clipPath>
						<g class="st28">
							<defs>
								<path id="SVGID_72_" d="M444.95,535.31c0,102.18-67.12,185.02-149.96,185.02S145,637.49,145,535.31
									c0-102.22,67.15-185.06,149.98-185.06S444.95,433.09,444.95,535.31"/>
							</defs>
							<clipPath id="SVGID_73_">
								<use xlink:href="#SVGID_72_"  style="overflow:visible;"/>
							</clipPath>
							
								<radialGradient id="SVGID_74_" cx="-1.697382e-05" cy="7.313989e-05" r="1" gradientTransform="matrix(149.9778 0 0 -185.0433 294.9762 535.3062)" gradientUnits="userSpaceOnUse">
								<stop  offset="0" style="stop-color:#1E1F1D"/>
								<stop  offset="0.201" style="stop-color:#1E1F1D"/>
								<stop  offset="0.2198" style="stop-color:#272826"/>
								<stop  offset="0.389" style="stop-color:#737372"/>
								<stop  offset="0.5399" style="stop-color:#AFAFAF"/>
								<stop  offset="0.6672" style="stop-color:#DADBDA"/>
								<stop  offset="0.766" style="stop-color:#F5F5F5"/>
								<stop  offset="0.8241" style="stop-color:#FFFFFF"/>
								<stop  offset="1" style="stop-color:#FFFFFF"/>
							</radialGradient>
							<rect x="145" y="350.25" class="st29" width="299.94" height="370.08"/>
						</g>
					</g>
				</g>
				<path class="st30" d="M686.6,443.18c-6.54-28.09-21.12-52-40.44-67.69c2.37-9.18,3.69-18.99,3.69-29.18
					c0-52.97-34.85-95.98-77.8-95.98c-12.1,0-23.57,3.41-33.8,9.49c-21.78-35.3-56.21-58.08-94.96-58.08
					c-55.02,0-101.37,45.99-115.13,108.53c-68.34,5.27-122.43,75.33-122.43,161c0,89.08,58.55,161.35,130.77,161.35
					c15.48,0,30.32-3.33,44.11-9.42c21.59,21.85,49.22,34.95,79.36,34.95c42.53,0,80.09-26.15,102.74-66.14
					c9.36,3.64,19.3,5.62,29.63,5.62c32.19,0,60.74-19.1,78.62-48.67c2.56,0.58,5.19,0.89,7.91,0.89
					c24.04,0,43.58-24.06,43.58-53.74C722.42,469.68,706.97,447.71,686.6,443.18"/>
			</g>
			<g class="st1">
				<defs>
					<path id="SVGID_75_" d="M328.18,312.63c-68.34,5.27-122.46,72.96-122.46,158.63c0,89.08,58.55,161.35,130.77,161.35
						c15.5,0,30.32-3.33,44.08-9.42c21.62,21.82,49.25,34.95,79.38,34.95c42.5,0,80.09-26.15,102.77-66.14
						c9.33,3.68,19.27,5.62,29.61,5.62c32.16,0,60.74-19.1,78.62-48.63c2.56,0.54,5.19,0.85,7.88,0.85
						c24.1,0,39.76-20.61,40.6-50.26c0.79-27.51-15.45-48.44-35.83-52.93c-6.51-28.09-21.59-55.18-41.39-69.28
						c2.14-5.46,4.59-16.04,4.64-27.59c0.21-52.97-31.87-95.01-74.85-95.01c-12.1,0-25.36,5.54-35.59,11.66
						c-19.56-35.84-57.37-61.22-96.12-61.22C385.23,205.22,340.99,249.89,328.18,312.63"/>
				</defs>
				<clipPath id="SVGID_76_">
					<use xlink:href="#SVGID_75_"  style="overflow:visible;"/>
				</clipPath>
				
					<linearGradient id="SVGID_77_" gradientUnits="userSpaceOnUse" x1="-51.2828" y1="-43.9691" x2="-9.8881" y2="-43.9691" gradientTransform="matrix(2.0341 -11.5358 -11.5358 -2.0341 16.7162 -3.5315)">
					<stop  offset="0" style="stop-color:#FFFFFF"/>
					<stop  offset="0.1156" style="stop-color:#FFFFFF"/>
					<stop  offset="0.1238" style="stop-color:#FFFFFF"/>
					<stop  offset="0.478" style="stop-color:#EFEFEF"/>
					<stop  offset="0.7638" style="stop-color:#EAEAEA"/>
					<stop  offset="1" style="stop-color:#EAEAEA"/>
				</linearGradient>
				<polygon class="st31" points="153.02,644.49 221.23,75.9 772.91,218.87 704.7,787.46 				"/>
			</g>
			<g class="st1">
				<defs>
					<rect id="SVGID_78_" y="0.01" width="799.99" height="799.99"/>
				</defs>
				<clipPath id="SVGID_79_">
					<use xlink:href="#SVGID_78_"  style="overflow:visible;"/>
				</clipPath>
				<g class="st32">
					<g>
						<defs>
							<rect id="SVGID_80_" x="512.28" y="503.58" width="100.61" height="124.14"/>
						</defs>
						<clipPath id="SVGID_81_">
							<use xlink:href="#SVGID_80_"  style="overflow:visible;"/>
						</clipPath>
						<g class="st33">
							<defs>
								<path id="SVGID_82_" d="M612.88,565.65c0,34.25-22.51,62.07-50.3,62.07c-27.76,0-50.3-27.82-50.3-62.07
									c0-34.29,22.54-62.07,50.3-62.07C590.37,503.58,612.88,531.36,612.88,565.65"/>
							</defs>
							<clipPath id="SVGID_83_">
								<use xlink:href="#SVGID_82_"  style="overflow:visible;"/>
							</clipPath>
							
								<radialGradient id="SVGID_84_" cx="-1.174503e-04" cy="-9.376890e-05" r="1" gradientTransform="matrix(50.3066 0 0 -62.0686 562.5873 565.6459)" gradientUnits="userSpaceOnUse">
								<stop  offset="0" style="stop-color:#1E1F1D"/>
								<stop  offset="0.201" style="stop-color:#1E1F1D"/>
								<stop  offset="0.2198" style="stop-color:#272826"/>
								<stop  offset="0.389" style="stop-color:#737372"/>
								<stop  offset="0.5399" style="stop-color:#AFAFAF"/>
								<stop  offset="0.6672" style="stop-color:#DADBDA"/>
								<stop  offset="0.766" style="stop-color:#F5F5F5"/>
								<stop  offset="0.8241" style="stop-color:#FFFFFF"/>
								<stop  offset="1" style="stop-color:#FFFFFF"/>
							</radialGradient>
							<rect x="512.28" y="503.58" class="st34" width="100.61" height="124.15"/>
						</g>
					</g>
				</g>
				<g class="st32">
					<g>
						<defs>
							<rect id="SVGID_85_" x="382.27" y="506.23" width="166.04" height="204.86"/>
						</defs>
						<clipPath id="SVGID_86_">
							<use xlink:href="#SVGID_85_"  style="overflow:visible;"/>
						</clipPath>
						<g class="st35">
							<defs>
								<path id="SVGID_87_" d="M548.32,608.66c0,56.57-37.17,102.45-83.02,102.45s-83.02-45.88-83.02-102.45
									c0-56.57,37.17-102.41,83.02-102.41S548.32,552.09,548.32,608.66"/>
							</defs>
							<clipPath id="SVGID_88_">
								<use xlink:href="#SVGID_87_"  style="overflow:visible;"/>
							</clipPath>
							
								<radialGradient id="SVGID_89_" cx="6.950424e-05" cy="-1.892648e-04" r="1" gradientTransform="matrix(83.02 0 0 -102.4305 465.2925 608.662)" gradientUnits="userSpaceOnUse">
								<stop  offset="0" style="stop-color:#1E1F1D"/>
								<stop  offset="0.201" style="stop-color:#1E1F1D"/>
								<stop  offset="0.2198" style="stop-color:#272826"/>
								<stop  offset="0.389" style="stop-color:#737372"/>
								<stop  offset="0.5399" style="stop-color:#AFAFAF"/>
								<stop  offset="0.6672" style="stop-color:#DADBDA"/>
								<stop  offset="0.766" style="stop-color:#F5F5F5"/>
								<stop  offset="0.8241" style="stop-color:#FFFFFF"/>
								<stop  offset="1" style="stop-color:#FFFFFF"/>
							</radialGradient>
							<rect x="382.28" y="506.25" class="st36" width="166.04" height="204.86"/>
						</g>
					</g>
				</g>
				<g class="st32">
					<g>
						<defs>
							<rect id="SVGID_90_" x="291.15" y="588.31" width="128.04" height="157.97"/>
						</defs>
						<clipPath id="SVGID_91_">
							<use xlink:href="#SVGID_90_"  style="overflow:visible;"/>
						</clipPath>
						<g class="st37">
							<defs>
								<path id="SVGID_92_" d="M419.19,667.29c0,43.63-28.66,78.97-64.01,78.97s-64.04-35.34-64.04-78.97s28.68-78.97,64.04-78.97
									S419.19,623.66,419.19,667.29"/>
							</defs>
							<clipPath id="SVGID_93_">
								<use xlink:href="#SVGID_92_"  style="overflow:visible;"/>
							</clipPath>
							
								<radialGradient id="SVGID_94_" cx="-7.796034e-05" cy="4.883170e-05" r="1" gradientTransform="matrix(64.0174 0 0 -78.985 355.1677 667.2917)" gradientUnits="userSpaceOnUse">
								<stop  offset="0" style="stop-color:#1E1F1D"/>
								<stop  offset="0.201" style="stop-color:#1E1F1D"/>
								<stop  offset="0.2198" style="stop-color:#272826"/>
								<stop  offset="0.389" style="stop-color:#737372"/>
								<stop  offset="0.5399" style="stop-color:#AFAFAF"/>
								<stop  offset="0.6672" style="stop-color:#DADBDA"/>
								<stop  offset="0.766" style="stop-color:#F5F5F5"/>
								<stop  offset="0.8241" style="stop-color:#FFFFFF"/>
								<stop  offset="1" style="stop-color:#FFFFFF"/>
							</radialGradient>
							<rect x="291.14" y="588.32" class="st38" width="128.05" height="157.94"/>
						</g>
					</g>
				</g>
				<g class="st32">
					<g>
						<defs>
							<rect id="SVGID_95_" x="185.72" y="493.53" width="246.32" height="303.9"/>
						</defs>
						<clipPath id="SVGID_96_">
							<use xlink:href="#SVGID_95_"  style="overflow:visible;"/>
						</clipPath>
						<g class="st39">
							<defs>
								<path id="SVGID_97_" d="M432.05,645.47c0,83.93-55.15,151.97-123.17,151.97S185.73,729.4,185.73,645.47
									s55.13-151.93,123.15-151.93S432.05,561.54,432.05,645.47"/>
							</defs>
							<clipPath id="SVGID_98_">
								<use xlink:href="#SVGID_97_"  style="overflow:visible;"/>
							</clipPath>
							
								<radialGradient id="SVGID_99_" cx="7.951607e-05" cy="-3.824108e-05" r="1" gradientTransform="matrix(123.1584 0 0 -151.9534 308.884 645.4863)" gradientUnits="userSpaceOnUse">
								<stop  offset="0" style="stop-color:#1E1F1D"/>
								<stop  offset="0.2312" style="stop-color:#1E1F1D"/>
								<stop  offset="0.3544" style="stop-color:#575856"/>
								<stop  offset="0.5221" style="stop-color:#9E9F9E"/>
								<stop  offset="0.662" style="stop-color:#D3D3D2"/>
								<stop  offset="0.7666" style="stop-color:#F3F3F3"/>
								<stop  offset="0.8241" style="stop-color:#FFFFFF"/>
								<stop  offset="1" style="stop-color:#FFFFFF"/>
							</radialGradient>
							<rect x="185.73" y="493.54" class="st40" width="246.32" height="303.9"/>
						</g>
					</g>
				</g>
				<g class="st32">
					<g>
						<defs>
							<rect id="SVGID_100_" y="389.89" width="321.64" height="396.85"/>
						</defs>
						<clipPath id="SVGID_101_">
							<use xlink:href="#SVGID_100_"  style="overflow:visible;"/>
						</clipPath>
						<g class="st41">
							<defs>
								<path id="SVGID_102_" d="M321.64,588.32c0,109.58-72,198.43-160.82,198.43S0,697.9,0,588.32
									C0,478.7,72,389.89,160.82,389.89S321.64,478.7,321.64,588.32"/>
							</defs>
							<clipPath id="SVGID_103_">
								<use xlink:href="#SVGID_102_"  style="overflow:visible;"/>
							</clipPath>
							
								<radialGradient id="SVGID_104_" cx="-1.004475e-05" cy="-4.902600e-05" r="1" gradientTransform="matrix(160.822 0 0 -198.423 160.822 588.3096)" gradientUnits="userSpaceOnUse">
								<stop  offset="0" style="stop-color:#1E1F1D"/>
								<stop  offset="0.201" style="stop-color:#1E1F1D"/>
								<stop  offset="0.2198" style="stop-color:#272826"/>
								<stop  offset="0.389" style="stop-color:#737372"/>
								<stop  offset="0.5399" style="stop-color:#AFAFAF"/>
								<stop  offset="0.6672" style="stop-color:#DADBDA"/>
								<stop  offset="0.766" style="stop-color:#F5F5F5"/>
								<stop  offset="0.8241" style="stop-color:#FFFFFF"/>
								<stop  offset="1" style="stop-color:#FFFFFF"/>
							</radialGradient>
							<rect x="0" y="389.89" class="st42" width="321.64" height="396.86"/>
						</g>
					</g>
				</g>
			</g>
			<g class="st1">
				<defs>
					<path id="SVGID_105_" d="M196.41,346.96c-73.29,5.73-131.27,80.83-131.27,172.66c0,95.55,62.75,173.01,140.2,173.01
						c16.58,0,32.51-3.56,47.24-10.07c23.2,23.44,52.83,37.47,85.1,37.47c45.64,0,85.92-28.01,110.2-70.87
						c10.02,3.87,20.7,6.01,31.77,6.01c34.51,0,65.15-20.54,84.31-52.19c2.74,0.62,5.56,0.97,8.44,0.97
						c25.84,0,46.77-25.84,46.77-57.66c0-28.36-16.58-51.92-38.44-56.77c-6.99-30.11-22.62-55.76-43.34-72.58
						c2.53-9.84,3.93-20.38,3.93-31.27c0-56.84-37.33-102.95-83.42-102.95c-12.97,0-25.26,3.68-36.22,10.19
						c-23.38-37.82-60.27-62.31-101.82-62.31C260.85,230.6,211.15,279.92,196.41,346.96"/>
				</defs>
				<clipPath id="SVGID_106_">
					<use xlink:href="#SVGID_105_"  style="overflow:visible;"/>
				</clipPath>
				
					<linearGradient id="SVGID_107_" gradientUnits="userSpaceOnUse" x1="2.9823" y1="-23.0159" x2="29.3457" y2="-23.0159" gradientTransform="matrix(21.0155 0 0 -21.0155 2.4701 -8.3793)">
					<stop  offset="0" style="stop-color:#B6B6B7"/>
					<stop  offset="1" style="stop-color:#E4E4E5"/>
				</linearGradient>
				<rect x="65.15" y="230.6" class="st43" width="554.04" height="489.43"/>
			</g>
			<g class="st1">
				<defs>
					<path id="SVGID_108_" d="M196.41,349.52c-73.27,5.66-131.27,78.27-131.27,170.1c0,95.55,62.75,173.01,140.2,173.01
						c16.58,0,32.51-3.56,47.24-10.07c23.2,23.44,52.83,37.47,85.1,37.47c45.64,0,85.92-28.01,110.2-70.87
						c10.02,3.87,20.7,6.01,31.77,6.01c34.51,0,65.15-20.54,84.31-52.19c2.74,0.62,5.56,0.97,8.44,0.97
						c25.84,0,42.63-22.13,43.55-53.94c0.84-29.49-16.58-51.88-38.41-56.73c-7.01-30.15-23.17-59.21-44.45-74.32
						c2.32-5.85,4.96-17.2,5.01-29.56c0.24-56.84-34.17-101.87-80.23-101.87c-12.97,0-27.21,5.97-38.18,12.48
						c-20.99-38.44-61.53-65.68-103.08-65.68C257.63,234.32,210.15,282.29,196.41,349.52"/>
				</defs>
				<clipPath id="SVGID_109_">
					<use xlink:href="#SVGID_108_"  style="overflow:visible;"/>
				</clipPath>
				
					<linearGradient id="SVGID_110_" gradientUnits="userSpaceOnUse" x1="-54.3253" y1="-32.4141" x2="-12.9309" y2="-32.4141" gradientTransform="matrix(2.1812 -12.37 -12.37 -2.1812 12.0274 -1.925)">
					<stop  offset="0" style="stop-color:#FFFFFF"/>
					<stop  offset="0.1156" style="stop-color:#FFFFFF"/>
					<stop  offset="0.267" style="stop-color:#E5E5E5"/>
					<stop  offset="0.4573" style="stop-color:#CBCBCC"/>
					<stop  offset="0.6288" style="stop-color:#BCBCBC"/>
					<stop  offset="0.7638" style="stop-color:#B6B6B7"/>
					<stop  offset="1" style="stop-color:#B6B6B7"/>
				</linearGradient>
				<polygon class="st44" points="8.63,705.38 81.78,95.66 673.33,248.96 600.18,858.68 				"/>
			</g>
		</g>
	</g>
</g>
</svg>
