<?xml version="1.0" encoding="utf-8"?>
<!-- Generator: Adobe Illustrator 25.2.0, SVG Export Plug-In . SVG Version: 6.00 Build 0)  -->
<svg version="1.1" id="Layer_1" xmlns="http://www.w3.org/2000/svg" xmlns:xlink="http://www.w3.org/1999/xlink" x="0px" y="0px"
	 viewBox="0 0 200 200" style="enable-background:new 0 0 200 200;" xml:space="preserve">
<style type="text/css">
	.st0{opacity:0;fill:#FFFFFF;}
	.st1{opacity:6.622517e-03;fill:#FEFEFE;}
	.st2{opacity:1.324503e-02;fill:#FDFDFD;}
	.st3{opacity:1.986755e-02;fill:#FDFDFD;}
	.st4{opacity:2.649007e-02;fill:#FCFCFC;}
	.st5{opacity:3.311258e-02;fill:#FBFBFB;}
	.st6{opacity:3.973510e-02;fill:#FAFAFA;}
	.st7{opacity:4.635762e-02;fill:#F9F9F9;}
	.st8{opacity:5.298013e-02;fill:#F9F9F9;}
	.st9{opacity:5.960265e-02;fill:#F8F8F8;}
	.st10{opacity:6.622516e-02;fill:#F7F7F7;}
	.st11{opacity:7.284768e-02;fill:#F6F6F6;}
	.st12{opacity:7.947020e-02;fill:#F5F5F5;}
	.st13{opacity:8.609272e-02;fill:#F4F4F4;}
	.st14{opacity:9.271523e-02;fill:#F4F4F4;}
	.st15{opacity:9.933775e-02;fill:#F3F3F3;}
	.st16{opacity:0.106;fill:#F2F2F2;}
	.st17{opacity:0.1126;fill:#F1F1F1;}
	.st18{opacity:0.1192;fill:#F0F0F0;}
	.st19{opacity:0.1258;fill:#F0F0F0;}
	.st20{opacity:0.1325;fill:#EFEFEF;}
	.st21{opacity:0.1391;fill:#EEEEEE;}
	.st22{opacity:0.1457;fill:#EDEDED;}
	.st23{opacity:0.1523;fill:#ECECEC;}
	.st24{opacity:0.1589;fill:#ECECEC;}
	.st25{opacity:0.1656;fill:#EBEBEB;}
	.st26{opacity:0.1722;fill:#EAEAEA;}
	.st27{opacity:0.1788;fill:#E9E9E9;}
	.st28{opacity:0.1854;fill:#E8E8E8;}
	.st29{opacity:0.1921;fill:#E8E8E8;}
	.st30{opacity:0.1987;fill:#E7E7E7;}
	.st31{opacity:0.2053;fill:#E6E6E6;}
	.st32{opacity:0.2119;fill:#E5E5E5;}
	.st33{opacity:0.2185;fill:#E4E4E4;}
	.st34{opacity:0.2252;fill:#E4E4E4;}
	.st35{opacity:0.2318;fill:#E3E3E3;}
	.st36{opacity:0.2384;fill:#E2E2E2;}
	.st37{opacity:0.245;fill:#E1E1E1;}
	.st38{opacity:0.2517;fill:#E0E0E0;}
	.st39{opacity:0.2583;fill:#DFDFDF;}
	.st40{opacity:0.2649;fill:#DFDFDF;}
	.st41{opacity:0.2715;fill:#DEDEDE;}
	.st42{opacity:0.2781;fill:#DDDDDD;}
	.st43{opacity:0.2848;fill:#DCDCDC;}
	.st44{opacity:0.2914;fill:#DBDBDB;}
	.st45{opacity:0.298;fill:#DBDBDB;}
	.st46{opacity:0.3046;fill:#DADADA;}
	.st47{opacity:0.3113;fill:#D9D9D9;}
	.st48{opacity:0.3179;fill:#D8D8D8;}
	.st49{opacity:0.3245;fill:#D7D7D7;}
	.st50{opacity:0.3311;fill:#D7D7D7;}
	.st51{opacity:0.3377;fill:#D6D6D6;}
	.st52{opacity:0.3444;fill:#D5D5D5;}
	.st53{opacity:0.351;fill:#D4D4D4;}
	.st54{opacity:0.3576;fill:#D3D3D3;}
	.st55{opacity:0.3642;fill:#D3D3D3;}
	.st56{opacity:0.3709;fill:#D2D2D2;}
	.st57{opacity:0.3775;fill:#D1D1D1;}
	.st58{opacity:0.3841;fill:#D0D0D0;}
	.st59{opacity:0.3907;fill:#CFCFCF;}
	.st60{opacity:0.3974;fill:#CFCFCF;}
	.st61{opacity:0.404;fill:#CECECE;}
	.st62{opacity:0.4106;fill:#CDCDCD;}
	.st63{opacity:0.4172;fill:#CCCCCC;}
	.st64{opacity:0.4238;fill:#CBCBCB;}
	.st65{opacity:0.4305;fill:#CACACA;}
	.st66{opacity:0.4371;fill:#CACACA;}
	.st67{opacity:0.4437;fill:#C9C9C9;}
	.st68{opacity:0.4503;fill:#C8C8C8;}
	.st69{opacity:0.457;fill:#C7C7C7;}
	.st70{opacity:0.4636;fill:#C6C6C6;}
	.st71{opacity:0.4702;fill:#C6C6C6;}
	.st72{opacity:0.4768;fill:#C5C5C5;}
	.st73{opacity:0.4834;fill:#C4C4C4;}
	.st74{opacity:0.4901;fill:#C3C3C3;}
	.st75{opacity:0.4967;fill:#C2C2C2;}
	.st76{opacity:0.5033;fill:#C2C2C2;}
	.st77{opacity:0.5099;fill:#C1C1C1;}
	.st78{opacity:0.5166;fill:#C0C0C0;}
	.st79{opacity:0.5232;fill:#BFBFBF;}
	.st80{opacity:0.5298;fill:#BEBEBE;}
	.st81{opacity:0.5364;fill:#BEBEBE;}
	.st82{opacity:0.543;fill:#BDBDBD;}
	.st83{opacity:0.5497;fill:#BCBCBC;}
	.st84{opacity:0.5563;fill:#BBBBBB;}
	.st85{opacity:0.5629;fill:#BABABA;}
	.st86{opacity:0.5695;fill:#BABABA;}
	.st87{opacity:0.5762;fill:#B9B9B9;}
	.st88{opacity:0.5828;fill:#B8B8B8;}
	.st89{opacity:0.5894;fill:#B7B7B7;}
	.st90{opacity:0.596;fill:#B6B6B6;}
	.st91{opacity:0.6026;fill:#B5B5B5;}
	.st92{opacity:0.6093;fill:#B5B5B5;}
	.st93{opacity:0.6159;fill:#B4B4B4;}
	.st94{opacity:0.6225;fill:#B3B3B3;}
	.st95{opacity:0.6291;fill:#B2B2B2;}
	.st96{opacity:0.6358;fill:#B1B1B1;}
	.st97{opacity:0.6424;fill:#B1B1B1;}
	.st98{opacity:0.649;fill:#B0B0B0;}
	.st99{opacity:0.6556;fill:#AFAFAF;}
	.st100{opacity:0.6623;fill:#AEAEAE;}
	.st101{opacity:0.6689;fill:#ADADAD;}
	.st102{opacity:0.6755;fill:#ADADAD;}
	.st103{opacity:0.6821;fill:#ACACAC;}
	.st104{opacity:0.6887;fill:#ABABAB;}
	.st105{opacity:0.6954;fill:#AAAAAA;}
	.st106{opacity:0.702;fill:#A9A9A9;}
	.st107{opacity:0.7086;fill:#A9A9A9;}
	.st108{opacity:0.7152;fill:#A8A8A8;}
	.st109{opacity:0.7219;fill:#A7A7A7;}
	.st110{opacity:0.7285;fill:#A6A6A6;}
	.st111{opacity:0.7351;fill:#A5A5A5;}
	.st112{opacity:0.7417;fill:#A5A5A5;}
	.st113{opacity:0.7483;fill:#A4A4A4;}
	.st114{opacity:0.755;fill:#A3A3A3;}
	.st115{opacity:0.7616;fill:#A2A2A2;}
	.st116{opacity:0.7682;fill:#A1A1A1;}
	.st117{opacity:0.7748;fill:#A0A0A0;}
	.st118{opacity:0.7815;fill:#A0A0A0;}
	.st119{opacity:0.7881;fill:#9F9F9F;}
	.st120{opacity:0.7947;fill:#9E9E9E;}
	.st121{opacity:0.8013;fill:#9D9D9D;}
	.st122{opacity:0.8079;fill:#9C9C9C;}
	.st123{opacity:0.8146;fill:#9C9C9C;}
	.st124{opacity:0.8212;fill:#9B9B9B;}
	.st125{opacity:0.8278;fill:#9A9A9A;}
	.st126{opacity:0.8344;fill:#999999;}
	.st127{opacity:0.8411;fill:#989898;}
	.st128{opacity:0.8477;fill:#989898;}
	.st129{opacity:0.8543;fill:#979797;}
	.st130{opacity:0.8609;fill:#969696;}
	.st131{opacity:0.8675;fill:#959595;}
	.st132{opacity:0.8742;fill:#949494;}
	.st133{opacity:0.8808;fill:#949494;}
	.st134{opacity:0.8874;fill:#939393;}
	.st135{opacity:0.894;fill:#929292;}
	.st136{opacity:0.9007;fill:#919191;}
	.st137{opacity:0.9073;fill:#909090;}
	.st138{opacity:0.9139;fill:#909090;}
	.st139{opacity:0.9205;fill:#8F8F8F;}
	.st140{opacity:0.9272;fill:#8E8E8E;}
	.st141{opacity:0.9338;fill:#8D8D8D;}
	.st142{opacity:0.9404;fill:#8C8C8C;}
	.st143{opacity:0.947;fill:#8B8B8B;}
	.st144{opacity:0.9536;fill:#8B8B8B;}
	.st145{opacity:0.9603;fill:#8A8A8A;}
	.st146{opacity:0.9669;fill:#898989;}
	.st147{opacity:0.9735;fill:#888888;}
	.st148{opacity:0.9801;fill:#878787;}
	.st149{opacity:0.9868;fill:#878787;}
	.st150{opacity:0.9934;fill:#868686;}
	.st151{fill:#858585;}
	.st152{fill:url(#SVGID_1_);}
	.st153{fill:#F8B032;}
	.st154{fill:#E84F1D;}
	.st155{fill:url(#SVGID_2_);}
	.st156{fill:url(#SVGID_3_);}
	.st157{fill:url(#SVGID_4_);}
	.st158{fill:url(#SVGID_5_);}
	.st159{fill:url(#SVGID_6_);}
	.st160{fill:url(#SVGID_7_);}
	.st161{fill:url(#SVGID_8_);}
	.st162{fill:url(#SVGID_9_);}
	.st163{fill:url(#SVGID_10_);}
	.st164{fill:url(#SVGID_11_);}
	.st165{fill:url(#SVGID_12_);}
	.st166{fill:url(#SVGID_13_);}
	.st167{fill:url(#SVGID_14_);}
	.st168{fill:url(#SVGID_15_);}
	.st169{fill:url(#SVGID_16_);}
	.st170{fill:url(#SVGID_17_);}
	.st171{fill:#FFFFFF;}
	.st172{fill:url(#SVGID_18_);}
</style>
<g>
	<g>
		<path class="st0" d="M164.8,59.1c16.3,57.1-1.3,99.8-40.5,126c-53,35.3-102-0.2-116-22.2c-16-25.3-8-80,16-118.6
			c26.5-42.7,93.6-39,118.9-16.6C143.3,27.6,158.5,39.8,164.8,59.1z"/>
		<path class="st1" d="M124.5,184.4C71.8,219.7,23,184.5,9,162.7C-7.1,137.5,0.7,83.1,24.5,44.5C50.9,1.8,117.6,5.4,143,27.5
			c0.2,0,15.4,12.3,21.8,31.6C180.9,115.9,163.5,158.3,124.5,184.4z"/>
		<path class="st2" d="M124.7,183.8c-52.3,35.2-101,0.4-115.1-21.3C-6.5,137.5,1,83.3,24.7,44.7c26.2-42.5,92.6-39.2,118-17.2
			c0.3,0,15.6,12.3,22,31.6C180.8,115.5,163.5,157.8,124.7,183.8z"/>
		<path class="st3" d="M124.9,183.2c-52,35.1-100.5,0.7-114.6-20.9C-6,137.5,1.4,83.5,24.9,45C50.9,2.5,117,5.7,142.4,27.5
			c0.5,0,15.8,12.3,22.2,31.7C180.6,115.2,163.5,157.2,124.9,183.2z"/>
		<path class="st4" d="M125.1,182.6c-51.7,35-99.9,1-114.2-20.5C-5.4,137.5,1.7,83.7,25.1,45.3C50.9,2.9,116.7,5.8,142.2,27.5
			c0.6,0,16,12.3,22.4,31.7C180.4,114.9,163.4,156.7,125.1,182.6z"/>
		<path class="st5" d="M125.3,182c-51.4,35-99.4,1.2-113.7-20c-16.4-24.4-9.5-78,13.7-116.4C50.9,3.2,116.4,6,141.9,27.5
			c0.8,0,16.2,12.3,22.6,31.8C180.2,114.5,163.4,156.2,125.3,182z"/>
		<path class="st6" d="M125.5,181.4c-51,34.9-98.9,1.5-113.3-19.6c-16.5-24.2-9.8-77.7,13.2-116C50.9,3.6,116.1,6.1,141.6,27.5
			c1,0,16.4,12.4,22.8,31.8C180,114.2,163.4,155.6,125.5,181.4z"/>
		<path class="st7" d="M125.7,180.7c-50.7,34.8-98.4,1.8-112.8-19.2C-3.7,137.5,2.8,84.3,25.6,46C50.9,3.9,115.8,6.3,141.3,27.5
			c1.1-0.1,16.6,12.4,23,31.9C179.9,113.9,163.3,155.1,125.7,180.7z"/>
		<path class="st8" d="M125.9,180.1c-50.4,34.7-97.9,2.1-112.4-18.7C-3.1,137.5,3.1,84.5,25.8,46.3C50.9,4.2,115.5,6.4,141.1,27.5
			c1.3-0.1,16.8,12.4,23.2,31.9C179.7,113.5,163.3,154.6,125.9,180.1z"/>
		<path class="st9" d="M126.1,179.5c-50.1,34.7-97.4,2.4-111.9-18.3C-2.6,137.5,3.5,84.7,26,46.6c24.9-42,89.2-40,114.8-19.1
			c1.4-0.1,17,12.4,23.4,32C179.5,113.2,163.3,154,126.1,179.5z"/>
		<path class="st10" d="M126.3,178.9c-49.8,34.6-96.8,2.7-111.5-17.8C-2,137.6,3.8,84.9,26.2,46.8C50.9,4.9,114.9,6.7,140.5,27.5
			c1.6-0.1,17.2,12.4,23.6,32C179.3,112.8,163.2,153.5,126.3,178.9z"/>
		<path class="st11" d="M126.5,178.3c-49.4,34.5-96.3,2.9-111-17.4C-1.4,137.6,4.2,85.1,26.4,47.1C50.9,5.3,114.6,6.9,140.2,27.5
			c1.8-0.1,17.4,12.5,23.8,32.1C179.1,112.5,163.2,153,126.5,178.3z"/>
		<path class="st12" d="M126.7,177.7c-49.1,34.4-95.8,3.2-110.6-17c-17-23.2-11.6-75.4,10.4-113.4C50.9,5.6,114.3,7,140,27.5
			c1.9-0.1,17.6,12.5,24,32.1C178.9,112.2,163.2,152.4,126.7,177.7z"/>
		<path class="st13" d="M126.9,177.1c-48.8,34.4-95.3,3.5-110.1-16.5c-17.1-23-11.9-75,9.9-112.9C50.9,6,114,7.2,139.7,27.5
			c2.1-0.1,17.8,12.5,24.2,32.1C178.8,111.8,163.1,151.9,126.9,177.1z"/>
		<path class="st14" d="M127.1,176.4c-48.5,34.3-94.8,3.8-109.7-16.1C0.3,137.6,5.3,85.8,26.9,47.9c24-41.6,86.8-40.6,112.5-20.4
			c2.2-0.1,18,12.5,24.4,32.2C178.6,111.5,163.1,151.4,127.1,176.4z"/>
		<path class="st15" d="M127.4,175.8c-48.2,34.2-94.3,4.1-109.2-15.7c-17.3-22.6-12.5-74.2,9-112c23.8-41.5,86.3-40.7,112-20.7
			c2.4-0.1,18.2,12.5,24.6,32.2C178.4,111.1,163,150.8,127.4,175.8z"/>
		<path class="st16" d="M127.6,175.2c-47.8,34.1-93.8,4.4-108.8-15.2C1.4,137.6,6,86.2,27.3,48.4C50.9,7,113.1,7.6,138.9,27.4
			c2.6-0.1,18.4,12.5,24.8,32.3C178.2,110.8,163,150.3,127.6,175.2z"/>
		<path class="st17" d="M127.8,174.6c-47.5,34.1-93.2,4.6-108.3-14.8C2,137.6,6.3,86.4,27.5,48.7C50.9,7.4,112.8,7.8,138.6,27.4
			c2.7-0.1,18.6,12.6,25,32.3C178,110.5,163,149.8,127.8,174.6z"/>
		<path class="st18" d="M128,174c-47.2,34-92.7,4.9-107.9-14.3C2.6,137.6,6.6,86.6,27.7,48.9c23.1-41.3,84.9-41,110.6-21.5
			c2.9-0.1,18.8,12.6,25.2,32.4C177.9,110.1,162.9,149.2,128,174z"/>
		<path class="st19" d="M128.2,173.4c-46.9,33.9-92.2,5.2-107.4-13.9C3.1,137.6,6.9,86.8,27.8,49.2C50.8,8,112.2,8.1,138,27.4
			c3-0.2,19,12.6,25.4,32.4C177.7,109.8,162.9,148.7,128.2,173.4z"/>
		<path class="st20" d="M128.4,172.8c-46.6,33.8-91.7,5.5-107-13.5C3.7,137.6,7.3,87,28,49.5C50.8,8.3,111.9,8.2,137.7,27.4
			c3.2-0.2,19.2,12.6,25.6,32.5C177.5,109.4,162.9,148.2,128.4,172.8z"/>
		<path class="st21" d="M128.6,172.1c-46.2,33.8-91.2,5.8-106.6-13C4.3,137.6,7.6,87.2,28.2,49.7c22.6-41,83.4-41.4,109.3-22.3
			c3.4-0.2,19.4,12.6,25.8,32.5C177.3,109.1,162.8,147.6,128.6,172.1z"/>
		<path class="st22" d="M128.8,171.5c-45.9,33.7-90.7,6.1-106.1-12.6C4.8,137.6,8,87.4,28.4,50C50.8,9,111.3,8.5,137.2,27.4
			c3.5-0.2,19.6,12.7,26,32.6C177.1,108.8,162.8,147.1,128.8,171.5z"/>
		<path class="st23" d="M129,170.9c-45.6,33.6-90.1,6.3-105.7-12.2c-17.9-21.2-15-71.2,5.3-108.5C50.8,9.4,111,8.7,136.9,27.4
			c3.7-0.2,19.8,12.7,26.2,32.6C177,108.4,162.8,146.6,129,170.9z"/>
		<path class="st24" d="M129.2,170.3c-45.3,33.5-89.6,6.6-105.2-11.7C6,137.5,8.7,87.8,28.8,50.5c22-40.8,82-41.7,107.9-23.2
			c3.8-0.2,20,12.7,26.4,32.7C176.8,108.1,162.7,146,129.2,170.3z"/>
		<path class="st25" d="M129.4,169.7c-45,33.5-89.1,6.9-104.8-11.3C6.6,137.5,9,88,29,50.8C50.8,10.1,110.4,9,136.4,27.4
			c4-0.2,20.2,12.7,26.6,32.7C176.6,107.7,162.7,145.5,129.4,169.7z"/>
		<path class="st26" d="M129.6,169.1c-44.6,33.4-88.6,7.2-104.3-10.8C7.1,137.5,9.4,88.2,29.1,51c21.6-40.6,81-41.9,106.9-23.7
			c4.2-0.2,20.4,12.7,26.8,32.8C176.4,107.4,162.7,145,129.6,169.1z"/>
		<path class="st27" d="M129.8,168.5c-44.3,33.3-88,7.4-103.9-10.4C7.7,137.5,9.7,88.4,29.3,51.3c21.4-40.6,80.5-42,106.5-24
			c4.3-0.2,20.6,12.8,27,32.8C176.2,107.1,162.6,144.5,129.8,168.5z"/>
		<path class="st28" d="M130,167.8c-44,33.2-87.5,7.7-103.4-10C8.3,137.5,10.1,88.6,29.5,51.6c21.2-40.5,80-42.2,106-24.2
			c4.5-0.2,20.8,12.8,27.2,32.9C176.1,106.7,162.6,143.9,130,167.8z"/>
		<path class="st29" d="M130.2,167.2c-43.7,33.2-87,8-103-9.5C8.9,137.5,10.4,88.8,29.7,51.8c21-40.4,79.6-42.3,105.6-24.5
			c4.6-0.2,21,12.8,27.4,32.9C175.9,106.4,162.6,143.4,130.2,167.2z"/>
		<path class="st30" d="M130.4,166.6c-43.4,33.1-86.5,8.3-102.5-9.1c-18.5-20-17.1-68.5,2-105.4C50.7,11.8,109,9.7,135,27.3
			c4.8-0.2,21.2,12.8,27.7,32.9C175.7,106.1,162.5,142.9,130.4,166.6z"/>
		<path class="st31" d="M130.6,166c-43,33-86,8.6-102.1-8.7c-18.6-19.8-17.4-68.1,1.5-105c20.7-40.2,78.6-42.5,104.6-25
			c5-0.3,21.4,12.8,27.9,33C175.5,105.7,162.5,142.3,130.6,166z"/>
		<path class="st32" d="M130.8,165.4c-42.7,32.9-85.5,8.8-101.6-8.2c-18.6-19.7-17.7-67.7,1.1-104.5C50.7,12.5,108.4,10,134.4,27.3
			c5.1-0.3,21.6,12.9,28.1,33C175.3,105.4,162.5,141.8,130.8,165.4z"/>
		<path class="st33" d="M131,164.8c-42.4,32.9-84.9,9.1-101.2-7.8c-18.7-19.5-18-67.3,0.6-104.1c20.3-40.1,77.6-42.7,103.7-25.6
			c5.3-0.3,21.8,12.9,28.3,33.1C175.1,105,162.4,141.3,131,164.8z"/>
		<path class="st34" d="M131.2,164.2c-42.1,32.8-84.4,9.4-100.7-7.3c-18.8-19.3-18.3-67,0.1-103.7c20.1-40,77.1-42.8,103.3-25.9
			c5.4-0.3,22,12.9,28.5,33.1C175,104.7,162.4,140.7,131.2,164.2z"/>
		<path class="st35" d="M131.4,163.5c-41.8,32.7-83.9,9.7-100.3-6.9c-18.9-19.1-18.6-66.6-0.3-103.2c19.9-39.9,76.7-42.9,102.8-26.1
			c5.6-0.3,22.2,12.9,28.7,33.2C174.8,104.4,162.4,140.2,131.4,163.5z"/>
		<path class="st36" d="M131.6,162.9c-41.4,32.6-83.4,10-99.8-6.5c-19-19-18.9-66.2-0.8-102.8c19.7-39.8,76.2-43.1,102.3-26.4
			c5.8-0.3,22.4,12.9,28.9,33.2C174.6,104,162.3,139.7,131.6,162.9z"/>
		<path class="st37" d="M131.8,162.3c-41.1,32.6-82.9,10.3-99.4-6c-19-18.8-19.2-65.8-1.3-102.3c19.5-39.8,75.7-43.2,101.9-26.7
			c5.9-0.3,22.6,13,29.1,33.3C174.4,103.7,162.3,139.1,131.8,162.3z"/>
		<path class="st38" d="M132,161.7c-40.8,32.5-82.4,10.5-98.9-5.6C14,137.5,13.6,90.7,31.4,54.2c19.3-39.7,75.2-43.3,101.4-26.9
			c6.1-0.3,22.8,13,29.3,33.3C174.2,103.3,162.2,138.6,132,161.7z"/>
		<path class="st39" d="M132.2,161.1c-40.5,32.4-81.8,10.8-98.5-5.2c-19.2-18.4-19.8-65-2.2-101.5c19.2-39.6,74.7-43.4,101-27.2
			c6.2-0.3,23,13,29.5,33.4C174.1,103,162.2,138.1,132.2,161.1z"/>
		<path class="st40" d="M132.4,160.5c-40.2,32.3-81.3,11.1-98-4.7c-19.3-18.3-20.1-64.7-2.7-101c19-39.5,74.2-43.5,100.5-27.5
			c6.4-0.3,23.2,13,29.7,33.4C173.9,102.7,162.2,137.5,132.4,160.5z"/>
		<path class="st41" d="M132.7,159.9c-39.8,32.3-80.8,11.4-97.6-4.3C15.7,137.5,14.6,91.3,31.9,55c18.8-39.4,73.8-43.6,100-27.8
			c6.6-0.3,23.4,13,29.9,33.5C173.7,102.3,162.1,137,132.7,159.9z"/>
		<path class="st42" d="M132.9,159.2c-39.5,32.2-80.3,11.7-97.1-3.8C16.2,137.5,15,91.5,32.1,55.3c18.6-39.4,73.3-43.7,99.6-28
			c6.7-0.3,23.6,13.1,30.1,33.5C173.5,102,162.1,136.5,132.9,159.2z"/>
		<path class="st43" d="M133.1,158.6c-39.2,32.1-79.8,11.9-96.7-3.4c-19.5-17.7-21-63.5-4.1-99.7c18.4-39.3,72.8-43.9,99.1-28.3
			c6.9-0.4,23.8,13.1,30.3,33.6C173.3,101.6,162.1,135.9,133.1,158.6z"/>
		<path class="st44" d="M133.3,158C94.4,190,54,170.2,37,155c-19.6-17.6-21.3-63.1-4.5-99.3c18.2-39.2,72.3-44,98.7-28.6
			c7-0.4,24,13.1,30.5,33.6C173.2,101.3,162,135.4,133.3,158z"/>
		<path class="st45" d="M133.5,157.4c-38.6,32-78.7,12.5-95.8-2.5C18,137.5,16,92.1,32.7,56c18-39.1,71.8-44.1,98.2-28.8
			c7.2-0.4,24.2,13.1,30.7,33.6C173,101,162,134.9,133.5,157.4z"/>
		<path class="st46" d="M133.7,156.8c-38.2,31.9-78.2,12.8-95.4-2.1c-19.8-17.2-21.9-62.4-5.5-98.4c17.8-39,71.4-44.2,97.7-29.1
			c7.4-0.4,24.4,13.1,30.9,33.7C172.8,100.6,162,134.3,133.7,156.8z"/>
		<path class="st47" d="M133.9,156.2C96,188,56.2,169.2,39,154.5c-19.9-17-22.2-62-5.9-97.9c17.6-38.9,70.9-44.3,97.3-29.4
			c7.5-0.4,24.6,13.2,31.1,33.7C172.6,100.3,161.9,133.8,133.9,156.2z"/>
		<path class="st48" d="M134.1,155.6c-37.6,31.7-77.2,13.4-94.5-1.2c-20-16.8-22.5-61.6-6.4-97.5C50.7,18,103.6,12.4,130,27.2
			c7.7-0.4,24.8,13.2,31.3,33.8C172.4,99.9,161.9,133.3,134.1,155.6z"/>
		<path class="st49" d="M134.3,154.9c-37.3,31.7-76.7,13.6-94-0.8c-20-16.7-22.8-61.2-6.9-97.1c17.3-38.8,69.9-44.5,96.3-29.9
			c7.9-0.4,25,13.2,31.5,33.8C172.3,99.6,161.9,132.7,134.3,154.9z"/>
		<path class="st50" d="M134.5,154.3c-37,31.6-76.2,13.9-93.6-0.3c-20.1-16.5-23.1-60.8-7.3-96.6c17.1-38.7,69.4-44.6,95.9-30.2
			c8-0.4,25.2,13.2,31.7,33.9C172.1,99.3,161.8,132.2,134.5,154.3z"/>
		<path class="st51" d="M134.7,153.7C98,185.2,59,167.9,41.6,153.8c-20.2-16.3-23.4-60.4-7.8-96.2c16.9-38.6,68.9-44.8,95.4-30.5
			c8.2-0.4,25.4,13.2,31.9,33.9C171.9,98.9,161.8,131.7,134.7,153.7z"/>
		<path class="st52" d="M134.9,153.1c-36.3,31.4-75.1,14.5-92.7,0.5C21.9,137.5,18.5,93.6,34,57.9c16.7-38.5,68.5-44.9,95-30.7
			c8.3-0.4,25.6,13.3,32.1,34C171.7,98.6,161.8,131.1,134.9,153.1z"/>
		<path class="st53" d="M135.1,152.5c-36,31.4-74.6,14.8-92.2,1c-20.4-16-24-59.7-8.7-95.3c16.5-38.5,68-45,94.5-31
			c8.5-0.4,25.8,13.3,32.3,34C171.5,98.3,161.7,130.6,135.1,152.5z"/>
		<path class="st54" d="M135.3,151.9c-35.7,31.3-74.1,15-91.8,1.4C23.1,137.5,19.2,94,34.3,58.4c16.3-38.4,67.5-45.1,94-31.3
			c8.7-0.4,26,13.3,32.5,34.1C171.4,97.9,161.7,130.1,135.3,151.9z"/>
		<path class="st55" d="M135.5,151.3c-35.4,31.2-73.6,15.3-91.3,1.8c-20.5-15.6-24.6-58.9-9.7-94.4c16.1-38.3,67-45.2,93.6-31.5
			c8.8-0.5,26.2,13.3,32.7,34.1C171.2,97.6,161.7,129.5,135.5,151.3z"/>
		<path class="st56" d="M135.7,150.6c-35,31.1-73.1,15.6-90.9,2.3c-20.6-15.4-24.9-58.5-10.1-94c16-38.2,66.5-45.3,93.1-31.8
			c9-0.5,26.4,13.3,32.9,34.2C171,97.2,161.6,129,135.7,150.6z"/>
		<path class="st57" d="M135.9,150c-34.7,31.1-72.6,15.9-90.4,2.7c-20.7-15.3-25.2-58.1-10.6-93.5c15.8-38.1,66-45.4,92.7-32.1
			c9.1-0.5,26.6,13.4,33.1,34.2C170.8,96.9,161.6,128.5,135.9,150z"/>
		<path class="st58" d="M136.1,149.4c-34.4,31-72,16.2-90,3.2c-20.8-15.1-25.5-57.7-11.1-93.1c15.6-38,65.6-45.6,92.2-32.4
			c9.3-0.5,26.8,13.4,33.3,34.3C170.6,96.6,161.6,127.9,136.1,149.4z"/>
		<path class="st59" d="M136.3,148.8c-34.1,30.9-71.5,16.5-89.5,3.6C25.9,137.5,21,95,35.3,59.7c15.4-38,65.1-45.7,91.7-32.6
			c9.5-0.5,27,13.4,33.5,34.3C170.4,96.2,161.5,127.4,136.3,148.8z"/>
		<path class="st60" d="M136.5,148.2c-33.8,30.8-71,16.7-89.1,4c-21-14.7-26.1-57-12-92.2c15.2-37.9,64.6-45.8,91.3-32.9
			c9.6-0.5,27.2,13.4,33.7,34.4C170.3,95.9,161.5,126.9,136.5,148.2z"/>
		<path class="st61" d="M136.7,147.6c-33.4,30.8-70.5,17-88.6,4.5c-21-14.6-26.4-56.6-12.5-91.8c15-37.8,64.1-45.9,90.8-33.2
			c9.8-0.5,27.4,13.4,33.9,34.4C170.1,95.5,161.4,126.3,136.7,147.6z"/>
		<path class="st62" d="M136.9,147c-33.1,30.7-70,17.3-88.2,4.9C27.6,137.5,22,95.7,35.8,60.5c14.8-37.7,63.6-46,90.4-33.4
			c9.9-0.5,27.6,13.5,34.1,34.4C169.9,95.2,161.4,125.8,136.9,147z"/>
		<path class="st63" d="M137.1,146.3c-32.8,30.6-69.5,17.6-87.7,5.3c-21.2-14.2-27-55.8-13.4-90.9c14.6-37.6,63.1-46.1,89.9-33.7
			c10.1-0.5,27.8,13.5,34.3,34.5C169.7,94.9,161.4,125.3,137.1,146.3z"/>
		<path class="st64" d="M137.3,145.7c-32.5,30.5-68.9,17.9-87.3,5.8c-21.3-14-27.3-55.4-13.8-90.5c14.5-37.6,62.7-46.2,89.4-34
			c10.3-0.5,28,13.5,34.5,34.5C169.5,94.5,161.3,124.7,137.3,145.7z"/>
		<path class="st65" d="M137.5,145.1c-32.2,30.5-68.4,18.2-86.8,6.2c-21.4-13.9-27.6-55.1-14.3-90c14.3-37.5,62.2-46.3,89-34.3
			c10.4-0.5,28.2,13.5,34.7,34.6C169.4,94.2,161.3,124.2,137.5,145.1z"/>
		<path class="st66" d="M137.7,144.5c-31.8,30.4-67.9,18.4-86.4,6.7c-21.5-13.7-27.9-54.7-14.8-89.6C50.6,24.2,98.3,15.1,125.1,27
			c10.6-0.5,28.4,13.5,34.9,34.6C169.2,93.8,161.3,123.7,137.7,144.5z"/>
		<path class="st67" d="M138,143.9c-31.5,30.3-67.4,18.7-86,7.1c-21.6-13.5-28.2-54.3-15.2-89.1C50.6,24.5,98,15.3,124.8,27
			c10.7-0.6,28.6,13.6,35.1,34.7C169,93.5,161.2,123.1,138,143.9z"/>
		<path class="st68" d="M138.2,143.3c-31.2,30.2-66.9,19-85.5,7.5C31,137.5,24.1,96.9,36.9,62.1C50.6,24.9,97.7,15.4,124.5,27
			c10.9-0.6,28.8,13.6,35.3,34.7C168.8,93.2,161.2,122.6,138.2,143.3z"/>
		<path class="st69" d="M138.4,142.7c-30.9,30.2-66.4,19.3-85.1,8c-21.7-13.2-28.8-53.5-16.2-88.3C50.6,25.2,97.4,15.6,124.2,27
			c11.1-0.6,29,13.6,35.6,34.8C168.6,92.8,161.2,122.1,138.4,142.7z"/>
		<path class="st70" d="M138.6,142c-30.6,30.1-65.9,19.6-84.6,8.4c-21.8-13-29.1-53.1-16.6-87.8C50.6,25.6,97.1,15.7,124,27
			c11.2-0.6,29.2,13.6,35.8,34.8C168.5,92.5,161.1,121.5,138.6,142z"/>
		<path class="st71" d="M138.8,141.4c-30.2,30-65.3,19.8-84.2,8.8c-21.9-12.8-29.4-52.7-17.1-87.4c13.1-37,59.3-47,86.2-35.9
			c11.4-0.6,29.4,13.6,36,34.9C168.3,92.1,161.1,121,138.8,141.4z"/>
		<path class="st72" d="M139,140.8c-29.9,29.9-64.8,20.1-83.7,9.3c-22-12.6-29.7-52.4-17.6-86.9C50.6,26.3,96.5,16,123.4,27
			c11.5-0.6,29.6,13.7,36.2,34.9C168.1,91.8,161.1,120.5,139,140.8z"/>
		<path class="st73" d="M139.2,140.2c-29.6,29.9-64.3,20.4-83.3,9.7c-22.1-12.4-30-52-18-86.5C50.6,26.6,96.2,16.2,123.1,27
			c11.7-0.6,29.8,13.7,36.4,35C167.9,91.5,161,119.9,139.2,140.2z"/>
		<path class="st74" d="M139.4,139.6c-29.3,29.8-63.8,20.7-82.8,10.2c-22.1-12.3-30.3-51.6-18.5-86.1C50.6,27,95.9,16.3,122.9,27
			c11.9-0.6,30,13.7,36.6,35C167.7,91.1,161,119.4,139.4,139.6z"/>
		<path class="st75" d="M139.6,139c-29,29.7-63.3,21-82.4,10.6c-22.2-12.1-30.6-51.2-19-85.6c12.4-36.6,57.4-47.5,84.4-37
			c12-0.6,30.2,13.7,36.8,35.1C167.6,90.8,161,118.9,139.6,139z"/>
		<path class="st76" d="M139.8,138.4c-28.6,29.6-62.8,21.3-81.9,11c-22.3-11.9-30.9-50.8-19.4-85.2C50.6,27.6,95.3,16.6,122.3,27
			c12.2-0.6,30.4,13.7,37,35.1C167.4,90.4,160.9,118.3,139.8,138.4z"/>
		<path class="st77" d="M140,137.7c-28.3,29.6-62.3,21.5-81.5,11.5c-22.4-11.7-31.2-50.4-19.9-84.7C50.6,28,95,16.8,122,27
			c12.3-0.6,30.6,13.8,37.2,35.2C167.2,90.1,160.9,117.8,140,137.7z"/>
		<path class="st78" d="M140.2,137.1c-28,29.5-61.7,21.8-81,11.9c-22.5-11.6-31.5-50-20.4-84.3c11.8-36.4,55.9-47.8,83-37.8
			c12.5-0.6,30.8,13.8,37.4,35.2C167,89.8,160.9,117.3,140.2,137.1z"/>
		<path class="st79" d="M140.4,136.5c-27.7,29.4-61.2,22.1-80.6,12.3C37.3,137.5,28,99.2,39,65c11.7-36.3,55.4-47.9,82.5-38.1
			c12.7-0.7,31,13.8,37.6,35.2C166.8,89.4,160.8,116.7,140.4,136.5z"/>
		<path class="st80" d="M140.6,135.9c-27.4,29.3-60.7,22.4-80.1,12.8c-22.7-11.2-32.1-49.3-21.3-83.4c11.5-36.2,54.9-48,82.1-38.3
			c12.8-0.7,31.2,13.8,37.8,35.3C166.7,89.1,160.8,116.2,140.6,135.9z"/>
		<path class="st81" d="M140.8,135.3c-27,29.3-60.2,22.7-79.7,13.2c-22.7-11-32.4-48.9-21.8-83c11.3-36.1,54.5-48.2,81.6-38.6
			c13-0.7,31.4,13.8,38,35.3C166.5,88.8,160.8,115.7,140.8,135.3z"/>
		<path class="st82" d="M141,134.7c-26.7,29.2-59.7,23-79.2,13.7C39,137.5,29.1,99.8,39.5,65.8c11.1-36.1,54-48.3,81.1-38.9
			c13.1-0.7,31.6,13.9,38.2,35.4C166.3,88.4,160.7,115.1,141,134.7z"/>
		<path class="st83" d="M141.2,134.1c-26.4,29.1-59.2,23.2-78.8,14.1C39.5,137.5,29.4,100,39.7,66c10.9-36,53.5-48.4,80.7-39.1
			c13.3-0.7,31.8,13.9,38.4,35.4C166.1,88.1,160.7,114.6,141.2,134.1z"/>
		<path class="st84" d="M141.4,133.4c-26.1,29-58.6,23.5-78.3,14.5c-23-10.5-33.3-47.7-23.2-81.7c10.7-35.9,53-48.5,80.2-39.4
			c13.5-0.7,32,13.9,38.6,35.5C165.9,87.7,160.6,114.1,141.4,133.4z"/>
		<path class="st85" d="M141.6,132.8c-25.8,29-58.1,23.8-77.9,15c-23.1-10.3-33.6-47.3-23.6-81.2C50.6,30.8,92.6,18,119.8,26.9
			c13.6-0.7,32.2,13.9,38.8,35.5C165.7,87.4,160.6,113.5,141.6,132.8z"/>
		<path class="st86" d="M141.8,132.2c-25.4,28.9-57.6,24.1-77.4,15.4c-23.2-10.1-33.9-47-24.1-80.8c10.4-35.7,52-48.7,79.3-39.9
			c13.8-0.7,32.4,13.9,39,35.6C165.6,87.1,160.6,113,141.8,132.2z"/>
		<path class="st87" d="M142,131.6c-25.1,28.8-57.1,24.4-77,15.8c-23.2-10-34.2-46.6-24.6-80.3C50.6,31.5,92,18.3,119.3,26.9
			c13.9-0.7,32.6,14,39.2,35.6C165.4,86.7,160.5,112.5,142,131.6z"/>
		<path class="st88" d="M142.2,131c-24.8,28.7-56.6,24.7-76.5,16.3c-23.3-9.8-34.5-46.2-25-79.9c10-35.6,51.1-48.9,78.4-40.5
			c14.1-0.7,32.8,14,39.4,35.7C165.2,86.4,160.5,111.9,142.2,131z"/>
		<path class="st89" d="M142.4,130.4C118,159,86.4,155.3,66.3,147.1c-23.4-9.6-34.8-45.8-25.5-79.5c9.8-35.5,50.6-49.1,77.9-40.8
			c14.3-0.7,33,14,39.6,35.7C165,86,160.5,111.4,142.4,130.4z"/>
		<path class="st90" d="M142.6,129.8C118.5,158.3,87.1,155,67,146.9c-23.5-9.4-35.1-45.4-26-79c9.6-35.4,50.1-49.2,77.4-41
			c14.4-0.7,33.2,14,39.8,35.8C164.8,85.7,160.4,110.9,142.6,129.8z"/>
		<path class="st91" d="M142.8,129.1c-23.8,28.5-55,25.5-75.2,17.6c-23.6-9.3-35.4-45-26.4-78.6c9.4-35.3,49.6-49.3,77-41.3
			c14.6-0.8,33.4,14,40,35.8C164.7,85.4,160.4,110.3,142.8,129.1z"/>
		<path class="st92" d="M143,128.5c-23.5,28.4-54.5,25.8-74.8,18c-23.7-9.1-35.7-44.6-26.9-78.1c9.2-35.2,49.2-49.4,76.5-41.6
			c14.7-0.8,33.6,14,40.2,35.9C164.5,85,160.4,109.8,143,128.5z"/>
		<path class="st93" d="M143.3,127.9c-23.2,28.4-54,26.1-74.3,18.5c-23.8-8.9-36-44.3-27.4-77.7c9.1-35.1,48.7-49.5,76.1-41.8
			c14.9-0.8,33.8,14.1,40.4,35.9C164.3,84.7,160.3,109.3,143.3,127.9z"/>
		<path class="st94" d="M143.5,127.3c-22.9,28.3-53.5,26.4-73.9,18.9c-23.8-8.7-36.3-43.9-27.8-77.3c8.9-35.1,48.2-49.6,75.6-42.1
			c15.1-0.8,34,14.1,40.6,35.9C164.1,84.3,160.3,108.7,143.5,127.3z"/>
		<path class="st95" d="M143.7,126.7c-22.6,28.2-53,26.6-73.4,19.3c-23.9-8.5-36.6-43.5-28.3-76.8c8.7-35,47.7-49.7,75.1-42.4
			c15.2-0.8,34.2,14.1,40.8,36C163.9,84,160.3,108.2,143.7,126.7z"/>
		<path class="st96" d="M143.9,126.1c-22.2,28.1-52.5,26.9-73,19.8c-24-8.4-36.9-43.1-28.8-76.4c8.5-34.9,47.2-49.8,74.7-42.7
			c15.4-0.8,34.4,14.1,41,36C163.8,83.7,160.2,107.7,143.9,126.1z"/>
		<path class="st97" d="M144.1,125.5c-21.9,28.1-52,27.2-72.5,20.2c-24.1-8.2-37.2-42.7-29.2-75.9c8.3-34.8,46.7-50,74.2-42.9
			c15.5-0.8,34.6,14.1,41.2,36.1C163.6,83.3,160.2,107.1,144.1,125.5z"/>
		<path class="st98" d="M144.3,124.8c-21.6,28-51.4,27.5-72.1,20.7c-24.2-8-37.5-42.3-29.7-75.5c8.1-34.7,46.3-50.1,73.8-43.2
			C132,26,151,41,157.7,62.9C163.4,83,160.2,106.6,144.3,124.8z"/>
		<path class="st99" d="M144.5,124.2c-21.3,27.9-50.9,27.8-71.6,21.1c-24.3-7.8-37.8-41.9-30.2-75.1c8-34.6,45.8-50.2,73.3-43.5
			c15.9-0.8,35,14.2,41.6,36.2C163.2,82.6,160.1,106.1,144.5,124.2z"/>
		<path class="st100" d="M144.7,123.6c-21,27.8-50.4,28.1-71.2,21.5c-24.3-7.7-38.1-41.6-30.6-74.6c7.8-34.6,45.3-50.3,72.8-43.7
			c16-0.8,35.2,14.2,41.8,36.2C163,82.3,160.1,105.5,144.7,123.6z"/>
		<path class="st101" d="M144.9,123c-20.6,27.8-49.9,28.3-70.7,22c-24.4-7.5-38.4-41.2-31.1-74.2c7.6-34.5,44.8-50.4,72.4-44
			c16.2-0.8,35.4,14.2,42,36.3C162.9,82,160.1,105,144.9,123z"/>
		<path class="st102" d="M145.1,122.4c-20.3,27.7-49.4,28.6-70.3,22.4C50.3,137.5,36.1,104,43.2,71c7.4-34.4,44.3-50.5,71.9-44.3
			c16.3-0.8,35.6,14.2,42.2,36.3C162.7,81.6,160,104.5,145.1,122.4z"/>
		<path class="st103" d="M145.3,121.8c-20,27.6-48.9,28.9-69.8,22.8c-24.6-7.1-39-40.4-32-73.3c7.2-34.3,43.8-50.6,71.4-44.6
			c16.5-0.9,35.7,14.3,42.4,36.4C162.5,81.3,160,103.9,145.3,121.8z"/>
		<path class="st104" d="M145.5,121.2c-19.7,27.5-48.4,29.2-69.4,23.3c-24.7-6.9-39.3-40-32.5-72.9c7-34.2,43.4-50.8,71-44.8
			c16.7-0.9,35.9,14.3,42.6,36.4C162.3,81,160,103.4,145.5,121.2z"/>
		<path class="st105" d="M145.7,120.5C126.3,148,97.9,150,76.8,144.3c-24.8-6.8-39.5-39.6-33-72.4c6.9-34.1,42.9-50.9,70.5-45.1
			c16.8-0.9,36.1,14.3,42.8,36.5C162.1,80.6,159.9,102.9,145.7,120.5z"/>
		<path class="st106" d="M145.9,119.9c-19,27.4-47.3,29.8-68.5,24.2c-24.9-6.6-39.8-39.2-33.4-72c6.7-34.1,42.4-51,70.1-45.4
			c17-0.9,36.3,14.3,43,36.5C161.9,80.3,159.9,102.3,145.9,119.9z"/>
		<path class="st107" d="M146.1,119.3c-18.7,27.3-46.8,30-68,24.6c-24.9-6.4-40.1-38.8-33.9-71.5c6.5-34,41.9-51.1,69.6-45.6
			c17.1-0.9,36.5,14.3,43.2,36.6C161.8,79.9,159.8,101.8,146.1,119.3z"/>
		<path class="st108" d="M146.3,118.7c-18.4,27.2-46.3,30.3-67.6,25c-25-6.2-40.4-38.5-34.4-71.1c6.3-33.9,41.4-51.2,69.1-45.9
			c17.3-0.9,36.7,14.4,43.4,36.6C161.6,79.6,159.8,101.3,146.3,118.7z"/>
		<path class="st109" d="M146.5,118.1c-18.1,27.2-45.8,30.6-67.1,25.5c-25.1-6.1-40.7-38.1-34.8-70.7c6.1-33.8,40.9-51.3,68.7-46.2
			c17.5-0.9,36.9,14.4,43.7,36.7C161.4,79.3,159.8,100.7,146.5,118.1z"/>
		<path class="st110" d="M146.7,117.5c-17.8,27.1-45.3,30.9-66.7,25.9c-25.2-5.9-41-37.7-35.3-70.2c5.9-33.7,40.5-51.4,68.2-46.5
			c17.6-0.9,37.1,14.4,43.9,36.7C161.2,78.9,159.7,100.2,146.7,117.5z"/>
		<path class="st111" d="M146.9,116.9c-17.4,27-44.8,31.2-66.2,26.3c-25.3-5.7-41.3-37.3-35.8-69.8c5.8-33.6,40-51.5,67.8-46.7
			c17.8-0.9,37.3,14.4,44.1,36.7C161,78.6,159.7,99.7,146.9,116.9z"/>
		<path class="st112" d="M147.1,116.2c-17.1,26.9-44.2,31.5-65.8,26.8c-25.4-5.5-41.6-36.9-36.2-69.3c5.6-33.5,39.5-51.7,67.3-47
			c17.9-0.9,37.5,14.4,44.3,36.8C160.9,78.2,159.7,99.1,147.1,116.2z"/>
		<path class="st113" d="M147.3,115.6c-16.8,26.9-43.7,31.8-65.4,27.2c-25.4-5.3-41.9-36.5-36.7-68.9c5.4-33.5,39-51.8,66.8-47.3
			c18.1-0.9,37.7,14.5,44.5,36.8C160.7,77.9,159.6,98.6,147.3,115.6z"/>
		<path class="st114" d="M147.5,115c-16.5,26.8-43.2,32-64.9,27.7c-25.5-5.2-42.2-36.1-37.2-68.5c5.2-33.4,38.5-51.9,66.4-47.5
			c18.3-0.9,37.9,14.5,44.7,36.9C160.5,77.6,159.6,98.1,147.5,115z"/>
		<path class="st115" d="M147.7,114.4c-16.2,26.7-42.7,32.3-64.5,28.1c-25.6-5-42.5-35.8-37.6-68c5-33.3,38-52,65.9-47.8
			c18.4-1,38.1,14.5,44.9,36.9C160.3,77.2,159.6,97.5,147.7,114.4z"/>
		<path class="st116" d="M147.9,113.8c-15.8,26.6-42.2,32.6-64,28.5c-25.7-4.8-42.8-35.4-38.1-67.6c4.9-33.2,37.6-52.1,65.5-48.1
			c18.6-1,38.3,14.5,45.1,37C160.1,76.9,159.5,97,147.9,113.8z"/>
		<path class="st117" d="M148.1,113.2c-15.5,26.6-41.7,32.9-63.6,29c-25.8-4.6-43.1-35-38.6-67.1c4.7-33.1,37.1-52.2,65-48.3
			c18.7-1,38.5,14.5,45.3,37C160,76.5,159.5,96.5,148.1,113.2z"/>
		<path class="st118" d="M148.3,112.6c-15.2,26.5-41.1,33.2-63.1,29.4c-25.9-4.4-43.4-34.6-39-66.7c4.5-33,36.6-52.3,64.5-48.6
			c18.9-1,38.7,14.6,45.5,37.1C159.8,76.2,159.5,95.9,148.3,112.6z"/>
		<path class="st119" d="M148.6,111.9c-14.9,26.4-40.6,33.5-62.7,29.8c-26-4.3-43.7-34.2-39.5-66.3c4.3-33,36.1-52.5,64.1-48.9
			c19.1-1,38.9,14.6,45.7,37.1C159.6,75.9,159.4,95.4,148.6,111.9z"/>
		<path class="st120" d="M148.8,111.3c-14.6,26.3-40.1,33.7-62.2,30.3c-26-4.1-44-33.8-40-65.8c4.1-32.9,35.6-52.6,63.6-49.2
			c19.2-1,39.1,14.6,45.9,37.2C159.4,75.5,159.4,94.9,148.8,111.3z"/>
		<path class="st121" d="M149,110.7c-14.2,26.3-39.6,34-61.8,30.7C61.1,137.5,42.9,108,46.8,76c3.9-32.8,35.2-52.7,63.1-49.4
			c19.4-1,39.3,14.6,46.1,37.2C159.2,75.2,159.4,94.3,149,110.7z"/>
		<path class="st122" d="M149.2,110.1c-13.9,26.2-39.1,34.3-61.3,31.2c-26.2-3.7-44.6-33.1-40.9-64.9c3.8-32.7,34.7-52.8,62.7-49.7
			c19.5-1,39.5,14.6,46.3,37.3C159.1,74.8,159.3,93.8,149.2,110.1z"/>
		<path class="st123" d="M149.4,109.5c-13.6,26.1-38.6,34.6-60.9,31.6c-26.3-3.5-44.9-32.7-41.4-64.5c3.6-32.6,34.2-52.9,62.2-50
			c19.7-1,39.7,14.7,46.5,37.3C158.9,74.5,159.3,93.3,149.4,109.5z"/>
		<path class="st124" d="M149.6,108.9c-13.3,26-38.1,34.9-60.4,32c-26.4-3.4-45.1-32.3-41.8-64.1c3.4-32.5,33.7-53,61.8-50.2
			c19.9-1,39.9,14.7,46.7,37.4C158.7,74.2,159.3,92.7,149.6,108.9z"/>
		<path class="st125" d="M149.8,108.3c-13,26-37.5,35.2-60,32.5c-26.5-3.2-45.4-31.9-42.3-63.6c3.2-32.5,33.2-53.1,61.3-50.5
			c20-1,40.1,14.7,46.9,37.4C158.5,73.8,159.2,92.2,149.8,108.3z"/>
		<path class="st126" d="M150,107.6c-12.6,25.9-37,35.5-59.5,32.9c-26.5-3-45.7-31.5-42.8-63.2c3-32.4,32.7-53.2,60.8-50.8
			c20.2-1,40.3,14.7,47.1,37.4C158.3,73.5,159.2,91.7,150,107.6z"/>
		<path class="st127" d="M150.2,107c-12.3,25.8-36.5,35.7-59.1,33.3c-26.6-2.8-46-31.1-43.2-62.7c2.9-32.3,32.3-53.4,60.4-51.1
			c20.3-1.1,40.5,14.7,47.3,37.5C158.2,73.2,159.2,91.1,150.2,107z"/>
		<path class="st128" d="M150.4,106.4c-12,25.7-36,36-58.6,33.8c-26.7-2.6-46.3-30.7-43.7-62.3c2.7-32.2,31.8-53.5,59.9-51.3
			c20.5-1.1,40.7,14.8,47.5,37.5C158,72.8,159.1,90.6,150.4,106.4z"/>
		<path class="st129" d="M150.6,105.8c-11.7,25.7-35.5,36.3-58.2,34.2c-26.8-2.5-46.6-30.3-44.2-61.9c2.5-32.1,31.3-53.6,59.5-51.6
			c20.7-1.1,40.9,14.8,47.7,37.6C157.8,72.5,159.1,90.1,150.6,105.8z"/>
		<path class="st130" d="M150.8,105.2c-11.4,25.6-35,36.6-57.7,34.7c-26.9-2.3-46.9-30-44.6-61.4c2.3-32,30.8-53.7,59-51.9
			c20.8-1.1,41.1,14.8,47.9,37.6C157.6,72.1,159,89.5,150.8,105.2z"/>
		<path class="st131" d="M151,104.6c-11,25.5-34.5,36.9-57.3,35.1c-27-2.1-47.2-29.6-45.1-61c2.1-32,30.3-53.8,58.5-52.1
			c21-1.1,41.3,14.8,48.1,37.7C157.4,71.8,159,89,151,104.6z"/>
		<path class="st132" d="M151.2,104c-10.7,25.4-33.9,37.2-56.8,35.5c-27.1-1.9-47.5-29.2-45.5-60.5c2-31.9,29.8-53.9,58.1-52.4
			c21.1-1.1,41.5,14.8,48.3,37.7C157.2,71.5,159,88.5,151.2,104z"/>
		<path class="st133" d="M151.4,103.3c-10.4,25.4-33.4,37.5-56.4,36c-27.1-1.7-47.8-28.8-46-60.1c1.8-31.8,29.4-54,57.6-52.7
			c21.3-1.1,41.7,14.9,48.5,37.8C157.1,71.1,158.9,87.9,151.4,103.3z"/>
		<path class="st134" d="M151.6,102.7c-10.1,25.3-32.9,37.8-55.9,36.4c-27.2-1.5-48.1-28.4-46.5-59.7c1.6-31.7,28.9-54.1,57.2-53
			c21.5-1.1,41.9,14.9,48.7,37.8C156.9,70.8,158.9,87.4,151.6,102.7z"/>
		<path class="st135" d="M151.8,102.1c-9.8,25.2-32.4,38.1-55.5,36.8c-27.3-1.3-48.4-28-46.9-59.2c1.4-31.6,28.4-54.3,56.7-53.2
			c21.6-1.1,42.1,14.9,48.9,37.9C156.7,70.4,158.9,86.9,151.8,102.1z"/>
		<path class="st136" d="M152,101.5c-9.4,25.1-31.9,38.3-55.1,37.3c-27.4-1.2-48.7-27.6-47.4-58.8c1.3-31.5,27.9-54.4,56.2-53.5
			c21.8-1.1,42.3,14.9,49.1,37.9C156.5,70.1,158.8,86.4,152,101.5z"/>
		<path class="st137" d="M152.2,100.9c-9.1,25.1-31.4,38.6-54.6,37.7c-27.5-1-48.9-27.3-47.9-58.3c1.1-31.5,27.4-54.5,55.8-53.8
			c22-1.1,42.5,14.9,49.3,38C156.3,69.8,158.8,85.8,152.2,100.9z"/>
		<path class="st138" d="M152.4,100.3c-8.8,25-30.8,38.9-54.2,38.2c-27.6-0.8-49.2-26.9-48.3-57.9c0.9-31.4,26.9-54.6,55.3-54
			c22.1-1.1,42.7,15,49.5,38C156.2,69.4,158.8,85.3,152.4,100.3z"/>
		<path class="st139" d="M152.6,99.7c-8.5,24.9-30.3,39.2-53.7,38.6c-27.6-0.6-49.5-26.5-48.8-57.5c0.7-31.3,26.5-54.7,54.9-54.3
			c22.3-1.2,42.9,15,49.7,38.1C156,69.1,158.7,84.8,152.6,99.7z"/>
		<path class="st140" d="M152.8,99c-8.2,24.8-29.8,39.5-53.3,39c-27.7-0.5-49.8-26.1-49.3-57c0.5-31.2,26-54.8,54.4-54.6
			c22.4-1.2,43.1,15,49.9,38.1C155.8,68.7,158.7,84.2,152.8,99z"/>
		<path class="st141" d="M153,98.4c-7.8,24.8-29.3,39.8-52.8,39.5c-27.8-0.3-50.1-25.7-49.7-56.6c0.4-31.1,25.5-54.9,53.9-54.8
			c22.6-1.2,43.3,15,50.1,38.2C155.6,68.4,158.7,83.7,153,98.4z"/>
		<path class="st142" d="M153.2,97.8c-7.5,24.7-28.8,40-52.4,39.9c-27.9-0.1-50.4-25.3-50.2-56.1c0.2-31,25-55.1,53.5-55.1
			c22.8-1.2,43.5,15,50.3,38.2C155.4,68.1,158.6,83.2,153.2,97.8z"/>
		<path class="st143" d="M153.4,97.2c-7.2,24.6-28.3,40.3-51.9,40.3c-28,0.1-50.7-25-50.7-55.7c0-31,24.5-55.2,53-55.4
			c22.9-1.2,43.7,15.1,50.5,38.2C155.3,67.7,158.6,82.6,153.4,97.2z"/>
		<path class="st144" d="M153.6,96.6c-6.9,24.5-27.8,40.6-51.5,40.8c-28.1,0.2-50.9-24.6-51.1-55.3c-0.1-30.9,24.1-55.3,52.5-55.7
			c23.1-1.2,43.9,15.1,50.7,38.3C155.1,67.4,158.6,82.1,153.6,96.6z"/>
		<path class="st145" d="M153.9,96c-6.6,24.5-27.2,40.9-51,41.2c-28.1,0.4-51.2-24.2-51.6-54.8C50.9,51.6,74.8,27,103.3,26.4
			c23.2-1.2,44.1,15.1,50.9,38.3C154.9,67,158.5,81.6,153.9,96z"/>
		<path class="st146" d="M154.1,95.3c-6.2,24.4-26.7,41.2-50.6,41.7c-28.2,0.6-51.5-23.8-52.1-54.4C50.9,51.9,74.5,27.1,103,26.4
			c23.4-1.2,44.3,15.1,51.1,38.4C154.7,66.7,158.5,81,154.1,95.3z"/>
		<path class="st147" d="M154.3,94.7c-5.9,24.3-26.2,41.5-50.1,42.1c-28.3,0.8-51.8-23.4-52.5-53.9c-0.7-30.6,22.6-55.6,51.2-56.5
			c23.6-1.2,44.5,15.1,51.3,38.4C154.5,66.4,158.5,80.5,154.3,94.7z"/>
		<path class="st148" d="M154.5,94.1c-5.6,24.2-25.7,41.7-49.7,42.5c-28.4,1-52.1-23-53-53.5c-0.8-30.6,22.1-55.7,50.7-56.7
			c23.7-1.2,44.7,15.2,51.5,38.5C154.4,66,158.4,80,154.5,94.1z"/>
		<path class="st149" d="M154.7,93.5c-5.3,24.2-25.2,42-49.2,43C77,137.6,53,113.8,52,83.4c-1-30.5,21.6-55.8,50.2-57
			c23.9-1.2,44.9,15.2,51.8,38.5C154.2,65.7,158.4,79.4,154.7,93.5z"/>
		<path class="st150" d="M154.9,92.9c-5,24.1-24.7,42.3-48.8,43.4c-28.6,1.3-52.7-22.3-53.9-52.6c-1.2-30.4,21.2-56,49.8-57.3
			c24-1.2,45.1,15.2,52,38.6C154,65.3,158.4,78.9,154.9,92.9z"/>
		<path class="st151" d="M155.1,92.3c-4.6,24-24.1,42.6-48.3,43.8c-28.6,1.5-53-21.9-54.4-52.2C50.9,53.6,73,27.9,101.7,26.4
			c24.2-1.3,45.3,15.2,52.2,38.6C153.8,65,158.3,78.4,155.1,92.3z"/>
	</g>
	<linearGradient id="SVGID_1_" gradientUnits="userSpaceOnUse" x1="68.6574" y1="151.0731" x2="135.1072" y2="8.5711">
		<stop  offset="0.4341" style="stop-color:#F19106"/>
		<stop  offset="1" style="stop-color:#F4CF8C"/>
	</linearGradient>
	<path class="st152" d="M101.9,159.6c-2.3,0-3.4-4-4.9-9.4c-0.9-3.3-1.9-6.5-2.7-7.5l-0.2-0.3l-0.3,0.2c-1,0.7-2.8,3.7-4.5,6.6
		c-2.8,4.8-4.6,7.7-6.5,7.7c-0.2,0-0.3,0-0.5-0.1c-2.2-0.6-2.3-4.7-2.4-10.4c-0.1-3.4-0.2-6.9-0.7-8l-0.2-0.3l-0.3,0.1
		c-1.1,0.4-3.6,2.8-5.9,5.2c-3.6,3.6-5.9,5.8-7.6,5.8c-0.4,0-0.7-0.1-1-0.3c-1.9-1.2-1-5.2,0.2-10.7c0.8-3.3,1.5-6.7,1.3-7.9
		l-0.1-0.4l-0.4,0c-1.5,0.2-4.4,1.8-7,3.3c-3.4,1.9-6.3,3.6-8.1,3.6c-0.8,0-1.3-0.3-1.6-0.6c-1.6-1.7,0.3-5.3,2.8-10.3
		c1.5-3,3.1-6.1,3.2-7.4l0-0.4l-0.4-0.1c-0.1,0-0.3,0-0.6,0c-1.6,0-4.3,0.7-6.9,1.4c-2.9,0.7-5.6,1.4-7.5,1.4c-0.5,0-2,0-2.7-1.2
		c-1.1-2,1.5-5,5.2-9.1c2.2-2.5,4.5-5.1,4.9-6.3l0.1-0.4l-0.3-0.2c-1.1-0.6-4.3-0.7-7.6-0.8c-5.4-0.2-9.3-0.3-9.9-2.6
		c-0.6-2.3,2.7-4.4,7.3-7.3c2.8-1.8,5.6-3.7,6.3-4.8l0.2-0.3l-0.3-0.2c-0.9-0.8-4-1.8-7.1-2.8c-5.2-1.6-8.9-2.8-8.9-5.2
		c0-2.4,3.7-3.6,8.9-5.2c3.1-1,6.2-2,7.1-2.8l0.3-0.2l-0.2-0.3c-0.7-1.1-3.5-2.9-6.3-4.8c-4.5-2.9-7.8-5.1-7.3-7.3
		c0.6-2.3,4.5-2.4,9.9-2.6c3.2-0.1,6.5-0.2,7.6-0.8l0.3-0.2l-0.1-0.4c-0.4-1.2-2.6-3.8-4.9-6.3c-3.7-4.1-6.3-7.1-5.2-9.1
		c0.6-1.2,2.2-1.2,2.7-1.2c1.9,0,4.6,0.7,7.4,1.4c2.6,0.7,5.3,1.4,7,1.4c0.3,0,0.4,0,0.6,0l0.4-0.1l0-0.4c-0.1-1.3-1.6-4.4-3.2-7.4
		c-2.6-5-4.4-8.6-2.8-10.3c0.3-0.3,0.7-0.6,1.6-0.6c1.8,0,4.7,1.7,8.1,3.6c2.6,1.5,5.6,3.2,7,3.3l0.4,0l0.1-0.4
		c0.2-1.3-0.5-4.6-1.3-8c-1.3-5.5-2.2-9.5-0.2-10.7c0.3-0.2,0.6-0.3,1-0.3c1.8,0,4.1,2.2,7.6,5.8c2.4,2.4,4.8,4.7,6,5.2l0.3,0.1
		l0.2-0.3c0.5-1.2,0.7-4.6,0.7-8c0.1-5.7,0.2-9.8,2.4-10.4c0.2,0,0.3-0.1,0.5-0.1c1.9,0,3.7,2.9,6.5,7.7c1.7,3,3.5,5.9,4.5,6.6
		l0.3,0.2l0.2-0.3c0.8-1,1.7-4.2,2.7-7.5C98.5,4,99.6,0,101.9,0s3.4,4,4.9,9.4c0.9,3.3,1.9,6.5,2.7,7.5l0.2,0.3L110,17
		c1-0.7,2.8-3.7,4.5-6.6c2.8-4.8,4.6-7.7,6.5-7.7c0.2,0,0.3,0,0.5,0.1c2.2,0.6,2.3,4.7,2.4,10.4c0.1,3.4,0.2,6.9,0.7,8l0.2,0.3
		l0.3-0.1c1.1-0.4,3.6-2.8,5.9-5.2c3.6-3.6,5.9-5.8,7.6-5.8c0.4,0,0.7,0.1,1,0.3c1.9,1.2,1,5.2-0.2,10.7c-0.8,3.3-1.5,6.7-1.3,7.9
		l0.1,0.4l0.4,0c1.5-0.2,4.4-1.9,7-3.3c3.4-1.9,6.3-3.6,8.1-3.6c0.8,0,1.3,0.3,1.6,0.6c1.6,1.7-0.3,5.3-2.8,10.2
		c-1.5,3-3.1,6.1-3.2,7.4l0,0.4l0.4,0.1c0.1,0,0.3,0,0.6,0c1.6,0,4.3-0.7,6.9-1.4c2.9-0.7,5.6-1.4,7.5-1.4c0.5,0,2,0,2.7,1.2
		c1.1,2-1.5,5-5.2,9.1c-2.2,2.5-4.5,5.1-4.9,6.3l-0.1,0.4l0.3,0.2c1.1,0.6,4.3,0.7,7.6,0.8c5.4,0.2,9.3,0.3,9.9,2.6
		c0.6,2.3-2.7,4.4-7.3,7.3c-2.8,1.8-5.6,3.7-6.3,4.8l-0.2,0.3l0.3,0.2c0.9,0.8,4,1.8,7.1,2.8c5.2,1.6,8.9,2.8,8.9,5.2
		c0,2.4-3.7,3.6-8.9,5.2c-3.1,1-6.2,2-7.1,2.8l-0.3,0.2l0.2,0.3c0.7,1.1,3.5,2.9,6.3,4.8c4.5,2.9,7.8,5.1,7.3,7.3
		c-0.6,2.3-4.5,2.4-9.9,2.6c-3.2,0.1-6.5,0.2-7.6,0.8L157,104l0.1,0.4c0.4,1.2,2.6,3.8,4.9,6.3c3.7,4.1,6.3,7.1,5.2,9.1
		c-0.6,1.2-2.2,1.2-2.7,1.2c-1.9,0-4.6-0.7-7.5-1.4c-2.6-0.7-5.3-1.4-7-1.4c-0.3,0-0.4,0-0.6,0l-0.4,0.1l0,0.4
		c0.1,1.3,1.6,4.3,3.2,7.4c2.6,5,4.4,8.6,2.8,10.3c-0.3,0.3-0.8,0.6-1.6,0.6c-1.8,0-4.8-1.7-8.1-3.6c-2.6-1.5-5.6-3.2-7-3.3l-0.4,0
		l-0.1,0.4c-0.2,1.3,0.5,4.6,1.3,8c1.3,5.5,2.2,9.5,0.2,10.7c-0.3,0.2-0.6,0.3-1,0.3c-1.8,0-4.1-2.2-7.6-5.8
		c-2.4-2.4-4.8-4.7-5.9-5.2l-0.3-0.1l-0.2,0.3c-0.5,1.2-0.7,4.6-0.7,8c-0.1,5.7-0.2,9.8-2.4,10.4c-0.2,0-0.3,0.1-0.5,0.1
		c-1.9,0-3.7-2.9-6.5-7.7c-1.7-3-3.5-5.9-4.5-6.6l-0.3-0.2l-0.2,0.3c-0.8,1-1.7,4.2-2.7,7.5C105.3,155.7,104.1,159.6,101.9,159.6z"
		/>
	<path class="st153" d="M176.3,79.8c0,3.1-15.9,5.1-16.2,8.1c-0.4,3.1,14.5,9.3,13.7,12.3c-0.8,3-16.6,0.6-17.7,3.4
		c-1.1,2.9,11.7,13,10.2,15.6c-1.5,2.7-16.1-4-17.9-1.6c-1.8,2.4,8.1,15.7,6.1,17.9c-2.1,2.2-14.6-8.3-16.9-6.4
		c-2.3,1.9,4,17.4,1.5,18.9c-2.5,1.5-12.1-12-14.8-10.8c-2.7,1.2-0.4,17.9-3.2,18.7c-2.8,0.8-8.7-14.9-11.6-14.5
		c-2.8,0.4-4.7,17.2-7.7,17.2c-2.9,0-4.8-16.8-7.7-17.2c-2.9-0.4-8.8,15.3-11.6,14.5c-2.8-0.8-0.5-17.5-3.2-18.7
		c-2.7-1.2-12.3,12.4-14.8,10.8c-2.5-1.5,3.8-17.1,1.5-18.9c-2.3-1.9-14.9,8.6-16.9,6.4c-2.1-2.2,7.8-15.4,6.1-17.9
		c-1.8-2.4-16.4,4.3-17.9,1.6c-1.4-2.6,11.3-12.8,10.2-15.6c-1.1-2.8-16.9-0.4-17.7-3.4c-0.7-2.9,14.1-9.2,13.7-12.3
		c-0.4-3-16.2-5-16.2-8.1c0-3.1,15.9-5.1,16.2-8.1c0.4-3.1-14.5-9.3-13.7-12.3c0.8-3,16.6-0.6,17.7-3.4c1.1-2.9-11.7-13-10.2-15.6
		c1.5-2.7,16.1,4,17.9,1.6c1.8-2.4-8.1-15.7-6.1-17.9c2.1-2.2,14.6,8.3,16.9,6.4c2.3-1.9-4-17.4-1.5-18.9c2.5-1.5,12.1,12,14.8,10.8
		c2.7-1.2,0.4-17.9,3.2-18.7c2.8-0.8,8.7,14.9,11.6,14.5c2.8-0.4,4.7-17.2,7.7-17.2c2.9,0,4.8,16.8,7.7,17.2
		c2.9,0.4,8.8-15.3,11.6-14.5c2.8,0.8,0.5,17.5,3.2,18.7c2.7,1.2,12.3-12.4,14.8-10.8c2.5,1.5-3.8,17.1-1.5,18.9
		c2.3,1.9,14.9-8.6,16.9-6.4c2.1,2.2-7.8,15.4-6.1,17.9c1.8,2.4,16.4-4.3,17.9-1.6c1.4,2.6-11.3,12.8-10.2,15.6
		c1.1,2.8,16.9,0.4,17.7,3.4c0.7,2.9-14.1,9.2-13.7,12.3C160.4,74.7,176.3,76.7,176.3,79.8z"/>
	<path class="st153" d="M101.9,138.4c-30.6,0-55.4-26.3-55.4-58.6c0-32.3,24.9-58.6,55.4-58.6c30.6,0,55.4,26.3,55.4,58.6
		C157.3,112.1,132.4,138.4,101.9,138.4z"/>
	<g>
		<g>
			<path class="st0" d="M138.7,70c11.2,39.4-4.4,71.1-34,84.2c-23.9,10.6-56-5.6-65.6-20.8c-11-17.4-11.1-46,5.5-72.7
				c18.3-29.5,61.7-27.8,79.2-12.4C123.8,48.2,134.3,56.7,138.7,70z"/>
			<path class="st1" d="M104.8,153.8c-23.8,10.7-55.7-5.4-65.4-20.5C28.4,116,28.2,87.5,44.7,60.8c18.2-29.4,61.3-27.9,78.9-12.6
				c0.1,0,10.6,8.5,15,21.8C149.8,109.2,134.2,140.7,104.8,153.8z"/>
			<path class="st2" d="M105,153.4c-23.7,10.7-55.4-5.2-65.2-20.2C28.7,116,28.5,87.6,44.8,61c18.1-29.4,61-28,78.6-12.8
				c0.2,0,10.8,8.5,15.2,21.8C149.6,108.9,134.2,140.3,105,153.4z"/>
			<path class="st3" d="M105.2,153C81.7,163.7,50,148,40.3,133.1c-11.2-17.1-11.6-45.4,4.7-72c17.9-29.3,60.7-28,78.3-13
				c0.3,0,10.9,8.5,15.3,21.9C149.5,108.7,134.2,139.9,105.2,153z"/>
			<path class="st4" d="M105.4,152.6c-23.4,10.8-54.9-4.7-64.7-19.5c-11.3-17-11.7-45.2,4.4-71.7c17.8-29.2,60.4-28.1,78-13.1
				c0.4,0,11,8.5,15.4,21.9C149.4,108.5,134.2,139.6,105.4,152.6z"/>
			<path class="st5" d="M105.6,152.2C82.3,163,50.9,147.7,41,133c-11.3-16.8-11.9-45,4.1-71.5c17.7-29.2,60.1-28.2,77.7-13.3
				c0.6,0,11.2,8.5,15.6,21.9C149.3,108.2,134.2,139.2,105.6,152.2z"/>
			<path class="st6" d="M105.7,151.8c-23.1,10.9-54.4-4.2-64.3-18.8c-11.4-16.7-12.1-44.8,3.8-71.3c17.6-29.1,59.8-28.3,77.4-13.5
				c0.7,0,11.3,8.5,15.7,22C149.1,108,134.2,138.8,105.7,151.8z"/>
			<path class="st7" d="M105.9,151.4c-23,10.9-54.1-4-64.1-18.5c-11.4-16.6-12.2-44.6,3.5-71c17.4-29.1,59.5-28.3,77.1-13.7
				c0.8,0,11.5,8.5,15.9,22C149,107.8,134.2,138.4,105.9,151.4z"/>
			<path class="st8" d="M106.1,150.9c-22.8,10.9-53.9-3.8-63.9-18.1C30.7,116.3,29.8,88.4,45.5,62c17.3-29,59.1-28.4,76.8-13.9
				c0.9,0,11.6,8.6,16,22C148.9,107.5,134.2,138,106.1,150.9z"/>
			<path class="st9" d="M106.3,150.5c-22.7,11-53.6-3.5-63.7-17.8c-11.6-16.3-12.6-44.2,3-70.5c17.2-29,58.8-28.5,76.5-14
				c1-0.1,11.7,8.6,16.1,22.1C148.8,107.3,134.2,137.6,106.3,150.5z"/>
			<path class="st10" d="M106.5,150.1c-22.6,11-53.4-3.3-63.4-17.5c-11.6-16.2-12.7-44,2.7-70.3c17-28.9,58.5-28.6,76.2-14.2
				c1.1-0.1,11.9,8.6,16.3,22.1C148.6,107.1,134.2,137.3,106.5,150.1z"/>
			<path class="st11" d="M106.6,149.7c-22.4,11.1-53.1-3.1-63.2-17.1c-11.7-16.1-12.9-43.8,2.4-70c16.9-28.9,58.2-28.6,75.9-14.4
				c1.2-0.1,12,8.6,16.4,22.1C148.5,106.8,134.2,136.9,106.6,149.7z"/>
			<path class="st12" d="M106.8,149.3c-22.3,11.1-52.8-2.9-63-16.8c-11.7-16-13.1-43.6,2.1-69.8c16.8-28.8,57.9-28.7,75.6-14.6
				c1.3-0.1,12.1,8.6,16.6,22.1C148.4,106.6,134.2,136.5,106.8,149.3z"/>
			<path class="st13" d="M107,148.9c-22.2,11.1-52.6-2.6-62.8-16.4C32.4,116.6,30.9,89.1,46,62.9c16.7-28.7,57.6-28.8,75.3-14.8
				c1.4-0.1,12.3,8.6,16.7,22.2C148.3,106.4,134.2,136.1,107,148.9z"/>
			<path class="st14" d="M107.2,148.5c-22,11.2-52.3-2.4-62.6-16.1c-11.9-15.7-13.4-43.2,1.5-69.3c16.5-28.7,57.3-28.8,75-14.9
				c1.5-0.1,12.4,8.6,16.8,22.2C148.1,106.1,134.2,135.7,107.2,148.5z"/>
			<path class="st15" d="M107.4,148.1c-21.9,11.2-52-2.2-62.4-15.8c-11.9-15.6-13.6-43,1.2-69.1c16.4-28.6,56.9-28.9,74.7-15.1
				c1.7-0.1,12.6,8.6,17,22.2C148,105.9,134.2,135.3,107.4,148.1z"/>
			<path class="st16" d="M107.5,147.7c-21.7,11.2-51.8-1.9-62.2-15.4c-12-15.5-13.8-42.8,1-68.8c16.3-28.6,56.6-29,74.4-15.3
				c1.8-0.1,12.7,8.7,17.1,22.3C147.9,105.7,134.2,135,107.5,147.7z"/>
			<path class="st17" d="M107.7,147.3c-21.6,11.3-51.5-1.7-62-15.1c-12-15.4-13.9-42.6,0.7-68.6c16.1-28.5,56.3-29.1,74.1-15.5
				c1.9-0.1,12.8,8.7,17.3,22.3C147.8,105.4,134.2,134.6,107.7,147.3z"/>
			<path class="st18" d="M107.9,146.9c-21.5,11.3-51.3-1.5-61.7-14.8C34.1,116.9,32,89.8,46.6,63.8c16-28.5,56-29.1,73.8-15.7
				c2-0.1,13,8.7,17.4,22.3C147.6,105.2,134.2,134.2,107.9,146.9z"/>
			<path class="st19" d="M108.1,146.5c-21.3,11.4-51-1.2-61.5-14.4C34.4,116.9,32.2,89.9,46.7,64c15.8-28.4,55.7-29.2,73.5-15.9
				c2.1-0.1,13.1,8.7,17.5,22.4C147.5,105,134.2,133.8,108.1,146.5z"/>
			<path class="st20" d="M108.3,146.1c-21.2,11.4-50.7-1-61.3-14.1c-12.2-15-14.5-42-0.2-67.8c15.7-28.4,55.4-29.3,73.2-16
				c2.2-0.1,13.2,8.7,17.7,22.4C147.4,104.7,134.2,133.4,108.3,146.1z"/>
			<path class="st21" d="M108.5,145.7c-21.1,11.4-50.5-0.8-61.1-13.7C35.1,117,32.7,90.2,46.9,64.3C62.4,36,101.9,35,119.8,48.1
				c2.3-0.1,13.4,8.7,17.8,22.4C147.3,104.5,134.2,133,108.5,145.7z"/>
			<path class="st22" d="M108.6,145.3c-20.9,11.5-50.2-0.5-60.9-13.4C35.4,117.1,32.9,90.3,47,64.5c15.4-28.3,54.8-29.4,72.6-16.4
				c2.4-0.1,13.5,8.7,18,22.5C147.1,104.3,134.2,132.7,108.6,145.3z"/>
			<path class="st23" d="M108.8,144.9c-20.8,11.5-50-0.3-60.7-13.1c-12.4-14.6-15-41.4-1-67.1c15.3-28.2,54.4-29.5,72.3-16.6
				c2.5-0.1,13.7,8.8,18.1,22.5C147,104,134.2,132.3,108.8,144.9z"/>
			<path class="st24" d="M109,144.4c-20.6,11.6-49.7-0.1-60.5-12.7c-12.4-14.5-15.2-41.2-1.3-66.9c15.2-28.2,54.1-29.6,72-16.8
				c2.7-0.1,13.8,8.8,18.2,22.5C146.9,103.8,134.2,131.9,109,144.4z"/>
			<path class="st25" d="M109.2,144c-20.5,11.6-49.4,0.1-60.2-12.4c-12.5-14.4-15.4-41-1.6-66.6c15-28.1,53.8-29.6,71.7-16.9
				c2.8-0.1,13.9,8.8,18.4,22.6C146.8,103.6,134.2,131.5,109.2,144z"/>
			<path class="st26" d="M109.4,143.6c-20.4,11.6-49.2,0.4-60-12c-12.5-14.3-15.5-40.7-1.9-66.4c14.9-28,53.5-29.7,71.4-17.1
				c2.9-0.1,14.1,8.8,18.5,22.6C146.6,103.3,134.2,131.1,109.4,143.6z"/>
			<path class="st27" d="M109.5,143.2c-20.2,11.7-48.9,0.6-59.8-11.7C37.1,117.3,34,91,47.5,65.4c14.8-28,53.2-29.8,71.1-17.3
				c3-0.2,14.2,8.8,18.7,22.6C146.5,103.1,134.2,130.8,109.5,143.2z"/>
			<path class="st28" d="M109.7,142.8c-20.1,11.7-48.6,0.8-59.6-11.4c-12.6-14.1-15.9-40.3-2.5-65.9c14.7-27.9,52.9-29.8,70.8-17.5
				c3.1-0.2,14.3,8.8,18.8,22.7C146.4,102.9,134.2,130.4,109.7,142.8z"/>
			<path class="st29" d="M109.9,142.4c-20,11.8-48.4,1.1-59.4-11c-12.7-13.9-16-40.1-2.8-65.7c14.5-27.9,52.6-29.9,70.5-17.7
				c3.2-0.2,14.5,8.8,18.9,22.7C146.3,102.6,134.2,130,109.9,142.4z"/>
			<path class="st30" d="M110.1,142c-19.8,11.8-48.1,1.3-59.2-10.7c-12.7-13.8-16.2-39.9-3-65.4c14.4-27.8,52.2-30,70.2-17.8
				c3.3-0.2,14.6,8.9,19.1,22.7C146.1,102.4,134.2,129.6,110.1,142z"/>
			<path class="st31" d="M110.3,141.6c-19.7,11.8-47.9,1.5-59-10.4C38.5,117.6,34.9,91.5,48,66.1c14.3-27.8,51.9-30.1,69.9-18
				c3.4-0.2,14.8,8.9,19.2,22.8C146,102.2,134.2,129.2,110.3,141.6z"/>
			<path class="st32" d="M110.4,141.2c-19.5,11.9-47.6,1.8-58.8-10c-12.9-13.6-16.6-39.5-3.6-64.9c14.1-27.7,51.6-30.1,69.6-18.2
				c3.5-0.2,14.9,8.9,19.4,22.8C145.9,101.9,134.2,128.8,110.4,141.2z"/>
			<path class="st33" d="M110.6,140.8c-19.4,11.9-47.3,2-58.5-9.7c-12.9-13.4-16.7-39.3-3.9-64.7c14-27.7,51.3-30.2,69.3-18.4
				c3.6-0.2,15,8.9,19.5,22.8C145.8,101.7,134.2,128.5,110.6,140.8z"/>
			<path class="st34" d="M110.8,140.4c-19.3,12-47.1,2.2-58.3-9.3c-13-13.3-16.9-39.1-4.2-64.4c13.9-27.6,51-30.3,69-18.6
				c3.8-0.2,15.2,8.9,19.6,22.9C145.6,101.5,134.2,128.1,110.8,140.4z"/>
			<path class="st35" d="M111,140c-19.1,12-46.8,2.4-58.1-9c-13-13.2-17.1-38.9-4.5-64.2C62.1,39.2,99.1,36.4,117.1,48
				c3.9-0.2,15.3,8.9,19.8,22.9C145.5,101.2,134.2,127.7,111,140z"/>
			<path class="st36" d="M111.2,139.6c-19,12-46.6,2.7-57.9-8.7C40.2,117.8,36,92.2,48.5,67C62.1,39.5,98.9,36.5,116.9,48
				c4-0.2,15.4,8.9,19.9,22.9C145.4,101,134.2,127.3,111.2,139.6z"/>
			<path class="st37" d="M111.3,139.2c-18.9,12.1-46.3,2.9-57.7-8.3c-13.1-13-17.4-38.5-5-63.7c13.5-27.4,50-30.5,68.1-19.1
				c4.1-0.2,15.6,8.9,20.1,23C145.3,100.8,134.2,126.9,111.3,139.2z"/>
			<path class="st38" d="M111.5,138.8c-18.7,12.1-46,3.1-57.5-8c-13.2-12.8-17.6-38.3-5.3-63.5C62.1,39.9,98.5,36.7,116.5,48
				c4.2-0.2,15.7,9,20.2,23C145.1,100.5,134.2,126.5,111.5,138.8z"/>
			<path class="st39" d="M111.7,138.4c-18.6,12.2-45.8,3.4-57.3-7.6C41.2,118,36.7,92.6,48.8,67.5C62.1,40.2,98.3,36.8,116.4,48
				c4.3-0.2,15.9,9,20.3,23C145,100.3,134.2,126.2,111.7,138.4z"/>
			<path class="st40" d="M111.9,138c-18.4,12.2-45.5,3.6-57-7.3c-13.3-12.6-17.9-37.9-5.9-63C62,40.4,98.1,36.9,116.2,48
				c4.4-0.2,16,9,20.5,23.1C144.9,100,134.2,125.8,111.9,138z"/>
			<path class="st41" d="M112.1,137.5c-18.3,12.2-45.2,3.8-56.8-7c-13.4-12.5-18.1-37.7-6.2-62.7C62,40.6,97.8,37.1,116,48
				c4.5-0.2,16.1,9,20.6,23.1C144.8,99.8,134.2,125.4,112.1,137.5z"/>
			<path class="st42" d="M112.2,137.1c-18.2,12.3-45,4.1-56.6-6.6C42.2,118.2,37.4,93,49.2,68C62,40.9,97.6,37.2,115.8,48
				c4.6-0.2,16.3,9,20.8,23.1C144.6,99.6,134.2,125,112.2,137.1z"/>
			<path class="st43" d="M112.4,136.7c-18,12.3-44.7,4.3-56.4-6.3c-13.5-12.2-18.4-37.3-6.7-62.3C62,41.1,97.4,37.3,115.6,48
				c4.8-0.2,16.4,9,20.9,23.2C144.5,99.3,134.2,124.6,112.4,136.7z"/>
			<path class="st44" d="M112.6,136.3c-17.9,12.4-44.5,4.5-56.2-6c-13.5-12.1-18.6-37.1-7-62c12.6-27,47.8-31,66-20.4
				c4.9-0.3,16.5,9,21,23.2C144.4,99.1,134.2,124.2,112.6,136.3z"/>
			<path class="st45" d="M112.8,135.9c-17.8,12.4-44.2,4.8-56-5.6c-13.6-12-18.8-36.9-7.3-61.8C61.9,41.5,97,37.5,115.2,48
				c5-0.3,16.7,9.1,21.2,23.2C144.3,98.9,134.2,123.9,112.8,135.9z"/>
			<path class="st46" d="M113,135.5c-17.6,12.4-43.9,5-55.8-5.3c-13.7-11.9-19-36.7-7.6-61.5C61.9,41.8,96.8,37.6,115,48
				c5.1-0.3,16.8,9.1,21.3,23.3C144.2,98.6,134.2,123.5,113,135.5z"/>
			<path class="st47" d="M113.1,135.1c-17.5,12.5-43.7,5.2-55.6-4.9c-13.7-11.7-19.1-36.5-7.9-61.3C61.9,42,96.6,37.7,114.8,48
				c5.2-0.3,17,9.1,21.5,23.3C144,98.4,134.2,123.1,113.1,135.1z"/>
			<path class="st48" d="M113.3,134.7c-17.3,12.5-43.4,5.5-55.3-4.6c-13.8-11.6-19.3-36.3-8.2-61c12-26.8,46.6-31.3,64.8-21.1
				c5.3-0.3,17.1,9.1,21.6,23.3C143.9,98.2,134.2,122.7,113.3,134.7z"/>
			<path class="st49" d="M113.5,134.3c-17.2,12.5-43.2,5.7-55.1-4.3C44.6,118.5,38.9,94,49.9,69.2C61.8,42.5,96.2,37.9,114.5,48
				c5.4-0.3,17.2,9.1,21.7,23.3C143.8,97.9,134.2,122.3,113.5,134.3z"/>
			<path class="st50" d="M113.7,133.9c-17.1,12.6-42.9,5.9-54.9-3.9C44.9,118.6,39.1,94.1,50,69.4C61.8,42.7,96,38,114.3,48
				c5.5-0.3,17.4,9.1,21.9,23.4C143.7,97.7,134.2,121.9,113.7,133.9z"/>
			<path class="st51" d="M113.9,133.5c-16.9,12.6-42.6,6.1-54.7-3.6c-13.9-11.3-19.8-35.6-9-60.3C61.8,42.9,95.8,38.1,114.1,48
				c5.6-0.3,17.5,9.1,22,23.4C143.5,97.5,134.2,121.6,113.9,133.5z"/>
			<path class="st52" d="M114,133.1c-16.8,12.7-42.4,6.4-54.5-3.2c-14-11.1-20-35.4-9.3-60.1c11.5-26.6,45.3-31.6,63.6-21.8
				c5.7-0.3,17.6,9.2,22.2,23.4C143.4,97.2,134.2,121.2,114,133.1z"/>
			<path class="st53" d="M114.2,132.7c-16.7,12.7-42.1,6.6-54.3-2.9c-14.1-11-20.2-35.2-9.6-59.8c11.4-26.5,45-31.6,63.3-22
				c5.9-0.3,17.8,9.2,22.3,23.5C143.3,97,134.2,120.8,114.2,132.7z"/>
			<path class="st54" d="M114.4,132.3c-16.5,12.7-41.9,6.8-54.1-2.6c-14.1-10.9-20.3-35-9.9-59.6c11.3-26.5,44.7-31.7,63-22.2
				c6-0.3,17.9,9.2,22.4,23.5C143.2,96.8,134.2,120.4,114.4,132.3z"/>
			<path class="st55" d="M114.6,131.9c-16.4,12.8-41.6,7.1-53.8-2.2c-14.2-10.8-20.5-34.8-10.2-59.3C61.7,43.9,95,38.5,113.3,47.9
				c6.1-0.3,18.1,9.2,22.6,23.5C143,96.5,134.2,120,114.6,131.9z"/>
			<path class="st56" d="M114.8,131.5c-16.2,12.8-41.3,7.3-53.6-1.9c-14.2-10.7-20.7-34.6-10.4-59.1c11-26.4,44.1-31.9,62.4-22.5
				c6.2-0.3,18.2,9.2,22.7,23.6C142.9,96.3,134.2,119.6,114.8,131.5z"/>
			<path class="st57" d="M115,131.1c-16.1,12.9-41.1,7.5-53.4-1.6C47.2,119,40.7,95.1,50.8,70.6c10.9-26.3,43.8-31.9,62.1-22.7
				c6.3-0.3,18.3,9.2,22.9,23.6C142.8,96.1,134.2,119.3,115,131.1z"/>
			<path class="st58" d="M115.1,130.6c-16,12.9-40.8,7.8-53.2-1.2c-14.4-10.4-21-34.2-11-58.6c10.7-26.3,43.5-32,61.8-22.9
				c6.4-0.3,18.5,9.2,23,23.6C142.7,95.8,134.2,118.9,115.1,130.6z"/>
			<path class="st59" d="M115.3,130.2c-15.8,12.9-40.6,8-53-0.9C47.9,119.1,41.1,95.4,51,71c10.6-26.2,43.1-32.1,61.5-23.1
				c6.5-0.3,18.6,9.2,23.1,23.7C142.5,95.6,134.2,118.5,115.3,130.2z"/>
			<path class="st60" d="M115.5,129.8c-15.7,13-40.3,8.2-52.8-0.5c-14.5-10.2-21.4-33.8-11.6-58.1C61.6,45,94,39,112.4,47.9
				c6.6-0.3,18.7,9.3,23.3,23.7C142.4,95.4,134.2,118.1,115.5,129.8z"/>
			<path class="st61" d="M115.7,129.4c-15.6,13-40,8.5-52.6-0.2c-14.5-10-21.5-33.6-11.9-57.9c10.4-26.1,42.5-32.2,60.9-23.4
				c6.7-0.4,18.9,9.3,23.4,23.7C142.3,95.1,134.2,117.7,115.7,129.4z"/>
			<path class="st62" d="M115.9,129c-15.4,13.1-39.8,8.7-52.3,0.1c-14.6-9.9-21.7-33.4-12.2-57.6c10.2-26,42.2-32.3,60.6-23.6
				c6.9-0.4,19,9.3,23.6,23.8C142.2,94.9,134.2,117.4,115.9,129z"/>
			<path class="st63" d="M116,128.6c-15.3,13.1-39.5,8.9-52.1,0.5C49.3,119.3,42,95.9,51.5,71.7c10.1-26,41.9-32.4,60.3-23.8
				c7-0.4,19.2,9.3,23.7,23.8C142,94.7,134.2,117,116,128.6z"/>
			<path class="st64" d="M116.2,128.2c-15.1,13.1-39.3,9.2-51.9,0.8c-14.7-9.7-22-33-12.7-57.2c10-25.9,41.6-32.4,60-24
				c7.1-0.4,19.3,9.3,23.8,23.8C141.9,94.4,134.2,116.6,116.2,128.2z"/>
			<path class="st65" d="M116.4,127.8c-15,13.2-39,9.4-51.7,1.1c-14.8-9.6-22.2-32.8-13-56.9c9.8-25.9,41.3-32.5,59.7-24.2
				c7.2-0.4,19.4,9.3,24,23.9C141.8,94.2,134.2,116.2,116.4,127.8z"/>
			<path class="st66" d="M116.6,127.4c-14.9,13.2-38.7,9.6-51.5,1.5c-14.8-9.4-22.4-32.6-13.3-56.7c9.7-25.8,40.9-32.6,59.4-24.3
				c7.3-0.4,19.6,9.3,24.1,23.9C141.7,94,134.2,115.8,116.6,127.4z"/>
			<path class="st67" d="M116.8,127c-14.7,13.3-38.5,9.8-51.3,1.8c-14.9-9.3-22.5-32.4-13.6-56.4c9.6-25.7,40.6-32.7,59.1-24.5
				c7.4-0.4,19.7,9.4,24.3,23.9C141.5,93.7,134.2,115.4,116.8,127z"/>
			<path class="st68" d="M116.9,126.6c-14.6,13.3-38.2,10.1-51.1,2.2C50.9,119.6,43.2,96.6,52,72.6c9.5-25.7,40.3-32.7,58.8-24.7
				c7.5-0.4,19.9,9.4,24.4,24C141.4,93.5,134.2,115.1,116.9,126.6z"/>
			<path class="st69" d="M117.1,126.2c-14.5,13.3-38,10.3-50.9,2.5c-15-9.1-22.9-32-14.2-55.9c9.3-25.6,40-32.8,58.5-24.9
				c7.6-0.4,20,9.4,24.5,24C141.3,93.3,134.2,114.7,117.1,126.2z"/>
			<path class="st70" d="M117.3,125.8c-14.3,13.4-37.7,10.5-50.6,2.8c-15-9-23.1-31.8-14.4-55.7c9.2-25.6,39.7-32.9,58.2-25.1
				c7.7-0.4,20.1,9.4,24.7,24C141.2,93,134.2,114.3,117.3,125.8z"/>
			<path class="st71" d="M117.5,125.4c-14.2,13.4-37.4,10.8-50.4,3.2C51.9,119.7,43.8,97,52.3,73.1c9.1-25.5,39.4-32.9,57.9-25.3
				c7.9-0.4,20.3,9.4,24.8,24.1C141,92.8,134.2,113.9,117.5,125.4z"/>
			<path class="st72" d="M117.7,125c-14,13.5-37.2,11-50.2,3.5c-15.2-8.7-23.4-31.3-15-55.2c8.9-25.5,39.1-33,57.6-25.4
				c8-0.4,20.4,9.4,25,24.1C140.9,92.6,134.2,113.5,117.7,125z"/>
			<path class="st73" d="M117.8,124.6c-13.9,13.5-36.9,11.2-50,3.9c-15.2-8.6-23.6-31.1-15.3-55c8.8-25.4,38.7-33.1,57.3-25.6
				c8.1-0.4,20.5,9.4,25.1,24.1C140.8,92.3,134.2,113.1,117.8,124.6z"/>
			<path class="st74" d="M118,124.1c-13.8,13.5-36.7,11.5-49.8,4.2C53,119.9,44.5,97.4,52.6,73.6c8.7-25.3,38.4-33.2,57-25.8
				c8.2-0.4,20.7,9.4,25.2,24.2C140.7,92.1,134.2,112.8,118,124.1z"/>
			<path class="st75" d="M118.2,123.7c-13.6,13.6-36.4,11.7-49.6,4.5c-15.3-8.3-23.9-30.7-15.9-54.5c8.6-25.3,38.1-33.2,56.8-26
				c8.3-0.4,20.8,9.5,25.4,24.2C140.5,91.9,134.2,112.4,118.2,123.7z"/>
			<path class="st76" d="M118.4,123.3c-13.5,13.6-36.1,11.9-49.4,4.9C53.6,120,44.9,97.7,52.9,74c8.4-25.2,37.8-33.3,56.5-26.2
				c8.4-0.4,21,9.5,25.5,24.2C140.4,91.6,134.2,112,118.4,123.3z"/>
			<path class="st77" d="M118.6,122.9c-13.4,13.6-35.9,12.2-49.1,5.2C54,120,45.2,97.8,53,74.1c8.3-25.2,37.5-33.4,56.2-26.3
				c8.5-0.4,21.1,9.5,25.6,24.3C140.3,91.4,134.2,111.6,118.6,122.9z"/>
			<path class="st78" d="M118.7,122.5c-13.2,13.7-35.6,12.4-48.9,5.5c-15.5-8-24.4-30.1-16.7-53.7c8.2-25.1,37.2-33.4,55.9-26.5
				c8.6-0.4,21.2,9.5,25.8,24.3C140.2,91.2,134.2,111.2,118.7,122.5z"/>
			<path class="st79" d="M118.9,122.1c-13.1,13.7-35.4,12.6-48.7,5.9c-15.6-7.9-24.6-29.9-17-53.5c8-25.1,36.9-33.5,55.6-26.7
				c8.7-0.5,21.4,9.5,25.9,24.3C140,90.9,134.2,110.8,118.9,122.1z"/>
			<path class="st80" d="M119.1,121.7c-12.9,13.8-35.1,12.9-48.5,6.2C55,120.2,45.8,98.2,53.3,74.7c7.9-25,36.5-33.6,55.3-26.9
				c8.8-0.5,21.5,9.5,26.1,24.4C139.9,90.7,134.2,110.5,119.1,121.7z"/>
			<path class="st81" d="M119.3,121.3c-12.8,13.8-34.8,13.1-48.3,6.6c-15.7-7.6-24.9-29.5-17.6-53c7.8-24.9,36.2-33.7,55-27.1
				c9-0.5,21.6,9.5,26.2,24.4C139.8,90.5,134.2,110.1,119.3,121.3z"/>
			<path class="st82" d="M119.5,120.9c-12.7,13.8-34.6,13.3-48.1,6.9C55.6,120.3,46.3,98.5,53.5,75c7.7-24.9,35.9-33.7,54.7-27.2
				c9.1-0.5,21.8,9.6,26.3,24.4C139.7,90.2,134.2,109.7,119.5,120.9z"/>
			<path class="st83" d="M119.6,120.5c-12.5,13.9-34.3,13.6-47.9,7.2C56,120.4,46.5,98.7,53.6,75.2c7.5-24.8,35.6-33.8,54.4-27.4
				c9.2-0.5,21.9,9.6,26.5,24.4C139.5,90,134.2,109.3,119.6,120.5z"/>
			<path class="st84" d="M119.8,120.1c-12.4,13.9-34.1,13.8-47.7,7.6c-15.9-7.2-25.4-28.9-18.4-52.3c7.4-24.8,35.3-33.9,54.1-27.6
				c9.3-0.5,22.1,9.6,26.6,24.5C139.4,89.8,134.2,108.9,119.8,120.1z"/>
			<path class="st85" d="M120,119.7c-12.3,14-33.8,14-47.4,7.9c-15.9-7.1-25.6-28.7-18.7-52c7.3-24.7,35-33.9,53.8-27.8
				c9.4-0.5,22.2,9.6,26.8,24.5C139.3,89.5,134.2,108.5,120,119.7z"/>
			<path class="st86" d="M120.2,119.3c-12.1,14-33.5,14.2-47.2,8.3c-16-7-25.8-28.5-19-51.8c7.1-24.7,34.7-34,53.5-28
				c9.5-0.5,22.3,9.6,26.9,24.5C139.2,89.3,134.2,108.2,120.2,119.3z"/>
			<path class="st87" d="M120.4,118.9c-12,14-33.3,14.5-47,8.6c-16-6.9-25.9-28.3-19.3-51.6c7-24.6,34.4-34.1,53.2-28.1
				c9.6-0.5,22.5,9.6,27,24.6C139,89,134.2,107.8,120.4,118.9z"/>
			<path class="st88" d="M120.5,118.5c-11.8,14.1-33,14.7-46.8,8.9c-16.1-6.8-26.1-28.1-19.6-51.3c6.9-24.5,34-34.2,52.9-28.3
				c9.7-0.5,22.6,9.6,27.2,24.6C138.9,88.8,134.2,107.4,120.5,118.5z"/>
			<path class="st89" d="M120.7,118.1C109,132.2,88,133,74.1,127.3C58,120.7,47.9,99.5,54.3,76.3C61,51.8,88,42,106.8,47.7
				c9.8-0.5,22.7,9.7,27.3,24.6C138.8,88.6,134.2,107,120.7,118.1z"/>
			<path class="st90" d="M120.9,117.7c-11.6,14.2-32.5,15.2-46.4,9.6c-16.2-6.5-26.4-27.6-20.1-50.8C61,52,87.8,42.1,106.7,47.7
				c10-0.5,22.9,9.7,27.5,24.7C138.7,88.3,134.2,106.6,120.9,117.7z"/>
			<path class="st91" d="M121.1,117.2c-11.4,14.2-32.2,15.4-46.2,9.9c-16.3-6.4-26.6-27.4-20.4-50.6c6.5-24.4,33.1-34.4,52-28.9
				c10.1-0.5,23,9.7,27.6,24.7C138.5,88.1,134.2,106.2,121.1,117.2z"/>
			<path class="st92" d="M121.3,116.8c-11.3,14.2-32,15.6-45.9,10.3C59,120.9,48.5,99.9,54.6,76.8c6.4-24.3,32.8-34.4,51.7-29
				c10.2-0.5,23.2,9.7,27.7,24.7C138.4,87.9,134.2,105.9,121.3,116.8z"/>
			<path class="st93" d="M121.4,116.4c-11.2,14.3-31.7,15.9-45.7,10.6c-16.4-6.1-27-27-21-50.1c6.3-24.2,32.5-34.5,51.4-29.2
				c10.3-0.5,23.3,9.7,27.9,24.8C138.3,87.6,134.2,105.5,121.4,116.4z"/>
			<path class="st94" d="M121.6,116c-11,14.3-31.5,16.1-45.5,11c-16.4-6-27.1-26.8-21.3-49.9C61,52.9,87,42.5,105.9,47.7
				c10.4-0.5,23.4,9.7,28,24.8C138.2,87.4,134.2,105.1,121.6,116z"/>
			<path class="st95" d="M121.8,115.6C110.9,130,90.6,132,76.5,126.9C60,121,49.2,100.3,54.9,77.3c6-24.1,31.8-34.7,50.8-29.6
				c10.5-0.5,23.6,9.7,28.2,24.8C138,87.2,134.2,104.7,121.8,115.6z"/>
			<path class="st96" d="M122,115.2c-10.8,14.4-30.9,16.6-45.1,11.6c-16.6-5.8-27.5-26.4-21.9-49.4c5.9-24.1,31.5-34.7,50.5-29.8
				c10.6-0.6,23.7,9.7,28.3,24.9C137.9,86.9,134.2,104.3,122,115.2z"/>
			<path class="st97" d="M122.2,114.8c-10.6,14.4-30.7,16.8-44.9,12c-16.6-5.7-27.6-26.2-22.1-49.1c5.7-24,31.2-34.8,50.2-30
				c10.7-0.6,23.8,9.8,28.4,24.9C137.8,86.7,134.2,104,122.2,114.8z"/>
			<path class="st98" d="M122.4,114.4c-10.5,14.5-30.4,17-44.7,12.3c-16.7-5.5-27.8-26-22.4-48.9c5.6-24,30.9-34.9,49.9-30.1
				c10.8-0.6,24,9.8,28.6,24.9C137.7,86.5,134.2,103.6,122.4,114.4z"/>
			<path class="st99" d="M122.5,114c-10.3,14.5-30.2,17.3-44.5,12.7c-16.7-5.4-28-25.8-22.7-48.6c5.5-23.9,30.6-35,49.6-30.3
				c10.9-0.6,24.1,9.8,28.7,25C137.5,86.2,134.2,103.2,122.5,114z"/>
			<path class="st100" d="M122.7,113.6c-10.2,14.6-29.9,17.5-44.2,13c-16.8-5.3-28.1-25.6-23-48.4c5.4-23.8,30.3-35,49.3-30.5
				c11.1-0.6,24.3,9.8,28.9,25C137.4,86,134.2,102.8,122.7,113.6z"/>
			<path class="st101" d="M122.9,113.2c-10.1,14.6-29.7,17.7-44,13.3c-16.9-5.2-28.3-25.4-23.3-48.2c5.2-23.8,30-35.1,49-30.7
				c11.2-0.6,24.4,9.8,29,25C137.3,85.8,134.2,102.4,122.9,113.2z"/>
			<path class="st102" d="M123.1,112.8c-9.9,14.6-29.4,18-43.8,13.7c-16.9-5-28.5-25.2-23.6-47.9c5.1-23.7,29.6-35.2,48.7-30.9
				c11.3-0.6,24.5,9.8,29.1,25.1C137.2,85.5,134.2,102,123.1,112.8z"/>
			<path class="st103" d="M123.3,112.4c-9.8,14.7-29.1,18.2-43.6,14c-17-4.9-28.6-25-23.9-47.7c5-23.7,29.3-35.2,48.4-31
				c11.4-0.6,24.7,9.8,29.3,25.1C137,85.3,134.2,101.7,123.3,112.4z"/>
			<path class="st104" d="M123.4,112c-9.7,14.7-28.9,18.4-43.4,14.3c-17-4.8-28.8-24.8-24.1-47.4c4.9-23.6,29-35.3,48.1-31.2
				c11.5-0.6,24.8,9.9,29.4,25.1C136.9,85.1,134.2,101.3,123.4,112z"/>
			<path class="st105" d="M123.6,111.6c-9.5,14.8-28.6,18.7-43.2,14.7c-17.1-4.7-29-24.6-24.4-47.2c4.7-23.6,28.7-35.4,47.8-31.4
				c11.6-0.6,24.9,9.9,29.6,25.2C136.8,84.8,134.2,100.9,123.6,111.6z"/>
			<path class="st106" d="M123.8,111.2c-9.4,14.8-28.4,18.9-43,15c-17.1-4.5-29.1-24.3-24.7-46.9c4.6-23.5,28.4-35.5,47.5-31.6
				c11.7-0.6,25.1,9.9,29.7,25.2C136.7,84.6,134.2,100.5,123.8,111.2z"/>
			<path class="st107" d="M124,110.7c-9.2,14.8-28.1,19.1-42.7,15.4c-17.2-4.4-29.3-24.1-25-46.7c4.5-23.4,28.1-35.5,47.2-31.8
				c11.8-0.6,25.2,9.9,29.8,25.2C136.5,84.4,134.2,100.1,124,110.7z"/>
			<path class="st108" d="M124.2,110.3c-9.1,14.9-27.8,19.4-42.5,15.7c-17.3-4.3-29.5-23.9-25.3-46.5c4.4-23.4,27.8-35.6,46.9-31.9
				c11.9-0.6,25.4,9.9,30,25.3C136.4,84.1,134.2,99.7,124.2,110.3z"/>
			<path class="st109" d="M124.3,109.9c-9,14.9-27.6,19.6-42.3,16c-17.3-4.2-29.6-23.7-25.6-46.2c4.2-23.3,27.4-35.7,46.6-32.1
				c12.1-0.6,25.5,9.9,30.1,25.3C136.3,83.9,134.2,99.4,124.3,109.9z"/>
			<path class="st110" d="M124.5,109.5c-8.8,14.9-27.3,19.8-42.1,16.4c-17.4-4.1-29.8-23.5-25.8-46c4.1-23.3,27.1-35.7,46.3-32.3
				C115,47,128.5,57.6,133.1,73C136.2,83.7,134.2,99,124.5,109.5z"/>
			<path class="st111" d="M124.7,109.1c-8.7,15-27.1,20.1-41.9,16.7c-17.4-3.9-30-23.3-26.1-45.7c4-23.2,26.8-35.8,46-32.5
				c12.3-0.6,25.8,10,30.4,25.4C136,83.4,134.2,98.6,124.7,109.1z"/>
			<path class="st112" d="M124.9,108.7c-8.6,15-26.8,20.3-41.7,17.1c-17.5-3.8-30.1-23.1-26.4-45.5c3.9-23.2,26.5-35.9,45.7-32.7
				c12.4-0.6,25.9,10,30.5,25.4C135.9,83.2,134.2,98.2,124.9,108.7z"/>
			<path class="st113" d="M125.1,108.3c-8.4,15.1-26.5,20.5-41.5,17.4C66,122,53.3,102.8,56.9,80.5c3.7-23.1,26.2-36,45.4-32.8
				c12.5-0.6,26,10,30.7,25.4C135.8,83,134.2,97.8,125.1,108.3z"/>
			<path class="st114" d="M125.2,107.9C117,123,99,128.7,84,125.6c-17.6-3.6-30.5-22.7-27-45c3.6-23,25.9-36,45.1-33
				c12.6-0.7,26.2,10,30.8,25.5C135.7,82.7,134.2,97.4,125.2,107.9z"/>
			<path class="st115" d="M125.4,107.5c-8.1,15.1-26,21-41,18.1c-17.7-3.4-30.6-22.5-27.3-44.8c3.5-23,25.6-36.1,44.8-33.2
				c12.7-0.7,26.3,10,31,25.5C135.5,82.5,134.2,97.1,125.4,107.5z"/>
			<path class="st116" d="M125.6,107.1c-8,15.2-25.8,21.2-40.8,18.4C67,122.2,54,103.2,57.2,81c3.3-22.9,25.2-36.2,44.5-33.4
				c12.8-0.7,26.5,10,31.1,25.5C135.4,82.3,134.2,96.7,125.6,107.1z"/>
			<path class="st117" d="M125.8,106.7c-7.9,15.2-25.5,21.5-40.6,18.7c-17.8-3.2-31-22.1-27.8-44.3c3.2-22.9,24.9-36.2,44.2-33.6
				c12.9-0.7,26.6,10,31.2,25.6C135.3,82,134.2,96.3,125.8,106.7z"/>
			<path class="st118" d="M126,106.3c-7.7,15.3-25.2,21.7-40.4,19.1c-17.9-3.1-31.1-21.9-28.1-44c3.1-22.8,24.6-36.3,43.9-33.8
				c13-0.7,26.7,10,31.4,25.6C135.2,81.8,134.2,95.9,126,106.3z"/>
			<path class="st119" d="M126.1,105.9c-7.6,15.3-25,21.9-40.2,19.4c-17.9-2.9-31.3-21.7-28.4-43.8c3-22.7,24.3-36.4,43.6-33.9
				c13.2-0.7,26.9,10.1,31.5,25.6C135,81.6,134.2,95.5,126.1,105.9z"/>
			<path class="st120" d="M126.3,105.5c-7.5,15.3-24.7,22.2-40,19.8c-18-2.8-31.5-21.5-28.7-43.5c2.8-22.7,24-36.5,43.3-34.1
				c13.3-0.7,27,10.1,31.7,25.6C134.9,81.3,134.2,95.1,126.3,105.5z"/>
			<path class="st121" d="M126.5,105.1c-7.3,15.4-24.5,22.4-39.8,20.1c-18-2.7-31.6-21.3-29-43.3c2.7-22.6,23.7-36.5,43-34.3
				c13.4-0.7,27.1,10.1,31.8,25.7C134.8,81.1,134.2,94.8,126.5,105.1z"/>
			<path class="st122" d="M126.7,104.7c-7.2,15.4-24.2,22.6-39.5,20.4c-18.1-2.6-31.8-21-29.3-43c2.6-22.6,23.4-36.6,42.7-34.5
				c13.5-0.7,27.3,10.1,31.9,25.7C134.7,80.9,134.2,94.4,126.7,104.7z"/>
			<path class="st123" d="M126.9,104.3c-7,15.5-23.9,22.8-39.3,20.8c-18.1-2.4-32-20.8-29.6-42.8c2.5-22.5,23.1-36.7,42.4-34.7
				c13.6-0.7,27.4,10.1,32.1,25.7C134.5,80.6,134.2,94,126.9,104.3z"/>
			<path class="st124" d="M127,103.8c-6.9,15.5-23.7,23.1-39.1,21.1c-18.2-2.3-32.1-20.6-29.8-42.6c2.4-22.5,22.7-36.7,42.1-34.8
				c13.7-0.7,27.6,10.1,32.2,25.8C134.4,80.4,134.2,93.6,127,103.8z"/>
			<path class="st125" d="M127.2,103.4c-6.8,15.5-23.4,23.3-38.9,21.5c-18.3-2.2-32.3-20.4-30.1-42.3c2.2-22.4,22.4-36.8,41.8-35
				c13.8-0.7,27.7,10.1,32.4,25.8C134.3,80.2,134.2,93.2,127.2,103.4z"/>
			<path class="st126" d="M127.4,103c-6.6,15.6-23.2,23.5-38.7,21.8c-18.3-2.1-32.5-20.2-30.4-42.1c2.1-22.3,22.1-36.9,41.5-35.2
				c13.9-0.7,27.8,10.2,32.5,25.8C134.2,79.9,134.2,92.8,127.4,103z"/>
			<path class="st127" d="M127.6,102.6c-6.5,15.6-22.9,23.8-38.5,22.1c-18.4-2-32.6-20-30.7-41.8c2-22.3,21.8-37,41.2-35.4
				c14-0.7,28,10.2,32.6,25.9C134,79.7,134.2,92.5,127.6,102.6z"/>
			<path class="st128" d="M127.8,102.2c-6.4,15.7-22.6,24-38.3,22.5c-18.4-1.8-32.8-19.8-31-41.6c1.9-22.2,21.5-37,40.9-35.6
				c14.2-0.7,28.1,10.2,32.8,25.9C133.9,79.5,134.2,92.1,127.8,102.2z"/>
			<path class="st129" d="M127.9,101.8c-6.2,15.7-22.4,24.2-38,22.8c-18.5-1.7-33-19.6-31.3-41.3c1.7-22.2,21.2-37.1,40.6-35.7
				c14.3-0.7,28.2,10.2,32.9,25.9C133.8,79.2,134.2,91.7,127.9,101.8z"/>
			<path class="st130" d="M128.1,101.4c-6.1,15.7-22.1,24.5-37.8,23.1c-18.5-1.6-33.1-19.4-31.6-41.1c1.6-22.1,20.9-37.2,40.3-35.9
				c14.4-0.7,28.4,10.2,33.1,26C133.7,79,134.2,91.3,128.1,101.4z"/>
			<path class="st131" d="M128.3,101c-5.9,15.8-21.9,24.7-37.6,23.5c-18.6-1.4-33.3-19.2-31.8-40.9c1.5-22.1,20.5-37.3,40-36.1
				c14.5-0.8,28.5,10.2,33.2,26C133.5,78.8,134.2,90.9,128.3,101z"/>
			<path class="st132" d="M128.5,100.6c-5.8,15.8-21.6,25-37.4,23.8c-18.7-1.3-33.5-19-32.1-40.6c1.4-22,20.2-37.3,39.7-36.3
				c14.6-0.8,28.7,10.2,33.3,26C133.4,78.5,134.2,90.6,128.5,100.6z"/>
			<path class="st133" d="M128.7,100.2c-5.7,15.9-21.3,25.2-37.2,24.2c-18.7-1.2-33.6-18.8-32.4-40.4C60.3,62,79,46.6,98.5,47.5
				c14.7-0.8,28.8,10.3,33.5,26.1C133.3,78.3,134.2,90.2,128.7,100.2z"/>
			<path class="st134" d="M128.9,99.8c-5.5,15.9-21.1,25.4-37,24.5c-18.8-1.1-33.8-18.6-32.7-40.1c1.1-21.9,19.6-37.5,39.1-36.6
				c14.8-0.8,28.9,10.3,33.6,26.1C133.2,78,134.2,89.8,128.9,99.8z"/>
			<path class="st135" d="M129,99.4c-5.4,15.9-20.8,25.7-36.8,24.8c-18.8-0.9-34-18.4-33-39.9c1-21.8,19.3-37.5,38.8-36.8
				c14.9-0.8,29.1,10.3,33.8,26.1C133,77.8,134.2,89.4,129,99.4z"/>
			<path class="st136" d="M129.2,99c-5.3,16-20.6,25.9-36.6,25.2c-18.9-0.8-34.1-18.2-33.3-39.6c0.9-21.8,19-37.6,38.5-37
				c15-0.8,29.2,10.3,33.9,26.2C132.9,77.6,134.2,89,129.2,99z"/>
			<path class="st137" d="M129.4,98.6c-5.1,16-20.3,26.1-36.3,25.5c-19-0.7-34.3-18-33.5-39.4C60.2,63,78.2,47,97.7,47.5
				c15.1-0.8,29.3,10.3,34,26.2C132.8,77.3,134.2,88.6,129.4,98.6z"/>
			<path class="st138" d="M129.6,98.2c-5,16.1-20,26.4-36.1,25.9c-19-0.6-34.4-17.8-33.8-39.2C60.2,63.2,78,47.1,97.5,47.5
				c15.3-0.8,29.5,10.3,34.2,26.2C132.7,77.1,134.2,88.3,129.6,98.2z"/>
			<path class="st139" d="M129.8,97.8c-4.8,16.1-19.8,26.6-35.9,26.2c-19.1-0.4-34.6-17.6-34.1-38.9c0.5-21.6,18-37.8,37.6-37.5
				c15.4-0.8,29.6,10.3,34.3,26.3C132.5,76.9,134.2,87.9,129.8,97.8z"/>
			<path class="st140" d="M129.9,97.4c-4.7,16.1-19.5,26.8-35.7,26.5c-19.1-0.3-34.8-17.3-34.4-38.7c0.4-21.5,17.7-37.9,37.3-37.7
				c15.5-0.8,29.8,10.3,34.5,26.3C132.4,76.6,134.2,87.5,129.9,97.4z"/>
			<path class="st141" d="M130.1,96.9c-4.6,16.2-19.3,27.1-35.5,26.9c-19.2-0.2-34.9-17.1-34.7-38.4c0.3-21.5,17.4-38,37-37.9
				c15.6-0.8,29.9,10.4,34.6,26.3C132.3,76.4,134.2,87.1,130.1,96.9z"/>
			<path class="st142" d="M130.3,96.5c-4.4,16.2-19,27.3-35.3,27.2c-19.2-0.1-35.1-16.9-35-38.2c0.1-21.4,17.1-38,36.7-38.1
				c15.7-0.8,30,10.4,34.7,26.4C132.2,76.2,134.2,86.7,130.3,96.5z"/>
			<path class="st143" d="M130.5,96.1c-4.3,16.2-18.7,27.5-35.1,27.5c-19.3,0-35.3-16.7-35.3-37.9c0-21.4,16.8-38.1,36.4-38.3
				c15.8-0.8,30.2,10.4,34.9,26.4C132,75.9,134.2,86.3,130.5,96.1z"/>
			<path class="st144" d="M130.7,95.7c-4.2,16.3-18.5,27.8-34.8,27.9c-19.4,0.2-35.4-16.5-35.5-37.7c-0.1-21.3,16.5-38.2,36.1-38.5
				c15.9-0.8,30.3,10.4,35,26.4C131.9,75.7,134.2,86,130.7,95.7z"/>
			<path class="st145" d="M130.8,95.3c-4,16.3-18.2,28-34.6,28.2c-19.4,0.3-35.6-16.3-35.8-37.5c-0.2-21.3,16.1-38.3,35.8-38.6
				c16-0.8,30.5,10.4,35.2,26.5C131.8,75.5,134.2,85.6,130.8,95.3z"/>
			<path class="st146" d="M131,94.9c-3.9,16.4-18,28.2-34.4,28.6c-19.5,0.4-35.7-16.1-36.1-37.2C60.2,65.1,76.3,47.9,96,47.4
				c16.1-0.8,30.6,10.4,35.3,26.5C131.7,75.2,134.2,85.2,131,94.9z"/>
			<path class="st147" d="M131.2,94.5c-3.7,16.4-17.7,28.5-34.2,28.9c-19.5,0.5-35.9-15.9-36.4-37c-0.5-21.1,15.5-38.4,35.2-39
				c16.3-0.8,30.7,10.4,35.4,26.5C131.5,75,134.2,84.8,131.2,94.5z"/>
			<path class="st148" d="M131.4,94.1c-3.6,16.4-17.4,28.7-34,29.2c-19.6,0.7-36.1-15.7-36.7-36.7c-0.6-21.1,15.2-38.5,34.9-39.2
				c16.4-0.9,30.9,10.5,35.6,26.6C131.4,74.8,134.2,84.4,131.4,94.1z"/>
			<path class="st149" d="M131.6,93.7c-3.5,16.5-17.2,28.9-33.8,29.6c-19.7,0.8-36.2-15.5-37-36.5c-0.7-21,14.9-38.5,34.6-39.4
				c16.5-0.9,31,10.5,35.7,26.6C131.3,74.5,134.2,84,131.6,93.7z"/>
			<path class="st150" d="M131.7,93.3c-3.3,16.5-16.9,29.2-33.6,29.9c-19.7,0.9-36.4-15.3-37.3-36.2c-0.8-21,14.6-38.6,34.3-39.5
				c16.6-0.9,31.1,10.5,35.8,26.6C131.2,74.3,134.2,83.7,131.7,93.3z"/>
			<path class="st151" d="M131.9,92.9c-3.2,16.6-16.7,29.4-33.4,30.2c-19.8,1-36.6-15.1-37.5-36c-1-20.9,14.3-38.7,34-39.7
				c16.7-0.9,31.3,10.5,36,26.7C131,74.1,134.2,83.3,131.9,92.9z"/>
		</g>
		<path class="st154" d="M55.9,79.7c0,26.4,20.2,47.9,45.2,47.9c25,0,45.2-21.4,45.2-47.9c0-26.4-20.3-47.9-45.2-47.9
			C76.1,31.8,55.9,53.2,55.9,79.7z"/>
		
			<linearGradient id="SVGID_2_" gradientUnits="userSpaceOnUse" x1="1789.9952" y1="107.5399" x2="1710.3815" y2="51.7938" gradientTransform="matrix(-1 0 0 1 1851.2891 0)">
			<stop  offset="3.465350e-02" style="stop-color:#878787"/>
			<stop  offset="0.8614" style="stop-color:#FFFFFF"/>
		</linearGradient>
		<path class="st155" d="M101.1,130.1c26.3,0,47.7-22.6,47.7-50.4c0-27.8-21.4-50.4-47.7-50.4c-26.3,0-47.7,22.6-47.7,50.4
			C53.4,107.5,74.8,130.1,101.1,130.1z"/>
		<linearGradient id="SVGID_3_" gradientUnits="userSpaceOnUse" x1="67.0026" y1="113.7653" x2="135.1994" y2="45.5685">
			<stop  offset="0.3951" style="stop-color:#FFFFFF"/>
			<stop  offset="1" style="stop-color:#DBDBDB"/>
		</linearGradient>
		<path class="st156" d="M101.1,129.2c25.8,0,46.9-22.2,46.9-49.6s-21-49.6-46.9-49.6c-25.8,0-46.9,22.2-46.9,49.6
			S75.3,129.2,101.1,129.2z"/>
		
			<radialGradient id="SVGID_4_" cx="104.1528" cy="92.2104" r="9.4814" gradientTransform="matrix(6.8551 0 0 7.2521 -587.1046 -613.2802)" gradientUnits="userSpaceOnUse">
			<stop  offset="9.268290e-02" style="stop-color:#F8C00D"/>
			<stop  offset="1" style="stop-color:#F19106"/>
		</radialGradient>
		<path class="st157" d="M101.1,124.6c-23.4,0-42.5-20.2-42.5-45c0-24.8,19.1-45,42.5-45c23.4,0,42.5,20.2,42.5,45
			C143.6,104.5,124.5,124.6,101.1,124.6z"/>
	</g>
	<g>
		
			<radialGradient id="SVGID_5_" cx="106.1205" cy="105.42" r="2.0844" gradientTransform="matrix(6.8551 0 0 7.2521 -587.1046 -613.2802)" gradientUnits="userSpaceOnUse">
			<stop  offset="0.201" style="stop-color:#1D1E1C"/>
			<stop  offset="0.2276" style="stop-color:#2A2B29"/>
			<stop  offset="0.3941" style="stop-color:#757574"/>
			<stop  offset="0.5428" style="stop-color:#B0B0B0"/>
			<stop  offset="0.6685" style="stop-color:#DBDBDB"/>
			<stop  offset="0.7663" style="stop-color:#F5F5F5"/>
			<stop  offset="0.8241" style="stop-color:#FFFFFF"/>
		</radialGradient>
		<path class="st158" d="M154.6,151.2c0,8.3-6.4,15.1-14.3,15.1c-7.9,0-14.3-6.8-14.3-15.1c0-8.4,6.4-15.1,14.3-15.1
			C148.2,136.1,154.6,142.9,154.6,151.2z"/>
		
			<radialGradient id="SVGID_6_" cx="112.8743" cy="102.7375" r="1.638" gradientTransform="matrix(6.8551 0 0 7.2521 -587.1046 -613.2802)" gradientUnits="userSpaceOnUse">
			<stop  offset="0.201" style="stop-color:#1D1E1C"/>
			<stop  offset="0.2276" style="stop-color:#2A2B29"/>
			<stop  offset="0.3941" style="stop-color:#757574"/>
			<stop  offset="0.5428" style="stop-color:#B0B0B0"/>
			<stop  offset="0.6685" style="stop-color:#DBDBDB"/>
			<stop  offset="0.7663" style="stop-color:#F5F5F5"/>
			<stop  offset="0.8241" style="stop-color:#FFFFFF"/>
		</radialGradient>
		<path class="st159" d="M197.9,131.8c0,6.6-5,11.9-11.2,11.9c-6.2,0-11.2-5.3-11.2-11.9c0-6.6,5-11.9,11.2-11.9
			C192.9,119.9,197.9,125.2,197.9,131.8z"/>
		
			<radialGradient id="SVGID_7_" cx="110.0056" cy="103.7731" r="2.7033" gradientTransform="matrix(6.8551 0 0 7.2521 -587.1046 -613.2802)" gradientUnits="userSpaceOnUse">
			<stop  offset="0.201" style="stop-color:#1D1E1C"/>
			<stop  offset="0.2276" style="stop-color:#2A2B29"/>
			<stop  offset="0.3941" style="stop-color:#757574"/>
			<stop  offset="0.5428" style="stop-color:#B0B0B0"/>
			<stop  offset="0.6685" style="stop-color:#DBDBDB"/>
			<stop  offset="0.7663" style="stop-color:#F5F5F5"/>
			<stop  offset="0.8241" style="stop-color:#FFFFFF"/>
		</radialGradient>
		<path class="st160" d="M185.5,139.3c0,10.8-8.3,19.6-18.5,19.6c-10.2,0-18.5-8.8-18.5-19.6c0-10.8,8.3-19.6,18.5-19.6
			C177.2,119.7,185.5,128.5,185.5,139.3z"/>
		
			<radialGradient id="SVGID_8_" cx="104.8449" cy="104.5337" r="4.0102" gradientTransform="matrix(6.8551 0 0 7.2521 -587.1046 -613.2802)" gradientUnits="userSpaceOnUse">
			<stop  offset="0.2312" style="stop-color:#1D1E1C"/>
			<stop  offset="0.3614" style="stop-color:#5A5A59"/>
			<stop  offset="0.5262" style="stop-color:#A0A09F"/>
			<stop  offset="0.6638" style="stop-color:#D3D3D3"/>
			<stop  offset="0.767" style="stop-color:#F3F3F3"/>
			<stop  offset="0.8241" style="stop-color:#FFFFFF"/>
		</radialGradient>
		<path class="st161" d="M159.1,144.8c0,16.1-12.3,29.1-27.5,29.1s-27.5-13-27.5-29.1c0-16.1,12.3-29.1,27.5-29.1
			S159.1,128.7,159.1,144.8z"/>
		
			<radialGradient id="SVGID_9_" cx="99.9319" cy="102.9105" r="5.2364" gradientTransform="matrix(6.8551 0 0 7.2521 -587.1046 -613.2802)" gradientUnits="userSpaceOnUse">
			<stop  offset="0.201" style="stop-color:#1D1E1C"/>
			<stop  offset="0.2276" style="stop-color:#2A2B29"/>
			<stop  offset="0.3941" style="stop-color:#757574"/>
			<stop  offset="0.5428" style="stop-color:#B0B0B0"/>
			<stop  offset="0.6685" style="stop-color:#DBDBDB"/>
			<stop  offset="0.7663" style="stop-color:#F5F5F5"/>
			<stop  offset="0.8241" style="stop-color:#FFFFFF"/>
		</radialGradient>
		<path class="st162" d="M133.8,133c0,21-16.1,38-35.9,38C78.1,171,62,154,62,133c0-21,16.1-38,35.9-38
			C117.8,95.1,133.8,112.1,133.8,133z"/>
		<g>
			<g>
				<linearGradient id="SVGID_10_" gradientUnits="userSpaceOnUse" x1="98.43" y1="160.3534" x2="176.2185" y2="82.5649">
					<stop  offset="0" style="stop-color:#EAEAEA"/>
					<stop  offset="1" style="stop-color:#FFFFFF"/>
				</linearGradient>
				<path class="st163" d="M191.4,117.4c-1.6-5.8-5.1-10.7-9.7-14c0.6-1.9,0.9-3.9,0.9-6c0-10.9-8.4-19.8-18.7-19.8
					c-2.9,0-5.7,0.7-8.1,2c-5.2-7.3-13.5-12-22.9-12c-13.2,0-24.4,9.5-27.7,22.4c-16.5,1.1-29.5,15.6-29.5,33.2
					c0,18.4,14.1,33.3,31.5,33.3c3.7,0,7.3-0.7,10.6-1.9c5.2,4.5,11.9,7.2,19.1,7.2c10.2,0,19.3-5.4,24.7-13.6
					c2.3,0.8,4.6,1.2,7.1,1.2c7.7,0,14.6-3.9,18.9-10c0.6,0.1,1.3,0.2,1.9,0.2c5.8,0,10.5-5,10.5-11.1
					C200,122.9,196.3,118.3,191.4,117.4z"/>
				<linearGradient id="SVGID_11_" gradientUnits="userSpaceOnUse" x1="131.063" y1="161.2012" x2="147.052" y2="70.5233">
					<stop  offset="0" style="stop-color:#ECECEC"/>
					<stop  offset="0.7638" style="stop-color:#D4D5D4"/>
				</linearGradient>
				<path class="st164" d="M190.7,118.1c-1.6-5.8-5.2-11.4-10-14.3c0.5-1.1,1.1-3.3,1.1-5.7c0.1-10.9-7.7-19.6-18-19.6
					c-2.9,0-6.1,1.2-8.6,2.4c-4.7-7.4-13.8-12.6-23.1-12.6c-13.2,0-23.9,9.2-27,22.2c-16.5,1.1-29.5,15.1-29.5,32.7
					c0,18.4,14.1,33.3,31.5,33.3c3.7,0,7.3-0.7,10.6-1.9c5.2,4.5,11.9,7.2,19.1,7.2c10.2,0,19.3-5.4,24.7-13.6
					c2.3,0.8,4.6,1.2,7.1,1.2c7.7,0,14.6-3.9,18.9-10c0.6,0.1,1.3,0.2,1.9,0.2c5.8,0,9.6-4.3,9.8-10.4
					C199.5,123.4,195.6,119,190.7,118.1z"/>
			</g>
		</g>
		<linearGradient id="SVGID_12_" gradientUnits="userSpaceOnUse" x1="137.4511" y1="158.2153" x2="137.4511" y2="70.7663">
			<stop  offset="0" style="stop-color:#4DA2DA"/>
			<stop  offset="0.2963" style="stop-color:#4D9AD4"/>
			<stop  offset="0.7514" style="stop-color:#4C85C4"/>
			<stop  offset="1" style="stop-color:#4B76B9"/>
		</linearGradient>
		<path class="st165" d="M136.5,158.2c-6.2,0-12.3-2.3-17.1-6.5l-1.3-1.1l-1.6,0.6c-3.1,1.2-6.3,1.7-9.6,1.7
			c-15.6,0-28.4-13.5-28.4-30c0-15.8,11.7-28.9,26.5-29.9l2.1-0.1l0.6-2.1c3-11.8,13.2-20,24.7-20c8.1,0,15.5,3.9,20.4,10.7l1.5,2
			l2.2-1.1c2.1-1.1,4.4-1.6,6.8-1.6c8.6,0,15.7,7.4,15.7,16.6c0,1.7-0.2,3.4-0.7,5l-0.7,2.2l1.9,1.3c4.1,2.9,7.1,7.2,8.5,12.2
			l0.5,1.9l1.8,0.3c3.6,0.7,6.2,4,6.2,7.8c0,4.4-3.4,7.9-7.5,7.9c-0.4,0-0.9,0-1.4-0.1l-1.8-0.3l-1.1,1.5c-3.9,5.6-9.9,8.7-16.5,8.7
			c-2.1,0-4.2-0.3-6.2-1l-2.1-0.7l-1.2,1.9C153.6,153.6,145.3,158.2,136.5,158.2z"/>
		<g>
			
				<radialGradient id="SVGID_13_" cx="111.2773" cy="102.2454" r="1.2755" gradientTransform="matrix(6.8551 0 0 7.2521 -587.1046 -613.2802)" gradientUnits="userSpaceOnUse">
				<stop  offset="0.201" style="stop-color:#1D1E1C"/>
				<stop  offset="0.2276" style="stop-color:#2A2B29"/>
				<stop  offset="0.3941" style="stop-color:#757574"/>
				<stop  offset="0.5428" style="stop-color:#B0B0B0"/>
				<stop  offset="0.6685" style="stop-color:#DBDBDB"/>
				<stop  offset="0.7663" style="stop-color:#F5F5F5"/>
				<stop  offset="0.8241" style="stop-color:#FFFFFF"/>
			</radialGradient>
			<path class="st166" d="M184.5,128.2c0,5.1-3.9,9.2-8.7,9.2c-4.8,0-8.7-4.1-8.7-9.2c0-5.1,3.9-9.3,8.7-9.3
				C180.5,119,184.5,123.1,184.5,128.2z"/>
			
				<radialGradient id="SVGID_14_" cx="108.8105" cy="103.1294" r="2.1049" gradientTransform="matrix(6.8551 0 0 7.2521 -587.1046 -613.2802)" gradientUnits="userSpaceOnUse">
				<stop  offset="0.201" style="stop-color:#1D1E1C"/>
				<stop  offset="0.2276" style="stop-color:#2A2B29"/>
				<stop  offset="0.3941" style="stop-color:#757574"/>
				<stop  offset="0.5428" style="stop-color:#B0B0B0"/>
				<stop  offset="0.6685" style="stop-color:#DBDBDB"/>
				<stop  offset="0.7663" style="stop-color:#F5F5F5"/>
				<stop  offset="0.8241" style="stop-color:#FFFFFF"/>
			</radialGradient>
			<path class="st167" d="M173.2,134.6c0,8.4-6.5,15.3-14.4,15.3s-14.4-6.8-14.4-15.3c0-8.4,6.5-15.3,14.4-15.3
				S173.2,126.2,173.2,134.6z"/>
			
				<radialGradient id="SVGID_15_" cx="106.0182" cy="104.3342" r="1.6231" gradientTransform="matrix(6.8551 0 0 7.2521 -587.1046 -613.2802)" gradientUnits="userSpaceOnUse">
				<stop  offset="0.201" style="stop-color:#1D1E1C"/>
				<stop  offset="0.2276" style="stop-color:#2A2B29"/>
				<stop  offset="0.3941" style="stop-color:#757574"/>
				<stop  offset="0.5428" style="stop-color:#B0B0B0"/>
				<stop  offset="0.6685" style="stop-color:#DBDBDB"/>
				<stop  offset="0.7663" style="stop-color:#F5F5F5"/>
				<stop  offset="0.8241" style="stop-color:#FFFFFF"/>
			</radialGradient>
			<path class="st168" d="M150.8,143.4c0,6.5-5,11.8-11.1,11.8c-6.1,0-11.1-5.3-11.1-11.8c0-6.5,5-11.8,11.1-11.8
				C145.8,131.6,150.8,136.9,150.8,143.4z"/>
			
				<radialGradient id="SVGID_16_" cx="104.8448" cy="103.8862" r="3.1226" gradientTransform="matrix(6.8551 0 0 7.2521 -587.1046 -613.2802)" gradientUnits="userSpaceOnUse">
				<stop  offset="0.2312" style="stop-color:#1D1E1C"/>
				<stop  offset="0.3614" style="stop-color:#5A5A59"/>
				<stop  offset="0.5262" style="stop-color:#A0A09F"/>
				<stop  offset="0.6638" style="stop-color:#D3D3D3"/>
				<stop  offset="0.767" style="stop-color:#F3F3F3"/>
				<stop  offset="0.8241" style="stop-color:#FFFFFF"/>
			</radialGradient>
			<path class="st169" d="M153,140.1c0,12.5-9.6,22.6-21.4,22.6c-11.8,0-21.4-10.1-21.4-22.6c0-12.5,9.6-22.6,21.4-22.6
				C143.4,117.5,153,127.6,153,140.1z"/>
			
				<radialGradient id="SVGID_17_" cx="101.0908" cy="102.7111" r="4.0775" gradientTransform="matrix(6.8551 0 0 7.2521 -587.1046 -613.2802)" gradientUnits="userSpaceOnUse">
				<stop  offset="0.201" style="stop-color:#1D1E1C"/>
				<stop  offset="0.2276" style="stop-color:#2A2B29"/>
				<stop  offset="0.3941" style="stop-color:#757574"/>
				<stop  offset="0.5428" style="stop-color:#B0B0B0"/>
				<stop  offset="0.6685" style="stop-color:#DBDBDB"/>
				<stop  offset="0.7663" style="stop-color:#F5F5F5"/>
				<stop  offset="0.8241" style="stop-color:#FFFFFF"/>
			</radialGradient>
			<path class="st170" d="M133.8,131.6c0,16.3-12.5,29.6-28,29.6c-15.4,0-28-13.2-28-29.6c0-16.3,12.5-29.6,28-29.6
				C121.3,102,133.8,115.3,133.8,131.6z"/>
			<g>
				<path class="st171" d="M178.9,116.9c-1.2-4.5-3.9-8.3-7.5-10.8c0.4-1.5,0.7-3,0.7-4.7c0-8.5-6.5-15.3-14.5-15.3
					c-2.3,0-4.4,0.5-6.3,1.5c-4.1-5.6-10.5-9.3-17.7-9.3c-10.3,0-18.9,7.4-21.5,17.3c-12.7,0.8-22.8,12-22.8,25.7
					c0,14.2,10.9,25.8,24.4,25.8c2.9,0,5.6-0.5,8.2-1.5c4,3.5,9.2,5.6,14.8,5.6c7.9,0,14.9-4.2,19.2-10.6c1.7,0.6,3.6,0.9,5.5,0.9
					c6,0,11.3-3.1,14.7-7.8c0.5,0.1,1,0.1,1.5,0.1c4.5,0,8.1-3.8,8.1-8.6C185.5,121.1,182.7,117.6,178.9,116.9z"/>
				<linearGradient id="SVGID_18_" gradientUnits="userSpaceOnUse" x1="132.1705" y1="150.7768" x2="144.5493" y2="80.573">
					<stop  offset="0.1156" style="stop-color:#FFFFFF"/>
					<stop  offset="0.1238" style="stop-color:#FFFFFF"/>
					<stop  offset="0.478" style="stop-color:#EFEFEF"/>
					<stop  offset="0.7638" style="stop-color:#EAEAEA"/>
				</linearGradient>
				<path class="st172" d="M178.3,117.4c-1.2-4.5-4-8.8-7.7-11.1c0.4-0.9,0.9-2.6,0.9-4.4c0-8.5-5.9-15.2-13.9-15.2
					c-2.3,0-4.7,0.9-6.6,1.9c-3.6-5.7-10.7-9.8-17.9-9.8c-10.3,0-18.5,7.1-20.9,17.2c-12.7,0.8-22.8,11.7-22.8,25.4
					c0,14.2,10.9,25.8,24.4,25.8c2.9,0,5.6-0.5,8.2-1.5c4,3.5,9.2,5.6,14.8,5.6c7.9,0,14.9-4.2,19.2-10.6c1.7,0.6,3.6,0.9,5.5,0.9
					c6,0,11.3-3.1,14.7-7.8c0.5,0.1,1,0.1,1.5,0.1c4.5,0,7.4-3.3,7.6-8C185.1,121.5,182.1,118.1,178.3,117.4z"/>
			</g>
		</g>
	</g>
</g>
</svg>
