<?xml version="1.0" encoding="utf-8"?>
<!-- Generator: Adobe Illustrator 25.3.1, SVG Export Plug-In . SVG Version: 6.00 Build 0)  -->
<svg version="1.1" id="Layer_1" xmlns="http://www.w3.org/2000/svg" xmlns:xlink="http://www.w3.org/1999/xlink" x="0px" y="0px"
	 viewBox="0 0 800 800" style="enable-background:new 0 0 800 800;" xml:space="preserve">
<style type="text/css">
	.st0{clip-path:url(#SVGID_2_);}
	.st1{clip-path:url(#SVGID_4_);}
	.st2{clip-path:url(#SVGID_6_);}
	.st3{clip-path:url(#SVGID_8_);}
	.st4{clip-path:url(#SVGID_10_);fill:url(#SVGID_11_);}
	.st5{clip-path:url(#SVGID_13_);}
	.st6{clip-path:url(#SVGID_15_);fill:url(#SVGID_16_);}
	.st7{clip-path:url(#SVGID_18_);}
	.st8{clip-path:url(#SVGID_20_);fill:url(#SVGID_21_);}
	.st9{clip-path:url(#SVGID_23_);}
	.st10{clip-path:url(#SVGID_25_);fill:url(#SVGID_26_);}
	.st11{clip-path:url(#SVGID_28_);}
	.st12{clip-path:url(#SVGID_30_);fill:url(#SVGID_31_);}
	.st13{clip-path:url(#SVGID_33_);fill:url(#SVGID_34_);}
	.st14{clip-path:url(#SVGID_36_);fill:url(#SVGID_37_);}
	.st15{clip-path:url(#SVGID_39_);fill:url(#SVGID_40_);}
	.st16{clip-path:url(#SVGID_42_);}
	.st17{clip-path:url(#SVGID_44_);}
	.st18{clip-path:url(#SVGID_46_);fill:url(#SVGID_47_);}
	.st19{clip-path:url(#SVGID_49_);}
	.st20{clip-path:url(#SVGID_51_);fill:url(#SVGID_52_);}
	.st21{clip-path:url(#SVGID_54_);}
	.st22{clip-path:url(#SVGID_56_);fill:url(#SVGID_57_);}
	.st23{clip-path:url(#SVGID_59_);}
	.st24{clip-path:url(#SVGID_61_);fill:url(#SVGID_62_);}
	.st25{clip-path:url(#SVGID_64_);}
	.st26{clip-path:url(#SVGID_66_);fill:url(#SVGID_67_);}
	.st27{clip-path:url(#SVGID_42_);fill:#FFFFFF;}
	.st28{clip-path:url(#SVGID_69_);fill:url(#SVGID_70_);}
	.st29{clip-path:url(#SVGID_72_);fill:#E8501D;}
	.st30{clip-path:url(#SVGID_72_);fill:#F9B233;}
	.st31{clip-path:url(#SVGID_72_);}
	.st32{clip-path:url(#SVGID_74_);}
	.st33{clip-path:url(#SVGID_76_);fill:url(#SVGID_77_);}
	.st34{clip-path:url(#SVGID_79_);}
	.st35{clip-path:url(#SVGID_81_);fill:url(#SVGID_82_);}
	.st36{clip-path:url(#SVGID_84_);}
	.st37{clip-path:url(#SVGID_86_);fill:url(#SVGID_87_);}
	.st38{clip-path:url(#SVGID_89_);}
	.st39{clip-path:url(#SVGID_91_);fill:url(#SVGID_92_);}
	.st40{clip-path:url(#SVGID_94_);}
	.st41{clip-path:url(#SVGID_96_);fill:url(#SVGID_97_);}
	.st42{clip-path:url(#SVGID_99_);fill:url(#SVGID_100_);}
	.st43{clip-path:url(#SVGID_102_);fill:url(#SVGID_103_);}
</style>
<g id="Artwork_41_1_">
	<g>
		<defs>
			<rect id="SVGID_1_" y="0" width="800" height="800"/>
		</defs>
		<clipPath id="SVGID_2_">
			<use xlink:href="#SVGID_1_"  style="overflow:visible;"/>
		</clipPath>
		<g class="st0">
			<defs>
				<rect id="SVGID_3_" y="0" width="800" height="800"/>
			</defs>
			<clipPath id="SVGID_4_">
				<use xlink:href="#SVGID_3_"  style="overflow:visible;"/>
			</clipPath>
			<g class="st1">
				<defs>
					<rect id="SVGID_5_" y="0" width="799.99" height="800"/>
				</defs>
				<clipPath id="SVGID_6_">
					<use xlink:href="#SVGID_5_"  style="overflow:visible;"/>
				</clipPath>
				<g class="st2">
					<g>
						<defs>
							<rect id="SVGID_7_" x="403.31" y="339.89" width="153.34" height="149.9"/>
						</defs>
						<clipPath id="SVGID_8_">
							<use xlink:href="#SVGID_7_"  style="overflow:visible;"/>
						</clipPath>
						<g class="st3">
							<defs>
								<path id="SVGID_9_" d="M556.66,414.84c0,41.38-34.33,74.94-76.69,74.94c-42.33,0-76.66-33.55-76.66-74.94
									c0-41.41,34.33-74.97,76.66-74.97C522.33,339.88,556.66,373.43,556.66,414.84"/>
							</defs>
							<clipPath id="SVGID_10_">
								<use xlink:href="#SVGID_9_"  style="overflow:visible;"/>
							</clipPath>
							
								<radialGradient id="SVGID_11_" cx="8.183866e-05" cy="1.433641e-04" r="1.0001" gradientTransform="matrix(76.6706 0 0 -74.9473 479.9767 414.8401)" gradientUnits="userSpaceOnUse">
								<stop  offset="0" style="stop-color:#1E1F1D"/>
								<stop  offset="0.201" style="stop-color:#1E1F1D"/>
								<stop  offset="0.2198" style="stop-color:#272826"/>
								<stop  offset="0.389" style="stop-color:#737372"/>
								<stop  offset="0.5399" style="stop-color:#AFAFAF"/>
								<stop  offset="0.6672" style="stop-color:#DADBDA"/>
								<stop  offset="0.766" style="stop-color:#F5F5F5"/>
								<stop  offset="0.8241" style="stop-color:#FFFFFF"/>
								<stop  offset="1" style="stop-color:#FFFFFF"/>
							</radialGradient>
							<rect x="403.31" y="339.88" class="st4" width="153.35" height="149.91"/>
						</g>
					</g>
				</g>
				<g class="st2">
					<g>
						<defs>
							<rect id="SVGID_12_" x="668.15" y="259.5" width="120.49" height="117.78"/>
						</defs>
						<clipPath id="SVGID_13_">
							<use xlink:href="#SVGID_12_"  style="overflow:visible;"/>
						</clipPath>
						<g class="st5">
							<defs>
								<path id="SVGID_14_" d="M788.65,318.39c0,32.51-26.98,58.88-60.27,58.88c-33.26,0-60.24-26.37-60.24-58.88
									s26.98-58.88,60.24-58.88C761.67,259.51,788.65,285.88,788.65,318.39"/>
							</defs>
							<clipPath id="SVGID_15_">
								<use xlink:href="#SVGID_14_"  style="overflow:visible;"/>
							</clipPath>
							
								<radialGradient id="SVGID_16_" cx="7.755269e-05" cy="7.780125e-05" r="0.9999" gradientTransform="matrix(60.2464 0 0 -58.8923 728.3942 318.3916)" gradientUnits="userSpaceOnUse">
								<stop  offset="0" style="stop-color:#1E1F1D"/>
								<stop  offset="0.201" style="stop-color:#1E1F1D"/>
								<stop  offset="0.2198" style="stop-color:#272826"/>
								<stop  offset="0.389" style="stop-color:#737372"/>
								<stop  offset="0.5399" style="stop-color:#AFAFAF"/>
								<stop  offset="0.6672" style="stop-color:#DADBDA"/>
								<stop  offset="0.766" style="stop-color:#F5F5F5"/>
								<stop  offset="0.8241" style="stop-color:#FFFFFF"/>
								<stop  offset="1" style="stop-color:#FFFFFF"/>
							</radialGradient>
							<rect x="668.15" y="259.51" class="st6" width="120.5" height="117.76"/>
						</g>
					</g>
				</g>
				<g class="st2">
					<g>
						<defs>
							<rect id="SVGID_17_" x="523.44" y="258.43" width="198.86" height="194.39"/>
						</defs>
						<clipPath id="SVGID_18_">
							<use xlink:href="#SVGID_17_"  style="overflow:visible;"/>
						</clipPath>
						<g class="st7">
							<defs>
								<path id="SVGID_19_" d="M722.32,355.63c0,53.66-44.53,97.19-99.43,97.19c-54.93,0-99.46-43.53-99.46-97.19
									c0-53.69,44.53-97.19,99.46-97.19C677.79,258.43,722.32,301.93,722.32,355.63"/>
							</defs>
							<clipPath id="SVGID_20_">
								<use xlink:href="#SVGID_19_"  style="overflow:visible;"/>
							</clipPath>
							
								<radialGradient id="SVGID_21_" cx="-6.024329e-07" cy="-1.611509e-05" r="1.0001" gradientTransform="matrix(99.4315 0 0 -97.1968 622.8771 355.6239)" gradientUnits="userSpaceOnUse">
								<stop  offset="0" style="stop-color:#1E1F1D"/>
								<stop  offset="0.201" style="stop-color:#1E1F1D"/>
								<stop  offset="0.2198" style="stop-color:#272826"/>
								<stop  offset="0.389" style="stop-color:#737372"/>
								<stop  offset="0.5399" style="stop-color:#AFAFAF"/>
								<stop  offset="0.6672" style="stop-color:#DADBDA"/>
								<stop  offset="0.766" style="stop-color:#F5F5F5"/>
								<stop  offset="0.8241" style="stop-color:#FFFFFF"/>
								<stop  offset="1" style="stop-color:#FFFFFF"/>
							</radialGradient>
							<rect x="523.43" y="258.43" class="st8" width="198.89" height="194.39"/>
						</g>
					</g>
				</g>
				<g class="st2">
					<g>
						<defs>
							<rect id="SVGID_22_" x="285.56" y="238.79" width="295" height="288.36"/>
						</defs>
						<clipPath id="SVGID_23_">
							<use xlink:href="#SVGID_22_"  style="overflow:visible;"/>
						</clipPath>
						<g class="st9">
							<defs>
								<path id="SVGID_24_" d="M580.56,382.98c0,79.63-66.05,144.16-147.51,144.16s-147.48-64.53-147.48-144.16
									s66.01-144.2,147.48-144.2S580.56,303.34,580.56,382.98"/>
							</defs>
							<clipPath id="SVGID_25_">
								<use xlink:href="#SVGID_24_"  style="overflow:visible;"/>
							</clipPath>
							
								<radialGradient id="SVGID_26_" cx="5.330228e-05" cy="7.411556e-05" r="1" gradientTransform="matrix(147.4982 0 0 -144.183 433.0556 382.974)" gradientUnits="userSpaceOnUse">
								<stop  offset="0" style="stop-color:#1E1F1D"/>
								<stop  offset="0.2312" style="stop-color:#1E1F1D"/>
								<stop  offset="0.3544" style="stop-color:#575856"/>
								<stop  offset="0.5221" style="stop-color:#9E9F9E"/>
								<stop  offset="0.662" style="stop-color:#D3D3D2"/>
								<stop  offset="0.7666" style="stop-color:#F3F3F3"/>
								<stop  offset="0.8241" style="stop-color:#FFFFFF"/>
								<stop  offset="1" style="stop-color:#FFFFFF"/>
							</radialGradient>
							<rect x="285.57" y="238.78" class="st10" width="294.99" height="288.36"/>
						</g>
					</g>
				</g>
				<g class="st2">
					<g>
						<defs>
							<rect id="SVGID_27_" x="59.75" y="136.34" width="385.21" height="376.54"/>
						</defs>
						<clipPath id="SVGID_28_">
							<use xlink:href="#SVGID_27_"  style="overflow:visible;"/>
						</clipPath>
						<g class="st11">
							<defs>
								<path id="SVGID_29_" d="M444.95,324.62c0,103.98-86.21,188.28-192.61,188.28c-106.37,0-192.61-84.3-192.61-188.28
									s86.24-188.28,192.61-188.28C358.74,136.34,444.95,220.64,444.95,324.62"/>
							</defs>
							<clipPath id="SVGID_30_">
								<use xlink:href="#SVGID_29_"  style="overflow:visible;"/>
							</clipPath>
							
								<radialGradient id="SVGID_31_" cx="-4.078089e-05" cy="-2.456962e-05" r="1" gradientTransform="matrix(192.6024 0 0 -188.2736 252.3495 324.6144)" gradientUnits="userSpaceOnUse">
								<stop  offset="0" style="stop-color:#1E1F1D"/>
								<stop  offset="0.201" style="stop-color:#1E1F1D"/>
								<stop  offset="0.2198" style="stop-color:#272826"/>
								<stop  offset="0.389" style="stop-color:#737372"/>
								<stop  offset="0.5399" style="stop-color:#AFAFAF"/>
								<stop  offset="0.6672" style="stop-color:#DADBDA"/>
								<stop  offset="0.766" style="stop-color:#F5F5F5"/>
								<stop  offset="0.8241" style="stop-color:#FFFFFF"/>
								<stop  offset="1" style="stop-color:#FFFFFF"/>
							</radialGradient>
							<rect x="59.73" y="136.34" class="st12" width="385.22" height="376.56"/>
						</g>
					</g>
				</g>
			</g>
			<g class="st1">
				<defs>
					<path id="SVGID_32_" d="M439.45,0c-71.07,0-130.93,47.06-148.7,111.07c-88.25,5.43-158.13,77.09-158.13,164.76
						c0,91.18,75.59,165.1,168.87,165.1c20.01,0,39.16-3.41,56.97-9.64c27.89,22.38,63.6,35.8,102.48,35.8
						c54.96,0,103.48-26.77,132.75-67.69c12.09,3.75,24.9,5.77,38.25,5.77c41.58,0,78.48-19.59,101.56-49.83
						c3.3,0.61,6.72,0.92,10.21,0.92c31.09,0,56.31-24.65,56.31-55.04c0-27.05-20.01-49.52-46.29-54.12
						c-8.45-28.77-27.26-53.2-52.23-69.29c3.08-9.39,4.74-19.43,4.74-29.84c0-54.25-45-98.24-100.5-98.24
						c-15.64,0-30.4,3.53-43.62,9.73C533.98,23.33,489.51,0,439.45,0z"/>
				</defs>
				<clipPath id="SVGID_33_">
					<use xlink:href="#SVGID_32_"  style="overflow:visible;"/>
				</clipPath>
				
					<linearGradient id="SVGID_34_" gradientUnits="userSpaceOnUse" x1="-8.9761" y1="-27.0342" x2="22.4292" y2="-27.0342" gradientTransform="matrix(12.9914 -12.9914 -12.9914 -12.9914 8.257 -10.812)">
					<stop  offset="0" style="stop-color:#EAEAEA"/>
					<stop  offset="1" style="stop-color:#FFFFFF"/>
				</linearGradient>
				<polygon class="st13" points="-106.29,233.55 466.32,-326.19 1038.93,233.55 466.32,793.29 				"/>
			</g>
			<g class="st1">
				<defs>
					<path id="SVGID_35_" d="M290.78,113.47c-88.25,5.43-158.16,74.69-158.16,162.37c0,91.18,75.59,165.1,168.87,165.1
						c20.01,0,39.16-3.41,56.97-9.64c27.89,22.38,63.6,35.8,102.48,35.8c54.96,0,103.48-26.77,132.75-67.69
						c12.09,3.75,24.9,5.77,38.25,5.77c41.58,0,78.48-19.59,101.56-49.83c3.3,0.61,6.72,0.92,10.21,0.92
						c31.09,0,51.32-21.09,52.42-51.48c1.04-28.09-19.97-49.49-46.29-54.15c-8.42-28.73-27.89-56.43-53.48-70.89
						c2.8-5.56,5.97-16.39,6-28.21c0.28-54.25-41.11-97.23-96.63-97.23c-15.64,0-32.79,5.68-45.98,11.94
						C534.46,29.57,485.65,3.56,435.59,3.56C364.49,3.56,307.33,49.31,290.78,113.47"/>
				</defs>
				<clipPath id="SVGID_36_">
					<use xlink:href="#SVGID_35_"  style="overflow:visible;"/>
				</clipPath>
				
					<linearGradient id="SVGID_37_" gradientUnits="userSpaceOnUse" x1="-26.6807" y1="-32.6334" x2="4.1927" y2="-32.6334" gradientTransform="matrix(2.5917 -14.698 -14.698 -2.5917 13.7469 -10.881)">
					<stop  offset="0" style="stop-color:#ECEDED"/>
					<stop  offset="0.7638" style="stop-color:#D4D5D5"/>
					<stop  offset="1" style="stop-color:#D4D5D5"/>
				</linearGradient>
				<polygon class="st14" points="51.53,453.12 152.66,-107.52 878.25,17.54 777.12,578.18 				"/>
			</g>
			<g class="st1">
				<defs>
					<path id="SVGID_38_" d="M305.07,114.94l-2.98,10.65l-11.24,0.68c-79.9,4.94-142.45,70.15-142.45,148.46
						c0,82,68.24,148.74,152.16,148.74c17.59,0,34.86-2.92,51.28-8.66l8.42-2.95l6.91,5.53c25.82,20.69,58.45,32.08,91.92,32.08
						c47.33,0,91.86-22.69,119.06-60.72l6.6-9.27l11.05,3.44c10.74,3.32,21.92,4.97,33.29,4.97c35.08,0,67.3-15.78,88.34-43.32
						l5.84-7.67l9.64,1.75c2.42,0.43,4.9,0.64,7.29,0.64c22.17,0,40.2-17.62,40.2-39.3c0-19.03-13.91-35.3-33.04-38.65l-9.64-1.72
						l-2.7-9.21c-7.25-24.68-23.43-46.05-45.47-60.26l-9.96-6.42l3.64-11.11c2.64-8.1,3.96-16.52,3.96-25.02
						c0-45.34-37.75-82.24-84.13-82.24c-12.81,0-25.12,2.73-36.52,8.14l-11.59,5.5l-7.85-10.04
						c-26.25-33.71-66.14-53.05-109.42-53.05C375.8,15.91,321.24,56.61,305.07,114.94"/>
				</defs>
				<clipPath id="SVGID_39_">
					<use xlink:href="#SVGID_38_"  style="overflow:visible;"/>
				</clipPath>
				
					<linearGradient id="SVGID_40_" gradientUnits="userSpaceOnUse" x1="-32.6346" y1="-31.8353" x2="-1.9347" y2="-31.8353" gradientTransform="matrix(0 -14.1228 -14.1228 0 14.7868 -11.4183)">
					<stop  offset="0" style="stop-color:#4CA3DB"/>
					<stop  offset="0.2916" style="stop-color:#4C9BD5"/>
					<stop  offset="0.7397" style="stop-color:#4C86C5"/>
					<stop  offset="1" style="stop-color:#4C76BA"/>
				</linearGradient>
				<rect x="148.39" y="15.91" class="st15" width="632" height="433.57"/>
			</g>
			<g class="st1">
				<defs>
					<rect id="SVGID_41_" y="0" width="799.99" height="800"/>
				</defs>
				<clipPath id="SVGID_42_">
					<use xlink:href="#SVGID_41_"  style="overflow:visible;"/>
				</clipPath>
				<g class="st16">
					<g>
						<defs>
							<rect id="SVGID_43_" x="622.74" y="254.83" width="93.82" height="91.72"/>
						</defs>
						<clipPath id="SVGID_44_">
							<use xlink:href="#SVGID_43_"  style="overflow:visible;"/>
						</clipPath>
						<g class="st17">
							<defs>
								<path id="SVGID_45_" d="M716.57,300.7c0,25.33-21.01,45.86-46.92,45.86c-25.91,0-46.92-20.54-46.92-45.86
									c0-25.33,21.01-45.86,46.92-45.86C695.56,254.84,716.57,275.38,716.57,300.7"/>
							</defs>
							<clipPath id="SVGID_46_">
								<use xlink:href="#SVGID_45_"  style="overflow:visible;"/>
							</clipPath>
							
								<radialGradient id="SVGID_47_" cx="1.002305e-04" cy="-2.014187e-04" r="1.0001" gradientTransform="matrix(46.914 0 0 -45.8596 669.6506 300.6949)" gradientUnits="userSpaceOnUse">
								<stop  offset="0" style="stop-color:#1E1F1D"/>
								<stop  offset="0.201" style="stop-color:#1E1F1D"/>
								<stop  offset="0.2198" style="stop-color:#272826"/>
								<stop  offset="0.389" style="stop-color:#737372"/>
								<stop  offset="0.5399" style="stop-color:#AFAFAF"/>
								<stop  offset="0.6672" style="stop-color:#DADBDA"/>
								<stop  offset="0.766" style="stop-color:#F5F5F5"/>
								<stop  offset="0.8241" style="stop-color:#FFFFFF"/>
								<stop  offset="1" style="stop-color:#FFFFFF"/>
							</radialGradient>
							<rect x="622.74" y="254.84" class="st18" width="93.84" height="91.73"/>
						</g>
					</g>
				</g>
				<g class="st16">
					<g>
						<defs>
							<rect id="SVGID_48_" x="501.5" y="256.8" width="154.84" height="151.37"/>
						</defs>
						<clipPath id="SVGID_49_">
							<use xlink:href="#SVGID_48_"  style="overflow:visible;"/>
						</clipPath>
						<g class="st19">
							<defs>
								<path id="SVGID_50_" d="M656.34,332.48c0,41.81-34.67,75.67-77.41,75.67c-42.77,0-77.41-33.86-77.41-75.67
									c0-41.78,34.64-75.67,77.41-75.67C621.67,256.8,656.34,290.7,656.34,332.48"/>
							</defs>
							<clipPath id="SVGID_51_">
								<use xlink:href="#SVGID_50_"  style="overflow:visible;"/>
							</clipPath>
							
								<radialGradient id="SVGID_52_" cx="1.013518e-04" cy="6.073373e-05" r="0.9999" gradientTransform="matrix(77.4235 0 0 -75.6834 578.9175 332.4826)" gradientUnits="userSpaceOnUse">
								<stop  offset="0" style="stop-color:#1E1F1D"/>
								<stop  offset="0.201" style="stop-color:#1E1F1D"/>
								<stop  offset="0.2198" style="stop-color:#272826"/>
								<stop  offset="0.389" style="stop-color:#737372"/>
								<stop  offset="0.5399" style="stop-color:#AFAFAF"/>
								<stop  offset="0.6672" style="stop-color:#DADBDA"/>
								<stop  offset="0.766" style="stop-color:#F5F5F5"/>
								<stop  offset="0.8241" style="stop-color:#FFFFFF"/>
								<stop  offset="1" style="stop-color:#FFFFFF"/>
							</radialGradient>
							<rect x="501.51" y="256.8" class="st20" width="154.83" height="151.35"/>
						</g>
					</g>
				</g>
				<g class="st16">
					<g>
						<defs>
							<rect id="SVGID_53_" x="416.52" y="317.44" width="119.4" height="116.72"/>
						</defs>
						<clipPath id="SVGID_54_">
							<use xlink:href="#SVGID_53_"  style="overflow:visible;"/>
						</clipPath>
						<g class="st21">
							<defs>
								<path id="SVGID_55_" d="M535.93,375.79c0,32.23-26.76,58.36-59.73,58.36c-32.94,0-59.67-26.13-59.67-58.36
									s26.73-58.36,59.67-58.36C509.17,317.44,535.93,343.56,535.93,375.79"/>
							</defs>
							<clipPath id="SVGID_56_">
								<use xlink:href="#SVGID_55_"  style="overflow:visible;"/>
							</clipPath>
							
								<radialGradient id="SVGID_57_" cx="2.104533e-04" cy="1.314392e-04" r="1" gradientTransform="matrix(59.7007 0 0 -58.3589 476.2175 375.8026)" gradientUnits="userSpaceOnUse">
								<stop  offset="0" style="stop-color:#1E1F1D"/>
								<stop  offset="0.201" style="stop-color:#1E1F1D"/>
								<stop  offset="0.2198" style="stop-color:#272826"/>
								<stop  offset="0.389" style="stop-color:#737372"/>
								<stop  offset="0.5399" style="stop-color:#AFAFAF"/>
								<stop  offset="0.6672" style="stop-color:#DADBDA"/>
								<stop  offset="0.766" style="stop-color:#F5F5F5"/>
								<stop  offset="0.8241" style="stop-color:#FFFFFF"/>
								<stop  offset="1" style="stop-color:#FFFFFF"/>
							</radialGradient>
							<rect x="416.53" y="317.44" class="st22" width="119.4" height="116.72"/>
						</g>
					</g>
				</g>
				<g class="st16">
					<g>
						<defs>
							<rect id="SVGID_58_" x="318.2" y="247.42" width="229.71" height="224.55"/>
						</defs>
						<clipPath id="SVGID_59_">
							<use xlink:href="#SVGID_58_"  style="overflow:visible;"/>
						</clipPath>
						<g class="st23">
							<defs>
								<path id="SVGID_60_" d="M547.9,359.68c0,62.01-51.41,112.3-114.85,112.3S318.2,421.69,318.2,359.68
									c0-61.98,51.41-112.27,114.85-112.27S547.9,297.7,547.9,359.68"/>
							</defs>
							<clipPath id="SVGID_61_">
								<use xlink:href="#SVGID_60_"  style="overflow:visible;"/>
							</clipPath>
							
								<radialGradient id="SVGID_62_" cx="-4.094002e-05" cy="-2.724989e-05" r="1" gradientTransform="matrix(114.8563 0 0 -112.2748 433.0524 359.69)" gradientUnits="userSpaceOnUse">
								<stop  offset="0" style="stop-color:#1E1F1D"/>
								<stop  offset="0.2312" style="stop-color:#1E1F1D"/>
								<stop  offset="0.3544" style="stop-color:#575856"/>
								<stop  offset="0.5221" style="stop-color:#9E9F9E"/>
								<stop  offset="0.662" style="stop-color:#D3D3D2"/>
								<stop  offset="0.7666" style="stop-color:#F3F3F3"/>
								<stop  offset="0.8241" style="stop-color:#FFFFFF"/>
								<stop  offset="1" style="stop-color:#FFFFFF"/>
							</radialGradient>
							<rect x="318.2" y="247.41" class="st24" width="229.7" height="224.57"/>
						</g>
					</g>
				</g>
				<g class="st16">
					<g>
						<defs>
							<rect id="SVGID_63_" x="145" y="170.84" width="299.96" height="293.21"/>
						</defs>
						<clipPath id="SVGID_64_">
							<use xlink:href="#SVGID_63_"  style="overflow:visible;"/>
						</clipPath>
						<g class="st25">
							<defs>
								<path id="SVGID_65_" d="M444.95,317.44c0,80.99-67.14,146.62-149.96,146.62c-82.85,0-149.99-65.64-149.99-146.62
									c0-80.95,67.14-146.59,149.99-146.59C377.81,170.85,444.95,236.48,444.95,317.44"/>
							</defs>
							<clipPath id="SVGID_66_">
								<use xlink:href="#SVGID_65_"  style="overflow:visible;"/>
							</clipPath>
							
								<radialGradient id="SVGID_67_" cx="-1.043429e-05" cy="-5.242108e-05" r="1" gradientTransform="matrix(149.9776 0 0 -146.6068 294.9759 317.443)" gradientUnits="userSpaceOnUse">
								<stop  offset="0" style="stop-color:#1E1F1D"/>
								<stop  offset="0.201" style="stop-color:#1E1F1D"/>
								<stop  offset="0.2198" style="stop-color:#272826"/>
								<stop  offset="0.389" style="stop-color:#737372"/>
								<stop  offset="0.5399" style="stop-color:#AFAFAF"/>
								<stop  offset="0.6672" style="stop-color:#DADBDA"/>
								<stop  offset="0.766" style="stop-color:#F5F5F5"/>
								<stop  offset="0.8241" style="stop-color:#FFFFFF"/>
								<stop  offset="1" style="stop-color:#FFFFFF"/>
							</radialGradient>
							<rect x="145" y="170.85" class="st26" width="299.95" height="293.21"/>
						</g>
					</g>
				</g>
				<path class="st27" d="M686.6,244.45c-6.53-22.26-21.1-41.2-40.42-53.63c2.36-7.28,3.64-15.04,3.64-23.12
					c0-41.97-34.83-76.04-77.79-76.04c-12.09,0-23.55,2.7-33.76,7.55c-21.8-28-56.22-46.05-94.97-46.05
					c-55.05,0-101.38,36.44-115.13,85.99c-68.34,4.18-122.45,59.68-122.45,127.56c0,70.58,58.57,127.83,130.77,127.83
					c15.48,0,30.31-2.64,44.09-7.46c21.61,17.31,49.24,27.69,79.36,27.69c42.52,0,80.11-20.72,102.76-52.4
					c9.33,2.89,19.28,4.45,29.62,4.45c32.19,0,60.74-15.13,78.64-38.56c2.54,0.46,5.18,0.74,7.88,0.74
					c24.06,0,43.59-19.1,43.59-42.61C722.43,265.45,706.95,248.04,686.6,244.45"/>
			</g>
			<g class="st1">
				<defs>
					<path id="SVGID_68_" d="M328.19,141.01c-68.34,4.21-122.45,57.84-122.45,125.68c0,70.61,58.54,127.83,130.74,127.83
						c15.48,0,30.31-2.64,44.09-7.46c21.61,17.31,49.24,27.69,79.36,27.69c42.52,0,80.11-20.72,102.76-52.37
						c9.36,2.89,19.31,4.45,29.62,4.45c32.19,0,60.74-15.13,78.64-38.56c2.54,0.46,5.21,0.71,7.88,0.71
						c24.06,0,39.76-16.33,40.61-39.85c0.79-21.77-15.48-38.34-35.83-41.9c-6.53-22.29-21.61-43.72-41.42-54.92
						c2.14-4.3,4.62-12.71,4.65-21.86c0.22-41.97-31.84-75.24-74.81-75.24c-12.12,0-25.38,4.39-35.61,9.21
						c-19.57-28.4-57.38-48.51-96.13-48.51C385.25,55.91,341,91.33,328.19,141.01"/>
				</defs>
				<clipPath id="SVGID_69_">
					<use xlink:href="#SVGID_68_"  style="overflow:visible;"/>
				</clipPath>
				
					<linearGradient id="SVGID_70_" gradientUnits="userSpaceOnUse" x1="-30.0653" y1="-41.9981" x2="0.8082" y2="-41.9981" gradientTransform="matrix(2.0065 -11.3792 -11.3792 -2.0065 13.9245 -12.5769)">
					<stop  offset="0" style="stop-color:#FFFFFF"/>
					<stop  offset="0.1156" style="stop-color:#FFFFFF"/>
					<stop  offset="0.1238" style="stop-color:#FFFFFF"/>
					<stop  offset="0.478" style="stop-color:#EFEFEF"/>
					<stop  offset="0.7638" style="stop-color:#EAEAEA"/>
					<stop  offset="1" style="stop-color:#EAEAEA"/>
				</linearGradient>
				<polygon class="st28" points="142.96,403.93 221.25,-30.1 783,66.73 704.7,500.76 				"/>
			</g>
			<g class="st1">
				<defs>
					<rect id="SVGID_71_" y="0" width="799.99" height="800"/>
				</defs>
				<clipPath id="SVGID_72_">
					<use xlink:href="#SVGID_71_"  style="overflow:visible;"/>
				</clipPath>
				<path class="st29" d="M371.51,800l-1.95-2.7c-2.1-3.04-0.97-6.05,2.58-13.2l93.46-214.07c0.19-0.34,0.31-0.64,0.47-0.95
					c-0.31,0.15-0.6,0.34-0.94,0.52l-59.58,42.33c-3.39,2-6.63,3.1-9.61,3.25c-3.83,0.25-7.22-1.11-9.52-3.71
					c-2.04-2.36-4.15-6.82-2.39-14.64c0.44-1.96,43.72-195.52,51.82-242.22l0.94-5.34l49.68,6.78c7,0.98,12.81,4.51,16.33,10.01
					c3.52,5.5,4.27,12.16,2.14,18.73l-37.81,115.46c-1.1,3.32-0.69,5.07-0.25,5.59c0.28,0.37,1.19,0.58,2.36,0.52
					c1.04-0.06,2.2-0.31,3.49-0.77l77.73-34.78c2.54-0.83,4.9-1.35,6.97-1.47c6.38-0.37,9.17,2.73,10.3,4.64
					c1.63,2.73,2.51,7.61-2.61,15.26L384.35,790.85c-4.46,6.66-6.38,8.78-9.58,8.96L371.51,800z"/>
				<path class="st30" d="M441.5,355.56c-8.23,47.34-51.88,242.46-51.88,242.46c-2.36,10.59,3.49,14.67,13,9.12l59.58-42.33
					c9.52-5.56,13.38-2.12,8.57,7.64l-93.49,214.07c-4.81,9.76-3.77,10.35,2.32,1.26l180.74-301.62c6.09-9.06,2.48-13.6-8.01-10.04
					l-77.73,34.75c-10.46,3.56-16.27-2-12.91-12.34L499.5,383.1c3.36-10.31-2.83-19.99-13.82-21.49L441.5,355.56z"/>
				<g class="st31">
					<g>
						<defs>
							<rect id="SVGID_73_" x="512.28" y="292.3" width="100.61" height="98.35"/>
						</defs>
						<clipPath id="SVGID_74_">
							<use xlink:href="#SVGID_73_"  style="overflow:visible;"/>
						</clipPath>
						<g class="st32">
							<defs>
								<path id="SVGID_75_" d="M612.91,341.47c0,27.17-22.55,49.18-50.31,49.18c-27.79,0-50.31-22.01-50.31-49.18
									c0-27.14,22.52-49.18,50.31-49.18C590.36,292.29,612.91,314.33,612.91,341.47"/>
							</defs>
							<clipPath id="SVGID_76_">
								<use xlink:href="#SVGID_75_"  style="overflow:visible;"/>
							</clipPath>
							
								<radialGradient id="SVGID_77_" cx="1.559838e-04" cy="1.559838e-04" r="1.0001" gradientTransform="matrix(50.3066 0 0 -49.1759 562.5867 341.4807)" gradientUnits="userSpaceOnUse">
								<stop  offset="0" style="stop-color:#1E1F1D"/>
								<stop  offset="0.201" style="stop-color:#1E1F1D"/>
								<stop  offset="0.2198" style="stop-color:#272826"/>
								<stop  offset="0.389" style="stop-color:#737372"/>
								<stop  offset="0.5399" style="stop-color:#AFAFAF"/>
								<stop  offset="0.6672" style="stop-color:#DADBDA"/>
								<stop  offset="0.766" style="stop-color:#F5F5F5"/>
								<stop  offset="0.8241" style="stop-color:#FFFFFF"/>
								<stop  offset="1" style="stop-color:#FFFFFF"/>
							</radialGradient>
							<rect x="512.28" y="292.29" class="st33" width="100.62" height="98.36"/>
						</g>
					</g>
				</g>
				<g class="st31">
					<g>
						<defs>
							<rect id="SVGID_78_" x="382.27" y="294.41" width="166.04" height="162.31"/>
						</defs>
						<clipPath id="SVGID_79_">
							<use xlink:href="#SVGID_78_"  style="overflow:visible;"/>
						</clipPath>
						<g class="st34">
							<defs>
								<path id="SVGID_80_" d="M548.31,375.55c0,44.82-37.15,81.17-83,81.17s-83.04-36.35-83.04-81.17s37.18-81.14,83.04-81.14
									S548.31,330.73,548.31,375.55"/>
							</defs>
							<clipPath id="SVGID_81_">
								<use xlink:href="#SVGID_80_"  style="overflow:visible;"/>
							</clipPath>
							
								<radialGradient id="SVGID_82_" cx="-8.189297e-05" cy="-3.806039e-05" r="1" gradientTransform="matrix(83.0199 0 0 -81.154 465.292 375.5617)" gradientUnits="userSpaceOnUse">
								<stop  offset="0" style="stop-color:#1E1F1D"/>
								<stop  offset="0.201" style="stop-color:#1E1F1D"/>
								<stop  offset="0.2198" style="stop-color:#272826"/>
								<stop  offset="0.389" style="stop-color:#737372"/>
								<stop  offset="0.5399" style="stop-color:#AFAFAF"/>
								<stop  offset="0.6672" style="stop-color:#DADBDA"/>
								<stop  offset="0.766" style="stop-color:#F5F5F5"/>
								<stop  offset="0.8241" style="stop-color:#FFFFFF"/>
								<stop  offset="1" style="stop-color:#FFFFFF"/>
							</radialGradient>
							<rect x="382.27" y="294.41" class="st35" width="166.04" height="162.31"/>
						</g>
					</g>
				</g>
				<g class="st31">
					<g>
						<defs>
							<rect id="SVGID_83_" x="291.15" y="359.44" width="128.04" height="125.16"/>
						</defs>
						<clipPath id="SVGID_84_">
							<use xlink:href="#SVGID_83_"  style="overflow:visible;"/>
						</clipPath>
						<g class="st36">
							<defs>
								<path id="SVGID_85_" d="M419.2,422c0,34.57-28.67,62.6-64.04,62.6s-64-28.03-64-62.6c0-34.54,28.64-62.57,64-62.57
									S419.2,387.46,419.2,422"/>
							</defs>
							<clipPath id="SVGID_86_">
								<use xlink:href="#SVGID_85_"  style="overflow:visible;"/>
							</clipPath>
							
								<radialGradient id="SVGID_87_" cx="1.712326e-04" cy="-4.678477e-07" r="1" gradientTransform="matrix(64.0174 0 0 -62.5785 355.1673 422.013)" gradientUnits="userSpaceOnUse">
								<stop  offset="0" style="stop-color:#1E1F1D"/>
								<stop  offset="0.201" style="stop-color:#1E1F1D"/>
								<stop  offset="0.2198" style="stop-color:#272826"/>
								<stop  offset="0.389" style="stop-color:#737372"/>
								<stop  offset="0.5399" style="stop-color:#AFAFAF"/>
								<stop  offset="0.6672" style="stop-color:#DADBDA"/>
								<stop  offset="0.766" style="stop-color:#F5F5F5"/>
								<stop  offset="0.8241" style="stop-color:#FFFFFF"/>
								<stop  offset="1" style="stop-color:#FFFFFF"/>
							</radialGradient>
							<rect x="291.16" y="359.43" class="st37" width="128.04" height="125.16"/>
						</g>
					</g>
				</g>
				<g class="st31">
					<g>
						<defs>
							<rect id="SVGID_88_" x="185.72" y="284.35" width="246.32" height="240.78"/>
						</defs>
						<clipPath id="SVGID_89_">
							<use xlink:href="#SVGID_88_"  style="overflow:visible;"/>
						</clipPath>
						<g class="st38">
							<defs>
								<path id="SVGID_90_" d="M432.04,404.74c0,66.5-55.15,120.37-123.17,120.37s-123.14-53.88-123.14-120.37
									s55.12-120.4,123.14-120.4S432.04,338.25,432.04,404.74"/>
							</defs>
							<clipPath id="SVGID_91_">
								<use xlink:href="#SVGID_90_"  style="overflow:visible;"/>
							</clipPath>
							
								<radialGradient id="SVGID_92_" cx="2.541300e-05" cy="6.359328e-05" r="1" gradientTransform="matrix(123.1583 0 0 -120.3902 308.8837 404.7369)" gradientUnits="userSpaceOnUse">
								<stop  offset="0" style="stop-color:#1E1F1D"/>
								<stop  offset="0.2312" style="stop-color:#1E1F1D"/>
								<stop  offset="0.3544" style="stop-color:#575856"/>
								<stop  offset="0.5221" style="stop-color:#9E9F9E"/>
								<stop  offset="0.662" style="stop-color:#D3D3D2"/>
								<stop  offset="0.7666" style="stop-color:#F3F3F3"/>
								<stop  offset="0.8241" style="stop-color:#FFFFFF"/>
								<stop  offset="1" style="stop-color:#FFFFFF"/>
							</radialGradient>
							<rect x="185.73" y="284.34" class="st39" width="246.31" height="240.78"/>
						</g>
					</g>
				</g>
				<g class="st31">
					<g>
						<defs>
							<rect id="SVGID_93_" y="202.23" width="321.64" height="314.41"/>
						</defs>
						<clipPath id="SVGID_94_">
							<use xlink:href="#SVGID_93_"  style="overflow:visible;"/>
						</clipPath>
						<g class="st40">
							<defs>
								<path id="SVGID_95_" d="M321.65,359.43c0,86.82-72.01,157.21-160.83,157.21S0,446.25,0,359.43s72.01-157.21,160.83-157.21
									S321.65,272.61,321.65,359.43"/>
							</defs>
							<clipPath id="SVGID_96_">
								<use xlink:href="#SVGID_95_"  style="overflow:visible;"/>
							</clipPath>
							
								<radialGradient id="SVGID_97_" cx="2.923867e-05" cy="2.933179e-05" r="1" gradientTransform="matrix(160.8219 0 0 -157.2073 160.8219 359.4368)" gradientUnits="userSpaceOnUse">
								<stop  offset="0" style="stop-color:#1E1F1D"/>
								<stop  offset="0.201" style="stop-color:#1E1F1D"/>
								<stop  offset="0.2198" style="stop-color:#272826"/>
								<stop  offset="0.389" style="stop-color:#737372"/>
								<stop  offset="0.5399" style="stop-color:#AFAFAF"/>
								<stop  offset="0.6672" style="stop-color:#DADBDA"/>
								<stop  offset="0.766" style="stop-color:#F5F5F5"/>
								<stop  offset="0.8241" style="stop-color:#FFFFFF"/>
								<stop  offset="1" style="stop-color:#FFFFFF"/>
							</radialGradient>
							<rect y="202.22" class="st41" width="321.65" height="314.42"/>
						</g>
					</g>
				</g>
			</g>
			<g class="st1">
				<defs>
					<path id="SVGID_98_" d="M196.41,168.24C123.11,172.72,65.13,232.24,65.13,305c0,75.7,62.75,137.07,140.19,137.07
						c16.61,0,32.54-2.79,47.26-7.98c23.18,18.57,52.82,29.72,85.11,29.72c45.6,0,85.89-22.23,110.2-56.21
						c10.02,3.13,20.7,4.79,31.75,4.79c34.51,0,65.17-16.24,84.32-41.35c2.73,0.52,5.56,0.77,8.48,0.77
						c25.78,0,46.7-20.45,46.7-45.68c0-22.47-16.55-41.11-38.41-44.94c-7-23.88-22.64-44.18-43.34-57.5
						c2.54-7.83,3.96-16.18,3.96-24.81c0-45.01-37.37-81.54-83.44-81.54c-12.97,0-25.28,2.89-36.24,8.07
						c-23.33-30.02-60.27-49.4-101.82-49.4C260.82,76.01,211.17,115.13,196.41,168.24"/>
				</defs>
				<clipPath id="SVGID_99_">
					<use xlink:href="#SVGID_98_"  style="overflow:visible;"/>
				</clipPath>
				
					<linearGradient id="SVGID_100_" gradientUnits="userSpaceOnUse" x1="3.5745" y1="-16.2782" x2="34.978" y2="-16.2782" gradientTransform="matrix(17.642 0 0 -17.642 2.0736 -17.267)">
					<stop  offset="0" style="stop-color:#B6B6B7"/>
					<stop  offset="1" style="stop-color:#E4E4E5"/>
				</linearGradient>
				<rect x="65.13" y="76.01" class="st42" width="554.02" height="387.8"/>
			</g>
			<g class="st1">
				<defs>
					<path id="SVGID_101_" d="M196.41,170.23C123.14,174.74,65.13,232.24,65.13,305c0,75.7,62.75,137.07,140.19,137.07
						c16.61,0,32.54-2.79,47.26-7.98c23.18,18.57,52.82,29.72,85.11,29.72c45.6,0,85.89-22.23,110.2-56.21
						c10.02,3.13,20.7,4.79,31.75,4.79c34.51,0,65.17-16.24,84.32-41.35c2.73,0.52,5.56,0.77,8.48,0.77
						c25.78,0,42.59-17.53,43.5-42.73c0.85-23.33-16.58-41.14-38.41-44.94c-7-23.85-23.15-46.88-44.41-58.88
						c2.32-4.6,4.93-13.6,4.99-23.39c0.22-45.04-34.17-80.74-80.24-80.74c-12.97,0-27.23,4.73-38.19,9.89
						c-20.98-30.42-61.49-52-103.04-52C257.65,78.99,210.13,116.97,196.41,170.23"/>
				</defs>
				<clipPath id="SVGID_102_">
					<use xlink:href="#SVGID_101_"  style="overflow:visible;"/>
				</clipPath>
				
					<linearGradient id="SVGID_103_" gradientUnits="userSpaceOnUse" x1="-33.4888" y1="-30.2649" x2="-2.6154" y2="-30.2649" gradientTransform="matrix(2.1516 -12.2021 -12.2021 -2.1516 9.9805 -10.9818)">
					<stop  offset="0" style="stop-color:#FFFFFF"/>
					<stop  offset="0.1156" style="stop-color:#FFFFFF"/>
					<stop  offset="0.267" style="stop-color:#E5E5E5"/>
					<stop  offset="0.4573" style="stop-color:#CBCBCC"/>
					<stop  offset="0.6288" style="stop-color:#BCBCBC"/>
					<stop  offset="0.7638" style="stop-color:#B6B6B7"/>
					<stop  offset="1" style="stop-color:#B6B6B7"/>
				</linearGradient>
				<polygon class="st43" points="-2.19,452.21 81.77,-13.23 684.12,90.6 600.17,556.03 				"/>
			</g>
		</g>
	</g>
</g>
</svg>
