<?xml version="1.0" encoding="utf-8"?>
<!-- Generator: Adobe Illustrator 25.2.0, SVG Export Plug-In . SVG Version: 6.00 Build 0)  -->
<svg version="1.1" id="Layer_1" xmlns="http://www.w3.org/2000/svg" xmlns:xlink="http://www.w3.org/1999/xlink" x="0px" y="0px"
	 viewBox="0 0 200 200" style="enable-background:new 0 0 200 200;" xml:space="preserve">
<style type="text/css">
	.st0{opacity:0;fill:#FFFFFF;}
	.st1{opacity:6.622517e-03;fill:#FEFEFE;}
	.st2{opacity:1.324503e-02;fill:#FDFDFD;}
	.st3{opacity:1.986755e-02;fill:#FDFDFD;}
	.st4{opacity:2.649007e-02;fill:#FCFCFC;}
	.st5{opacity:3.311258e-02;fill:#FBFBFB;}
	.st6{opacity:3.973510e-02;fill:#FAFAFA;}
	.st7{opacity:4.635762e-02;fill:#F9F9F9;}
	.st8{opacity:5.298013e-02;fill:#F9F9F9;}
	.st9{opacity:5.960265e-02;fill:#F8F8F8;}
	.st10{opacity:6.622516e-02;fill:#F7F7F7;}
	.st11{opacity:7.284768e-02;fill:#F6F6F6;}
	.st12{opacity:7.947020e-02;fill:#F5F5F5;}
	.st13{opacity:8.609272e-02;fill:#F4F4F4;}
	.st14{opacity:9.271523e-02;fill:#F4F4F4;}
	.st15{opacity:9.933775e-02;fill:#F3F3F3;}
	.st16{opacity:0.106;fill:#F2F2F2;}
	.st17{opacity:0.1126;fill:#F1F1F1;}
	.st18{opacity:0.1192;fill:#F0F0F0;}
	.st19{opacity:0.1258;fill:#F0F0F0;}
	.st20{opacity:0.1325;fill:#EFEFEF;}
	.st21{opacity:0.1391;fill:#EEEEEE;}
	.st22{opacity:0.1457;fill:#EDEDED;}
	.st23{opacity:0.1523;fill:#ECECEC;}
	.st24{opacity:0.1589;fill:#ECECEC;}
	.st25{opacity:0.1656;fill:#EBEBEB;}
	.st26{opacity:0.1722;fill:#EAEAEA;}
	.st27{opacity:0.1788;fill:#E9E9E9;}
	.st28{opacity:0.1854;fill:#E8E8E8;}
	.st29{opacity:0.1921;fill:#E8E8E8;}
	.st30{opacity:0.1987;fill:#E7E7E7;}
	.st31{opacity:0.2053;fill:#E6E6E6;}
	.st32{opacity:0.2119;fill:#E5E5E5;}
	.st33{opacity:0.2185;fill:#E4E4E4;}
	.st34{opacity:0.2252;fill:#E4E4E4;}
	.st35{opacity:0.2318;fill:#E3E3E3;}
	.st36{opacity:0.2384;fill:#E2E2E2;}
	.st37{opacity:0.245;fill:#E1E1E1;}
	.st38{opacity:0.2517;fill:#E0E0E0;}
	.st39{opacity:0.2583;fill:#DFDFDF;}
	.st40{opacity:0.2649;fill:#DFDFDF;}
	.st41{opacity:0.2715;fill:#DEDEDE;}
	.st42{opacity:0.2781;fill:#DDDDDD;}
	.st43{opacity:0.2848;fill:#DCDCDC;}
	.st44{opacity:0.2914;fill:#DBDBDB;}
	.st45{opacity:0.298;fill:#DBDBDB;}
	.st46{opacity:0.3046;fill:#DADADA;}
	.st47{opacity:0.3113;fill:#D9D9D9;}
	.st48{opacity:0.3179;fill:#D8D8D8;}
	.st49{opacity:0.3245;fill:#D7D7D7;}
	.st50{opacity:0.3311;fill:#D7D7D7;}
	.st51{opacity:0.3377;fill:#D6D6D6;}
	.st52{opacity:0.3444;fill:#D5D5D5;}
	.st53{opacity:0.351;fill:#D4D4D4;}
	.st54{opacity:0.3576;fill:#D3D3D3;}
	.st55{opacity:0.3642;fill:#D3D3D3;}
	.st56{opacity:0.3709;fill:#D2D2D2;}
	.st57{opacity:0.3775;fill:#D1D1D1;}
	.st58{opacity:0.3841;fill:#D0D0D0;}
	.st59{opacity:0.3907;fill:#CFCFCF;}
	.st60{opacity:0.3974;fill:#CFCFCF;}
	.st61{opacity:0.404;fill:#CECECE;}
	.st62{opacity:0.4106;fill:#CDCDCD;}
	.st63{opacity:0.4172;fill:#CCCCCC;}
	.st64{opacity:0.4238;fill:#CBCBCB;}
	.st65{opacity:0.4305;fill:#CACACA;}
	.st66{opacity:0.4371;fill:#CACACA;}
	.st67{opacity:0.4437;fill:#C9C9C9;}
	.st68{opacity:0.4503;fill:#C8C8C8;}
	.st69{opacity:0.457;fill:#C7C7C7;}
	.st70{opacity:0.4636;fill:#C6C6C6;}
	.st71{opacity:0.4702;fill:#C6C6C6;}
	.st72{opacity:0.4768;fill:#C5C5C5;}
	.st73{opacity:0.4834;fill:#C4C4C4;}
	.st74{opacity:0.4901;fill:#C3C3C3;}
	.st75{opacity:0.4967;fill:#C2C2C2;}
	.st76{opacity:0.5033;fill:#C2C2C2;}
	.st77{opacity:0.5099;fill:#C1C1C1;}
	.st78{opacity:0.5166;fill:#C0C0C0;}
	.st79{opacity:0.5232;fill:#BFBFBF;}
	.st80{opacity:0.5298;fill:#BEBEBE;}
	.st81{opacity:0.5364;fill:#BEBEBE;}
	.st82{opacity:0.543;fill:#BDBDBD;}
	.st83{opacity:0.5497;fill:#BCBCBC;}
	.st84{opacity:0.5563;fill:#BBBBBB;}
	.st85{opacity:0.5629;fill:#BABABA;}
	.st86{opacity:0.5695;fill:#BABABA;}
	.st87{opacity:0.5762;fill:#B9B9B9;}
	.st88{opacity:0.5828;fill:#B8B8B8;}
	.st89{opacity:0.5894;fill:#B7B7B7;}
	.st90{opacity:0.596;fill:#B6B6B6;}
	.st91{opacity:0.6026;fill:#B5B5B5;}
	.st92{opacity:0.6093;fill:#B5B5B5;}
	.st93{opacity:0.6159;fill:#B4B4B4;}
	.st94{opacity:0.6225;fill:#B3B3B3;}
	.st95{opacity:0.6291;fill:#B2B2B2;}
	.st96{opacity:0.6358;fill:#B1B1B1;}
	.st97{opacity:0.6424;fill:#B1B1B1;}
	.st98{opacity:0.649;fill:#B0B0B0;}
	.st99{opacity:0.6556;fill:#AFAFAF;}
	.st100{opacity:0.6623;fill:#AEAEAE;}
	.st101{opacity:0.6689;fill:#ADADAD;}
	.st102{opacity:0.6755;fill:#ADADAD;}
	.st103{opacity:0.6821;fill:#ACACAC;}
	.st104{opacity:0.6887;fill:#ABABAB;}
	.st105{opacity:0.6954;fill:#AAAAAA;}
	.st106{opacity:0.702;fill:#A9A9A9;}
	.st107{opacity:0.7086;fill:#A9A9A9;}
	.st108{opacity:0.7152;fill:#A8A8A8;}
	.st109{opacity:0.7219;fill:#A7A7A7;}
	.st110{opacity:0.7285;fill:#A6A6A6;}
	.st111{opacity:0.7351;fill:#A5A5A5;}
	.st112{opacity:0.7417;fill:#A5A5A5;}
	.st113{opacity:0.7483;fill:#A4A4A4;}
	.st114{opacity:0.755;fill:#A3A3A3;}
	.st115{opacity:0.7616;fill:#A2A2A2;}
	.st116{opacity:0.7682;fill:#A1A1A1;}
	.st117{opacity:0.7748;fill:#A0A0A0;}
	.st118{opacity:0.7815;fill:#A0A0A0;}
	.st119{opacity:0.7881;fill:#9F9F9F;}
	.st120{opacity:0.7947;fill:#9E9E9E;}
	.st121{opacity:0.8013;fill:#9D9D9D;}
	.st122{opacity:0.8079;fill:#9C9C9C;}
	.st123{opacity:0.8146;fill:#9C9C9C;}
	.st124{opacity:0.8212;fill:#9B9B9B;}
	.st125{opacity:0.8278;fill:#9A9A9A;}
	.st126{opacity:0.8344;fill:#999999;}
	.st127{opacity:0.8411;fill:#989898;}
	.st128{opacity:0.8477;fill:#989898;}
	.st129{opacity:0.8543;fill:#979797;}
	.st130{opacity:0.8609;fill:#969696;}
	.st131{opacity:0.8675;fill:#959595;}
	.st132{opacity:0.8742;fill:#949494;}
	.st133{opacity:0.8808;fill:#949494;}
	.st134{opacity:0.8874;fill:#939393;}
	.st135{opacity:0.894;fill:#929292;}
	.st136{opacity:0.9007;fill:#919191;}
	.st137{opacity:0.9073;fill:#909090;}
	.st138{opacity:0.9139;fill:#909090;}
	.st139{opacity:0.9205;fill:#8F8F8F;}
	.st140{opacity:0.9272;fill:#8E8E8E;}
	.st141{opacity:0.9338;fill:#8D8D8D;}
	.st142{opacity:0.9404;fill:#8C8C8C;}
	.st143{opacity:0.947;fill:#8B8B8B;}
	.st144{opacity:0.9536;fill:#8B8B8B;}
	.st145{opacity:0.9603;fill:#8A8A8A;}
	.st146{opacity:0.9669;fill:#898989;}
	.st147{opacity:0.9735;fill:#888888;}
	.st148{opacity:0.9801;fill:#878787;}
	.st149{opacity:0.9868;fill:#878787;}
	.st150{opacity:0.9934;fill:#868686;}
	.st151{fill:#858585;}
	.st152{fill:url(#SVGID_1_);}
	.st153{fill:#F8B032;}
	.st154{fill:#E84F1D;}
	.st155{fill:url(#SVGID_2_);}
	.st156{fill:url(#SVGID_3_);}
	.st157{fill:url(#SVGID_4_);}
</style>
<g>
	<g>
		<path class="st0" d="M184.5,58.1c18.2,57.6-1.4,100.5-45.4,126.9c-59.3,35.6-114.2-0.2-129.8-22.4C-8.6,137.1,0.3,82,27.2,43.1
			C56.9,0,131.9,3.8,160.3,26.3C160.3,26.3,177.3,38.6,184.5,58.1z"/>
		<path class="st1" d="M139.3,184.3c-58.9,35.5-113.6,0.1-129.3-21.9c-18-25.3-9.3-80.2,17.4-119.1C56.9,0.4,131.6,3.9,160,26.3
			c0.2,0,17.2,12.3,24.4,31.8C202.5,115.3,183,158,139.3,184.3z"/>
		<path class="st2" d="M139.6,183.7c-58.6,35.4-113,0.4-128.8-21.5C-7.3,137.1,1.1,82.4,27.6,43.6C56.9,0.7,131.3,4.1,159.7,26.3
			c0.4,0,17.5,12.4,24.6,31.9C202.3,114.9,183,157.5,139.6,183.7z"/>
		<path class="st3" d="M139.8,183.1C81.6,218.4,27.4,183.8,11.5,162c-18.2-24.9-10-79.4,16.3-118.2C56.9,1.1,130.9,4.2,159.4,26.3
			c0.5,0,17.7,12.4,24.8,31.9C202.1,114.6,182.9,156.9,139.8,183.1z"/>
		<path class="st4" d="M140,182.5c-57.8,35.3-111.8,1-127.8-20.6C-6,137.1,1.9,82.8,28.1,44.1c28.9-42.7,102.5-39.7,131-17.9
			c0.7,0,17.9,12.4,25.1,32C201.9,114.2,182.9,156.4,140,182.5z"/>
		<path class="st5" d="M140.2,181.8C82.8,217.1,29,183.1,13,161.7C-5.4,137.1,2.3,83.1,28.3,44.4c28.7-42.6,102-39.8,130.5-18.1
			c0.9,0,18.1,12.4,25.3,32C201.7,113.9,182.9,155.9,140.2,181.8z"/>
		<path class="st6" d="M140.5,181.2c-57.1,35.1-110.7,1.5-126.8-19.7c-18.5-24.4-11-78.2,14.8-116.8c28.5-42.5,101.5-40,130-18.4
			c1.1-0.1,18.4,12.4,25.5,32.1C201.5,113.6,182.8,155.3,140.5,181.2z"/>
		<path class="st7" d="M140.7,180.6c-56.8,35.1-110.1,1.8-126.3-19.3C-4.1,137.1,3.1,83.5,28.7,44.9C56.9,2.5,129.6,4.8,158.2,26.2
			c1.3-0.1,18.6,12.5,25.7,32.1C201.3,113.2,182.8,154.8,140.7,180.6z"/>
		<path class="st8" d="M140.9,180c-56.4,35-109.5,2.1-125.8-18.9c-18.7-24-11.7-77.5,13.7-116c28.1-42.4,100.4-40.2,129-19
			c1.4-0.1,18.8,12.5,26,32.1C201.1,112.9,182.8,154.2,140.9,180z"/>
		<path class="st9" d="M141.2,179.4c-56.1,34.9-109,2.4-125.3-18.4c-18.8-23.9-12-77.1,13.2-115.5C56.9,3.2,128.9,5.1,157.6,26.2
			c1.6-0.1,19,12.5,26.2,32.2C200.9,112.5,182.7,153.7,141.2,179.4z"/>
		<path class="st10" d="M141.4,178.7c-55.7,34.8-108.4,2.7-124.8-18C-2.2,137.1,4.3,84.1,29.3,45.7C56.9,3.5,128.6,5.3,157.2,26.2
			c1.8-0.1,19.2,12.5,26.4,32.2C200.7,112.2,182.7,153.2,141.4,178.7z"/>
		<path class="st11" d="M141.6,178.1c-55.3,34.8-107.8,3-124.3-17.5C-1.6,137.1,4.7,84.3,29.5,46C56.9,3.9,128.3,5.5,156.9,26.2
			c2-0.1,19.5,12.5,26.6,32.3C200.5,111.9,182.6,152.6,141.6,178.1z"/>
		<path class="st12" d="M141.8,177.5c-55,34.7-107.2,3.2-123.8-17.1c-19-23.3-13-75.9,11.6-114.2c27.2-42,98.2-40.6,126.9-20
			c2.2-0.1,19.7,12.6,26.9,32.3C200.3,111.5,182.6,152.1,141.8,177.5z"/>
		<path class="st13" d="M142.1,176.9c-54.6,34.6-106.7,3.5-123.3-16.6C-0.3,137.1,5.5,84.7,29.9,46.5c27-41.9,97.7-40.8,126.4-20.3
			c2.3-0.1,19.9,12.6,27.1,32.4C200.1,111.2,182.6,151.6,142.1,176.9z"/>
		<path class="st14" d="M142.3,176.3C88,210.8,36.2,180.1,19.5,160.1C0.3,137.1,5.9,84.9,30.1,46.8C56.9,4.9,127.3,5.9,156,26.2
			c2.5-0.1,20.1,12.6,27.3,32.4C199.9,110.8,182.5,151,142.3,176.3z"/>
		<path class="st15" d="M142.5,175.7C88.6,210.1,37,179.8,20.3,159.9C1,137.1,6.3,85.1,30.3,47c26.6-41.8,96.6-41,125.4-20.9
			c2.7-0.1,20.4,12.6,27.5,32.5C199.7,110.5,182.5,150.5,142.5,175.7z"/>
		<path class="st16" d="M142.8,175C89.2,209.4,37.8,179.4,21,159.7C1.6,137.1,6.7,85.4,30.5,47.3C56.9,5.6,126.6,6.2,155.4,26.2
			c2.9-0.1,20.6,12.6,27.8,32.5C199.5,110.1,182.4,150,142.8,175z"/>
		<path class="st17" d="M143,174.4c-53.2,34.3-104.3,4.7-121.3-14.9c-19.5-22.4-14.7-74,9-112C56.9,5.9,126.3,6.4,155.1,26.2
			c3-0.1,20.8,12.7,28,32.6C199.3,109.8,182.4,149.4,143,174.4z"/>
		<path class="st18" d="M143.2,173.8c-52.8,34.2-103.8,5-120.8-14.4C2.9,137.1,7.4,85.7,31,47.8c25.9-41.6,95-41.3,123.8-21.7
			c3.2-0.2,21,12.7,28.2,32.6C199.1,109.5,182.4,148.9,143.2,173.8z"/>
		<path class="st19" d="M143.4,173.2c-52.5,34.2-103.2,5.2-120.3-14c-19.7-22.1-15.4-73.2,8-111.1c25.7-41.5,94.4-41.4,123.3-22
			c3.4-0.2,21.3,12.7,28.5,32.7C198.9,109.1,182.3,148.3,143.4,173.2z"/>
		<path class="st20" d="M143.7,172.6C91.6,206.6,41.1,178.1,23.9,159C4.1,137.1,8.2,86.1,31.4,48.4C56.8,6.9,125.3,6.8,154.2,26.1
			c3.6-0.2,21.5,12.7,28.7,32.7C198.7,108.8,182.3,147.8,143.7,172.6z"/>
		<path class="st21" d="M143.9,171.9c-51.8,34-102,5.8-119.2-13.1C4.8,137.1,8.6,86.3,31.6,48.6C56.8,7.3,124.9,7,153.9,26.1
			c3.8-0.2,21.7,12.7,28.9,32.8C198.4,108.4,182.2,147.3,143.9,171.9z"/>
		<path class="st22" d="M144.1,171.3c-51.4,33.9-101.5,6.1-118.7-12.7c-20-21.5-16.4-72.1,6.4-109.7c25-41.3,92.8-41.8,121.8-22.8
			c3.9-0.2,21.9,12.8,29.1,32.8C198.2,108.1,182.2,146.7,144.1,171.3z"/>
		<path class="st23" d="M144.4,170.7c-51,33.9-100.9,6.4-118.2-12.2C6,137.1,9.3,86.8,32,49.2C56.8,8,124.3,7.3,153.2,26.1
			c4.1-0.2,22.1,12.8,29.4,32.9C198,107.8,182.2,146.2,144.4,170.7z"/>
		<path class="st24" d="M144.6,170.1c-50.7,33.8-100.3,6.6-117.7-11.8C6.7,137.1,9.7,87,32.2,49.4c24.6-41.1,91.7-42,120.7-23.3
			c4.3-0.2,22.4,12.8,29.6,32.9C197.8,107.4,182.1,145.7,144.6,170.1z"/>
		<path class="st25" d="M144.8,169.5c-50.3,33.7-99.7,6.9-117.2-11.4c-20.2-21-17.4-70.9,4.8-108.4c24.4-41,91.2-42.1,120.2-23.6
			c4.5-0.2,22.6,12.8,29.8,32.9C197.6,107.1,182.1,145.1,144.8,169.5z"/>
		<path class="st26" d="M145,168.8c-50,33.6-99.1,7.2-116.7-10.9C8,137.1,10.5,87.4,32.6,50C56.8,9,123.3,7.7,152.3,26.1
			c4.7-0.2,22.8,12.8,30,33C197.4,106.7,182,144.6,145,168.8z"/>
		<path class="st27" d="M145.3,168.2c-49.6,33.6-98.5,7.5-116.2-10.5C8.6,137.1,10.9,87.6,32.8,50.2C56.8,9.4,122.9,7.9,152,26.1
			c4.8-0.2,23,12.9,30.3,33C197.2,106.4,182,144,145.3,168.2z"/>
		<path class="st28" d="M145.5,167.6c-49.2,33.5-98,7.8-115.7-10C9.3,137.1,11.3,87.8,33,50.5C56.8,9.7,122.6,8,151.7,26.1
			c5-0.2,23.3,12.9,30.5,33.1C197,106,182,143.5,145.5,167.6z"/>
		<path class="st29" d="M145.7,167c-48.9,33.4-97.4,8.1-115.2-9.6C9.9,137.1,11.7,88,33.2,50.8c23.6-40.7,89-42.6,118.1-24.7
			c5.2-0.2,23.5,12.9,30.7,33.1C196.8,105.7,181.9,143,145.7,167z"/>
		<path class="st30" d="M145.9,166.4c-48.5,33.3-96.8,8.3-114.7-9.2c-20.7-20.2-19.1-69,2.2-106.2c23.3-40.6,88.5-42.7,117.6-25
			c5.4-0.3,23.7,12.9,30.9,33.2C196.6,105.4,181.9,142.4,145.9,166.4z"/>
		<path class="st31" d="M146.2,165.8C98,199,50,174.4,31.9,157c-20.8-20-19.5-68.6,1.7-105.8c23.1-40.5,88-42.8,117.1-25.2
			c5.6-0.3,23.9,12.9,31.2,33.2C196.4,105,181.9,141.9,146.2,165.8z"/>
		<path class="st32" d="M146.4,165.1c-47.8,33.2-95.6,8.9-113.7-8.3C11.8,137,12.9,88.6,33.9,51.5C56.8,11.1,121.3,8.6,150.5,26
			c5.7-0.3,24.2,13,31.4,33.3C196.2,104.7,181.8,141.4,146.4,165.1z"/>
		<path class="st33" d="M146.6,164.5c-47.5,33.1-95.1,9.2-113.2-7.8c-21-19.6-20.1-67.9,0.7-104.9c22.7-40.4,86.9-43,116.1-25.8
			c5.9-0.3,24.4,13,31.6,33.3C196,104.3,181.8,140.8,146.6,164.5z"/>
		<path class="st34" d="M146.9,163.9c-47.1,33-94.5,9.5-112.7-7.4C13.1,137,13.6,89,34.3,52.1c22.5-40.3,86.3-43.1,115.6-26
			c6.1-0.3,24.6,13,31.9,33.4C195.8,104,181.7,140.3,146.9,163.9z"/>
		<path class="st35" d="M147.1,163.3c-46.7,32.9-93.9,9.8-112.2-7C13.7,137,14,89.2,34.5,52.3c22.3-40.2,85.8-43.3,115-26.3
			c6.3-0.3,24.8,13,32.1,33.4C195.6,103.7,181.7,139.7,147.1,163.3z"/>
		<path class="st36" d="M147.3,162.7c-46.4,32.9-93.3,10-111.7-6.5C14.4,137,14.4,89.5,34.7,52.6C56.8,12.5,120,9.2,149.2,26
			c6.5-0.3,25.1,13,32.3,33.5C195.4,103.3,181.7,139.2,147.3,162.7z"/>
		<path class="st37" d="M147.5,162c-46,32.8-92.8,10.3-111.2-6.1C15,137,14.8,89.7,34.9,52.9c21.9-40.1,84.7-43.5,114-26.9
			c6.6-0.3,25.3,13.1,32.5,33.5C195.2,103,181.6,138.7,147.5,162z"/>
		<path class="st38" d="M147.8,161.4C102.1,194.1,55.6,172,37,155.8C15.6,137,15.2,89.9,35.1,53.1c21.7-40,84.2-43.6,113.5-27.1
			c6.8-0.3,25.5,13.1,32.8,33.6C195,102.6,181.6,138.1,147.8,161.4z"/>
		<path class="st39" d="M148,160.8c-45.3,32.6-91.6,10.9-110.2-5.2C16.3,137,15.6,90.1,35.3,53.4C56.8,13.5,119,9.7,148.3,26
			c7-0.3,25.7,13.1,33,33.6C194.8,102.3,181.5,137.6,148,160.8z"/>
		<path class="st40" d="M148.2,160.2c-44.9,32.6-91,11.2-109.7-4.8C16.9,137,16,90.3,35.5,53.7C56.8,13.9,118.6,9.8,148,26
			c7.2-0.3,25.9,13.1,33.2,33.7C194.6,101.9,181.5,137.1,148.2,160.2z"/>
		<path class="st41" d="M148.5,159.6C103.9,192.1,58,171,39.2,155.3C17.5,137,16.4,90.5,35.7,53.9c21-39.7,82.6-43.9,112-28
			c7.4-0.3,26.2,13.1,33.4,33.7C194.4,101.6,181.5,136.5,148.5,159.6z"/>
		<path class="st42" d="M148.7,158.9c-44.2,32.4-89.9,11.7-108.7-3.9c-21.8-18-23.2-64.4-4-100.9C56.8,14.5,118,10.1,147.4,26
			c7.5-0.4,26.4,13.2,33.7,33.8C194.2,101.3,181.4,136,148.7,158.9z"/>
		<path class="st43" d="M148.9,158.3c-43.9,32.3-89.3,12-108.2-3.4c-21.9-17.9-23.5-64-4.5-100.4C56.7,14.9,117.6,10.3,147.1,26
			c7.7-0.4,26.6,13.2,33.9,33.8C194,100.9,181.4,135.5,148.9,158.3z"/>
		<path class="st44" d="M149.1,157.7c-43.5,32.3-88.7,12.3-107.7-3c-22-17.7-23.9-63.6-5.1-100C56.7,15.2,117.3,10.4,146.8,26
			c7.9-0.4,26.8,13.2,34.1,33.8C193.8,100.6,181.3,134.9,149.1,157.7z"/>
		<path class="st45" d="M149.4,157.1c-43.2,32.2-88.1,12.6-107.2-2.5C20.1,137,18,91.3,36.6,55C56.7,15.6,117,10.6,146.5,25.9
			c8.1-0.4,27.1,13.2,34.3,33.9C193.6,100.2,181.3,134.4,149.4,157.1z"/>
		<path class="st46" d="M149.6,156.5c-42.8,32.1-87.6,12.9-106.7-2.1C20.7,137,18.4,91.5,36.8,55.3c20-39.3,79.9-44.5,109.4-29.3
			c8.2-0.4,27.3,13.2,34.6,33.9C193.4,99.9,181.3,133.8,149.6,156.5z"/>
		<path class="st47" d="M149.8,155.9c-42.4,32-87,13.2-106.2-1.7C21.4,137,18.7,91.7,37,55.5c19.8-39.2,79.3-44.6,108.9-29.6
			c8.4-0.4,27.5,13.3,34.8,34C193.2,99.6,181.2,133.3,149.8,155.9z"/>
		<path class="st48" d="M150.1,155.2c-42.1,32-86.4,13.4-105.7-1.2C22,137,19.1,92,37.2,55.8C56.7,16.6,116,11,145.5,25.9
			c8.6-0.4,27.7,13.3,35,34C193,99.2,181.2,132.8,150.1,155.2z"/>
		<path class="st49" d="M150.3,154.6c-41.7,31.9-85.8,13.7-105.2-0.8C22.6,137,19.5,92.2,37.4,56.1C56.7,17,115.6,11.2,145.2,25.9
			c8.8-0.4,28,13.3,35.3,34.1C192.8,98.9,181.2,132.2,150.3,154.6z"/>
		<path class="st50" d="M150.5,154c-41.4,31.8-85.2,14-104.7-0.3C23.3,137,19.9,92.4,37.6,56.3c19.1-39,77.7-45,107.3-30.4
			c9-0.4,28.2,13.3,35.5,34.1C192.6,98.5,181.1,131.7,150.5,154z"/>
		<path class="st51" d="M150.7,153.4c-41,31.7-84.7,14.3-104.2,0.1C23.9,137,20.3,92.6,37.8,56.6C56.7,17.7,115,11.5,144.6,25.9
			c9.1-0.4,28.4,13.3,35.7,34.2C192.4,98.2,181.1,131.2,150.7,153.4z"/>
		<path class="st52" d="M151,152.8c-40.7,31.7-84.1,14.6-103.7,0.5C24.5,137,20.7,92.8,38,56.8c18.7-38.8,76.6-45.2,106.3-31
			c9.3-0.4,28.6,13.4,35.9,34.2C192.2,97.8,181,130.6,151,152.8z"/>
		<path class="st53" d="M151.2,152.1c-40.3,31.6-83.5,14.9-103.2,1C25.2,137,21.1,93,38.2,57.1C56.7,18.4,114.3,11.8,144,25.9
			c9.5-0.4,28.8,13.4,36.2,34.3C192,97.5,181,130.1,151.2,152.1z"/>
		<path class="st54" d="M151.4,151.5c-39.9,31.5-82.9,15.2-102.7,1.4C25.8,137,21.5,93.2,38.4,57.4C56.7,18.7,114,12,143.7,25.9
			c9.7-0.5,29.1,13.4,36.4,34.3C191.8,97.2,181,129.5,151.4,151.5z"/>
		<path class="st55" d="M151.7,150.9c-39.6,31.4-82.4,15.4-102.2,1.9c-23-15.7-27.6-59.3-10.8-95.1c18.1-38.6,75-45.5,104.7-31.8
			c9.9-0.5,29.3,13.4,36.6,34.4C191.6,96.8,180.9,129,151.7,150.9z"/>
		<path class="st56" d="M151.9,150.3c-39.2,31.4-81.8,15.7-101.7,2.3c-23.1-15.6-27.9-59-11.3-94.7c17.9-38.5,74.5-45.7,104.2-32.1
			c10-0.5,29.5,13.4,36.8,34.4C191.4,96.5,180.9,128.5,151.9,150.3z"/>
		<path class="st57" d="M152.1,149.7c-38.9,31.3-81.2,16-101.2,2.7C27.7,137,22.7,93.8,39.1,58.2C56.7,19.8,113,12.4,142.8,25.8
			c10.2-0.5,29.7,13.5,37.1,34.5C191.2,96.1,180.8,127.9,152.1,149.7z"/>
		<path class="st58" d="M152.3,149c-38.5,31.2-80.6,16.3-100.7,3.2C28.3,137,23.1,94,39.3,58.4c17.4-38.3,73.4-45.9,103.2-32.6
			c10.4-0.5,30,13.5,37.3,34.5C191,95.8,180.8,127.4,152.3,149z"/>
		<path class="st59" d="M152.6,148.4C114.4,179.6,72.5,165,52.4,152C29,137,23.5,94.2,39.5,58.7c17.2-38.3,72.8-46,102.7-32.9
			c10.6-0.5,30.2,13.5,37.5,34.6C190.8,95.5,180.8,126.9,152.6,148.4z"/>
		<path class="st60" d="M152.8,147.8c-37.8,31.1-79.5,16.9-99.7,4.1C29.6,137,23.9,94.5,39.7,59c17-38.2,72.3-46.1,102.1-33.1
			c10.8-0.5,30.4,13.5,37.7,34.6C190.6,95.1,180.7,126.3,152.8,147.8z"/>
		<path class="st61" d="M153,147.2c-37.4,31-78.9,17.1-99.2,4.5c-23.6-14.7-29.6-57-13.9-92.5C56.7,21.1,111.6,13,141.5,25.8
			c10.9-0.5,30.6,13.5,38,34.7C190.4,94.8,180.7,125.8,153,147.2z"/>
		<path class="st62" d="M153.2,146.6c-37.1,30.9-78.3,17.4-98.7,4.9c-23.7-14.5-29.9-56.6-14.5-92c16.6-38,71.2-46.3,101.1-33.7
			c11.1-0.5,30.9,13.6,38.2,34.7C190.2,94.4,180.6,125.3,153.2,146.6z"/>
		<path class="st63" d="M153.5,145.9c-36.7,30.8-77.7,17.7-98.2,5.4C31.5,137,25,95.1,40.3,59.8c16.4-37.9,70.7-46.5,100.6-34
			c11.3-0.5,31.1,13.6,38.4,34.7C189.9,94.1,180.6,124.7,153.5,145.9z"/>
		<path class="st64" d="M153.7,145.3c-36.4,30.8-77.2,18-97.7,5.8C32.2,137,25.4,95.3,40.5,60c16.2-37.8,70.1-46.6,100.1-34.2
			c11.5-0.5,31.3,13.6,38.7,34.8C189.7,93.7,180.6,124.2,153.7,145.3z"/>
		<path class="st65" d="M153.9,144.7c-36,30.7-76.6,18.3-97.2,6.3c-23.9-14-30.9-55.5-16-90.7c16-37.8,69.6-46.7,99.6-34.5
			c11.7-0.5,31.5,13.6,38.9,34.8C189.5,93.4,180.5,123.6,153.9,144.7z"/>
		<path class="st66" d="M154.2,144.1c-35.6,30.6-76,18.6-96.7,6.7c-24-13.8-31.2-55.1-16.5-90.2C56.7,22.9,110,13.8,140,25.8
			c11.8-0.6,31.7,13.6,39.1,34.9C189.3,93.1,180.5,123.1,154.2,144.1z"/>
		<path class="st67" d="M154.4,143.5c-35.3,30.5-75.4,18.8-96.2,7.1C34.1,137,26.6,95.9,41.1,60.8c15.6-37.6,68.5-46.9,98.5-35.1
			c12-0.6,32,13.7,39.3,34.9C189.1,92.7,180.5,122.6,154.4,143.5z"/>
		<path class="st68" d="M154.6,142.9c-34.9,30.5-74.9,19.1-95.7,7.6C34.7,137,27,96.1,41.3,61.1c15.3-37.5,68-47,98-35.3
			c12.2-0.6,32.2,13.7,39.6,35C188.9,92.4,180.4,122,154.6,142.9z"/>
		<path class="st69" d="M154.8,142.2c-34.6,30.4-74.3,19.4-95.2,8C35.3,137,27.4,96.3,41.5,61.4c15.1-37.4,67.4-47.1,97.5-35.6
			c12.4-0.6,32.4,13.7,39.8,35C188.7,92,180.4,121.5,154.8,142.2z"/>
		<path class="st70" d="M155.1,141.6c-34.2,30.3-73.7,19.7-94.7,8.5C36,137,27.8,96.6,41.8,61.6c14.9-37.3,66.9-47.3,97-35.9
			c12.6-0.6,32.6,13.7,40,35.1C188.5,91.7,180.3,121,155.1,141.6z"/>
		<path class="st71" d="M155.3,141c-33.8,30.2-73.1,20-94.2,8.9C36.6,137,28.2,96.8,42,61.9c14.7-37.3,66.4-47.4,96.5-36.1
			c12.7-0.6,32.9,13.7,40.2,35.1C188.3,91.4,180.3,120.4,155.3,141z"/>
		<path class="st72" d="M155.5,140.4c-33.5,30.2-72.6,20.3-93.7,9.3C37.2,137,28.6,97,42.2,62.2c14.5-37.2,65.8-47.5,96-36.4
			c12.9-0.6,33.1,13.8,40.5,35.2C188.1,91,180.3,119.9,155.5,140.4z"/>
		<path class="st73" d="M155.8,139.8c-33.1,30.1-72,20.6-93.2,9.8C37.9,137,29,97.2,42.4,62.4c14.3-37.1,65.3-47.6,95.4-36.7
			c13.1-0.6,33.3,13.8,40.7,35.2C187.9,90.7,180.2,119.3,155.8,139.8z"/>
		<path class="st74" d="M156,139.1c-32.8,30-71.4,20.8-92.7,10.2c-24.8-12.4-33.9-52-20.7-86.7c14.1-37,64.7-47.7,94.9-37
			c13.3-0.6,33.5,13.8,40.9,35.3C187.7,90.3,180.2,118.8,156,139.1z"/>
		<path class="st75" d="M156.2,138.5c-32.4,29.9-70.8,21.1-92.2,10.7C39.1,137,29.8,97.6,42.8,62.9C56.7,26,107,15.1,137.2,25.7
			c13.4-0.6,33.8,13.8,41.1,35.3C187.5,90,180.1,118.3,156.2,138.5z"/>
		<path class="st76" d="M156.4,137.9c-32.1,29.8-70.3,21.4-91.7,11.1c-25-12-34.6-51.2-21.8-85.8c13.7-36.8,63.6-47.9,93.9-37.5
			c13.6-0.6,34,13.8,41.4,35.4C187.3,89.6,180.1,117.7,156.4,137.9z"/>
		<path class="st77" d="M156.7,137.3C125,167.1,87,159,65.5,148.8C40.4,137,30.6,98,43.2,63.5c13.5-36.8,63.1-48,93.4-37.8
			c13.8-0.6,34.2,13.9,41.6,35.4C187.1,89.3,180.1,117.2,156.7,137.3z"/>
		<path class="st78" d="M156.9,136.7c-31.3,29.7-69.1,22-90.7,12C41.1,137,31,98.2,43.4,63.7c13.3-36.7,62.6-48.2,92.9-38.1
			c14-0.7,34.4,13.9,41.8,35.5C186.9,89,180,116.7,156.9,136.7z"/>
		<path class="st79" d="M157.1,136c-31,29.6-68.5,22.3-90.2,12.4C41.7,137,31.3,98.4,43.6,64c13-36.6,62-48.3,92.3-38.3
			c14.2-0.7,34.7,13.9,42.1,35.5C186.7,88.6,180,116.1,157.1,136z"/>
		<path class="st80" d="M157.4,135.4C126.7,165,89.4,158,67.7,148.3c-25.4-11.3-35.9-49.6-23.8-84c12.8-36.5,61.5-48.4,91.8-38.6
			c14.3-0.7,34.9,13.9,42.3,35.5C186.5,88.3,179.9,115.6,157.4,135.4z"/>
		<path class="st81" d="M157.6,134.8c-30.3,29.5-67.4,22.8-89.2,13.3C43,137,32.1,98.9,44,64.5C56.7,28.1,105,16,135.4,25.7
			c14.5-0.7,35.1,13.9,42.5,35.6C186.3,87.9,179.9,115.1,157.6,134.8z"/>
		<path class="st82" d="M157.8,134.2c-29.9,29.4-66.8,23.1-88.7,13.8C43.6,137,32.5,99.1,44.2,64.8c12.4-36.3,60.4-48.6,90.8-39.1
			c14.7-0.7,35.3,14,42.7,35.6C186.1,87.6,179.9,114.5,157.8,134.2z"/>
		<path class="st83" d="M158,133.6c-29.5,29.3-66.2,23.4-88.2,14.2C44.2,137,32.9,99.3,44.5,65.1c12.2-36.3,59.9-48.7,90.3-39.4
			c14.9-0.7,35.5,14,43,35.7C185.9,87.3,179.8,114,158,133.6z"/>
		<path class="st84" d="M158.3,133c-29.2,29.2-65.6,23.7-87.7,14.6C44.9,137,33.3,99.5,44.7,65.3c12-36.2,59.3-48.8,89.8-39.7
			c15.1-0.7,35.8,14,43.2,35.7C185.7,86.9,179.8,113.4,158.3,133z"/>
		<path class="st85" d="M158.5,132.3c-28.8,29.2-65.1,24-87.2,15.1C45.5,137,33.7,99.7,44.9,65.6c11.8-36.1,58.8-49,89.2-40
			c15.2-0.7,36,14,43.4,35.8C185.5,86.6,179.8,112.9,158.5,132.3z"/>
		<path class="st86" d="M158.7,131.7c-28.5,29.1-64.5,24.3-86.7,15.5c-25.9-10.2-37.9-47.3-27-81.4c11.6-36,58.2-49.1,88.7-40.2
			c15.4-0.7,36.2,14,43.6,35.8C185.3,86.2,179.7,112.4,158.7,131.7z"/>
		<path class="st87" d="M159,131.1c-28.1,29-63.9,24.5-86.2,16c-26-10-38.3-46.9-27.5-80.9c11.4-35.9,57.7-49.2,88.2-40.5
			c15.6-0.7,36.4,14.1,43.9,35.9C185.1,85.9,179.7,111.8,159,131.1z"/>
		<path class="st88" d="M159.2,130.5c-27.8,28.9-63.3,24.8-85.7,16.4c-26.1-9.9-38.6-46.5-28-80.5c11.2-35.8,57.2-49.3,87.7-40.8
			c15.8-0.7,36.7,14.1,44.1,35.9C184.9,85.5,179.6,111.3,159.2,130.5z"/>
		<path class="st89" d="M159.4,129.9C132,158.7,96.6,155,74.2,146.7c-26.2-9.7-38.9-46.1-28.5-80c11-35.8,56.6-49.4,87.2-41.1
			c16-0.7,36.9,14.1,44.3,36C184.7,85.2,179.6,110.8,159.4,129.9z"/>
		<path class="st90" d="M159.6,129.2c-27,28.8-62.2,25.4-84.7,17.3c-26.3-9.5-39.3-45.8-29.1-79.6c10.8-35.7,56.1-49.5,86.7-41.3
			c16.1-0.8,37.1,14.1,44.5,36C184.5,84.9,179.6,110.2,159.6,129.2z"/>
		<path class="st91" d="M159.9,128.6c-26.7,28.7-61.6,25.7-84.2,17.7C49.3,137,36.1,101,46.1,67.2c10.6-35.6,55.5-49.6,86.2-41.6
			c16.3-0.8,37.3,14.1,44.8,36.1C184.3,84.5,179.5,109.7,159.9,128.6z"/>
		<path class="st92" d="M160.1,128c-26.3,28.6-61,26-83.7,18.2c-26.5-9.1-39.9-45-30.1-78.7c10.4-35.5,55-49.8,85.6-41.9
			c16.5-0.8,37.6,14.2,45,36.1C184.1,84.2,179.5,109.1,160.1,128z"/>
		<path class="st93" d="M160.3,127.4c-26,28.6-60.5,26.3-83.2,18.6c-26.6-9-40.3-44.6-30.6-78.3c10.1-35.4,54.5-49.9,85.1-42.2
			c16.7-0.8,37.8,14.2,45.2,36.2C183.9,83.8,179.4,108.6,160.3,127.4z"/>
		<path class="st94" d="M160.6,126.8c-25.6,28.5-59.9,26.5-82.7,19C51.2,137,37.3,101.6,46.7,68c9.9-35.3,53.9-50,84.6-42.4
			c16.9-0.8,38,14.2,45.5,36.2C183.7,83.5,179.4,108.1,160.6,126.8z"/>
		<path class="st95" d="M160.8,126.1c-25.2,28.4-59.3,26.8-82.2,19.5c-26.8-8.6-40.9-43.8-31.7-77.4C56.7,33,100.3,18.2,131,25.6
			c17-0.8,38.2,14.2,45.7,36.3C183.5,83.2,179.4,107.5,160.8,126.1z"/>
		<path class="st96" d="M161,125.5c-24.9,28.3-58.7,27.1-81.7,19.9C52.5,137,38.1,102,47.2,68.5c9.5-35.2,52.8-50.2,83.6-43
			c17.2-0.8,38.4,14.2,45.9,36.3C183.3,82.8,179.3,107,161,125.5z"/>
		<path class="st97" d="M161.2,124.9c-24.5,28.3-58.2,27.4-81.2,20.4c-27-8.3-41.6-43-32.7-76.5c9.3-35.1,52.3-50.3,83.1-43.2
			c17.4-0.8,38.7,14.3,46.1,36.4C183.1,82.5,179.3,106.5,161.2,124.9z"/>
		<path class="st98" d="M161.5,124.3c-24.2,28.2-57.6,27.7-80.7,20.8c-27.1-8.1-41.9-42.6-33.2-76c9.1-35,51.8-50.4,82.5-43.5
			c17.6-0.8,38.9,14.3,46.4,36.4C182.9,82.1,179.2,105.9,161.5,124.3z"/>
		<path class="st99" d="M161.7,123.7c-23.8,28.1-57,28-80.2,21.2c-27.2-7.9-42.3-42.3-33.8-75.6c8.9-34.9,51.2-50.6,82-43.8
			c17.8-0.8,39.1,14.3,46.6,36.4C182.7,81.8,179.2,105.4,161.7,123.7z"/>
		<path class="st100" d="M161.9,123.1c-23.5,28-56.4,28.3-79.7,21.7C55,137,39.7,102.9,48,69.6c8.7-34.8,50.7-50.7,81.5-44.1
			c17.9-0.8,39.3,14.3,46.8,36.5C182.5,81.4,179.2,104.8,161.9,123.1z"/>
		<path class="st101" d="M162.1,122.4c-23.1,28-55.8,28.5-79.2,22.1c-27.3-7.5-42.9-41.5-34.8-74.7c8.5-34.7,50.1-50.8,81-44.3
			c18.1-0.8,39.6,14.3,47,36.5C182.3,81.1,179.1,104.3,162.1,122.4z"/>
		<path class="st102" d="M162.4,121.8c-22.7,27.9-55.3,28.8-78.7,22.6c-27.4-7.4-43.3-41.1-35.3-74.3c8.3-34.7,49.6-50.9,80.5-44.6
			c18.3-0.9,39.8,14.4,47.3,36.6C182.1,80.8,179.1,103.8,162.4,121.8z"/>
		<path class="st103" d="M162.6,121.2c-22.4,27.8-54.7,29.1-78.2,23c-27.5-7.2-43.6-40.7-35.8-73.8c8.1-34.6,49.1-51,80-44.9
			c18.5-0.9,40,14.4,47.5,36.6C181.9,80.4,179.1,103.2,162.6,121.2z"/>
		<path class="st104" d="M162.8,120.6c-22,27.7-54.1,29.4-77.6,23.4c-27.6-7-43.9-40.3-36.4-73.4c7.9-34.5,48.5-51.1,79.4-45.2
			c18.6-0.9,40.2,14.4,47.7,36.7C181.7,80.1,179,102.7,162.8,120.6z"/>
		<path class="st105" d="M163.1,120c-21.7,27.7-53.5,29.7-77.1,23.9C58.2,137,41.7,103.9,49,70.9c7.7-34.4,48-51.2,78.9-45.4
			c18.8-0.9,40.5,14.4,47.9,36.7C181.4,79.7,179,102.2,163.1,120z"/>
		<path class="st106" d="M163.3,119.3c-21.3,27.6-53,30-76.6,24.3c-27.8-6.6-44.6-39.5-37.4-72.5c7.5-34.3,47.4-51.4,78.4-45.7
			c19-0.9,40.7,14.4,48.2,36.8C181.2,79.4,178.9,101.6,163.3,119.3z"/>
		<path class="st107" d="M163.5,118.7c-20.9,27.5-52.4,30.3-76.1,24.8c-27.9-6.5-44.9-39.1-37.9-72.1c7.3-34.2,46.9-51.5,77.9-46
			c19.2-0.9,40.9,14.4,48.4,36.8C181,79.1,178.9,101.1,163.5,118.7z"/>
		<path class="st108" d="M163.7,118.1c-20.6,27.4-51.8,30.5-75.6,25.2c-28-6.3-45.3-38.8-38.5-71.6C56.7,37.6,96,20.1,127,25.5
			c19.4-0.9,41.1,14.5,48.6,36.9C180.8,78.7,178.9,100.6,163.7,118.1z"/>
		<path class="st109" d="M164,117.5c-20.2,27.4-51.2,30.8-75.1,25.7c-28.1-6.1-45.6-38.4-39-71.2c6.9-34.1,45.8-51.7,76.9-46.5
			c19.5-0.9,41.3,14.5,48.9,36.9C180.6,78.4,178.8,100,164,117.5z"/>
		<path class="st110" d="M164.2,116.9c-19.9,27.3-50.7,31.1-74.6,26.1c-28.2-5.9-45.9-38-39.5-70.7c6.7-34,45.3-51.8,76.4-46.8
			c19.7-0.9,41.6,14.5,49.1,37C180.4,78,178.8,99.5,164.2,116.9z"/>
		<path class="st111" d="M164.4,116.2c-19.5,27.2-50.1,31.4-74.1,26.5C62,137,44,105.2,50.3,72.5c6.4-33.9,44.7-51.9,75.8-47.1
			c19.9-0.9,41.8,14.5,49.3,37C180.2,77.7,178.7,98.9,164.4,116.2z"/>
		<path class="st112" d="M164.7,115.6c-19.2,27.1-49.5,31.7-73.6,27c-28.4-5.6-46.6-37.2-40.5-69.8c6.2-33.8,44.2-52,75.3-47.3
			c20.1-0.9,42,14.5,49.5,37.1C180,77.3,178.7,98.4,164.7,115.6z"/>
		<path class="st113" d="M164.9,115c-18.8,27.1-48.9,32-73.1,27.4C63.3,137,44.8,105.6,50.7,73c6-33.7,43.7-52.2,74.8-47.6
			c20.3-0.9,42.2,14.6,49.8,37.1C179.8,77,178.7,97.9,164.9,115z"/>
		<path class="st114" d="M165.1,114.4c-18.4,27-48.4,32.3-72.6,27.9c-28.6-5.2-47.2-36.4-41.6-69C56.7,39.7,94,21,125.2,25.4
			c20.4-1,42.5,14.6,50,37.2C179.6,76.7,178.6,97.3,165.1,114.4z"/>
		<path class="st115" d="M165.3,113.8c-18.1,26.9-47.8,32.6-72.1,28.3c-28.7-5-47.6-36-42.1-68.5c5.6-33.5,42.6-52.4,73.8-48.2
			c20.6-1,42.7,14.6,50.2,37.2C179.4,76.3,178.6,96.8,165.3,113.8z"/>
		<path class="st116" d="M165.6,113.2c-17.7,26.8-47.2,32.8-71.6,28.7c-28.8-4.8-47.9-35.6-42.6-68.1c5.4-33.5,42-52.5,73.3-48.4
			c20.8-1,42.9,14.6,50.4,37.3C179.2,76,178.5,96.3,165.6,113.2z"/>
		<path class="st117" d="M165.8,112.5c-17.4,26.8-46.6,33.1-71.1,29.2c-28.9-4.7-48.2-35.2-43.1-67.6c5.2-33.4,41.5-52.6,72.7-48.7
			c21-1,43.1,14.6,50.7,37.3C179,75.6,178.5,95.7,165.8,112.5z"/>
		<path class="st118" d="M166,111.9c-17,26.7-46.1,33.4-70.6,29.6c-29-4.5-48.6-34.9-43.7-67.2c5-33.3,41-52.7,72.2-49
			c21.2-1,43.4,14.7,50.9,37.3C178.8,75.3,178.5,95.2,166,111.9z"/>
		<path class="st119" d="M166.3,111.3c-16.6,26.6-45.5,33.7-70.1,30.1c-29-4.3-48.9-34.5-44.2-66.7c4.8-33.2,40.4-52.8,71.7-49.2
			c21.3-1,43.6,14.7,51.1,37.4C178.6,75,178.4,94.6,166.3,111.3z"/>
		<path class="st120" d="M166.5,110.7c-16.3,26.5-44.9,34-69.6,30.5c-29.1-4.1-49.2-34.1-44.7-66.3c4.6-33.1,39.9-52.9,71.2-49.5
			c21.5-1,43.8,14.7,51.3,37.4C178.4,74.6,178.4,94.1,166.5,110.7z"/>
		<path class="st121" d="M166.7,110.1c-15.9,26.4-44.3,34.3-69.1,30.9c-29.2-3.9-49.5-33.7-45.2-65.9c4.4-33,39.3-53.1,70.7-49.8
			c21.7-1,44,14.7,51.6,37.5C178.2,74.3,178.3,93.6,166.7,110.1z"/>
		<path class="st122" d="M166.9,109.4c-15.6,26.4-43.7,34.6-68.6,31.4c-29.3-3.8-49.9-33.3-45.8-65.4c4.2-33,38.8-53.2,70.2-50.1
			c21.9-1,44.3,14.7,51.8,37.5C178,73.9,178.3,93,166.9,109.4z"/>
		<path class="st123" d="M167.2,108.8C152,135.1,124,143.7,99,140.6c-29.4-3.6-50.2-32.9-46.3-65c4-32.9,38.3-53.3,69.6-50.3
			c22.1-1,44.5,14.8,52,37.6C177.8,73.6,178.3,92.5,167.2,108.8z"/>
		<path class="st124" d="M167.4,108.2c-14.9,26.2-42.6,35.1-67.6,32.3c-29.5-3.4-50.5-32.5-46.8-64.5c3.8-32.8,37.7-53.4,69.1-50.6
			c22.2-1,44.7,14.8,52.3,37.6C177.6,73.2,178.2,92,167.4,108.2z"/>
		<path class="st125" d="M167.6,107.6c-14.5,26.1-42,35.4-67.1,32.7c-29.6-3.2-50.9-32.1-47.3-64.1c3.6-32.7,37.2-53.5,68.6-50.9
			c22.4-1,44.9,14.8,52.5,37.7C177.4,72.9,178.2,91.4,167.6,107.6z"/>
		<path class="st126" d="M167.9,107c-14.1,26.1-41.4,35.7-66.6,33.1c-29.7-3-51.2-31.7-47.8-63.6c3.4-32.6,36.6-53.6,68.1-51.2
			c22.6-1.1,45.1,14.8,52.7,37.7C177.2,72.6,178.2,90.9,167.9,107z"/>
		<path class="st127" d="M168.1,106.3c-13.8,26-40.9,36-66.1,33.6c-29.8-2.8-51.5-31.4-48.4-63.2c3.2-32.5,36.1-53.7,67.6-51.4
			c22.8-1.1,45.4,14.8,52.9,37.8C177,72.2,178.1,90.4,168.1,106.3z"/>
		<path class="st128" d="M168.3,105.7c-13.4,25.9-40.3,36.3-65.6,34c-29.9-2.7-51.8-31-48.9-62.7c3-32.4,35.6-53.9,67.1-51.7
			c23-1.1,45.6,14.9,53.2,37.8C176.8,71.9,178.1,89.8,168.3,105.7z"/>
		<path class="st129" d="M168.5,105.1c-13.1,25.8-39.7,36.6-65.1,34.5c-30-2.4-52.2-30.6-49.4-62.3c2.8-32.4,35-54,66.5-52
			c23.1-1.1,45.8,14.9,53.4,37.9C176.6,71.5,178,89.3,168.5,105.1z"/>
		<path class="st130" d="M168.8,104.5c-12.7,25.8-39.1,36.9-64.6,34.9c-30.1-2.3-52.5-30.2-49.9-61.9c2.6-32.3,34.5-54.1,66-52.2
			c23.3-1.1,46,14.9,53.6,37.9C176.4,71.2,178,88.7,168.8,104.5z"/>
		<path class="st131" d="M169,103.9c-12.3,25.7-38.6,37.2-64.1,35.3c-30.2-2.1-52.8-29.8-50.5-61.4c2.4-32.2,33.9-54.2,65.5-52.5
			c23.5-1.1,46.3,14.9,53.8,38C176.2,70.9,178,88.2,169,103.9z"/>
		<path class="st132" d="M169.2,103.2c-12,25.6-38,37.5-63.6,35.8c-30.3-1.9-53.1-29.4-51-61c2.2-32.1,33.4-54.3,65-52.8
			c23.7-1.1,46.5,14.9,54.1,38C176,70.5,177.9,87.7,169.2,103.2z"/>
		<path class="st133" d="M169.4,102.6c-11.6,25.5-37.4,37.8-63.1,36.2c-30.4-1.7-53.5-29-51.5-60.5c2-32,32.9-54.4,64.5-53.1
			c23.8-1.1,46.7,15,54.3,38.1C175.8,70.2,177.9,87.1,169.4,102.6z"/>
		<path class="st134" d="M169.7,102c-11.3,25.5-36.8,38-62.6,36.7c-30.5-1.5-53.8-28.6-52-60.1c1.8-31.9,32.3-54.5,64-53.3
			c24-1.1,46.9,15,54.5,38.1C175.6,69.8,177.8,86.6,169.7,102z"/>
		<path class="st135" d="M169.9,101.4c-10.9,25.4-36.3,38.3-62.1,37.1c-30.6-1.4-54.1-28.2-52.5-59.6C56.9,47,87,24.2,118.7,25.2
			c24.2-1.1,47.2,15,54.7,38.1C175.4,69.5,177.8,86.1,169.9,101.4z"/>
		<path class="st136" d="M170.1,100.8c-10.6,25.3-35.7,38.6-61.6,37.5c-30.7-1.2-54.4-27.9-53.1-59.2c1.4-31.8,31.2-54.8,62.9-53.9
			c24.4-1.1,47.4,15,55,38.2C175.2,69.1,177.8,85.5,170.1,100.8z"/>
		<path class="st137" d="M170.4,100.2c-10.2,25.2-35.1,38.9-61.1,38c-30.7-1-54.8-27.5-53.6-58.8c1.2-31.7,30.7-54.9,62.4-54.2
			c24.6-1.1,47.6,15,55.2,38.2C175,68.8,177.7,85,170.4,100.2z"/>
		<path class="st138" d="M170.6,99.5c-9.8,25.2-34.5,39.2-60.6,38.4c-30.8-0.8-55.1-27.1-54.1-58.3c1-31.6,30.2-55,61.9-54.4
			c24.7-1.2,47.8,15.1,55.4,38.3C174.8,68.5,177.7,84.4,170.6,99.5z"/>
		<path class="st139" d="M170.8,98.9c-9.5,25.1-33.9,39.5-60.1,38.9c-30.9-0.6-55.4-26.7-54.6-57.9c0.8-31.5,29.6-55.1,61.4-54.7
			c24.9-1.2,48,15.1,55.7,38.3C174.6,68.1,177.6,83.9,170.8,98.9z"/>
		<path class="st140" d="M171,98.3c-9.1,25-33.4,39.8-59.6,39.3c-31-0.5-55.8-26.3-55.1-57.4c0.6-31.4,29.1-55.2,60.9-55
			c25.1-1.2,48.3,15.1,55.9,38.4C174.4,67.8,177.6,83.4,171,98.3z"/>
		<path class="st141" d="M171.3,97.7c-8.8,24.9-32.8,40-59.1,39.8c-31.1-0.3-56.1-25.9-55.7-57c0.4-31.4,28.5-55.3,60.4-55.2
			c25.3-1.2,48.5,15.1,56.1,38.4C174.2,67.4,177.6,82.8,171.3,97.7z"/>
		<path class="st142" d="M171.5,97.1c-8.4,24.9-32.2,40.3-58.6,40.2c-31.2-0.1-56.4-25.5-56.2-56.5c0.2-31.3,28-55.5,59.8-55.5
			c25.5-1.2,48.7,15.1,56.3,38.5C174,67.1,177.5,82.3,171.5,97.1z"/>
		<path class="st143" d="M171.7,96.4c-8,24.8-31.6,40.6-58.1,40.6c-31.3,0.1-56.7-25.1-56.7-56.1c0-31.2,27.5-55.6,59.3-55.8
			c25.6-1.2,48.9,15.2,56.6,38.5C173.8,66.8,177.5,81.8,171.7,96.4z"/>
		<path class="st144" d="M172,95.8c-7.7,24.7-31.1,40.9-57.6,41.1c-31.4,0.3-57.1-24.7-57.2-55.7C56.9,50.1,84,25.6,115.9,25.2
			c25.8-1.2,49.2,15.2,56.8,38.6C173.6,66.4,177.5,81.2,172,95.8z"/>
		<path class="st145" d="M172.2,95.2c-7.3,24.6-30.5,41.2-57.1,41.5c-31.5,0.4-57.3-24.4-57.8-55.2c-0.3-31,26.4-55.8,58.3-56.3
			c26-1.2,49.4,15.2,57,38.6C173.4,66.1,177.4,80.7,172.2,95.2z"/>
		<path class="st146" d="M172.4,94.6c-7,24.6-29.9,41.5-56.6,42c-31.6,0.6-57.7-24-58.3-54.8C57,50.8,83.4,25.9,115.3,25.2
			c26.2-1.2,49.6,15.2,57.2,38.7C173.2,65.7,177.4,80.2,172.4,94.6z"/>
		<path class="st147" d="M172.6,94c-6.6,24.5-29.3,41.8-56.1,42.4c-31.7,0.8-58-23.6-58.8-54.3C57,51.2,83,26,115,25.2
			c26.4-1.2,49.8,15.2,57.5,38.7C172.9,65.4,177.3,79.6,172.6,94z"/>
		<path class="st148" d="M172.9,93.3c-6.3,24.4-28.8,42-55.6,42.8C85.5,137.1,59,113,58,82.3C57,51.5,82.7,26.2,114.7,25.1
			c26.5-1.2,50.1,15.3,57.7,38.8C172.7,65,177.3,79.1,172.9,93.3z"/>
		<path class="st149" d="M173.1,92.7c-5.9,24.3-28.2,42.3-55.1,43.3c-31.9,1.1-58.7-22.8-59.8-53.4C57,51.9,82.4,26.3,114.4,25.1
			c26.7-1.2,50.3,15.3,57.9,38.8C172.5,64.7,177.3,78.5,173.1,92.7z"/>
		<path class="st150" d="M173.3,92.1c-5.5,24.3-27.6,42.6-54.6,43.7c-32,1.3-59-22.4-60.4-53C57,52.2,82,26.5,114.1,25.1
			c26.9-1.3,50.5,15.3,58.1,38.9C172.3,64.4,177.2,78,173.3,92.1z"/>
		<path class="st151" d="M173.6,91.5c-5.2,24.2-27,42.9-54.1,44.2c-32.1,1.5-59.3-22-60.9-52.6c-1.6-30.5,23.1-56.5,55.2-58
			c27.1-1.3,50.7,15.3,58.4,38.9C172.1,64,177.2,77.5,173.6,91.5z"/>
	</g>
	<linearGradient id="SVGID_1_" gradientUnits="userSpaceOnUse" x1="81.3387" y1="153.7872" x2="149.7757" y2="7.0235">
		<stop  offset="0.4341" style="stop-color:#F19106"/>
		<stop  offset="1" style="stop-color:#F4CF8C"/>
	</linearGradient>
	<path class="st152" d="M115.6,160.8c-2.5,0-3.8-4-5.5-9.5c-1-3.3-2.1-6.6-3-7.5l-0.3-0.3l-0.3,0.2c-1.1,0.7-3.1,3.7-5,6.7
		c-3.1,4.8-5.1,7.8-7.2,7.8c-0.2,0-0.4,0-0.5-0.1c-2.4-0.6-2.5-4.8-2.7-10.5c-0.1-3.4-0.2-6.9-0.8-8.1l-0.2-0.3l-0.4,0.1
		c-1.3,0.4-4,2.8-6.7,5.2c-4,3.6-6.6,5.8-8.5,5.8c-0.4,0-0.8-0.1-1.1-0.3c-2.2-1.2-1.1-5.2,0.3-10.8c0.8-3.3,1.6-6.7,1.4-8l-0.1-0.4
		l-0.4,0c-1.7,0.2-4.9,1.9-7.8,3.3c-3.8,1.9-7,3.6-9.1,3.6c-0.9,0-1.5-0.3-1.8-0.6c-1.8-1.7,0.3-5.3,3.2-10.3c1.7-3,3.4-6.1,3.5-7.4
		l0-0.4l-0.4-0.1c-0.1,0-0.3,0-0.6,0c-1.8,0-4.8,0.7-7.8,1.4c-3.2,0.7-6.2,1.4-8.3,1.4c-0.6,0-2.3,0-3-1.2c-1.2-2,1.7-5,5.8-9.2
		c2.5-2.5,5-5.1,5.5-6.3l0.1-0.4l-0.4-0.2c-1.2-0.6-4.9-0.7-8.5-0.8c-6-0.2-10.4-0.3-11-2.6c-0.6-2.3,3-4.4,8.1-7.4
		c3.1-1.8,6.3-3.7,7-4.8l0.2-0.3L49,88.5c-1-0.8-4.5-1.9-7.9-2.8c-5.8-1.6-10-2.8-10-5.2c0-2.4,4.2-3.6,10-5.2c3.4-1,6.9-2,7.9-2.8
		l0.3-0.2l-0.2-0.3c-0.8-1.1-3.9-3-7-4.8c-5.1-3-8.8-5.1-8.1-7.4c0.6-2.3,5-2.4,11-2.6c3.6-0.1,7.3-0.2,8.5-0.8l0.4-0.2l-0.1-0.4
		c-0.4-1.2-2.9-3.8-5.5-6.3c-4.1-4.1-7.1-7.1-5.8-9.2c0.7-1.2,2.4-1.2,3-1.2c2.1,0,5.1,0.7,8.3,1.4c2.9,0.7,6,1.4,7.8,1.4
		c0.3,0,0.5,0,0.6,0l0.4-0.1l0-0.4c-0.1-1.3-1.8-4.4-3.5-7.4c-2.9-5-4.9-8.6-3.2-10.3c0.3-0.3,0.8-0.6,1.8-0.6
		c2.1,0,5.3,1.7,9.1,3.6c2.9,1.5,6.2,3.2,7.8,3.4l0.4,0l0.1-0.4c0.2-1.3-0.6-4.7-1.4-8c-1.4-5.6-2.4-9.6-0.3-10.8
		c0.3-0.2,0.7-0.3,1.1-0.3c2,0,4.5,2.2,8.5,5.8c2.7,2.4,5.4,4.8,6.7,5.2l0.4,0.1l0.2-0.3c0.6-1.2,0.7-4.6,0.8-8.1
		c0.2-5.7,0.3-9.9,2.7-10.5c0.2,0,0.3-0.1,0.5-0.1c2.1,0,4.1,3,7.2,7.8c1.9,3,3.9,6,5,6.7l0.3,0.2l0.3-0.3c0.9-1,1.9-4.3,3-7.5
		c1.7-5.5,3-9.5,5.5-9.5c2.5,0,3.8,4,5.5,9.5c1,3.3,2.1,6.6,3,7.5l0.3,0.3l0.3-0.2c1.1-0.7,3.1-3.7,5-6.7c3.1-4.8,5.1-7.8,7.2-7.8
		c0.2,0,0.4,0,0.5,0.1c2.4,0.6,2.5,4.8,2.7,10.5c0.1,3.4,0.2,6.9,0.8,8.1l0.2,0.3l0.4-0.1c1.3-0.4,4-2.8,6.7-5.2
		c4-3.6,6.6-5.8,8.5-5.8c0.4,0,0.8,0.1,1.1,0.3c2.2,1.2,1.1,5.2-0.3,10.8c-0.8,3.3-1.6,6.7-1.4,8l0.1,0.4l0.4,0
		c1.7-0.2,4.9-1.9,7.8-3.3c3.8-1.9,7-3.6,9.1-3.6c0.9,0,1.5,0.3,1.8,0.6c1.8,1.7-0.3,5.3-3.2,10.3c-1.7,3-3.4,6.1-3.5,7.4l0,0.4
		l0.4,0.1c0.1,0,0.3,0,0.6,0c1.8,0,4.8-0.7,7.8-1.4c3.2-0.7,6.3-1.4,8.3-1.4c0.6,0,2.3,0,3,1.2c1.2,2-1.7,5-5.8,9.2
		c-2.5,2.5-5,5.1-5.5,6.3l-0.1,0.4l0.4,0.2c1.2,0.6,4.9,0.7,8.5,0.8c6,0.2,10.4,0.3,11,2.6c0.6,2.3-3,4.4-8.1,7.4
		c-3.1,1.8-6.3,3.7-7,4.8l-0.2,0.3l0.3,0.2c1,0.8,4.5,1.9,7.9,2.8c5.8,1.6,10,2.8,10,5.2c0,2.4-4.2,3.6-10,5.2c-3.4,1-6.9,2-7.9,2.8
		l-0.3,0.2L182,89c0.8,1.1,3.9,3,7,4.8c5.1,3,8.8,5.1,8.1,7.4c-0.6,2.3-5,2.4-11,2.6c-3.6,0.1-7.3,0.2-8.5,0.8l-0.4,0.2l0.1,0.4
		c0.4,1.2,2.9,3.8,5.5,6.3c4.1,4.1,7.1,7.1,5.8,9.2c-0.7,1.2-2.4,1.2-3,1.2c-2.1,0-5.1-0.7-8.3-1.4c-2.9-0.7-6-1.4-7.8-1.4
		c-0.3,0-0.5,0-0.6,0l-0.4,0.1l0,0.4c0.1,1.3,1.8,4.4,3.5,7.4c2.9,5,4.9,8.7,3.2,10.3c-0.3,0.3-0.8,0.6-1.8,0.6
		c-2.1,0-5.3-1.7-9.1-3.6c-2.9-1.5-6.2-3.2-7.8-3.4l-0.4,0l-0.1,0.4c-0.2,1.3,0.6,4.7,1.4,8c1.4,5.6,2.4,9.6,0.3,10.8
		c-0.3,0.2-0.7,0.3-1.1,0.3c-2,0-4.5-2.2-8.5-5.8c-2.7-2.4-5.4-4.8-6.7-5.2l-0.4-0.1l-0.2,0.3c-0.6,1.2-0.7,4.6-0.8,8.1
		c-0.2,5.7-0.3,9.9-2.7,10.5c-0.2,0-0.3,0.1-0.5,0.1c-2.1,0-4.1-3-7.2-7.8c-1.9-3-3.9-6-5-6.7l-0.3-0.2l-0.3,0.3
		c-0.9,1-1.9,4.3-3,7.5C119.3,156.8,118.1,160.8,115.6,160.8z"/>
	<path class="st153" d="M198.9,80.4c0,3.1-17.8,5.1-18.2,8.2c-0.4,3.1,16.2,9.4,15.4,12.4c-0.8,3-18.5,0.6-19.8,3.4
		c-1.3,2.9,13.1,13.1,11.5,15.7c-1.6,2.7-18.1-4.1-20-1.6c-2,2.5,9.1,15.8,6.8,18c-2.3,2.2-16.3-8.4-18.9-6.5
		c-2.6,1.9,4.5,17.5,1.7,19.1c-2.8,1.5-13.5-12.1-16.5-10.9c-3,1.2-0.4,18-3.6,18.8c-3.1,0.8-9.7-15-13-14.6
		c-3.2,0.4-5.3,17.3-8.6,17.3s-5.4-16.9-8.6-17.3c-3.3-0.4-9.9,15.4-13,14.6c-3.2-0.8-0.6-17.7-3.6-18.8c-3-1.2-13.7,12.4-16.5,10.9
		c-2.8-1.6,4.3-17.2,1.7-19.1c-2.6-1.9-16.6,8.7-18.9,6.5c-2.3-2.2,8.8-15.6,6.8-18c-2-2.4-18.4,4.3-20,1.6
		c-1.6-2.7,12.7-12.9,11.5-15.7c-1.2-2.8-18.9-0.4-19.8-3.4c-0.8-3,15.8-9.3,15.4-12.4c-0.4-3-18.2-5-18.2-8.2
		c0-3.1,17.8-5.1,18.2-8.2c0.4-3.1-16.2-9.4-15.4-12.4c0.8-3,18.5-0.6,19.8-3.4c1.3-2.9-13.1-13.1-11.4-15.7
		c1.6-2.7,18.1,4.1,20,1.6c2-2.5-9.1-15.8-6.8-18c2.3-2.2,16.3,8.4,18.9,6.5c2.6-1.9-4.5-17.5-1.7-19.1c2.8-1.5,13.5,12.1,16.5,10.9
		c3-1.2,0.4-18,3.6-18.8c3.1-0.8,9.7,15,13,14.6c3.2-0.4,5.3-17.3,8.6-17.3s5.4,16.9,8.6,17.3c3.3,0.4,9.9-15.4,13-14.6
		c3.2,0.8,0.6,17.7,3.6,18.8c3,1.2,13.7-12.4,16.5-10.9c2.8,1.6-4.3,17.2-1.7,19.1c2.6,1.9,16.6-8.7,18.9-6.5
		c2.3,2.2-8.8,15.6-6.8,18c2,2.4,18.4-4.3,20-1.6c1.6,2.7-12.7,12.9-11.5,15.7c1.2,2.8,18.9,0.4,19.8,3.4c0.8,3-15.8,9.3-15.4,12.4
		C181.1,75.3,198.9,77.3,198.9,80.4z"/>
	<path class="st153" d="M115.6,139.4c-34.2,0-62-26.5-62-59c0-32.6,27.8-59,62-59s62,26.5,62,59C177.6,113,149.7,139.4,115.6,139.4z
		"/>
	<g>
		<g>
			<path class="st0" d="M156.7,70.5c12.6,39.7-5,71.6-38,84.8c-26.8,10.7-62.6-5.7-73.4-21C32.9,116.7,32.9,88,51.4,61.1
				c20.5-29.7,69-28,88.6-12.5C140.1,48.6,151.8,57.1,156.7,70.5z"/>
			<path class="st1" d="M118.9,154.9c-26.6,10.7-62.3-5.4-73.2-20.7c-12.4-17.5-12.6-46.2,5.9-73c20.4-29.6,68.7-28.1,88.3-12.7
				c0.1,0,11.9,8.5,16.8,22C169.1,110,151.7,141.7,118.9,154.9z"/>
			<path class="st2" d="M119.1,154.5c-26.5,10.8-62-5.2-72.9-20.3c-12.5-17.3-12.8-46,5.5-72.8c20.2-29.6,68.3-28.2,87.9-12.9
				c0.2,0,12,8.5,17,22C169,109.7,151.7,141.3,119.1,154.5z"/>
			<path class="st3" d="M119.3,154.1c-26.3,10.8-61.7-5-72.7-20C34,116.9,33.6,88.4,51.8,61.6c20.1-29.5,67.9-28.3,87.6-13.1
				c0.4,0,12.2,8.5,17.1,22C168.9,109.5,151.7,141,119.3,154.1z"/>
			<path class="st4" d="M119.5,153.7C93.3,164.5,58,148.9,47,134.1C34.4,117,33.9,88.5,51.9,61.8c19.9-29.5,67.6-28.3,87.3-13.2
				c0.5,0,12.4,8.6,17.3,22.1C168.7,109.3,151.7,140.6,119.5,153.7z"/>
			<path class="st5" d="M119.7,153.3c-26,10.9-61.2-4.5-72.2-19.3c-12.7-17-13.3-45.3,4.6-72c19.8-29.4,67.2-28.4,86.9-13.4
				c0.6,0,12.5,8.6,17.4,22.1C168.6,109,151.7,140.2,119.7,153.3z"/>
			<path class="st6" d="M119.9,152.9c-25.9,10.9-60.9-4.3-72-19c-12.7-16.8-13.5-45.1,4.3-71.8c19.6-29.3,66.9-28.5,86.6-13.6
				c0.7,0,12.7,8.6,17.6,22.1C168.4,108.8,151.7,139.8,119.9,152.9z"/>
			<path class="st7" d="M120.1,152.5c-25.7,11-60.6-4-71.7-18.6c-12.8-16.7-13.7-44.9,3.9-71.5c19.5-29.3,66.5-28.5,86.3-13.8
				c0.9,0,12.8,8.6,17.8,22.1C168.3,108.6,151.7,139.4,120.1,152.5z"/>
			<path class="st8" d="M120.3,152c-25.6,11-60.3-3.8-71.5-18.3c-12.9-16.6-13.9-44.7,3.6-71.3c19.4-29.2,66.2-28.6,85.9-14
				c1,0,13,8.6,17.9,22.2C168.2,108.3,151.7,139,120.3,152z"/>
			<path class="st9" d="M120.5,151.6c-25.4,11.1-60-3.6-71.2-17.9c-12.9-16.5-14.1-44.5,3.3-71c19.2-29.2,65.8-28.7,85.6-14.1
				c1.1-0.1,13.1,8.6,18.1,22.2C168,108.1,151.7,138.6,120.5,151.6z"/>
			<path class="st10" d="M120.7,151.2c-25.2,11.1-59.7-3.3-71-17.6c-13-16.3-14.3-44.3,3-70.8c19.1-29.1,65.5-28.8,85.3-14.3
				c1.2-0.1,13.3,8.6,18.2,22.2C167.9,107.9,151.7,138.3,120.7,151.2z"/>
			<path class="st11" d="M120.9,150.8c-25.1,11.1-59.4-3.1-70.8-17.2C37,117.4,35.7,89.5,52.8,63c18.9-29.1,65.1-28.8,84.9-14.5
				c1.4-0.1,13.4,8.7,18.4,22.3C167.8,107.6,151.7,137.9,120.9,150.8z"/>
			<path class="st12" d="M121.1,150.4c-24.9,11.2-59.1-2.9-70.5-16.9c-13.1-16.1-14.6-43.9,2.3-70.3c18.8-29,64.8-28.9,84.6-14.7
				c1.5-0.1,13.6,8.7,18.5,22.3C167.6,107.4,151.7,137.5,121.1,150.4z"/>
			<path class="st13" d="M121.3,150c-24.8,11.2-58.8-2.6-70.3-16.6c-13.2-16-14.8-43.7,2-70.1c18.6-28.9,64.4-29,84.3-14.9
				c1.6-0.1,13.7,8.7,18.7,22.3C167.5,107.1,151.7,137.1,121.3,150z"/>
			<path class="st14" d="M121.5,149.6c-24.6,11.3-58.5-2.4-70.1-16.2c-13.3-15.9-15-43.5,1.7-69.8c18.5-28.9,64.1-29,83.9-15.1
				c1.7-0.1,13.9,8.7,18.9,22.4C167.3,106.9,151.7,136.7,121.5,149.6z"/>
			<path class="st15" d="M121.7,149.2c-24.5,11.3-58.3-2.2-69.8-15.9C38.6,117.6,36.7,90,53.3,63.7c18.4-28.8,63.7-29.1,83.6-15.2
				c1.9-0.1,14,8.7,19,22.4C167.2,106.7,151.7,136.3,121.7,149.2z"/>
			<path class="st16" d="M121.9,148.8c-24.3,11.3-58-1.9-69.6-15.5c-13.4-15.6-15.4-43.1,1.1-69.3c18.2-28.8,63.4-29.2,83.3-15.4
				c2-0.1,14.2,8.7,19.2,22.4C167.1,106.4,151.7,135.9,121.9,148.8z"/>
			<path class="st17" d="M122.1,148.4c-24.2,11.4-57.7-1.7-69.3-15.2c-13.5-15.5-15.6-42.9,0.8-69.1c18-28.8,63-29.3,82.9-15.6
				c2.1-0.1,14.4,8.7,19.3,22.5C166.9,106.2,151.7,135.6,122.1,148.4z"/>
			<path class="st18" d="M122.3,148c-24,11.4-57.4-1.5-69.1-14.9c-13.5-15.4-15.8-42.7,0.4-68.8c17.9-28.7,62.7-29.3,82.6-15.8
				c2.2-0.1,14.5,8.8,19.5,22.5C166.8,106,151.7,135.2,122.3,148z"/>
			<path class="st19" d="M122.5,147.6C98.6,159,65.4,146.3,53.6,133c-13.6-15.2-16-42.5,0.1-68.6c17.7-28.6,62.3-29.4,82.2-16
				c2.4-0.1,14.7,8.8,19.6,22.5C166.6,105.7,151.7,134.8,122.5,147.6z"/>
			<path class="st20" d="M122.7,147.1c-23.7,11.5-56.8-1-68.6-14.2c-13.7-15.1-16.2-42.3-0.2-68.3c17.6-28.6,62-29.5,81.9-16.1
				c2.5-0.1,14.8,8.8,19.8,22.6C166.5,105.5,151.7,134.4,122.7,147.1z"/>
			<path class="st21" d="M122.9,146.7c-23.6,11.5-56.5-0.8-68.4-13.8c-13.7-15-16.4-42.1-0.5-68.1c17.4-28.5,61.6-29.6,81.6-16.3
				c2.6-0.1,15,8.8,19.9,22.6C166.4,105.3,151.7,134,122.9,146.7z"/>
			<path class="st22" d="M123.1,146.3c-23.4,11.6-56.2-0.5-68.1-13.5C41.2,118,38.4,91,54.1,65c17.3-28.5,61.3-29.6,81.2-16.5
				c2.7-0.1,15.1,8.8,20.1,22.6C166.2,105,151.7,133.6,123.1,146.3z"/>
			<path class="st23" d="M123.3,145.9c-23.3,11.6-55.9-0.3-67.9-13.2C41.6,118,38.6,91.1,54.2,65.1c17.1-28.4,60.9-29.7,80.9-16.7
				c2.8-0.1,15.3,8.8,20.3,22.7C166.1,104.8,151.7,133.2,123.3,145.9z"/>
			<path class="st24" d="M123.5,145.5c-23.1,11.6-55.6-0.1-67.7-12.8C42,118,38.9,91.2,54.4,65.3c17-28.4,60.6-29.8,80.6-16.9
				c3-0.1,15.4,8.8,20.4,22.7C165.9,104.6,151.7,132.9,123.5,145.5z"/>
			<path class="st25" d="M123.7,145.1c-22.9,11.7-55.3,0.1-67.4-12.5c-13.9-14.5-17.2-41.3-1.8-67.1c16.8-28.3,60.2-29.8,80.2-17.1
				c3.1-0.1,15.6,8.8,20.6,22.7C165.8,104.3,151.7,132.5,123.7,145.1z"/>
			<path class="st26" d="M123.9,144.7c-22.8,11.7-55,0.4-67.2-12.1c-14-14.4-17.4-41.1-2.1-66.9c16.7-28.3,59.9-29.9,79.9-17.2
				c3.2-0.2,15.7,8.9,20.7,22.8C165.7,104.1,151.7,132.1,123.9,144.7z"/>
			<path class="st27" d="M124.1,144.3c-22.6,11.8-54.7,0.6-66.9-11.8c-14.1-14.3-17.6-40.8-2.4-66.6c16.5-28.2,59.5-30,79.6-17.4
				c3.3-0.2,15.9,8.9,20.9,22.8C165.5,103.8,151.7,131.7,124.1,144.3z"/>
			<path class="st28" d="M124.3,143.9c-22.5,11.8-54.4,0.8-66.7-11.5C43.5,118.3,39.9,91.8,54.9,66C71.3,37.9,114,36,134.1,48.4
				c3.5-0.2,16.1,8.9,21,22.8C165.4,103.6,151.7,131.3,124.3,143.9z"/>
			<path class="st29" d="M124.5,143.5c-22.3,11.8-54.1,1.1-66.5-11.1c-14.2-14-18-40.4-3.1-66.1c16.3-28.1,58.8-30.1,78.9-17.8
				c3.6-0.2,16.2,8.9,21.2,22.9C165.2,103.4,151.7,130.9,124.5,143.5z"/>
			<path class="st30" d="M124.7,143.1c-22.2,11.9-53.9,1.3-66.2-10.8C44.2,118.4,40.4,92,55.1,66.4c16.1-28,58.5-30.2,78.6-18
				c3.7-0.2,16.4,8.9,21.4,22.9C165.1,103.1,151.7,130.5,124.7,143.1z"/>
			<path class="st31" d="M124.9,142.6c-22,11.9-53.6,1.5-66-10.4c-14.3-13.8-18.3-40-3.7-65.6c16-28,58.1-30.3,78.2-18.2
				c3.8-0.2,16.5,8.9,21.5,22.9C165,102.9,151.7,130.2,124.9,142.6z"/>
			<path class="st32" d="M125.1,142.2c-21.9,12-53.3,1.8-65.8-10.1c-14.4-13.7-18.5-39.8-4-65.4c15.8-27.9,57.8-30.4,77.9-18.3
				c4-0.2,16.7,8.9,21.7,23C164.8,102.7,151.7,129.8,125.1,142.2z"/>
			<path class="st33" d="M125.3,141.8c-21.7,12-53,2-65.5-9.8c-14.5-13.5-18.7-39.6-4.4-65.2C71.1,39,112.9,36.5,133,48.4
				c4.1-0.2,16.8,9,21.8,23C164.7,102.4,151.7,129.4,125.3,141.8z"/>
			<path class="st34" d="M125.5,141.4c-21.6,12-52.7,2.2-65.3-9.4c-14.5-13.4-18.9-39.4-4.7-64.9c15.5-27.8,57.1-30.5,77.2-18.7
				c4.2-0.2,17,9,22,23C164.5,102.2,151.7,129,125.5,141.4z"/>
			<path class="st35" d="M125.7,141c-21.4,12.1-52.4,2.5-65-9.1c-14.6-13.3-19.1-39.2-5-64.7c15.4-27.8,56.7-30.6,76.9-18.9
				c4.3-0.2,17.1,9,22.1,23.1C164.4,102,151.7,128.6,125.7,141z"/>
			<path class="st36" d="M125.9,140.6c-21.3,12.1-52.1,2.7-64.8-8.7c-14.6-13.2-19.3-39-5.3-64.4c15.2-27.7,56.4-30.6,76.6-19.1
				c4.5-0.2,17.3,9,22.3,23.1C164.3,101.7,151.7,128.2,125.9,140.6z"/>
			<path class="st37" d="M126.1,140.2c-21.1,12.2-51.8,2.9-64.6-8.4C46.9,118.7,42.1,93,56,67.6C71,40,112,36.9,132.2,48.4
				c4.6-0.2,17.4,9,22.4,23.1C164.1,101.5,151.7,127.8,126.1,140.2z"/>
			<path class="st38" d="M126.3,139.8c-20.9,12.2-51.5,3.2-64.3-8c-14.8-12.9-19.7-38.6-6-63.9C71,40.2,111.7,37,132,48.4
				c4.7-0.2,17.6,9,22.6,23.2C164,101.3,151.7,127.5,126.3,139.8z"/>
			<path class="st39" d="M126.5,139.4c-20.8,12.2-51.2,3.4-64.1-7.7C47.6,118.9,42.6,93.3,56.2,68c14.8-27.5,55.3-30.9,75.6-19.6
				c4.8-0.2,17.7,9,22.8,23.2C163.8,101,151.7,127.1,126.5,139.4z"/>
			<path class="st40" d="M126.7,139c-20.6,12.3-50.9,3.6-63.8-7.4C48,118.9,42.8,93.4,56.3,68.2c14.7-27.5,55-30.9,75.2-19.8
				c4.9-0.2,17.9,9.1,22.9,23.2C163.7,100.8,151.7,126.7,126.7,139z"/>
			<path class="st41" d="M126.9,138.6c-20.5,12.3-50.6,3.9-63.6-7c-15-12.6-20.3-38-6.9-63.2c14.5-27.4,54.6-31,74.9-20
				c5.1-0.2,18.1,9.1,23.1,23.3C163.6,100.5,151.7,126.3,126.9,138.6z"/>
			<path class="st42" d="M127.2,138.1c-20.3,12.4-50.4,4.1-63.4-6.7c-15-12.4-20.4-37.8-7.2-63c14.4-27.4,54.3-31.1,74.6-20.2
				c5.2-0.2,18.2,9.1,23.2,23.3C163.4,100.3,151.7,125.9,127.2,138.1z"/>
			<path class="st43" d="M127.4,137.7c-20.2,12.4-50.1,4.3-63.1-6.3c-15.1-12.3-20.6-37.6-7.5-62.7c14.2-27.3,53.9-31.1,74.2-20.3
				c5.3-0.2,18.4,9.1,23.4,23.3C163.3,100.1,151.7,125.5,127.4,137.7z"/>
			<path class="st44" d="M127.6,137.3c-20,12.4-49.8,4.6-62.9-6C49.5,119.1,43.8,94,56.8,68.9c14.1-27.3,53.5-31.2,73.9-20.5
				c5.4-0.3,18.5,9.1,23.5,23.4C163.1,99.8,151.7,125.2,127.6,137.3z"/>
			<path class="st45" d="M127.8,136.9c-19.9,12.5-49.5,4.8-62.6-5.7c-15.2-12.1-21-37.2-8.2-62.2c13.9-27.2,53.2-31.3,73.5-20.7
				c5.6-0.3,18.7,9.1,23.7,23.4C163,99.6,151.7,124.8,127.8,136.9z"/>
			<path class="st46" d="M128,136.5c-19.7,12.5-49.2,5-62.4-5.3c-15.3-12-21.2-36.9-8.5-62c13.8-27.1,52.8-31.4,73.2-20.9
				c5.7-0.3,18.8,9.1,23.9,23.4C162.9,99.4,151.7,124.4,128,136.5z"/>
			<path class="st47" d="M128.2,136.1c-19.6,12.6-48.9,5.3-62.2-5c-15.4-11.8-21.4-36.7-8.8-61.7c13.6-27.1,52.5-31.4,72.9-21.1
				c5.8-0.3,19,9.1,24,23.5C162.7,99.1,151.7,124,128.2,136.1z"/>
			<path class="st48" d="M128.4,135.7c-19.4,12.6-48.6,5.5-61.9-4.6C51,119.3,44.8,94.5,57.3,69.6c13.5-27,52.1-31.5,72.5-21.2
				c5.9-0.3,19.1,9.2,24.2,23.5C162.6,98.9,151.7,123.6,128.4,135.7z"/>
			<path class="st49" d="M128.6,135.3c-19.3,12.6-48.3,5.7-61.7-4.3c-15.5-11.6-21.8-36.3-9.5-61.2c13.3-27,51.8-31.6,72.2-21.4
				c6.1-0.3,19.3,9.2,24.3,23.5C162.4,98.7,151.7,123.2,128.6,135.3z"/>
			<path class="st50" d="M128.8,134.9c-19.1,12.7-48,6-61.5-4c-15.6-11.5-22-36.1-9.8-61C70.7,43,109,38.3,129.4,48.3
				c6.2-0.3,19.4,9.2,24.5,23.6C162.3,98.4,151.7,122.8,128.8,134.9z"/>
			<path class="st51" d="M129,134.5c-18.9,12.7-47.7,6.2-61.2-3.6c-15.6-11.3-22.2-35.9-10.1-60.8c13.1-26.9,51.1-31.7,71.5-21.8
				c6.3-0.3,19.6,9.2,24.6,23.6C162.2,98.2,151.7,122.5,129,134.5z"/>
			<path class="st52" d="M129.2,134.1c-18.8,12.8-47.4,6.4-61-3.3c-15.7-11.2-22.4-35.7-10.4-60.5c12.9-26.8,50.7-31.8,71.2-22
				c6.4-0.3,19.8,9.2,24.8,23.6C162,98,151.7,122.1,129.2,134.1z"/>
			<path class="st53" d="M129.4,133.6c-18.6,12.8-47.1,6.7-60.7-2.9c-15.7-11.1-22.6-35.5-10.7-60.3c12.8-26.7,50.4-31.9,70.9-22.2
				c6.6-0.3,19.9,9.2,25,23.6C161.9,97.7,151.7,121.7,129.4,133.6z"/>
			<path class="st54" d="M129.6,133.2c-18.5,12.8-46.9,6.9-60.5-2.6c-15.8-11-22.7-35.3-11.1-60c12.6-26.7,50-31.9,70.5-22.3
				c6.7-0.3,20.1,9.2,25.1,23.7C161.7,97.5,151.7,121.3,129.6,133.2z"/>
			<path class="st55" d="M129.8,132.8c-18.3,12.9-46.6,7.1-60.3-2.3c-15.9-10.9-22.9-35.1-11.4-59.8c12.5-26.6,49.7-32,70.2-22.5
				c6.8-0.3,20.2,9.3,25.3,23.7C161.6,97.2,151.7,120.9,129.8,132.8z"/>
			<path class="st56" d="M130,132.4c-18.2,12.9-46.3,7.3-60-1.9C54,119.8,46.8,95.6,58.3,71c12.3-26.6,49.3-32.1,69.9-22.7
				c6.9-0.3,20.4,9.3,25.4,23.7C161.5,97,151.7,120.5,130,132.4z"/>
			<path class="st57" d="M130.2,132c-18,13-46,7.6-59.8-1.6c-16-10.6-23.3-34.7-12-59.3c12.2-26.5,49-32.2,69.5-22.9
				c7.1-0.3,20.5,9.3,25.6,23.8C161.3,96.8,151.7,120.1,130.2,132z"/>
			<path class="st58" d="M130.4,131.6c-17.9,13-45.7,7.8-59.5-1.2c-16.1-10.5-23.5-34.5-12.3-59c12-26.5,48.6-32.2,69.2-23.1
				c7.2-0.3,20.7,9.3,25.7,23.8C161.2,96.5,151.7,119.8,130.4,131.6z"/>
			<path class="st59" d="M130.6,131.2c-17.7,13-45.4,8-59.3-0.9C55.2,119.9,47.6,96,58.6,71.5c11.9-26.4,48.3-32.3,68.9-23.3
				c7.3-0.3,20.8,9.3,25.9,23.8C161,96.3,151.7,119.4,130.6,131.2z"/>
			<path class="st60" d="M130.8,130.8c-17.6,13.1-45.1,8.3-59.1-0.5c-16.2-10.2-23.9-34.1-13-58.5c11.7-26.3,47.9-32.4,68.5-23.4
				c7.4-0.3,21,9.3,26,23.9C160.9,96.1,151.7,119,130.8,130.8z"/>
			<path class="st61" d="M131,130.4c-17.4,13.1-44.8,8.5-58.8-0.2C55.9,120,48.1,96.3,58.9,71.9c11.6-26.3,47.6-32.5,68.2-23.6
				c7.5-0.4,21.1,9.3,26.2,23.9C160.8,95.8,151.7,118.6,131,130.4z"/>
			<path class="st62" d="M131.2,130c-17.3,13.2-44.5,8.7-58.6,0.1C56.3,120.1,48.3,96.5,59,72c11.5-26.2,47.2-32.5,67.9-23.8
				c7.7-0.4,21.3,9.4,26.4,23.9C160.6,95.6,151.7,118.2,131.2,130z"/>
			<path class="st63" d="M131.4,129.6c-17.1,13.2-44.2,9-58.3,0.5c-16.4-9.9-24.5-33.4-13.9-57.8c11.3-26.2,46.9-32.6,67.5-24
				c7.8-0.4,21.4,9.4,26.5,24C160.5,95.4,151.7,117.8,131.4,129.6z"/>
			<path class="st64" d="M131.6,129.1c-16.9,13.2-43.9,9.2-58.1,0.8C57,120.2,48.8,96.7,59.2,72.4c11.2-26.1,46.5-32.7,67.2-24.2
				c7.9-0.4,21.6,9.4,26.7,24C160.3,95.1,151.7,117.4,131.6,129.1z"/>
			<path class="st65" d="M131.8,128.7c-16.8,13.3-43.7,9.4-57.9,1.2c-16.5-9.6-24.8-33-14.6-57.3c11-26.1,46.2-32.7,66.9-24.3
				c8-0.4,21.8,9.4,26.8,24C160.2,94.9,151.7,117.1,131.8,128.7z"/>
			<path class="st66" d="M132,128.3c-16.6,13.3-43.4,9.7-57.6,1.5c-16.6-9.5-25-32.8-14.9-57.1c10.9-26,45.8-32.8,66.5-24.5
				c8.2-0.4,21.9,9.4,27,24.1C160.1,94.7,151.7,116.7,132,128.3z"/>
			<path class="st67" d="M132.2,127.9c-16.5,13.4-43.1,9.9-57.4,1.8c-16.7-9.4-25.2-32.6-15.2-56.8C70.3,47,105.1,40,125.8,48.2
				c8.3-0.4,22.1,9.4,27.1,24.1C159.9,94.4,151.7,116.3,132.2,127.9z"/>
			<path class="st68" d="M132.4,127.5c-16.3,13.4-42.8,10.1-57.2,2.2c-16.7-9.3-25.4-32.4-15.5-56.6c10.6-25.9,45.1-33,65.9-24.9
				c8.4-0.4,22.2,9.4,27.3,24.1C159.8,94.2,151.7,115.9,132.4,127.5z"/>
			<path class="st69" d="M132.6,127.1c-16.2,13.4-42.5,10.4-56.9,2.5c-16.8-9.1-25.6-32.2-15.8-56.3c10.4-25.8,44.8-33,65.5-25.1
				c8.5-0.4,22.4,9.4,27.5,24.2C159.7,93.9,151.7,115.5,132.6,127.1z"/>
			<path class="st70" d="M132.8,126.7c-16,13.5-42.2,10.6-56.7,2.9c-16.8-9-25.8-32-16.2-56.1c10.3-25.8,44.4-33.1,65.2-25.3
				c8.7-0.4,22.5,9.5,27.6,24.2C159.5,93.7,151.7,115.1,132.8,126.7z"/>
			<path class="st71" d="M133,126.3c-15.9,13.5-41.9,10.8-56.4,3.2c-16.9-8.9-26-31.8-16.5-55.9c10.2-25.7,44.1-33.2,64.9-25.4
				c8.8-0.4,22.7,9.5,27.8,24.2C159.4,93.5,151.7,114.7,133,126.3z"/>
			<path class="st72" d="M133.2,125.9c-15.7,13.6-41.6,11.1-56.2,3.5c-17-8.8-26.2-31.6-16.8-55.6c10-25.7,43.7-33.3,64.5-25.6
				c8.9-0.4,22.8,9.5,27.9,24.3C159.2,93.2,151.7,114.4,133.2,125.9z"/>
			<path class="st73" d="M133.4,125.5c-15.6,13.6-41.3,11.3-56,3.9C60.4,120.7,51.1,98,60.3,74c9.9-25.6,43.4-33.3,64.2-25.8
				c9-0.4,23,9.5,28.1,24.3C159.1,93,151.7,114,133.4,125.5z"/>
			<path class="st74" d="M133.6,125.1c-15.4,13.6-41,11.5-55.7,4.2c-17.1-8.5-26.6-31.2-17.4-55.1c9.7-25.5,43-33.4,63.8-26
				c9.2-0.4,23.1,9.5,28.2,24.3C159,92.8,151.7,113.6,133.6,125.1z"/>
			<path class="st75" d="M133.8,124.6c-15.3,13.7-40.7,11.8-55.5,4.6c-17.2-8.4-26.7-31-17.8-54.9c9.6-25.5,42.7-33.5,63.5-26.2
				c9.3-0.4,23.3,9.5,28.4,24.4C158.8,92.5,151.7,113.2,133.8,124.6z"/>
			<path class="st76" d="M134,124.2c-15.1,13.7-40.5,12-55.2,4.9c-17.2-8.3-26.9-30.8-18.1-54.6C70.1,49.1,103,41,123.9,48.2
				c9.4-0.4,23.4,9.5,28.5,24.4C158.7,92.3,151.7,112.8,134,124.2z"/>
			<path class="st77" d="M134.2,123.8c-15,13.7-40.2,12.2-55,5.2c-17.3-8.2-27.1-30.5-18.4-54.4c9.3-25.4,42-33.6,62.8-26.5
				c9.5-0.4,23.6,9.6,28.7,24.4C158.5,92.1,151.7,112.4,134.2,123.8z"/>
			<path class="st78" d="M134.4,123.4c-14.8,13.8-39.9,12.5-54.8,5.6c-17.4-8-27.3-30.3-18.7-54.1c9.1-25.3,41.6-33.7,62.5-26.7
				c9.7-0.5,23.8,9.6,28.9,24.5C158.4,91.8,151.7,112,134.4,123.4z"/>
			<path class="st79" d="M134.6,123c-14.6,13.8-39.6,12.7-54.5,5.9C62.7,121,52.6,98.8,61.1,75c9-25.3,41.3-33.8,62.2-26.9
				c9.8-0.5,23.9,9.6,29,24.5C158.3,91.6,151.7,111.7,134.6,123z"/>
			<path class="st80" d="M134.8,122.6c-14.5,13.9-39.3,12.9-54.3,6.3C63,121.1,52.8,98.9,61.2,75.2C70,50,102.1,41.4,123,48.1
				c9.9-0.5,24.1,9.6,29.2,24.5C158.1,91.3,151.7,111.3,134.8,122.6z"/>
			<path class="st81" d="M135,122.2c-14.3,13.9-39,13.2-54,6.6c-17.6-7.7-27.9-29.7-19.7-53.4c8.7-25.1,40.6-33.9,61.5-27.3
				c10-0.5,24.2,9.6,29.3,24.6C158,91.1,151.7,110.9,135,122.2z"/>
			<path class="st82" d="M135.2,121.8c-14.2,13.9-38.7,13.4-53.8,7c-17.6-7.5-28.1-29.5-20-53.2c8.6-25.1,40.2-34,61.2-27.4
				c10.1-0.5,24.4,9.6,29.5,24.6C157.8,90.9,151.7,110.5,135.2,121.8z"/>
			<path class="st83" d="M135.4,121.4c-14,14-38.4,13.6-53.6,7.3c-17.7-7.4-28.3-29.3-20.3-52.9c8.4-25,39.8-34,60.8-27.6
				c10.3-0.5,24.5,9.6,29.6,24.6C157.7,90.6,151.7,110.1,135.4,121.4z"/>
			<path class="st84" d="M135.6,121c-13.9,14-38.1,13.9-53.3,7.6c-17.8-7.3-28.5-29.1-20.6-52.7c8.3-25,39.5-34.1,60.5-27.8
				c10.4-0.5,24.7,9.7,29.8,24.7C157.6,90.4,151.7,109.7,135.6,121z"/>
			<path class="st85" d="M135.8,120.6c-13.7,14.1-37.8,14.1-53.1,8c-17.8-7.2-28.6-28.9-21-52.4c8.1-24.9,39.1-34.2,60.2-28
				c10.5-0.5,24.8,9.7,30,24.7C157.4,90.2,151.7,109.3,135.8,120.6z"/>
			<path class="st86" d="M136,120.1c-13.6,14.1-37.5,14.3-52.9,8.3c-17.9-7.1-28.8-28.7-21.3-52.2c8-24.8,38.8-34.3,59.8-28.2
				c10.6-0.5,25,9.7,30.1,24.7C157.3,89.9,151.7,109,136,120.1z"/>
			<path class="st87" d="M136.2,119.7c-13.4,14.1-37.3,14.6-52.6,8.7c-18-6.9-29-28.5-21.6-51.9c7.9-24.8,38.4-34.3,59.5-28.4
				c10.8-0.5,25.1,9.7,30.3,24.8C157.1,89.7,151.7,108.6,136.2,119.7z"/>
			<path class="st88" d="M136.4,119.3c-13.3,14.2-37,14.8-52.4,9c-18-6.8-29.2-28.3-21.9-51.7c7.7-24.7,38.1-34.4,59.2-28.5
				c10.9-0.5,25.3,9.7,30.4,24.8C157,89.5,151.7,108.2,136.4,119.3z"/>
			<path class="st89" d="M136.6,118.9c-13.1,14.2-36.7,15-52.1,9.3c-18.1-6.7-29.4-28.1-22.2-51.4c7.6-24.7,37.7-34.5,58.8-28.7
				c11-0.5,25.5,9.7,30.6,24.8C156.9,89.2,151.7,107.8,136.6,118.9z"/>
			<path class="st90" d="M136.9,118.5c-13,14.3-36.4,15.3-51.9,9.7c-18.2-6.6-29.6-27.9-22.5-51.2c7.4-24.6,37.4-34.6,58.5-28.9
				c11.1-0.5,25.6,9.7,30.7,24.9C156.7,89,151.7,107.4,136.9,118.5z"/>
			<path class="st91" d="M137.1,118.1c-12.8,14.3-36.1,15.5-51.7,10c-18.2-6.4-29.8-27.6-22.9-51c7.3-24.6,37-34.6,58.2-29.1
				c11.3-0.5,25.8,9.8,30.9,24.9C156.6,88.8,151.7,107,137.1,118.1z"/>
			<path class="st92" d="M137.3,117.7c-12.6,14.3-35.8,15.8-51.4,10.4c-18.3-6.3-30-27.4-23.2-50.7c7.1-24.5,36.7-34.7,57.8-29.3
				c11.4-0.5,25.9,9.8,31,24.9C156.4,88.5,151.7,106.6,137.3,117.7z"/>
			<path class="st93" d="M137.5,117.3c-12.5,14.4-35.5,16-51.2,10.7c-18.3-6.2-30.2-27.2-23.5-50.5c7-24.4,36.3-34.8,57.5-29.4
				c11.5-0.5,26.1,9.8,31.2,25C156.3,88.3,151.7,106.3,137.5,117.3z"/>
			<path class="st94" d="M137.7,116.9c-12.3,14.4-35.2,16.2-50.9,11c-18.4-6.1-30.3-27-23.8-50.2c6.9-24.4,36-34.8,57.2-29.6
				c11.6-0.5,26.2,9.8,31.4,25C156.2,88,151.7,105.9,137.7,116.9z"/>
			<path class="st95" d="M137.9,116.5c-12.2,14.5-34.9,16.5-50.7,11.4c-18.5-5.9-30.5-26.8-24.1-50c6.7-24.3,35.6-34.9,56.8-29.8
				c11.8-0.6,26.4,9.8,31.5,25C156,87.8,151.7,105.5,137.9,116.5z"/>
			<path class="st96" d="M138.1,116.1c-12,14.5-34.6,16.7-50.5,11.7C69.1,122,56.9,101.2,63.1,78c6.6-24.3,35.3-35,56.5-30
				c11.9-0.6,26.5,9.8,31.7,25.1C155.9,87.6,151.7,105.1,138.1,116.1z"/>
			<path class="st97" d="M138.3,115.6c-11.9,14.5-34.4,16.9-50.2,12.1c-18.6-5.7-30.9-26.4-24.8-49.5c6.4-24.2,34.9-35.1,56.2-30.2
				c12-0.6,26.7,9.8,31.8,25.1C155.7,87.3,151.7,104.7,138.3,115.6z"/>
			<path class="st98" d="M138.5,115.2c-11.7,14.6-34.1,17.2-50,12.4c-18.7-5.6-31.1-26.2-25.1-49.2C69.7,54.3,98,43.3,119.2,48
				c12.1-0.6,26.8,9.8,32,25.1C155.6,87.1,151.7,104.3,138.5,115.2z"/>
			<path class="st99" d="M138.7,114.8c-11.6,14.6-33.8,17.4-49.7,12.7c-18.7-5.4-31.3-26-25.4-49C69.6,54.5,97.7,43.4,119,48
				c12.2-0.6,27,9.9,32.1,25.1C155.5,86.9,151.7,103.9,138.7,114.8z"/>
			<path class="st100" d="M138.9,114.4c-11.4,14.7-33.5,17.6-49.5,13.1c-18.8-5.3-31.5-25.8-25.7-48.8c6-24,33.9-35.3,55.1-30.7
				c12.4-0.6,27.1,9.9,32.3,25.2C155.3,86.6,151.7,103.6,138.9,114.4z"/>
			<path class="st101" d="M139.1,114c-11.3,14.7-33.2,17.9-49.3,13.4c-18.9-5.2-31.7-25.6-26.1-48.5c5.9-24,33.5-35.4,54.8-30.9
				c12.5-0.6,27.3,9.9,32.5,25.2C155.2,86.4,151.7,103.2,139.1,114z"/>
			<path class="st102" d="M139.3,113.6c-11.1,14.7-32.9,18.1-49,13.8c-18.9-5.1-31.9-25.4-26.4-48.3C69.6,55.2,97,43.7,118.3,48
				c12.6-0.6,27.5,9.9,32.6,25.2C155,86.2,151.7,102.8,139.3,113.6z"/>
			<path class="st103" d="M139.5,113.2c-11,14.8-32.6,18.3-48.8,14.1c-19-4.9-32-25.2-26.7-48c5.6-23.9,32.8-35.5,54.1-31.3
				c12.7-0.6,27.6,9.9,32.8,25.3C154.9,85.9,151.7,102.4,139.5,113.2z"/>
			<path class="st104" d="M139.7,112.8c-10.8,14.8-32.3,18.6-48.6,14.5c-19.1-4.8-32.2-24.9-27-47.8c5.4-23.8,32.5-35.6,53.8-31.4
				c12.9-0.6,27.8,9.9,32.9,25.3C154.8,85.7,151.7,102,139.7,112.8z"/>
			<path class="st105" d="M139.9,112.4c-10.6,14.9-32,18.8-48.3,14.8c-19.1-4.7-32.4-24.7-27.3-47.5C69.5,55.9,96.4,44,117.7,48
				c13-0.6,27.9,9.9,33.1,25.3C154.6,85.5,151.7,101.6,139.9,112.4z"/>
			<path class="st106" d="M140.1,112c-10.5,14.9-31.7,19-48.1,15.1c-19.2-4.6-32.6-24.5-27.7-47.3c5.2-23.7,31.8-35.7,53.1-31.8
				c13.1-0.6,28.1,10,33.2,25.4C154.5,85.2,151.7,101.2,140.1,112z"/>
			<path class="st107" d="M140.3,111.6c-10.3,14.9-31.4,19.3-47.8,15.5c-19.3-4.5-32.8-24.3-28-47c5-23.6,31.4-35.8,52.8-32
				c13.2-0.6,28.2,10,33.4,25.4C154.3,85,151.7,100.9,140.3,111.6z"/>
			<path class="st108" d="M140.5,111.2c-10.2,15-31.2,19.5-47.6,15.8c-19.3-4.3-33-24.1-28.3-46.8c4.9-23.6,31.1-35.9,52.5-32.2
				c13.4-0.6,28.4,10,33.6,25.4C154.2,84.7,151.7,100.5,140.5,111.2z"/>
			<path class="st109" d="M140.7,110.7c-10,15-30.9,19.7-47.4,16.2c-19.4-4.2-33.2-23.9-28.6-46.5c4.7-23.5,30.7-35.9,52.1-32.4
				c13.5-0.6,28.5,10,33.7,25.5C154.1,84.5,151.7,100.1,140.7,110.7z"/>
			<path class="st110" d="M140.9,110.3c-9.9,15.1-30.6,20-47.1,16.5c-19.5-4.1-33.4-23.7-28.9-46.3c4.6-23.4,30.4-36,51.8-32.5
				c13.6-0.6,28.7,10,33.9,25.5C153.9,84.3,151.7,99.7,140.9,110.3z"/>
			<path class="st111" d="M141.1,109.9c-9.7,15.1-30.3,20.2-46.9,16.8c-19.5-4-33.5-23.5-29.2-46.1c4.5-23.4,30-36.1,51.5-32.7
				c13.7-0.6,28.8,10,34,25.5C153.8,84,151.7,99.3,141.1,109.9z"/>
			<path class="st112" d="M141.3,109.5c-9.6,15.1-30,20.4-46.6,17.2c-19.6-3.8-33.7-23.3-29.6-45.8c4.3-23.3,29.7-36.1,51.1-32.9
				c13.9-0.6,29,10,34.2,25.6C153.6,83.8,151.7,98.9,141.3,109.5z"/>
			<path class="st113" d="M141.5,109.1c-9.4,15.2-29.7,20.7-46.4,17.5c-19.7-3.7-33.9-23.1-29.9-45.6C69.4,57.8,94.5,44.8,116,48
				c14-0.7,29.1,10.1,34.3,25.6C153.5,83.6,151.7,98.5,141.5,109.1z"/>
			<path class="st114" d="M141.7,108.7c-9.3,15.2-29.4,20.9-46.2,17.9c-19.7-3.6-34.1-22.9-30.2-45.3c4-23.2,29-36.3,50.5-33.3
				c14.1-0.7,29.3,10.1,34.5,25.6C153.4,83.3,151.7,98.2,141.7,108.7z"/>
			<path class="st115" d="M141.9,108.3c-9.1,15.3-29.1,21.1-45.9,18.2c-19.8-3.5-34.3-22.7-30.5-45.1C69.3,58.3,94.1,45,115.6,48
				c14.2-0.7,29.5,10.1,34.6,25.7C153.2,83.1,151.7,97.8,141.9,108.3z"/>
			<path class="st116" d="M142.1,107.9c-9,15.3-28.8,21.4-45.7,18.5c-19.8-3.3-34.5-22.5-30.8-44.8c3.7-23.1,28.3-36.4,49.8-33.6
				c14.4-0.7,29.6,10.1,34.8,25.7C153.1,82.9,151.7,97.4,142.1,107.9z"/>
			<path class="st117" d="M142.3,107.5c-8.8,15.3-28.5,21.6-45.4,18.9c-19.9-3.2-34.7-22.2-31.2-44.6c3.6-23,27.9-36.5,49.5-33.8
				c14.5-0.7,29.8,10.1,35,25.7C152.9,82.6,151.7,97,142.3,107.5z"/>
			<path class="st118" d="M142.5,107.1c-8.6,15.4-28.2,21.8-45.2,19.2c-20-3.1-34.9-22-31.5-44.3c3.5-23,27.6-36.6,49.1-34
				c14.6-0.7,29.9,10.1,35.1,25.8C152.8,82.4,151.7,96.6,142.5,107.1z"/>
			<path class="st119" d="M142.7,106.7c-8.5,15.4-28,22.1-45,19.6c-20-3-35-21.8-31.8-44.1c3.3-22.9,27.2-36.7,48.8-34.2
				c14.7-0.7,30.1,10.1,35.3,25.8C152.7,82.2,151.7,96.2,142.7,106.7z"/>
			<path class="st120" d="M142.9,106.2c-8.3,15.5-27.7,22.3-44.7,19.9c-20.1-2.8-35.2-21.6-32.1-43.9c3.2-22.9,26.9-36.7,48.5-34.4
				c14.8-0.7,30.2,10.1,35.4,25.8C152.5,81.9,151.7,95.8,142.9,106.2z"/>
			<path class="st121" d="M143.1,105.8c-8.2,15.5-27.4,22.5-44.5,20.2c-20.2-2.7-35.4-21.4-32.4-43.6c3-22.8,26.5-36.8,48.1-34.5
				c15-0.7,30.4,10.2,35.6,25.9C152.4,81.7,151.7,95.5,143.1,105.8z"/>
			<path class="st122" d="M143.3,105.4c-8,15.5-27.1,22.8-44.3,20.6c-20.2-2.6-35.6-21.2-32.8-43.4c2.9-22.7,26.2-36.9,47.8-34.7
				c15.1-0.7,30.5,10.2,35.7,25.9C152.2,81.4,151.7,95.1,143.3,105.4z"/>
			<path class="st123" d="M143.5,105c-7.9,15.6-26.8,23-44,20.9c-20.3-2.5-35.8-21-33.1-43.1c2.8-22.7,25.8-36.9,47.5-34.9
				c15.2-0.7,30.7,10.2,35.9,25.9C152.1,81.2,151.7,94.7,143.5,105z"/>
			<path class="st124" d="M143.7,104.6c-7.7,15.6-26.5,23.3-43.8,21.3c-20.4-2.3-36-20.8-33.4-42.9c2.6-22.6,25.4-37,47.1-35.1
				c15.3-0.7,30.8,10.2,36.1,26C152,81,151.7,94.3,143.7,104.6z"/>
			<path class="st125" d="M143.9,104.2c-7.6,15.7-26.2,23.5-43.5,21.6c-20.4-2.2-36.2-20.6-33.7-42.6c2.5-22.6,25.1-37.1,46.8-35.3
				c15.5-0.7,31,10.2,36.2,26C151.8,80.7,151.7,93.9,143.9,104.2z"/>
			<path class="st126" d="M144.1,103.8c-7.4,15.7-25.9,23.7-43.3,21.9c-20.5-2.1-36.3-20.4-34-42.4c2.4-22.5,24.7-37.2,46.5-35.5
				c15.6-0.7,31.2,10.2,36.4,26C151.7,80.5,151.7,93.5,144.1,103.8z"/>
			<path class="st127" d="M144.3,103.4c-7.3,15.7-25.6,24-43.1,22.3c-20.6-2-36.5-20.2-34.4-42.1c2.2-22.4,24.4-37.2,46.1-35.6
				c15.7-0.7,31.3,10.2,36.5,26.1C151.5,80.3,151.7,93.1,144.3,103.4z"/>
			<path class="st128" d="M144.5,103c-7.1,15.8-25.3,24.2-42.8,22.6c-20.6-1.8-36.7-20-34.7-41.9c2.1-22.4,24-37.3,45.8-35.8
				c15.8-0.7,31.5,10.3,36.7,26.1C151.4,80,151.7,92.8,144.5,103z"/>
			<path class="st129" d="M144.7,102.6c-7,15.8-25.1,24.5-42.6,23c-20.7-1.7-36.9-19.8-35-41.7c1.9-22.3,23.7-37.4,45.4-36
				c16-0.7,31.6,10.3,36.8,26.1C151.3,79.8,151.7,92.4,144.7,102.6z"/>
			<path class="st130" d="M144.9,102.2c-6.8,15.9-24.8,24.7-42.3,23.3c-20.8-1.6-37.1-19.5-35.3-41.4c1.8-22.3,23.3-37.5,45.1-36.2
				c16.1-0.8,31.8,10.3,37,26.2C151.1,79.6,151.7,92,144.9,102.2z"/>
			<path class="st131" d="M145.1,101.7c-6.7,15.9-24.5,24.9-42.1,23.7c-20.8-1.4-37.3-19.3-35.6-41.2c1.7-22.2,23-37.5,44.8-36.4
				c16.2-0.8,31.9,10.3,37.1,26.2C151,79.3,151.7,91.6,145.1,101.7z"/>
			<path class="st132" d="M145.3,101.3c-6.5,15.9-24.2,25.2-41.9,24c-20.9-1.3-37.4-19.1-36-40.9C69,62.3,90.2,46.8,112,47.9
				c16.3-0.8,32.1,10.3,37.3,26.2C150.9,79.1,151.7,91.2,145.3,101.3z"/>
			<path class="st133" d="M145.5,100.9c-6.3,16-23.9,25.4-41.6,24.3c-21-1.2-37.6-18.9-36.3-40.7c1.4-22.1,22.3-37.7,44.1-36.7
				c16.5-0.8,32.2,10.3,37.5,26.3C150.7,78.9,151.7,90.8,145.5,100.9z"/>
			<path class="st134" d="M145.7,100.5c-6.2,16-23.6,25.6-41.4,24.7c-21-1.1-37.8-18.7-36.6-40.4c1.2-22,21.9-37.7,43.8-36.9
				c16.6-0.8,32.4,10.3,37.6,26.3C150.6,78.6,151.7,90.4,145.7,100.5z"/>
			<path class="st135" d="M145.9,100.1c-6,16.1-23.3,25.9-41.1,25c-21.1-0.9-38-18.5-36.9-40.2c1.1-22,21.6-37.8,43.4-37.1
				c16.7-0.8,32.5,10.4,37.8,26.3C150.4,78.4,151.7,90.1,145.9,100.1z"/>
			<path class="st136" d="M146.1,99.7c-5.9,16.1-23,26.1-40.9,25.4c-21.2-0.8-38.2-18.3-37.2-39.9c1-21.9,21.2-37.9,43.1-37.3
				c16.8-0.8,32.7,10.4,37.9,26.4C150.3,78.1,151.7,89.7,146.1,99.7z"/>
			<path class="st137" d="M146.3,99.3c-5.7,16.1-22.7,26.3-40.7,25.7c-21.2-0.7-38.4-18.1-37.5-39.7c0.8-21.9,20.9-38,42.8-37.5
				c17-0.8,32.8,10.4,38.1,26.4C150.2,77.9,151.7,89.3,146.3,99.3z"/>
			<path class="st138" d="M146.5,98.9c-5.6,16.2-22.4,26.6-40.4,26c-21.3-0.6-38.6-17.9-37.9-39.4c0.7-21.8,20.5-38,42.4-37.6
				c17.1-0.8,33,10.4,38.2,26.4C150,77.7,151.7,88.9,146.5,98.9z"/>
			<path class="st139" d="M146.8,98.5c-5.4,16.2-22.1,26.8-40.2,26.4c-21.3-0.4-38.7-17.7-38.2-39.2c0.6-21.8,20.2-38.1,42.1-37.8
				c17.2-0.8,33.2,10.4,38.4,26.5C149.9,77.4,151.7,88.5,146.8,98.5z"/>
			<path class="st140" d="M147,98.1c-5.3,16.2-21.8,27-40,26.7c-21.4-0.3-38.9-17.5-38.5-39c0.4-21.7,19.8-38.2,41.8-38
				c17.3-0.8,33.3,10.4,38.6,26.5C149.7,77.2,151.7,88.1,147,98.1z"/>
			<path class="st141" d="M147.2,97.7c-5.1,16.3-21.6,27.3-39.7,27.1C86,124.5,68.3,107.4,68.6,86c0.3-21.6,19.5-38.2,41.4-38.2
				c17.4-0.8,33.5,10.4,38.7,26.5C149.6,77,151.7,87.7,147.2,97.7z"/>
			<path class="st142" d="M147.4,97.2c-5,16.3-21.3,27.5-39.5,27.4c-21.5-0.1-39.3-17.1-39.1-38.5c0.1-21.6,19.1-38.3,41.1-38.4
				c17.6-0.8,33.6,10.5,38.9,26.6C149.5,76.7,151.7,87.4,147.4,97.2z"/>
			<path class="st143" d="M147.6,96.8c-4.8,16.4-21,27.7-39.2,27.7c-21.6,0-39.5-16.9-39.5-38.2c0-21.5,18.8-38.4,40.8-38.5
				c17.7-0.8,33.8,10.5,39,26.6C149.3,76.5,151.7,87,147.6,96.8z"/>
			<path class="st144" d="M147.8,96.4c-4.7,16.4-20.7,28-39,28.1c-21.7,0.2-39.7-16.6-39.8-38c-0.1-21.5,18.4-38.5,40.4-38.7
				c17.8-0.8,33.9,10.5,39.2,26.6C149.2,76.3,151.7,86.6,147.8,96.4z"/>
			<path class="st145" d="M148,96c-4.5,16.4-20.4,28.2-38.8,28.4c-21.7,0.3-39.8-16.4-40.1-37.7c-0.2-21.4,18.1-38.5,40.1-38.9
				c17.9-0.8,34.1,10.5,39.3,26.7C149,76,151.7,86.2,148,96z"/>
			<path class="st146" d="M148.2,95.6c-4.3,16.5-20.1,28.4-38.5,28.8c-21.8,0.4-40-16.2-40.4-37.5C68.9,65.5,86.9,48.3,109,47.8
				c18.1-0.8,34.2,10.5,39.5,26.7C148.9,75.8,151.7,85.8,148.2,95.6z"/>
			<path class="st147" d="M148.4,95.2c-4.2,16.5-19.8,28.7-38.3,29.1c-21.9,0.5-40.2-16-40.7-37.2c-0.5-21.3,17.4-38.7,39.4-39.3
				c18.2-0.9,34.4,10.5,39.7,26.7C148.8,75.6,151.7,85.4,148.4,95.2z"/>
			<path class="st148" d="M148.6,94.8c-4,16.6-19.5,28.9-38,29.4c-21.9,0.7-40.4-15.8-41.1-37c-0.7-21.2,17-38.8,39.1-39.5
				c18.3-0.9,34.5,10.5,39.8,26.7C148.6,75.3,151.7,85,148.6,94.8z"/>
			<path class="st149" d="M148.8,94.4c-3.9,16.6-19.2,29.1-37.8,29.8c-22,0.8-40.6-15.6-41.4-36.8c-0.8-21.2,16.7-38.8,38.8-39.6
				c18.4-0.9,34.7,10.5,40,26.8C148.5,75.1,151.7,84.7,148.8,94.4z"/>
			<path class="st150" d="M149,94c-3.7,16.6-18.9,29.4-37.6,30.1c-22.1,0.9-40.7-15.4-41.7-36.5C68.8,66.5,86,48.7,108.1,47.8
				c18.6-0.9,34.8,10.6,40.1,26.8C148.3,74.8,151.7,84.3,149,94z"/>
			<path class="st151" d="M149.2,93.6c-3.6,16.7-18.6,29.6-37.3,30.5c-22.1,1-40.9-15.2-42-36.3c-1.1-21.1,16-39,38.1-40
				c18.7-0.9,35,10.6,40.3,26.8C148.2,74.6,151.7,83.9,149.2,93.6z"/>
		</g>
		<path class="st154" d="M64.1,80.2c0,26.6,22.7,48.2,50.6,48.2c28,0,50.6-21.6,50.6-48.2c0-26.6-22.7-48.2-50.6-48.2
			C86.7,32,64.1,53.6,64.1,80.2z"/>
		
			<linearGradient id="SVGID_2_" gradientUnits="userSpaceOnUse" x1="1779.6349" y1="110.3777" x2="1693.5785" y2="50.1204" gradientTransform="matrix(-1 0 0 1 1851.2891 0)">
			<stop  offset="3.465350e-02" style="stop-color:#878787"/>
			<stop  offset="0.8614" style="stop-color:#FFFFFF"/>
		</linearGradient>
		<path class="st155" d="M114.7,131.1c29.4,0,53.4-22.8,53.4-50.8c0-28-23.9-50.8-53.4-50.8c-29.4,0-53.4,22.8-53.4,50.8
			C61.3,108.3,85.3,131.1,114.7,131.1z"/>
		<linearGradient id="SVGID_3_" gradientUnits="userSpaceOnUse" x1="78.4854" y1="116.4462" x2="150.8797" y2="44.0519">
			<stop  offset="0.3951" style="stop-color:#FFFFFF"/>
			<stop  offset="1" style="stop-color:#DBDBDB"/>
		</linearGradient>
		<path class="st156" d="M114.7,130.2c28.9,0,52.5-22.4,52.5-49.9c0-27.5-23.5-49.9-52.5-49.9S62.2,52.7,62.2,80.2
			C62.2,107.8,85.8,130.2,114.7,130.2z"/>
		
			<radialGradient id="SVGID_4_" cx="105.7301" cy="92.3104" r="9.4815" gradientTransform="matrix(7.6719 0 0 7.305 -667.6276 -618.4899)" gradientUnits="userSpaceOnUse">
			<stop  offset="9.268290e-02" style="stop-color:#F8C00D"/>
			<stop  offset="1" style="stop-color:#F19106"/>
		</radialGradient>
		<path class="st157" d="M114.7,125.5c-26.2,0-47.6-20.3-47.6-45.3S88.5,35,114.7,35s47.6,20.3,47.6,45.3S140.9,125.5,114.7,125.5z"
			/>
	</g>
</g>
</svg>
