<?xml version="1.0" encoding="utf-8"?>
<!-- Generator: Adobe Illustrator 25.2.0, SVG Export Plug-In . SVG Version: 6.00 Build 0)  -->
<svg version="1.1" id="Layer_1" xmlns="http://www.w3.org/2000/svg" xmlns:xlink="http://www.w3.org/1999/xlink" x="0px" y="0px"
	 viewBox="0 0 200 200" style="enable-background:new 0 0 200 200;" xml:space="preserve">
<style type="text/css">
	.st0{fill:url(#SVGID_1_);}
	.st1{fill:url(#SVGID_2_);}
	.st2{fill:url(#SVGID_3_);}
	.st3{fill:url(#SVGID_4_);}
	.st4{fill:url(#SVGID_5_);}
	.st5{fill:url(#SVGID_6_);}
	.st6{fill:url(#SVGID_7_);}
	.st7{fill:url(#SVGID_8_);}
	.st8{fill:url(#SVGID_9_);}
	.st9{fill:url(#SVGID_10_);}
	.st10{fill:url(#SVGID_11_);}
	.st11{fill:url(#SVGID_12_);}
	.st12{fill:url(#SVGID_13_);}
	.st13{fill:#FFFFFF;}
	.st14{fill:url(#SVGID_14_);}
</style>
<g>
	
		<radialGradient id="SVGID_1_" cx="101.2694" cy="104.6881" r="2.4413" gradientTransform="matrix(8.485 0 0 11.6471 -745.7375 -1061.9286)" gradientUnits="userSpaceOnUse">
		<stop  offset="0.201" style="stop-color:#1D1E1C"/>
		<stop  offset="0.2276" style="stop-color:#2A2B29"/>
		<stop  offset="0.3941" style="stop-color:#757574"/>
		<stop  offset="0.5428" style="stop-color:#B0B0B0"/>
		<stop  offset="0.6685" style="stop-color:#DBDBDB"/>
		<stop  offset="0.7663" style="stop-color:#F5F5F5"/>
		<stop  offset="0.8241" style="stop-color:#FFFFFF"/>
	</radialGradient>
	<path class="st0" d="M134.3,157.4c0,15.7-9.3,28.4-20.7,28.4c-11.4,0-20.7-12.7-20.7-28.4c0-15.7,9.3-28.4,20.7-28.4
		C125,129,134.3,141.7,134.3,157.4z"/>
	
		<radialGradient id="SVGID_2_" cx="109.1794" cy="101.5464" r="1.9183" gradientTransform="matrix(8.485 0 0 11.6471 -745.7375 -1061.9286)" gradientUnits="userSpaceOnUse">
		<stop  offset="0.201" style="stop-color:#1D1E1C"/>
		<stop  offset="0.2276" style="stop-color:#2A2B29"/>
		<stop  offset="0.3941" style="stop-color:#757574"/>
		<stop  offset="0.5428" style="stop-color:#B0B0B0"/>
		<stop  offset="0.6685" style="stop-color:#DBDBDB"/>
		<stop  offset="0.7663" style="stop-color:#F5F5F5"/>
		<stop  offset="0.8241" style="stop-color:#FFFFFF"/>
	</radialGradient>
	<path class="st1" d="M196.9,120.8c0,12.3-7.3,22.3-16.3,22.3c-9,0-16.3-10-16.3-22.3c0-12.3,7.3-22.3,16.3-22.3
		C189.6,98.5,196.9,108.5,196.9,120.8z"/>
	
		<radialGradient id="SVGID_3_" cx="105.8195" cy="102.7592" r="3.166" gradientTransform="matrix(8.485 0 0 11.6471 -745.7375 -1061.9286)" gradientUnits="userSpaceOnUse">
		<stop  offset="0.201" style="stop-color:#1D1E1C"/>
		<stop  offset="0.2276" style="stop-color:#2A2B29"/>
		<stop  offset="0.3941" style="stop-color:#757574"/>
		<stop  offset="0.5428" style="stop-color:#B0B0B0"/>
		<stop  offset="0.6685" style="stop-color:#DBDBDB"/>
		<stop  offset="0.7663" style="stop-color:#F5F5F5"/>
		<stop  offset="0.8241" style="stop-color:#FFFFFF"/>
	</radialGradient>
	<path class="st2" d="M179,134.9c0,20.4-12,36.9-26.9,36.9c-14.8,0-26.9-16.5-26.9-36.9c0-20.4,12-36.9,26.9-36.9
		C167,98,179,114.6,179,134.9z"/>
	
		<radialGradient id="SVGID_4_" cx="99.7754" cy="103.6501" r="4.6967" gradientTransform="matrix(8.485 0 0 11.6471 -745.7375 -1061.9286)" gradientUnits="userSpaceOnUse">
		<stop  offset="0.2312" style="stop-color:#1D1E1C"/>
		<stop  offset="0.3614" style="stop-color:#5A5A59"/>
		<stop  offset="0.5262" style="stop-color:#A0A09F"/>
		<stop  offset="0.6638" style="stop-color:#D3D3D3"/>
		<stop  offset="0.767" style="stop-color:#F3F3F3"/>
		<stop  offset="0.8241" style="stop-color:#FFFFFF"/>
	</radialGradient>
	<path class="st3" d="M140.7,145.3c0,30.2-17.8,54.7-39.9,54.7c-22,0-39.9-24.5-39.9-54.7c0-30.2,17.8-54.7,39.9-54.7
		C122.9,90.6,140.7,115.1,140.7,145.3z"/>
	
		<radialGradient id="SVGID_5_" cx="94.0213" cy="101.749" r="6.1328" gradientTransform="matrix(8.485 0 0 11.6471 -745.7375 -1061.9286)" gradientUnits="userSpaceOnUse">
		<stop  offset="0.201" style="stop-color:#1D1E1C"/>
		<stop  offset="0.2276" style="stop-color:#2A2B29"/>
		<stop  offset="0.3941" style="stop-color:#757574"/>
		<stop  offset="0.5428" style="stop-color:#B0B0B0"/>
		<stop  offset="0.6685" style="stop-color:#DBDBDB"/>
		<stop  offset="0.7663" style="stop-color:#F5F5F5"/>
		<stop  offset="0.8241" style="stop-color:#FFFFFF"/>
	</radialGradient>
	<path class="st4" d="M104.1,123.2c0,39.4-23.3,71.4-52,71.4c-28.7,0-52-32-52-71.4c0-39.5,23.3-71.4,52-71.4
		C80.8,51.7,104.1,83.7,104.1,123.2z"/>
	<g>
		<g>
			<linearGradient id="SVGID_6_" gradientUnits="userSpaceOnUse" x1="45.0687" y1="161.9032" x2="172.2287" y2="34.7432">
				<stop  offset="0" style="stop-color:#EAEAEA"/>
				<stop  offset="1" style="stop-color:#FFFFFF"/>
			</linearGradient>
			<path class="st5" d="M187.5,93.7c-2.3-10.9-7.4-20.2-14.1-26.3c0.8-3.6,1.3-7.4,1.3-11.3c0-20.6-12.2-37.3-27.2-37.3
				c-4.2,0-8.2,1.3-11.8,3.7C128.1,8.9,116.1,0,102.6,0C83.4,0,67.2,17.9,62.4,42.1c-23.8,2.1-42.7,29.3-42.7,62.5
				c0,34.6,20.4,62.6,45.6,62.6c5.4,0,10.6-1.3,15.4-3.7c7.5,8.5,17.2,13.6,27.7,13.6c14.8,0,28-10.2,35.9-25.7
				c3.3,1.4,6.7,2.2,10.3,2.2c11.2,0,21.2-7.4,27.4-18.9c0.9,0.2,1.8,0.3,2.8,0.3c8.4,0,15.2-9.3,15.2-20.9
				C200,104,194.6,95.5,187.5,93.7z"/>
			<linearGradient id="SVGID_7_" gradientUnits="userSpaceOnUse" x1="97.2908" y1="175.7492" x2="127.3179" y2="5.4571">
				<stop  offset="0" style="stop-color:#ECECEC"/>
				<stop  offset="0.7638" style="stop-color:#D4D5D4"/>
			</linearGradient>
			<path class="st6" d="M186.5,95.1c-2.3-10.9-7.5-21.4-14.5-26.9c0.8-2.1,1.6-6.2,1.6-10.7c0.1-20.6-11.1-36.9-26.1-36.9
				c-4.2,0-8.9,2.2-12.4,4.5c-6.8-13.9-20-23.8-33.5-23.8c-19.2,0-34.7,17.4-39.1,41.7c-23.8,2.1-42.7,28.3-42.7,61.6
				c0,34.6,20.4,62.6,45.6,62.6c5.4,0,10.6-1.3,15.4-3.7c7.5,8.5,17.2,13.6,27.7,13.6c14.8,0,28-10.2,35.9-25.7
				c3.3,1.4,6.7,2.2,10.3,2.2c11.2,0,21.2-7.4,27.4-18.9c0.9,0.2,1.8,0.3,2.8,0.3c8.4,0,13.9-8,14.2-19.5
				C199.2,105,193.6,96.9,186.5,95.1z"/>
		</g>
	</g>
	<linearGradient id="SVGID_8_" gradientUnits="userSpaceOnUse" x1="109.3246" y1="170.5246" x2="109.3246" y2="6.0332">
		<stop  offset="0" style="stop-color:#4DA2DA"/>
		<stop  offset="0.2963" style="stop-color:#4D9AD4"/>
		<stop  offset="0.7514" style="stop-color:#4C85C4"/>
		<stop  offset="1" style="stop-color:#4B76B9"/>
	</linearGradient>
	<path class="st7" d="M107.9,170.5c-9,0-17.9-4.3-24.8-12.2l-1.9-2.1l-2.3,1.1c-4.4,2.2-9.1,3.3-13.9,3.3
		c-22.7,0-41.1-25.3-41.1-56.4c0-29.7,16.9-54.4,38.5-56.3l3-0.3l0.8-4C70.7,21.5,85.4,6,102.1,6c11.7,0,22.5,7.3,29.6,20.1l2.1,3.8
		l3.1-2.1c3.1-2,6.4-3.1,9.9-3.1c12.5,0,22.7,14,22.7,31.2c0,3.2-0.4,6.4-1.1,9.5l-1,4.2l2.7,2.4c6,5.4,10.3,13.5,12.3,22.9l0.7,3.5
		l2.6,0.6c5.2,1.3,8.9,7.4,8.9,14.7c0,8.2-4.9,14.9-10.9,14.9c-0.6,0-1.3-0.1-2-0.3l-2.6-0.7l-1.6,2.9
		c-5.7,10.4-14.4,16.4-23.9,16.4c-3.1,0-6.1-0.6-9-1.9l-3-1.3l-1.8,3.5C132.7,161.9,120.7,170.5,107.9,170.5z"/>
	<g>
		
			<radialGradient id="SVGID_9_" cx="107.3089" cy="100.97" r="1.4938" gradientTransform="matrix(8.485 0 0 11.6471 -745.7375 -1061.9286)" gradientUnits="userSpaceOnUse">
			<stop  offset="0.201" style="stop-color:#1D1E1C"/>
			<stop  offset="0.2276" style="stop-color:#2A2B29"/>
			<stop  offset="0.3941" style="stop-color:#757574"/>
			<stop  offset="0.5428" style="stop-color:#B0B0B0"/>
			<stop  offset="0.6685" style="stop-color:#DBDBDB"/>
			<stop  offset="0.7663" style="stop-color:#F5F5F5"/>
			<stop  offset="0.8241" style="stop-color:#FFFFFF"/>
		</radialGradient>
		<path class="st8" d="M177.5,114.1c0,9.6-5.7,17.4-12.7,17.4c-7,0-12.7-7.8-12.7-17.4c0-9.6,5.7-17.4,12.7-17.4
			C171.8,96.7,177.5,104.5,177.5,114.1z"/>
		
			<radialGradient id="SVGID_10_" cx="104.4198" cy="102.0053" r="2.4653" gradientTransform="matrix(8.485 0 0 11.6471 -745.7375 -1061.9286)" gradientUnits="userSpaceOnUse">
			<stop  offset="0.201" style="stop-color:#1D1E1C"/>
			<stop  offset="0.2276" style="stop-color:#2A2B29"/>
			<stop  offset="0.3941" style="stop-color:#757574"/>
			<stop  offset="0.5428" style="stop-color:#B0B0B0"/>
			<stop  offset="0.6685" style="stop-color:#DBDBDB"/>
			<stop  offset="0.7663" style="stop-color:#F5F5F5"/>
			<stop  offset="0.8241" style="stop-color:#FFFFFF"/>
		</radialGradient>
		<path class="st9" d="M161.2,126.1c0,15.9-9.4,28.7-20.9,28.7c-11.6,0-20.9-12.9-20.9-28.7c0-15.9,9.4-28.7,20.9-28.7
			C151.8,97.4,161.2,110.3,161.2,126.1z"/>
		
			<radialGradient id="SVGID_11_" cx="101.1496" cy="103.4164" r="1.9009" gradientTransform="matrix(8.485 0 0 11.6471 -745.7375 -1061.9286)" gradientUnits="userSpaceOnUse">
			<stop  offset="0.201" style="stop-color:#1D1E1C"/>
			<stop  offset="0.2276" style="stop-color:#2A2B29"/>
			<stop  offset="0.3941" style="stop-color:#757574"/>
			<stop  offset="0.5428" style="stop-color:#B0B0B0"/>
			<stop  offset="0.6685" style="stop-color:#DBDBDB"/>
			<stop  offset="0.7663" style="stop-color:#F5F5F5"/>
			<stop  offset="0.8241" style="stop-color:#FFFFFF"/>
		</radialGradient>
		<path class="st10" d="M128.7,142.6c0,12.2-7.2,22.1-16.1,22.1c-8.9,0-16.1-9.9-16.1-22.1c0-12.2,7.2-22.1,16.1-22.1
			C121.4,120.4,128.7,130.3,128.7,142.6z"/>
		
			<radialGradient id="SVGID_12_" cx="99.7752" cy="102.8917" r="3.6572" gradientTransform="matrix(8.485 0 0 11.6471 -745.7375 -1061.9286)" gradientUnits="userSpaceOnUse">
			<stop  offset="0.2312" style="stop-color:#1D1E1C"/>
			<stop  offset="0.3614" style="stop-color:#5A5A59"/>
			<stop  offset="0.5262" style="stop-color:#A0A09F"/>
			<stop  offset="0.6638" style="stop-color:#D3D3D3"/>
			<stop  offset="0.767" style="stop-color:#F3F3F3"/>
			<stop  offset="0.8241" style="stop-color:#FFFFFF"/>
		</radialGradient>
		<path class="st11" d="M131.9,136.5c0,23.5-13.9,42.6-31,42.6c-17.1,0-31-19.1-31-42.6c0-23.5,13.9-42.6,31-42.6
			C118,93.9,131.9,112.9,131.9,136.5z"/>
		
			<radialGradient id="SVGID_13_" cx="95.3786" cy="101.5155" r="4.7755" gradientTransform="matrix(8.485 0 0 11.6471 -745.7375 -1061.9286)" gradientUnits="userSpaceOnUse">
			<stop  offset="0.201" style="stop-color:#1D1E1C"/>
			<stop  offset="0.2276" style="stop-color:#2A2B29"/>
			<stop  offset="0.3941" style="stop-color:#757574"/>
			<stop  offset="0.5428" style="stop-color:#B0B0B0"/>
			<stop  offset="0.6685" style="stop-color:#DBDBDB"/>
			<stop  offset="0.7663" style="stop-color:#F5F5F5"/>
			<stop  offset="0.8241" style="stop-color:#FFFFFF"/>
		</radialGradient>
		<ellipse class="st12" cx="63.6" cy="120.4" rx="40.5" ry="55.6"/>
		<g>
			<path class="st13" d="M169.4,92.7c-1.8-8.4-5.7-15.6-10.9-20.3c0.6-2.8,1-5.7,1-8.8c0-15.9-9.4-28.9-21-28.9
				c-3.3,0-6.4,1-9.1,2.9c-5.9-10.6-15.2-17.5-25.7-17.5c-14.9,0-27.4,13.8-31.1,32.6c-18.5,1.6-33.1,22.7-33.1,48.4
				c0,26.8,15.8,48.5,35.3,48.5c4.2,0,8.2-1,11.9-2.8c5.8,6.6,13.3,10.5,21.4,10.5c11.5,0,21.6-7.9,27.8-19.9c2.5,1.1,5.2,1.7,8,1.7
				c8.7,0,16.4-5.7,21.2-14.6c0.7,0.2,1.4,0.3,2.1,0.3c6.5,0,11.8-7.2,11.8-16.2C179,100.7,174.9,94.1,169.4,92.7z"/>
			<linearGradient id="SVGID_14_" gradientUnits="userSpaceOnUse" x1="99.5223" y1="156.2305" x2="122.7694" y2="24.3896">
				<stop  offset="0.1156" style="stop-color:#FFFFFF"/>
				<stop  offset="0.1238" style="stop-color:#FFFFFF"/>
				<stop  offset="0.478" style="stop-color:#EFEFEF"/>
				<stop  offset="0.7638" style="stop-color:#EAEAEA"/>
			</linearGradient>
			<path class="st14" d="M168.6,93.8c-1.8-8.4-5.8-16.6-11.2-20.8c0.6-1.6,1.2-4.8,1.3-8.3c0.1-15.9-8.6-28.6-20.2-28.6
				c-3.3,0-6.9,1.7-9.6,3.5c-5.3-10.8-15.5-18.4-26-18.4c-14.9,0-26.8,13.4-30.3,32.3c-18.5,1.6-33.1,21.9-33.1,47.7
				c0,26.8,15.8,48.5,35.3,48.5c4.2,0,8.2-1,11.9-2.8c5.8,6.6,13.3,10.5,21.4,10.5c11.5,0,21.6-7.9,27.8-19.9c2.5,1.1,5.2,1.7,8,1.7
				c8.7,0,16.4-5.7,21.2-14.6c0.7,0.2,1.4,0.3,2.1,0.3c6.5,0,10.7-6.2,11-15.1C178.4,101.4,174.1,95.1,168.6,93.8z"/>
		</g>
	</g>
</g>
</svg>
