<?xml version="1.0" encoding="utf-8"?>
<!-- Generator: Adobe Illustrator 25.3.1, SVG Export Plug-In . SVG Version: 6.00 Build 0)  -->
<svg version="1.1" id="Layer_1" xmlns="http://www.w3.org/2000/svg" xmlns:xlink="http://www.w3.org/1999/xlink" x="0px" y="0px"
	 viewBox="0 0 800 800" style="enable-background:new 0 0 800 800;" xml:space="preserve">
<style type="text/css">
	.st0{clip-path:url(#SVGID_2_);}
	.st1{clip-path:url(#SVGID_4_);}
	.st2{clip-path:url(#SVGID_6_);}
	.st3{clip-path:url(#SVGID_8_);}
	.st4{clip-path:url(#SVGID_10_);fill:url(#SVGID_11_);}
	.st5{clip-path:url(#SVGID_13_);}
	.st6{clip-path:url(#SVGID_15_);}
	.st7{clip-path:url(#SVGID_17_);fill:url(#SVGID_18_);}
	.st8{clip-path:url(#SVGID_20_);}
	.st9{clip-path:url(#SVGID_22_);}
	.st10{clip-path:url(#SVGID_24_);fill:url(#SVGID_25_);}
	.st11{clip-path:url(#SVGID_27_);}
	.st12{clip-path:url(#SVGID_29_);}
	.st13{clip-path:url(#SVGID_31_);fill:url(#SVGID_32_);}
	.st14{clip-path:url(#SVGID_34_);}
	.st15{clip-path:url(#SVGID_36_);}
	.st16{clip-path:url(#SVGID_38_);fill:url(#SVGID_39_);}
	.st17{clip-path:url(#SVGID_41_);}
	.st18{clip-path:url(#SVGID_43_);fill:url(#SVGID_44_);}
	.st19{clip-path:url(#SVGID_46_);}
	.st20{clip-path:url(#SVGID_48_);fill:url(#SVGID_49_);}
	.st21{clip-path:url(#SVGID_51_);}
	.st22{clip-path:url(#SVGID_53_);fill:url(#SVGID_54_);}
	.st23{clip-path:url(#SVGID_56_);}
	.st24{clip-path:url(#SVGID_58_);}
	.st25{clip-path:url(#SVGID_60_);}
	.st26{clip-path:url(#SVGID_62_);fill:url(#SVGID_63_);}
	.st27{clip-path:url(#SVGID_65_);}
	.st28{clip-path:url(#SVGID_67_);}
	.st29{clip-path:url(#SVGID_69_);fill:url(#SVGID_70_);}
	.st30{clip-path:url(#SVGID_72_);}
	.st31{clip-path:url(#SVGID_74_);}
	.st32{clip-path:url(#SVGID_76_);fill:url(#SVGID_77_);}
	.st33{clip-path:url(#SVGID_79_);}
	.st34{clip-path:url(#SVGID_81_);}
	.st35{clip-path:url(#SVGID_83_);fill:url(#SVGID_84_);}
	.st36{clip-path:url(#SVGID_86_);}
	.st37{clip-path:url(#SVGID_88_);}
	.st38{clip-path:url(#SVGID_90_);fill:url(#SVGID_91_);}
	.st39{clip-path:url(#SVGID_93_);fill:#FFFFFF;}
	.st40{clip-path:url(#SVGID_95_);}
	.st41{clip-path:url(#SVGID_97_);fill:url(#SVGID_98_);}
	.st42{clip-path:url(#SVGID_100_);}
	.st43{clip-path:url(#SVGID_102_);fill:#39A8E0;}
	.st44{clip-path:url(#SVGID_104_);fill:#39A8E0;}
	.st45{clip-path:url(#SVGID_106_);fill:#39A8E0;}
	.st46{clip-path:url(#SVGID_108_);fill:#39A8E0;}
	.st47{clip-path:url(#SVGID_110_);fill:#39A8E0;}
	.st48{clip-path:url(#SVGID_112_);fill:#39A8E0;}
	.st49{clip-path:url(#SVGID_114_);fill:#39A8E0;}
	.st50{clip-path:url(#SVGID_116_);fill:#39A8E0;}
	.st51{clip-path:url(#SVGID_118_);fill:#39A8E0;}
	.st52{clip-path:url(#SVGID_120_);fill:#39A8E0;}
	.st53{clip-path:url(#SVGID_122_);fill:#39A8E0;}
	.st54{clip-path:url(#SVGID_124_);fill:#39A8E0;}
	.st55{clip-path:url(#SVGID_126_);fill:#39A8E0;}
	.st56{clip-path:url(#SVGID_128_);fill:#39A8E0;}
	.st57{clip-path:url(#SVGID_130_);fill:#39A8E0;}
	.st58{clip-path:url(#SVGID_132_);fill:#39A8E0;}
	.st59{clip-path:url(#SVGID_134_);fill:#39A8E0;}
	.st60{clip-path:url(#SVGID_136_);fill:#39A8E0;}
	.st61{clip-path:url(#SVGID_138_);fill:#39A8E0;}
	.st62{clip-path:url(#SVGID_140_);fill:#39A8E0;}
	.st63{clip-path:url(#SVGID_142_);fill:#39A8E0;}
	.st64{clip-path:url(#SVGID_144_);fill:#39A8E0;}
	.st65{clip-path:url(#SVGID_146_);fill:#39A8E0;}
	.st66{clip-path:url(#SVGID_148_);fill:#39A8E0;}
	.st67{clip-path:url(#SVGID_150_);fill:#39A8E0;}
	.st68{clip-path:url(#SVGID_152_);fill:#39A8E0;}
	.st69{clip-path:url(#SVGID_154_);fill:#39A8E0;}
	.st70{clip-path:url(#SVGID_156_);fill:#39A8E0;}
	.st71{clip-path:url(#SVGID_158_);fill:#39A8E0;}
	.st72{clip-path:url(#SVGID_160_);fill:#39A8E0;}
	.st73{clip-path:url(#SVGID_162_);fill:#39A8E0;}
	.st74{clip-path:url(#SVGID_164_);fill:#39A8E0;}
	.st75{clip-path:url(#SVGID_166_);fill:#39A8E0;}
	.st76{clip-path:url(#SVGID_168_);fill:#39A8E0;}
	.st77{clip-path:url(#SVGID_170_);fill:#39A8E0;}
</style>
<g id="Artwork_37_1_">
	<g>
		<g>
			<defs>
				<rect id="SVGID_1_" width="800" height="800"/>
			</defs>
			<clipPath id="SVGID_2_">
				<use xlink:href="#SVGID_1_"  style="overflow:visible;"/>
			</clipPath>
			<g class="st0">
				<g>
					<defs>
						<rect id="SVGID_3_" width="800" height="800"/>
					</defs>
					<clipPath id="SVGID_4_">
						<use xlink:href="#SVGID_3_"  style="overflow:visible;"/>
					</clipPath>
					<g class="st1">
						<g>
							<defs>
								<rect id="SVGID_5_" y="-0.01" width="800" height="800.01"/>
							</defs>
							<clipPath id="SVGID_6_">
								<use xlink:href="#SVGID_5_"  style="overflow:visible;"/>
							</clipPath>
							<g class="st2">
								<g>
									<g>
										<defs>
											<rect id="SVGID_7_" x="371.29" y="379.21" width="165.72" height="167.23"/>
										</defs>
										<clipPath id="SVGID_8_">
											<use xlink:href="#SVGID_7_"  style="overflow:visible;"/>
										</clipPath>
										<g class="st3">
											<g>
												<defs>
													<path id="SVGID_9_" d="M537,462.81c0,46.2-37.1,83.64-82.85,83.64s-82.88-37.44-82.88-83.64
														c0-46.17,37.13-83.6,82.88-83.6C499.9,379.2,537,416.64,537,462.81"/>
												</defs>
												<clipPath id="SVGID_10_">
													<use xlink:href="#SVGID_9_"  style="overflow:visible;"/>
												</clipPath>
												
													<radialGradient id="SVGID_11_" cx="-1.364608e-04" cy="800" r="1.0001" gradientTransform="matrix(82.8572 0 0 83.6139 454.1463 -66428.2969)" gradientUnits="userSpaceOnUse">
													<stop  offset="0" style="stop-color:#1E1F1D"/>
													<stop  offset="0.201" style="stop-color:#1E1F1D"/>
													<stop  offset="0.2198" style="stop-color:#272826"/>
													<stop  offset="0.389" style="stop-color:#737372"/>
													<stop  offset="0.5399" style="stop-color:#AFAFAF"/>
													<stop  offset="0.6672" style="stop-color:#DADBDA"/>
													<stop  offset="0.766" style="stop-color:#F5F5F5"/>
													<stop  offset="0.8241" style="stop-color:#FFFFFF"/>
													<stop  offset="1" style="stop-color:#FFFFFF"/>
												</radialGradient>
												<rect x="371.27" y="379.2" class="st4" width="165.73" height="167.24"/>
											</g>
										</g>
									</g>
								</g>
							</g>
						</g>
						<g>
							<defs>
								<rect id="SVGID_12_" y="-0.01" width="800" height="800.01"/>
							</defs>
							<clipPath id="SVGID_13_">
								<use xlink:href="#SVGID_12_"  style="overflow:visible;"/>
							</clipPath>
							<g class="st5">
								<g>
									<g>
										<defs>
											<rect id="SVGID_14_" x="657.51" y="289.52" width="130.21" height="131.41"/>
										</defs>
										<clipPath id="SVGID_15_">
											<use xlink:href="#SVGID_14_"  style="overflow:visible;"/>
										</clipPath>
										<g class="st6">
											<g>
												<defs>
													<path id="SVGID_16_" d="M787.72,355.23c0,36.27-29.15,65.69-65.1,65.69c-35.98,0-65.13-29.42-65.13-65.69
														c0-36.31,29.15-65.73,65.13-65.73C758.56,289.5,787.72,318.92,787.72,355.23"/>
												</defs>
												<clipPath id="SVGID_17_">
													<use xlink:href="#SVGID_16_"  style="overflow:visible;"/>
												</clipPath>
												
													<radialGradient id="SVGID_18_" cx="-1.199926e-04" cy="799.9999" r="1.0001" gradientTransform="matrix(65.1082 0 0 65.7028 722.6128 -52207.0195)" gradientUnits="userSpaceOnUse">
													<stop  offset="0" style="stop-color:#1E1F1D"/>
													<stop  offset="0.201" style="stop-color:#1E1F1D"/>
													<stop  offset="0.2198" style="stop-color:#272826"/>
													<stop  offset="0.389" style="stop-color:#737372"/>
													<stop  offset="0.5399" style="stop-color:#AFAFAF"/>
													<stop  offset="0.6672" style="stop-color:#DADBDA"/>
													<stop  offset="0.766" style="stop-color:#F5F5F5"/>
													<stop  offset="0.8241" style="stop-color:#FFFFFF"/>
													<stop  offset="1" style="stop-color:#FFFFFF"/>
												</radialGradient>
												<rect x="657.49" y="289.5" class="st7" width="130.23" height="131.42"/>
											</g>
										</g>
									</g>
								</g>
							</g>
						</g>
						<g>
							<defs>
								<rect id="SVGID_19_" y="-0.01" width="800" height="800.01"/>
							</defs>
							<clipPath id="SVGID_20_">
								<use xlink:href="#SVGID_19_"  style="overflow:visible;"/>
							</clipPath>
							<g class="st8">
								<g>
									<g>
										<defs>
											<rect id="SVGID_21_" x="501.12" y="288.32" width="214.91" height="216.87"/>
										</defs>
										<clipPath id="SVGID_22_">
											<use xlink:href="#SVGID_21_"  style="overflow:visible;"/>
										</clipPath>
										<g class="st9">
											<g>
												<defs>
													<path id="SVGID_23_" d="M716.04,396.77c0,59.87-48.09,108.44-107.45,108.44s-107.45-48.57-107.45-108.44
														c0-59.9,48.09-108.44,107.45-108.44S716.04,336.87,716.04,396.77"/>
												</defs>
												<clipPath id="SVGID_24_">
													<use xlink:href="#SVGID_23_"  style="overflow:visible;"/>
												</clipPath>
												
													<radialGradient id="SVGID_25_" cx="7.213718e-05" cy="800.0002" r="1" gradientTransform="matrix(107.4545 0 0 108.4358 608.5773 -86351.8828)" gradientUnits="userSpaceOnUse">
													<stop  offset="0" style="stop-color:#1E1F1D"/>
													<stop  offset="0.201" style="stop-color:#1E1F1D"/>
													<stop  offset="0.2198" style="stop-color:#272826"/>
													<stop  offset="0.389" style="stop-color:#737372"/>
													<stop  offset="0.5399" style="stop-color:#AFAFAF"/>
													<stop  offset="0.6672" style="stop-color:#DADBDA"/>
													<stop  offset="0.766" style="stop-color:#F5F5F5"/>
													<stop  offset="0.8241" style="stop-color:#FFFFFF"/>
													<stop  offset="1" style="stop-color:#FFFFFF"/>
												</radialGradient>
												<rect x="501.13" y="288.34" class="st10" width="214.91" height="216.87"/>
											</g>
										</g>
									</g>
								</g>
							</g>
						</g>
						<g>
							<defs>
								<rect id="SVGID_26_" y="-0.01" width="800" height="800.01"/>
							</defs>
							<clipPath id="SVGID_27_">
								<use xlink:href="#SVGID_26_"  style="overflow:visible;"/>
							</clipPath>
							<g class="st11">
								<g>
									<g>
										<defs>
											<rect id="SVGID_28_" x="244.03" y="266.41" width="318.81" height="321.72"/>
										</defs>
										<clipPath id="SVGID_29_">
											<use xlink:href="#SVGID_28_"  style="overflow:visible;"/>
										</clipPath>
										<g class="st12">
											<g>
												<defs>
													<path id="SVGID_30_" d="M562.83,427.26c0,88.84-71.34,160.87-159.38,160.87S244.03,516.1,244.03,427.26
														c0-88.81,71.38-160.84,159.42-160.84S562.83,338.45,562.83,427.26"/>
												</defs>
												<clipPath id="SVGID_31_">
													<use xlink:href="#SVGID_30_"  style="overflow:visible;"/>
												</clipPath>
												
													<radialGradient id="SVGID_32_" cx="-5.025479e-05" cy="800.0001" r="1" gradientTransform="matrix(159.405 0 0 160.8607 403.438 -128261.2969)" gradientUnits="userSpaceOnUse">
													<stop  offset="0" style="stop-color:#1E1F1D"/>
													<stop  offset="0.2312" style="stop-color:#1E1F1D"/>
													<stop  offset="0.3544" style="stop-color:#575856"/>
													<stop  offset="0.5221" style="stop-color:#9E9F9E"/>
													<stop  offset="0.662" style="stop-color:#D3D3D2"/>
													<stop  offset="0.7666" style="stop-color:#F3F3F3"/>
													<stop  offset="0.8241" style="stop-color:#FFFFFF"/>
													<stop  offset="1" style="stop-color:#FFFFFF"/>
												</radialGradient>
												<rect x="244.03" y="266.42" class="st13" width="318.8" height="321.71"/>
											</g>
										</g>
									</g>
								</g>
							</g>
						</g>
						<g>
							<defs>
								<rect id="SVGID_33_" y="-0.01" width="800" height="800.01"/>
							</defs>
							<clipPath id="SVGID_34_">
								<use xlink:href="#SVGID_33_"  style="overflow:visible;"/>
							</clipPath>
							<g class="st14">
								<g>
									<g>
										<defs>
											<rect id="SVGID_35_" y="152.11" width="416.3" height="420.1"/>
										</defs>
										<clipPath id="SVGID_36_">
											<use xlink:href="#SVGID_35_"  style="overflow:visible;"/>
										</clipPath>
										<g class="st15">
											<g>
												<defs>
													<path id="SVGID_37_" d="M416.31,362.15c0,116.04-93.2,210.06-208.15,210.06S0,478.19,0,362.15
														c0-116.01,93.2-210.06,208.15-210.06S416.31,246.14,416.31,362.15"/>
												</defs>
												<clipPath id="SVGID_38_">
													<use xlink:href="#SVGID_37_"  style="overflow:visible;"/>
												</clipPath>
												
													<radialGradient id="SVGID_39_" cx="3.166875e-05" cy="799.9999" r="1" gradientTransform="matrix(208.1483 0 0 210.0491 208.1484 -167677.125)" gradientUnits="userSpaceOnUse">
													<stop  offset="0" style="stop-color:#1E1F1D"/>
													<stop  offset="0.201" style="stop-color:#1E1F1D"/>
													<stop  offset="0.2198" style="stop-color:#272826"/>
													<stop  offset="0.389" style="stop-color:#737372"/>
													<stop  offset="0.5399" style="stop-color:#AFAFAF"/>
													<stop  offset="0.6672" style="stop-color:#DADBDA"/>
													<stop  offset="0.766" style="stop-color:#F5F5F5"/>
													<stop  offset="0.8241" style="stop-color:#FFFFFF"/>
													<stop  offset="1" style="stop-color:#FFFFFF"/>
												</radialGradient>
												<rect y="152.09" class="st16" width="416.31" height="420.11"/>
											</g>
										</g>
									</g>
								</g>
							</g>
						</g>
					</g>
				</g>
				<g>
					<defs>
						<rect id="SVGID_40_" width="800" height="800"/>
					</defs>
					<clipPath id="SVGID_41_">
						<use xlink:href="#SVGID_40_"  style="overflow:visible;"/>
					</clipPath>
					<g class="st17">
						<g>
							<defs>
								<path id="SVGID_42_" d="M410.37-0.01c-76.84,0-141.5,52.54-160.71,123.92c-95.41,6.06-170.92,86.04-170.92,183.82
									c0,101.76,81.73,184.2,182.53,184.2c21.62,0,42.32-3.77,61.53-10.72c30.17,24.93,68.73,39.9,110.78,39.9
									c59.36,0,111.83-29.83,143.47-75.49c13.03,4.14,26.95,6.4,41.34,6.4c44.94,0,84.78-21.82,109.73-55.55
									c3.6,0.65,7.26,1.03,11.03,1.03c33.6,0,60.85-27.5,60.85-61.41c0-30.17-21.59-55.28-49.99-60.42
									c-9.13-32.06-29.49-59.36-56.48-77.27c3.36-10.48,5.16-21.68,5.16-33.29c0-60.52-48.64-109.6-108.64-109.6
									c-16.87,0-32.85,3.9-47.11,10.86C512.5,26.05,464.44-0.01,410.37-0.01z"/>
							</defs>
							<clipPath id="SVGID_43_">
								<use xlink:href="#SVGID_42_"  style="overflow:visible;"/>
							</clipPath>
							
								<linearGradient id="SVGID_44_" gradientUnits="userSpaceOnUse" x1="-12.4332" y1="827.005" x2="21.8169" y2="827.005" gradientTransform="matrix(12.9915 -12.9915 12.9915 12.9915 -10386.8457 -10401.3105)">
								<stop  offset="0" style="stop-color:#EAEAEA"/>
								<stop  offset="1" style="stop-color:#FFFFFF"/>
							</linearGradient>
							<polygon class="st18" points="-179.46,260.54 439.37,-363.94 1058.2,260.54 439.37,885.03 							"/>
						</g>
					</g>
				</g>
				<g>
					<defs>
						<rect id="SVGID_45_" width="800" height="800"/>
					</defs>
					<clipPath id="SVGID_46_">
						<use xlink:href="#SVGID_45_"  style="overflow:visible;"/>
					</clipPath>
					<g class="st19">
						<g>
							<defs>
								<path id="SVGID_47_" d="M249.7,126.61c-95.41,6.03-170.96,83.33-170.96,181.11c0,101.76,81.73,184.2,182.53,184.2
									c21.62,0,42.32-3.77,61.53-10.72c30.17,24.93,68.73,39.9,110.78,39.9c59.36,0,111.83-29.83,143.47-75.49
									c13.03,4.14,26.95,6.4,41.34,6.4c44.94,0,84.78-21.82,109.73-55.55c3.6,0.65,7.26,1.03,11.03,1.03
									c33.6,0,55.49-23.56,56.68-57.44c1.09-31.37-21.62-55.28-50.03-60.42c-9.13-32.06-30.14-62.99-57.8-79.08
									c2.99-6.23,6.45-18.32,6.48-31.48c0.31-60.55-44.46-108.47-104.47-108.47c-16.87,0-35.43,6.34-49.65,13.29
									C513,32.93,460.26,3.95,406.16,3.95C329.36,3.96,267.55,55.03,249.7,126.61"/>
							</defs>
							<clipPath id="SVGID_48_">
								<use xlink:href="#SVGID_47_"  style="overflow:visible;"/>
							</clipPath>
							
								<linearGradient id="SVGID_49_" gradientUnits="userSpaceOnUse" x1="-30.3356" y1="831.2584" x2="3.9722" y2="831.2584" gradientTransform="matrix(2.5917 -14.698 14.698 2.5917 -11746.5557 -2081.5396)">
								<stop  offset="0" style="stop-color:#ECEDED"/>
								<stop  offset="0.7638" style="stop-color:#D4D5D5"/>
								<stop  offset="1" style="stop-color:#D4D5D5"/>
							</linearGradient>
							<polygon class="st20" points="-8.9,505.51 100.4,-119.98 884.55,19.55 775.26,645.04 							"/>
						</g>
					</g>
				</g>
				<g>
					<defs>
						<rect id="SVGID_50_" width="800" height="800"/>
					</defs>
					<clipPath id="SVGID_51_">
						<use xlink:href="#SVGID_50_"  style="overflow:visible;"/>
					</clipPath>
					<g class="st21">
						<g>
							<defs>
								<path id="SVGID_52_" d="M265.11,128.25l-3.19,11.88l-12.18,0.75c-86.31,5.48-153.95,78.23-153.95,165.6
									c0,91.52,73.79,165.98,164.44,165.98c19.04,0,37.71-3.25,55.46-9.69l9.06-3.25l7.47,6.17c27.9,23.05,63.2,35.76,99.34,35.76
									c51.18,0,99.27-25.31,128.67-67.71l7.16-10.34l11.91,3.8c11.64,3.7,23.72,5.58,36.01,5.58c37.95,0,72.73-17.6,95.44-48.36
									l6.35-8.53l10.39,1.95c2.65,0.45,5.29,0.72,7.91,0.72c23.93,0,43.41-19.69,43.41-43.84c0-21.27-14.97-39.42-35.71-43.19
									l-10.42-1.85l-2.92-10.31c-7.81-27.5-25.25-51.38-49.11-67.2l-10.79-7.19l3.94-12.4c2.85-9.01,4.28-18.39,4.28-27.88
									c0-50.62-40.76-91.76-90.93-91.76c-13.85,0-27.12,3.05-39.47,9.04l-12.52,6.13l-8.45-11.17
									c-28.37-37.61-71.44-59.18-118.25-59.18C341.57,17.76,282.62,63.18,265.11,128.25"/>
							</defs>
							<clipPath id="SVGID_53_">
								<use xlink:href="#SVGID_52_"  style="overflow:visible;"/>
							</clipPath>
							
								<linearGradient id="SVGID_54_" gradientUnits="userSpaceOnUse" x1="-36.1229" y1="830.0507" x2="-1.8748" y2="830.0507" gradientTransform="matrix(0 -14.1228 14.1228 0 -11285.3555 -8.7168)">
								<stop  offset="0" style="stop-color:#4CA3DB"/>
								<stop  offset="0.2916" style="stop-color:#4C9BD5"/>
								<stop  offset="0.7397" style="stop-color:#4C86C5"/>
								<stop  offset="1" style="stop-color:#4C76BA"/>
							</linearGradient>
							<rect x="95.78" y="17.76" class="st22" width="683.01" height="483.68"/>
						</g>
					</g>
				</g>
				<g>
					<defs>
						<rect id="SVGID_55_" width="800" height="800"/>
					</defs>
					<clipPath id="SVGID_56_">
						<use xlink:href="#SVGID_55_"  style="overflow:visible;"/>
					</clipPath>
					<g class="st23">
						<g>
							<defs>
								<rect id="SVGID_57_" y="-0.01" width="800" height="800.01"/>
							</defs>
							<clipPath id="SVGID_58_">
								<use xlink:href="#SVGID_57_"  style="overflow:visible;"/>
							</clipPath>
							<g class="st24">
								<g>
									<g>
										<defs>
											<rect id="SVGID_59_" x="608.43" y="284.31" width="101.4" height="102.33"/>
										</defs>
										<clipPath id="SVGID_60_">
											<use xlink:href="#SVGID_59_"  style="overflow:visible;"/>
										</clipPath>
										<g class="st25">
											<g>
												<defs>
													<path id="SVGID_61_" d="M709.82,335.47c0,28.26-22.71,51.17-50.71,51.17s-50.71-22.91-50.71-51.17
														c0-28.26,22.71-51.17,50.71-51.17C687.12,284.3,709.82,307.21,709.82,335.47"/>
												</defs>
												<clipPath id="SVGID_62_">
													<use xlink:href="#SVGID_61_"  style="overflow:visible;"/>
												</clipPath>
												
													<radialGradient id="SVGID_63_" cx="-2.196999e-04" cy="799.9999" r="1.0001" gradientTransform="matrix(50.7006 0 0 51.1636 659.1261 -40595.4062)" gradientUnits="userSpaceOnUse">
													<stop  offset="0" style="stop-color:#1E1F1D"/>
													<stop  offset="0.201" style="stop-color:#1E1F1D"/>
													<stop  offset="0.2198" style="stop-color:#272826"/>
													<stop  offset="0.389" style="stop-color:#737372"/>
													<stop  offset="0.5399" style="stop-color:#AFAFAF"/>
													<stop  offset="0.6672" style="stop-color:#DADBDA"/>
													<stop  offset="0.766" style="stop-color:#F5F5F5"/>
													<stop  offset="0.8241" style="stop-color:#FFFFFF"/>
													<stop  offset="1" style="stop-color:#FFFFFF"/>
												</radialGradient>
												<rect x="608.41" y="284.3" class="st26" width="101.41" height="102.34"/>
											</g>
										</g>
									</g>
								</g>
							</g>
						</g>
						<g>
							<defs>
								<rect id="SVGID_64_" y="-0.01" width="800" height="800.01"/>
							</defs>
							<clipPath id="SVGID_65_">
								<use xlink:href="#SVGID_64_"  style="overflow:visible;"/>
							</clipPath>
							<g class="st27">
								<g>
									<g>
										<defs>
											<rect id="SVGID_66_" x="477.4" y="286.5" width="167.35" height="168.87"/>
										</defs>
										<clipPath id="SVGID_67_">
											<use xlink:href="#SVGID_66_"  style="overflow:visible;"/>
										</clipPath>
										<g class="st28">
											<g>
												<defs>
													<path id="SVGID_68_" d="M644.76,370.95c0,46.61-37.47,84.43-83.7,84.43c-46.19,0-83.66-37.81-83.66-84.43
														c0-46.65,37.47-84.46,83.66-84.46C607.29,286.49,644.76,324.3,644.76,370.95"/>
												</defs>
												<clipPath id="SVGID_69_">
													<use xlink:href="#SVGID_68_"  style="overflow:visible;"/>
												</clipPath>
												
													<radialGradient id="SVGID_70_" cx="1.026714e-04" cy="800" r="1.0001" gradientTransform="matrix(83.6718 0 0 84.4359 561.0714 -67177.7812)" gradientUnits="userSpaceOnUse">
													<stop  offset="0" style="stop-color:#1E1F1D"/>
													<stop  offset="0.201" style="stop-color:#1E1F1D"/>
													<stop  offset="0.2198" style="stop-color:#272826"/>
													<stop  offset="0.389" style="stop-color:#737372"/>
													<stop  offset="0.5399" style="stop-color:#AFAFAF"/>
													<stop  offset="0.6672" style="stop-color:#DADBDA"/>
													<stop  offset="0.766" style="stop-color:#F5F5F5"/>
													<stop  offset="0.8241" style="stop-color:#FFFFFF"/>
													<stop  offset="1" style="stop-color:#FFFFFF"/>
												</radialGradient>
												<rect x="477.4" y="286.49" class="st29" width="167.36" height="168.89"/>
											</g>
										</g>
									</g>
								</g>
							</g>
						</g>
						<g>
							<defs>
								<rect id="SVGID_71_" y="-0.01" width="800" height="800.01"/>
							</defs>
							<clipPath id="SVGID_72_">
								<use xlink:href="#SVGID_71_"  style="overflow:visible;"/>
							</clipPath>
							<g class="st30">
								<g>
									<g>
										<defs>
											<rect id="SVGID_73_" x="385.56" y="354.16" width="129.04" height="130.22"/>
										</defs>
										<clipPath id="SVGID_74_">
											<use xlink:href="#SVGID_73_"  style="overflow:visible;"/>
										</clipPath>
										<g class="st31">
											<g>
												<defs>
													<path id="SVGID_75_" d="M514.6,419.28c0,35.93-28.88,65.11-64.52,65.11s-64.52-29.18-64.52-65.11
														c0-35.96,28.88-65.11,64.52-65.11C485.72,354.17,514.6,383.31,514.6,419.28"/>
												</defs>
												<clipPath id="SVGID_76_">
													<use xlink:href="#SVGID_75_"  style="overflow:visible;"/>
												</clipPath>
												
													<radialGradient id="SVGID_77_" cx="-2.979853e-05" cy="800.0002" r="1" gradientTransform="matrix(64.5202 0 0 65.1094 450.0819 -51668.25)" gradientUnits="userSpaceOnUse">
													<stop  offset="0" style="stop-color:#1E1F1D"/>
													<stop  offset="0.201" style="stop-color:#1E1F1D"/>
													<stop  offset="0.2198" style="stop-color:#272826"/>
													<stop  offset="0.389" style="stop-color:#737372"/>
													<stop  offset="0.5399" style="stop-color:#AFAFAF"/>
													<stop  offset="0.6672" style="stop-color:#DADBDA"/>
													<stop  offset="0.766" style="stop-color:#F5F5F5"/>
													<stop  offset="0.8241" style="stop-color:#FFFFFF"/>
													<stop  offset="1" style="stop-color:#FFFFFF"/>
												</radialGradient>
												<rect x="385.56" y="354.17" class="st32" width="129.04" height="130.22"/>
											</g>
										</g>
									</g>
								</g>
							</g>
						</g>
						<g>
							<defs>
								<rect id="SVGID_78_" y="-0.01" width="800" height="800.01"/>
							</defs>
							<clipPath id="SVGID_79_">
								<use xlink:href="#SVGID_78_"  style="overflow:visible;"/>
							</clipPath>
							<g class="st33">
								<g>
									<g>
										<defs>
											<rect id="SVGID_80_" x="279.31" y="276.04" width="248.26" height="250.52"/>
										</defs>
										<clipPath id="SVGID_81_">
											<use xlink:href="#SVGID_80_"  style="overflow:visible;"/>
										</clipPath>
										<g class="st34">
											<g>
												<defs>
													<path id="SVGID_82_" d="M527.57,401.29c0,69.19-55.59,125.25-124.12,125.25c-68.56,0-124.15-56.07-124.15-125.25
														s55.59-125.25,124.15-125.25C471.97,276.04,527.57,332.11,527.57,401.29"/>
												</defs>
												<clipPath id="SVGID_83_">
													<use xlink:href="#SVGID_82_"  style="overflow:visible;"/>
												</clipPath>
												
													<radialGradient id="SVGID_84_" cx="-7.732243e-05" cy="800" r="1" gradientTransform="matrix(124.1267 0 0 125.2603 403.4346 -99806.9453)" gradientUnits="userSpaceOnUse">
													<stop  offset="0" style="stop-color:#1E1F1D"/>
													<stop  offset="0.2312" style="stop-color:#1E1F1D"/>
													<stop  offset="0.3544" style="stop-color:#575856"/>
													<stop  offset="0.5221" style="stop-color:#9E9F9E"/>
													<stop  offset="0.662" style="stop-color:#D3D3D2"/>
													<stop  offset="0.7666" style="stop-color:#F3F3F3"/>
													<stop  offset="0.8241" style="stop-color:#FFFFFF"/>
													<stop  offset="1" style="stop-color:#FFFFFF"/>
												</radialGradient>
												<rect x="279.29" y="276.04" class="st35" width="248.27" height="250.51"/>
											</g>
										</g>
									</g>
								</g>
							</g>
						</g>
						<g>
							<defs>
								<rect id="SVGID_85_" y="-0.01" width="800" height="800.01"/>
							</defs>
							<clipPath id="SVGID_86_">
								<use xlink:href="#SVGID_85_"  style="overflow:visible;"/>
							</clipPath>
							<g class="st36">
								<g>
									<g>
										<defs>
											<rect id="SVGID_87_" x="92.13" y="190.6" width="324.17" height="327.12"/>
										</defs>
										<clipPath id="SVGID_88_">
											<use xlink:href="#SVGID_87_"  style="overflow:visible;"/>
										</clipPath>
										<g class="st37">
											<g>
												<defs>
													<path id="SVGID_89_" d="M416.31,354.17c0,90.32-72.56,163.54-162.1,163.54c-89.5,0-162.1-73.23-162.1-163.54
														c0-90.35,72.6-163.58,162.1-163.58C343.75,190.59,416.31,263.81,416.31,354.17"/>
												</defs>
												<clipPath id="SVGID_90_">
													<use xlink:href="#SVGID_89_"  style="overflow:visible;"/>
												</clipPath>
												
													<radialGradient id="SVGID_91_" cx="-2.217063e-05" cy="799.9999" r="1.0001" gradientTransform="matrix(162.0813 0 0 163.5614 254.2136 -130494.9609)" gradientUnits="userSpaceOnUse">
													<stop  offset="0" style="stop-color:#1E1F1D"/>
													<stop  offset="0.201" style="stop-color:#1E1F1D"/>
													<stop  offset="0.2198" style="stop-color:#272826"/>
													<stop  offset="0.389" style="stop-color:#737372"/>
													<stop  offset="0.5399" style="stop-color:#AFAFAF"/>
													<stop  offset="0.6672" style="stop-color:#DADBDA"/>
													<stop  offset="0.766" style="stop-color:#F5F5F5"/>
													<stop  offset="0.8241" style="stop-color:#FFFFFF"/>
													<stop  offset="1" style="stop-color:#FFFFFF"/>
												</radialGradient>
												<rect x="92.11" y="190.59" class="st38" width="324.2" height="327.12"/>
											</g>
										</g>
									</g>
								</g>
							</g>
						</g>
						<g>
							<defs>
								<rect id="SVGID_92_" y="-0.01" width="800" height="800.01"/>
							</defs>
							<clipPath id="SVGID_93_">
								<use xlink:href="#SVGID_92_"  style="overflow:visible;"/>
							</clipPath>
							<path class="st39" d="M677.44,272.72c-7.06-24.83-22.81-45.96-43.68-59.83c2.55-8.12,3.97-16.78,3.97-25.76
								c0-46.89-37.67-84.87-84.1-84.87c-13.07,0-25.46,3.01-36.49,8.43c-23.55-31.24-60.75-51.38-102.64-51.38
								c-59.5,0-109.56,40.65-124.42,95.9c-73.85,4.69-132.33,66.62-132.33,142.34c0,78.74,63.3,142.62,141.33,142.62
								c16.73,0,32.75-2.95,47.65-8.32c23.35,19.32,53.22,30.89,85.77,30.89c45.95,0,86.58-23.12,111.05-58.46
								c10.11,3.25,20.84,4.97,32.01,4.97c34.79,0,65.64-16.89,84.99-43.02c2.75,0.51,5.6,0.79,8.52,0.79
								c26,0,47.11-21.27,47.11-47.5C716.16,296.15,699.47,276.73,677.44,272.72"/>
						</g>
					</g>
				</g>
				<g>
					<defs>
						<rect id="SVGID_94_" width="800" height="800"/>
					</defs>
					<clipPath id="SVGID_95_">
						<use xlink:href="#SVGID_94_"  style="overflow:visible;"/>
					</clipPath>
					<g class="st40">
						<g>
							<defs>
								<path id="SVGID_96_" d="M290.09,157.3c-73.85,4.69-132.33,64.56-132.33,140.25c0,78.78,63.26,142.58,141.33,142.58
									c16.73,0,32.75-2.91,47.65-8.29c23.35,19.32,53.22,30.89,85.73,30.89c45.99,0,86.62-23.12,111.09-58.43
									c10.08,3.19,20.84,4.97,32.01,4.97c34.79,0,65.64-16.92,84.99-43.05c2.75,0.51,5.6,0.82,8.52,0.82
									c26.03,0,42.93-18.22,43.85-44.46c0.85-24.28-16.7-42.78-38.69-46.79c-7.09-24.83-23.38-48.77-44.8-61.27
									c2.34-4.79,4.99-14.15,5.06-24.35c0.2-46.85-34.42-83.95-80.85-83.95c-13.1,0-27.46,4.9-38.49,10.28
									C494,84.82,453.13,62.39,411.25,62.39C351.76,62.39,303.93,101.91,290.09,157.3"/>
							</defs>
							<clipPath id="SVGID_97_">
								<use xlink:href="#SVGID_96_"  style="overflow:visible;"/>
							</clipPath>
							
								<linearGradient id="SVGID_98_" gradientUnits="userSpaceOnUse" x1="-34.2798" y1="840.209" x2="0.028" y2="840.209" gradientTransform="matrix(2.0065 -11.3793 11.3793 2.0065 -9091.418 -1615.0753)">
								<stop  offset="0" style="stop-color:#FFFFFF"/>
								<stop  offset="0.1156" style="stop-color:#FFFFFF"/>
								<stop  offset="0.1238" style="stop-color:#FFFFFF"/>
								<stop  offset="0.478" style="stop-color:#EFEFEF"/>
								<stop  offset="0.7638" style="stop-color:#EAEAEA"/>
								<stop  offset="1" style="stop-color:#EAEAEA"/>
							</linearGradient>
							<polygon class="st41" points="89.91,450.67 174.52,-33.56 781.61,74.46 697,558.69 							"/>
						</g>
					</g>
				</g>
				<g>
					<defs>
						<rect id="SVGID_99_" width="800" height="800"/>
					</defs>
					<clipPath id="SVGID_100_">
						<use xlink:href="#SVGID_99_"  style="overflow:visible;"/>
					</clipPath>
					<g class="st42">
						<g>
							<defs>
								<rect id="SVGID_101_" y="-0.01" width="800" height="800.01"/>
							</defs>
							<clipPath id="SVGID_102_">
								<use xlink:href="#SVGID_101_"  style="overflow:visible;"/>
							</clipPath>
							<path class="st43" d="M238.36,529.6c-0.54-0.41-1.39-0.41-1.87,0.07l-2.88,2.57c-0.51,0.45-0.54,1.27-0.1,1.78l3.39,3.97
								c0.44,0.51,1.15,0.51,1.56-0.03l3.12-4.21c0.41-0.55,0.31-1.34-0.2-1.75L238.36,529.6z"/>
						</g>
						<g>
							<defs>
								<rect id="SVGID_103_" y="-0.01" width="800" height="800.01"/>
							</defs>
							<clipPath id="SVGID_104_">
								<use xlink:href="#SVGID_103_"  style="overflow:visible;"/>
							</clipPath>
							<path class="st44" d="M195.61,557.99c-0.27-0.62-0.98-0.92-1.63-0.68l-3.56,1.44c-0.61,0.24-1.02,0.99-0.88,1.68l0.78,3.77
								c0.14,0.68,0.81,1.13,1.46,0.99l5.12-0.96c0.68-0.14,1.02-0.75,0.75-1.37L195.61,557.99z"/>
						</g>
						<g>
							<defs>
								<rect id="SVGID_105_" y="-0.01" width="800" height="800.01"/>
							</defs>
							<clipPath id="SVGID_106_">
								<use xlink:href="#SVGID_105_"  style="overflow:visible;"/>
							</clipPath>
							<path class="st45" d="M198.36,611.18l-5.19-0.65c-0.64-0.07-1.29,0.41-1.39,1.06l-0.54,3.84c-0.1,0.68,0.34,1.4,0.98,1.61
								l3.67,1.23c0.61,0.21,1.32-0.14,1.56-0.79l1.73-4.97C199.41,611.86,199.04,611.25,198.36,611.18"/>
						</g>
						<g>
							<defs>
								<rect id="SVGID_107_" y="-0.01" width="800" height="800.01"/>
							</defs>
							<clipPath id="SVGID_108_">
								<use xlink:href="#SVGID_107_"  style="overflow:visible;"/>
							</clipPath>
							<path class="st46" d="M241.67,634.35c-0.44-0.51-1.15-0.48-1.56,0.03l-3.12,4.21c-0.41,0.55-0.31,1.34,0.2,1.78l3.02,2.36
								c0.54,0.45,1.39,0.41,1.9-0.03l2.85-2.6c0.51-0.45,0.54-1.23,0.1-1.75L241.67,634.35z"/>
						</g>
						<g>
							<defs>
								<rect id="SVGID_109_" y="-0.01" width="800" height="800.01"/>
							</defs>
							<clipPath id="SVGID_110_">
								<use xlink:href="#SVGID_109_"  style="overflow:visible;"/>
							</clipPath>
							<path class="st47" d="M286.96,555.3l-3.63-1.2c-0.64-0.24-1.36,0.14-1.6,0.79l-1.7,4.97c-0.24,0.65,0.14,1.23,0.78,1.3
								l5.19,0.65c0.68,0.1,1.29-0.38,1.39-1.06l0.54-3.84C288.04,556.23,287.6,555.51,286.96,555.3"/>
						</g>
						<g>
							<defs>
								<rect id="SVGID_111_" y="-0.01" width="800" height="800.01"/>
							</defs>
							<clipPath id="SVGID_112_">
								<use xlink:href="#SVGID_111_"  style="overflow:visible;"/>
							</clipPath>
							<path class="st48" d="M287.84,601.03c-0.14-0.68-0.78-1.1-1.46-0.96l-11.71,2.47c-0.03,0-0.03,0-0.03,0l-6.38-3.46
								l16.33-3.46c0.68-0.14,1.12-0.79,0.95-1.47l-0.31-1.61c-0.14-0.68-0.81-1.1-1.46-0.96l-21.14,4.45l-5.77-3.12l7.7-1.61
								c0.64-0.17,1.09-0.82,0.95-1.47l-0.2-0.99c-0.14-0.68-0.81-1.1-1.46-0.96l-11.74,2.47l-8.28-4.49l7.98-5l11.85,1.71
								c0.68,0.1,1.32-0.38,1.39-1.06l0.17-0.99c0.07-0.65-0.37-1.3-1.05-1.4l-7.77-1.13l5.57-3.46l21.35,3.08
								c0.68,0.1,1.32-0.38,1.43-1.03l0.2-1.64c0.1-0.68-0.37-1.3-1.02-1.4l-16.53-2.4l6.14-3.87h0.03l11.85,1.71
								c0.68,0.1,1.29-0.38,1.39-1.06l0.14-0.99c0.1-0.69-0.37-1.3-1.05-1.4l-10.89-1.58l3.43-10.58c0.24-0.65-0.14-1.37-0.78-1.58
								l-0.95-0.31c-0.64-0.24-1.32,0.14-1.56,0.79l-3.73,11.47l-6.18,3.87l5.23-15.99c0.2-0.65-0.17-1.37-0.81-1.58l-1.56-0.51
								c-0.61-0.24-1.32,0.14-1.53,0.79l-6.75,20.69l-5.57,3.49l2.48-7.54c0.2-0.65-0.17-1.37-0.81-1.58l-0.95-0.31
								c-0.64-0.21-1.32,0.14-1.56,0.79l-3.73,11.47l-8.49,5.34l-0.31-9.52l7.4-9.49c0.41-0.55,0.34-1.34-0.2-1.75l-0.78-0.62
								c-0.54-0.45-1.32-0.34-1.73,0.21l-4.85,6.23l-0.2-6.61L253.8,544c0.41-0.51,0.34-1.3-0.2-1.75l-1.29-0.99
								c-0.54-0.45-1.32-0.34-1.73,0.17l-10.32,13.25l-0.24-7.3v-0.03l7.4-9.49c0.44-0.55,0.34-1.34-0.2-1.75l-0.78-0.65
								c-0.54-0.41-1.32-0.31-1.73,0.21l-6.82,8.77l-7.37-8.29c-0.44-0.51-1.22-0.55-1.73-0.1l-0.75,0.65
								c-0.51,0.48-0.54,1.27-0.1,1.78l7.98,9.01l0.24,7.33l-11.13-12.57c-0.44-0.51-1.22-0.55-1.73-0.1l-1.22,1.13
								c-0.51,0.45-0.54,1.23-0.1,1.75l14.39,16.23l0.2,6.61l-5.23-5.93c-0.44-0.51-1.26-0.55-1.73-0.1l-0.75,0.68
								c-0.51,0.45-0.58,1.23-0.1,1.75l7.98,9.01l0.31,9.38l-7.98-4.32l-4.45-11.2c-0.27-0.65-0.98-0.96-1.6-0.72l-0.95,0.38
								c-0.61,0.27-0.92,0.99-0.68,1.64l2.92,7.33l-5.77-3.12l-8.01-20.21c-0.27-0.65-0.98-0.96-1.63-0.72l-1.49,0.62
								c-0.64,0.27-0.95,0.99-0.71,1.61l6.21,15.65l-6.38-3.46l-4.48-11.23c-0.24-0.62-0.95-0.92-1.6-0.68l-0.92,0.38
								c-0.64,0.27-0.95,0.99-0.68,1.61l4.07,10.34l-10.79,2.29c-0.68,0.14-1.09,0.79-0.95,1.47l0.2,0.99
								c0.14,0.65,0.78,1.1,1.46,0.96l11.71-2.47h0.03l6.38,3.46l-16.36,3.43c-0.64,0.17-1.09,0.82-0.95,1.47l0.34,1.64
								c0.14,0.65,0.81,1.1,1.46,0.96l21.14-4.45l5.77,3.12l-7.7,1.61c-0.64,0.14-1.09,0.82-0.95,1.47l0.2,0.99
								c0.14,0.65,0.81,1.1,1.46,0.96l11.74-2.47l8.25,4.49l-7.98,4.97l-11.85-1.71c-0.68-0.1-1.32,0.38-1.39,1.06l-0.17,0.99
								c-0.07,0.68,0.37,1.34,1.05,1.4l7.77,1.13l-5.57,3.49l-21.35-3.12c-0.68-0.1-1.29,0.38-1.43,1.06l-0.2,1.64
								c-0.1,0.68,0.37,1.3,1.02,1.4l16.53,2.4l-6.14,3.87h-0.03l-11.85-1.71c-0.68-0.1-1.29,0.38-1.39,1.03l-0.14,1.03
								c-0.1,0.65,0.37,1.3,1.02,1.4l10.93,1.58l-3.43,10.58c-0.2,0.65,0.14,1.37,0.78,1.58l0.95,0.31
								c0.64,0.21,1.36-0.14,1.56-0.79l3.73-11.47c0-0.03,0-0.03,0-0.03l6.18-3.84l-5.19,15.99c-0.24,0.65,0.14,1.37,0.78,1.58
								l1.56,0.51c0.61,0.21,1.32-0.14,1.53-0.79l6.75-20.69l5.57-3.49l-2.44,7.54c-0.24,0.65,0.14,1.34,0.78,1.58l0.95,0.31
								c0.64,0.21,1.32-0.17,1.53-0.79l3.77-11.51l7.91-4.93l0.27,9.11l-7.4,9.52c-0.41,0.51-0.34,1.3,0.2,1.75l0.78,0.62
								c0.54,0.41,1.32,0.31,1.73-0.21l4.85-6.23l0.2,6.61l-13.34,17.13c-0.44,0.51-0.34,1.3,0.2,1.71l1.29,1.03
								c0.51,0.45,1.29,0.34,1.73-0.21l10.32-13.22l0.24,7.3V625l-7.43,9.49c-0.41,0.55-0.31,1.34,0.24,1.75l0.78,0.62
								c0.51,0.45,1.29,0.34,1.73-0.21l6.82-8.73l7.37,8.29c0.44,0.51,1.22,0.55,1.73,0.1l0.75-0.68c0.51-0.45,0.54-1.23,0.1-1.75
								l-7.98-9.01v-0.03l-0.24-7.3l11.13,12.54c0.44,0.51,1.22,0.58,1.73,0.1l1.22-1.1c0.51-0.45,0.54-1.23,0.1-1.75l-14.39-16.23
								l-0.2-6.61l5.23,5.89c0.44,0.51,1.22,0.58,1.73,0.1l0.75-0.65c0.51-0.48,0.54-1.27,0.1-1.78l-7.98-9.01l-0.31-9.73l8.62,4.66
								l4.45,11.23c0.27,0.65,0.98,0.96,1.6,0.68l0.95-0.38c0.61-0.24,0.92-0.96,0.68-1.61l-2.92-7.33l5.77,3.12l8.01,20.21
								c0.27,0.65,0.98,0.96,1.6,0.68l1.53-0.62c0.64-0.24,0.95-0.96,0.68-1.61l-6.18-15.65l6.38,3.46c0,0,0,0,0.03,0.03l4.45,11.2
								c0.24,0.65,0.95,0.96,1.6,0.68l0.92-0.34c0.64-0.27,0.95-0.99,0.71-1.64l-4.11-10.34l10.79-2.26
								c0.64-0.14,1.09-0.82,0.95-1.47L287.84,601.03z"/>
						</g>
						<g>
							<defs>
								<rect id="SVGID_113_" y="-0.01" width="800" height="800.01"/>
							</defs>
							<clipPath id="SVGID_114_">
								<use xlink:href="#SVGID_113_"  style="overflow:visible;"/>
							</clipPath>
							<path class="st49" d="M288.9,608.15c-0.14-0.68-0.78-1.1-1.46-0.99l-5.12,0.99c-0.68,0.1-0.98,0.72-0.75,1.37l2.04,4.83
								c0.27,0.65,1.02,0.96,1.63,0.68l3.56-1.44c0.61-0.24,1.02-0.99,0.88-1.68L288.9,608.15z"/>
						</g>
						<g>
							<defs>
								<rect id="SVGID_115_" y="-0.01" width="800" height="800.01"/>
							</defs>
							<clipPath id="SVGID_116_">
								<use xlink:href="#SVGID_115_"  style="overflow:visible;"/>
							</clipPath>
							<path class="st50" d="M437.26,550.26c-0.54-0.41-1.39-0.41-1.9,0.07l-2.85,2.57c-0.48,0.45-0.54,1.23-0.1,1.78l3.39,3.97
								c0.44,0.51,1.15,0.51,1.56-0.03l3.12-4.21c0.41-0.55,0.31-1.34-0.2-1.75L437.26,550.26z"/>
						</g>
						<g>
							<defs>
								<rect id="SVGID_117_" y="-0.01" width="800" height="800.01"/>
							</defs>
							<clipPath id="SVGID_118_">
								<use xlink:href="#SVGID_117_"  style="overflow:visible;"/>
							</clipPath>
							<path class="st51" d="M394.5,578.65c-0.27-0.62-0.98-0.92-1.63-0.68l-3.56,1.44c-0.61,0.24-1.02,1.03-0.88,1.68l0.78,3.77
								c0.14,0.68,0.81,1.13,1.46,0.99l5.16-0.96c0.64-0.14,0.98-0.75,0.71-1.37L394.5,578.65z"/>
						</g>
						<g>
							<defs>
								<rect id="SVGID_119_" y="-0.01" width="800" height="800.01"/>
							</defs>
							<clipPath id="SVGID_120_">
								<use xlink:href="#SVGID_119_"  style="overflow:visible;"/>
							</clipPath>
							<path class="st52" d="M397.27,631.84l-5.19-0.65c-0.68-0.07-1.29,0.41-1.39,1.1l-0.54,3.8c-0.1,0.68,0.34,1.4,0.98,1.64
								l3.63,1.2c0.64,0.21,1.36-0.17,1.6-0.79l1.73-4.97C398.32,632.52,397.94,631.91,397.27,631.84"/>
						</g>
						<g>
							<defs>
								<rect id="SVGID_121_" y="-0.01" width="800" height="800.01"/>
							</defs>
							<clipPath id="SVGID_122_">
								<use xlink:href="#SVGID_121_"  style="overflow:visible;"/>
							</clipPath>
							<path class="st53" d="M440.57,655.01c-0.44-0.51-1.12-0.48-1.56,0.03l-3.12,4.21c-0.41,0.55-0.31,1.34,0.24,1.78l2.99,2.36
								c0.54,0.45,1.39,0.41,1.9-0.03l2.85-2.57c0.51-0.48,0.54-1.27,0.1-1.78L440.57,655.01z"/>
						</g>
						<g>
							<defs>
								<rect id="SVGID_123_" y="-0.01" width="800" height="800.01"/>
							</defs>
							<clipPath id="SVGID_124_">
								<use xlink:href="#SVGID_123_"  style="overflow:visible;"/>
							</clipPath>
							<path class="st54" d="M485.86,575.96l-3.63-1.2c-0.64-0.21-1.36,0.14-1.6,0.79l-1.73,4.97c-0.2,0.65,0.17,1.23,0.81,1.34
								l5.19,0.62c0.68,0.1,1.29-0.38,1.39-1.06l0.54-3.84C486.94,576.92,486.5,576.17,485.86,575.96"/>
						</g>
						<g>
							<defs>
								<rect id="SVGID_125_" y="-0.01" width="800" height="800.01"/>
							</defs>
							<clipPath id="SVGID_126_">
								<use xlink:href="#SVGID_125_"  style="overflow:visible;"/>
							</clipPath>
							<path class="st55" d="M486.74,621.69c-0.14-0.65-0.78-1.1-1.46-0.96l-11.71,2.47c-0.03,0-0.03,0-0.03,0l-6.38-3.46
								l16.33-3.46c0.68-0.14,1.09-0.79,0.95-1.47l-0.31-1.61c-0.17-0.68-0.81-1.1-1.46-0.96l-21.14,4.45l-5.77-3.12l7.67-1.61
								c0.68-0.14,1.12-0.82,0.95-1.47l-0.2-0.99c-0.14-0.68-0.78-1.1-1.43-0.96L451,611l-8.28-4.49l7.98-5l11.85,1.71
								c0.68,0.1,1.32-0.38,1.39-1.03l0.17-0.99c0.07-0.68-0.37-1.34-1.05-1.44l-7.77-1.13l5.57-3.46l21.35,3.12
								c0.68,0.07,1.32-0.38,1.39-1.06l0.24-1.64c0.1-0.68-0.37-1.3-1.02-1.4l-16.53-2.4l6.14-3.87c0,0,0,0,0.03,0l11.85,1.71
								c0.68,0.1,1.29-0.38,1.39-1.06l0.14-0.99c0.1-0.68-0.37-1.3-1.02-1.4l-10.93-1.58l3.43-10.58c0.2-0.65-0.14-1.37-0.78-1.58
								l-0.95-0.31c-0.64-0.24-1.36,0.14-1.56,0.79l-3.73,11.47c0,0,0,0-0.03,0l-6.14,3.87l5.19-15.99
								c0.24-0.65-0.14-1.37-0.75-1.58l-1.6-0.51c-0.64-0.21-1.32,0.14-1.53,0.79l-6.75,20.69l-5.57,3.49l2.44-7.54
								c0.24-0.65-0.14-1.37-0.78-1.58l-0.95-0.31c-0.64-0.21-1.32,0.14-1.56,0.79l-3.73,11.47l-8.52,5.34l-0.27-9.52l7.4-9.49
								c0.41-0.55,0.31-1.3-0.2-1.75l-0.78-0.62c-0.54-0.41-1.32-0.34-1.73,0.21l-4.85,6.23l-0.2-6.61l13.34-17.12
								c0.41-0.51,0.34-1.3-0.2-1.75l-1.29-1.03c-0.54-0.41-1.32-0.31-1.73,0.24l-10.32,13.22l-0.24-7.3V568l7.4-9.49
								c0.44-0.55,0.34-1.34-0.2-1.75l-0.78-0.65c-0.54-0.41-1.32-0.31-1.73,0.24l-6.82,8.73l-7.37-8.29
								c-0.44-0.51-1.22-0.58-1.73-0.1l-0.75,0.65c-0.51,0.48-0.54,1.27-0.1,1.78l7.98,9.01l0.24,7.33l-11.13-12.57
								c-0.44-0.51-1.22-0.55-1.73-0.1l-1.22,1.13c-0.51,0.45-0.54,1.23-0.1,1.75l14.39,16.23l0.2,6.58l-5.23-5.89
								c-0.44-0.51-1.26-0.55-1.76-0.1l-0.71,0.69c-0.51,0.45-0.58,1.23-0.1,1.75l7.98,9.01l0.31,9.38l-7.98-4.32l-4.45-11.2
								c-0.27-0.65-0.98-0.96-1.63-0.72l-0.92,0.38c-0.61,0.27-0.92,0.99-0.68,1.64l2.92,7.33l-5.77-3.12l-8.01-20.21
								c-0.27-0.65-0.98-0.96-1.63-0.68l-1.49,0.62c-0.64,0.24-0.95,0.96-0.71,1.61l6.21,15.62l-6.38-3.46h-0.03l-4.45-11.2
								c-0.24-0.65-0.95-0.96-1.6-0.72l-0.92,0.38c-0.64,0.27-0.95,0.99-0.71,1.61l4.11,10.34l-10.79,2.29
								c-0.68,0.14-1.09,0.79-0.95,1.47l0.2,0.99c0.14,0.65,0.78,1.1,1.46,0.96l11.71-2.47h0.03l6.38,3.46l-16.33,3.46
								c-0.68,0.14-1.12,0.79-0.98,1.47l0.34,1.61c0.14,0.65,0.81,1.1,1.46,0.96l21.14-4.45l5.77,3.12l-7.7,1.61
								c-0.64,0.14-1.09,0.82-0.95,1.47l0.2,0.99c0.14,0.68,0.81,1.1,1.46,0.96l11.74-2.47l8.25,4.49l-7.98,5l-11.85-1.75
								c-0.68-0.07-1.32,0.38-1.39,1.06l-0.17,0.99c-0.07,0.68,0.37,1.34,1.05,1.4l7.77,1.13l-5.57,3.49l-21.35-3.12
								c-0.68-0.1-1.32,0.38-1.43,1.06l-0.2,1.64c-0.1,0.68,0.37,1.3,1.02,1.4l16.53,2.4l-6.14,3.87h-0.03L392.72,624
								c-0.68-0.1-1.29,0.38-1.39,1.03l-0.14,1.03c-0.1,0.65,0.37,1.3,1.02,1.4l10.93,1.58l-3.43,10.58
								c-0.24,0.65,0.14,1.37,0.78,1.58l0.95,0.31c0.64,0.21,1.32-0.14,1.56-0.79l3.73-11.47c0,0,0,0,0-0.03l6.18-3.84l-5.23,15.99
								c-0.2,0.65,0.17,1.37,0.78,1.58l1.6,0.51c0.61,0.21,1.32-0.14,1.53-0.79l6.75-20.69l5.57-3.49l-2.44,7.54
								c-0.24,0.65,0.14,1.34,0.75,1.58l0.98,0.31c0.64,0.21,1.32-0.14,1.53-0.79l3.77-11.47l7.91-4.97l0.27,9.11l-7.4,9.52
								c-0.44,0.51-0.34,1.3,0.2,1.75l0.78,0.62c0.54,0.41,1.32,0.31,1.73-0.21l4.85-6.23l0.2,6.61l-13.34,17.13
								c-0.44,0.51-0.34,1.3,0.2,1.71l1.29,1.03c0.51,0.45,1.29,0.34,1.73-0.21l10.32-13.22l0.24,7.3v0.03l-7.43,9.49
								c-0.41,0.55-0.31,1.34,0.24,1.75l0.78,0.62c0.51,0.45,1.29,0.34,1.73-0.21l6.82-8.73l7.37,8.29c0.44,0.51,1.22,0.55,1.73,0.1
								l0.75-0.68c0.51-0.45,0.54-1.23,0.1-1.75l-8.01-9.01l-0.2-7.33l11.13,12.54c0.44,0.55,1.22,0.58,1.73,0.1l1.22-1.1
								c0.51-0.45,0.54-1.23,0.1-1.75l-14.39-16.23l-0.2-6.61l5.23,5.93c0.44,0.51,1.22,0.55,1.73,0.1l0.75-0.68
								c0.51-0.48,0.54-1.27,0.1-1.75l-7.98-9.01l-0.31-9.76l8.62,4.66l4.45,11.23c0.27,0.65,0.98,0.96,1.6,0.68l0.95-0.38
								c0.61-0.24,0.92-0.96,0.68-1.61l-2.92-7.36l5.77,3.12l8.01,20.24c0.24,0.65,0.98,0.96,1.6,0.68l1.53-0.62
								c0.64-0.24,0.95-0.96,0.68-1.61l-6.18-15.65l6.38,3.46c0,0.03,0,0.03,0.03,0.03l4.45,11.2c0.24,0.65,0.95,0.96,1.6,0.72
								l0.92-0.38c0.64-0.27,0.95-0.99,0.68-1.64l-4.07-10.34l10.79-2.26c0.64-0.14,1.09-0.82,0.95-1.47L486.74,621.69z"/>
						</g>
						<g>
							<defs>
								<rect id="SVGID_127_" y="-0.01" width="800" height="800.01"/>
							</defs>
							<clipPath id="SVGID_128_">
								<use xlink:href="#SVGID_127_"  style="overflow:visible;"/>
							</clipPath>
							<path class="st56" d="M487.8,628.81c-0.14-0.68-0.78-1.13-1.46-0.99l-5.12,0.99c-0.68,0.1-0.98,0.72-0.75,1.37l2.04,4.83
								c0.27,0.65,1.02,0.96,1.63,0.68l3.56-1.44c0.61-0.24,1.02-0.99,0.88-1.68L487.8,628.81z"/>
						</g>
						<g>
							<defs>
								<rect id="SVGID_129_" y="-0.01" width="800" height="800.01"/>
							</defs>
							<clipPath id="SVGID_130_">
								<use xlink:href="#SVGID_129_"  style="overflow:visible;"/>
							</clipPath>
							<path class="st57" d="M625.45,503.4c-0.54-0.41-1.39-0.41-1.87,0.07l-2.85,2.57c-0.51,0.45-0.58,1.27-0.14,1.78l3.39,3.97
								c0.44,0.51,1.15,0.51,1.56-0.03l3.12-4.21c0.41-0.55,0.31-1.34-0.2-1.75L625.45,503.4z"/>
						</g>
						<g>
							<defs>
								<rect id="SVGID_131_" y="-0.01" width="800" height="800.01"/>
							</defs>
							<clipPath id="SVGID_132_">
								<use xlink:href="#SVGID_131_"  style="overflow:visible;"/>
							</clipPath>
							<path class="st58" d="M582.69,531.79c-0.27-0.62-0.98-0.92-1.63-0.68l-3.53,1.44c-0.64,0.24-1.05,0.99-0.92,1.68l0.78,3.77
								c0.14,0.68,0.81,1.13,1.46,0.99l5.12-0.96c0.68-0.14,1.02-0.75,0.75-1.37L582.69,531.79z"/>
						</g>
						<g>
							<defs>
								<rect id="SVGID_133_" y="-0.01" width="800" height="800.01"/>
							</defs>
							<clipPath id="SVGID_134_">
								<use xlink:href="#SVGID_133_"  style="overflow:visible;"/>
							</clipPath>
							<path class="st59" d="M585.46,584.98l-5.19-0.65c-0.68-0.07-1.29,0.41-1.39,1.06l-0.54,3.84c-0.1,0.68,0.34,1.4,0.98,1.61
								l3.63,1.23c0.64,0.21,1.36-0.17,1.6-0.79l1.73-4.97C586.51,585.66,586.14,585.08,585.46,584.98"/>
						</g>
						<g>
							<defs>
								<rect id="SVGID_135_" y="-0.01" width="800" height="800.01"/>
							</defs>
							<clipPath id="SVGID_136_">
								<use xlink:href="#SVGID_135_"  style="overflow:visible;"/>
							</clipPath>
							<path class="st60" d="M628.76,608.15c-0.44-0.51-1.12-0.48-1.53,0.03l-3.16,4.21c-0.41,0.55-0.31,1.34,0.2,1.78l3.02,2.36
								c0.54,0.45,1.39,0.41,1.9-0.07l2.85-2.57c0.51-0.45,0.54-1.23,0.1-1.75L628.76,608.15z"/>
						</g>
						<g>
							<defs>
								<rect id="SVGID_137_" y="-0.01" width="800" height="800.01"/>
							</defs>
							<clipPath id="SVGID_138_">
								<use xlink:href="#SVGID_137_"  style="overflow:visible;"/>
							</clipPath>
							<path class="st61" d="M674.05,529.1l-3.63-1.2c-0.64-0.21-1.36,0.14-1.6,0.79l-1.73,4.97c-0.2,0.65,0.17,1.23,0.85,1.3
								l5.16,0.65c0.68,0.1,1.29-0.38,1.39-1.06l0.54-3.84C675.13,530.02,674.69,529.3,674.05,529.1"/>
						</g>
						<g>
							<defs>
								<rect id="SVGID_139_" y="-0.01" width="800" height="800.01"/>
							</defs>
							<clipPath id="SVGID_140_">
								<use xlink:href="#SVGID_139_"  style="overflow:visible;"/>
							</clipPath>
							<path class="st62" d="M674.93,574.83c-0.14-0.68-0.78-1.1-1.46-0.96l-11.74,2.47l-6.38-3.46l16.33-3.46
								c0.68-0.14,1.09-0.79,0.95-1.47l-0.31-1.61c-0.14-0.68-0.81-1.1-1.46-0.96l-21.14,4.45l-5.77-3.12l7.67-1.61
								c0.68-0.14,1.12-0.82,0.98-1.47l-0.2-0.99c-0.14-0.68-0.81-1.13-1.46-0.96l-11.74,2.47l-8.28-4.49l7.98-5l11.85,1.71
								c0.68,0.1,1.32-0.38,1.39-1.03l0.17-0.99c0.07-0.68-0.37-1.34-1.05-1.44l-7.77-1.13l5.57-3.46l21.35,3.08
								c0.68,0.1,1.32-0.34,1.39-1.03l0.24-1.64c0.1-0.68-0.37-1.3-1.05-1.4l-16.49-2.4l6.14-3.87h0.03l11.85,1.71
								c0.68,0.1,1.29-0.38,1.39-1.06l0.14-0.99c0.1-0.68-0.37-1.3-1.02-1.4l-10.93-1.58l3.43-10.58c0.2-0.65-0.14-1.37-0.78-1.58
								l-0.95-0.31c-0.64-0.24-1.36,0.14-1.56,0.79l-3.73,11.47l-6.18,3.87l5.19-15.99c0.24-0.65-0.14-1.37-0.78-1.58l-1.56-0.51
								c-0.64-0.21-1.32,0.14-1.53,0.79l-6.75,20.69l-5.57,3.49l2.48-7.54c0.2-0.65-0.17-1.34-0.81-1.58l-0.95-0.31
								c-0.64-0.21-1.32,0.14-1.56,0.79l-3.73,11.47l-8.52,5.34l-0.27-9.52l7.4-9.49c0.41-0.51,0.31-1.34-0.2-1.75l-0.78-0.62
								c-0.54-0.41-1.32-0.34-1.73,0.21l-4.85,6.23l-0.2-6.61l13.34-17.12c0.41-0.51,0.34-1.3-0.2-1.75l-1.29-1.03
								c-0.54-0.41-1.32-0.31-1.73,0.24l-10.32,13.22l-0.24-7.33l7.4-9.49c0.44-0.55,0.34-1.34-0.2-1.75l-0.78-0.65
								c-0.54-0.41-1.32-0.31-1.73,0.21l-6.82,8.77l-7.37-8.29c-0.44-0.51-1.22-0.55-1.73-0.1l-0.75,0.65
								c-0.51,0.48-0.54,1.27-0.1,1.78l7.98,9.01l0.24,7.33l-11.13-12.57c-0.44-0.51-1.22-0.55-1.73-0.07l-1.22,1.1
								c-0.51,0.45-0.54,1.23-0.1,1.75l14.39,16.23l0.2,6.61l-5.23-5.93c-0.44-0.51-1.26-0.55-1.76-0.1l-0.71,0.69
								c-0.51,0.45-0.58,1.23-0.1,1.75l7.98,9.01l0.31,9.38l-7.98-4.32l-4.45-11.2c-0.27-0.65-0.98-0.96-1.6-0.68l-0.95,0.34
								c-0.61,0.27-0.92,0.99-0.68,1.64l2.92,7.33l-5.77-3.12l-8.01-20.21c-0.27-0.65-0.98-0.96-1.63-0.69l-1.49,0.58
								c-0.64,0.27-0.95,0.99-0.71,1.64l6.21,15.62l-6.38-3.46h-0.03l-4.45-11.23c-0.24-0.62-0.95-0.92-1.6-0.68l-0.92,0.38
								c-0.64,0.27-0.95,0.99-0.68,1.61l4.07,10.38l-10.79,2.26c-0.68,0.14-1.09,0.79-0.95,1.47l0.2,0.99
								c0.14,0.65,0.78,1.1,1.46,0.96l11.71-2.47h0.03l6.38,3.46l-16.36,3.46c-0.64,0.14-1.09,0.79-0.95,1.44l0.34,1.64
								c0.14,0.65,0.81,1.1,1.46,0.96l21.14-4.45l5.77,3.12l-7.7,1.61c-0.64,0.14-1.09,0.82-0.95,1.47l0.2,0.99
								c0.14,0.65,0.81,1.1,1.46,0.96l11.74-2.47l8.25,4.49l-7.98,5l-11.85-1.75c-0.68-0.07-1.32,0.38-1.39,1.06l-0.17,0.99
								c-0.07,0.68,0.37,1.34,1.05,1.4l7.77,1.13l-5.57,3.49l-21.35-3.12c-0.68-0.1-1.32,0.38-1.43,1.06l-0.2,1.64
								c-0.1,0.68,0.37,1.3,1.02,1.4l16.53,2.4l-6.14,3.87h-0.03l-11.85-1.71c-0.68-0.1-1.29,0.38-1.39,1.03l-0.14,1.03
								c-0.1,0.65,0.37,1.3,1.02,1.4l10.93,1.58l-3.43,10.58c-0.24,0.65,0.14,1.37,0.78,1.58l0.95,0.31
								c0.64,0.21,1.32-0.14,1.56-0.79l3.73-11.47c0,0,0,0,0-0.03l6.18-3.84l-5.23,15.99c-0.2,0.65,0.17,1.37,0.81,1.58l1.56,0.51
								c0.61,0.21,1.32-0.14,1.53-0.79l6.75-20.69l5.57-3.49l-2.44,7.54c-0.24,0.65,0.14,1.34,0.78,1.58l0.95,0.31
								c0.64,0.21,1.32-0.17,1.56-0.79l3.73-11.51l7.91-4.93l0.27,9.11l-7.4,9.52c-0.41,0.51-0.34,1.3,0.2,1.75l0.78,0.62
								c0.54,0.41,1.32,0.34,1.73-0.21l4.85-6.23l0.2,6.61l-13.34,17.13c-0.44,0.51-0.34,1.3,0.2,1.71l1.29,1.03
								c0.51,0.45,1.29,0.34,1.73-0.21l10.32-13.22l0.24,7.3v0.03l-7.43,9.49c-0.41,0.55-0.31,1.34,0.24,1.75l0.78,0.62
								c0.51,0.45,1.29,0.34,1.73-0.21l6.82-8.73l7.37,8.29c0.44,0.51,1.22,0.55,1.73,0.1l0.75-0.68c0.51-0.45,0.54-1.23,0.1-1.75
								l-8.01-9.01v-0.03l-0.2-7.3l11.13,12.57c0.44,0.48,1.22,0.55,1.73,0.07l1.22-1.1c0.51-0.45,0.54-1.23,0.1-1.75l-14.39-16.23
								l-0.2-6.61l5.23,5.93c0.44,0.48,1.22,0.55,1.73,0.07l0.75-0.65c0.51-0.48,0.54-1.27,0.1-1.75l-7.98-9.04l-0.31-9.73
								l8.62,4.66l4.45,11.23c0.27,0.65,0.98,0.96,1.6,0.68l0.95-0.38c0.61-0.24,0.92-0.96,0.68-1.61l-2.92-7.33l5.77,3.08
								l8.01,20.24c0.27,0.65,0.98,0.96,1.6,0.68l1.53-0.62c0.64-0.24,0.95-0.96,0.68-1.61l-6.18-15.65l6.38,3.46c0,0,0,0,0.03,0.03
								l4.45,11.2c0.24,0.65,0.95,0.96,1.6,0.72l0.92-0.38c0.64-0.27,0.95-0.99,0.68-1.64l-4.07-10.34l10.79-2.26
								c0.64-0.14,1.09-0.79,0.95-1.47L674.93,574.83z"/>
						</g>
						<g>
							<defs>
								<rect id="SVGID_141_" y="-0.01" width="800" height="800.01"/>
							</defs>
							<clipPath id="SVGID_142_">
								<use xlink:href="#SVGID_141_"  style="overflow:visible;"/>
							</clipPath>
							<path class="st63" d="M675.99,581.95c-0.14-0.68-0.78-1.13-1.46-0.99l-5.12,0.96c-0.68,0.14-0.98,0.75-0.75,1.4l2.04,4.83
								c0.27,0.65,1.02,0.96,1.63,0.68l3.56-1.44c0.64-0.24,1.02-0.99,0.88-1.68L675.99,581.95z"/>
						</g>
						<g>
							<defs>
								<rect id="SVGID_143_" y="-0.01" width="800" height="800.01"/>
							</defs>
							<clipPath id="SVGID_144_">
								<use xlink:href="#SVGID_143_"  style="overflow:visible;"/>
							</clipPath>
							<path class="st64" d="M314.01,686.55c-0.54-0.41-1.39-0.41-1.9,0.07l-2.85,2.57c-0.48,0.45-0.54,1.27-0.1,1.78l3.39,3.97
								c0.44,0.51,1.12,0.51,1.56-0.03l3.12-4.21c0.41-0.55,0.31-1.34-0.2-1.75L314.01,686.55z"/>
						</g>
						<g>
							<defs>
								<rect id="SVGID_145_" y="-0.01" width="800" height="800.01"/>
							</defs>
							<clipPath id="SVGID_146_">
								<use xlink:href="#SVGID_145_"  style="overflow:visible;"/>
							</clipPath>
							<path class="st65" d="M271.26,714.94c-0.27-0.62-0.98-0.92-1.63-0.68l-3.56,1.44c-0.61,0.24-1.02,0.99-0.88,1.68l0.78,3.77
								c0.14,0.68,0.81,1.13,1.46,0.99l5.12-0.96c0.68-0.14,1.02-0.75,0.75-1.4L271.26,714.94z"/>
						</g>
						<g>
							<defs>
								<rect id="SVGID_147_" y="-0.01" width="800" height="800.01"/>
							</defs>
							<clipPath id="SVGID_148_">
								<use xlink:href="#SVGID_147_"  style="overflow:visible;"/>
							</clipPath>
							<path class="st66" d="M274.02,768.13l-5.16-0.65c-0.68-0.07-1.32,0.41-1.43,1.1l-0.54,3.8c-0.1,0.68,0.34,1.4,0.98,1.61
								l3.67,1.23c0.61,0.21,1.32-0.17,1.56-0.79l1.73-4.97C275.07,768.82,274.69,768.2,274.02,768.13"/>
						</g>
						<g>
							<defs>
								<rect id="SVGID_149_" y="-0.01" width="800" height="800.01"/>
							</defs>
							<clipPath id="SVGID_150_">
								<use xlink:href="#SVGID_149_"  style="overflow:visible;"/>
							</clipPath>
							<path class="st67" d="M317.32,791.29c-0.44-0.51-1.15-0.48-1.56,0.03l-3.12,4.21c-0.41,0.55-0.31,1.34,0.2,1.78l3.02,2.36
								c0.54,0.45,1.39,0.41,1.9-0.03l2.85-2.57c0.51-0.48,0.54-1.27,0.1-1.78L317.32,791.29z"/>
						</g>
						<g>
							<defs>
								<rect id="SVGID_151_" y="-0.01" width="800" height="800.01"/>
							</defs>
							<clipPath id="SVGID_152_">
								<use xlink:href="#SVGID_151_"  style="overflow:visible;"/>
							</clipPath>
							<path class="st68" d="M362.61,712.25l-3.63-1.2c-0.64-0.21-1.36,0.14-1.6,0.79l-1.7,4.97c-0.24,0.65,0.14,1.23,0.78,1.34
								l5.19,0.62c0.68,0.1,1.29-0.38,1.39-1.06l0.54-3.84C363.7,713.17,363.26,712.45,362.61,712.25"/>
						</g>
						<g>
							<defs>
								<rect id="SVGID_153_" y="-0.01" width="800" height="800.01"/>
							</defs>
							<clipPath id="SVGID_154_">
								<use xlink:href="#SVGID_153_"  style="overflow:visible;"/>
							</clipPath>
							<path class="st69" d="M363.5,757.98c-0.14-0.65-0.78-1.1-1.46-0.96l-11.71,2.47c-0.03,0-0.03,0-0.03,0l-6.38-3.46l16.33-3.46
								c0.68-0.14,1.09-0.79,0.95-1.47l-0.31-1.61c-0.14-0.68-0.81-1.1-1.46-0.96l-21.14,4.45l-5.77-3.12l7.7-1.61
								c0.64-0.14,1.09-0.82,0.95-1.47l-0.2-0.99c-0.14-0.68-0.81-1.1-1.46-0.96l-11.74,2.47l-8.28-4.49l7.98-5l11.85,1.71
								c0.68,0.1,1.32-0.38,1.43-1.03l0.14-1.03c0.07-0.65-0.37-1.3-1.05-1.4l-7.77-1.13l5.57-3.46l21.35,3.08
								c0.68,0.1,1.32-0.34,1.39-1.03l0.24-1.64c0.1-0.68-0.37-1.3-1.02-1.4l-16.53-2.4l6.14-3.87c0.03,0,0.03,0,0.03,0l11.85,1.71
								c0.68,0.1,1.29-0.38,1.39-1.06l0.14-0.99c0.1-0.65-0.37-1.3-1.02-1.4l-10.93-1.58l3.43-10.58c0.24-0.65-0.14-1.37-0.78-1.58
								l-0.95-0.31c-0.64-0.21-1.36,0.14-1.56,0.79l-3.73,11.47l-6.18,3.87l5.23-15.99c0.2-0.65-0.17-1.37-0.81-1.58l-1.56-0.51
								c-0.61-0.24-1.32,0.14-1.53,0.79l-6.75,20.69l-5.57,3.49l2.48-7.54c0.2-0.65-0.17-1.37-0.81-1.58l-0.95-0.31
								c-0.64-0.21-1.32,0.14-1.56,0.79l-3.73,11.47l-8.49,5.34l-0.31-9.52l7.4-9.49c0.41-0.55,0.31-1.34-0.2-1.75l-0.78-0.62
								c-0.54-0.45-1.32-0.34-1.73,0.21l-4.85,6.23l-0.2-6.61l13.34-17.13c0.41-0.51,0.34-1.3-0.2-1.75l-1.29-1.03
								c-0.54-0.41-1.32-0.31-1.73,0.21l-10.32,13.25l-0.24-7.3v-0.03l7.4-9.49c0.44-0.55,0.34-1.34-0.2-1.75l-0.78-0.65
								c-0.54-0.41-1.32-0.31-1.73,0.24l-6.82,8.73l-7.37-8.29c-0.44-0.51-1.22-0.58-1.73-0.1l-0.75,0.68
								c-0.51,0.45-0.54,1.23-0.1,1.75l7.98,9.01l0.24,7.33l-11.13-12.57c-0.44-0.51-1.22-0.55-1.73-0.1l-1.22,1.13
								c-0.51,0.45-0.54,1.23-0.1,1.75l14.39,16.23l0.2,6.61l-5.23-5.93c-0.44-0.51-1.22-0.55-1.73-0.1l-0.75,0.68
								c-0.51,0.45-0.58,1.23-0.1,1.75l7.98,9.01l0.31,9.38l-7.98-4.32l-4.45-11.2c-0.27-0.65-0.98-0.96-1.6-0.68l-0.95,0.34
								c-0.61,0.27-0.92,0.99-0.68,1.64l2.92,7.33l-5.77-3.12l-8.01-20.21c-0.27-0.65-0.98-0.96-1.63-0.68l-1.49,0.58
								c-0.64,0.27-0.95,0.99-0.71,1.64l6.21,15.62l-6.38-3.46l-4.48-11.2c-0.24-0.65-0.95-0.96-1.6-0.72l-0.92,0.38
								c-0.64,0.27-0.95,0.99-0.68,1.61l4.07,10.34l-10.79,2.29c-0.68,0.14-1.09,0.79-0.95,1.47l0.2,0.99
								c0.14,0.65,0.78,1.1,1.46,0.96l11.71-2.47h0.03l6.38,3.46l-16.33,3.46c-0.68,0.14-1.12,0.79-0.98,1.47l0.34,1.61
								c0.14,0.65,0.81,1.1,1.46,0.96l21.14-4.45l5.77,3.12l-7.7,1.61c-0.64,0.14-1.09,0.82-0.95,1.47l0.2,0.99
								c0.14,0.65,0.81,1.1,1.46,0.96l11.74-2.47l8.25,4.49l-7.98,5l-11.85-1.75c-0.68-0.07-1.32,0.38-1.39,1.06l-0.17,0.99
								c-0.07,0.68,0.37,1.34,1.05,1.4l7.77,1.13l-5.57,3.49l-21.35-3.12c-0.68-0.07-1.29,0.38-1.43,1.06l-0.2,1.64
								c-0.1,0.68,0.37,1.3,1.02,1.4l16.53,2.4l-6.14,3.87c0,0,0,0-0.03,0l-11.85-1.71c-0.68-0.1-1.29,0.38-1.39,1.03l-0.14,1.03
								c-0.1,0.65,0.37,1.3,1.02,1.4l10.93,1.58l-3.43,10.58c-0.2,0.65,0.14,1.37,0.78,1.58l0.95,0.31
								c0.64,0.21,1.36-0.14,1.56-0.79l3.73-11.47l6.18-3.87l-5.19,15.99c-0.24,0.65,0.14,1.37,0.75,1.58l1.6,0.51
								c0.61,0.21,1.32-0.14,1.53-0.79l6.75-20.69l5.57-3.49l-2.44,7.53c-0.24,0.65,0.14,1.34,0.78,1.58l0.95,0.31
								c0.64,0.21,1.32-0.14,1.53-0.79l3.77-11.51l7.91-4.93l0.27,9.11l-7.4,9.52c-0.41,0.51-0.34,1.3,0.2,1.75l0.78,0.62
								c0.54,0.41,1.32,0.34,1.73-0.21l4.85-6.23l0.2,6.61l-13.34,17.13c-0.44,0.51-0.34,1.3,0.2,1.71l1.29,1.03
								c0.54,0.45,1.29,0.34,1.73-0.21l10.32-13.22l0.24,7.3v0.03l-7.43,9.49c-0.41,0.55-0.31,1.34,0.24,1.75l0.78,0.62
								c0.51,0.45,1.29,0.34,1.73-0.21l6.82-8.73l7.37,8.29c0.44,0.51,1.22,0.55,1.73,0.1l0.75-0.68c0.51-0.45,0.54-1.23,0.1-1.75
								l-7.98-9.01l-0.24-7.33l11.13,12.57c0.44,0.48,1.22,0.55,1.73,0.07l1.22-1.1c0.51-0.45,0.54-1.23,0.1-1.75l-14.39-16.23
								l-0.2-6.61l5.23,5.93c0.44,0.48,1.22,0.55,1.73,0.1l0.75-0.68c0.51-0.48,0.54-1.27,0.1-1.75l-7.98-9.01l-0.31-9.76l8.62,4.66
								l4.45,11.23c0.27,0.65,0.98,0.96,1.6,0.68l0.95-0.38c0.61-0.24,0.92-0.96,0.68-1.61l-2.92-7.36l5.77,3.15l8.01,20.21
								c0.27,0.65,0.98,0.96,1.6,0.68l1.53-0.62c0.64-0.24,0.95-0.96,0.68-1.61l-6.18-15.65l6.38,3.46c0,0,0,0.03,0.03,0.03
								l4.45,11.2c0.24,0.65,0.95,0.96,1.6,0.68l0.92-0.34c0.64-0.27,0.95-0.99,0.71-1.64l-4.11-10.34l10.79-2.26
								c0.64-0.14,1.09-0.82,0.95-1.47L363.5,757.98z"/>
						</g>
						<g>
							<defs>
								<rect id="SVGID_155_" y="-0.01" width="800" height="800.01"/>
							</defs>
							<clipPath id="SVGID_156_">
								<use xlink:href="#SVGID_155_"  style="overflow:visible;"/>
							</clipPath>
							<path class="st70" d="M364.55,765.1c-0.14-0.68-0.78-1.13-1.46-0.99l-5.12,0.99c-0.68,0.1-0.98,0.72-0.75,1.37l2.04,4.83
								c0.27,0.65,1.02,0.96,1.63,0.68l3.56-1.44c0.61-0.24,1.02-0.99,0.88-1.68L364.55,765.1z"/>
						</g>
						<g>
							<defs>
								<rect id="SVGID_157_" y="-0.01" width="800" height="800.01"/>
							</defs>
							<clipPath id="SVGID_158_">
								<use xlink:href="#SVGID_157_"  style="overflow:visible;"/>
							</clipPath>
							<path class="st71" d="M573.68,686.19c-0.54-0.41-1.39-0.41-1.9,0.07l-2.85,2.57c-0.51,0.45-0.54,1.27-0.1,1.78l3.39,3.97
								c0.44,0.51,1.12,0.51,1.56-0.03l3.12-4.21c0.41-0.55,0.31-1.34-0.2-1.75L573.68,686.19z"/>
						</g>
						<g>
							<defs>
								<rect id="SVGID_159_" y="-0.01" width="800" height="800.01"/>
							</defs>
							<clipPath id="SVGID_160_">
								<use xlink:href="#SVGID_159_"  style="overflow:visible;"/>
							</clipPath>
							<path class="st72" d="M530.93,714.58c-0.27-0.62-0.98-0.92-1.63-0.68l-3.53,1.44c-0.64,0.24-1.05,0.99-0.92,1.68l0.78,3.77
								c0.14,0.68,0.81,1.13,1.46,0.99l5.12-0.96c0.68-0.14,1.02-0.75,0.75-1.37L530.93,714.58z"/>
						</g>
						<g>
							<defs>
								<rect id="SVGID_161_" y="-0.01" width="800" height="800.01"/>
							</defs>
							<clipPath id="SVGID_162_">
								<use xlink:href="#SVGID_161_"  style="overflow:visible;"/>
							</clipPath>
							<path class="st73" d="M533.69,767.77l-5.19-0.65c-0.68-0.07-1.29,0.41-1.39,1.1l-0.54,3.8c-0.1,0.68,0.34,1.4,0.98,1.61
								l3.67,1.23c0.61,0.21,1.32-0.14,1.56-0.79l1.73-4.97C534.74,768.45,534.37,767.87,533.69,767.77"/>
						</g>
						<g>
							<defs>
								<rect id="SVGID_163_" y="-0.01" width="800" height="800.01"/>
							</defs>
							<clipPath id="SVGID_164_">
								<use xlink:href="#SVGID_163_"  style="overflow:visible;"/>
							</clipPath>
							<path class="st74" d="M576.99,790.93c-0.44-0.51-1.12-0.51-1.53,0.07l-3.16,4.18c-0.41,0.55-0.31,1.34,0.24,1.78l2.99,2.36
								c0.54,0.45,1.39,0.41,1.9-0.03l2.85-2.6c0.51-0.45,0.54-1.23,0.1-1.75L576.99,790.93z"/>
						</g>
						<g>
							<defs>
								<rect id="SVGID_165_" y="-0.01" width="800" height="800.01"/>
							</defs>
							<clipPath id="SVGID_166_">
								<use xlink:href="#SVGID_165_"  style="overflow:visible;"/>
							</clipPath>
							<path class="st75" d="M622.28,711.89l-3.63-1.2c-0.64-0.21-1.36,0.14-1.6,0.79l-1.73,4.97c-0.2,0.65,0.17,1.23,0.81,1.34
								l5.19,0.62c0.68,0.1,1.29-0.38,1.39-1.06l0.54-3.84C623.37,712.81,622.92,712.09,622.28,711.89"/>
						</g>
						<g>
							<defs>
								<rect id="SVGID_167_" y="-0.01" width="800" height="800.01"/>
							</defs>
							<clipPath id="SVGID_168_">
								<use xlink:href="#SVGID_167_"  style="overflow:visible;"/>
							</clipPath>
							<path class="st76" d="M623.16,757.62c-0.14-0.68-0.78-1.1-1.46-0.96l-11.7,2.46c-0.03,0-0.03,0-0.03,0l-6.38-3.46l16.33-3.46
								c0.68-0.14,1.09-0.79,0.95-1.47l-0.31-1.61c-0.14-0.68-0.81-1.1-1.46-0.96l-21.14,4.45l-5.77-3.12l7.7-1.61
								c0.64-0.14,1.09-0.82,0.95-1.47l-0.2-0.99c-0.14-0.68-0.81-1.1-1.46-0.96l-11.74,2.47l-8.28-4.49l7.98-5l11.85,1.71
								c0.68,0.1,1.32-0.38,1.39-1.03l0.17-0.99c0.07-0.68-0.37-1.34-1.05-1.44l-7.77-1.13l5.57-3.46l21.35,3.08
								c0.68,0.1,1.32-0.38,1.39-1.03l0.24-1.64c0.1-0.68-0.37-1.3-1.02-1.4l-16.53-2.4l6.14-3.87h0.03l11.85,1.71
								c0.68,0.1,1.29-0.38,1.39-1.06l0.14-0.99c0.1-0.68-0.37-1.3-1.02-1.4l-10.93-1.58l3.43-10.58c0.2-0.65-0.14-1.37-0.78-1.58
								l-0.95-0.31c-0.64-0.24-1.36,0.14-1.56,0.79l-3.73,11.47l-6.18,3.87l5.19-15.99c0.24-0.65-0.14-1.37-0.78-1.58l-1.56-0.51
								c-0.61-0.21-1.32,0.14-1.53,0.79l-6.75,20.69l-5.57,3.49l2.48-7.54c0.2-0.65-0.17-1.37-0.81-1.58l-0.95-0.31
								c-0.64-0.21-1.32,0.14-1.56,0.79l-3.73,11.47l-8.49,5.34l-0.31-9.49l7.4-9.52c0.41-0.51,0.31-1.34-0.2-1.75l-0.78-0.62
								c-0.54-0.41-1.32-0.34-1.73,0.21l-4.85,6.23l-0.2-6.61l13.34-17.13c0.41-0.51,0.34-1.3-0.2-1.75l-1.29-1.03
								c-0.54-0.41-1.32-0.31-1.73,0.21l-10.32,13.25l-0.24-7.33l7.4-9.49c0.44-0.55,0.34-1.34-0.2-1.75l-0.78-0.62
								c-0.54-0.45-1.32-0.34-1.73,0.17l-6.82,8.77l-7.37-8.29c-0.44-0.51-1.22-0.55-1.73-0.1l-0.75,0.65
								c-0.51,0.48-0.54,1.27-0.1,1.78l7.98,9.01l0.24,7.33L560.4,698.8c-0.44-0.51-1.22-0.55-1.73-0.1l-1.22,1.13
								c-0.51,0.45-0.54,1.23-0.1,1.75l14.39,16.23l0.2,6.61l-5.23-5.93c-0.44-0.51-1.26-0.55-1.73-0.1l-0.75,0.68
								c-0.51,0.45-0.58,1.23-0.1,1.75l7.98,9.01l0.31,9.38l-7.98-4.32l-4.45-11.2c-0.27-0.65-0.98-0.96-1.6-0.72l-0.95,0.38
								c-0.61,0.27-0.92,0.99-0.68,1.64l2.92,7.33l-5.77-3.12l-8.01-20.21c-0.27-0.65-0.98-0.96-1.63-0.68l-1.49,0.58
								c-0.64,0.27-0.95,0.99-0.71,1.64l6.21,15.62l-6.38-3.46c0,0,0,0-0.03,0l-4.45-11.23c-0.24-0.62-0.95-0.92-1.6-0.68
								l-0.92,0.38c-0.64,0.27-0.95,0.99-0.68,1.61l4.07,10.34l-10.79,2.29c-0.68,0.14-1.09,0.79-0.95,1.47l0.2,0.99
								c0.14,0.65,0.78,1.1,1.46,0.96l11.71-2.47h0.03l6.38,3.46l-16.36,3.46c-0.64,0.14-1.09,0.79-0.95,1.44l0.34,1.64
								c0.14,0.65,0.81,1.1,1.46,0.96l21.14-4.45l5.77,3.12l-7.7,1.61c-0.64,0.14-1.09,0.82-0.95,1.47l0.2,0.99
								c0.14,0.65,0.81,1.1,1.46,0.96l11.74-2.47l8.25,4.49l-7.98,5l-11.85-1.75c-0.68-0.07-1.32,0.38-1.43,1.06l-0.14,0.99
								c-0.07,0.68,0.37,1.34,1.05,1.4l7.77,1.13l-5.57,3.49l-21.35-3.12c-0.68-0.1-1.29,0.38-1.43,1.06l-0.2,1.64
								c-0.1,0.68,0.37,1.3,1.02,1.4l16.53,2.4l-6.14,3.87h-0.03l-11.85-1.71c-0.68-0.1-1.29,0.38-1.39,1.06l-0.14,0.99
								c-0.1,0.65,0.37,1.3,1.02,1.4l10.93,1.58l-3.43,10.58c-0.24,0.65,0.14,1.37,0.78,1.58l0.95,0.31
								c0.64,0.21,1.36-0.14,1.56-0.79l3.73-11.47c0-0.03,0-0.03,0-0.03l6.18-3.84l-5.19,15.99c-0.24,0.65,0.14,1.37,0.78,1.58
								l1.56,0.51c0.61,0.21,1.32-0.14,1.53-0.79l6.75-20.69l5.57-3.49l-2.44,7.53c-0.24,0.65,0.14,1.34,0.78,1.58l0.95,0.31
								c0.64,0.21,1.32-0.14,1.56-0.79l3.73-11.47l7.91-4.97l0.27,9.11l-7.4,9.52c-0.44,0.51-0.34,1.3,0.2,1.75l0.78,0.62
								c0.54,0.41,1.32,0.34,1.73-0.21l4.85-6.23l0.2,6.61l-13.34,17.13c-0.44,0.51-0.34,1.3,0.2,1.71l1.29,1.03
								c0.51,0.45,1.29,0.34,1.73-0.21l10.32-13.22l0.24,7.3v0.03l-7.43,9.49c-0.41,0.55-0.31,1.34,0.24,1.75l0.78,0.62
								c0.51,0.45,1.29,0.34,1.73-0.21l6.82-8.73l7.37,8.29c0.44,0.51,1.22,0.55,1.73,0.1l0.75-0.68c0.51-0.45,0.54-1.23,0.1-1.75
								l-8.01-9.01v-0.03l-0.2-7.3l11.13,12.57c0.44,0.48,1.22,0.55,1.73,0.07l1.22-1.1c0.51-0.45,0.54-1.23,0.1-1.75l-14.39-16.23
								l-0.2-6.61l5.23,5.93c0.44,0.48,1.22,0.55,1.73,0.07l0.75-0.65c0.51-0.48,0.54-1.27,0.1-1.75l-7.98-9.04l-0.31-9.73
								l8.62,4.66l4.45,11.23c0.27,0.65,0.98,0.96,1.6,0.68l0.95-0.38c0.61-0.24,0.92-0.96,0.68-1.61l-2.92-7.33l5.77,3.12
								l8.01,20.21c0.27,0.65,0.98,0.96,1.6,0.68l1.53-0.62c0.64-0.24,0.95-0.96,0.68-1.61l-6.18-15.65l6.38,3.46c0,0,0,0,0.03,0.03
								l4.45,11.2c0.24,0.65,0.95,0.96,1.6,0.72l0.92-0.38c0.64-0.27,0.95-0.99,0.71-1.64l-4.11-10.34l10.79-2.26
								c0.64-0.14,1.09-0.82,0.95-1.47L623.16,757.62z"/>
						</g>
						<g>
							<defs>
								<rect id="SVGID_169_" y="-0.01" width="800" height="800.01"/>
							</defs>
							<clipPath id="SVGID_170_">
								<use xlink:href="#SVGID_169_"  style="overflow:visible;"/>
							</clipPath>
							<path class="st77" d="M624.22,764.74c-0.14-0.69-0.81-1.13-1.46-0.99l-5.12,0.99c-0.68,0.1-1.02,0.72-0.75,1.37l2.04,4.83
								c0.27,0.65,1.02,0.96,1.63,0.68l3.56-1.44c0.61-0.24,1.02-0.99,0.88-1.68L624.22,764.74z"/>
						</g>
					</g>
				</g>
			</g>
		</g>
	</g>
</g>
</svg>
