<?xml version="1.0" encoding="utf-8"?>
<!-- Generator: Adobe Illustrator 25.1.0, SVG Export Plug-In . SVG Version: 6.00 Build 0)  -->
<svg version="1.1" id="Layer_1" xmlns="http://www.w3.org/2000/svg" xmlns:xlink="http://www.w3.org/1999/xlink" x="0px" y="0px"
	 viewBox="0 0 200 200" style="enable-background:new 0 0 200 200;" xml:space="preserve">
<style type="text/css">
	.st0{fill:url(#SVGID_1_);}
	.st1{fill:#DBDBDB;}
	.st2{fill:#F2D323;}
	.st3{fill:#777F7F;}
	.st4{fill:url(#SVGID_2_);}
	.st5{fill:#AAB7B7;}
	.st6{fill:#F7F7F7;}
	.st7{fill:#D35400;}
	.st8{fill:#EDEDED;}
	.st9{fill:#C1382A;}
	.st10{fill:#34495E;}
</style>
<g>
	<g>
		
			<radialGradient id="SVGID_1_" cx="225.9969" cy="-68.0328" r="21.6024" gradientTransform="matrix(-4.6006 0 0 1.2246 1140.3379 256.857)" gradientUnits="userSpaceOnUse">
			<stop  offset="0" style="stop-color:#1C1C1C"/>
			<stop  offset="0.1083" style="stop-color:#212121"/>
			<stop  offset="0.2407" style="stop-color:#303030"/>
			<stop  offset="0.3859" style="stop-color:#494949"/>
			<stop  offset="0.5401" style="stop-color:#6C6C6C"/>
			<stop  offset="0.7015" style="stop-color:#989898"/>
			<stop  offset="0.8664" style="stop-color:#CECECE"/>
			<stop  offset="1" style="stop-color:#FFFFFF"/>
		</radialGradient>
		<ellipse class="st0" cx="100.6" cy="173.5" rx="99.4" ry="26.5"/>
		<path class="st1" d="M22.1,170.7c0-0.2,0-6.2,0-6.4c1.2-11.4,35.8-0.6,78.4-0.6c40.6,0,74.3-9.2,78.4,1.5c0,0,0.1,4.9,0.1,5.6
			c0,11.7-35.1,21.2-78.4,21.2C57.2,191.9,22.1,182.4,22.1,170.7z"/>
		<ellipse class="st2" cx="100.5" cy="164.3" rx="78.4" ry="21.2"/>
		<path class="st3" d="M100.5,183.4c40.2,0,74.1-8.7,74.1-19.1s-33.9-19.1-74.1-19.1c-40.2,0-74.1,8.7-74.1,19.1
			S60.4,183.4,100.5,183.4z"/>
	</g>
	
		<radialGradient id="SVGID_2_" cx="-448.6339" cy="-2114.9814" r="21.5988" gradientTransform="matrix(-1.7842 0 0 0.475 -700.8063 1166.8816)" gradientUnits="userSpaceOnUse">
		<stop  offset="0" style="stop-color:#1C1C1C"/>
		<stop  offset="0.1002" style="stop-color:#4B4B4B"/>
		<stop  offset="0.2173" style="stop-color:#7A7A7A"/>
		<stop  offset="0.3382" style="stop-color:#A3A3A3"/>
		<stop  offset="0.461" style="stop-color:#C4C4C4"/>
		<stop  offset="0.5864" style="stop-color:#DEDEDE"/>
		<stop  offset="0.7153" style="stop-color:#F1F1F1"/>
		<stop  offset="0.85" style="stop-color:#FBFBFB"/>
		<stop  offset="1" style="stop-color:#FFFFFF"/>
	</radialGradient>
	<path class="st4" d="M61.1,162.3c0,5.7,17.3,10.3,38.5,10.3c21.3,0,38.5-4.6,38.5-10.3c0-5.7-17.3-10.3-38.5-10.3
		S61.1,156.7,61.1,162.3z"/>
	<polygon class="st1" points="100.4,165.8 114.8,163.6 105.7,50 101,51.3 	"/>
	<polygon class="st5" points="100.4,165.8 87.7,163.8 96.8,50.2 101,51.3 	"/>
	<polygon class="st6" points="96.8,50.2 101.5,48.9 105.7,50 101,51.3 	"/>
	<g>
		<g>
			<path class="st1" d="M128.3,36.8c-5.9-5.3-21.4-5-23.4-4.7l20,16.2C126.5,47.3,134.2,42.1,128.3,36.8z"/>
			<g>
				<g>
					<g>
						<path class="st7" d="M127.3,45.5c0.5-4-5.6-9.4-13.7-12.1c-4.3-1.4-7.6-1.7-10.3-1.4c-6.3,1-7.5,1.9-7.5,1.9
							c1.7-0.7,3.4-0.9,4.3-0.9c2.5-0.1,5.6,0.4,8.8,1.5c8.1,2.7,14.2,8.1,13.7,12.1c-0.1,1.2-1.1,3.2-5.2,3.7
							c3.7-0.2,7.2-1.5,8.4-2.4C126.6,47.3,127.1,46.5,127.3,45.5z"/>
					</g>
					<path class="st1" d="M108.9,34.5c-3.3-1.1-6.4-1.6-8.9-1.5c-1.4,0-2.7,0.3-3.7,0.6c-0.2,0.1-10.8,2.1-28.7,8.3
						C59.6,44.6,87.5,59.2,90,58.6c0.8-0.2,21.4-4.5,30.8-9.1c1.3-0.6,1.9-1.6,2-2.8C123.3,42.7,117.1,37.2,108.9,34.5z"/>
					<path class="st8" d="M115.1,37.2c-1.8-1.1-3.9-2-6.1-2.7c-3.3-1.1-6.4-1.6-8.9-1.5c-1.4,0-2.7,0.3-3.7,0.6
						c-0.2,0.1-10.8,2.1-28.7,8.3c-3,1-0.8,3.8,3.2,6.8C78.9,47.2,99.3,42.4,115.1,37.2z"/>
					<path class="st5" d="M79.7,54.3c4.8,2.6,9.4,4.5,10.3,4.3c0.8-0.2,21.4-4.5,30.8-9.1c1.3-0.6,1.9-1.6,2-2.8
						c0.1-1.1-0.3-2.4-1.1-3.7C106.2,48.9,81.7,53.9,79.7,54.3z"/>
				</g>
				<g>
					<g>
						<path class="st7" d="M94.7,54.4c0-4-6.8-9.3-15.3-11.8c-4.5-1.3-7.8-1.5-10.5-1.1c-6.2,1.1-7.3,2.1-7.3,2.1
							c1.6-0.8,3.3-1,4.2-1c2.5-0.1,5.7,0.2,9,1.2c8.4,2.5,15.3,7.7,15.3,11.8c0,1.2-0.7,3.3-4.8,3.9c3.7-0.3,7.1-1.7,8.1-2.6
							C94.3,56.2,94.7,55.4,94.7,54.4z"/>
					</g>
					<path class="st2" d="M74.9,43.9c-3.4-1-6.6-1.4-9.1-1.2c-3.8,0.2-6.3,1.6-6.3,4.1c0,4.1,6.9,9.4,15.4,11.9
						c6,1.8,11.2,1.6,13.7,0c1.1-0.7,1.7-1.6,1.7-2.8C90.3,51.7,83.4,46.4,74.9,43.9z"/>
					<path class="st9" d="M78.8,56.4c-7.2-2.1-13.1-6.6-13.1-10.1c0-1,0.5-1.8,1.4-2.4c-3.2,0.2-5.3,1.4-5.3,3.5
						c0,3.5,5.9,8,13.1,10.1c5.1,1.5,9.5,1.4,11.7,0C84.4,57.6,81.7,57.3,78.8,56.4z"/>
					<path class="st10" d="M74.9,45c-2.9-0.9-5.6-1.2-7.7-1.1c-0.9,0.6-1.4,1.4-1.4,2.4c0,3.5,5.9,8,13.1,10.1
						c2.9,0.9,5.6,1.2,7.7,1.1c0.9-0.6,1.4-1.4,1.4-2.4C88,51.6,82.1,47.1,74.9,45z"/>
				</g>
			</g>
		</g>
		<g>
			<path class="st5" d="M75.2,46.9c-2-0.6-3.8-0.8-5.3-0.7c-0.7,0-5.5,1.4-6,1.7c-1,0.6-1.8,6-0.2,7.3c1.5,1.1,11.2,2.3,14.3,1.6
				c0.2-0.1,5-1.3,5.1-1.4c0.6-0.4,1-0.9,1-1.6C84,51.4,80.1,48.3,75.2,46.9z"/>
		</g>
		<g>
			<path class="st5" d="M71.2,46.9c1.4-0.1,3.2,0.1,5.2,0.8c0.5,0.2,1.8,0.4,2.3,0.6c0.6-4.3-0.3-11-1.2-18.8
				c-1.7-14.7-5.7-27.8-9-29.3c-3.2-1.5-4.5,9.2-2.8,23.9c1.1,9,3,17.4,5,22.9C70.9,46.9,71,46.9,71.2,46.9z"/>
			<path class="st1" d="M65.7,47.8c1.4-0.1,3.2,0.1,5.1,0.8c0.5,0.2,0.9,0.3,1.4,0.5C73.3,44.7,74,37.9,74,30
				c0-15-2.5-28.3-5.6-29.8c-3.1-1.5-5.6,9.4-5.6,24.4c0,9.2,0.9,17.7,2.4,23.3C65.4,47.8,65.6,47.8,65.7,47.8z"/>
			<path class="st8" d="M68.3,2.3c1.8,0.8,3.5,5,4.6,10.9c-1-7.1-2.6-12.1-4.4-13c-1.5-0.8-2.9,1.6-3.9,6.1
				C65.6,3.2,66.9,1.6,68.3,2.3z"/>
		</g>
		<g>
			<path class="st5" d="M77.8,55.8c0.8,0.5,3.2-0.2,4.2-1.3c0.3-0.3,1.1-0.8,1.3-1.1c5.1,2.6,16.1,9.9,23.5,15.2
				c14,10,24.4,19.8,23.3,21.8c-1.2,2-13.5-4.6-27.5-14.6C94,69.7,82.1,61,78.1,56.8C78.2,56.7,76.7,55.2,77.8,55.8z"/>
			<path class="st1" d="M71.7,56.5c1.3-0.4,3.8,0.2,4.8-0.8c0.2-0.3,0.4-0.5,0.6-0.8c5.6,2.5,18,9.3,26.3,14.4
				c15.7,9.7,27.7,19.1,26.7,21c-1,1.9-14.5-4.3-30.3-14C90.2,70.5,76,60.7,71.3,56.6C71.4,56.6,71.6,56.6,71.7,56.5z"/>
			<path class="st8" d="M127.7,89.1c0.7-1.1-2.3-4.3-7.6-8.5c6.6,4.9,10.6,8.7,10,9.8c-0.5,1-4.2-0.1-9.7-2.7
				C124.5,89.4,127.2,90,127.7,89.1z"/>
		</g>
		<g>
			<path class="st5" d="M71.5,48.6c0.3,0.9-1.6,1.9-0.1,2.8c0.4,0.2,6,2.5,6.4,2.7C45.3,62.5,3.5,66.3,0.4,65
				c-3-1.3,13.3-6.2,35-10.6c13.3-2.7,27.5-5.3,36-6.1C71.5,48.4,71.5,48.5,71.5,48.6z"/>
			<path class="st1" d="M67.9,50.2c0.3,0.8-1.4,1.8,0.1,2.7c0.4,0.2,5.9,2.5,6.3,2.7C43.6,63.3,3.4,66.3,0.4,65
				c-3-1.3,12.4-5.8,33.1-9.7c12.6-2.4,26.2-4.7,34.4-5.3C67.8,50.1,67.8,50.2,67.9,50.2z"/>
			<path class="st8" d="M3.3,64.4c1.7,0.8,10.8,0.7,19.3-0.2C12.5,65.5,2.2,65.8,0.4,65c-1.5-0.7,1.3-2.1,7.2-3.8
				C3.7,62.6,2,63.8,3.3,64.4z"/>
		</g>
		<g>
			<path class="st8" d="M70.8,48.2c-1.9-0.6-3.7-0.8-5.1-0.7c-1.5,0.1-2.7,0.5-3.2,1.2c-0.2,0.3-2.3,5.7-0.8,6.9
				c1.6,1.2,15.4,1.8,16.8,0.9c0.6-0.4,1-0.9,1-1.6C79.5,52.6,75.6,49.6,70.8,48.2z"/>
			<path class="st1" d="M63.5,55.6c-0.5,0.1-1,0.2-1.4,0.2c2.5,1.1,15.2,1.6,16.5,0.7c0.6-0.4,1-0.9,1-1.6c0-1-0.8-2.1-2-3.2
				C73.3,53.4,68,54.6,63.5,55.6z"/>
		</g>
	</g>
</g>
</svg>
