<svg xmlns="http://www.w3.org/2000/svg" viewBox="0 0 38.5 63.26"><defs><style>.cls-1{fill:#dfe0e2;}</style></defs><title>Asset 66switch-vertical</title><g id="Layer_2" data-name="Layer 2"><g id="Layer_1-2" data-name="Layer 1"><path class="cls-1" d="M4.69,38.82c-.25,0-.35-.13-.35-.41v-8.6c0-.29.11-.42.4-.42H7.9c2.62,0,3.57,1.18,3.57,2.38v4.68c0,1.19-1,2.37-3.57,2.37Zm1.95-7.55V37H7.9c.68,0,1.27-.26,1.27-.9V32.17c0-.64-.59-.9-1.27-.9Z"/><path class="cls-1" d="M19.73,36.56c0,1.2-.81,2.38-3.43,2.38s-3.43-1.18-3.43-2.38V31.65c0-1.19.81-2.37,3.43-2.37s3.43,1.18,3.43,2.37v.64c0,.29-.09.42-.39.42H17.91c-.3,0-.41-.13-.41-.42v-.23c0-.64-.49-.91-1.17-.91s-1.16.27-1.16.91v4.1c0,.64.47.9,1.16.9s1.17-.26,1.17-.9v-.44c0-.29.11-.42.41-.42h1.43c.3,0,.39.13.39.42Z"/><path class="cls-1" d="M24.47,49.93,27,58.53c.08.26,0,.41-.31.41H25.14a.46.46,0,0,1-.49-.41l-.36-1.33H22l-.36,1.33a.46.46,0,0,1-.49.41H19.71c-.29,0-.39-.15-.31-.41l2.53-8.6a.49.49,0,0,1,.52-.42H24A.49.49,0,0,1,24.47,49.93Zm-.88,4.72a27.43,27.43,0,0,1-.43-2.9,29.19,29.19,0,0,1-.48,2.9l-.21.74h1.32Z"/><path class="cls-1" d="M34.58,56.68c0,1.2-.81,2.38-3.44,2.38s-3.43-1.18-3.43-2.38V51.77c0-1.19.81-2.37,3.43-2.37s3.44,1.18,3.44,2.37v.64c0,.29-.1.42-.39.42H32.75c-.29,0-.41-.13-.41-.42v-.23c0-.64-.48-.9-1.17-.9s-1.16.26-1.16.9v4.1c0,.64.48.9,1.16.9s1.17-.26,1.17-.9v-.44c0-.29.12-.42.41-.42h1.44c.29,0,.39.13.39.42Z"/><polygon class="cls-1" points="25.65 9.14 19.9 9.14 19.9 0 18.6 0 18.6 9.14 12.85 9.14 12.85 10.45 25.65 10.45 25.65 9.14"/><path class="cls-1" d="M19.9,24.76V15.65h10V14.34H8.58v1.31h10v9.11H0v38.5H38.5V24.76Zm16.27,1.5L1.5,60.93V26.26ZM2.79,61.76,37,27.55V61.76Z"/></g></g></svg>