<svg xmlns="http://www.w3.org/2000/svg" viewBox="0 0 62.71 38.5"><defs><style>.cls-1{fill:#dfe0e2;}</style></defs><title>Asset 64switch-vertical</title><g id="Layer_2" data-name="Layer 2"><g id="Layer_1-2" data-name="Layer 1"><path class="cls-1" d="M28.68,33.9c-.25,0-.34-.13-.34-.41v-8.6c0-.29.11-.42.4-.42h3.15c2.63,0,3.58,1.18,3.58,2.38v4.68c0,1.2-.95,2.37-3.58,2.37Zm2-7.55V32h1.25c.69,0,1.27-.26,1.27-.9V27.25c0-.64-.58-.9-1.27-.9Z"/><path class="cls-1" d="M43.73,31.64c0,1.2-.81,2.38-3.43,2.38s-3.43-1.18-3.43-2.38V26.73c0-1.19.81-2.37,3.43-2.37s3.43,1.18,3.43,2.37v.64c0,.29-.1.42-.39.42H41.9c-.29,0-.4-.13-.4-.42v-.23c0-.64-.49-.9-1.17-.9s-1.16.26-1.16.9v4.1c0,.64.47.9,1.16.9s1.17-.26,1.17-.9V30.8c0-.29.11-.42.4-.42h1.44c.29,0,.39.13.39.42Z"/><path class="cls-1" d="M48.47,5,51,13.61c.09.26,0,.41-.3.41H49.14a.46.46,0,0,1-.49-.41l-.36-1.33H46l-.36,1.33a.46.46,0,0,1-.49.41H43.71c-.29,0-.39-.15-.31-.41L45.93,5a.48.48,0,0,1,.52-.41H48A.48.48,0,0,1,48.47,5Zm-.88,4.72a27.43,27.43,0,0,1-.43-2.9,29.19,29.19,0,0,1-.48,2.9l-.21.74h1.31Z"/><path class="cls-1" d="M58.58,11.76c0,1.2-.81,2.38-3.44,2.38S51.71,13,51.71,11.76V6.85c0-1.19.81-2.37,3.43-2.37s3.44,1.18,3.44,2.37v.64c0,.29-.1.42-.4.42H56.75c-.3,0-.41-.13-.41-.42V7.26c0-.64-.49-.9-1.17-.9S54,6.62,54,7.26v4.1c0,.64.48.9,1.16.9s1.17-.26,1.17-.9v-.44c0-.29.11-.42.41-.42h1.43c.3,0,.4.13.4.42Z"/><polygon class="cls-1" points="9.41 18.6 0 18.6 0 19.9 9.41 19.9 9.41 25.65 10.71 25.65 10.71 12.85 9.41 12.85 9.41 18.6"/><path class="cls-1" d="M24.21,0V18.6H16v-10H14.7V29.92H16v-10h8.2V38.5h38.5V0Zm37,36L26.66,1.5H61.21ZM25.71,2.66,60,37H25.71Z"/></g></g></svg>