<?xml version="1.0" encoding="utf-8"?>
<!-- Generator: Adobe Illustrator 24.1.2, SVG Export Plug-In . SVG Version: 6.00 Build 0)  -->
<svg version="1.1" id="Layer_1" xmlns="http://www.w3.org/2000/svg" xmlns:xlink="http://www.w3.org/1999/xlink" x="0px" y="0px"
	 viewBox="0 0 80 80" style="enable-background:new 0 0 80 80;" xml:space="preserve">
<g id="Layer_2_1_">
	<g id="Layer_1-2">
		<path d="M9.5,42.7c0,1.3-0.9,2.6-3.7,2.6s-3.7-1.3-3.7-2.6v-5.3c0-1.3,0.9-2.6,3.7-2.6s3.7,1.3,3.7,2.6V38c0,0.3-0.1,0.5-0.4,0.5
			H7.5c-0.3,0-0.4-0.1-0.4-0.5v-0.2c0-0.7-0.5-1-1.3-1s-1.3,0.3-1.3,1v4.4c0,0.7,0.5,1,1.3,1s1.3-0.3,1.3-1v-0.5
			c0-0.3,0.1-0.4,0.4-0.4h1.5c0.3,0,0.4,0.1,0.4,0.4V42.7z"/>
		<path d="M11.4,45.1C11,45.1,11,45,11,44.7v-9.3c0-0.3,0.1-0.4,0.4-0.4h2.8c2.8,0,3.8,1,3.8,2.3v0.8c0,0.7-0.4,1.4-1,1.7
			c0.8,0.2,1.4,0.9,1.5,1.8v1.2c0,1.3-1,2.5-3.8,2.5L11.4,45.1z M13.4,36.9V39h0.8c0.7,0,1.4-0.3,1.4-1v-0.4c0-0.7-0.6-0.8-1.4-0.8
			L13.4,36.9z M13.4,40.8v2.3h1.3c0.7,0,1.4-0.3,1.4-1v-0.5c0-0.6-0.6-0.9-1.4-0.9L13.4,40.8z"/>
		<path d="M42.2,59v19.7c0,0.7-0.6,1.3-1.3,1.3c-0.7,0-1.3-0.6-1.3-1.3c0,0,0,0,0,0V59c0-0.7,0.6-1.3,1.3-1.3
			C41.6,57.7,42.2,58.3,42.2,59z"/>
		<path d="M42,1.3V21c0,0.7-0.6,1.3-1.3,1.3c-0.7,0-1.3-0.6-1.3-1.3l0,0V1.3C39.4,0.6,40,0,40.7,0C41.5,0,42,0.6,42,1.3z"/>
		<path d="M35.5,15c0,0.3-0.1,0.6-0.3,0.9c-22.1,24.7-0.9,47.3,0,48.2c0.5,0.5,0.5,1.3,0,1.8c-0.5,0.5-1.3,0.5-1.8,0
			c-0.2-0.2-23.7-25.2,0-51.7c0.5-0.5,1.3-0.6,1.8-0.1c0.3,0.2,0.4,0.6,0.4,1L35.5,15z"/>
	</g>
</g>
</svg>
