<?xml version="1.0" encoding="utf-8"?>
<!-- Generator: Adobe Illustrator 24.1.2, SVG Export Plug-In . SVG Version: 6.00 Build 0)  -->
<svg version="1.1" id="Layer_1" xmlns="http://www.w3.org/2000/svg" xmlns:xlink="http://www.w3.org/1999/xlink" x="0px" y="0px"
	 viewBox="0 0 80 80" style="enable-background:new 0 0 80 80;" xml:space="preserve">
<g id="Layer_2_1_">
	<g id="Layer_1-2">
		<path d="M39.2,15.4c0,1.3-0.9,2.6-3.7,2.6s-3.7-1.3-3.7-2.6v-5.3c0-1.3,0.9-2.6,3.8-2.6s3.7,1.3,3.7,2.6v0.7
			c0,0.3-0.1,0.5-0.4,0.5h-1.5c-0.3,0-0.4-0.1-0.4-0.5v-0.2c0-0.7-0.5-1-1.3-1s-1.2,0.3-1.2,1V15c0,0.7,0.5,1,1.2,1s1.3-0.3,1.3-1
			v-0.5c0-0.3,0.1-0.4,0.4-0.4h1.5c0.3,0,0.4,0.1,0.4,0.4L39.2,15.4z"/>
		<path d="M41.1,17.9c-0.3,0-0.4-0.1-0.4-0.4V8.1c0-0.3,0.1-0.4,0.4-0.4h2.8c2.8,0,3.8,1,3.8,2.3v0.8c0,0.7-0.4,1.4-1,1.7
			c0.8,0.2,1.4,0.9,1.5,1.8v1.1c0,1.3-1,2.5-3.8,2.5L41.1,17.9z M43.1,9.6v2.2h0.8c0.7,0,1.4-0.3,1.4-1v-0.4c0-0.7-0.6-0.8-1.4-0.8
			H43.1z M43.1,13.6v2.3h1.3c0.7,0,1.4-0.3,1.4-1v-0.5c0-0.6-0.6-0.9-1.4-0.9H43.1z"/>
		<path d="M21,41.7H1.3c-0.7,0-1.3-0.6-1.3-1.3c0-0.7,0.6-1.3,1.3-1.3c0,0,0,0,0,0H21c0.7,0,1.3,0.6,1.3,1.3
			C22.3,41.1,21.7,41.7,21,41.7z"/>
		<path d="M78.7,41.5H59c-0.7,0-1.3-0.6-1.3-1.3c0-0.7,0.6-1.3,1.3-1.3h19.7c0.7,0,1.3,0.6,1.3,1.3C80,40.9,79.4,41.5,78.7,41.5
			C78.7,41.5,78.7,41.5,78.7,41.5z"/>
		<path d="M65,35c-0.3,0-0.6-0.1-0.9-0.3c-24.7-22.1-47.3-0.9-48.2,0c-0.5,0.5-1.3,0.5-1.8,0c-0.5-0.5-0.5-1.3,0-1.8
			c0.2-0.4,25.2-23.8,51.7-0.2c0.5,0.5,0.6,1.3,0.1,1.8C65.7,34.8,65.3,35,65,35L65,35z"/>
	</g>
</g>
</svg>
