<svg xmlns="http://www.w3.org/2000/svg" viewBox="0 0 33.5 33.5"><defs><style>.cls-1{fill:#dfe0e2;}</style></defs><title>Asset 84switch-vertical</title><g id="Layer_2" data-name="Layer 2"><g id="Layer_1-2" data-name="Layer 1"><path class="cls-1" d="M6.78,12.86c0,.31-.21.62-.89.62S5,13.17,5,12.86V11.59c0-.31.21-.62.89-.62s.89.31.89.62v.17c0,.07,0,.1-.11.1H6.3c-.07,0-.1,0-.1-.1v-.07c0-.16-.13-.23-.3-.23s-.3.07-.3.23v1.07c0,.17.12.23.3.23s.3-.06.3-.23v-.12c0-.07,0-.1.1-.1h.37c.08,0,.11,0,.11.1Z"/><path class="cls-1" d="M7.08,11.59c0-.31.24-.62.92-.62s.92.31.92.62v1.27c0,.31-.24.62-.92.62s-.92-.31-.92-.62Zm1.25.1c0-.16-.15-.23-.33-.23s-.33.07-.33.23v1.07c0,.17.15.23.33.23s.33-.06.33-.23Z"/><path class="cls-1" d="M11.15,13.34c0,.08,0,.11-.1.11H10.7a.1.1,0,0,1-.1,0l-.57-1a1.91,1.91,0,0,1-.16-.32v1.22c0,.08,0,.11-.1.11H9.42c-.08,0-.11,0-.11-.11V11.11A.1.1,0,0,1,9.42,11h.35c.05,0,.08,0,.09.05l.61,1,.13.27V11.11c0-.07,0-.11.1-.11h.35c.08,0,.1,0,.1.11Z"/><path class="cls-1" d="M13,11c.08,0,.11,0,.11.1v.28c0,.08,0,.11-.11.11h-.46v1.85c0,.08,0,.11-.1.11h-.39c-.08,0-.1,0-.1-.11V11.49h-.46c-.08,0-.11,0-.11-.11V11.1c0-.07,0-.1.11-.1Z"/><path class="cls-1" d="M14.79,12.46l.36.88c0,.07,0,.11-.1.11h-.39c-.07,0-.09-.06-.11-.11l-.31-.79H14v.79c0,.08,0,.11-.11.11h-.38c-.08,0-.11,0-.11-.11V11.11a.1.1,0,0,1,.11-.11h.77c.68,0,.92.31.92.62v.31A.57.57,0,0,1,14.79,12.46Zm-.82-1v.57h.28c.18,0,.33-.07.33-.23v-.11c0-.16-.15-.23-.33-.23Z"/><path class="cls-1" d="M15.51,11.59c0-.31.24-.62.92-.62s.92.31.92.62v1.27c0,.31-.25.62-.92.62s-.92-.31-.92-.62Zm1.24.1c0-.16-.15-.23-.32-.23s-.33.07-.33.23v1.07c0,.17.15.23.33.23s.32-.06.32-.23Z"/><path class="cls-1" d="M18.34,13H19c.08,0,.11,0,.11.11v.28c0,.07,0,.1-.11.1H17.83c-.06,0-.09,0-.09-.11V11.11a.1.1,0,0,1,.11-.11h.39c.07,0,.1,0,.1.11Z"/><path class="cls-1" d="M20,13h.71a.1.1,0,0,1,.11.11v.28c0,.07,0,.1-.11.1H19.53c-.07,0-.09,0-.09-.11V11.11c0-.07,0-.11.1-.11h.39c.08,0,.1,0,.1.11Z"/><path class="cls-1" d="M22.26,11.11l.65,2.23c0,.07,0,.11-.08.11h-.39c-.08,0-.11,0-.13-.11L22.22,13h-.6l-.1.34a.11.11,0,0,1-.12.11H21c-.08,0-.11,0-.08-.11l.65-2.23c0-.07.05-.11.13-.11h.39C22.21,11,22.24,11,22.26,11.11ZM22,12.33c-.06-.22-.11-.72-.12-.75a5.29,5.29,0,0,1-.12.75l-.05.2h.34Z"/><path class="cls-1" d="M23.27,13.45c-.07,0-.1,0-.1-.11V11.11c0-.07,0-.11.1-.11H24c.68,0,.91.26.91.56v.2a.43.43,0,0,1-.24.4.49.49,0,0,1,.36.43v.27c0,.31-.24.59-.91.59Zm.49-2V12H24c.18,0,.33-.07.33-.24v-.09c0-.17-.15-.19-.33-.19Zm0,1V13h.31c.17,0,.33-.06.33-.23v-.11c0-.14-.16-.21-.33-.21Z"/><path class="cls-1" d="M25.92,13h.7c.08,0,.11,0,.11.11v.28c0,.07,0,.1-.11.1H25.41c-.06,0-.09,0-.09-.11V11.11a.1.1,0,0,1,.11-.11h.39c.07,0,.1,0,.1.11Z"/><path class="cls-1" d="M27.12,13.45c-.07,0-.1,0-.1-.11V11.11c0-.07,0-.11.1-.11h1.23c.08,0,.11,0,.11.1v.28c0,.08,0,.11-.11.11h-.74V12h.68c.08,0,.11,0,.11.1v.26c0,.08,0,.1-.11.1h-.68V13h.78a.1.1,0,0,1,.11.11v.28c0,.07,0,.1-.11.1Z"/><path class="cls-1" d="M7.52,21.07h2c.21,0,.3.07.3.28v.8c0,.21-.09.29-.3.29H6.09c-.18,0-.25-.1-.25-.3V15.82c0-.22.08-.31.29-.31h1.1c.22,0,.29.09.29.31Z"/><path class="cls-1" d="M10.46,17.17c0-.87.68-1.74,2.6-1.74s2.61.87,2.61,1.74v3.61c0,.88-.7,1.75-2.61,1.75s-2.6-.87-2.6-1.75Zm3.52.3c0-.47-.42-.66-.92-.66s-.92.19-.92.66v3c0,.47.42.66.92.66S14,21,14,20.49Z"/><path class="cls-1" d="M19.94,15.82l1.84,6.32c.06.19,0,.3-.22.3H20.42c-.21,0-.3-.11-.35-.3l-.27-1H18.11l-.27,1c-.05.19-.14.3-.35.3h-1c-.22,0-.29-.11-.23-.3l1.85-6.32a.35.35,0,0,1,.38-.31h1.1C19.77,15.51,19.87,15.61,19.94,15.82Zm-.65,3.46A20.66,20.66,0,0,1,19,17.15c0,.15-.19,1.54-.35,2.13l-.15.55h1Z"/><path class="cls-1" d="M22.76,22.44c-.19,0-.26-.1-.26-.3V15.82c0-.22.08-.31.3-.31h2.3c1.92,0,2.61.87,2.61,1.74V20.7c0,.88-.69,1.74-2.61,1.74Zm1.43-5.55v4.18h.91c.5,0,.93-.2.93-.67V17.55c0-.47-.43-.66-.93-.66Z"/><path class="cls-1" d="M33.5,33.5H0V0H33.5ZM1.5,32H32V1.5H1.5Z"/></g></g></svg>