<svg xmlns="http://www.w3.org/2000/svg" viewBox="0 0 37.47 37.47"><defs><style>.cls-1{fill:#dfe0e2;}</style></defs><title>Asset 86switch-vertical</title><g id="Layer_2" data-name="Layer 2"><g id="Layer_1-2" data-name="Layer 1"><path class="cls-1" d="M18.73,37.47A18.74,18.74,0,1,1,37.47,18.73,18.76,18.76,0,0,1,18.73,37.47Zm0-36A17.27,17.27,0,1,0,36,18.73,17.28,17.28,0,0,0,18.73,1.47Z"/><path class="cls-1" d="M25.43,27.14A7.43,7.43,0,0,1,18,19.71h0a6,6,0,0,0-11.92.07H4.61a7.43,7.43,0,0,1,14.86,0h0a6,6,0,0,0,11.92-.07h1.46A7.43,7.43,0,0,1,25.43,27.14Z"/></g></g></svg>