<?xml version="1.0" encoding="utf-8"?>
<!-- Generator: Adobe Illustrator 24.1.2, SVG Export Plug-In . SVG Version: 6.00 Build 0)  -->
<svg version="1.1" id="Layer_1" xmlns="http://www.w3.org/2000/svg" xmlns:xlink="http://www.w3.org/1999/xlink" x="0px" y="0px"
	 viewBox="0 0 80 80" style="enable-background:new 0 0 80 80;" xml:space="preserve">
<g id="Layer_2_1_">
	<g id="Layer_1-2">
		<path d="M16.8,40.9l1.5,3.7c0.1,0.3,0,0.4-0.4,0.4h-1.7c-0.3,0-0.4-0.2-0.4-0.4l-1.3-3.3h-1.1v3.3c0,0.3,0,0.4-0.4,0.4h-1.6
			c-0.3,0-0.4-0.1-0.4-0.4v-9.3c0-0.3,0.1-0.4,0.4-0.4h3.3c2.8,0,3.8,1.3,3.8,2.6v1.3C18.4,39.7,17.7,40.6,16.8,40.9z M13.4,36.9
			v2.4h1.2c0.7,0,1.4-0.3,1.4-1v-0.4c0-0.7-0.6-1-1.4-1L13.4,36.9z"/>
		<path d="M41.5,59v19.7c0,0.7-0.6,1.3-1.3,1.3c-0.7,0-1.3-0.6-1.3-1.3V59c0-0.7,0.6-1.3,1.3-1.3C40.9,57.7,41.5,58.3,41.5,59z"/>
		<path d="M41.3,1.3V21c0,0.7-0.6,1.3-1.3,1.3c-0.7,0-1.3-0.6-1.3-1.3V1.3C38.7,0.6,39.3,0,40,0C40.7,0,41.3,0.6,41.3,1.3z"/>
		<path d="M34.7,15c0,0.3-0.1,0.6-0.3,0.9c-22.1,24.7-0.9,47.3,0,48.2c0.5,0.5,0.5,1.3,0,1.8c-0.5,0.5-1.3,0.5-1.8,0
			c-0.4-0.2-23.8-25.2-0.2-51.7c0.5-0.5,1.3-0.5,1.8-0.1C34.5,14.3,34.7,14.7,34.7,15z"/>
	</g>
</g>
</svg>
