<svg xmlns="http://www.w3.org/2000/svg" viewBox="0 0 17.19 45"><defs><style>.cls-1{fill:#dfe0e2;}</style></defs><title>Asset 94switch-vertical</title><g id="Layer_2" data-name="Layer 2"><g id="Layer_1-2" data-name="Layer 1"><path class="cls-1" d="M3.34,23l.83,2.08c.06.15,0,.25-.24.25H3c-.16,0-.2-.13-.25-.25L2,23.25H1.39v1.87c0,.18,0,.25-.23.25H.24c-.17,0-.24-.07-.24-.25V19.88c0-.18.07-.25.24-.25H2.07c1.59,0,2.15.71,2.15,1.44v.74A1.31,1.31,0,0,1,3.34,23ZM1.39,20.77v1.34h.68c.41,0,.77-.16.77-.55v-.24c0-.39-.36-.55-.77-.55Z"/><path class="cls-1" d="M17.19,33.2V44.27a.73.73,0,0,1-1.46,0V33.2a.73.73,0,0,1,1.46,0Z"/><path class="cls-1" d="M17.09.73V11.8a.73.73,0,0,1-1.46,0V.73a.73.73,0,0,1,1.46,0Z"/><path class="cls-1" d="M13.4,8.44a.74.74,0,0,1-.18.48c-12.41,13.91-.53,26.6,0,27.14a.73.73,0,0,1,0,1,.74.74,0,0,1-1,0C12,36.92-1.18,22.88,12.13,8a.73.73,0,0,1,1-.06A.71.71,0,0,1,13.4,8.44Z"/></g></g></svg>