<svg xmlns="http://www.w3.org/2000/svg" viewBox="0 0 38.5 90.78"><defs><style>.cls-1{fill:#dfe0e2;}</style></defs><title>Asset 61switch-vertical</title><g id="Layer_2" data-name="Layer 2"><g id="Layer_1-2" data-name="Layer 1"><path class="cls-1" d="M23.6,10.53h-.13l-4.78-1a.69.69,0,0,1-.3-.17.6.6,0,0,1-.17-.57.58.58,0,0,1,.27-.38A.64.64,0,0,1,19,8.26l2.7.6L16.21,3.45A.65.65,0,0,1,16,3a.62.62,0,0,1,.18-.43.65.65,0,0,1,.88,0L22.54,8l-.6-2.69A.58.58,0,0,1,22,4.84a.62.62,0,0,1,1.13.2h0L24.2,9.79a.59.59,0,0,1-.16.56A.62.62,0,0,1,23.6,10.53ZM22.5,5.18Z"/><path class="cls-1" d="M21.85,17.79l-.14,0-4.77-1.05a.63.63,0,0,1-.31-.17.58.58,0,0,1-.16-.56.6.6,0,0,1,.27-.39.59.59,0,0,1,.47-.08l2.7.6L14.46,10.7a.62.62,0,0,1-.18-.43.62.62,0,0,1,1.06-.44l5.45,5.42-.61-2.69a.62.62,0,0,1,.09-.46.61.61,0,0,1,1.12.19h0L22.45,17a.6.6,0,0,1-.16.57A.67.67,0,0,1,21.85,17.79Zm-1.1-5.36h0Z"/><path class="cls-1" d="M4.69,66.34H7.9c2.62,0,3.57-1.17,3.57-2.37V59.29c0-1.2-1-2.37-3.57-2.37H4.74c-.29,0-.4.12-.4.41v8.6C4.34,66.21,4.43,66.34,4.69,66.34Zm1.95-7.55H7.9c.68,0,1.27.26,1.27.9v3.88c0,.64-.59.9-1.27.9H6.64Z"/><path class="cls-1" d="M16.3,66.46c2.62,0,3.43-1.18,3.43-2.38v-.84c0-.29-.09-.42-.39-.42H17.91c-.3,0-.41.13-.41.42v.44c0,.64-.49.9-1.17.9s-1.16-.26-1.16-.9v-4.1c0-.64.47-.9,1.16-.9s1.17.26,1.17.9v.23c0,.3.11.42.41.42h1.43c.3,0,.39-.12.39-.42v-.64c0-1.19-.81-2.37-3.43-2.37S12.87,58,12.87,59.17v4.91C12.87,65.28,13.68,66.46,16.3,66.46Z"/><path class="cls-1" d="M24.47,77.45A.48.48,0,0,0,24,77h-1.5a.48.48,0,0,0-.52.41l-2.53,8.6c-.08.26,0,.42.31.42h1.41a.47.47,0,0,0,.49-.42L22,84.72h2.32l.36,1.33a.47.47,0,0,0,.49.42h1.55c.29,0,.39-.16.31-.42Zm-2,5.47.21-.75a29.19,29.19,0,0,0,.48-2.9,27.43,27.43,0,0,0,.43,2.9l.2.75Z"/><path class="cls-1" d="M31.14,76.92c-2.62,0-3.43,1.18-3.43,2.38v4.9c0,1.2.81,2.38,3.43,2.38s3.44-1.18,3.44-2.38v-.84c0-.29-.1-.42-.39-.42H32.75c-.29,0-.41.13-.41.42v.44c0,.64-.48.9-1.17.9S30,84.44,30,83.8V79.7c0-.64.48-.9,1.16-.9s1.17.26,1.17.9v.23c0,.3.12.42.41.42h1.44c.29,0,.39-.12.39-.42V79.3C34.58,78.1,33.77,76.92,31.14,76.92Z"/><path class="cls-1" d="M38.5,38.5V0H0V38.5H18.5V52.28H0v38.5H38.5V52.28H20V38.5ZM36.17,53.78,1.5,88.45V53.78ZM2.79,89.28,37,55.07V89.28ZM37,1.5v17H1.5V1.5ZM1.5,20H37V37H1.5Z"/></g></g></svg>