<svg xmlns="http://www.w3.org/2000/svg" viewBox="0 0 45 10.47"><defs><style>.cls-1{fill:#dfe0e2;}</style></defs><title>Asset 69switch-vertical</title><g id="Layer_2" data-name="Layer 2"><g id="Layer_1-2" data-name="Layer 1"><path class="cls-1" d="M45,7H35.29a2.81,2.81,0,1,0,0,1.31H45ZM32.57,9.16a1.5,1.5,0,1,1,1.5-1.49A1.5,1.5,0,0,1,32.57,9.16Z"/><path class="cls-1" d="M27.93,0,16,6.86A2.79,2.79,0,0,0,10.65,7H0V8.32H10.65a2.79,2.79,0,0,0,5.43,0l12.5-7.22ZM13.37,9.16a1.5,1.5,0,1,1,1.5-1.49A1.5,1.5,0,0,1,13.37,9.16Z"/></g></g></svg>