<svg xmlns="http://www.w3.org/2000/svg" viewBox="0 0 10.47 45"><defs><style>.cls-1{fill:#dfe0e2;}</style></defs><title>Asset 70switch-vertical</title><g id="Layer_2" data-name="Layer 2"><g id="Layer_1-2" data-name="Layer 1"><path class="cls-1" d="M3.62,29.9,10.47,18l-1.13-.65L2.13,29.86a2.79,2.79,0,0,0,0,5.43V45H3.46V35.29a2.79,2.79,0,0,0,.16-5.39ZM2.8,34.07a1.5,1.5,0,1,1,1.5-1.5A1.5,1.5,0,0,1,2.8,34.07Z"/><path class="cls-1" d="M2.8,16.17a2.8,2.8,0,0,0,.66-5.52V0H2.15V10.65a2.8,2.8,0,0,0,.65,5.52Zm0-4.3a1.5,1.5,0,1,1-1.49,1.5A1.5,1.5,0,0,1,2.8,11.87Z"/></g></g></svg>