<?xml version="1.0" encoding="utf-8"?>
<!-- Generator: Adobe Illustrator 24.3.0, SVG Export Plug-In . SVG Version: 6.00 Build 0)  -->
<svg version="1.1" id="Layer_1" xmlns="http://www.w3.org/2000/svg" xmlns:xlink="http://www.w3.org/1999/xlink" x="0px" y="0px"
	 viewBox="0 0 80 80" style="enable-background:new 0 0 80 80;" xml:space="preserve">
<style type="text/css">
	.st0{fill:#F70DF7;}
</style>
<g id="Layer_2_1_">
	<g id="Layer_1-2">
		<path class="st0" d="M79.9,39.5H62.7c-0.7-2.6-3.4-4.2-6-3.6c-2.7,0.7-4.3,3.3-3.7,5.9c0.7,2.6,3.4,4.2,6,3.6
			c1.8-0.3,3.2-1.7,3.7-3.6h17.2V39.5z M57.9,43.4c-1.4,0-2.7-1.2-2.7-2.6s1.2-2.6,2.7-2.6c1.4,0,2.7,1.2,2.7,2.6l0,0
			C60.6,42.1,59.3,43.4,57.9,43.4z"/>
		<path class="st0" d="M44.4,28.8l-19,10.6c-0.7-2.3-3.2-3.5-5.5-2.8c-1.4,0.5-2.7,1.6-3,3.1H0.1v1.9h16.8c0.5,2.3,3,3.8,5.3,3.3
			c1.8-0.3,3-1.6,3.4-3.3l19.9-11.3L44.4,28.8z M21.4,43c-1.2,0-2.3-1-2.3-2.3c0-1.2,1.1-2.3,2.3-2.3s2.3,1,2.3,2.3l0,0
			C23.7,42,22.6,43,21.4,43z"/>
	</g>
</g>
</svg>
