<?xml version="1.0" encoding="utf-8"?>
<!-- Generator: Adobe Illustrator 24.1.2, SVG Export Plug-In . SVG Version: 6.00 Build 0)  -->
<svg version="1.1" id="Layer_1" xmlns="http://www.w3.org/2000/svg" xmlns:xlink="http://www.w3.org/1999/xlink" x="0px" y="0px"
	 viewBox="0 0 80 80" style="enable-background:new 0 0 80 80;" xml:space="preserve">
<g id="Layer_2_1_">
	<g id="Layer_1-2">
		<path d="M17.1,75.1c-0.3,0-0.5-0.3-0.5-0.5l-2.8-9.7c0-0.3,0-0.5,0.3-0.5h1.8c0.3-0.3,0.5,0,0.5,0.3l0,0l1.3,4.6
			c0.3,0.8,0.3,1.8,0.5,2.6c0,0,0.3-1.8,0.5-2.6l1.3-4.3c0-0.3,0.3-0.5,0.5-0.5h1.8c0.3,0,0.5,0.3,0.3,0.5l-2.8,9.7
			c0,0.3-0.3,0.5-0.5,0.5H17.1z"/>
		<path d="M29.6,70.5l1.5,3.8c0,0.3,0,0.5-0.5,0.5h-1.5c-0.3,0-0.3-0.3-0.5-0.5l-1.3-3.6h-1.3v3.6c0,0.3,0,0.5-0.5,0.5h-1.8
			c-0.3,0-0.5-0.3-0.5-0.5v-9.7c0-0.3,0.3-0.5,0.5-0.5h3.6c3.1,0,4.1,1.3,4.1,2.8v1.3C31.4,69.3,30.7,70.3,29.6,70.5z M26.1,66.5V69
			h1.3c0.8,0,1.5-0.3,1.5-1v-0.5c0-0.8-0.8-1-1.5-1H26.1z"/>
	</g>
</g>
<g id="Layer_2_2_">
	<g id="Layer_1-2_1_">
		<path d="M71.8,15.3c-1,0-1.5,0.8-1.5,1.5l0,0v12l-2,2.3c-2.3,2.6-6.1,2.6-8.7,0.3l-0.3-0.3l-1.8-2v-2c0-1-0.8-1.8-1.5-1.8
			s-1.5,0.8-1.5,1.5l0,0v1.8l-2.3,2.6c-1,1.3-2.8,2-4.3,2l0,0c-1.8,0-3.3-0.8-4.3-2l-2-2.3V1.8c0-1-0.8-1.8-1.5-1.8
			c-1,0-1.5,0.8-1.5,1.8v27.3l-2,2.3C34,34,30.2,34,27.6,31.7l-0.3-0.3l-1.8-2.3v-1.8c0-0.8-0.8-1.5-1.8-1.5c-1,0-1.5,0.8-1.5,1.5
			l0,0v2l-1.8,2c-1.5,1.3-3.1,2-4.9,2l0,0c-1.8,0-3.3-0.8-4.3-2l-1.8-2.3v-12c0-1-0.8-1.8-1.5-1.8l0,0c-1,0-1.5,0.8-1.5,1.5l0,0v13
			l2.3,3.6c1.8,2,4.3,3.1,6.9,3.1l0,0c2.6,0,5.1-1.3,6.9-3.1l1-1.3l1.3,1.3c3.3,3.8,9.2,4.3,13,1c0.3-0.3,0.5-0.5,1-1l1-1.3l1,1.3
			c1.8,2,4.3,3.1,6.9,3.1l0,0c2.6,0,5.1-1.3,6.9-3.1l1-1.3l1,1.3c3.3,3.8,9.2,4.3,13,1c0.3-0.3,0.5-0.5,1-1l2.8-3.1V17.1
			C73.6,16.1,72.8,15.3,71.8,15.3L71.8,15.3z"/>
		<path d="M63.9,43.5c-2.6,0-5.1,1.3-6.9,3.1l-1,1.3l-1-1.3c-1.8-2-4.3-3.3-6.9-3.1l0,0c-2.6,0-5.1,1.3-6.9,3.1l-1,1.3l-1-1.3
			c-3.3-3.8-9.2-4.3-13-1c-0.3,0.3-0.5,0.5-1,1l-1,1.3l-1-1.3c-1.8-2-4.3-3.3-7.2-3.1l0,0c-2.6,0-5.1,1.3-6.9,3.1l-2.8,3.3v13
			c0,1,0.8,1.5,1.5,1.5c1,0,1.8-0.8,1.8-1.5V51.1l2-2.3c1-1.3,2.8-2,4.3-2l0,0c1.8,0,3.3,0.8,4.3,2l1.8,2v2c0,1,0.8,1.5,1.5,1.5
			c1,0,1.8-0.8,1.8-1.5v-1.8l2-2.3c2.3-2.6,6.1-2.6,8.7-0.3l0.3,0.3l2,2.3v27.1c0,1,0.8,1.8,1.5,1.8c1,0,1.8-0.8,1.8-1.8V51.1
			l1.8-2.3c1-1.3,2.8-2,4.3-2l0,0c1.8,0,3.3,0.8,4.3,2l2,2.3v1.8c0,1,0.8,1.5,1.5,1.5c1,0,1.5-0.8,1.5-1.5v-2l1.8-2
			c2.3-2.6,6.1-2.6,8.7-0.3l0.3,0.3l2,2.3v12c0,1,0.8,1.5,1.5,1.5c1,0,1.5-0.8,1.5-1.5V49.8l-2.8-3.1C69.3,44.7,66.7,43.5,63.9,43.5
			z"/>
	</g>
</g>
</svg>
