<svg xmlns="http://www.w3.org/2000/svg" viewBox="0 0 38.17 33.23"><defs><style>.cls-1{fill:#dfe0e2;}</style></defs><title>Asset 74switch-vertical</title><g id="Layer_2" data-name="Layer 2"><g id="Layer_1-2" data-name="Layer 1"><path class="cls-1" d="M1.94,19.62c-.18,0-.27-.09-.33-.27L0,13.88c0-.17,0-.26.19-.26h1a.28.28,0,0,1,.31.26l.66,2.47a10.47,10.47,0,0,1,.22,1.44s.12-.94.25-1.44l.67-2.47c.05-.17.13-.26.31-.26h1c.19,0,.25.09.2.26l-1.6,5.47a.31.31,0,0,1-.33.27Z"/><path class="cls-1" d="M8.93,17.18l.86,2.17c.07.16,0,.27-.24.27h-1c-.16,0-.2-.14-.25-.27l-.78-2H6.9v2c0,.19-.06.27-.25.27h-1c-.18,0-.26-.08-.26-.27V13.88c0-.18.08-.26.26-.26H7.61c1.65,0,2.24.75,2.24,1.51v.76A1.36,1.36,0,0,1,8.93,17.18Zm-2-2.37v1.4h.71c.43,0,.8-.17.8-.57v-.26c0-.4-.37-.57-.8-.57Z"/><path class="cls-1" d="M23.46.65V12l-.81.94a2.5,2.5,0,0,1-3.79,0L18.05,12v-.78a.66.66,0,0,0-1.31,0v.84L16,13a2.52,2.52,0,0,1-1.9.87A2.49,2.49,0,0,1,12.19,13L11.38,12v-5a.66.66,0,0,0-.66-.65.65.65,0,0,0-.65.65v5.47l1.13,1.31a3.81,3.81,0,0,0,5.77,0l.45-.53.45.53a3.81,3.81,0,0,0,5.77,0l.48-.56.48.56a3.81,3.81,0,0,0,5.77,0l.45-.53.45.53a3.81,3.81,0,0,0,5.77,0l1.13-1.31V7.05a.65.65,0,0,0-.65-.65.66.66,0,0,0-.66.65v5l-.81.94a2.5,2.5,0,0,1-3.79,0l-.76-.88v-.84a.66.66,0,0,0-.66-.65.65.65,0,0,0-.65.65V12l-.81.94a2.52,2.52,0,0,1-1.9.87A2.49,2.49,0,0,1,25.59,13L24.77,12V.65A.65.65,0,0,0,24.12,0,.66.66,0,0,0,23.46.65Z"/><path class="cls-1" d="M14.08,18.09a3.79,3.79,0,0,0-2.88,1.32l-1.13,1.31v5.46a.66.66,0,0,0,.65.66.67.67,0,0,0,.66-.66v-5l.81-.95a2.49,2.49,0,0,1,1.89-.87,2.52,2.52,0,0,1,1.9.87l.76.89V22a.66.66,0,0,0,1.31,0V21.2l.81-.94a2.5,2.5,0,0,1,3.79,0l.82.95V32.58a.65.65,0,0,0,1.3,0V21.21l.82-.95a2.49,2.49,0,0,1,1.89-.87,2.52,2.52,0,0,1,1.9.87l.81.94V22a.65.65,0,0,0,.65.65A.66.66,0,0,0,31.5,22v-.83l.76-.89a2.5,2.5,0,0,1,3.79,0l.81.95v5a.67.67,0,0,0,.66.66.66.66,0,0,0,.65-.66V20.72L37,19.41a3.81,3.81,0,0,0-5.77,0l-.45.52-.45-.52a3.81,3.81,0,0,0-5.77,0l-.48.55-.48-.55a3.81,3.81,0,0,0-5.77,0l-.45.52L17,19.41A3.82,3.82,0,0,0,14.08,18.09Z"/></g></g></svg>